<?xml version="1.0" encoding="utf-8"?>
<!-- Generator: Adobe Illustrator 28.0.0, SVG Export Plug-In . SVG Version: 6.00 Build 0)  -->
<svg version="1.1" id="Layer_1" xmlns="http://www.w3.org/2000/svg" xmlns:xlink="http://www.w3.org/1999/xlink" x="0px" y="0px"
	 viewBox="0 0 512 512" style="enable-background:new 0 0 512 512;" xml:space="preserve">
<style type="text/css">
	.st0{fill:#EAE4E4;stroke:#000000;stroke-miterlimit:10;}
	.st1{fill:#010101;}
</style>
<g>
	<rect x="62.1" y="436.9" class="st0" width="53.5" height="66.5"/>
	<g>
		<g>
			<g>
				<path class="st1" d="M119.3,430H58.5c-2,0-3.7,1.6-3.7,3.5v75.1c0,1.9,1.7,3.5,3.7,3.5s3.7-1.6,3.7-3.5v-71.6h38.1l-20.1,7.5
					c-1.3,0.5-2.2,1.7-2.2,3.1v46.9c0,1.4,0.7,2.6,2.2,3.1l37.9,14.1c0.4,0.2,0.9,0.2,1.3,0.2c0.1,0,0.2,0,0.2,0c0,0,0.1,0,0.1,0
					c0,0,0.1,0,0.1,0c0.6-0.1,1.2-0.2,1.6-0.5c0.8-0.4,1.2-1,1.5-1.8c0,0,0,0,0,0c0,0,0,0,0,0c0.1-0.3,0.2-0.6,0.2-1v-75.1l0,0
					C123,431.6,121.3,430,119.3,430z M85.1,449.8l30.5-11.2v64.8l-30.5-11.2V449.8z"/>
				<path class="st1" d="M93,467.2c-2,0-3.7,1.6-3.7,3.5v0.3c0,1.9,1.7,3.5,3.7,3.5c2,0,3.7-1.4,3.7-3.5v-0.3
					C96.7,468.7,95,467.2,93,467.2z"/>
			</g>
		</g>
	</g>
</g>
</svg>
