<?xml version="1.0" encoding="utf-8"?>
<!-- Generator: Adobe Illustrator 28.0.0, SVG Export Plug-In . SVG Version: 6.00 Build 0)  -->
<svg version="1.1" id="Calque_1" xmlns="http://www.w3.org/2000/svg" xmlns:xlink="http://www.w3.org/1999/xlink" x="0px" y="0px"
	 viewBox="0 0 1216.6 1222.2" style="enable-background:new 0 0 1216.6 1222.2;" xml:space="preserve">
<g transform="translate(0.000000,1280.000000) scale(0.100000,-0.100000)">
	<path d="M5993.3,12789.2c-70.4-19.3-144.5-66.1-187.3-119c-28.5-34.6-747.3-1563.4-2918.9-6210C107.1,510.6,7.2,293.9,1.5,228.8
		c-14.3-176,72.3-331.6,225.3-409.9c56.1-27.5,70.4-30.5,152.1-30.5c75.1,1,98.9,5.1,142.6,26.4
		c28.5,13.2,1292.1,909.4,2807.6,1989.6l2754.4,1965.2L8838,1804.4C10353.5,724.2,11617.1-172,11645.6-186.2
		c44.7-21.4,66.6-25.4,142.6-25.4c81.8,0,96,3.1,152.1,30.5c34.2,17.3,81.8,50.9,105.5,73.2c83.7,80.4,133.1,226.8,117.9,353
		c-5.7,51.9-364.1,824.9-2890.3,6230.3c-2758.2,5900.8-2886.5,6173.4-2930.3,6215.1C6248.1,12782,6109.3,12820.7,5993.3,12789.2z"/>
</g>
</svg>
