<?xml version="1.0" encoding="utf-8"?>
<!-- Generator: Adobe Illustrator 28.0.0, SVG Export Plug-In . SVG Version: 6.00 Build 0)  -->
<svg version="1.1" id="Capa_1" xmlns="http://www.w3.org/2000/svg" xmlns:xlink="http://www.w3.org/1999/xlink" x="0px" y="0px"
	 viewBox="0 0 177 139.7" style="enable-background:new 0 0 177 139.7;" xml:space="preserve">
<g>
	<g>
		<path d="M101.2,84.7c0,12.2-9.5,22.1-21.2,22.1s-21.2-9.9-21.2-22.1S68.3,62.5,80,62.5S101.2,72.4,101.2,84.7z M144.7,29.2
			c8.5,0,15.3,7.2,15.3,16v41.9v35.5c0,9.4-7.3,17.1-16.4,17.1H16.4c-9,0-16.4-7.6-16.4-17.1V87.1V45.2l0,0c0-8.8,6.9-16,15.3-16H46
			l1.4-6.4C49.7,13,58.1,6,67.8,6h24.3c9.7,0,18.2,7,20.4,16.9l1.4,6.4L144.7,29.2L144.7,29.2z M32,52.3c0-4.4-3.4-8-7.7-8
			c-4.3,0-7.7,3.6-7.7,8s3.4,8,7.7,8C28.6,60.4,32,56.8,32,52.3z M117.8,84.7c0-21.8-17-39.5-37.8-39.5S42.2,62.9,42.2,84.7
			s17,39.5,37.8,39.5S117.8,106.4,117.8,84.7z"/>
	</g>
</g>
</svg>
