<?xml version="1.0" encoding="iso-8859-1"?>
<!-- Generator: Adobe Illustrator 16.0.0, SVG Export Plug-In . SVG Version: 6.00 Build 0)  -->
<!DOCTYPE svg PUBLIC "-//W3C//DTD SVG 1.1//EN" "http://www.w3.org/Graphics/SVG/1.1/DTD/svg11.dtd">
<svg version="1.1" id="Capa_1" xmlns="http://www.w3.org/2000/svg" xmlns:xlink="http://www.w3.org/1999/xlink" x="0px" y="0px"
	 width="52.59px" height="52.59px" viewBox="0 0 52.59 52.59" style="enable-background:new 0 0 52.59 52.59;" xml:space="preserve">
	<g>
		<path style="fill: red" d="M27.673,28.611c0-0.762-0.617-1.377-1.378-1.377c-0.761,0-1.378,0.615-1.378,1.377c0,0.604,0.392,1.111,0.933,1.297
			l-0.933,2.722h2.756l-0.933-2.722C27.281,29.723,27.673,29.216,27.673,28.611z"/>
		<path d="M23.067,20.562v3.246h6.455v-3.246c0-0.219-0.178-0.396-0.396-0.396h-5.662C23.245,20.165,23.067,20.343,23.067,20.562z"
			/>
		<path style="fill: red" d="M13.319,23.068v16.235h25.953V23.068L26.295,11.692L13.319,23.068z M30.767,20.562v3.246h0.405
			c0.688,0,1.246,0.558,1.246,1.246v9.755c0,0.688-0.559,1.245-1.246,1.245h-9.755c-0.688,0-1.246-0.557-1.246-1.245v-9.755
			c0-0.688,0.558-1.246,1.246-1.246h0.405v-3.246c0-0.904,0.736-1.643,1.642-1.643h5.662C30.031,18.919,30.767,19.657,30.767,20.562
			z"/>
		<path style="fill: red" d="M26.295,0C11.773,0,0,11.772,0,26.295C0,40.818,11.773,52.59,26.295,52.59c14.521,0,26.295-11.771,26.295-26.295
			C52.59,11.772,40.816,0,26.295,0z M41.138,40.236c0,0.518-0.418,0.935-0.935,0.935H12.384c-0.516,0-0.934-0.417-0.934-0.935
			V22.645c0-0.27,0.116-0.525,0.318-0.703L25.679,9.746c0.353-0.309,0.879-0.309,1.231,0L40.82,21.941
			c0.203,0.178,0.317,0.434,0.317,0.703V40.236z M45.427,22.439c-0.185,0.211-0.442,0.318-0.703,0.318
			c-0.219,0-0.438-0.076-0.616-0.232L26.295,6.909L8.48,22.525c-0.388,0.341-0.978,0.302-1.318-0.086
			c-0.34-0.388-0.301-0.979,0.087-1.317l18.43-16.159c0.353-0.309,0.879-0.309,1.231,0l18.43,16.158
			C45.729,21.46,45.767,22.051,45.427,22.439z"/>
	</g>


</svg>
