<?xml version="1.0" encoding="utf-8"?>
<!-- Generator: Adobe Illustrator 25.3.0, SVG Export Plug-In . SVG Version: 6.00 Build 0)  -->
<svg version="1.1" id="Calque_1" xmlns="http://www.w3.org/2000/svg" xmlns:xlink="http://www.w3.org/1999/xlink" x="0px" y="0px"
	 viewBox="0 0 70 95" style="enable-background:new 0 0 70 95;" xml:space="preserve">
<style type="text/css">
	.st0{fill:#08CBEF;}
	.st1{fill:#0FA5E9;}
	.st2{fill:#4E99BB;}
	.st3{fill:#8BBBD3;}
	.st4{fill:#2F86B0;}
	.st5{fill:#9ECDE1;}
	.st6{fill:#56C8E8;}
</style>
<path class="st0" d="M20,10.5c8.2-1.9,16.8-3.6,25-0.4C62.4,16.9,67.8,38.9,55.7,53c-5.9,6.8-13.3,8.5-21.7,10c3,3.1,6.7,4.1,11,4
	c0.8,3.8,3.4,4.2,7,5c10.3-16.6,23.2-30.4,14.5-51c-1.4-3.3-3.3-6.3-5.7-9C54.1,4.8,43.8,0.6,34,1C13.5,5,17.7,5.3,20,10.5z"/>
<path class="st1" d="M20.8,4c-4.3,2.6-8.4,5.1-11.7,9c-23.5,27.8,11.7,59.3,25.7,82c6.3-6.2,12.1-15.1,16-23c-2.8-1.3-5-2-6-5
	c-5-0.1-7.9-2.6-12.3-4.5c-3.6-1.5-7.3-1.9-10.7-4.1C12.1,52.3,5.9,40.4,9.2,29c1.1-3.6,2.6-7.1,5-10C18.1,14.1,23.7,10.9,20.8,4z"
	/>
<path class="st2" d="M47,11l1,1L47,11z"/>
<path class="st0" d="M16.5,34c4.8-2.2,8.1-6.2,11.9-9.8c1.9-1.8,4.2-4.3,7-4.1c6.7,0.7,11.9,11,18.1,13.9c0.2-6.8-6.5-10.6-11-15
	c-1.9-1.9-4.2-4.5-7-4.9c-2.1-0.3-3.4,0.9-5,1.8c-0.4-1.8-1.3-4-3.7-2.3c-2.1,1.6-1,5.1-2.1,7.2C22.2,26.3,15.6,27.1,16.5,34z"/>
<path class="st3" d="M50,13l1,1L50,13z"/>
<path class="st4" d="M57,19l1,1L57,19z"/>
<path class="st5" d="M57,20l1,1L57,20z"/>
<path class="st0" d="M34,22.2C24.5,25.4,20,35,20,44c0,2.7-0.5,6.3,1.6,8.4c1.7,1.7,4.2,1.6,6.4,1.6c5.6,0.1,15.6,1.9,20.7-0.6
	c3.2-1.6,2.3-6.5,2.3-9.4c0-9-2.3-12.1-9-18.1C39.8,24,37.3,21.1,34,22.2z"/>
<path class="st3" d="M58,21l1,1L58,21z"/>
<path class="st2" d="M59,22l1,1L59,22z"/>
<path class="st6" d="M3,23l1,1L3,23z"/>
<path class="st5" d="M23,23l1,1L23,23z"/>
<path class="st3" d="M59,23l1,1L59,23z"/>
<path class="st6" d="M67,23l1,1L67,23z"/>
<path class="st5" d="M21,25l1,1L21,25z"/>
<path class="st3" d="M60,25l1,1L60,25 M2,26l1,1L2,26z"/>
<path class="st6" d="M68,26l1,1L68,26z"/>
<path class="st2" d="M61,27l1,1L61,27z"/>
<path class="st2" d="M31,38l1,1L31,38z"/>
<path class="st0" d="M35,41l1,1L35,41z"/>
<path class="st3" d="M3,46l1,1L3,46z"/>
<path class="st6" d="M22,46l1,1L22,46z"/>
<path class="st3" d="M27,47l1,1L27,47z"/>
<path class="st2" d="M4,48l1,1L4,48z"/>
<path class="st5" d="M4,49l1,1L4,49z"/>
<path class="st5" d="M6,53l1,1L6,53z"/>
<path class="st2" d="M7,54l1,1L7,54z"/>
<path class="st5" d="M52,56l1,1L52,56z"/>
<path class="st3" d="M12,62l1,1L12,62z"/>
<path class="st5" d="M13,64l1,1L13,64z"/>
<path class="st5" d="M18,71l1,1L18,71 M52,71l1,1L52,71z"/>
<path class="st3" d="M19,72l1,1L19,72 M51,72l1,1L51,72z"/>
<path class="st2" d="M22,76l1,1L22,76 M48,76l1,1L48,76z"/>
<path class="st5" d="M23,78l1,1L23,78 M47,78l1,1L47,78z"/>
<path class="st3" d="M24,79l1,1L24,79 M46,79l1,1L46,79z"/>
<path class="st3" d="M26,82l1,1L26,82 M44,82l1,1L44,82z"/>
<path class="st2" d="M27,83l1,1L27,83 M43,83l1,1L43,83z"/>
<path class="st3" d="M28,85l1,1L28,85 M42,85l1,1L42,85z"/>
<path class="st2" d="M29,86l1,1L29,86 M41,86l1,1L41,86z"/>
<path class="st3" d="M31,89l1,1L31,89 M39,89l1,1L39,89z"/>
<path class="st1" d="M0,13"/>
</svg>
