<?xml version="1.0" encoding="utf-8"?>
<!-- Generator: Adobe Illustrator 22.0.0, SVG Export Plug-In . SVG Version: 6.00 Build 0)  -->
<svg version="1.1" xmlns="http://www.w3.org/2000/svg" xmlns:xlink="http://www.w3.org/1999/xlink" x="0px" y="0px"
	 viewBox="0 0 420.5 320.9" style="enable-background:new 0 0 420.5 320.9;" xml:space="preserve">
<style type="text/css">
	.st0{fill:#F1F2F2;}
	.st1{fill:#7AC143;}
	.st2{fill:#39B54A;}
	.st3{fill:#594A42;}
	.st4{fill:#726658;}
	.st5{fill:#38C6F4;}
	.st6{opacity:0.26;}
	.st7{fill:#3C2415;}
</style>
<g id="_x31_">
	<path class="st0" d="M401.3,259.5c0-0.2,0-0.4,0-0.7c0-0.4-0.1-0.9-0.1-1.3c0-0.2,0-0.4-0.1-0.6c-0.1-0.5-0.1-1-0.2-1.5
		c0-0.1,0-0.3-0.1-0.4c-0.2-1.3-0.5-2.7-0.8-4.1c0-0.1-0.1-0.2-0.1-0.3c-0.1-0.6-0.3-1.1-0.5-1.7c0-0.1-0.1-0.3-0.1-0.4
		c-0.2-0.6-0.4-1.2-0.6-1.7c0-0.1-0.1-0.2-0.1-0.3c-0.4-1.2-0.8-2.3-1.3-3.5c-0.4-1-0.9-2-1.4-3.1c0,0,0,0,0,0
		c-0.4-0.7-0.7-1.4-1.1-2.2c0-0.1-0.1-0.1-0.1-0.2c-0.4-0.7-0.8-1.4-1.2-2.1c0,0,0-0.1-0.1-0.1c-1.4-2.3-2.9-4.5-4.6-6.8l0,0
		c-19.2-25.1-62.6-49.6-143.8-53.9l1.6-29.9l-0.1,0c0-0.2,0.1-0.5,0.1-0.8c1.5-19.3-67.9-19.3-73.9,1.8c-0.1,0.4-0.1,0.9,0,1.3v29.3
		c-52.4,5.9-95.5,21.7-125.5,39.1c0,0,0,0,0,0c-0.1,0.1-0.2,0.1-0.3,0.2c-1.1,0.7-2.2,1.3-3.3,2c-0.1,0.1-0.2,0.1-0.3,0.2
		c-1.1,0.6-2.1,1.3-3.1,1.9c-0.3,0.2-0.7,0.4-1,0.6c-0.8,0.5-1.6,1-2.4,1.5c-0.4,0.3-0.8,0.5-1.1,0.8c-0.7,0.5-1.4,0.9-2.1,1.4
		c-0.4,0.3-0.8,0.6-1.2,0.8c-0.6,0.4-1.3,0.9-1.9,1.3c-0.4,0.3-0.8,0.6-1.2,0.9c-0.6,0.4-1.2,0.9-1.7,1.3c-0.4,0.3-0.8,0.6-1.2,0.9
		c-0.5,0.4-1.1,0.8-1.6,1.3c-0.4,0.3-0.8,0.6-1.2,0.9c-0.5,0.4-1,0.8-1.5,1.2c-0.4,0.3-0.7,0.6-1.1,1c-0.5,0.4-0.9,0.8-1.4,1.2
		c-0.4,0.3-0.7,0.6-1.1,1c-0.4,0.4-0.9,0.8-1.3,1.2c-0.3,0.3-0.7,0.6-1,1c-0.4,0.4-0.8,0.8-1.2,1.2c-0.3,0.3-0.6,0.6-1,1
		c-0.4,0.4-0.8,0.8-1.1,1.1c-0.3,0.3-0.6,0.6-0.9,1c-0.3,0.4-0.7,0.8-1,1.1c-0.3,0.3-0.6,0.6-0.8,1c-0.3,0.4-0.6,0.7-0.9,1.1
		c-0.3,0.3-0.5,0.6-0.8,0.9c-0.3,0.4-0.6,0.7-0.9,1.1c-0.2,0.3-0.5,0.6-0.7,0.9c-0.3,0.4-0.5,0.7-0.8,1.1c-0.2,0.3-0.4,0.6-0.6,0.9
		c-0.2,0.3-0.5,0.7-0.7,1c-0.2,0.3-0.4,0.6-0.6,0.9c-0.2,0.3-0.4,0.7-0.6,1c-0.2,0.3-0.3,0.6-0.5,0.9c-0.2,0.3-0.3,0.7-0.5,1
		c-0.1,0.3-0.3,0.6-0.4,0.9c-0.2,0.3-0.3,0.6-0.4,1c-0.1,0.3-0.2,0.6-0.3,0.8c-0.1,0.3-0.2,0.6-0.3,0.9c-0.1,0.3-0.2,0.5-0.3,0.8
		c-0.1,0.3-0.2,0.6-0.3,0.9c-0.1,0.3-0.1,0.5-0.2,0.8c-0.1,0.3-0.1,0.6-0.2,0.9c0,0.3-0.1,0.5-0.1,0.8c0,0.3-0.1,0.6-0.1,0.9
		c0,0.2,0,0.5,0,0.7c0,0.3,0,0.5,0,0.8c0,0.2,0,0.5,0,0.7c0,0.3,0.1,0.5,0.1,0.8c0,0.2,0.1,0.4,0.1,0.7c0.1,0.3,0.1,0.5,0.2,0.8
		c0.1,0.2,0.1,0.4,0.2,0.6c0.1,0.3,0.2,0.5,0.3,0.7c0.1,0.2,0.2,0.4,0.2,0.6c0.1,0.2,0.3,0.5,0.4,0.7c0.1,0.2,0.2,0.3,0.3,0.5
		c0.2,0.2,0.4,0.5,0.5,0.7c0.1,0.1,0.2,0.3,0.4,0.4c0.2,0.2,0.5,0.5,0.7,0.7c0.1,0.1,0.2,0.2,0.3,0.3c0.4,0.3,0.8,0.7,1.3,1
		c5.9,4,12.4,7.7,19.4,11c5.2,2.5,10.8,4.7,16.6,6.8c1.9,0.7,3.9,1.4,5.9,2c7.9,2.6,16.3,4.9,25,6.8c13.1,2.9,26.9,5.2,41.2,6.8
		c7.1,0.8,14.4,1.5,21.8,2c26.9,1.9,55,1.8,82.3,0.2c2.7-0.2,5.5-0.3,8.2-0.5c1.4-0.1,2.7-0.2,4.1-0.3c2.7-0.2,5.4-0.4,8.1-0.6
		c2.7-0.2,5.4-0.5,8-0.7c2.7-0.2,5.3-0.5,8-0.8c1.3-0.1,2.6-0.3,4-0.4c2.6-0.3,5.2-0.6,7.8-0.9c1.3-0.2,2.6-0.3,3.9-0.5
		c2.6-0.3,5.1-0.6,7.7-1c3.8-0.5,7.6-1,11.3-1.6c2.5-0.4,4.9-0.8,7.3-1.1c2.4-0.4,4.8-0.8,7.2-1.2c3.6-0.6,7-1.2,10.5-1.9
		c2.3-0.4,4.5-0.9,6.8-1.3c2.2-0.4,4.4-0.9,6.6-1.4c4.3-0.9,8.5-1.9,12.5-2.9c3-0.7,6-1.5,8.8-2.2c1.9-0.5,3.8-1,5.6-1.5
		c14.5-4.1,26.4-8.5,34.7-13c2.1-1.1,3.9-2.2,5.5-3.3c0.4-0.3,0.8-0.6,1.2-0.8c4.1-3.1,6.4-6.1,6.5-9v0c0-0.6,0-1.2,0-1.8
		c0-0.2,0-0.4,0-0.6C401.3,260.4,401.3,259.9,401.3,259.5z"/>
	<path class="st0" d="M170.2,133.5c0,0-41.2-66.9-56.6-59.2C98.2,82.1,170.2,133.5,170.2,133.5z"/>
	<path class="st0" d="M139.3,12.6c-15.4,5.1,36,74.6,36,74.6S154.8,7.4,139.3,12.6z"/>
	<path class="st0" d="M194.7,25.4c-18,1.3,3.9,75.9,3.9,75.9S212.7,24.2,194.7,25.4z"/>
	<path class="st0" d="M253.8,12.6c-18-1.3-30.9,66.9-30.9,66.9S271.9,13.9,253.8,12.6z"/>
	<path class="st0" d="M277,49.9c-18-7.7-36,51.5-36,51.5S295,57.6,277,49.9z"/>
	<path class="st0" d="M252.6,121.9c0,0,61.8-28.3,46.3-38.6C283.4,73.1,252.6,121.9,252.6,121.9z"/>
	<path class="st1" d="M24.8,218.2c0.5-0.4,1.1-0.8,1.6-1.3C25.9,217.4,25.3,217.8,24.8,218.2z"/>
	<path class="st1" d="M22.1,220.4c0.5-0.4,1-0.8,1.5-1.2C23.1,219.6,22.6,220,22.1,220.4z"/>
	<path class="st1" d="M15,226.8c0.4-0.4,0.8-0.8,1.2-1.2C15.8,226,15.4,226.4,15,226.8z"/>
	<path class="st1" d="M17.3,224.7c0.4-0.4,0.9-0.8,1.3-1.2C18.1,223.9,17.7,224.3,17.3,224.7z"/>
	<path class="st1" d="M19.6,222.5c0.5-0.4,0.9-0.8,1.4-1.2C20.6,221.7,20.1,222.1,19.6,222.5z"/>
	<path class="st1" d="M393.5,223c0.4,0.7,0.8,1.4,1.2,2.1C394.4,224.4,394,223.7,393.5,223z"/>
	<path class="st1" d="M38.6,230.2c8.7,12.5,21.6,3.8,44.4,9.2c22.7,5.4,20.6,6.5,42.2,16.2c21.6,9.7,134.2-26,153.7-13
		c19.5,13,58.5-25,77.9-12.5c16.4,10.5,25.2-1.7,32-14.2c-19.2-25.1-62.6-49.6-143.8-53.9l-0.6,11.9c-7.4,2.4-14.6,3.8-21.4,4.5
		v24.6c0,0,0,0,0,0c-9.7-2.8-12-15.1-12-15.1c-6,2.6-8.6,12-8.6,12c-4.3-4.3-6-8.6-6-8.6c-1,2.3-2.6,5.1-4.3,7.5v-21.4
		c-11.9-2-19.3-5.1-19.3-5.1V164c-54.6,6.2-99,23-129.1,41.2c1.2-0.7,2.4-1.4,3.7-2.2C40.4,212,33.9,223.4,38.6,230.2z"/>
	<path class="st1" d="M5.2,262.2c-0.4-0.3-0.9-0.6-1.3-1C4.3,261.6,4.7,261.9,5.2,262.2c47.1,32.4,132.5,40.1,212,35.6
		C137.7,302.3,52.2,294.6,5.2,262.2z"/>
	<path class="st1" d="M400.1,238.6c0.3,1.4,0.6,2.7,0.8,4.1C400.7,241.3,400.4,240,400.1,238.6z"/>
	<path class="st1" d="M398.8,234.4c0.2,0.6,0.4,1.2,0.6,1.7C399.2,235.5,399,234.9,398.8,234.4z"/>
	<path class="st1" d="M399.5,236.5c0.2,0.6,0.3,1.2,0.5,1.7C399.8,237.7,399.7,237.1,399.5,236.5z"/>
	<path class="st1" d="M400.9,243.1c0.1,0.5,0.1,1,0.2,1.5C401.1,244.1,401,243.6,400.9,243.1z"/>
	<path class="st1" d="M401.3,247.2c0,0.4,0,0.9,0,1.3C401.3,248,401.3,247.6,401.3,247.2z"/>
	<path class="st1" d="M401.2,245.2c0,0.4,0.1,0.9,0.1,1.3C401.2,246.1,401.2,245.6,401.2,245.2z"/>
	<path class="st1" d="M388.9,216.1c1.7,2.3,3.3,4.5,4.6,6.8C392.1,220.6,390.6,218.3,388.9,216.1z"/>
	<path class="st1" d="M33.6,211.7c0.7-0.5,1.4-0.9,2.1-1.4C35,210.8,34.3,211.2,33.6,211.7z"/>
	<path class="st1" d="M36.8,209.5c0.8-0.5,1.6-1,2.4-1.5C38.4,208.5,37.6,209,36.8,209.5z"/>
	<path class="st1" d="M30.5,213.9c0.6-0.4,1.2-0.9,1.9-1.3C31.8,213,31.1,213.4,30.5,213.9z"/>
	<path class="st1" d="M27.6,216.1c0.6-0.4,1.2-0.9,1.7-1.3C28.7,215.2,28.2,215.6,27.6,216.1z"/>
	<path class="st1" d="M394.8,225.3c0.4,0.7,0.8,1.4,1.1,2.2C395.6,226.7,395.2,226,394.8,225.3z"/>
	<path class="st1" d="M40.2,207.4c1-0.6,2.1-1.3,3.1-1.9C42.2,206.1,41.2,206.7,40.2,207.4z"/>
	<path class="st1" d="M396,227.5c1.1,2.2,2,4.4,2.7,6.6C398,231.9,397.1,229.7,396,227.5z"/>
	<path class="st1" d="M401.4,249c0,0.6,0,1.2,0,1.8C401.3,250.2,401.4,249.6,401.4,249z"/>
	<path class="st1" d="M3.6,260.9c-0.3-0.2-0.5-0.5-0.7-0.7C3,260.4,3.3,260.6,3.6,260.9z"/>
	<path class="st1" d="M253.6,294.9c-2.6,0.3-5.3,0.5-8,0.8C248.3,295.5,250.9,295.2,253.6,294.9z"/>
	<path class="st1" d="M245.6,295.7c-2.7,0.2-5.4,0.5-8,0.7C240.3,296.2,242.9,296,245.6,295.7z"/>
	<path class="st1" d="M237.6,296.4c-2.7,0.2-5.4,0.4-8.1,0.6C232.2,296.8,234.9,296.6,237.6,296.4z"/>
	<path class="st1" d="M2.5,259.7c-0.2-0.2-0.4-0.5-0.5-0.7C2.1,259.3,2.3,259.5,2.5,259.7z"/>
	<path class="st1" d="M0.9,257.2c-0.1-0.2-0.2-0.5-0.3-0.7C0.7,256.7,0.8,257,0.9,257.2z"/>
	<path class="st1" d="M1.6,258.5c-0.1-0.2-0.3-0.5-0.4-0.7C1.3,258,1.5,258.3,1.6,258.5z"/>
	<path class="st1" d="M0.5,255.9c-0.1-0.3-0.1-0.5-0.2-0.8C0.3,255.4,0.4,255.6,0.5,255.9z"/>
	<path class="st1" d="M313.1,286.3c-3.4,0.6-6.9,1.3-10.5,1.9C306.2,287.6,309.7,287,313.1,286.3z"/>
	<path class="st1" d="M265.3,293.6c-2.6,0.3-5.2,0.6-7.8,0.9C260.1,294.2,262.8,293.9,265.3,293.6z"/>
	<path class="st1" d="M319.9,285c-2.2,0.4-4.5,0.9-6.8,1.3C315.4,285.9,317.6,285.5,319.9,285z"/>
	<path class="st1" d="M13,228.9c0.4-0.4,0.7-0.8,1.1-1.1C13.7,228.2,13.3,228.5,13,228.9z"/>
	<path class="st1" d="M288.1,290.6c-3.7,0.6-7.5,1.1-11.3,1.6C280.7,291.7,284.4,291.1,288.1,290.6z"/>
	<path class="st1" d="M276.9,292.2c-2.5,0.3-5.1,0.7-7.7,1C271.8,292.8,274.4,292.5,276.9,292.2z"/>
	<path class="st1" d="M302.6,288.2c-2.4,0.4-4.8,0.8-7.2,1.2C297.9,289,300.3,288.6,302.6,288.2z"/>
	<path class="st1" d="M6.2,237.1c0.2-0.4,0.5-0.7,0.8-1.1C6.7,236.4,6.4,236.7,6.2,237.1z"/>
	<path class="st1" d="M2.7,242.8c0.2-0.3,0.3-0.7,0.5-1C3,242.2,2.8,242.5,2.7,242.8z"/>
	<path class="st1" d="M7.6,235.1c0.3-0.4,0.6-0.7,0.9-1.1C8.2,234.4,7.9,234.7,7.6,235.1z"/>
	<path class="st1" d="M3.7,240.9c0.2-0.3,0.4-0.7,0.6-1C4.1,240.3,3.9,240.6,3.7,240.9z"/>
	<path class="st1" d="M11,231c0.3-0.4,0.7-0.7,1-1.1C11.7,230.2,11.4,230.6,11,231z"/>
	<path class="st1" d="M9.3,233.1c0.3-0.4,0.6-0.7,0.9-1.1C9.9,232.3,9.6,232.7,9.3,233.1z"/>
	<path class="st1" d="M0.2,254.5c0-0.3-0.1-0.5-0.1-0.8C0.1,253.9,0.1,254.2,0.2,254.5z"/>
	<path class="st1" d="M4.8,239c0.2-0.3,0.4-0.7,0.7-1C5.3,238.3,5.1,238.7,4.8,239z"/>
	<path class="st1" d="M0,251.4c0-0.3,0-0.6,0.1-0.9C0.1,250.9,0.1,251.1,0,251.4z"/>
	<path class="st1" d="M0.2,249.8c0.1-0.3,0.1-0.6,0.2-0.9C0.3,249.2,0.3,249.5,0.2,249.8z"/>
	<path class="st1" d="M1.8,244.6c0.1-0.3,0.3-0.6,0.4-1C2.1,244,2,244.3,1.8,244.6z"/>
	<path class="st1" d="M0,253c0-0.3,0-0.5,0-0.8C0,252.4,0,252.7,0,253z"/>
	<path class="st1" d="M1.1,246.4c0.1-0.3,0.2-0.6,0.3-0.9C1.4,245.8,1.2,246.1,1.1,246.4z"/>
	<path class="st1" d="M0.6,248.1c0.1-0.3,0.2-0.6,0.3-0.9C0.8,247.5,0.7,247.8,0.6,248.1z"/>
	<g>
		<path class="st2" d="M401.3,247.2c0-0.2,0-0.4,0-0.7c0-0.4-0.1-0.9-0.1-1.3c0-0.2,0-0.4-0.1-0.6c-0.1-0.5-0.1-1-0.2-1.5
			c0-0.1,0-0.3-0.1-0.4c-0.2-1.3-0.5-2.7-0.8-4.1c0-0.1-0.1-0.2-0.1-0.3c-0.1-0.6-0.3-1.1-0.5-1.7c0-0.1-0.1-0.3-0.1-0.4
			c-0.2-0.6-0.4-1.2-0.6-1.7c0-0.1-0.1-0.2-0.1-0.3c-0.7-2.2-1.7-4.4-2.7-6.6c0,0,0,0,0,0c-0.4-0.7-0.7-1.4-1.1-2.2
			c0-0.1-0.1-0.1-0.1-0.2c-0.4-0.7-0.8-1.4-1.2-2.1c0,0,0-0.1-0.1-0.1c-1.4-2.3-2.9-4.5-4.6-6.8l0,0l0,0
			c-6.9,12.5-15.6,24.7-32,14.2c-19.5-12.5-58.5,25.5-77.9,12.5c-19.5-13-132.1,22.7-153.7,13c-21.6-9.7-19.5-10.8-42.2-16.2
			c-22.7-5.4-35.7,3.2-44.4-9.2c-4.7-6.8,1.8-18.2,8.7-27.2c-1.2,0.7-2.5,1.4-3.7,2.2c-0.1,0.1-0.2,0.1-0.3,0.2
			c-1.1,0.6-2.1,1.3-3.1,1.9c-0.3,0.2-0.7,0.4-1,0.6c-0.8,0.5-1.6,1-2.4,1.5c-0.4,0.3-0.8,0.5-1.1,0.8c-0.7,0.5-1.4,0.9-2.1,1.4
			c-0.4,0.3-0.8,0.6-1.2,0.8c-0.6,0.4-1.3,0.9-1.9,1.3c-0.4,0.3-0.8,0.6-1.2,0.9c-0.6,0.4-1.2,0.9-1.7,1.3c-0.4,0.3-0.8,0.6-1.2,0.9
			c-0.5,0.4-1.1,0.8-1.6,1.3c-0.4,0.3-0.8,0.6-1.2,0.9c-0.5,0.4-1,0.8-1.5,1.2c-0.4,0.3-0.7,0.6-1.1,1c-0.5,0.4-0.9,0.8-1.4,1.2
			c-0.4,0.3-0.7,0.6-1.1,1c-0.4,0.4-0.9,0.8-1.3,1.2c-0.3,0.3-0.7,0.6-1,1c-0.4,0.4-0.8,0.8-1.2,1.2c-0.3,0.3-0.6,0.6-1,1
			c-0.4,0.4-0.8,0.8-1.1,1.1c-0.3,0.3-0.6,0.6-0.9,1c-0.3,0.4-0.7,0.8-1,1.1c-0.3,0.3-0.6,0.6-0.8,1c-0.3,0.4-0.6,0.7-0.9,1.1
			c-0.3,0.3-0.5,0.6-0.8,0.9c-0.3,0.4-0.6,0.7-0.9,1.1c-0.2,0.3-0.5,0.6-0.7,0.9c-0.3,0.4-0.5,0.7-0.8,1.1c-0.2,0.3-0.4,0.6-0.6,0.9
			c-0.2,0.3-0.5,0.7-0.7,1c-0.2,0.3-0.4,0.6-0.6,0.9c-0.2,0.3-0.4,0.7-0.6,1c-0.2,0.3-0.3,0.6-0.5,0.9c-0.2,0.3-0.3,0.7-0.5,1
			c-0.1,0.3-0.3,0.6-0.4,0.9c-0.2,0.3-0.3,0.6-0.4,1c-0.1,0.3-0.2,0.6-0.3,0.8c-0.1,0.3-0.2,0.6-0.3,0.9c-0.1,0.3-0.2,0.5-0.3,0.8
			c-0.1,0.3-0.2,0.6-0.3,0.9c-0.1,0.3-0.1,0.5-0.2,0.8c-0.1,0.3-0.1,0.6-0.2,0.9c0,0.3-0.1,0.5-0.1,0.8c0,0.3-0.1,0.6-0.1,0.9
			c0,0.2,0,0.5,0,0.7c0,0.3,0,0.5,0,0.8c0,0.2,0,0.5,0,0.7c0,0.3,0.1,0.5,0.1,0.8c0,0.2,0.1,0.4,0.1,0.7c0.1,0.3,0.1,0.5,0.2,0.8
			c0.1,0.2,0.1,0.4,0.2,0.6c0.1,0.2,0.2,0.5,0.3,0.7c0.1,0.2,0.2,0.4,0.2,0.6c0.1,0.2,0.3,0.5,0.4,0.7c0.1,0.2,0.2,0.3,0.3,0.5
			c0.2,0.2,0.4,0.5,0.5,0.7c0.1,0.1,0.2,0.3,0.4,0.4c0.2,0.2,0.5,0.5,0.7,0.7c0.1,0.1,0.2,0.2,0.3,0.3c0.4,0.3,0.8,0.7,1.3,1
			c47.1,32.4,132.5,40.1,212,35.6c2.7-0.2,5.5-0.3,8.2-0.5c1.4-0.1,2.7-0.2,4.1-0.3c2.7-0.2,5.4-0.4,8.1-0.6c2.7-0.2,5.4-0.5,8-0.7
			c2.7-0.2,5.3-0.5,8-0.8c1.3-0.1,2.6-0.3,4-0.4c2.6-0.3,5.2-0.6,7.8-0.9c1.3-0.2,2.6-0.3,3.9-0.5c2.6-0.3,5.1-0.6,7.7-1
			c3.8-0.5,7.6-1,11.3-1.6c2.5-0.4,4.9-0.8,7.3-1.1c2.4-0.4,4.8-0.8,7.2-1.2c3.6-0.6,7-1.2,10.5-1.9c2.3-0.4,4.5-0.9,6.8-1.3
			c2.2-0.4,4.4-0.9,6.6-1.4c4.3-0.9,8.5-1.9,12.5-2.9c3-0.7,6-1.5,8.8-2.2c1.9-0.5,3.8-1,5.6-1.5c14.5-4.1,26.4-8.5,34.7-13
			c2.1-1.1,3.9-2.2,5.5-3.3c0.4-0.3,0.8-0.6,1.2-0.8c4.1-3.1,6.4-6.1,6.5-9v0c0-0.6,0-1.2,0-1.8c0-0.2,0-0.4,0-0.6
			C401.3,248,401.3,247.6,401.3,247.2z"/>
	</g>
	<path class="st1" d="M-249.7,533.4c-2.7,0.2-5.4,0.4-8.1,0.6C-255.1,533.8-252.4,533.6-249.7,533.4z"/>
	<path class="st1" d="M-311.6,536c-1.4,0-2.8,0-4.1,0C-314.3,536-312.9,536-311.6,536z"/>
	<path class="st1" d="M-241.7,532.7c-2.7,0.2-5.4,0.5-8,0.7C-247,533.2-244.4,533-241.7,532.7z"/>
	<path class="st1" d="M-270.1,534.8c-2.7,0.2-5.5,0.3-8.2,0.4C-275.6,535.1-272.9,535-270.1,534.8z"/>
	<path class="st1" d="M-278.4,535.2c-11,0.5-22.1,0.7-33.2,0.7C-300.5,536-289.4,535.7-278.4,535.2z"/>
	<path class="st1" d="M-319.9,535.9c-12.4-0.2-24.8-0.7-36.9-1.6C-344.6,535.2-332.3,535.7-319.9,535.9z"/>
	<path class="st3" d="M192.1,177.6V199c1.6-2.5,3.3-5.2,4.3-7.5c0,0,1.7,4.3,6,8.6c0,0,2.6-9.4,8.6-12c0,0,2.3,12.3,12,15.1
		c0,0,0,0,0,0v-24.6C211.1,179.8,200.5,179,192.1,177.6z"/>
	<path class="st4" d="M192.1,177.6c8.4,1.4,19,2.2,30.9,1c6.8-0.7,14-2.1,21.4-4.5l0.6-11.9l1.6-29.9l-0.1,0
		c-3.3,17.6-71.1,12.6-73.8,2.4V164v8.5C172.7,172.5,180.2,175.7,192.1,177.6z"/>
	<path class="st3" d="M246.5,132.3c0-0.2,0.1-0.5,0.1-0.8c1.5-19.3-67.9-19.3-73.9,1.8c-0.1,0.4-0.1,0.9,0,1.3
		C175.5,144.9,243.3,149.9,246.5,132.3z M205.8,140.9c-3.8,0-6.9-1.3-6.9-3s3.1-3,6.9-3c3.8,0,6.9,1.3,6.9,3
		S209.6,140.9,205.8,140.9z M223,139.6c-3.8,0-6.9-1.3-6.9-3c0-1.7,3.1-3,6.9-3s6.9,1.3,6.9,3C229.8,138.3,226.8,139.6,223,139.6z
		 M234.5,125.5c3.8,0,6.9,1.3,6.9,3s-3.1,3-6.9,3c-3.8,0-6.9-1.3-6.9-3S230.8,125.5,234.5,125.5z M217.8,121.2c3.8,0,6.9,1.3,6.9,3
		c0,1.7-3.1,3-6.9,3c-3.8,0-6.9-1.3-6.9-3C211,122.5,214,121.2,217.8,121.2z M199.8,122.1c3.8,0,6.9,1.3,6.9,3s-3.1,3-6.9,3
		s-6.9-1.3-6.9-3S196,122.1,199.8,122.1z M187.4,129.8c3.8,0,6.9,1.3,6.9,3s-3.1,3-6.9,3c-3.8,0-6.9-1.3-6.9-3
		S183.6,129.8,187.4,129.8z"/>
	<path class="st5" d="M170.2,121.2c0,0-41.2-66.9-56.6-59.2C98.2,69.7,170.2,121.2,170.2,121.2z"/>
	<path class="st5" d="M139.3,0.2c-15.4,5.1,36,74.6,36,74.6S154.8-4.9,139.3,0.2z"/>
	<g>
		<path class="st5" d="M194.7,13.1c-18,1.3,3.9,75.9,3.9,75.9S212.7,11.8,194.7,13.1z"/>
	</g>
	<path class="st5" d="M253.8,0.2C235.8-1,223,67.1,223,67.1S271.9,1.5,253.8,0.2z"/>
	<path class="st5" d="M277,37.6C259,29.8,241,89,241,89S295,45.3,277,37.6z"/>
	<path class="st5" d="M252.6,109.6c0,0,61.8-28.3,46.3-38.6C283.4,60.7,252.6,109.6,252.6,109.6z"/>
	<path class="st4" d="M187.4,135.8c3.8,0,6.9-1.3,6.9-3s-3.1-3-6.9-3c-3.8,0-6.9,1.3-6.9,3S183.6,135.8,187.4,135.8z"/>
	<path class="st4" d="M199.8,128.1c3.8,0,6.9-1.3,6.9-3s-3.1-3-6.9-3s-6.9,1.3-6.9,3S196,128.1,199.8,128.1z"/>
	<path class="st4" d="M217.8,127.2c3.8,0,6.9-1.3,6.9-3c0-1.7-3.1-3-6.9-3c-3.8,0-6.9,1.3-6.9,3C211,125.9,214,127.2,217.8,127.2z"
		/>
	<path class="st4" d="M234.5,131.5c3.8,0,6.9-1.3,6.9-3s-3.1-3-6.9-3c-3.8,0-6.9,1.3-6.9,3S230.8,131.5,234.5,131.5z"/>
	<path class="st4" d="M223,133.6c-3.8,0-6.9,1.3-6.9,3c0,1.7,3.1,3,6.9,3s6.9-1.3,6.9-3C229.8,135,226.8,133.6,223,133.6z"/>
	<path class="st4" d="M205.8,134.9c-3.8,0-6.9,1.3-6.9,3s3.1,3,6.9,3c3.8,0,6.9-1.3,6.9-3S209.6,134.9,205.8,134.9z"/>
</g>
<g id="Designed_by_Vecteezy">
	<g class="st6">
		<g>
			<g>
				<path class="st7" d="M197.6,647.9c0.8,0,1.6,0.7,1.6,0.7l-13.9,29.8c-1.5,0-5.2,0.2-6.1,0.2c-0.8,0-1.6-0.7-1.6-0.7l-4.8-29.8
					c2.9,0,6.5-0.2,7.6-0.2c0.8,0,1.6,0.7,1.6,0.7l1.5,14.6c0.1,1.3,0.1,3,0.1,4.8c0.5-2,1-3.9,1.5-5.2l5.8-14.7
					C193.4,648.1,196.6,647.9,197.6,647.9L197.6,647.9z"/>
			</g>
			<g>
				<path class="st7" d="M212,662.5c0,3.2-1.8,5.4-6.3,6.3l-4.7,1c0.4,2,1.6,3,3.8,3c2.6,0,4.4-2,4.4-2s1.3,0.7,1.3,2.3
					c0,2.7-4.1,5.6-9,5.6c-4.9,0-8.1-3.1-8.1-8.3c0-6,4.3-14.2,11.9-14.2C209.4,656.3,212,658.8,212,662.5L212,662.5z M204,665.7
					c1-0.3,1.3-1.2,1.3-2.1c0-0.9-0.3-2.2-1.3-2.2c-1.9,0-2.7,3-3,5.3L204,665.7z"/>
			</g>
			<g>
				<path class="st7" d="M224.7,656.3c3.8,0,6.7,2,6.7,4.7c0,3.3-4,4.5-4,4.5s-1.2-3.6-3.9-3.6c-1.8,0-2.9,1.8-2.9,5.8
					c0,3.6,1,5.2,3.3,5.2c2.4,0,3.9-1.6,3.9-1.6s1.3,0.7,1.3,2.2c0,2.6-4,5.3-8.6,5.3c-4.9,0-8-3.1-8-8.2
					C212.6,664.5,217,656.3,224.7,656.3L224.7,656.3z"/>
			</g>
			<g>
				<path class="st7" d="M243.2,651.5c0.9,0,1.5,0.7,1.5,0.7l-0.7,4.5h4.8l-1.1,3.5c-0.4,1.1-0.9,1.7-2,1.7h-2.5l-1.4,8.9
					c-0.2,1.4,0.1,2.1,1.1,2.1c0.9,0,1.8-0.5,1.8-0.5s1.3,0.7,1.3,2.2c0,2.2-3.1,4.3-7,4.3c-4.1,0-5.8-2.5-5.1-7l1.6-9.9h-2.6
					l1.1-3.6c0.3-0.9,1.1-1.6,2-1.6h1.3l1.5-4.2C240.6,652.1,242.3,651.5,243.2,651.5L243.2,651.5z"/>
			</g>
			<g>
				<path class="st7" d="M266.5,662.5c0,3.2-1.8,5.4-6.3,6.3l-4.7,1c0.4,2,1.6,3,3.8,3c2.6,0,4.4-2,4.4-2s1.3,0.7,1.3,2.3
					c0,2.7-4.1,5.6-9,5.6c-4.9,0-8.1-3.1-8.1-8.3c0-6,4.3-14.2,11.9-14.2C263.9,656.3,266.5,658.8,266.5,662.5L266.5,662.5z
					 M258.5,665.7c1-0.3,1.3-1.2,1.3-2.1c0-0.9-0.3-2.2-1.3-2.2c-1.9,0-2.7,3-3,5.3L258.5,665.7z"/>
			</g>
			<g>
				<path class="st7" d="M285.8,662.5c0,3.2-1.8,5.4-6.3,6.3l-4.7,1c0.4,2,1.6,3,3.8,3c2.6,0,4.4-2,4.4-2s1.3,0.7,1.3,2.3
					c0,2.7-4.1,5.6-9,5.6c-4.9,0-8.1-3.1-8.1-8.3c0-6,4.3-14.2,11.9-14.2C283.2,656.3,285.8,658.8,285.8,662.5L285.8,662.5z
					 M277.8,665.7c1-0.3,1.3-1.2,1.3-2.1c0-0.9-0.3-2.2-1.3-2.2c-1.9,0-2.7,3-3,5.3L277.8,665.7z"/>
			</g>
			<g>
				<path class="st7" d="M301.6,670.6c0,0,1.6,1.5,1.6,4c0,3.3-2.8,4.2-5.2,4.2c-3.1,0-5.3-1.5-7.6-2.3c-0.6,0.7-1.3,1.5-1.9,2.3
					c0,0-3.5-0.1-3.5-2.4c0-2.9,4.8-7.8,9.9-13.4c-0.6-0.1-1.2-0.2-1.7-0.2c-2.9,0-4.1,1.5-4.1,1.5s-1.5-1.7-1.4-4
					c0.2-3.1,3.1-4,5.5-4c2.5,0,4.3,1,6.1,1.7l1.5-1.7c0,0,3.5,0.1,3.5,2.5c0,2.8-4.6,7.6-9.6,13c1.1,0.3,2,0.5,3,0.5
					C300.4,672.3,301.6,670.6,301.6,670.6L301.6,670.6z"/>
			</g>
			<g>
				<path class="st7" d="M324.1,676.9c-1.2,7.6-6.4,11.4-13,11.4c-4.2,0-7.3-2.2-7.3-4.8c0-1.7,1.4-2.5,1.4-2.5s1.4,1.3,4.2,1.3
					c2.6,0,6.2-1.1,6.8-5.1l0.5-3.1c-1.8,2.6-4.1,4.6-7.1,4.6c-3.3,0-4.8-2.7-3.9-8.3l0.9-6c0.6-3.7,0.7-6.7,0.7-6.7
					c2.4-0.4,5.5-1.5,6.6-1.5c0.8,0,1.6,0.7,1.6,0.7l-1.2,7.5l-1.1,6.9c-0.1,0.6,0,1,0.6,1c2.8,0,4.3-7.9,4.3-7.9
					c0.6-3.7,0.7-6.7,0.7-6.7c2.4-0.4,5.5-1.5,6.6-1.5c0.9,0,1.6,0.7,1.6,0.7l-1.2,7.5L324.1,676.9z"/>
			</g>
		</g>
		<g>
			<path class="st7" d="M3.5,657.5h7.4c1.7,0,3,0.1,3.8,0.4c1.2,0.3,2.2,1,3,1.9c0.8,0.9,1.5,2,1.9,3.3c0.4,1.3,0.7,2.9,0.7,4.8
				c0,1.7-0.2,3.1-0.6,4.3c-0.5,1.5-1.2,2.7-2.2,3.6c-0.7,0.7-1.7,1.2-2.9,1.6c-0.9,0.3-2.1,0.4-3.6,0.4H3.5V657.5z M7.5,660.9v13.4
				h3c1.1,0,2-0.1,2.5-0.2c0.7-0.2,1.2-0.4,1.6-0.8c0.4-0.4,0.8-1,1.1-1.9c0.3-0.9,0.4-2.1,0.4-3.7c0-1.6-0.1-2.8-0.4-3.6
				s-0.7-1.5-1.2-2c-0.5-0.5-1.1-0.8-1.9-0.9c-0.6-0.1-1.7-0.2-3.3-0.2H7.5z"/>
			<path class="st7" d="M31.7,673l3.9,0.6c-0.5,1.4-1.3,2.5-2.3,3.2c-1.1,0.7-2.4,1.1-4,1.1c-2.5,0-4.4-0.8-5.6-2.5
				c-1-1.3-1.4-3-1.4-5c0-2.4,0.6-4.3,1.9-5.7c1.3-1.4,2.9-2.1,4.8-2.1c2.2,0,3.9,0.7,5.1,2.2c1.3,1.4,1.9,3.6,1.8,6.6h-9.7
				c0,1.1,0.3,2,0.9,2.7c0.6,0.6,1.3,1,2.2,1c0.6,0,1.1-0.2,1.5-0.5C31.2,674.3,31.5,673.8,31.7,673z M31.9,669.1
				c0-1.1-0.3-2-0.9-2.6c-0.6-0.6-1.2-0.9-2-0.9c-0.8,0-1.5,0.3-2.1,0.9c-0.6,0.6-0.8,1.4-0.8,2.5H31.9z"/>
			<path class="st7" d="M37,673.5l3.9-0.6c0.2,0.8,0.5,1.3,1,1.7c0.5,0.4,1.2,0.6,2.1,0.6c1,0,1.8-0.2,2.3-0.6
				c0.3-0.3,0.5-0.6,0.5-1c0-0.3-0.1-0.5-0.3-0.7c-0.2-0.2-0.6-0.4-1.3-0.5c-3.1-0.7-5.1-1.3-5.9-1.9c-1.2-0.8-1.7-1.9-1.7-3.3
				c0-1.3,0.5-2.3,1.5-3.2c1-0.9,2.6-1.3,4.7-1.3c2,0,3.5,0.3,4.5,1c1,0.7,1.6,1.6,2,2.9l-3.6,0.7c-0.2-0.6-0.5-1-0.9-1.3
				c-0.4-0.3-1.1-0.5-1.9-0.5c-1,0-1.7,0.1-2.2,0.4c-0.3,0.2-0.4,0.5-0.4,0.8c0,0.3,0.1,0.5,0.4,0.7c0.3,0.3,1.6,0.6,3.6,1.1
				s3.5,1,4.3,1.7c0.8,0.7,1.2,1.6,1.2,2.9c0,1.3-0.6,2.5-1.7,3.5c-1.1,1-2.8,1.4-5,1.4c-2,0-3.6-0.4-4.7-1.2
				C38.1,676,37.4,674.9,37,673.5z"/>
			<path class="st7" d="M53.5,661.1v-3.6h3.9v3.6H53.5z M53.5,677.7v-14.6h3.9v14.6H53.5z"/>
			<path class="st7" d="M60.4,678.6l4.4,0.5c0.1,0.5,0.2,0.9,0.5,1.1c0.4,0.3,0.9,0.4,1.7,0.4c1,0,1.8-0.2,2.3-0.5
				c0.3-0.2,0.6-0.5,0.8-1c0.1-0.3,0.2-0.9,0.2-1.8v-2.1c-1.2,1.6-2.6,2.4-4.4,2.4c-2,0-3.5-0.8-4.7-2.5c-0.9-1.3-1.3-2.9-1.3-4.9
				c0-2.4,0.6-4.3,1.8-5.6c1.2-1.3,2.6-1.9,4.4-1.9c1.8,0,3.3,0.8,4.5,2.4v-2.1h3.6v13.1c0,1.7-0.1,3-0.4,3.9
				c-0.3,0.9-0.7,1.5-1.2,2c-0.5,0.5-1.2,0.9-2.1,1.1c-0.9,0.3-1.9,0.4-3.3,0.4c-2.5,0-4.2-0.4-5.3-1.3c-1-0.8-1.6-1.9-1.6-3.2
				C60.4,679,60.4,678.8,60.4,678.6z M63.8,670.1c0,1.6,0.3,2.7,0.9,3.4c0.6,0.7,1.3,1.1,2.2,1.1c0.9,0,1.7-0.4,2.4-1.1
				c0.7-0.7,1-1.8,1-3.3c0-1.5-0.3-2.6-0.9-3.4c-0.6-0.7-1.4-1.1-2.4-1.1c-0.9,0-1.7,0.4-2.3,1.1C64.1,667.5,63.8,668.6,63.8,670.1z
				"/>
			<path class="st7" d="M90.7,677.7h-3.9v-7.5c0-1.6-0.1-2.6-0.2-3.1c-0.2-0.5-0.4-0.8-0.8-1.1c-0.4-0.3-0.8-0.4-1.3-0.4
				c-0.7,0-1.3,0.2-1.8,0.6c-0.5,0.4-0.9,0.9-1.1,1.5c-0.2,0.6-0.3,1.7-0.3,3.4v6.6h-3.9v-14.6H81v2.1c1.3-1.7,2.9-2.5,4.8-2.5
				c0.9,0,1.6,0.2,2.3,0.5c0.7,0.3,1.2,0.7,1.6,1.2c0.4,0.5,0.6,1,0.8,1.6c0.1,0.6,0.2,1.5,0.2,2.6V677.7z"/>
			<path class="st7" d="M102.5,673l3.9,0.6c-0.5,1.4-1.3,2.5-2.3,3.2c-1.1,0.7-2.4,1.1-4,1.1c-2.5,0-4.4-0.8-5.6-2.5
				c-1-1.3-1.4-3-1.4-5c0-2.4,0.6-4.3,1.9-5.7c1.3-1.4,2.9-2.1,4.8-2.1c2.2,0,3.9,0.7,5.1,2.2c1.3,1.4,1.9,3.6,1.8,6.6h-9.7
				c0,1.1,0.3,2,0.9,2.7c0.6,0.6,1.3,1,2.2,1c0.6,0,1.1-0.2,1.5-0.5C102,674.3,102.3,673.8,102.5,673z M102.7,669.1
				c0-1.1-0.3-2-0.9-2.6c-0.6-0.6-1.2-0.9-2-0.9c-0.8,0-1.5,0.3-2.1,0.9c-0.6,0.6-0.8,1.4-0.8,2.5H102.7z"/>
			<path class="st7" d="M122.6,677.7H119v-2.1c-0.6,0.8-1.3,1.5-2.1,1.9c-0.8,0.4-1.6,0.6-2.5,0.6c-1.7,0-3.1-0.7-4.3-2
				c-1.2-1.4-1.8-3.2-1.8-5.7c0-2.5,0.6-4.4,1.7-5.7c1.2-1.3,2.6-1.9,4.4-1.9c1.6,0,3,0.7,4.2,2v-7.3h3.9V677.7z M112.2,670.1
				c0,1.6,0.2,2.7,0.6,3.4c0.6,1,1.5,1.5,2.6,1.5c0.9,0,1.6-0.4,2.3-1.1c0.6-0.8,0.9-1.9,0.9-3.4c0-1.7-0.3-2.9-0.9-3.6
				c-0.6-0.7-1.4-1.1-2.3-1.1c-0.9,0-1.7,0.4-2.3,1.1C112.6,667.5,112.2,668.6,112.2,670.1z"/>
			<path class="st7" d="M132.9,677.7v-20.2h3.9v7.3c1.2-1.4,2.6-2,4.2-2c1.8,0,3.3,0.6,4.4,1.9c1.2,1.3,1.7,3.1,1.7,5.6
				c0,2.5-0.6,4.4-1.8,5.8c-1.2,1.3-2.6,2-4.3,2c-0.8,0-1.7-0.2-2.5-0.6c-0.8-0.4-1.5-1-2.1-1.9v2.1H132.9z M136.8,670.1
				c0,1.5,0.2,2.6,0.7,3.4c0.7,1,1.6,1.5,2.7,1.5c0.9,0,1.6-0.4,2.2-1.1c0.6-0.7,0.9-1.9,0.9-3.4c0-1.7-0.3-2.9-0.9-3.6
				c-0.6-0.7-1.4-1.1-2.3-1.1c-0.9,0-1.7,0.4-2.3,1.1C137.1,667.5,136.8,668.6,136.8,670.1z"/>
			<path class="st7" d="M147.9,663.1h4.1l3.5,10.4l3.4-10.4h4l-5.2,14.1l-0.9,2.5c-0.3,0.9-0.7,1.5-1,2c-0.3,0.4-0.7,0.8-1.1,1.1
				c-0.4,0.3-0.9,0.5-1.5,0.7c-0.6,0.2-1.2,0.2-2,0.2c-0.7,0-1.5-0.1-2.2-0.2l-0.3-3c0.6,0.1,1.2,0.2,1.6,0.2c0.9,0,1.6-0.3,2-0.8
				c0.4-0.5,0.8-1.2,1-2L147.9,663.1z"/>
		</g>
	</g>
</g>
</svg>
