<?xml version="1.0" encoding="utf-8"?>
<!-- Generator: Adobe Illustrator 27.6.1, SVG Export Plug-In . SVG Version: 6.00 Build 0)  -->
<svg version="1.1" id="Calque_1" xmlns="http://www.w3.org/2000/svg" xmlns:xlink="http://www.w3.org/1999/xlink" x="0px" y="0px"
	 viewBox="0 0 16 16" style="enable-background:new 0 0 16 16;" xml:space="preserve">
<style type="text/css">
	.st0{fill:#007DC6;}
	.st1{fill-rule:evenodd;clip-rule:evenodd;}
</style>
<circle class="st0" cx="7.7" cy="7.9" r="7.7"/>
<path class="st1" d="M8,3C5.2,3,3,5.2,3,8s2.2,5,5,5s5-2.2,5-5c0-0.7-0.2-1.4-0.5-2.1c-0.1-0.3,0-0.5,0.3-0.7c0.2-0.1,0.5,0,0.6,0.2
	c1.4,3,0.1,6.6-2.9,8s-6.6,0.1-8-2.9s-0.1-6.6,2.9-8C6.3,2.2,7.1,2,8,2V3z"/>
<path d="M8,4.5V0.5c0-0.1,0.1-0.2,0.3-0.2c0.1,0,0.1,0,0.2,0.1l2.4,2c0.1,0.1,0.1,0.3,0,0.4l-2.4,2c-0.1,0.1-0.3,0.1-0.4,0
	C8,4.6,8,4.5,8,4.5z"/>
</svg>
