<?xml version="1.0" encoding="utf-8"?>
<!-- Generator: Adobe Illustrator 22.0.0, SVG Export Plug-In . SVG Version: 6.00 Build 0)  -->
<svg version="1.1" id="Calque_1" xmlns="http://www.w3.org/2000/svg" xmlns:xlink="http://www.w3.org/1999/xlink" x="0px" y="0px"
	 viewBox="0 0 413.2 761" style="enable-background:new 0 0 413.2 761;" xml:space="preserve">
<style type="text/css">
	.st0{fill:#484D4D;}
	.st1{fill:#38E053;}
</style>
<g>
	<path class="st0" d="M316.1,752.1H93.8c-43.8,0-79.4-35.6-79.4-79.4V155.8c0-43.8,35.6-79.4,79.4-79.4h222.3
		c43.8,0,79.4,35.6,79.4,79.4v516.9C395.4,716.5,359.8,752.1,316.1,752.1z M93.8,96.8c-32.6,0-59.1,26.5-59.1,59.1v516.9
		c0,32.6,26.5,59.1,59.1,59.1h222.3c32.6,0,59.1-26.5,59.1-59.1V155.8c0-32.6-26.5-59.1-59.1-59.1H93.8z"/>
	<path class="st0" d="M245.9,91h-81.9c-9.5,0-17.2-7.8-17.2-17.2V56.6c0-20.2,16.5-36.7,36.7-36.7h43.1c20.2,0,36.7,16.5,36.7,36.7
		v17.2C263.1,83.3,255.4,91,245.9,91z"/>
	<path class="st1" d="M317.6,709.2H90.5c-19.9,0-36-16.1-36-36v-38.1h299.2v38.1C353.7,693.1,337.5,709.2,317.6,709.2z"/>
	<rect x="54.5" y="533.2" class="st1" width="299.2" height="74.1"/>
	<rect x="54.5" y="431.4" class="st1" width="299.2" height="74.1"/>
	<rect x="56.2" y="326.6" class="st1" width="299.2" height="74.1"/>
	<rect x="56.2" y="224.7" class="st1" width="299.2" height="74.1"/>
</g>
</svg>
