<?xml version="1.0" encoding="utf-8"?>
<!-- Generator: Adobe Illustrator 22.0.0, SVG Export Plug-In . SVG Version: 6.00 Build 0)  -->
<svg version="1.1" id="Calque_1" xmlns="http://www.w3.org/2000/svg" xmlns:xlink="http://www.w3.org/1999/xlink" x="0px" y="0px"
	 viewBox="0 0 410 752" style="enable-background:new 0 0 410 752;" xml:space="preserve">
<style type="text/css">
	.st0{fill:#484D4D;}
	.st1{fill:#F92333;}
</style>
<g>
	<path class="st0" d="M314.8,743.1H92.5c-43.8,0-79.4-35.6-79.4-79.4V146.8c0-43.8,35.6-79.4,79.4-79.4h222.3
		c43.8,0,79.4,35.6,79.4,79.4v516.9C394.2,707.5,358.5,743.1,314.8,743.1z M92.5,87.7c-32.6,0-59.1,26.5-59.1,59.1v516.9
		c0,32.6,26.5,59.1,59.1,59.1h222.3c32.6,0,59.1-26.5,59.1-59.1V146.8c0-32.6-26.5-59.1-59.1-59.1H92.5z"/>
	<path class="st0" d="M244.6,82h-81.9c-9.5,0-17.2-7.8-17.2-17.2V47.6c0-20.2,16.5-36.7,36.7-36.7h43.1c20.2,0,36.7,16.5,36.7,36.7
		v17.2C261.9,74.2,254.1,82,244.6,82z"/>
	<path class="st1" d="M316.4,700.2H89.2c-19.9,0-36-16.1-36-36v-38.1h299.2v38.1C352.4,684.1,336.3,700.2,316.4,700.2z"/>
</g>
</svg>
