<?xml version="1.0" encoding="utf-8"?>
<!-- Generator: Adobe Illustrator 22.0.0, SVG Export Plug-In . SVG Version: 6.00 Build 0)  -->
<svg version="1.1" id="Calque_1" xmlns="http://www.w3.org/2000/svg" xmlns:xlink="http://www.w3.org/1999/xlink" x="0px" y="0px"
	 viewBox="0 0 428.1 766.1" style="enable-background:new 0 0 428.1 766.1;" xml:space="preserve">
<style type="text/css">
	.st0{fill:#484D4D;}
	.st1{fill:#FFD815;}
</style>
<g>
	<path class="st0" d="M323.4,752.6H101.1c-43.8,0-79.4-35.6-79.4-79.4V156.3c0-43.8,35.6-79.4,79.4-79.4h222.3
		c43.8,0,79.4,35.6,79.4,79.4v516.9C402.8,717,367.2,752.6,323.4,752.6z M101.1,97.2c-32.6,0-59.1,26.5-59.1,59.1v516.9
		c0,32.6,26.5,59.1,59.1,59.1h222.3c32.6,0,59.1-26.5,59.1-59.1V156.3c0-32.6-26.5-59.1-59.1-59.1H101.1z"/>
	<path class="st0" d="M253.2,91.5h-81.9c-9.5,0-17.2-7.8-17.2-17.2V57c0-20.2,16.5-36.7,36.7-36.7h43.1c20.2,0,36.7,16.5,36.7,36.7
		v17.2C270.5,83.7,262.7,91.5,253.2,91.5z"/>
	<path class="st1" d="M325,709.7H97.8c-19.9,0-36-16.1-36-36v-38.1H361v38.1C361,693.6,344.9,709.7,325,709.7z"/>
	<rect x="61.8" y="533.7" class="st1" width="299.2" height="74.1"/>
	<rect x="61.8" y="431.8" class="st1" width="299.2" height="74.1"/>
</g>
</svg>
