<?xml version="1.0" encoding="utf-8"?>
<!-- Generator: Adobe Illustrator 28.0.0, SVG Export Plug-In . SVG Version: 6.00 Build 0)  -->
<svg version="1.1" id="Calque_1" xmlns="http://www.w3.org/2000/svg" xmlns:xlink="http://www.w3.org/1999/xlink" x="0px" y="0px"
	 viewBox="0 0 428.1 766.1" style="enable-background:new 0 0 428.1 766.1;" xml:space="preserve">
<style type="text/css">
	.st0{fill:#484D4D;stroke:#FFF517;stroke-miterlimit:10;}
	.st1{fill:#FBFF00;stroke:url(#SVGID_1_);stroke-miterlimit:10;}
	.st2{fill:#FFD815;stroke:#FFF517;stroke-miterlimit:10;}
</style>
<g>
	<path class="st0" d="M325.2,749.2H102.9c-43.8,0-79.4-35.6-79.4-79.4V152.9c0-43.8,35.6-79.4,79.4-79.4h222.3
		c43.8,0,79.4,35.6,79.4,79.4v516.9C404.6,713.6,369,749.2,325.2,749.2z M102.9,93.8c-32.6,0-59.1,26.5-59.1,59.1v516.9
		c0,32.6,26.5,59.1,59.1,59.1h222.3c32.6,0,59.1-26.5,59.1-59.1V152.9c0-32.6-26.5-59.1-59.1-59.1C325.2,93.8,102.9,93.8,102.9,93.8
		z"/>
	<linearGradient id="SVGID_1_" gradientUnits="userSpaceOnUse" x1="155.4" y1="52.5" x2="272.9" y2="52.5">
		<stop  offset="0" style="stop-color:#FFFFFF"/>
		<stop  offset="1" style="stop-color:#000000"/>
	</linearGradient>
	<path class="st1" d="M255,88.1h-81.9c-9.5,0-17.2-7.8-17.2-17.2V53.6c0-20.2,16.5-36.7,36.7-36.7h43.1c20.2,0,36.7,16.5,36.7,36.7
		v17.2C272.3,80.3,264.5,88.1,255,88.1z"/>
	<path class="st2" d="M326.8,706.3H99.6c-19.9,0-36-16.1-36-36v-38.1h299.2v38.1C362.8,690.2,346.7,706.3,326.8,706.3z"/>
	<rect x="63.6" y="530.3" class="st2" width="299.2" height="74.1"/>
	<rect x="63.6" y="428.4" class="st2" width="299.2" height="74.1"/>
</g>
</svg>
