<?xml version="1.0" encoding="utf-8"?>
<!-- Generator: Adobe Illustrator 22.0.0, SVG Export Plug-In . SVG Version: 6.00 Build 0)  -->
<svg version="1.1" id="Calque_1" xmlns="http://www.w3.org/2000/svg" xmlns:xlink="http://www.w3.org/1999/xlink" x="0px" y="0px"
	 viewBox="0 0 244 180" style="enable-background:new 0 0 244 180;" xml:space="preserve">
<style type="text/css">
	.st0{fill:#FFFF01;}
	.st1{fill:#EFE550;}
	.st2{fill:#908A30;}
	.st3{fill:#1B1904;}
	.st4{fill:#28250A;}
	.st5{fill:#58551E;}
	.st6{fill:#F7EC52;}
	.st7{fill:#BCB43E;}
	.st8{fill:#494503;}
	.st9{fill:#393604;}
	.st10{fill:#847E2C;}
	.st11{fill:#DFD54B;}
	.st12{fill:#FFA845;}
	.st13{fill:#CEC645;}
	.st14{fill:#787227;}
	.st15{fill:#857D05;}
	.st16{fill:#494719;}
	.st17{fill:#565103;}
	.st18{fill:#AFA73B;}
	.st19{fill:#A19935;}
	.st20{fill:#918804;}
	.st21{fill:#686205;}
	.st22{fill:#686423;}
	.st23{fill:#A19706;}
	.st24{fill:#FF0101;}
	.st25{fill:#787104;}
	.st26{fill:#B7AB06;}
	.st27{fill:#FFFA5B;}
	.st28{fill:#DACC09;}
	.st29{fill:#C9BC08;}
	.st30{fill:#010101;}
	.st31{fill:#F1E108;}
</style>
<path class="st0" d="M81.7,0.3c-0.4,0.4,0.6,0.4,0.7,0.3C82.8,0.2,81.7,0.3,81.7,0.3z"/>
<path class="st1" d="M84,0c1.6,0.9,3.2,1.4,5,2C87.5,0.2,86.4,0.2,84,0z"/>
<path class="st2" d="M89,0l1,1L89,0z"/>
<path class="st3" d="M94,0c4.7,2,10.9,1,16,1C105.3-1,99.1,0,94,0z"/>
<path class="st4" d="M110,0c5.5,2.3,13.1,1,19,1C123.5-1.3,115.9,0,110,0z"/>
<path class="st3" d="M129,0c6.9,2.9,17.5,1,25,1h55c-6.9-2.9-17.5-1-25-1H129z"/>
<path class="st5" d="M218,0l1,1L218,0z"/>
<path class="st6" d="M219,0l1,1L219,0z"/>
<path class="st7" d="M219,1l1,1L219,1z"/>
<path class="st0" d="M220,1l1,1L220,1z"/>
<path class="st6" d="M87,2l1,1L87,2z"/>
<path class="st5" d="M88,2l1,1L88,2z"/>
<path class="st1" d="M220,2l1,1L220,2z"/>
<path class="st0" d="M86,3l1,1L86,3z"/>
<path class="st7" d="M87,3l1,1L87,3z"/>
<path class="st8" d="M90,3c2.9,1.2,5.9,1,9,1C96.1,2.8,93.1,3,90,3z"/>
<path class="st4" d="M99,3c3.7,1.6,8,1,12,1h21c-3.7-1.6-8-1-12-1H99 M170,3c5.5,2.3,13.1,1,19,1C183.5,1.7,175.9,3,170,3z"/>
<path class="st9" d="M189,3c2.9,1.2,5.9,1,9,1C195.1,2.8,192.1,3,189,3z"/>
<path class="st8" d="M198,3c5.7,2.4,13.8,1,20,1C212.3,1.6,204.2,3,198,3z"/>
<path class="st10" d="M220,3l1,1L220,3z"/>
<path class="st11" d="M221.3,3.7c-0.1,0.1-0.1,1.1,0.3,0.7C221.7,4.3,221.8,3.2,221.3,3.7z"/>
<path class="st1" d="M86,4l1,1L86,4z"/>
<path class="st12" d="M73.6,37h166c-2.6-8.3-8.7-15.6-13.2-23c-1.8-2.9-3.4-7.1-6.3-9c-2.6-1.7-6.6-1-9.5-1h-20h-70h-19
	c-2.7,0-6.2-0.5-8.6,1c-3,1.8-4.6,6.1-6.4,9C82.2,21.4,76.2,28.7,73.6,37z"/>
<path class="st13" d="M85.3,5.7c-0.1,0.1-0.1,1.1,0.3,0.7C85.7,6.3,85.8,5.2,85.3,5.7z"/>
<path class="st14" d="M86,5l1,1L86,5z"/>
<path class="st15" d="M218,5l1,1L218,5z"/>
<path class="st16" d="M221,5l1,1L221,5z"/>
<path class="st1" d="M222,5l1,3C223.4,6.2,223.3,6.4,222,5z"/>
<path class="st17" d="M88,6l1,1L88,6z"/>
<path class="st18" d="M222,6l1,1L222,6z"/>
<path class="st6" d="M84,7l1,1L84,7z"/>
<path class="st16" d="M85,7l1,1L85,7z"/>
<path class="st11" d="M83.3,8.7c-0.1,0.1-0.1,1.1,0.3,0.7C83.7,9.3,83.8,8.2,83.3,8.7z"/>
<path class="st19" d="M84,8l1,1L84,8z"/>
<path class="st20" d="M87,8l1,1L87,8z"/>
<path class="st21" d="M220,8l1,1L220,8z"/>
<path class="st14" d="M223,8l1,1L223,8z"/>
<path class="st13" d="M224.3,8.7c-0.1,0.1-0.1,1.1,0.3,0.7C224.7,9.3,224.8,8.2,224.3,8.7z"/>
<path class="st9" d="M86,9l1,1L86,9z"/>
<path class="st6" d="M82,10l1,1L82,10z"/>
<path class="st22" d="M83,10l1,1L83,10z"/>
<path class="st23" d="M221,10l1,1L221,10z"/>
<path class="st9" d="M224,10l1,1L224,10z"/>
<path class="st6" d="M225,10l1,1L225,10z"/>
<path class="st24" d="M81,11l1,1L81,11z"/>
<path class="st7" d="M82,11l1,1L82,11z"/>
<path class="st21" d="M85,11l1,1L85,11z"/>
<path class="st9" d="M222,11l1,1L222,11z"/>
<path class="st19" d="M225,11l1,1L225,11z"/>
<path class="st11" d="M226.3,11.7c-0.1,0.1-0.1,1.1,0.3,0.7C226.7,12.3,226.8,11.2,226.3,11.7z"/>
<path class="st1" d="M81,12l1,1L81,12z"/>
<path class="st11" d="M80.3,13.7c-0.1,0.1-0.1,1.1,0.3,0.7C80.7,14.3,80.8,13.2,80.3,13.7z"/>
<path class="st10" d="M81,13l1,1L81,13z"/>
<path class="st23" d="M84,13l1,1L84,13z"/>
<path class="st25" d="M223,13l1,1L223,13z"/>
<path class="st22" d="M226,13l1,1L226,13z"/>
<path class="st6" d="M227,13l1,1L227,13z"/>
<path class="st8" d="M83,14l1,1L83,14z"/>
<path class="st7" d="M227,14l1,1L227,14z"/>
<path class="st0" d="M228,14l1,1L228,14z"/>
<path class="st6" d="M79,15l1,1L79,15z"/>
<path class="st16" d="M80,15l1,1L80,15z"/>
<path class="st26" d="M224,15l1,1L224,15z"/>
<path class="st1" d="M228,15l1,1L228,15z"/>
<path class="st0" d="M78,16l1,1L78,16z"/>
<path class="st18" d="M79,16l1,1L79,16z"/>
<path class="st15" d="M82,16l1,1L82,16z"/>
<path class="st17" d="M225,16l1,1L225,16z"/>
<path class="st2" d="M228,16l1,1L228,16z"/>
<path class="st11" d="M229.3,16.7c-0.1,0.1-0.1,1.1,0.3,0.7C229.7,17.3,229.8,16.2,229.3,16.7z"/>
<path class="st1" d="M78,17l1,1L78,17z"/>
<path class="st27" d="M77,18l1,1L77,18z"/>
<path class="st14" d="M78,18l1,1L78,18z"/>
<path class="st26" d="M81,18l1,1L81,18z"/>
<path class="st20" d="M226,18l1,1L226,18z"/>
<path class="st5" d="M229,18l1,1L229,18z"/>
<path class="st6" d="M230,18l1,1L230,18z"/>
<path class="st13" d="M77,19l1,1L77,19z"/>
<path class="st17" d="M80,19l1,1L80,19z"/>
<path class="st9" d="M227,19l1,1L227,19z"/>
<path class="st18" d="M230,19l1,1L230,19z"/>
<path class="st0" d="M231,19l1,1L231,19z"/>
<path class="st6" d="M76,20l1,1L76,20z"/>
<path class="st9" d="M77,20l1,1L77,20z"/>
<path class="st1" d="M231,20l1,1L231,20z"/>
<path class="st11" d="M75.3,21.7c-0.1,0.1-0.1,1.1,0.3,0.7C75.7,22.3,75.8,21.2,75.3,21.7z"/>
<path class="st2" d="M76,21l1,1L76,21z"/>
<path class="st20" d="M79,21l1,1L79,21z"/>
<path class="st25" d="M228,21l1,1L228,21z"/>
<path class="st14" d="M231,21l1,1L231,21z"/>
<path class="st27" d="M232,21l1,1L232,21z"/>
<path class="st13" d="M232,22l1,1L232,22z"/>
<path class="st1" d="M74,23l1,1L74,23z"/>
<path class="st5" d="M75,23l1,1L75,23z"/>
<path class="st23" d="M229,23l1,1L229,23z"/>
<path class="st16" d="M232,23l1,1L232,23z"/>
<path class="st6" d="M233,23l1,1L233,23z"/>
<path class="st0" d="M73,24l1,1L73,24z"/>
<path class="st7" d="M74,24l1,1L74,24z"/>
<path class="st21" d="M77,24l1,1L77,24z"/>
<path class="st8" d="M230,24l1,1L230,24z"/>
<path class="st19" d="M233,24l1,1L233,24z"/>
<path class="st1" d="M234.3,24.7c-0.1,0.1-0.1,1.1,0.3,0.7C234.7,25.3,234.8,24.2,234.3,24.7 M73,25l1,1L73,25z"/>
<path class="st13" d="M72.3,26.7c-0.1,0.1-0.1,1.1,0.3,0.7C72.7,27.3,72.8,26.2,72.3,26.7z"/>
<path class="st10" d="M73,26l1,1L73,26z"/>
<path class="st23" d="M76,26l1,1L76,26z"/>
<path class="st15" d="M231,26l1,1L231,26z"/>
<path class="st22" d="M234,26l1,1L234,26z"/>
<path class="st6" d="M235,26l1,1L235,26z"/>
<path class="st24" d="M243,26v5C243.8,29,243.8,28,243,26z"/>
<path class="st9" d="M75,27l1,1L75,27z"/>
<path class="st13" d="M235,27l1,1L235,27z"/>
<path class="st24" d="M236,27l1,1L236,27z"/>
<path class="st6" d="M71,28l1,1L71,28z"/>
<path class="st16" d="M72,28l1,1L72,28z"/>
<path class="st9" d="M235,28l1,1L235,28z"/>
<path class="st6" d="M236,28l1,1L236,28z"/>
<path class="st0" d="M64,29v3C64.7,30.4,64.7,30.6,64,29z"/>
<path class="st1" d="M70.3,29.7c-0.1,0.1-0.1,1.1,0.3,0.7C70.7,30.3,70.8,29.2,70.3,29.7z"/>
<path class="st19" d="M71,29l1,1L71,29z"/>
<path class="st25" d="M74,29l1,1L74,29z"/>
<path class="st21" d="M233,29l1,1L233,29z"/>
<path class="st2" d="M236,29l1,1L236,29z"/>
<path class="st11" d="M237.3,29.7c-0.1,0.1-0.1,1.1,0.3,0.7C237.7,30.3,237.8,29.2,237.3,29.7z"/>
<path class="st6" d="M69,31l1,1L69,31z"/>
<path class="st22" d="M70,31l1,1L70,31z"/>
<path class="st23" d="M73,31l1,1L73,31 M234,31l1,1L234,31z"/>
<path class="st5" d="M237,31l1,1L237,31z"/>
<path class="st6" d="M238,31l1,1L238,31z"/>
<path class="st0" d="M243,31v8C244.2,36.2,244.2,33.8,243,31z"/>
<path class="st6" d="M64,32v9c1.4-1.6,2.1-3,3-5C64.2,36,65.4,33.9,64,32z"/>
<path class="st24" d="M68,32l1,1L68,32z"/>
<path class="st7" d="M69,32l1,1L69,32z"/>
<path class="st8" d="M72,32l1,1L72,32 M235,32l1,1L235,32z"/>
<path class="st7" d="M238,32l1,1L238,32z"/>
<path class="st0" d="M239,32l1,1L239,32z"/>
<path class="st1" d="M68,33l1,1L68,33 M239,33l1,1L239,33z"/>
<path class="st11" d="M67.3,34.7c-0.1,0.1-0.1,1.1,0.3,0.7C67.7,35.3,67.8,34.2,67.3,34.7z"/>
<path class="st2" d="M68,34l1,1L68,34z"/>
<path class="st15" d="M71,34l1,1L71,34 M236,34l1,1L236,34z"/>
<path class="st10" d="M239,34l1,1L239,34z"/>
<path class="st11" d="M240.3,34.7c-0.1,0.1-0.1,1.1,0.3,0.7C240.7,35.3,240.8,34.2,240.3,34.7z"/>
<path class="st5" d="M67,36l1,1L67,36z"/>
<path class="st26" d="M70,36l1,1L70,36 M237,36l1,1L237,36z"/>
<path class="st16" d="M240,36l1,1L240,36z"/>
<path class="st6" d="M241,36l1,1L241,36z"/>
<path class="st18" d="M66,37l1,1L66,37z"/>
<path class="st25" d="M70,37c6.7,2.8,16.8,1,24,1C87.3,35.2,77.2,37,70,37z"/>
<path class="st20" d="M94,37c3.7,1.6,8,1,12,1h21c-3.7-1.6-8-1-12-1H94z"/>
<path class="st26" d="M127,37c4.2,1.8,9.5,1,14,1h28c-4.2-1.8-9.5-1-14-1H127z"/>
<path class="st23" d="M169,37c6.9,2.9,17.5,1,25,1C187.1,35.1,176.5,37,169,37z"/>
<path class="st20" d="M194,37c2.9,1.2,5.9,1,9,1C200.1,36.8,197.1,37,194,37z"/>
<path class="st25" d="M203,37c4.7,2,10.9,1,16,1C214.3,36,208.1,37,203,37z"/>
<path class="st21" d="M219,37c5.5,2.3,13.1,1,19,1C232.5,35.7,224.9,37,219,37z"/>
<path class="st18" d="M241,37l1,1L241,37z"/>
<path class="st1" d="M242.3,37.7c-0.1,0.1-0.1,1.1,0.3,0.7C242.7,38.3,242.8,37.2,242.3,37.7z"/>
<path class="st14" d="M65,39l1,1L65,39 M242,39l1,1L242,39z"/>
<path class="st13" d="M243.3,39.7c-0.1,0.1-0.1,1.1,0.3,0.7C243.7,40.3,243.8,39.2,243.3,39.7z"/>
<path class="st5" d="M64,41l1,1L64,41z"/>
<path class="st3" d="M65,41c2.6,1.1,5.2,1,8,1C70.4,40.9,67.8,41,65,41z"/>
<path class="st5" d="M243,41l1,1L243,41z"/>
<path class="st19" d="M91,42v137c3.5-8.4,1-21.9,1-31V77V54C92,50,92.6,45.7,91,42z"/>
<path class="st21" d="M94,42v135c1.6-3.7,1-8,1-12v-22V73C95,63.9,97.5,50.4,94,42z"/>
<path class="st28" d="M95,42c4,1.7,8.7,1,13,1C104,41.3,99.3,42,95,42z"/>
<path class="st26" d="M108,42c6.2,2.6,15.3,1,22,1C123.8,40.4,114.7,42,108,42z"/>
<path class="st23" d="M130,42c4,1.7,8.7,1,13,1h26c-4-1.7-8.7-1-13-1H130z"/>
<path class="st26" d="M169,42c4.2,1.8,9.5,1,14,1C178.8,41.2,173.5,42,169,42z"/>
<path class="st29" d="M183,42c7.2,3,18.2,1,26,1C201.8,40,190.8,42,183,42z"/>
<path class="st4" d="M211,42v137c1.6-3.7,1-8,1-12v-23V73C212,63.9,214.5,50.4,211,42z"/>
<path class="st12" d="M98,43v134h114V43H98z"/>
<path class="st26" d="M118,60l1,1L118,60z"/>
<path class="st8" d="M119,60l1,1L119,60z"/>
<path class="st30" d="M120,60.7C108.5,64,108.9,86,112.3,95c1.9,5.2,7,9.1,12.7,7.6c11.3-3,11.2-26.1,7.4-34.6
	C130.2,63.4,125.4,59.1,120,60.7z"/>
<path class="st21" d="M125,60l1,1L125,60z"/>
<path class="st9" d="M117,61l1,1L117,61z"/>
<path class="st21" d="M127,61l1,1L127,61z"/>
<path class="st29" d="M184.7,61.3c-0.4,0.4,0.6,0.4,0.7,0.3C185.8,61.2,184.7,61.3,184.7,61.3z"/>
<path class="st17" d="M120,62c1.5,0.7,2.3,0.8,4,1C122.5,62.3,121.7,62.2,120,62 M128,62l1,1L128,62z"/>
<path class="st20" d="M181,62l1,1L181,62z"/>
<path class="st30" d="M182,62.7c-9.7,3.6-8,16.1-8,24.3c0,3.3-0.3,6.9,1,10c2.2,5.4,8.1,9.6,14,7.1c10.2-4.2,9.7-24.5,6.5-33.1
	C193.4,65.7,188.1,60.5,182,62.7z"/>
<path class="st21" d="M188,62l1,1L188,62z"/>
<path class="st31" d="M131,90c-13,5.1-13.2-18.2,0-13c0-4.1-0.1-8.5-3.4-11.6c-5.8-5.4-12.4,0.2-13.4,6.6c-0.9,5.9-1.9,17.6,1,23
	C120.3,104.7,129.6,97.9,131,90z"/>
<path class="st23" d="M125,63l1,1L125,63z"/>
<path class="st8" d="M129,63l1,1L129,63z"/>
<path class="st25" d="M190,63l1,1L190,63z"/>
<path class="st9" d="M117,64l1,1L117,64 M130,64l1,1L130,64z"/>
<path class="st25" d="M183,64c1.5,0.7,2.3,0.8,4,1C185.5,64.3,184.7,64.2,183,64z"/>
<path class="st21" d="M191,64l1,1L191,64z"/>
<path class="st17" d="M113,65l1,1L113,65z"/>
<path class="st8" d="M116,65l1,1L116,65z"/>
<path class="st20" d="M131,65l1,1L131,65z"/>
<path class="st26" d="M177,65l1,1L177,65z"/>
<path class="st17" d="M181,65l1,1L181,65z"/>
<path class="st31" d="M194,91c-1.5,0.8-3.2,2-5,1.9c-7.5-0.6-6.9-12.2-1-14.7c2.1-0.9,4,0.1,6,0.8c-0.3-7.5-7.8-20.8-15.3-9.9
	c-2,3-2.4,7.4-2.7,10.9c-0.4,5.5-0.7,13.2,2.6,17.9C185.1,107.2,192.9,98.5,194,91z"/>
<path class="st23" d="M188,65l1,1L188,65z"/>
<path class="st17" d="M192,65l1,1L192,65z"/>
<path class="st26" d="M176,66l1,1L176,66z"/>
<path class="st21" d="M180,66l1,1L180,66z"/>
<path class="st26" d="M189,66l1,1L189,66z"/>
<path class="st17" d="M193,66l1,1L193,66z"/>
<path class="st21" d="M112,67l1,1L112,67z"/>
<path class="st23" d="M115,67l1,1L115,67z"/>
<path class="st21" d="M129,67l1,1L129,67z"/>
<path class="st23" d="M132,67l1,1L132,67z"/>
<path class="st25" d="M179,67l1,1L179,67z"/>
<path class="st23" d="M175,68l1,1L175,68z"/>
<path class="st17" d="M178,68l1,1L178,68z"/>
<path class="st26" d="M191,68l1,1L191,68z"/>
<path class="st8" d="M194,68l1,1L194,68z"/>
<path class="st9" d="M111.3,69.7c-0.1,0.1-0.1,1.1,0.3,0.7C111.7,70.3,111.8,69.2,111.3,69.7z"/>
<path class="st20" d="M114,69l1,1L114,69z"/>
<path class="st17" d="M130,69l1,1L130,69z"/>
<path class="st25" d="M133,69v3C133.7,70.4,133.7,70.6,133,69z"/>
<path class="st9" d="M175,69l1,1L175,69 M192,69l1,1L192,69z"/>
<path class="st26" d="M174,70l1,1L174,70z"/>
<path class="st8" d="M177,70l1,1L177,70z"/>
<path class="st26" d="M192,70l1,1L192,70z"/>
<path class="st8" d="M195,70l1,1L195,70z"/>
<path class="st17" d="M113,71v3C113.7,72.4,113.7,72.6,113,71z"/>
<path class="st9" d="M193,71l1,1L193,71z"/>
<path class="st21" d="M176,72v3C176.7,73.4,176.7,73.6,176,72z"/>
<path class="st29" d="M193.3,72.7c-0.1,0.1-0.1,1.1,0.3,0.7C193.7,73.3,193.8,72.2,193.3,72.7z"/>
<path class="st15" d="M196,72v3C196.7,73.4,196.7,73.6,196,72z"/>
<path class="st23" d="M110.3,73.7c-0.1,0.1-0.1,1.1,0.3,0.7C110.7,74.3,110.8,73.2,110.3,73.7z"/>
<path class="st21" d="M131.3,73.7c-0.1,0.1-0.1,1.1,0.3,0.7C131.7,74.3,131.8,73.2,131.3,73.7z"/>
<path class="st29" d="M113,74v15C114.7,84.9,114.7,78.1,113,74z"/>
<path class="st20" d="M173.3,74.7c-0.1,0.1-0.1,1.1,0.3,0.7C173.7,75.3,173.8,74.2,173.3,74.7z"/>
<path class="st15" d="M110,75v14C111.7,85,111.7,79,110,75z"/>
<path class="st25" d="M124,75l1,1L124,75z"/>
<path class="st8" d="M127,75l1,1L127,75z"/>
<path class="st23" d="M128,75l1,1L128,75z"/>
<path class="st20" d="M131,75c-0.2,1.8-0.2,3.2,0,5C131.8,78,131.8,77,131,75z"/>
<path class="st26" d="M134,75v14C135.7,85,135.7,79,134,75z"/>
<path class="st29" d="M176.3,75.7c-0.1,0.1-0.1,1.1,0.3,0.7C176.7,76.3,176.8,75.2,176.3,75.7z"/>
<path class="st25" d="M129,76l1,1L129,76z"/>
<path class="st17" d="M173,76v15C174.7,86.9,174.7,80.1,173,76z"/>
<path class="st21" d="M194,76c-0.2,2.1-0.2,3.9,0,6C195,79.7,195,78.3,194,76z"/>
<path class="st8" d="M122,77l1,1L122,77z"/>
<path class="st17" d="M187,77l1,1L187,77z"/>
<path class="st8" d="M190,77l1,1L190,77z"/>
<path class="st23" d="M191,77l1,1L191,77z"/>
<path class="st26" d="M121,78l1,1L121,78z"/>
<path class="st23" d="M192,78l1,1L192,78z"/>
<path class="st17" d="M121,79l1,1L121,79z"/>
<path class="st26" d="M193,79l1,1L193,79z"/>
<path class="st4" d="M131.3,80.7c-0.1,0.1-0.1,1.1,0.3,0.7C131.7,81.3,131.8,80.2,131.3,80.7z"/>
<path class="st15" d="M184,80l1,1L184,80z"/>
<path class="st23" d="M120,82v3C120.7,83.4,120.7,83.6,120,82 M183.3,82.7c-0.1,0.1-0.1,1.1,0.3,0.7
	C183.7,83.3,183.8,82.2,183.3,82.7z"/>
<path class="st25" d="M183,84v3C183.7,85.4,183.7,85.6,183,84z"/>
<path class="st9" d="M131.3,85.7c-0.1,0.1-0.1,1.1,0.3,0.7C131.7,86.3,131.8,85.2,131.3,85.7z"/>
<path class="st17" d="M121,87l1,1L121,87z"/>
<path class="st25" d="M131.3,87.7c-0.1,0.1-0.1,1.1,0.3,0.7C131.7,88.3,131.8,87.2,131.3,87.7z"/>
<path class="st28" d="M183.3,87.7c-0.1,0.1-0.1,1.1,0.3,0.7C183.7,88.3,183.8,87.2,183.3,87.7z"/>
<path class="st8" d="M194,87l-1,4C194.7,89.6,194.8,89,194,87z"/>
<path class="st21" d="M113.3,89.7c-0.1,0.1-0.1,1.1,0.3,0.7C113.7,90.3,113.8,89.2,113.3,89.7z"/>
<path class="st17" d="M122,89l1,1L122,89z"/>
<path class="st23" d="M130,89l1,1L130,89z"/>
<path class="st4" d="M131.3,89.7c-0.1,0.1-0.1,1.1,0.3,0.7C131.7,90.3,131.8,89.2,131.3,89.7z"/>
<path class="st9" d="M184,89l1,1L184,89 M123,90l1,1L123,90z"/>
<path class="st20" d="M129,90l1,1L129,90z"/>
<path class="st8" d="M133,90v3C133.7,91.4,133.7,91.6,133,90z"/>
<path class="st23" d="M184,90l1,1L184,90z"/>
<path class="st3" d="M113.3,91.7c-0.1,0.1-0.1,1.1,0.3,0.7C113.7,92.3,113.8,91.2,113.3,91.7z"/>
<path class="st20" d="M124,91l1,1L124,91z"/>
<path class="st3" d="M125.7,91.3c-0.4,0.4,0.6,0.4,0.7,0.3C126.8,91.2,125.7,91.3,125.7,91.3z"/>
<path class="st17" d="M127,91l1,1L127,91z"/>
<path class="st26" d="M128,91l1,1L128,91 M173.3,91.7c-0.1,0.1-0.1,1.1,0.3,0.7C173.7,92.3,173.8,91.2,173.3,91.7z"/>
<path class="st20" d="M176,91v3C176.7,92.4,176.7,92.6,176,91z"/>
<path class="st9" d="M185,91l1,1L185,91z"/>
<path class="st8" d="M196.3,91.7c-0.1,0.1-0.1,1.1,0.3,0.7C196.7,92.3,196.8,91.2,196.3,91.7z"/>
<path class="st17" d="M111.3,92.7c-0.1,0.1-0.1,1.1,0.3,0.7C111.7,93.3,111.8,92.2,111.3,92.7z"/>
<path class="st15" d="M130,93l1,1L130,93z"/>
<path class="st20" d="M133,93l1,1L133,93 M187,93l1,1L187,93z"/>
<path class="st9" d="M188.7,93.3c-0.4,0.4,0.6,0.4,0.7,0.3C189.8,93.2,188.7,93.3,188.7,93.3z"/>
<path class="st25" d="M190,93l1,1L190,93z"/>
<path class="st20" d="M196,93v3C196.7,94.4,196.7,94.6,196,93z"/>
<path class="st26" d="M111,94l1,1L111,94z"/>
<path class="st8" d="M114,94l1,1L114,94 M176,94l1,1L176,94z"/>
<path class="st23" d="M193,94l1,1L193,94z"/>
<path class="st20" d="M129,95l1,1L129,95z"/>
<path class="st21" d="M132,95l1,1L132,95z"/>
<path class="st17" d="M193,95l1,1L193,95z"/>
<path class="st23" d="M112,96l1,1L112,96z"/>
<path class="st17" d="M115,96l1,1L115,96z"/>
<path class="st20" d="M174,96l1,1L174,96z"/>
<path class="st21" d="M177,96l1,1L177,96z"/>
<path class="st23" d="M116,97l1,1L116,97z"/>
<path class="st21" d="M128,97l1,1L128,97 M131,97l1,1L131,97z"/>
<path class="st17" d="M192,97l1,1L192,97z"/>
<path class="st23" d="M195,97l1,1L195,97 M113,98l1,1L113,98z"/>
<path class="st20" d="M117,98l1,1L117,98z"/>
<path class="st17" d="M127,98l1,1L127,98z"/>
<path class="st20" d="M175,98l1,1L175,98z"/>
<path class="st25" d="M178,98l1,1L178,98z"/>
<path class="st15" d="M114,99l1,1L114,99 M118,99l1,1L118,99z"/>
<path class="st17" d="M126,99l1,1L126,99z"/>
<path class="st26" d="M130,99l1,1L130,99 M179,99l1,1L179,99z"/>
<path class="st9" d="M191,99l1,1L191,99z"/>
<path class="st23" d="M194,99l1,1L194,99z"/>
<path class="st20" d="M115,100l1,1L115,100z"/>
<path class="st29" d="M120,100c1.5,0.7,2.3,0.8,4,1C122.5,100.3,121.7,100.2,120,100z"/>
<path class="st15" d="M124,100l1,1L124,100 M176,100l1,1L176,100z"/>
<path class="st23" d="M180,100l1,1L180,100 M116,101l1,1L116,101z"/>
<path class="st21" d="M177,101l1,1L177,101z"/>
<path class="st20" d="M181,101l1,1L181,101z"/>
<path class="st17" d="M118,102l1,1L118,102z"/>
<path class="st21" d="M126,102l1,1L126,102z"/>
<path class="st15" d="M178,102l1,1L178,102z"/>
<path class="st26" d="M183,102c1.5,0.7,2.3,0.8,4,1C185.5,102.3,184.7,102.2,183,102z"/>
<path class="st21" d="M187,102l1,1L187,102z"/>
<path class="st25" d="M120,103c1.8,0.8,3,0.9,5,1C123.2,103.2,122,103.1,120,103z"/>
<path class="st20" d="M179,103l1,1L179,103z"/>
<path class="st9" d="M190,103l1,1L190,103z"/>
<path class="st8" d="M181,104l1,1L181,104z"/>
<path class="st20" d="M189,104l1,1L189,104z"/>
<path class="st15" d="M183,105c1.5,0.7,2.3,0.8,4,1C185.5,105.3,184.7,105.2,183,105 M133,119c1.2,0.7,1.5,0.7,3,1
	C134.8,119.3,134.5,119.3,133,119z"/>
<path class="st26" d="M136,119c1.2,0.7,1.5,0.7,3,1C137.8,119.3,137.5,119.3,136,119 M129,120l1,1L129,120z"/>
<path class="st21" d="M130,120l1,1L130,120z"/>
<path class="st30" d="M121,150c6.9-2.1,4-10.2,4-16c7.5,6.8,11.4,16.3,22,19.4c3.8,1.1,8.1,0.6,12,0.6c4.9,0,10.8,0.2,14-4
	c-5.3,0-10.8,1.4-16,0.7c-13.5-1.8-23.1-13.9-28-25.7c5.3,0,9.4,0.3,13-4c-2.4-0.7-4.5-1.1-7-1C118.6,120.7,121,138,121,150z"/>
<path class="st17" d="M141,120l1,1L141,120z"/>
<path class="st25" d="M127,121l1,1L127,121z"/>
<path class="st15" d="M125,122l1,1L125,122z"/>
<path class="st8" d="M124,123l1,1L124,123z"/>
<path class="st20" d="M122,125v3C122.7,126.4,122.7,126.6,122,125z"/>
<path class="st15" d="M129.3,125.7c-0.1,0.1-0.1,1.1,0.3,0.7C129.7,126.3,129.8,125.2,129.3,125.7z"/>
<path class="st26" d="M130,125c1.8,0.8,3,0.9,5,1C133.2,125.2,132,125.1,130,125z"/>
<path class="st25" d="M135,125c1.2,0.7,1.5,0.7,3,1C136.8,125.3,136.5,125.3,135,125z"/>
<path class="st26" d="M130,128l1,1L130,128z"/>
<path class="st15" d="M121.3,131.7c-0.1,0.1-0.1,1.1,0.3,0.7C121.7,132.3,121.8,131.2,121.3,131.7 M132,132l1,1L132,132z"/>
<path class="st3" d="M125,134v3c1-1.1,1.3-1.6,2-3H125z"/>
<path class="st17" d="M134,135l1,1L134,135z"/>
<path class="st23" d="M127,136l1,1L127,136z"/>
<path class="st20" d="M135,136l1,1L135,136 M120,137v3C120.7,138.4,120.7,138.6,120,137z"/>
<path class="st21" d="M125,137v7C126.1,141.5,126.1,139.5,125,137z"/>
<path class="st17" d="M128,137l1,1L128,137z"/>
<path class="st21" d="M186.3,139.7c-0.1,0.1-0.1,1.1,0.3,0.7C186.7,140.3,186.8,139.2,186.3,139.7z"/>
<path class="st4" d="M120,140v8C121.2,145.2,121.2,142.8,120,140z"/>
<path class="st25" d="M130,140l1,1L130,140z"/>
<path class="st17" d="M138,140l1,1L138,140z"/>
<path class="st4" d="M185,140c-1,1.5-1,1.2-1,3C185.3,141.6,185.4,141.8,185,140z"/>
<path class="st17" d="M131,141l1,1L131,141z"/>
<path class="st20" d="M139,141l1,1L139,141z"/>
<path class="st23" d="M140,142l1,1L140,142z"/>
<path class="st3" d="M183,142c-4.2,3.8-8.3,6.4-14,7C174.1,151.6,183.1,148.4,183,142z"/>
<path class="st23" d="M141,143l1,1L141,143z"/>
<path class="st15" d="M142,144l1,1L142,144z"/>
<path class="st20" d="M180,144l1,1L180,144z"/>
<path class="st26" d="M134,145l1,1L134,145z"/>
<path class="st8" d="M179,145l1,1L179,145z"/>
<path class="st23" d="M126.3,146.7c-0.1,0.1-0.1,1.1,0.3,0.7C126.7,147.3,126.8,146.2,126.3,146.7 M135,146l1,1L135,146z"/>
<path class="st20" d="M145,146l1,1L145,146z"/>
<path class="st15" d="M177,146l1,1L177,146z"/>
<path class="st23" d="M136,147l1,1L136,147z"/>
<path class="st9" d="M146,147l1,1L146,147z"/>
<path class="st26" d="M147,147l1,1L147,147z"/>
<path class="st23" d="M175,147l1,1L175,147z"/>
<path class="st21" d="M179,147l1,1L179,147z"/>
<path class="st20" d="M120,148l1,1L120,148z"/>
<path class="st26" d="M125,148l1,1L125,148 M137,148l1,1L137,148z"/>
<path class="st15" d="M149,148l1,1L149,148z"/>
<path class="st26" d="M172,148l1,1L172,148z"/>
<path class="st17" d="M173,148l1,1L173,148z"/>
<path class="st26" d="M178,148l1,1L178,148z"/>
<path class="st8" d="M151,149l1,1L151,149z"/>
<path class="st20" d="M152,149l1,1L152,149z"/>
<path class="st15" d="M167.7,149.3c-0.4,0.4,0.6,0.4,0.7,0.3C168.8,149.2,167.7,149.3,167.7,149.3z"/>
<path class="st9" d="M121.7,150.3c-0.4,0.4,0.6,0.4,0.7,0.3C122.8,150.2,121.7,150.3,121.7,150.3z"/>
<path class="st20" d="M140,150l1,1L140,150z"/>
<path class="st8" d="M155,150c1.2,0.7,1.5,0.7,3,1C156.8,150.3,156.5,150.3,155,150z"/>
<path class="st15" d="M158,150c1.2,0.7,1.5,0.7,3,1C159.8,150.3,159.5,150.3,158,150z"/>
<path class="st9" d="M161,150c1.2,0.7,1.5,0.7,3,1C162.8,150.3,162.5,150.3,161,150z"/>
<path class="st21" d="M175,150l1,1L175,150z"/>
<path class="st8" d="M142,151l1,1L142,151z"/>
<path class="st20" d="M173,151l1,1L173,151z"/>
<path class="st25" d="M144,152l1,1L144,152z"/>
<path class="st17" d="M170,152l1,1L170,152z"/>
<path class="st26" d="M146,153l1,1L146,153z"/>
<path class="st15" d="M167,153l1,1L167,153 M150,154l1,1L150,154z"/>
<path class="st3" d="M151,154c2.9,1.2,5.9,1,9,1C157.1,153.8,154.1,154,151,154z"/>
<path class="st8" d="M160,154c1.2,0.7,1.5,0.7,3,1C161.8,154.3,161.5,154.3,160,154z"/>
<path class="st20" d="M163,154l1,1L163,154z"/>
<path class="st3" d="M95,177c3.7,1.6,8,1,12,1h23h79c-3.7-1.6-8-1-12-1h-23H95z"/>
<path class="st1" d="M91,179l1,1L91,179z"/>
<path class="st9" d="M92,179l1,1L92,179z"/>
<path class="st19" d="M211,179l1,1L211,179z"/>
<g>
	<path class="st0" d="M17.7-0.1c-0.4,0.4,0.6,0.4,0.7,0.3C18.8-0.2,17.7-0.1,17.7-0.1z"/>
	<path class="st1" d="M20-0.4c1.6,0.9,3.2,1.4,5,2C23.5-0.2,22.4-0.2,20-0.4z"/>
	<path class="st2" d="M25-0.4l1,1L25-0.4z"/>
	<path class="st3" d="M30-0.4c4.7,2,10.9,1,16,1C41.3-1.4,35.1-0.4,30-0.4z"/>
	<path class="st4" d="M46-0.4c5.5,2.3,13.1,1,19,1C59.5-1.7,51.9-0.4,46-0.4z"/>
	<path class="st3" d="M65-0.4c6.9,2.9,17.5,1,25,1h55c-6.9-2.9-17.5-1-25-1H65z"/>
	<path class="st5" d="M154-0.4l1,1L154-0.4z"/>
	<path class="st6" d="M155-0.4l1,1L155-0.4z"/>
	<path class="st7" d="M155,0.6l1,1L155,0.6z"/>
	<path class="st0" d="M156,0.6l1,1L156,0.6z"/>
	<path class="st6" d="M23,1.6l1,1L23,1.6z"/>
	<path class="st5" d="M24,1.6l1,1L24,1.6z"/>
	<path class="st1" d="M156,1.6l1,1L156,1.6z"/>
	<path class="st0" d="M22,2.6l1,1L22,2.6z"/>
	<path class="st7" d="M23,2.6l1,1L23,2.6z"/>
	<path class="st8" d="M26,2.6c2.9,1.2,5.9,1,9,1C32.1,2.4,29.1,2.6,26,2.6z"/>
	<path class="st4" d="M35,2.6c3.7,1.6,8,1,12,1h21c-3.7-1.6-8-1-12-1H35 M106,2.6c5.5,2.3,13.1,1,19,1C119.5,1.3,111.9,2.6,106,2.6z
		"/>
	<path class="st9" d="M125,2.6c2.9,1.2,5.9,1,9,1C131.1,2.4,128.1,2.6,125,2.6z"/>
	<path class="st8" d="M134,2.6c5.7,2.4,13.8,1,20,1C148.3,1.2,140.2,2.6,134,2.6z"/>
	<path class="st10" d="M156,2.6l1,1L156,2.6z"/>
	<path class="st11" d="M157.3,3.3c-0.1,0.1-0.1,1.1,0.3,0.7C157.7,3.9,157.8,2.8,157.3,3.3z"/>
	<path class="st1" d="M22,3.6l1,1L22,3.6z"/>
	<path class="st31" d="M7,36.6h166c-2.6-8.3-8.7-15.6-13.2-23c-1.8-2.9-3.4-7.1-6.3-9c-2.6-1.7-6.6-1-9.5-1h-20H54H35
		c-2.7,0-6.2-0.5-8.6,1c-3,1.8-4.6,6.1-6.4,9C15.6,21,9.6,28.3,7,36.6z"/>
	<path class="st13" d="M21.3,5.3c-0.1,0.1-0.1,1.1,0.3,0.7C21.7,5.9,21.8,4.8,21.3,5.3z"/>
	<path class="st14" d="M22,4.6l1,1L22,4.6z"/>
	<path class="st15" d="M154,4.6l1,1L154,4.6z"/>
	<path class="st16" d="M157,4.6l1,1L157,4.6z"/>
	<path class="st1" d="M158,4.6l1,3C159.4,5.8,159.3,6,158,4.6z"/>
	<path class="st17" d="M24,5.6l1,1L24,5.6z"/>
	<path class="st18" d="M158,5.6l1,1L158,5.6z"/>
	<path class="st6" d="M20,6.6l1,1L20,6.6z"/>
	<path class="st16" d="M21,6.6l1,1L21,6.6z"/>
	<path class="st11" d="M19.3,8.3c-0.1,0.1-0.1,1.1,0.3,0.7C19.7,8.9,19.8,7.8,19.3,8.3z"/>
	<path class="st19" d="M20,7.6l1,1L20,7.6z"/>
	<path class="st20" d="M23,7.6l1,1L23,7.6z"/>
	<path class="st21" d="M156,7.6l1,1L156,7.6z"/>
	<path class="st14" d="M159,7.6l1,1L159,7.6z"/>
	<path class="st13" d="M160.3,8.3c-0.1,0.1-0.1,1.1,0.3,0.7C160.7,8.9,160.8,7.8,160.3,8.3z"/>
	<path class="st9" d="M22,8.6l1,1L22,8.6z"/>
	<path class="st6" d="M18,9.6l1,1L18,9.6z"/>
	<path class="st22" d="M19,9.6l1,1L19,9.6z"/>
	<path class="st23" d="M157,9.6l1,1L157,9.6z"/>
	<path class="st9" d="M160,9.6l1,1L160,9.6z"/>
	<path class="st6" d="M161,9.6l1,1L161,9.6z"/>
	<path class="st24" d="M17,10.6l1,1L17,10.6z"/>
	<path class="st7" d="M18,10.6l1,1L18,10.6z"/>
	<path class="st21" d="M21,10.6l1,1L21,10.6z"/>
	<path class="st9" d="M158,10.6l1,1L158,10.6z"/>
	<path class="st19" d="M161,10.6l1,1L161,10.6z"/>
	<path class="st11" d="M162.3,11.3c-0.1,0.1-0.1,1.1,0.3,0.7C162.7,11.9,162.8,10.8,162.3,11.3z"/>
	<path class="st1" d="M17,11.6l1,1L17,11.6z"/>
	<path class="st11" d="M16.3,13.3c-0.1,0.1-0.1,1.1,0.3,0.7C16.7,13.9,16.8,12.8,16.3,13.3z"/>
	<path class="st10" d="M17,12.6l1,1L17,12.6z"/>
	<path class="st23" d="M20,12.6l1,1L20,12.6z"/>
	<path class="st25" d="M159,12.6l1,1L159,12.6z"/>
	<path class="st22" d="M162,12.6l1,1L162,12.6z"/>
	<path class="st6" d="M163,12.6l1,1L163,12.6z"/>
	<path class="st8" d="M19,13.6l1,1L19,13.6z"/>
	<path class="st7" d="M163,13.6l1,1L163,13.6z"/>
	<path class="st0" d="M164,13.6l1,1L164,13.6z"/>
	<path class="st6" d="M15,14.6l1,1L15,14.6z"/>
	<path class="st16" d="M16,14.6l1,1L16,14.6z"/>
	<path class="st26" d="M160,14.6l1,1L160,14.6z"/>
	<path class="st1" d="M164,14.6l1,1L164,14.6z"/>
	<path class="st0" d="M14,15.6l1,1L14,15.6z"/>
	<path class="st18" d="M15,15.6l1,1L15,15.6z"/>
	<path class="st15" d="M18,15.6l1,1L18,15.6z"/>
	<path class="st17" d="M161,15.6l1,1L161,15.6z"/>
	<path class="st2" d="M164,15.6l1,1L164,15.6z"/>
	<path class="st11" d="M165.3,16.3c-0.1,0.1-0.1,1.1,0.3,0.7C165.7,16.9,165.8,15.8,165.3,16.3z"/>
	<path class="st1" d="M14,16.6l1,1L14,16.6z"/>
	<path class="st27" d="M13,17.6l1,1L13,17.6z"/>
	<path class="st14" d="M14,17.6l1,1L14,17.6z"/>
	<path class="st26" d="M17,17.6l1,1L17,17.6z"/>
	<path class="st20" d="M162,17.6l1,1L162,17.6z"/>
	<path class="st5" d="M165,17.6l1,1L165,17.6z"/>
	<path class="st6" d="M166,17.6l1,1L166,17.6z"/>
	<path class="st13" d="M13,18.6l1,1L13,18.6z"/>
	<path class="st17" d="M16,18.6l1,1L16,18.6z"/>
	<path class="st9" d="M163,18.6l1,1L163,18.6z"/>
	<path class="st18" d="M166,18.6l1,1L166,18.6z"/>
	<path class="st0" d="M167,18.6l1,1L167,18.6z"/>
	<path class="st6" d="M12,19.6l1,1L12,19.6z"/>
	<path class="st9" d="M13,19.6l1,1L13,19.6z"/>
	<path class="st1" d="M167,19.6l1,1L167,19.6z"/>
	<path class="st11" d="M11.3,21.3c-0.1,0.1-0.1,1.1,0.3,0.7C11.7,21.9,11.8,20.8,11.3,21.3z"/>
	<path class="st2" d="M12,20.6l1,1L12,20.6z"/>
	<path class="st20" d="M15,20.6l1,1L15,20.6z"/>
	<path class="st25" d="M164,20.6l1,1L164,20.6z"/>
	<path class="st14" d="M167,20.6l1,1L167,20.6z"/>
	<path class="st27" d="M168,20.6l1,1L168,20.6z"/>
	<path class="st13" d="M168,21.6l1,1L168,21.6z"/>
	<path class="st1" d="M10,22.6l1,1L10,22.6z"/>
	<path class="st5" d="M11,22.6l1,1L11,22.6z"/>
	<path class="st23" d="M165,22.6l1,1L165,22.6z"/>
	<path class="st16" d="M168,22.6l1,1L168,22.6z"/>
	<path class="st6" d="M169,22.6l1,1L169,22.6z"/>
	<path class="st0" d="M9,23.6l1,1L9,23.6z"/>
	<path class="st7" d="M10,23.6l1,1L10,23.6z"/>
	<path class="st21" d="M13,23.6l1,1L13,23.6z"/>
	<path class="st8" d="M166,23.6l1,1L166,23.6z"/>
	<path class="st19" d="M169,23.6l1,1L169,23.6z"/>
	<path class="st1" d="M170.3,24.3c-0.1,0.1-0.1,1.1,0.3,0.7C170.7,24.9,170.8,23.8,170.3,24.3 M9,24.6l1,1L9,24.6z"/>
	<path class="st13" d="M8.3,26.3c-0.1,0.1-0.1,1.1,0.3,0.7C8.7,26.9,8.8,25.8,8.3,26.3z"/>
	<path class="st10" d="M9,25.6l1,1L9,25.6z"/>
	<path class="st23" d="M12,25.6l1,1L12,25.6z"/>
	<path class="st15" d="M167,25.6l1,1L167,25.6z"/>
	<path class="st22" d="M170,25.6l1,1L170,25.6z"/>
	<path class="st6" d="M171,25.6l1,1L171,25.6z"/>
	<path class="st24" d="M179,25.6v5C179.8,28.6,179.8,27.6,179,25.6z"/>
	<path class="st9" d="M11,26.6l1,1L11,26.6z"/>
	<path class="st13" d="M171,26.6l1,1L171,26.6z"/>
	<path class="st24" d="M172,26.6l1,1L172,26.6z"/>
	<path class="st6" d="M7,27.6l1,1L7,27.6z"/>
	<path class="st16" d="M8,27.6l1,1L8,27.6z"/>
	<path class="st9" d="M171,27.6l1,1L171,27.6z"/>
	<path class="st6" d="M172,27.6l1,1L172,27.6z"/>
	<path class="st0" d="M0,28.6v3C0.7,30,0.7,30.2,0,28.6z"/>
	<path class="st1" d="M6.3,29.3c-0.1,0.1-0.1,1.1,0.3,0.7C6.7,29.9,6.8,28.8,6.3,29.3z"/>
	<path class="st19" d="M7,28.6l1,1L7,28.6z"/>
	<path class="st25" d="M10,28.6l1,1L10,28.6z"/>
	<path class="st21" d="M169,28.6l1,1L169,28.6z"/>
	<path class="st2" d="M172,28.6l1,1L172,28.6z"/>
	<path class="st11" d="M173.3,29.3c-0.1,0.1-0.1,1.1,0.3,0.7C173.7,29.9,173.8,28.8,173.3,29.3z"/>
	<path class="st6" d="M5,30.6l1,1L5,30.6z"/>
	<path class="st22" d="M6,30.6l1,1L6,30.6z"/>
	<path class="st23" d="M9,30.6l1,1L9,30.6 M170,30.6l1,1L170,30.6z"/>
	<path class="st5" d="M173,30.6l1,1L173,30.6z"/>
	<path class="st6" d="M174,30.6l1,1L174,30.6z"/>
	<path class="st0" d="M179,30.6v8C180.2,35.8,180.2,33.4,179,30.6z"/>
	<path class="st6" d="M0,31.6v9c1.4-1.6,2.1-3,3-5C0.2,35.6,1.4,33.5,0,31.6z"/>
	<path class="st24" d="M4,31.6l1,1L4,31.6z"/>
	<path class="st7" d="M5,31.6l1,1L5,31.6z"/>
	<path class="st8" d="M8,31.6l1,1L8,31.6 M171,31.6l1,1L171,31.6z"/>
	<path class="st7" d="M174,31.6l1,1L174,31.6z"/>
	<path class="st0" d="M175,31.6l1,1L175,31.6z"/>
	<path class="st1" d="M4,32.6l1,1L4,32.6 M175,32.6l1,1L175,32.6z"/>
	<path class="st11" d="M3.3,34.3c-0.1,0.1-0.1,1.1,0.3,0.7C3.7,34.9,3.8,33.8,3.3,34.3z"/>
	<path class="st2" d="M4,33.6l1,1L4,33.6z"/>
	<path class="st15" d="M7,33.6l1,1L7,33.6 M172,33.6l1,1L172,33.6z"/>
	<path class="st10" d="M175,33.6l1,1L175,33.6z"/>
	<path class="st11" d="M176.3,34.3c-0.1,0.1-0.1,1.1,0.3,0.7C176.7,34.9,176.8,33.8,176.3,34.3z"/>
	<path class="st5" d="M3,35.6l1,1L3,35.6z"/>
	<path class="st26" d="M6,35.6l1,1L6,35.6 M173,35.6l1,1L173,35.6z"/>
	<path class="st16" d="M176,35.6l1,1L176,35.6z"/>
	<path class="st6" d="M177,35.6l1,1L177,35.6z"/>
	<path class="st18" d="M2,36.6l1,1L2,36.6z"/>
	<path class="st25" d="M6,36.6c6.7,2.8,16.8,1,24,1C23.3,34.8,13.2,36.6,6,36.6z"/>
	<path class="st20" d="M30,36.6c3.7,1.6,8,1,12,1h21c-3.7-1.6-8-1-12-1H30z"/>
	<path class="st26" d="M63,36.6c4.2,1.8,9.5,1,14,1h28c-4.2-1.8-9.5-1-14-1H63z"/>
	<path class="st23" d="M105,36.6c6.9,2.9,17.5,1,25,1C123.1,34.7,112.5,36.6,105,36.6z"/>
	<path class="st20" d="M130,36.6c2.9,1.2,5.9,1,9,1C136.1,36.4,133.1,36.6,130,36.6z"/>
	<path class="st25" d="M139,36.6c4.7,2,10.9,1,16,1C150.3,35.6,144.1,36.6,139,36.6z"/>
	<path class="st21" d="M155,36.6c5.5,2.3,13.1,1,19,1C168.5,35.3,160.9,36.6,155,36.6z"/>
	<path class="st18" d="M177,36.6l1,1L177,36.6z"/>
	<path class="st1" d="M178.3,37.3c-0.1,0.1-0.1,1.1,0.3,0.7C178.7,37.9,178.8,36.8,178.3,37.3z"/>
	<path class="st14" d="M1,38.6l1,1L1,38.6 M178,38.6l1,1L178,38.6z"/>
	<path class="st13" d="M179.3,39.3c-0.1,0.1-0.1,1.1,0.3,0.7C179.7,39.9,179.8,38.8,179.3,39.3z"/>
	<path class="st5" d="M0,40.6l1,1L0,40.6z"/>
	<path class="st3" d="M1,40.6c2.6,1.1,5.2,1,8,1C6.4,40.5,3.8,40.6,1,40.6z"/>
	<path class="st5" d="M179,40.6l1,1L179,40.6z"/>
	<path class="st19" d="M27,41.6v137c3.5-8.4,1-21.9,1-31v-71v-23C28,49.6,28.6,45.3,27,41.6z"/>
	<path class="st21" d="M30,41.6v135c1.6-3.7,1-8,1-12v-22v-70C31,63.5,33.5,50,30,41.6z"/>
	<path class="st28" d="M31,41.6c4,1.7,8.7,1,13,1C40,40.9,35.3,41.6,31,41.6z"/>
	<path class="st26" d="M44,41.6c6.2,2.6,15.3,1,22,1C59.8,40,50.7,41.6,44,41.6z"/>
	<path class="st23" d="M66,41.6c4,1.7,8.7,1,13,1h26c-4-1.7-8.7-1-13-1H66z"/>
	<path class="st26" d="M105,41.6c4.2,1.8,9.5,1,14,1C114.8,40.8,109.5,41.6,105,41.6z"/>
	<path class="st29" d="M119,41.6c7.2,3,18.2,1,26,1C137.8,39.6,126.8,41.6,119,41.6z"/>
	<path class="st4" d="M147,41.6v137c1.6-3.7,1-8,1-12v-23v-71C148,63.5,150.5,50,147,41.6z"/>
	<path class="st31" d="M31,42.6v134h114v-134H31z"/>
	<path class="st26" d="M54,59.6l1,1L54,59.6z"/>
	<path class="st8" d="M55,59.6l1,1L55,59.6z"/>
	<path class="st30" d="M56,60.3c-11.5,3.3-11.1,25.3-7.7,34.3c1.9,5.2,7,9.1,12.7,7.6c11.3-3,11.2-26.1,7.4-34.6
		C66.2,63,61.4,58.7,56,60.3z"/>
	<path class="st21" d="M61,59.6l1,1L61,59.6z"/>
	<path class="st9" d="M53,60.6l1,1L53,60.6z"/>
	<path class="st21" d="M63,60.6l1,1L63,60.6z"/>
	<path class="st29" d="M120.7,60.9c-0.4,0.4,0.6,0.4,0.7,0.3C121.8,60.8,120.7,60.9,120.7,60.9z"/>
	<path class="st17" d="M56,61.6c1.5,0.7,2.3,0.8,4,1C58.5,61.9,57.7,61.8,56,61.6 M64,61.6l1,1L64,61.6z"/>
	<path class="st20" d="M117,61.6l1,1L117,61.6z"/>
	<path class="st30" d="M118,62.3c-9.7,3.6-8,16.1-8,24.3c0,3.3-0.3,6.9,1,10c2.2,5.4,8.1,9.6,14,7.1c10.2-4.2,9.7-24.5,6.5-33.1
		C129.4,65.3,124.1,60.1,118,62.3z"/>
	<path class="st21" d="M124,61.6l1,1L124,61.6z"/>
	<path class="st31" d="M67,89.6c-13,5.1-13.2-18.2,0-13c0-4.1-0.1-8.5-3.4-11.6c-5.8-5.4-12.4,0.2-13.4,6.6c-0.9,5.9-1.9,17.6,1,23
		C56.3,104.3,65.6,97.5,67,89.6z"/>
	<path class="st23" d="M61,62.6l1,1L61,62.6z"/>
	<path class="st8" d="M65,62.6l1,1L65,62.6z"/>
	<path class="st25" d="M126,62.6l1,1L126,62.6z"/>
	<path class="st9" d="M53,63.6l1,1L53,63.6 M66,63.6l1,1L66,63.6z"/>
	<path class="st25" d="M119,63.6c1.5,0.7,2.3,0.8,4,1C121.5,63.9,120.7,63.8,119,63.6z"/>
	<path class="st21" d="M127,63.6l1,1L127,63.6z"/>
	<path class="st17" d="M49,64.6l1,1L49,64.6z"/>
	<path class="st8" d="M52,64.6l1,1L52,64.6z"/>
	<path class="st20" d="M67,64.6l1,1L67,64.6z"/>
	<path class="st26" d="M113,64.6l1,1L113,64.6z"/>
	<path class="st17" d="M117,64.6l1,1L117,64.6z"/>
	<path class="st31" d="M130,90.6c-1.5,0.8-3.2,2-5,1.9c-7.5-0.6-6.9-12.2-1-14.7c2.1-0.9,4,0.1,6,0.8c-0.3-7.5-7.8-20.8-15.3-9.9
		c-2,3-2.4,7.4-2.7,10.9c-0.4,5.5-0.7,13.2,2.6,17.9C121.1,106.8,128.9,98.1,130,90.6z"/>
	<path class="st23" d="M124,64.6l1,1L124,64.6z"/>
	<path class="st17" d="M128,64.6l1,1L128,64.6z"/>
	<path class="st26" d="M112,65.6l1,1L112,65.6z"/>
	<path class="st21" d="M116,65.6l1,1L116,65.6z"/>
	<path class="st26" d="M125,65.6l1,1L125,65.6z"/>
	<path class="st17" d="M129,65.6l1,1L129,65.6z"/>
	<path class="st21" d="M48,66.6l1,1L48,66.6z"/>
	<path class="st23" d="M51,66.6l1,1L51,66.6z"/>
	<path class="st21" d="M65,66.6l1,1L65,66.6z"/>
	<path class="st23" d="M68,66.6l1,1L68,66.6z"/>
	<path class="st25" d="M115,66.6l1,1L115,66.6z"/>
	<path class="st23" d="M111,67.6l1,1L111,67.6z"/>
	<path class="st17" d="M114,67.6l1,1L114,67.6z"/>
	<path class="st26" d="M127,67.6l1,1L127,67.6z"/>
	<path class="st8" d="M130,67.6l1,1L130,67.6z"/>
	<path class="st9" d="M47.3,69.3c-0.1,0.1-0.1,1.1,0.3,0.7C47.7,69.9,47.8,68.8,47.3,69.3z"/>
	<path class="st20" d="M50,68.6l1,1L50,68.6z"/>
	<path class="st17" d="M66,68.6l1,1L66,68.6z"/>
	<path class="st25" d="M69,68.6v3C69.7,70,69.7,70.2,69,68.6z"/>
	<path class="st9" d="M111,68.6l1,1L111,68.6 M128,68.6l1,1L128,68.6z"/>
	<path class="st26" d="M110,69.6l1,1L110,69.6z"/>
	<path class="st8" d="M113,69.6l1,1L113,69.6z"/>
	<path class="st26" d="M128,69.6l1,1L128,69.6z"/>
	<path class="st8" d="M131,69.6l1,1L131,69.6z"/>
	<path class="st17" d="M49,70.6v3C49.7,72,49.7,72.2,49,70.6z"/>
	<path class="st9" d="M129,70.6l1,1L129,70.6z"/>
	<path class="st21" d="M112,71.6v3C112.7,73,112.7,73.2,112,71.6z"/>
	<path class="st29" d="M129.3,72.3c-0.1,0.1-0.1,1.1,0.3,0.7C129.7,72.9,129.8,71.8,129.3,72.3z"/>
	<path class="st15" d="M132,71.6v3C132.7,73,132.7,73.2,132,71.6z"/>
	<path class="st23" d="M46.3,73.3c-0.1,0.1-0.1,1.1,0.3,0.7C46.7,73.9,46.8,72.8,46.3,73.3z"/>
	<path class="st21" d="M67.3,73.3c-0.1,0.1-0.1,1.1,0.3,0.7C67.7,73.9,67.8,72.8,67.3,73.3z"/>
	<path class="st29" d="M49,73.6v15C50.7,84.5,50.7,77.7,49,73.6z"/>
	<path class="st20" d="M109.3,74.3c-0.1,0.1-0.1,1.1,0.3,0.7C109.7,74.9,109.8,73.8,109.3,74.3z"/>
	<path class="st15" d="M46,74.6v14C47.7,84.6,47.7,78.6,46,74.6z"/>
	<path class="st25" d="M60,74.6l1,1L60,74.6z"/>
	<path class="st8" d="M63,74.6l1,1L63,74.6z"/>
	<path class="st23" d="M64,74.6l1,1L64,74.6z"/>
	<path class="st20" d="M67,74.6c-0.2,1.8-0.2,3.2,0,5C67.8,77.6,67.8,76.6,67,74.6z"/>
	<path class="st26" d="M70,74.6v14C71.7,84.6,71.7,78.6,70,74.6z"/>
	<path class="st29" d="M112.3,75.3c-0.1,0.1-0.1,1.1,0.3,0.7C112.7,75.9,112.8,74.8,112.3,75.3z"/>
	<path class="st25" d="M65,75.6l1,1L65,75.6z"/>
	<path class="st17" d="M109,75.6v15C110.7,86.5,110.7,79.7,109,75.6z"/>
	<path class="st21" d="M130,75.6c-0.2,2.1-0.2,3.9,0,6C131,79.3,131,77.9,130,75.6z"/>
	<path class="st8" d="M58,76.6l1,1L58,76.6z"/>
	<path class="st17" d="M123,76.6l1,1L123,76.6z"/>
	<path class="st8" d="M126,76.6l1,1L126,76.6z"/>
	<path class="st23" d="M127,76.6l1,1L127,76.6z"/>
	<path class="st26" d="M57,77.6l1,1L57,77.6z"/>
	<path class="st23" d="M128,77.6l1,1L128,77.6z"/>
	<path class="st17" d="M57,78.6l1,1L57,78.6z"/>
	<path class="st26" d="M129,78.6l1,1L129,78.6z"/>
	<path class="st4" d="M67.3,80.3c-0.1,0.1-0.1,1.1,0.3,0.7C67.7,80.9,67.8,79.8,67.3,80.3z"/>
	<path class="st15" d="M120,79.6l1,1L120,79.6z"/>
	<path class="st23" d="M56,81.6v3C56.7,83,56.7,83.2,56,81.6 M119.3,82.3c-0.1,0.1-0.1,1.1,0.3,0.7
		C119.7,82.9,119.8,81.8,119.3,82.3z"/>
	<path class="st25" d="M119,83.6v3C119.7,85,119.7,85.2,119,83.6z"/>
	<path class="st9" d="M67.3,85.3c-0.1,0.1-0.1,1.1,0.3,0.7C67.7,85.9,67.8,84.8,67.3,85.3z"/>
	<path class="st17" d="M57,86.6l1,1L57,86.6z"/>
	<path class="st25" d="M67.3,87.3c-0.1,0.1-0.1,1.1,0.3,0.7C67.7,87.9,67.8,86.8,67.3,87.3z"/>
	<path class="st28" d="M119.3,87.3c-0.1,0.1-0.1,1.1,0.3,0.7C119.7,87.9,119.8,86.8,119.3,87.3z"/>
	<path class="st8" d="M130,86.6l-1,4C130.7,89.2,130.8,88.6,130,86.6z"/>
	<path class="st21" d="M49.3,89.3c-0.1,0.1-0.1,1.1,0.3,0.7C49.7,89.9,49.8,88.8,49.3,89.3z"/>
	<path class="st17" d="M58,88.6l1,1L58,88.6z"/>
	<path class="st23" d="M66,88.6l1,1L66,88.6z"/>
	<path class="st4" d="M67.3,89.3c-0.1,0.1-0.1,1.1,0.3,0.7C67.7,89.9,67.8,88.8,67.3,89.3z"/>
	<path class="st9" d="M120,88.6l1,1L120,88.6 M59,89.6l1,1L59,89.6z"/>
	<path class="st20" d="M65,89.6l1,1L65,89.6z"/>
	<path class="st8" d="M69,89.6v3C69.7,91,69.7,91.2,69,89.6z"/>
	<path class="st23" d="M120,89.6l1,1L120,89.6z"/>
	<path class="st3" d="M49.3,91.3c-0.1,0.1-0.1,1.1,0.3,0.7C49.7,91.9,49.8,90.8,49.3,91.3z"/>
	<path class="st20" d="M60,90.6l1,1L60,90.6z"/>
	<path class="st3" d="M61.7,90.9c-0.4,0.4,0.6,0.4,0.7,0.3C62.8,90.8,61.7,90.9,61.7,90.9z"/>
	<path class="st17" d="M63,90.6l1,1L63,90.6z"/>
	<path class="st26" d="M64,90.6l1,1L64,90.6 M109.3,91.3c-0.1,0.1-0.1,1.1,0.3,0.7C109.7,91.9,109.8,90.8,109.3,91.3z"/>
	<path class="st20" d="M112,90.6v3C112.7,92,112.7,92.2,112,90.6z"/>
	<path class="st9" d="M121,90.6l1,1L121,90.6z"/>
	<path class="st8" d="M132.3,91.3c-0.1,0.1-0.1,1.1,0.3,0.7C132.7,91.9,132.8,90.8,132.3,91.3z"/>
	<path class="st17" d="M47.3,92.3c-0.1,0.1-0.1,1.1,0.3,0.7C47.7,92.9,47.8,91.8,47.3,92.3z"/>
	<path class="st15" d="M66,92.6l1,1L66,92.6z"/>
	<path class="st20" d="M69,92.6l1,1L69,92.6 M123,92.6l1,1L123,92.6z"/>
	<path class="st9" d="M124.7,92.9c-0.4,0.4,0.6,0.4,0.7,0.3C125.8,92.8,124.7,92.9,124.7,92.9z"/>
	<path class="st25" d="M126,92.6l1,1L126,92.6z"/>
	<path class="st20" d="M132,92.6v3C132.7,94,132.7,94.2,132,92.6z"/>
	<path class="st26" d="M47,93.6l1,1L47,93.6z"/>
	<path class="st8" d="M50,93.6l1,1L50,93.6 M112,93.6l1,1L112,93.6z"/>
	<path class="st23" d="M129,93.6l1,1L129,93.6z"/>
	<path class="st20" d="M65,94.6l1,1L65,94.6z"/>
	<path class="st21" d="M68,94.6l1,1L68,94.6z"/>
	<path class="st17" d="M129,94.6l1,1L129,94.6z"/>
	<path class="st23" d="M48,95.6l1,1L48,95.6z"/>
	<path class="st17" d="M51,95.6l1,1L51,95.6z"/>
	<path class="st20" d="M110,95.6l1,1L110,95.6z"/>
	<path class="st21" d="M113,95.6l1,1L113,95.6z"/>
	<path class="st23" d="M52,96.6l1,1L52,96.6z"/>
	<path class="st21" d="M64,96.6l1,1L64,96.6 M67,96.6l1,1L67,96.6z"/>
	<path class="st17" d="M128,96.6l1,1L128,96.6z"/>
	<path class="st23" d="M131,96.6l1,1L131,96.6 M49,97.6l1,1L49,97.6z"/>
	<path class="st20" d="M53,97.6l1,1L53,97.6z"/>
	<path class="st17" d="M63,97.6l1,1L63,97.6z"/>
	<path class="st20" d="M111,97.6l1,1L111,97.6z"/>
	<path class="st25" d="M114,97.6l1,1L114,97.6z"/>
	<path class="st15" d="M50,98.6l1,1L50,98.6 M54,98.6l1,1L54,98.6z"/>
	<path class="st17" d="M62,98.6l1,1L62,98.6z"/>
	<path class="st26" d="M66,98.6l1,1L66,98.6 M115,98.6l1,1L115,98.6z"/>
	<path class="st9" d="M127,98.6l1,1L127,98.6z"/>
	<path class="st23" d="M130,98.6l1,1L130,98.6z"/>
	<path class="st20" d="M51,99.6l1,1L51,99.6z"/>
	<path class="st29" d="M56,99.6c1.5,0.7,2.3,0.8,4,1C58.5,99.9,57.7,99.8,56,99.6z"/>
	<path class="st15" d="M60,99.6l1,1L60,99.6 M112,99.6l1,1L112,99.6z"/>
	<path class="st23" d="M116,99.6l1,1L116,99.6 M52,100.6l1,1L52,100.6z"/>
	<path class="st21" d="M113,100.6l1,1L113,100.6z"/>
	<path class="st20" d="M117,100.6l1,1L117,100.6z"/>
	<path class="st17" d="M54,101.6l1,1L54,101.6z"/>
	<path class="st21" d="M62,101.6l1,1L62,101.6z"/>
	<path class="st15" d="M114,101.6l1,1L114,101.6z"/>
	<path class="st26" d="M119,101.6c1.5,0.7,2.3,0.8,4,1C121.5,101.9,120.7,101.8,119,101.6z"/>
	<path class="st21" d="M123,101.6l1,1L123,101.6z"/>
	<path class="st25" d="M56,102.6c1.8,0.8,3,0.9,5,1C59.2,102.8,58,102.7,56,102.6z"/>
	<path class="st20" d="M115,102.6l1,1L115,102.6z"/>
	<path class="st9" d="M126,102.6l1,1L126,102.6z"/>
	<path class="st8" d="M117,103.6l1,1L117,103.6z"/>
	<path class="st20" d="M125,103.6l1,1L125,103.6z"/>
	<path class="st15" d="M119,104.6c1.5,0.7,2.3,0.8,4,1C121.5,104.9,120.7,104.8,119,104.6 M69,118.6c1.2,0.7,1.5,0.7,3,1
		C70.8,118.9,70.5,118.9,69,118.6z"/>
	<path class="st26" d="M72,118.6c1.2,0.7,1.5,0.7,3,1C73.8,118.9,73.5,118.9,72,118.6 M65,119.6l1,1L65,119.6z"/>
	<path class="st21" d="M66,119.6l1,1L66,119.6z"/>
	<path class="st30" d="M57,149.6c6.9-2.1,4-10.2,4-16c7.5,6.8,11.4,16.3,22,19.4c3.8,1.1,8.1,0.6,12,0.6c4.9,0,10.8,0.2,14-4
		c-5.3,0-10.8,1.4-16,0.7c-13.5-1.8-23.1-13.9-28-25.7c5.3,0,9.4,0.3,13-4c-2.4-0.7-4.5-1.1-7-1C54.6,120.3,57,137.6,57,149.6z"/>
	<path class="st17" d="M77,119.6l1,1L77,119.6z"/>
	<path class="st25" d="M63,120.6l1,1L63,120.6z"/>
	<path class="st15" d="M61,121.6l1,1L61,121.6z"/>
	<path class="st8" d="M60,122.6l1,1L60,122.6z"/>
	<path class="st20" d="M58,124.6v3C58.7,126,58.7,126.2,58,124.6z"/>
	<path class="st15" d="M65.3,125.3c-0.1,0.1-0.1,1.1,0.3,0.7C65.7,125.9,65.8,124.8,65.3,125.3z"/>
	<path class="st26" d="M66,124.6c1.8,0.8,3,0.9,5,1C69.2,124.8,68,124.7,66,124.6z"/>
	<path class="st25" d="M71,124.6c1.2,0.7,1.5,0.7,3,1C72.8,124.9,72.5,124.9,71,124.6z"/>
	<path class="st26" d="M66,127.6l1,1L66,127.6z"/>
	<path class="st15" d="M57.3,131.3c-0.1,0.1-0.1,1.1,0.3,0.7C57.7,131.9,57.8,130.8,57.3,131.3 M68,131.6l1,1L68,131.6z"/>
	<path class="st3" d="M61,133.6v3c1-1.1,1.3-1.6,2-3H61z"/>
	<path class="st17" d="M70,134.6l1,1L70,134.6z"/>
	<path class="st23" d="M63,135.6l1,1L63,135.6z"/>
	<path class="st20" d="M71,135.6l1,1L71,135.6 M56,136.6v3C56.7,138,56.7,138.2,56,136.6z"/>
	<path class="st21" d="M61,136.6v7C62.1,141.1,62.1,139.1,61,136.6z"/>
	<path class="st17" d="M64,136.6l1,1L64,136.6z"/>
	<path class="st21" d="M122.3,139.3c-0.1,0.1-0.1,1.1,0.3,0.7C122.7,139.9,122.8,138.8,122.3,139.3z"/>
	<path class="st4" d="M56,139.6v8C57.2,144.8,57.2,142.4,56,139.6z"/>
	<path class="st25" d="M66,139.6l1,1L66,139.6z"/>
	<path class="st17" d="M74,139.6l1,1L74,139.6z"/>
	<path class="st4" d="M121,139.6c-1,1.5-1,1.2-1,3C121.3,141.2,121.4,141.4,121,139.6z"/>
	<path class="st17" d="M67,140.6l1,1L67,140.6z"/>
	<path class="st20" d="M75,140.6l1,1L75,140.6z"/>
	<path class="st23" d="M76,141.6l1,1L76,141.6z"/>
	<path class="st3" d="M119,141.6c-4.2,3.8-8.3,6.4-14,7C110.1,151.2,119.1,148,119,141.6z"/>
	<path class="st23" d="M77,142.6l1,1L77,142.6z"/>
	<path class="st15" d="M78,143.6l1,1L78,143.6z"/>
	<path class="st20" d="M116,143.6l1,1L116,143.6z"/>
	<path class="st26" d="M70,144.6l1,1L70,144.6z"/>
	<path class="st8" d="M115,144.6l1,1L115,144.6z"/>
	<path class="st23" d="M62.3,146.3c-0.1,0.1-0.1,1.1,0.3,0.7C62.7,146.9,62.8,145.8,62.3,146.3 M71,145.6l1,1L71,145.6z"/>
	<path class="st20" d="M81,145.6l1,1L81,145.6z"/>
	<path class="st15" d="M113,145.6l1,1L113,145.6z"/>
	<path class="st23" d="M72,146.6l1,1L72,146.6z"/>
	<path class="st9" d="M82,146.6l1,1L82,146.6z"/>
	<path class="st26" d="M83,146.6l1,1L83,146.6z"/>
	<path class="st23" d="M111,146.6l1,1L111,146.6z"/>
	<path class="st21" d="M115,146.6l1,1L115,146.6z"/>
	<path class="st20" d="M56,147.6l1,1L56,147.6z"/>
	<path class="st26" d="M61,147.6l1,1L61,147.6 M73,147.6l1,1L73,147.6z"/>
	<path class="st15" d="M85,147.6l1,1L85,147.6z"/>
	<path class="st26" d="M108,147.6l1,1L108,147.6z"/>
	<path class="st17" d="M109,147.6l1,1L109,147.6z"/>
	<path class="st26" d="M114,147.6l1,1L114,147.6z"/>
	<path class="st8" d="M87,148.6l1,1L87,148.6z"/>
	<path class="st20" d="M88,148.6l1,1L88,148.6z"/>
	<path class="st15" d="M103.7,148.9c-0.4,0.4,0.6,0.4,0.7,0.3C104.8,148.8,103.7,148.9,103.7,148.9z"/>
	<path class="st9" d="M57.7,149.9c-0.4,0.4,0.6,0.4,0.7,0.3C58.8,149.8,57.7,149.9,57.7,149.9z"/>
	<path class="st20" d="M76,149.6l1,1L76,149.6z"/>
	<path class="st8" d="M91,149.6c1.2,0.7,1.5,0.7,3,1C92.8,149.9,92.5,149.9,91,149.6z"/>
	<path class="st15" d="M94,149.6c1.2,0.7,1.5,0.7,3,1C95.8,149.9,95.5,149.9,94,149.6z"/>
	<path class="st9" d="M97,149.6c1.2,0.7,1.5,0.7,3,1C98.8,149.9,98.5,149.9,97,149.6z"/>
	<path class="st21" d="M111,149.6l1,1L111,149.6z"/>
	<path class="st8" d="M78,150.6l1,1L78,150.6z"/>
	<path class="st20" d="M109,150.6l1,1L109,150.6z"/>
	<path class="st25" d="M80,151.6l1,1L80,151.6z"/>
	<path class="st17" d="M106,151.6l1,1L106,151.6z"/>
	<path class="st26" d="M82,152.6l1,1L82,152.6z"/>
	<path class="st15" d="M103,152.6l1,1L103,152.6 M86,153.6l1,1L86,153.6z"/>
	<path class="st3" d="M87,153.6c2.9,1.2,5.9,1,9,1C93.1,153.4,90.1,153.6,87,153.6z"/>
	<path class="st8" d="M96,153.6c1.2,0.7,1.5,0.7,3,1C97.8,153.9,97.5,153.9,96,153.6z"/>
	<path class="st20" d="M99,153.6l1,1L99,153.6z"/>
	<path class="st3" d="M31,176.6c3.7,1.6,8,1,12,1h23h79c-3.7-1.6-8-1-12-1h-23H31z"/>
	<path class="st1" d="M27,178.6l1,1L27,178.6z"/>
	<path class="st9" d="M28,178.6l1,1L28,178.6z"/>
	<path class="st19" d="M147,178.6l1,1L147,178.6z"/>
</g>
</svg>
