<?xml version="1.0" encoding="utf-8"?>
<!-- Generator: Adobe Illustrator 22.0.0, SVG Export Plug-In . SVG Version: 6.00 Build 0)  -->
<svg version="1.1" id="Calque_1" xmlns="http://www.w3.org/2000/svg" xmlns:xlink="http://www.w3.org/1999/xlink" x="0px" y="0px"
	 viewBox="0 0 180 180" style="enable-background:new 0 0 180 180;" xml:space="preserve">
<style type="text/css">
	.st0{fill:#FFFF01;}
	.st1{fill:#EFE550;}
	.st2{fill:#908A30;}
	.st3{fill:#1B1904;}
	.st4{fill:#28250A;}
	.st5{fill:#58551E;}
	.st6{fill:#F7EC52;}
	.st7{fill:#BCB43E;}
	.st8{fill:#494503;}
	.st9{fill:#393604;}
	.st10{fill:#847E2C;}
	.st11{fill:#DFD54B;}
	.st12{fill:#FFA845;}
	.st13{fill:#CEC645;}
	.st14{fill:#787227;}
	.st15{fill:#857D05;}
	.st16{fill:#494719;}
	.st17{fill:#565103;}
	.st18{fill:#AFA73B;}
	.st19{fill:#A19935;}
	.st20{fill:#918804;}
	.st21{fill:#686205;}
	.st22{fill:#686423;}
	.st23{fill:#A19706;}
	.st24{fill:#FF0101;}
	.st25{fill:#787104;}
	.st26{fill:#B7AB06;}
	.st27{fill:#FFFA5B;}
	.st28{fill:#DACC09;}
	.st29{fill:#C9BC08;}
	.st30{fill:#010101;}
	.st31{fill:#F1E108;}
</style>
<path class="st0" d="M17.7,0.3c-0.4,0.4,0.6,0.4,0.7,0.3C18.8,0.2,17.7,0.3,17.7,0.3z"/>
<path class="st1" d="M20,0c1.6,0.9,3.2,1.4,5,2C23.5,0.2,22.4,0.2,20,0z"/>
<path class="st2" d="M25,0l1,1L25,0z"/>
<path class="st3" d="M30,0c4.7,2,10.9,1,16,1C41.3-1,35.1,0,30,0z"/>
<path class="st4" d="M46,0c5.5,2.3,13.1,1,19,1C59.5-1.3,51.9,0,46,0z"/>
<path class="st3" d="M65,0c6.9,2.9,17.5,1,25,1h55c-6.9-2.9-17.5-1-25-1H65z"/>
<path class="st5" d="M154,0l1,1L154,0z"/>
<path class="st6" d="M155,0l1,1L155,0z"/>
<path class="st7" d="M155,1l1,1L155,1z"/>
<path class="st0" d="M156,1l1,1L156,1z"/>
<path class="st6" d="M23,2l1,1L23,2z"/>
<path class="st5" d="M24,2l1,1L24,2z"/>
<path class="st1" d="M156,2l1,1L156,2z"/>
<path class="st0" d="M22,3l1,1L22,3z"/>
<path class="st7" d="M23,3l1,1L23,3z"/>
<path class="st8" d="M26,3c2.9,1.2,5.9,1,9,1C32.1,2.8,29.1,3,26,3z"/>
<path class="st4" d="M35,3c3.7,1.6,8,1,12,1h21c-3.7-1.6-8-1-12-1H35 M106,3c5.5,2.3,13.1,1,19,1C119.5,1.7,111.9,3,106,3z"/>
<path class="st9" d="M125,3c2.9,1.2,5.9,1,9,1C131.1,2.8,128.1,3,125,3z"/>
<path class="st8" d="M134,3c5.7,2.4,13.8,1,20,1C148.3,1.6,140.2,3,134,3z"/>
<path class="st10" d="M156,3l1,1L156,3z"/>
<path class="st11" d="M157.3,3.7c-0.1,0.1-0.1,1.1,0.3,0.7C157.7,4.3,157.8,3.2,157.3,3.7z"/>
<path class="st1" d="M22,4l1,1L22,4z"/>
<path class="st12" d="M9.6,37h166c-2.6-8.3-8.7-15.6-13.2-23c-1.8-2.9-3.4-7.1-6.3-9c-2.6-1.7-6.6-1-9.5-1h-20h-70h-19
	c-2.7,0-6.2-0.5-8.6,1c-3,1.8-4.6,6.1-6.4,9C18.2,21.4,12.2,28.7,9.6,37z"/>
<path class="st13" d="M21.3,5.7c-0.1,0.1-0.1,1.1,0.3,0.7C21.7,6.3,21.8,5.2,21.3,5.7z"/>
<path class="st14" d="M22,5l1,1L22,5z"/>
<path class="st15" d="M154,5l1,1L154,5z"/>
<path class="st16" d="M157,5l1,1L157,5z"/>
<path class="st1" d="M158,5l1,3C159.4,6.2,159.3,6.4,158,5z"/>
<path class="st17" d="M24,6l1,1L24,6z"/>
<path class="st18" d="M158,6l1,1L158,6z"/>
<path class="st6" d="M20,7l1,1L20,7z"/>
<path class="st16" d="M21,7l1,1L21,7z"/>
<path class="st11" d="M19.3,8.7c-0.1,0.1-0.1,1.1,0.3,0.7C19.7,9.3,19.8,8.2,19.3,8.7z"/>
<path class="st19" d="M20,8l1,1L20,8z"/>
<path class="st20" d="M23,8l1,1L23,8z"/>
<path class="st21" d="M156,8l1,1L156,8z"/>
<path class="st14" d="M159,8l1,1L159,8z"/>
<path class="st13" d="M160.3,8.7c-0.1,0.1-0.1,1.1,0.3,0.7C160.7,9.3,160.8,8.2,160.3,8.7z"/>
<path class="st9" d="M22,9l1,1L22,9z"/>
<path class="st6" d="M18,10l1,1L18,10z"/>
<path class="st22" d="M19,10l1,1L19,10z"/>
<path class="st23" d="M157,10l1,1L157,10z"/>
<path class="st9" d="M160,10l1,1L160,10z"/>
<path class="st6" d="M161,10l1,1L161,10z"/>
<path class="st24" d="M17,11l1,1L17,11z"/>
<path class="st7" d="M18,11l1,1L18,11z"/>
<path class="st21" d="M21,11l1,1L21,11z"/>
<path class="st9" d="M158,11l1,1L158,11z"/>
<path class="st19" d="M161,11l1,1L161,11z"/>
<path class="st11" d="M162.3,11.7c-0.1,0.1-0.1,1.1,0.3,0.7C162.7,12.3,162.8,11.2,162.3,11.7z"/>
<path class="st1" d="M17,12l1,1L17,12z"/>
<path class="st11" d="M16.3,13.7c-0.1,0.1-0.1,1.1,0.3,0.7C16.7,14.3,16.8,13.2,16.3,13.7z"/>
<path class="st10" d="M17,13l1,1L17,13z"/>
<path class="st23" d="M20,13l1,1L20,13z"/>
<path class="st25" d="M159,13l1,1L159,13z"/>
<path class="st22" d="M162,13l1,1L162,13z"/>
<path class="st6" d="M163,13l1,1L163,13z"/>
<path class="st8" d="M19,14l1,1L19,14z"/>
<path class="st7" d="M163,14l1,1L163,14z"/>
<path class="st0" d="M164,14l1,1L164,14z"/>
<path class="st6" d="M15,15l1,1L15,15z"/>
<path class="st16" d="M16,15l1,1L16,15z"/>
<path class="st26" d="M160,15l1,1L160,15z"/>
<path class="st1" d="M164,15l1,1L164,15z"/>
<path class="st0" d="M14,16l1,1L14,16z"/>
<path class="st18" d="M15,16l1,1L15,16z"/>
<path class="st15" d="M18,16l1,1L18,16z"/>
<path class="st17" d="M161,16l1,1L161,16z"/>
<path class="st2" d="M164,16l1,1L164,16z"/>
<path class="st11" d="M165.3,16.7c-0.1,0.1-0.1,1.1,0.3,0.7C165.7,17.3,165.8,16.2,165.3,16.7z"/>
<path class="st1" d="M14,17l1,1L14,17z"/>
<path class="st27" d="M13,18l1,1L13,18z"/>
<path class="st14" d="M14,18l1,1L14,18z"/>
<path class="st26" d="M17,18l1,1L17,18z"/>
<path class="st20" d="M162,18l1,1L162,18z"/>
<path class="st5" d="M165,18l1,1L165,18z"/>
<path class="st6" d="M166,18l1,1L166,18z"/>
<path class="st13" d="M13,19l1,1L13,19z"/>
<path class="st17" d="M16,19l1,1L16,19z"/>
<path class="st9" d="M163,19l1,1L163,19z"/>
<path class="st18" d="M166,19l1,1L166,19z"/>
<path class="st0" d="M167,19l1,1L167,19z"/>
<path class="st6" d="M12,20l1,1L12,20z"/>
<path class="st9" d="M13,20l1,1L13,20z"/>
<path class="st1" d="M167,20l1,1L167,20z"/>
<path class="st11" d="M11.3,21.7c-0.1,0.1-0.1,1.1,0.3,0.7C11.7,22.3,11.8,21.2,11.3,21.7z"/>
<path class="st2" d="M12,21l1,1L12,21z"/>
<path class="st20" d="M15,21l1,1L15,21z"/>
<path class="st25" d="M164,21l1,1L164,21z"/>
<path class="st14" d="M167,21l1,1L167,21z"/>
<path class="st27" d="M168,21l1,1L168,21z"/>
<path class="st13" d="M168,22l1,1L168,22z"/>
<path class="st1" d="M10,23l1,1L10,23z"/>
<path class="st5" d="M11,23l1,1L11,23z"/>
<path class="st23" d="M165,23l1,1L165,23z"/>
<path class="st16" d="M168,23l1,1L168,23z"/>
<path class="st6" d="M169,23l1,1L169,23z"/>
<path class="st0" d="M9,24l1,1L9,24z"/>
<path class="st7" d="M10,24l1,1L10,24z"/>
<path class="st21" d="M13,24l1,1L13,24z"/>
<path class="st8" d="M166,24l1,1L166,24z"/>
<path class="st19" d="M169,24l1,1L169,24z"/>
<path class="st1" d="M170.3,24.7c-0.1,0.1-0.1,1.1,0.3,0.7C170.7,25.3,170.8,24.2,170.3,24.7 M9,25l1,1L9,25z"/>
<path class="st13" d="M8.3,26.7c-0.1,0.1-0.1,1.1,0.3,0.7C8.7,27.3,8.8,26.2,8.3,26.7z"/>
<path class="st10" d="M9,26l1,1L9,26z"/>
<path class="st23" d="M12,26l1,1L12,26z"/>
<path class="st15" d="M167,26l1,1L167,26z"/>
<path class="st22" d="M170,26l1,1L170,26z"/>
<path class="st6" d="M171,26l1,1L171,26z"/>
<path class="st24" d="M179,26v5C179.8,29,179.8,28,179,26z"/>
<path class="st9" d="M11,27l1,1L11,27z"/>
<path class="st13" d="M171,27l1,1L171,27z"/>
<path class="st24" d="M172,27l1,1L172,27z"/>
<path class="st6" d="M7,28l1,1L7,28z"/>
<path class="st16" d="M8,28l1,1L8,28z"/>
<path class="st9" d="M171,28l1,1L171,28z"/>
<path class="st6" d="M172,28l1,1L172,28z"/>
<path class="st0" d="M0,29v3C0.7,30.4,0.7,30.6,0,29z"/>
<path class="st1" d="M6.3,29.7c-0.1,0.1-0.1,1.1,0.3,0.7C6.7,30.3,6.8,29.2,6.3,29.7z"/>
<path class="st19" d="M7,29l1,1L7,29z"/>
<path class="st25" d="M10,29l1,1L10,29z"/>
<path class="st21" d="M169,29l1,1L169,29z"/>
<path class="st2" d="M172,29l1,1L172,29z"/>
<path class="st11" d="M173.3,29.7c-0.1,0.1-0.1,1.1,0.3,0.7C173.7,30.3,173.8,29.2,173.3,29.7z"/>
<path class="st6" d="M5,31l1,1L5,31z"/>
<path class="st22" d="M6,31l1,1L6,31z"/>
<path class="st23" d="M9,31l1,1L9,31 M170,31l1,1L170,31z"/>
<path class="st5" d="M173,31l1,1L173,31z"/>
<path class="st6" d="M174,31l1,1L174,31z"/>
<path class="st0" d="M179,31v8C180.2,36.2,180.2,33.8,179,31z"/>
<path class="st6" d="M0,32v9c1.4-1.6,2.1-3,3-5C0.2,36,1.4,33.9,0,32z"/>
<path class="st24" d="M4,32l1,1L4,32z"/>
<path class="st7" d="M5,32l1,1L5,32z"/>
<path class="st8" d="M8,32l1,1L8,32 M171,32l1,1L171,32z"/>
<path class="st7" d="M174,32l1,1L174,32z"/>
<path class="st0" d="M175,32l1,1L175,32z"/>
<path class="st1" d="M4,33l1,1L4,33 M175,33l1,1L175,33z"/>
<path class="st11" d="M3.3,34.7c-0.1,0.1-0.1,1.1,0.3,0.7C3.7,35.3,3.8,34.2,3.3,34.7z"/>
<path class="st2" d="M4,34l1,1L4,34z"/>
<path class="st15" d="M7,34l1,1L7,34 M172,34l1,1L172,34z"/>
<path class="st10" d="M175,34l1,1L175,34z"/>
<path class="st11" d="M176.3,34.7c-0.1,0.1-0.1,1.1,0.3,0.7C176.7,35.3,176.8,34.2,176.3,34.7z"/>
<path class="st5" d="M3,36l1,1L3,36z"/>
<path class="st26" d="M6,36l1,1L6,36 M173,36l1,1L173,36z"/>
<path class="st16" d="M176,36l1,1L176,36z"/>
<path class="st6" d="M177,36l1,1L177,36z"/>
<path class="st18" d="M2,37l1,1L2,37z"/>
<path class="st25" d="M6,37c6.7,2.8,16.8,1,24,1C23.3,35.2,13.2,37,6,37z"/>
<path class="st20" d="M30,37c3.7,1.6,8,1,12,1h21c-3.7-1.6-8-1-12-1H30z"/>
<path class="st26" d="M63,37c4.2,1.8,9.5,1,14,1h28c-4.2-1.8-9.5-1-14-1H63z"/>
<path class="st23" d="M105,37c6.9,2.9,17.5,1,25,1C123.1,35.1,112.5,37,105,37z"/>
<path class="st20" d="M130,37c2.9,1.2,5.9,1,9,1C136.1,36.8,133.1,37,130,37z"/>
<path class="st25" d="M139,37c4.7,2,10.9,1,16,1C150.3,36,144.1,37,139,37z"/>
<path class="st21" d="M155,37c5.5,2.3,13.1,1,19,1C168.5,35.7,160.9,37,155,37z"/>
<path class="st18" d="M177,37l1,1L177,37z"/>
<path class="st1" d="M178.3,37.7c-0.1,0.1-0.1,1.1,0.3,0.7C178.7,38.3,178.8,37.2,178.3,37.7z"/>
<path class="st14" d="M1,39l1,1L1,39 M178,39l1,1L178,39z"/>
<path class="st13" d="M179.3,39.7c-0.1,0.1-0.1,1.1,0.3,0.7C179.7,40.3,179.8,39.2,179.3,39.7z"/>
<path class="st5" d="M0,41l1,1L0,41z"/>
<path class="st3" d="M1,41c2.6,1.1,5.2,1,8,1C6.4,40.9,3.8,41,1,41z"/>
<path class="st5" d="M179,41l1,1L179,41z"/>
<path class="st19" d="M27,42v137c3.5-8.4,1-21.9,1-31V77V54C28,50,28.6,45.7,27,42z"/>
<path class="st21" d="M30,42v135c1.6-3.7,1-8,1-12v-22V73C31,63.9,33.5,50.4,30,42z"/>
<path class="st28" d="M31,42c4,1.7,8.7,1,13,1C40,41.3,35.3,42,31,42z"/>
<path class="st26" d="M44,42c6.2,2.6,15.3,1,22,1C59.8,40.4,50.7,42,44,42z"/>
<path class="st23" d="M66,42c4,1.7,8.7,1,13,1h26c-4-1.7-8.7-1-13-1H66z"/>
<path class="st26" d="M105,42c4.2,1.8,9.5,1,14,1C114.8,41.2,109.5,42,105,42z"/>
<path class="st29" d="M119,42c7.2,3,18.2,1,26,1C137.8,40,126.8,42,119,42z"/>
<path class="st4" d="M147,42v137c1.6-3.7,1-8,1-12v-23V73C148,63.9,150.5,50.4,147,42z"/>
<path class="st12" d="M34,43v134h114V43H34z"/>
<path class="st26" d="M54,60l1,1L54,60z"/>
<path class="st8" d="M55,60l1,1L55,60z"/>
<path class="st30" d="M56,60.7C44.5,64,44.9,86,48.3,95c1.9,5.2,7,9.1,12.7,7.6c11.3-3,11.2-26.1,7.4-34.6
	C66.2,63.4,61.4,59.1,56,60.7z"/>
<path class="st21" d="M61,60l1,1L61,60z"/>
<path class="st9" d="M53,61l1,1L53,61z"/>
<path class="st21" d="M63,61l1,1L63,61z"/>
<path class="st29" d="M120.7,61.3c-0.4,0.4,0.6,0.4,0.7,0.3C121.8,61.2,120.7,61.3,120.7,61.3z"/>
<path class="st17" d="M56,62c1.5,0.7,2.3,0.8,4,1C58.5,62.3,57.7,62.2,56,62 M64,62l1,1L64,62z"/>
<path class="st20" d="M117,62l1,1L117,62z"/>
<path class="st30" d="M118,62.7c-9.7,3.6-8,16.1-8,24.3c0,3.3-0.3,6.9,1,10c2.2,5.4,8.1,9.6,14,7.1c10.2-4.2,9.7-24.5,6.5-33.1
	C129.4,65.7,124.1,60.5,118,62.7z"/>
<path class="st21" d="M124,62l1,1L124,62z"/>
<path class="st31" d="M67,90c-13,5.1-13.2-18.2,0-13c0-4.1-0.1-8.5-3.4-11.6C57.8,60,51.2,65.6,50.2,72c-0.9,5.9-1.9,17.6,1,23
	C56.3,104.7,65.6,97.9,67,90z"/>
<path class="st23" d="M61,63l1,1L61,63z"/>
<path class="st8" d="M65,63l1,1L65,63z"/>
<path class="st25" d="M126,63l1,1L126,63z"/>
<path class="st9" d="M53,64l1,1L53,64 M66,64l1,1L66,64z"/>
<path class="st25" d="M119,64c1.5,0.7,2.3,0.8,4,1C121.5,64.3,120.7,64.2,119,64z"/>
<path class="st21" d="M127,64l1,1L127,64z"/>
<path class="st17" d="M49,65l1,1L49,65z"/>
<path class="st8" d="M52,65l1,1L52,65z"/>
<path class="st20" d="M67,65l1,1L67,65z"/>
<path class="st26" d="M113,65l1,1L113,65z"/>
<path class="st17" d="M117,65l1,1L117,65z"/>
<path class="st31" d="M130,91c-1.5,0.8-3.2,2-5,1.9c-7.5-0.6-6.9-12.2-1-14.7c2.1-0.9,4,0.1,6,0.8c-0.3-7.5-7.8-20.8-15.3-9.9
	c-2,3-2.4,7.4-2.7,10.9c-0.4,5.5-0.7,13.2,2.6,17.9C121.1,107.2,128.9,98.5,130,91z"/>
<path class="st23" d="M124,65l1,1L124,65z"/>
<path class="st17" d="M128,65l1,1L128,65z"/>
<path class="st26" d="M112,66l1,1L112,66z"/>
<path class="st21" d="M116,66l1,1L116,66z"/>
<path class="st26" d="M125,66l1,1L125,66z"/>
<path class="st17" d="M129,66l1,1L129,66z"/>
<path class="st21" d="M48,67l1,1L48,67z"/>
<path class="st23" d="M51,67l1,1L51,67z"/>
<path class="st21" d="M65,67l1,1L65,67z"/>
<path class="st23" d="M68,67l1,1L68,67z"/>
<path class="st25" d="M115,67l1,1L115,67z"/>
<path class="st23" d="M111,68l1,1L111,68z"/>
<path class="st17" d="M114,68l1,1L114,68z"/>
<path class="st26" d="M127,68l1,1L127,68z"/>
<path class="st8" d="M130,68l1,1L130,68z"/>
<path class="st9" d="M47.3,69.7c-0.1,0.1-0.1,1.1,0.3,0.7C47.7,70.3,47.8,69.2,47.3,69.7z"/>
<path class="st20" d="M50,69l1,1L50,69z"/>
<path class="st17" d="M66,69l1,1L66,69z"/>
<path class="st25" d="M69,69v3C69.7,70.4,69.7,70.6,69,69z"/>
<path class="st9" d="M111,69l1,1L111,69 M128,69l1,1L128,69z"/>
<path class="st26" d="M110,70l1,1L110,70z"/>
<path class="st8" d="M113,70l1,1L113,70z"/>
<path class="st26" d="M128,70l1,1L128,70z"/>
<path class="st8" d="M131,70l1,1L131,70z"/>
<path class="st17" d="M49,71v3C49.7,72.4,49.7,72.6,49,71z"/>
<path class="st9" d="M129,71l1,1L129,71z"/>
<path class="st21" d="M112,72v3C112.7,73.4,112.7,73.6,112,72z"/>
<path class="st29" d="M129.3,72.7c-0.1,0.1-0.1,1.1,0.3,0.7C129.7,73.3,129.8,72.2,129.3,72.7z"/>
<path class="st15" d="M132,72v3C132.7,73.4,132.7,73.6,132,72z"/>
<path class="st23" d="M46.3,73.7c-0.1,0.1-0.1,1.1,0.3,0.7C46.7,74.3,46.8,73.2,46.3,73.7z"/>
<path class="st21" d="M67.3,73.7c-0.1,0.1-0.1,1.1,0.3,0.7C67.7,74.3,67.8,73.2,67.3,73.7z"/>
<path class="st29" d="M49,74v15C50.7,84.9,50.7,78.1,49,74z"/>
<path class="st20" d="M109.3,74.7c-0.1,0.1-0.1,1.1,0.3,0.7C109.7,75.3,109.8,74.2,109.3,74.7z"/>
<path class="st15" d="M46,75v14C47.7,85,47.7,79,46,75z"/>
<path class="st25" d="M60,75l1,1L60,75z"/>
<path class="st8" d="M63,75l1,1L63,75z"/>
<path class="st23" d="M64,75l1,1L64,75z"/>
<path class="st20" d="M67,75c-0.2,1.8-0.2,3.2,0,5C67.8,78,67.8,77,67,75z"/>
<path class="st26" d="M70,75v14C71.7,85,71.7,79,70,75z"/>
<path class="st29" d="M112.3,75.7c-0.1,0.1-0.1,1.1,0.3,0.7C112.7,76.3,112.8,75.2,112.3,75.7z"/>
<path class="st25" d="M65,76l1,1L65,76z"/>
<path class="st17" d="M109,76v15C110.7,86.9,110.7,80.1,109,76z"/>
<path class="st21" d="M130,76c-0.2,2.1-0.2,3.9,0,6C131,79.7,131,78.3,130,76z"/>
<path class="st8" d="M58,77l1,1L58,77z"/>
<path class="st17" d="M123,77l1,1L123,77z"/>
<path class="st8" d="M126,77l1,1L126,77z"/>
<path class="st23" d="M127,77l1,1L127,77z"/>
<path class="st26" d="M57,78l1,1L57,78z"/>
<path class="st23" d="M128,78l1,1L128,78z"/>
<path class="st17" d="M57,79l1,1L57,79z"/>
<path class="st26" d="M129,79l1,1L129,79z"/>
<path class="st4" d="M67.3,80.7c-0.1,0.1-0.1,1.1,0.3,0.7C67.7,81.3,67.8,80.2,67.3,80.7z"/>
<path class="st15" d="M120,80l1,1L120,80z"/>
<path class="st23" d="M56,82v3C56.7,83.4,56.7,83.6,56,82 M119.3,82.7c-0.1,0.1-0.1,1.1,0.3,0.7C119.7,83.3,119.8,82.2,119.3,82.7z"
	/>
<path class="st25" d="M119,84v3C119.7,85.4,119.7,85.6,119,84z"/>
<path class="st9" d="M67.3,85.7c-0.1,0.1-0.1,1.1,0.3,0.7C67.7,86.3,67.8,85.2,67.3,85.7z"/>
<path class="st17" d="M57,87l1,1L57,87z"/>
<path class="st25" d="M67.3,87.7c-0.1,0.1-0.1,1.1,0.3,0.7C67.7,88.3,67.8,87.2,67.3,87.7z"/>
<path class="st28" d="M119.3,87.7c-0.1,0.1-0.1,1.1,0.3,0.7C119.7,88.3,119.8,87.2,119.3,87.7z"/>
<path class="st8" d="M130,87l-1,4C130.7,89.6,130.8,89,130,87z"/>
<path class="st21" d="M49.3,89.7c-0.1,0.1-0.1,1.1,0.3,0.7C49.7,90.3,49.8,89.2,49.3,89.7z"/>
<path class="st17" d="M58,89l1,1L58,89z"/>
<path class="st23" d="M66,89l1,1L66,89z"/>
<path class="st4" d="M67.3,89.7c-0.1,0.1-0.1,1.1,0.3,0.7C67.7,90.3,67.8,89.2,67.3,89.7z"/>
<path class="st9" d="M120,89l1,1L120,89 M59,90l1,1L59,90z"/>
<path class="st20" d="M65,90l1,1L65,90z"/>
<path class="st8" d="M69,90v3C69.7,91.4,69.7,91.6,69,90z"/>
<path class="st23" d="M120,90l1,1L120,90z"/>
<path class="st3" d="M49.3,91.7c-0.1,0.1-0.1,1.1,0.3,0.7C49.7,92.3,49.8,91.2,49.3,91.7z"/>
<path class="st20" d="M60,91l1,1L60,91z"/>
<path class="st3" d="M61.7,91.3c-0.4,0.4,0.6,0.4,0.7,0.3C62.8,91.2,61.7,91.3,61.7,91.3z"/>
<path class="st17" d="M63,91l1,1L63,91z"/>
<path class="st26" d="M64,91l1,1L64,91 M109.3,91.7c-0.1,0.1-0.1,1.1,0.3,0.7C109.7,92.3,109.8,91.2,109.3,91.7z"/>
<path class="st20" d="M112,91v3C112.7,92.4,112.7,92.6,112,91z"/>
<path class="st9" d="M121,91l1,1L121,91z"/>
<path class="st8" d="M132.3,91.7c-0.1,0.1-0.1,1.1,0.3,0.7C132.7,92.3,132.8,91.2,132.3,91.7z"/>
<path class="st17" d="M47.3,92.7c-0.1,0.1-0.1,1.1,0.3,0.7C47.7,93.3,47.8,92.2,47.3,92.7z"/>
<path class="st15" d="M66,93l1,1L66,93z"/>
<path class="st20" d="M69,93l1,1L69,93 M123,93l1,1L123,93z"/>
<path class="st9" d="M124.7,93.3c-0.4,0.4,0.6,0.4,0.7,0.3C125.8,93.2,124.7,93.3,124.7,93.3z"/>
<path class="st25" d="M126,93l1,1L126,93z"/>
<path class="st20" d="M132,93v3C132.7,94.4,132.7,94.6,132,93z"/>
<path class="st26" d="M47,94l1,1L47,94z"/>
<path class="st8" d="M50,94l1,1L50,94 M112,94l1,1L112,94z"/>
<path class="st23" d="M129,94l1,1L129,94z"/>
<path class="st20" d="M65,95l1,1L65,95z"/>
<path class="st21" d="M68,95l1,1L68,95z"/>
<path class="st17" d="M129,95l1,1L129,95z"/>
<path class="st23" d="M48,96l1,1L48,96z"/>
<path class="st17" d="M51,96l1,1L51,96z"/>
<path class="st20" d="M110,96l1,1L110,96z"/>
<path class="st21" d="M113,96l1,1L113,96z"/>
<path class="st23" d="M52,97l1,1L52,97z"/>
<path class="st21" d="M64,97l1,1L64,97 M67,97l1,1L67,97z"/>
<path class="st17" d="M128,97l1,1L128,97z"/>
<path class="st23" d="M131,97l1,1L131,97 M49,98l1,1L49,98z"/>
<path class="st20" d="M53,98l1,1L53,98z"/>
<path class="st17" d="M63,98l1,1L63,98z"/>
<path class="st20" d="M111,98l1,1L111,98z"/>
<path class="st25" d="M114,98l1,1L114,98z"/>
<path class="st15" d="M50,99l1,1L50,99 M54,99l1,1L54,99z"/>
<path class="st17" d="M62,99l1,1L62,99z"/>
<path class="st26" d="M66,99l1,1L66,99 M115,99l1,1L115,99z"/>
<path class="st9" d="M127,99l1,1L127,99z"/>
<path class="st23" d="M130,99l1,1L130,99z"/>
<path class="st20" d="M51,100l1,1L51,100z"/>
<path class="st29" d="M56,100c1.5,0.7,2.3,0.8,4,1C58.5,100.3,57.7,100.2,56,100z"/>
<path class="st15" d="M60,100l1,1L60,100 M112,100l1,1L112,100z"/>
<path class="st23" d="M116,100l1,1L116,100 M52,101l1,1L52,101z"/>
<path class="st21" d="M113,101l1,1L113,101z"/>
<path class="st20" d="M117,101l1,1L117,101z"/>
<path class="st17" d="M54,102l1,1L54,102z"/>
<path class="st21" d="M62,102l1,1L62,102z"/>
<path class="st15" d="M114,102l1,1L114,102z"/>
<path class="st26" d="M119,102c1.5,0.7,2.3,0.8,4,1C121.5,102.3,120.7,102.2,119,102z"/>
<path class="st21" d="M123,102l1,1L123,102z"/>
<path class="st25" d="M56,103c1.8,0.8,3,0.9,5,1C59.2,103.2,58,103.1,56,103z"/>
<path class="st20" d="M115,103l1,1L115,103z"/>
<path class="st9" d="M126,103l1,1L126,103z"/>
<path class="st8" d="M117,104l1,1L117,104z"/>
<path class="st20" d="M125,104l1,1L125,104z"/>
<path class="st15" d="M119,105c1.5,0.7,2.3,0.8,4,1C121.5,105.3,120.7,105.2,119,105 M69,119c1.2,0.7,1.5,0.7,3,1
	C70.8,119.3,70.5,119.3,69,119z"/>
<path class="st26" d="M72,119c1.2,0.7,1.5,0.7,3,1C73.8,119.3,73.5,119.3,72,119 M65,120l1,1L65,120z"/>
<path class="st21" d="M66,120l1,1L66,120z"/>
<path class="st30" d="M57,150c6.9-2.1,4-10.2,4-16c7.5,6.8,11.4,16.3,22,19.4c3.8,1.1,8.1,0.6,12,0.6c4.9,0,10.8,0.2,14-4
	c-5.3,0-10.8,1.4-16,0.7c-13.5-1.8-23.1-13.9-28-25.7c5.3,0,9.4,0.3,13-4c-2.4-0.7-4.5-1.1-7-1C54.6,120.7,57,138,57,150z"/>
<path class="st17" d="M77,120l1,1L77,120z"/>
<path class="st25" d="M63,121l1,1L63,121z"/>
<path class="st15" d="M61,122l1,1L61,122z"/>
<path class="st8" d="M60,123l1,1L60,123z"/>
<path class="st20" d="M58,125v3C58.7,126.4,58.7,126.6,58,125z"/>
<path class="st15" d="M65.3,125.7c-0.1,0.1-0.1,1.1,0.3,0.7C65.7,126.3,65.8,125.2,65.3,125.7z"/>
<path class="st26" d="M66,125c1.8,0.8,3,0.9,5,1C69.2,125.2,68,125.1,66,125z"/>
<path class="st25" d="M71,125c1.2,0.7,1.5,0.7,3,1C72.8,125.3,72.5,125.3,71,125z"/>
<path class="st26" d="M66,128l1,1L66,128z"/>
<path class="st15" d="M57.3,131.7c-0.1,0.1-0.1,1.1,0.3,0.7C57.7,132.3,57.8,131.2,57.3,131.7 M68,132l1,1L68,132z"/>
<path class="st3" d="M61,134v3c1-1.1,1.3-1.6,2-3H61z"/>
<path class="st17" d="M70,135l1,1L70,135z"/>
<path class="st23" d="M63,136l1,1L63,136z"/>
<path class="st20" d="M71,136l1,1L71,136 M56,137v3C56.7,138.4,56.7,138.6,56,137z"/>
<path class="st21" d="M61,137v7C62.1,141.5,62.1,139.5,61,137z"/>
<path class="st17" d="M64,137l1,1L64,137z"/>
<path class="st21" d="M122.3,139.7c-0.1,0.1-0.1,1.1,0.3,0.7C122.7,140.3,122.8,139.2,122.3,139.7z"/>
<path class="st4" d="M56,140v8C57.2,145.2,57.2,142.8,56,140z"/>
<path class="st25" d="M66,140l1,1L66,140z"/>
<path class="st17" d="M74,140l1,1L74,140z"/>
<path class="st4" d="M121,140c-1,1.5-1,1.2-1,3C121.3,141.6,121.4,141.8,121,140z"/>
<path class="st17" d="M67,141l1,1L67,141z"/>
<path class="st20" d="M75,141l1,1L75,141z"/>
<path class="st23" d="M76,142l1,1L76,142z"/>
<path class="st3" d="M119,142c-4.2,3.8-8.3,6.4-14,7C110.1,151.6,119.1,148.4,119,142z"/>
<path class="st23" d="M77,143l1,1L77,143z"/>
<path class="st15" d="M78,144l1,1L78,144z"/>
<path class="st20" d="M116,144l1,1L116,144z"/>
<path class="st26" d="M70,145l1,1L70,145z"/>
<path class="st8" d="M115,145l1,1L115,145z"/>
<path class="st23" d="M62.3,146.7c-0.1,0.1-0.1,1.1,0.3,0.7C62.7,147.3,62.8,146.2,62.3,146.7 M71,146l1,1L71,146z"/>
<path class="st20" d="M81,146l1,1L81,146z"/>
<path class="st15" d="M113,146l1,1L113,146z"/>
<path class="st23" d="M72,147l1,1L72,147z"/>
<path class="st9" d="M82,147l1,1L82,147z"/>
<path class="st26" d="M83,147l1,1L83,147z"/>
<path class="st23" d="M111,147l1,1L111,147z"/>
<path class="st21" d="M115,147l1,1L115,147z"/>
<path class="st20" d="M56,148l1,1L56,148z"/>
<path class="st26" d="M61,148l1,1L61,148 M73,148l1,1L73,148z"/>
<path class="st15" d="M85,148l1,1L85,148z"/>
<path class="st26" d="M108,148l1,1L108,148z"/>
<path class="st17" d="M109,148l1,1L109,148z"/>
<path class="st26" d="M114,148l1,1L114,148z"/>
<path class="st8" d="M87,149l1,1L87,149z"/>
<path class="st20" d="M88,149l1,1L88,149z"/>
<path class="st15" d="M103.7,149.3c-0.4,0.4,0.6,0.4,0.7,0.3C104.8,149.2,103.7,149.3,103.7,149.3z"/>
<path class="st9" d="M57.7,150.3c-0.4,0.4,0.6,0.4,0.7,0.3C58.8,150.2,57.7,150.3,57.7,150.3z"/>
<path class="st20" d="M76,150l1,1L76,150z"/>
<path class="st8" d="M91,150c1.2,0.7,1.5,0.7,3,1C92.8,150.3,92.5,150.3,91,150z"/>
<path class="st15" d="M94,150c1.2,0.7,1.5,0.7,3,1C95.8,150.3,95.5,150.3,94,150z"/>
<path class="st9" d="M97,150c1.2,0.7,1.5,0.7,3,1C98.8,150.3,98.5,150.3,97,150z"/>
<path class="st21" d="M111,150l1,1L111,150z"/>
<path class="st8" d="M78,151l1,1L78,151z"/>
<path class="st20" d="M109,151l1,1L109,151z"/>
<path class="st25" d="M80,152l1,1L80,152z"/>
<path class="st17" d="M106,152l1,1L106,152z"/>
<path class="st26" d="M82,153l1,1L82,153z"/>
<path class="st15" d="M103,153l1,1L103,153 M86,154l1,1L86,154z"/>
<path class="st3" d="M87,154c2.9,1.2,5.9,1,9,1C93.1,153.8,90.1,154,87,154z"/>
<path class="st8" d="M96,154c1.2,0.7,1.5,0.7,3,1C97.8,154.3,97.5,154.3,96,154z"/>
<path class="st20" d="M99,154l1,1L99,154z"/>
<path class="st3" d="M31,177c3.7,1.6,8,1,12,1h23h79c-3.7-1.6-8-1-12-1h-23H31z"/>
<path class="st1" d="M27,179l1,1L27,179z"/>
<path class="st9" d="M28,179l1,1L28,179z"/>
<path class="st19" d="M147,179l1,1L147,179z"/>
</svg>
