<?xml version="1.0" standalone="no"?>
<!DOCTYPE svg PUBLIC "-//W3C//DTD SVG 20010904//EN"
 "http://www.w3.org/TR/2001/REC-SVG-20010904/DTD/svg10.dtd">
<svg version="1.0" xmlns="http://www.w3.org/2000/svg"
 width="906.000000pt" height="1280.000000pt" viewBox="0 0 906.000000 1280.000000"
 preserveAspectRatio="xMidYMid meet">
<g transform="translate(0.000000,1280.000000) scale(0.100000,-0.100000)"
fill="#000000" stroke="none">
<path d="M4975 12375 c-27 -14 -56 -25 -63 -25 -7 0 -30 -11 -50 -25 -20 -14
-47 -25 -60 -25 -75 0 -184 -112 -268 -276 -29 -58 -54 -113 -54 -122 0 -9
-10 -26 -22 -39 -22 -23 -31 -44 -63 -138 -10 -27 -26 -72 -35 -100 -23 -63
-29 -93 -40 -180 -13 -101 -12 -407 1 -481 11 -66 9 -63 122 -160 25 -21 15
-46 -52 -124 -31 -37 -69 -88 -86 -115 -123 -198 -260 -464 -330 -640 -26 -66
-61 -147 -78 -180 -45 -89 -114 -247 -154 -355 -38 -100 -134 -307 -163 -350
-20 -29 -106 -222 -145 -325 -15 -38 -31 -74 -35 -80 -4 -5 -11 -21 -15 -35
-4 -14 -16 -37 -26 -52 -11 -14 -33 -59 -51 -100 -28 -65 -32 -86 -37 -198
l-6 -125 -190 -7 c-104 -4 -210 -12 -235 -18 -25 -6 -108 -19 -185 -30 -246
-34 -359 -58 -610 -131 -38 -11 -90 -29 -115 -39 -25 -10 -70 -28 -100 -38
-66 -24 -278 -126 -373 -179 -127 -72 -333 -242 -434 -358 -55 -64 -151 -218
-159 -255 -3 -14 -12 -41 -19 -60 -49 -121 -44 -412 9 -559 9 -24 16 -52 16
-63 0 -47 85 -154 160 -200 14 -9 41 -44 59 -79 18 -35 45 -80 60 -99 16 -19
31 -45 35 -57 4 -12 13 -27 21 -33 8 -7 15 -27 15 -46 0 -25 -7 -38 -27 -51
-14 -10 -44 -35 -65 -55 -22 -20 -55 -42 -73 -48 -19 -6 -37 -16 -41 -21 -3
-5 -31 -28 -62 -51 -78 -57 -128 -106 -157 -154 -14 -22 -36 -51 -51 -65 -24
-23 -64 -92 -64 -112 0 -5 -12 -23 -26 -40 -67 -80 -115 -233 -115 -371 0 -50
4 -103 10 -119 6 -15 24 -81 40 -146 52 -204 71 -250 154 -353 111 -139 275
-292 410 -383 64 -44 137 -93 161 -110 23 -16 84 -68 133 -115 74 -70 113 -97
205 -144 62 -32 140 -78 173 -102 33 -24 83 -55 110 -68 28 -13 59 -33 69 -45
11 -11 24 -21 30 -21 6 0 36 -13 66 -28 203 -103 289 -145 385 -188 33 -14 83
-37 110 -50 28 -13 55 -24 61 -24 27 0 48 -43 56 -112 5 -51 13 -78 27 -92 11
-12 34 -38 51 -58 40 -48 117 -68 183 -48 67 20 87 32 119 72 27 34 34 38 76
38 27 0 73 -11 107 -25 33 -13 75 -25 93 -25 18 0 50 -9 72 -20 22 -11 49 -20
61 -20 13 0 36 -4 53 -10 17 -5 81 -21 141 -34 163 -37 190 -48 190 -82 0 -28
-7 -31 -275 -139 -396 -160 -671 -290 -956 -450 -153 -86 -361 -215 -439 -272
-24 -18 -47 -33 -50 -33 -3 0 -40 -25 -81 -55 -103 -77 -130 -122 -139 -232
l-8 -85 -66 -67 c-52 -51 -78 -88 -114 -163 -28 -57 -50 -117 -54 -147 -5 -45
-3 -53 28 -92 71 -91 116 -128 175 -145 127 -37 227 12 270 131 9 24 18 31 47
36 44 7 72 31 98 81 15 30 19 59 19 142 0 115 -2 112 70 137 33 11 53 27 73
57 25 37 49 52 206 130 258 126 319 153 486 211 83 29 175 63 205 76 54 22 88
33 325 99 166 46 198 54 295 76 513 114 587 119 774 59 l98 -31 42 -92 c47
-99 79 -183 125 -321 17 -49 57 -169 91 -265 33 -96 68 -200 76 -230 19 -72
52 -184 70 -240 30 -89 55 -214 59 -289 2 -42 11 -98 19 -125 27 -84 24 -90
-51 -126 -75 -34 -163 -113 -194 -172 -10 -21 -19 -42 -19 -48 0 -7 111 -10
340 -10 l340 0 0 60 c0 32 7 80 16 105 12 37 14 83 11 238 -3 176 -7 206 -40
357 -48 217 -60 273 -91 405 -14 61 -34 151 -45 200 -11 50 -27 119 -36 155
-9 36 -24 106 -34 155 -11 50 -33 145 -51 213 -19 74 -30 132 -26 147 9 34 53
59 140 82 65 16 120 18 611 17 360 0 570 -4 630 -12 50 -7 131 -17 180 -23
195 -22 466 -76 650 -130 71 -20 73 -51 6 -122 -65 -70 -91 -124 -98 -206 -6
-68 -5 -68 32 -110 20 -22 44 -41 52 -41 13 0 75 -29 239 -113 34 -17 35 -17
77 7 24 14 57 46 75 71 60 85 65 106 67 282 3 145 5 167 24 198 18 31 21 52
21 154 l0 118 -32 36 c-37 41 -127 99 -185 117 -21 7 -49 19 -63 26 -33 18
-190 78 -320 121 -58 20 -134 45 -170 58 -213 73 -669 175 -914 205 -49 6 -93
13 -97 16 -4 2 -63 11 -131 19 -68 8 -154 22 -193 29 -38 8 -119 20 -178 26
-118 12 -157 24 -157 50 0 21 50 97 89 134 25 24 35 27 63 21 18 -4 51 -7 73
-7 52 1 143 -25 174 -49 51 -40 104 -12 161 86 20 35 23 54 24 148 l1 109 37
30 c33 26 44 29 85 25 27 -2 73 -12 103 -21 69 -21 141 -30 174 -22 21 5 26
12 26 37 0 46 56 99 105 99 20 0 45 -4 55 -10 14 -7 32 0 82 33 196 129 458
406 458 483 0 21 20 49 105 151 33 39 125 171 125 179 0 2 14 23 30 46 17 22
30 48 30 57 0 9 11 34 25 56 13 22 38 67 56 100 64 121 55 115 180 115 126 0
162 11 200 61 20 26 28 51 33 104 4 39 13 100 21 137 10 47 11 77 4 100 -5 18
-9 53 -9 78 0 25 -5 89 -12 143 -13 109 -4 224 31 377 36 152 21 262 -45 341
l-34 41 0 112 c0 124 10 152 58 158 22 2 28 9 30 33 1 17 12 67 23 113 15 62
29 95 59 135 35 46 40 58 40 107 0 61 -10 81 -73 147 l-40 42 17 63 c9 35 23
88 31 118 7 30 23 87 34 125 29 98 68 253 75 300 4 22 18 85 31 140 13 55 33
143 45 195 27 127 55 255 79 365 11 50 32 151 46 225 15 74 42 207 60 295 49
231 97 471 106 535 9 57 21 117 37 185 6 22 16 78 23 125 6 47 16 96 21 110 6
14 14 57 18 95 22 180 30 243 39 280 5 22 14 103 20 180 7 77 16 168 21 201
17 109 13 575 -7 687 -16 97 -16 99 5 166 12 37 22 84 22 104 0 20 6 61 14 91
10 38 13 84 9 148 -4 79 -10 104 -39 165 -19 39 -42 77 -50 84 -8 7 -21 26
-28 43 -8 17 -44 56 -80 86 -37 30 -88 74 -114 96 -63 56 -110 74 -192 74 -37
0 -89 7 -116 16 -81 27 -695 54 -761 34 -119 -36 -732 -15 -1043 35 -124 20
-453 44 -760 55 -135 5 -319 13 -410 19 -397 23 -410 23 -465 -4z m-1586
-5040 c26 -27 61 -74 76 -103 32 -60 86 -112 169 -161 34 -20 58 -42 61 -55 2
-11 6 -85 9 -162 5 -112 3 -144 -7 -153 -8 -6 -78 -13 -173 -16 -87 -4 -184
-11 -214 -16 -30 -6 -85 -14 -122 -19 -36 -4 -140 -29 -230 -55 -90 -25 -188
-53 -218 -61 -121 -33 -220 -68 -310 -111 -241 -114 -244 -116 -313 -185 -38
-37 -83 -76 -101 -88 -49 -30 -114 -104 -136 -154 -20 -47 -47 -60 -103 -49
-47 10 -252 257 -303 367 -47 100 -28 283 41 402 24 42 148 164 166 164 5 0
14 11 19 24 13 35 115 103 260 172 30 14 77 37 103 50 27 13 53 24 59 24 6 0
51 19 102 41 50 23 134 55 186 71 52 17 124 40 160 53 57 20 207 57 280 69 14
2 130 3 258 3 l232 -1 49 -51z"/>
</g>
</svg>
