<?xml version="1.0" encoding="utf-8"?>
<!-- Generator: Adobe Illustrator 28.0.0, SVG Export Plug-In . SVG Version: 6.00 Build 0)  -->
<svg version="1.1" id="Calque_1" xmlns="http://www.w3.org/2000/svg" xmlns:xlink="http://www.w3.org/1999/xlink" x="0px" y="0px"
	 viewBox="0 0 189.5 509" style="enable-background:new 0 0 189.5 509;" xml:space="preserve">
<style type="text/css">
	.st0{fill:#FFD632;}
	.st1{fill:#1E1E1F;}
	.st2{fill:#68A240;}
</style>
<g id="SVGRepo_bgCarrier">
</g>
<g id="SVGRepo_tracerCarrier">
</g>
<g id="SVGRepo_iconCarrier">
	<path class="st0" d="M110.4,497.9H73.2c-18.1,0-32.8-14.7-32.8-32.8V182.2h102.8v282.9C143.2,483.2,128.5,497.9,110.4,497.9z"/>
	<path class="st1" d="M110.4,502.2H73.2c-20.5,0-37.1-16.6-37.1-37.1V177.9h111.4v287.2C147.5,485.5,130.8,502.2,110.4,502.2z
		 M44.7,186.5v278.6c0,15.7,12.8,28.5,28.5,28.5h37.2c15.7,0,28.5-12.8,28.5-28.5V186.5H44.7L44.7,186.5z"/>
	<path class="st2" d="M153.3,126.5C153.3,39.8,125.8,12,91.8,12S30.2,39.8,30.2,126.5v123.3c0,26.2,21.3,47.4,47.4,47.4h28.3
		c26.2,0,47.4-21.3,47.4-47.4L153.3,126.5L153.3,126.5z"/>
	<path class="st1" d="M105.9,301.5H77.6c-28.5,0-51.7-23.2-51.7-51.7V126.5c0-41.3,6.3-72.2,18.7-92c11.1-17.7,27-26.8,47.2-26.8
		s36,9,47.2,26.8c12.4,19.8,18.7,50.8,18.7,92v123.3C157.6,278.3,134.4,301.5,105.9,301.5L105.9,301.5z M91.8,16.2
		c-17,0-30.4,7.7-39.8,22.7c-11.6,18.4-17.3,47.8-17.3,87.5v123.3c0,23.7,19.4,43.1,43.1,43.1H106c23.8,0,43.1-19.4,43.1-43.1V126.5
		c0-39.6-5.9-69.1-17.3-87.5C122.3,23.9,108.8,16.2,91.8,16.2z"/>
	<path class="st1" d="M91.8,249.5c-2.6,0-4.7-2.1-4.7-4.7V72.3c0-2.6,2.1-4.7,4.7-4.7c2.6,0,4.7,2.1,4.7,4.7v172.5
		C96.5,247.3,94.4,249.5,91.8,249.5z"/>
</g>
</svg>
