<?xml version="1.0" encoding="utf-8"?>
<!-- Generator: Adobe Illustrator 28.0.0, SVG Export Plug-In . SVG Version: 6.00 Build 0)  -->
<svg version="1.1" id="Calque_1" xmlns="http://www.w3.org/2000/svg" xmlns:xlink="http://www.w3.org/1999/xlink" x="0px" y="0px"
	 viewBox="0 0 385.4 379.6" style="enable-background:new 0 0 385.4 379.6;" xml:space="preserve">
<style type="text/css">
	.st0{fill:#CCC4C4;}
	.st1{fill:#CCC4C4;stroke:#000000;stroke-miterlimit:10;}
</style>
<g id="BACKGROUND">
</g>
<g id="OBJECTS">
	<g>
		<g>
			<path class="st0" d="M44.4,221.3c1.1-2.2,3.1-3.9,5.4-4.7c-1.8,4.7-3.9,9.3-6.3,13.7"/>
			<g>
				<g>
					<path class="st0" d="M43.6,230.3c-0.4-0.2,1.7-4.8,4-10.4c0.2-0.5,0.4-1,0.6-1.5c0,0,0,0,0.1-0.1c0,0,0,0-0.1,0h-0.1l0,0
						l-0.1,0.1c-0.1,0.1-0.2,0.1-0.3,0.2c-0.7,0.5-1.3,0.9-1.7,1.4c-0.9,0.9-1.4,1.5-1.5,1.4c-0.2-0.1,0-0.9,0.8-2.1
						c0.4-0.6,0.9-1.2,1.7-1.9c0.1-0.1,0.2-0.2,0.3-0.2l0.2-0.1c0.1-0.1,0.2-0.1,0.3-0.2c0.4-0.2,0.8-0.5,1.2-0.6
						c0.8-0.3,1.6-0.7,2.5-1c-0.4,1-0.8,2.1-1.2,3.2c-0.2,0.4-0.3,0.8-0.5,1.2c-0.1,0.3-0.2,0.6-0.4,0.9
						C46.8,226.3,44,230.5,43.6,230.3z"/>
				</g>
			</g>
		</g>
		<g>
			<path class="st0" d="M59.5,193.7c-8,7.2-13.4,17.1-15.1,27.7"/>
			<g>
				<g>
					<path class="st0" d="M44.4,221.3c-0.2,0-0.2-1.9,0.4-4.8s1.9-6.8,4-10.8c2.2-4,4.8-7.2,6.9-9.2c2.1-2.1,3.6-3.1,3.8-2.9
						c0.4,0.4-5,5.3-9.1,13C46.2,214.3,45,221.4,44.4,221.3z"/>
				</g>
			</g>
		</g>
		<g>
			<path class="st0" d="M158.4,75c2.8-7.4,1.2-15.8-2.4-22.8c-3.7-7-9.2-12.8-14.7-18.5c-8.8-9.1-15.9-19.3-26.6-25.9"/>
			<g>
				<g>
					<path class="st0" d="M114.6,7.9c0.1-0.1,1.1,0.4,3,1.6c1.8,1.1,4.4,3,7.2,5.6c2.9,2.6,6,5.9,9.4,9.7c1.7,1.9,3.5,3.9,5.3,5.9
						c1.9,2,3.9,4,5.9,6.2c4,4.3,7.6,8.6,10.2,13.1c2.6,4.4,4,9,4.5,12.8c0.3,1.9,0.3,3.7,0.2,5.3c-0.1,1.5-0.4,2.9-0.6,3.9
						c-0.6,2.1-1.2,3.2-1.3,3.1s0.2-1.2,0.6-3.3c0.3-2.1,0.6-5.1-0.1-8.8c-0.6-3.7-2.1-8-4.7-12.2c-2.5-4.3-6.1-8.5-10.1-12.7
						c-2-2.1-4-4.1-5.9-6.2c-1.9-2-3.6-4.1-5.3-6c-3.3-3.8-6.3-7.2-9-9.9C118.5,10.6,114.4,8.2,114.6,7.9z"/>
				</g>
			</g>
		</g>
		<g>
			<path class="st0" d="M114.4,7.9c4.8,10.5,7.2,23.8,7.2,35.3c-0.1,9.2-1.7,18.4-1.8,27.6s-1.7,15.1,4,22.4"/>
			<g>
				<g>
					<path class="st0" d="M123.8,93.2c-0.1,0.1-1-0.8-2.2-2.7c-0.6-1-1.2-2.2-1.7-3.7s-0.8-3.4-0.9-5.4c-0.1-2,0-4.2,0-6.5
						c0.1-2.3,0-4.8,0.1-7.4c0.2-5.3,0.9-11,1.3-17c1-11.9-0.6-22.8-2.4-30.4c-1.8-7.6-3.9-12.1-3.6-12.2c0.1,0,0.7,1,1.6,3
						c0.9,2,2.1,5,3.2,8.9c1.1,3.8,2.1,8.5,2.7,13.7c0.6,5.2,0.7,11.1,0.3,17.1c-0.5,6-1.2,11.7-1.5,16.9c-0.1,2.6-0.2,5.1-0.3,7.4
						s-0.3,4.5-0.2,6.4c0,1.9,0.3,3.7,0.6,5.1c0.4,1.5,0.9,2.7,1.4,3.7C123.2,92.1,123.9,93.1,123.8,93.2z"/>
				</g>
			</g>
		</g>
		<g>
			<path class="st0" d="M144.7,47.6c3.5,7.8,4.9,15.8,2.1,23.8"/>
			<g>
				<g>
					<path class="st0" d="M146.8,71.4c-0.5-0.2,1.3-5.4,0.5-12c-0.4-3.3-1.2-6.2-1.8-8.3c-0.6-2.1-1-3.4-0.8-3.5s1,1.1,1.9,3.1
						c0.9,2.1,1.9,5.1,2.3,8.5c0.2,1.7,0.2,3.4,0.1,4.9c-0.1,1.5-0.4,2.8-0.7,3.9C147.8,70.3,147,71.5,146.8,71.4z"/>
				</g>
			</g>
		</g>
		<g>
			<path class="st0" d="M139.1,55.3c4.6,4.5,7.4,10.2,7.4,16.6"/>
			<g>
				<g>
					<path class="st0" d="M146.6,71.9c-0.5,0-0.6-4.2-2.8-8.7c-2.1-4.5-5-7.5-4.6-7.9c0.2-0.2,1.1,0.4,2.3,1.6s2.8,3.1,3.9,5.6
						c1.1,2.4,1.6,4.9,1.6,6.6C147.1,70.9,146.8,71.9,146.6,71.9z"/>
				</g>
			</g>
		</g>
		<g>
			<path class="st0" d="M139.2,55.3c3.4,8.9,3.6,20.7-1.5,28.8"/>
			<g>
				<g>
					<path class="st0" d="M137.7,84.1c-0.2-0.1,0.6-1.6,1.4-4.1c0.4-1.2,0.8-2.8,1.1-4.5s0.5-3.6,0.6-5.6c0.3-8.1-2.1-14.4-1.6-14.6
						c0.2-0.1,1.1,1.4,1.9,4c0.8,2.6,1.5,6.4,1.4,10.6c-0.1,2.1-0.3,4.1-0.7,5.9c-0.5,1.8-0.9,3.4-1.6,4.6
						C139,83,137.8,84.2,137.7,84.1z"/>
				</g>
			</g>
		</g>
		<g>
			<path class="st0" d="M135,68.8c1.6,5,2.4,10.3,2.6,15.6"/>
			<g>
				<g>
					<path class="st0" d="M137.5,84.4c-0.5,0-0.9-3.5-1.6-7.7c-0.7-4.2-1.4-7.7-1-7.8c0.4-0.2,2,3.2,2.7,7.6
						C138.4,80.8,138,84.4,137.5,84.4z"/>
				</g>
			</g>
		</g>
		<g>
			<path class="st0" d="M135.1,69.2c1.9,5.9-1.7,13.3-5.1,17.9c-3,4-6.7,7.3-10.8,10.1c-1.2,0.8-2.4,1.6-3.6,2.2"/>
			<g>
				<g>
					<path class="st0" d="M115.5,99.5c-0.1-0.1,0.3-0.5,1.1-1.1s1.9-1.4,3.3-2.4c2.7-2.1,6.3-5.3,9.4-9.4c3.1-4.2,5-8.6,5.5-11.9
						c0.6-3.3-0.1-5.4,0.2-5.5c0.1,0,0.4,0.4,0.7,1.4s0.5,2.4,0.3,4.2c-0.3,3.6-2.1,8.4-5.4,12.7c-3.3,4.4-7.1,7.5-10.1,9.4
						c-1.5,1-2.8,1.6-3.6,2C116.1,99.4,115.6,99.6,115.5,99.5z"/>
				</g>
			</g>
		</g>
		<g>
			<path class="st0" d="M132.6,96.7c-8.3,5-20.2,8.6-26.7,15.8"/>
			<g>
				<g>
					<path class="st0" d="M105.9,112.5c-0.2-0.1,0.8-1.7,3-3.6c1.1-1,2.5-2,4.1-3s3.4-2,5.4-3c3.9-1.9,7.5-3.4,10-4.6
						c2.6-1.1,4.1-1.9,4.3-1.7c0.1,0.2-1.3,1.3-3.7,2.8c-2.4,1.4-6,3.2-9.8,5.1c-1.9,1-3.7,1.9-5.3,2.8c-1.6,0.9-3,1.8-4.1,2.6
						C107.4,111.5,106.1,112.7,105.9,112.5z"/>
				</g>
			</g>
		</g>
		<g>
			<path class="st0" d="M106.3,112.3c1.5-0.9,3.4-0.2,5.1,0.2c3.1,0.7,6.4,0,8.9-1.7"/>
			<g>
				<g>
					<path class="st0" d="M120.4,110.8c0.1,0.2-0.4,0.9-1.6,1.6c-1.2,0.7-3.1,1.3-5.3,1.3c-1.1,0-2.1-0.2-3-0.5
						c-0.8-0.3-1.5-0.5-2.1-0.6c-1.2-0.3-1.9,0-2-0.2c-0.1-0.1,0.1-0.3,0.4-0.6c0.3-0.2,1-0.4,1.7-0.5c0.7,0,1.6,0.1,2.4,0.3
						c0.9,0.2,1.7,0.3,2.6,0.3C117.3,112.1,120.1,110.4,120.4,110.8z"/>
				</g>
			</g>
		</g>
		<g>
			<path class="st0" d="M119.6,112.2c-3.2,4.7-9,7.3-14.8,7.4c-5.7,0.1-11.3-2.1-16-5.4"/>
			<g>
				<g>
					<path class="st0" d="M88.9,114.2c0.2-0.2,1.8,0.8,4.6,2s6.8,2.6,11.4,2.5c4.6-0.1,8.5-1.7,10.9-3.4c2.5-1.7,3.6-3.3,3.8-3.1
						c0.2,0.1-0.6,2-3.1,4.1c-2.4,2.1-6.7,4.1-11.7,4.2c-5,0.1-9.2-1.6-12-3.2C90.2,115.7,88.7,114.4,88.9,114.2z"/>
				</g>
			</g>
		</g>
		<g>
			<path class="st0" d="M90.3,117.6c3.7,5.1,8,9.6,12.9,13.5"/>
			<g>
				<g>
					<path class="st0" d="M103.3,131.1c-0.3,0.4-3.9-1.9-7.5-5.7s-5.8-7.5-5.4-7.8c0.4-0.3,3.1,2.9,6.6,6.6
						C100.5,127.9,103.6,130.7,103.3,131.1z"/>
				</g>
			</g>
		</g>
		<g>
			<path class="st0" d="M92.6,123.8c1.5,9.4,5.9,18.3,12.6,25.1"/>
			<g>
				<g>
					<path class="st0" d="M105.2,148.8c-0.2,0.2-1.5-0.8-3.3-2.7s-4-4.9-5.8-8.4c-1.8-3.6-2.8-7.1-3.3-9.7c-0.5-2.6-0.5-4.2-0.2-4.2
						c0.5-0.1,1.6,6.2,5.1,13.1C101.2,143.8,105.6,148.5,105.2,148.8z"/>
				</g>
			</g>
		</g>
		<g>
			<path class="st0" d="M87.6,132.6c0,19.8,23.1,47.5,37.7,60.1s32.8,20.6,51.6,25.1"/>
			<g>
				<g>
					<path class="st0" d="M176.9,217.9c0,0.1-1.8-0.2-5.1-1c-3.2-0.8-7.8-2.1-13.4-4.1c-2.8-1-5.8-2.3-9-3.7
						c-3.2-1.5-6.5-3.2-9.9-5.1c-6.8-4-13.8-9.1-20.3-15.5c-12.9-12.7-22.4-26.4-27.4-37.2c-2.5-5.4-3.8-10.1-4.2-13.4
						c-0.1-0.8-0.2-1.6-0.2-2.2c0-0.6-0.1-1.2,0-1.6c0-0.9,0.1-1.3,0.1-1.3c0.2,0,0.2,1.8,0.8,5s2.1,7.8,4.6,13
						c5.1,10.5,14.7,23.9,27.5,36.5c6.4,6.3,13.2,11.4,19.9,15.4c3.3,2,6.6,3.7,9.7,5.2c3.1,1.5,6.1,2.8,8.8,3.9
						c5.5,2.2,10,3.6,13.2,4.6C175.2,217.2,177,217.8,176.9,217.9z"/>
				</g>
			</g>
		</g>
		<g>
			<path class="st0" d="M169.2,207.8c4.6,4.1,6.1,10.9,10.7,14.9c4.1,3.5,9.9,4.2,15.2,3.2c5.3-1,10.1-3.5,14.8-6"/>
			<g>
				<g>
					<path class="st0" d="M210,219.9c0.1,0.2-2.2,1.8-6.4,3.9c-2.1,1-4.6,2.1-7.7,2.8c-3,0.7-6.6,0.9-10.1,0
						c-1.8-0.5-3.5-1.2-4.9-2.1c-1.5-1-2.7-2.2-3.6-3.4c-1.9-2.5-3.1-5-4.2-7c-1.1-2-2-3.5-2.8-4.6c-0.7-1-1.2-1.5-1.1-1.7
						c0,0,0.2,0,0.5,0.2s0.7,0.5,1.1,1c0.9,0.9,2.1,2.4,3.3,4.4c1.2,1.9,2.5,4.4,4.3,6.6c0.9,1.1,2,2.2,3.3,3
						c1.3,0.9,2.8,1.5,4.4,1.9c3.2,0.8,6.5,0.7,9.4,0.1s5.4-1.5,7.5-2.4C207.3,220.9,209.9,219.6,210,219.9z"/>
				</g>
			</g>
		</g>
		<g>
			<path class="st0" d="M293.1,104.6c22.1-19.7,55.2-29.3,84.4-24.5"/>
			<g>
				<g>
					<path class="st0" d="M377.6,80.1c0,0.1-1.3,0.1-3.6-0.1c-0.6-0.1-1.2-0.1-1.9-0.2c-0.7,0-1.4-0.1-2.3-0.1
						c-1.6-0.1-3.5-0.2-5.5-0.1c-1,0-2.1,0-3.2,0s-2.3,0.1-3.5,0.2c-2.4,0.1-4.9,0.4-7.6,0.7c-5.3,0.7-11.2,1.9-17.1,3.6
						c-6,1.8-11.5,3.9-16.4,6.2c-2.4,1.2-4.7,2.3-6.8,3.5c-1,0.6-2.1,1.1-3,1.7c-0.9,0.6-1.8,1.2-2.7,1.7c-1.8,1-3.2,2.1-4.6,3.1
						c-0.7,0.5-1.3,0.9-1.9,1.3c-0.5,0.4-1.1,0.8-1.5,1.2c-1.8,1.4-2.9,2.1-2.9,2s0.8-1,2.5-2.6c0.4-0.4,0.9-0.8,1.4-1.3
						c0.5-0.4,1.1-0.9,1.8-1.4c1.3-1,2.7-2.2,4.5-3.3c0.9-0.6,1.7-1.2,2.7-1.8c0.9-0.6,2-1.2,3-1.8c2.1-1.3,4.4-2.4,6.8-3.7
						c4.9-2.4,10.5-4.6,16.6-6.4c6.1-1.7,12-2.8,17.4-3.5c2.7-0.2,5.3-0.5,7.7-0.5c1.2,0,2.4-0.1,3.5-0.1s2.2,0.1,3.2,0.1
						c2.1,0,3.9,0.2,5.6,0.4c0.8,0.1,1.6,0.2,2.3,0.2c0.7,0.1,1.3,0.2,1.9,0.3C376.3,79.7,377.6,80,377.6,80.1z"/>
				</g>
			</g>
		</g>
		<g>
			<path class="st0" d="M271.8,70.7c34.8-15.9,73.9-11.9,105.6,9.5"/>
			<g>
				<g>
					<path class="st0" d="M377.4,80.2c-0.1,0.1-1.4-0.6-3.9-2c-0.6-0.4-1.3-0.7-2-1.2c-0.7-0.4-1.6-0.8-2.4-1.3
						c-0.9-0.5-1.8-1-2.8-1.5c-0.5-0.3-1-0.5-1.5-0.8c-0.5-0.2-1.1-0.5-1.7-0.8c-1.1-0.5-2.3-1.1-3.6-1.6c-0.6-0.3-1.3-0.6-1.9-0.8
						c-0.7-0.3-1.3-0.5-2-0.8c-1.4-0.5-2.8-1.1-4.3-1.6s-3-1-4.6-1.5c-6.3-1.8-13.4-3.4-21-4.1s-14.8-0.5-21.4,0.1
						c-1.6,0.2-3.2,0.4-4.8,0.6c-0.8,0.1-1.5,0.2-2.3,0.4c-0.7,0.1-1.5,0.3-2.2,0.4s-1.4,0.3-2.1,0.4s-1.4,0.3-2,0.4
						c-1.3,0.3-2.6,0.7-3.8,1c-0.6,0.2-1.2,0.3-1.8,0.4c-0.6,0.2-1.1,0.4-1.7,0.5c-1.1,0.3-2.1,0.7-3,1s-1.8,0.6-2.6,0.9
						c-0.8,0.3-1.5,0.6-2.2,0.8c-2.6,1-4.1,1.5-4.1,1.4c-0.1-0.1,1.3-0.8,3.9-2c0.6-0.3,1.4-0.6,2.1-1c0.8-0.4,1.7-0.6,2.6-1
						c0.9-0.3,1.9-0.7,3-1.1c0.5-0.2,1.1-0.4,1.7-0.6s1.2-0.3,1.8-0.5c1.2-0.3,2.5-0.7,3.8-1.1c0.7-0.2,1.3-0.4,2-0.5
						s1.4-0.3,2.1-0.5s1.5-0.3,2.2-0.5c0.8-0.2,1.5-0.3,2.3-0.4c1.6-0.2,3.2-0.5,4.8-0.7c6.6-0.7,14-1,21.7-0.3
						c7.7,0.8,14.9,2.4,21.3,4.3c1.6,0.5,3.1,1,4.6,1.6c1.5,0.5,2.9,1.1,4.3,1.7c0.7,0.3,1.4,0.6,2,0.8c0.7,0.3,1.3,0.5,1.9,0.9
						c1.2,0.6,2.4,1.2,3.6,1.7c0.6,0.3,1.1,0.5,1.7,0.8c0.5,0.3,1,0.6,1.5,0.9c1,0.6,1.9,1.1,2.8,1.6s1.7,0.9,2.4,1.4
						c0.7,0.5,1.4,0.9,1.9,1.3C376.2,79.2,377.5,80.1,377.4,80.2z"/>
				</g>
			</g>
		</g>
		<g>
			<path class="st0" d="M378,80.2c-10.1,3-17.6,11.7-22.6,21s-8.1,19.5-12.9,28.9s-12,18.3-21.9,21.8"/>
			<g>
				<g>
					<path class="st0" d="M320.6,151.9c0-0.1,0.3-0.2,0.8-0.5c0.3-0.1,0.6-0.3,1-0.5s0.9-0.5,1.4-0.8c2.1-1.2,4.9-3.1,7.9-6.1
						s6-7.1,8.7-12s5.1-10.7,7.5-16.7c2.5-6.1,5-11.9,7.9-16.8c3-4.9,6.3-8.9,9.6-11.8c3.3-2.9,6.4-4.6,8.7-5.5
						c0.6-0.2,1.1-0.4,1.5-0.5s0.8-0.2,1.1-0.3c0.6-0.1,1-0.2,1-0.1c0,0.1-0.3,0.2-0.9,0.5c-0.3,0.1-0.7,0.3-1.1,0.5
						s-0.9,0.4-1.4,0.7c-2.1,1.1-5.1,2.9-8.2,5.8c-3.1,2.9-6.3,6.9-9.1,11.7c-2.8,4.8-5.2,10.6-7.7,16.6c-2.5,6.1-4.9,11.9-7.8,16.9
						s-6.1,9.1-9.3,12.1c-3.2,3-6.3,4.8-8.5,5.8c-0.6,0.2-1.1,0.4-1.5,0.6c-0.4,0.2-0.8,0.3-1.1,0.4
						C321,151.9,320.6,152,320.6,151.9z"/>
				</g>
			</g>
		</g>
		<g>
			<path class="st0" d="M309.2,148.3c5.2,2.3,9.1,6.7,13.2,10.7s8.8,7.8,14.4,8.5"/>
			<g>
				<g>
					<path class="st0" d="M336.8,167.5c0,0.2-2,0.3-5-0.8c-1.5-0.6-3.2-1.5-4.9-2.7c-1.7-1.2-3.4-2.7-5.1-4.4
						c-3.4-3.3-6.3-6.4-8.7-8.3c-2.4-1.9-4-2.8-3.9-3s2,0.3,4.7,2s5.8,4.7,9.1,8c3.3,3.3,6.6,5.9,9.3,7.2
						C334.9,166.9,336.8,167.2,336.8,167.5z"/>
				</g>
			</g>
		</g>
		<g>
			<path class="st0" d="M335.1,168.2c-3.6,1.9-8.3,1.9-11.9-0.1"/>
			<g>
				<g>
					<path class="st0" d="M323.2,168.1c0.3-0.4,2.7,0.7,5.9,0.7c3.2,0.1,5.7-1,5.9-0.5c0.1,0.2-0.4,0.8-1.5,1.3s-2.7,1-4.5,1
						s-3.4-0.5-4.5-1.1C323.6,168.8,323.1,168.3,323.2,168.1z"/>
				</g>
			</g>
		</g>
		<g>
			<path class="st0" d="M323.3,168.9c4.3,5.4,12.2,7.6,18.6,5.2"/>
			<g>
				<g>
					<path class="st0" d="M341.9,174.1c0.1,0.2-0.9,0.9-2.8,1.4c-0.9,0.2-2.1,0.4-3.4,0.4s-2.7-0.2-4.2-0.6c-1.4-0.4-2.7-1-3.9-1.6
						c-1.1-0.7-2-1.4-2.7-2.1c-1.4-1.4-1.9-2.5-1.7-2.6c0.2-0.2,1,0.6,2.5,1.7c0.7,0.5,1.6,1.1,2.7,1.6s2.2,1,3.5,1.4
						s2.6,0.5,3.7,0.7c1.2,0.1,2.2,0.1,3.1,0C340.7,174.1,341.8,173.9,341.9,174.1z"/>
				</g>
			</g>
		</g>
		<g>
			<path class="st0" d="M340.9,178.8c-4.9,5.7-12.9,8.4-20.2,6.9"/>
			<g>
				<g>
					<path class="st0" d="M320.6,185.7c0.1-0.3,1.3-0.2,3.3-0.2c1,0,2.1-0.1,3.4-0.3s2.6-0.5,4.1-1c1.4-0.5,2.7-1.1,3.8-1.7
						c1.1-0.6,2.1-1.2,2.9-1.8c1.6-1.1,2.5-2,2.7-1.8c0.2,0.1-0.4,1.3-1.9,2.8c-0.7,0.7-1.7,1.5-2.9,2.3c-1.2,0.7-2.6,1.4-4.1,1.9
						s-3,0.8-4.4,1c-1.4,0.1-2.6,0.1-3.7,0C321.8,186.4,320.6,185.9,320.6,185.7z"/>
				</g>
			</g>
		</g>
		<g>
			<path class="st0" d="M318.7,189.6c5.1,2.6,11.9,1.7,16.1-2.3"/>
			<g>
				<g>
					<path class="st0" d="M334.8,187.2c0.2,0.2-0.4,1-1.7,2.1c-1.3,1-3.4,2.1-5.9,2.4c-2.5,0.4-4.8-0.1-6.3-0.7
						c-1.5-0.6-2.3-1.3-2.2-1.5c0.1-0.2,1.1,0.1,2.5,0.3c1.5,0.3,3.5,0.4,5.8,0.1c2.2-0.3,4.1-1.1,5.5-1.8
						C333.8,187.6,334.6,187,334.8,187.2z"/>
				</g>
			</g>
		</g>
		<g>
			<path class="st0" d="M335.3,188.7c-7.5,10-19.7,16.4-32.2,16.8"/>
			<g>
				<g>
					<path class="st0" d="M303,205.6c0-0.3,2.1-0.5,5.4-1.2c1.6-0.3,3.6-0.9,5.6-1.6c2.1-0.7,4.3-1.7,6.6-2.8
						c2.2-1.2,4.3-2.5,6.1-3.8c1.8-1.3,3.3-2.6,4.5-3.7c2.5-2.3,3.8-3.9,4-3.7c0.2,0.1-0.9,2-3.2,4.6c-1.1,1.3-2.6,2.7-4.4,4.1
						c-1.8,1.4-3.9,2.8-6.2,4.1c-2.4,1.2-4.7,2.1-6.9,2.8c-2.2,0.6-4.2,1.1-5.9,1.3C305.2,206,303,205.8,303,205.6z"/>
				</g>
			</g>
		</g>
		<g>
			<path class="st0" d="M318.6,206.8"/>
			<g>
				<path class="st1" d="M318.6,206.8"/>
			</g>
		</g>
		<g>
			<path class="st0" d="M204.2,223.6c23.3,5.3,37.1,4.5,62.5,1.3c18.9-2.4,45.6-13,51.3-23.5"/>
			<g>
				<g>
					<path class="st0" d="M318,201.4c0.1,0-0.1,0.4-0.5,1.1c-0.4,0.7-1.1,1.7-2.2,2.8c-2.1,2.3-5.6,5.1-10.4,7.8
						c-4.8,2.7-10.8,5.4-17.7,7.7c-6.9,2.3-14.7,4.3-23,5.2c-8.3,1-16.2,1.8-23.4,2c-7.3,0.2-13.8-0.2-19.2-0.9
						c-5.4-0.7-9.8-1.6-12.8-2.3c-3-0.7-4.6-1.2-4.6-1.3c0-0.1,1.7,0.1,4.7,0.7c3,0.5,7.4,1.2,12.8,1.8c5.4,0.5,11.9,0.8,19,0.5
						c7.2-0.3,15-1.1,23.3-2.2c8.2-0.9,15.9-2.8,22.7-5c6.8-2.2,12.8-4.7,17.6-7.3c4.8-2.5,8.4-5.1,10.6-7.2
						C317.1,202.9,317.9,201.4,318,201.4z"/>
				</g>
			</g>
		</g>
		<g>
			<path class="st0" d="M133.1,96.4c-3,1.4-6.2,2.5-9.4,3.2c-2.9,0.7-5.3,0.6-8.1-0.3"/>
			<g>
				<g>
					<path class="st0" d="M115.5,99.3c0.1-0.2,1.1,0,2.7,0c1.6,0.1,3.7-0.1,6.1-0.8c4.8-1.2,8.6-2.6,8.8-2.2
						c0.2,0.4-3.4,2.6-8.4,3.9c-1.2,0.3-2.5,0.6-3.6,0.6c-1.2,0-2.2-0.1-3-0.3C116.3,100.1,115.4,99.5,115.5,99.3z"/>
				</g>
			</g>
		</g>
		<g>
			<path class="st0" d="M144.9,48.2c4,3.7,7,8.6,8.4,13.9"/>
			<g>
				<g>
					<path class="st0" d="M153.3,62.1c-0.5,0.1-1.7-3.3-4-7.1c-2.3-3.8-4.8-6.4-4.4-6.8c0.3-0.4,3.5,1.9,5.9,5.9
						C153.3,58.1,153.8,62,153.3,62.1z"/>
				</g>
			</g>
		</g>
		<g>
			<path class="st0" d="M153.3,61.8c0.7-1.8,1.4-3.5,1.8-5.4c0.4-1.8,0.5-3.8,0-5.6"/>
			<g>
				<g>
					<path class="st0" d="M155.1,50.7c0.2-0.1,0.6,0.5,0.9,1.6c0.3,1.1,0.3,2.6,0,4.2s-0.9,3-1.4,3.9s-0.9,1.4-1.2,1.3
						c-0.2-0.1-0.2-0.8,0-1.8s0.6-2.3,0.9-3.8c0.3-1.5,0.5-2.8,0.5-3.7S154.8,50.8,155.1,50.7z"/>
				</g>
			</g>
		</g>
		<g>
			<path class="st0" d="M312.1,91.5c-2.2,7-7.6,12.6-12.8,17.8"/>
			<g>
				<g>
					<path class="st0" d="M299.3,109.3c-0.2-0.2,0.6-1.2,1.8-2.7c1.3-1.5,3.1-3.6,5-5.9c1.9-2.4,3.3-4.6,4.3-6.3s1.5-2.8,1.7-2.8
						c0.2,0.1,0.1,1.3-0.6,3.3c-0.7,1.9-2.1,4.5-4,6.9s-3.9,4.4-5.5,5.7C300.5,108.8,299.5,109.5,299.3,109.3z"/>
				</g>
			</g>
		</g>
		<g>
			<path class="st0" d="M299.6,108.9c3.9-2.5,8.5-3.3,13-4.1"/>
			<g>
				<g>
					<path class="st0" d="M312.6,104.9c0.1,0.5-2.9,1.3-6.5,2.2s-6.2,2.2-6.5,1.8c-0.1-0.2,0.4-0.8,1.5-1.5s2.7-1.5,4.6-2
						C309.4,104.4,312.5,104.4,312.6,104.9z"/>
				</g>
			</g>
		</g>
		<g>
			<path class="st0" d="M312.2,104.8c-2.5,1.9-5,3.8-7.1,6.2c-2.1,2.3-3.8,5.1-4.3,8.2"/>
			<g>
				<g>
					<path class="st0" d="M300.8,119.1c-0.2,0-0.3-1.2,0.2-2.9s1.7-3.9,3.5-5.9s3.7-3.4,5.2-4.4c1.4-0.9,2.4-1.4,2.6-1.2
						c0.1,0.2-0.6,1-1.8,2.2c-1.2,1.2-3,2.7-4.6,4.6c-1.7,1.9-2.9,3.7-3.6,5.2C301.4,118.2,301.1,119.2,300.8,119.1z"/>
				</g>
			</g>
		</g>
		<g>
			<path class="st0" d="M300.8,119c3-1.7,5.8-3.7,8.6-5.8"/>
			<g>
				<g>
					<path class="st0" d="M309.4,113.3c0.3,0.4-1.3,2.1-3.7,3.8c-2.4,1.6-4.6,2.4-4.9,2c-0.2-0.4,1.6-1.9,3.9-3.5
						C307,114,309.1,112.9,309.4,113.3z"/>
				</g>
			</g>
		</g>
		<g>
			<path class="st0" d="M309.1,113.4c-1.4,1.9-2.9,3.8-3.9,5.9c-1.8,3.8-2.2,8.2-4.5,11.6"/>
			<g>
				<g>
					<path class="st0" d="M300.7,130.9c-0.2-0.2,0.3-1.1,0.8-2.8c0.6-1.6,1.1-4,1.9-6.6c0.4-1.3,1-2.6,1.6-3.6s1.3-1.9,1.9-2.6
						c1.2-1.4,2-2.1,2.2-1.9c0.2,0.1-0.3,1.1-1.2,2.7c-0.9,1.5-2,3.5-2.8,6s-1.5,4.9-2.4,6.5C301.8,130.2,300.9,131,300.7,130.9z"/>
				</g>
			</g>
		</g>
		<g>
			<path class="st0" d="M300.8,131.2c1.7-1.6,3.6-3.2,5.7-4.2c2.2-1,4.6-1.4,6.9-0.8"/>
			<g>
				<g>
					<path class="st0" d="M313.4,126.2c-0.1,0.2-0.9,0.2-2.1,0.3s-2.8,0.5-4.5,1.2c-1.7,0.8-3.1,1.7-4.1,2.4
						c-1.1,0.7-1.8,1.1-1.9,0.9c-0.2-0.2,0.2-0.9,1.1-1.9s2.3-2.2,4.2-3.1c1.9-0.9,3.9-1.1,5.2-0.9
						C312.7,125.5,313.5,126,313.4,126.2z"/>
				</g>
			</g>
		</g>
		<g>
			<path class="st0" d="M313.2,126c-2.4,1-4.7,2.3-6.6,4s-3.4,4-3.9,6.6"/>
			<g>
				<g>
					<path class="st0" d="M302.7,136.5c-0.2,0-0.4-1,0.1-2.4c0.4-1.4,1.5-3.3,3.2-4.8s3.5-2.4,4.9-2.9c1.3-0.5,2.2-0.6,2.3-0.4
						c0.1,0.2-0.6,0.8-1.8,1.5c-1.2,0.8-2.7,1.8-4.2,3.1s-2.6,2.8-3.2,4C303.3,135.8,303,136.6,302.7,136.5z"/>
				</g>
			</g>
		</g>
		<g>
			<path class="st0" d="M302.6,136.2c2.2-1.8,5.1-2.7,8-2.4"/>
			<g>
				<g>
					<path class="st0" d="M310.6,133.8c-0.1,0.5-1.9,0.6-4,1.2c-2.1,0.6-3.6,1.5-4,1.2c-0.2-0.2,0.1-0.7,0.7-1.3s1.6-1.2,2.8-1.6
						c1.2-0.4,2.4-0.4,3.2-0.2C310.1,133.3,310.6,133.6,310.6,133.8z"/>
				</g>
			</g>
		</g>
		<g>
			<path class="st0" d="M310.2,133.9c-1.5,1.2-3.1,2.4-3.9,4.2c-0.3,0.7-0.5,1.4-0.6,2.1c-0.2,1.4,0,2.7,0.5,4"/>
			<g>
				<g>
					<path class="st0" d="M306.2,144.2c-0.2,0.1-0.7-0.5-1.1-1.6c-0.3-1.1-0.5-2.8,0.2-4.6c0.8-1.8,2.1-2.8,3-3.4
						c1-0.6,1.6-0.8,1.8-0.6c0.2,0.2-0.3,0.8-1,1.6s-1.7,1.8-2.2,3.1s-0.6,2.7-0.6,3.7C306.4,143.4,306.4,144.1,306.2,144.2z"/>
				</g>
			</g>
		</g>
		<g>
			<path class="st0" d="M306.5,143.9c1.5,0.2,3,0.8,4.3,1.6c0.8,0.5,1.6,1.2,2.3,1.9c2.3,2.1,4.1,4.7,5.5,7.5"/>
			<g>
				<g>
					<path class="st0" d="M318.6,154.9c-0.5,0.2-2.3-3.1-5.5-6.3c-1.6-1.6-3.1-2.8-4.5-3.5c-1.3-0.7-2.2-1-2.2-1.2s1-0.4,2.6,0.1
						c0.8,0.2,1.7,0.6,2.6,1.2c0.9,0.6,1.8,1.3,2.6,2.2c1.7,1.7,2.9,3.6,3.6,5C318.6,153.8,318.8,154.8,318.6,154.9z"/>
				</g>
			</g>
		</g>
		<g>
			<path class="st0" d="M114.2,7.9c33.5,0,66.4,19.3,82.7,48.5"/>
			<g>
				<g>
					<path class="st0" d="M196.8,56.4c-0.1,0.1-0.9-1.1-2.3-3.2c-0.3-0.5-0.7-1.1-1.2-1.8c-0.4-0.6-1-1.3-1.5-2
						c-1.1-1.4-2.2-3.1-3.7-4.8c-0.7-0.9-1.5-1.8-2.3-2.7c-0.8-0.9-1.7-1.8-2.6-2.8c-1.8-2-3.9-3.8-6.1-5.9
						c-4.5-3.9-9.7-7.8-15.6-11.4c-5.9-3.4-11.9-6.1-17.5-8.1c-2.8-0.9-5.5-1.9-8.1-2.4c-1.3-0.3-2.5-0.7-3.7-0.9s-2.4-0.5-3.5-0.7
						c-2.2-0.5-4.2-0.7-6-0.9c-0.9-0.1-1.7-0.2-2.5-0.3s-1.5-0.1-2.1-0.1c-2.5-0.2-3.9-0.4-3.9-0.5s1.4-0.2,4-0.2c0.6,0,1.3,0,2.1,0
						s1.6,0.1,2.5,0.2c1.8,0.2,3.9,0.2,6.1,0.7c1.1,0.2,2.3,0.4,3.5,0.6c1.2,0.2,2.5,0.6,3.8,0.8c2.6,0.5,5.4,1.4,8.3,2.3
						c5.7,2,11.8,4.6,17.9,8.2c6,3.6,11.3,7.6,15.8,11.7c2.2,2.1,4.3,4,6.1,6.1c0.9,1,1.8,1.9,2.6,2.9c0.8,1,1.5,1.9,2.2,2.8
						c1.5,1.8,2.5,3.5,3.6,5c0.5,0.8,1,1.4,1.4,2.1s0.7,1.3,1,1.9C196.3,55.1,196.9,56.3,196.8,56.4z"/>
				</g>
			</g>
		</g>
		<g>
			<path class="st0" d="M207.2,53.9c5.5-3.3,10.1-7.9,13.5-13.4"/>
			<g>
				<g>
					<path class="st0" d="M220.7,40.5c0.4,0.2-1.5,4.3-5.3,8.1c-3.9,3.8-8,5.7-8.2,5.3c-0.3-0.4,3.3-2.8,6.9-6.5
						C217.9,43.7,220.3,40.3,220.7,40.5z"/>
				</g>
			</g>
		</g>
		<g>
			<path class="st0" d="M221.1,40.5c-0.3,4.4-1.6,8.8-3.7,12.6"/>
			<g>
				<g>
					<path class="st0" d="M217.4,53.1c-0.4-0.2,0.7-2.9,1.7-6.4c1-3.4,1.5-6.3,2-6.3s0.7,3.1-0.3,6.8
						C219.7,50.9,217.8,53.4,217.4,53.1z"/>
				</g>
			</g>
		</g>
		<g>
			<path class="st0" d="M218.4,53c3.6-2.2,6.8-5.1,8.8-8.8c2.1-3.7,2.9-8.1,1.8-12.1c2.8,3.9,4.8,8.4,5.8,13.1
				c0.7,3.2,0.9,6.7-0.6,9.7"/>
			<g>
				<g>
					<path class="st0" d="M234.3,54.9c-0.1-0.1,0.1-0.7,0.3-1.9c0.2-1.2,0.3-2.9,0-5c-0.6-4.2-2.5-10.1-6.4-15.4l1.6-0.7l0.1,0.4
						c0.8,3.6,0.2,7.1-0.9,9.9c-1.2,2.9-2.9,5.1-4.6,6.7c-1.6,1.6-3.2,2.7-4.3,3.3c-1.1,0.6-1.8,0.9-1.8,0.8
						c-0.1-0.1,0.5-0.6,1.4-1.3c0.9-0.8,2.3-2,3.8-3.6c1.4-1.6,3-3.8,4-6.4s1.5-5.8,0.7-9l-0.1-0.4l-1-4.3l2.6,3.6
						c4.1,5.6,5.8,11.8,6.2,16.3c0.2,2.3-0.2,4.1-0.6,5.3C234.9,54.4,234.4,54.9,234.3,54.9z"/>
				</g>
			</g>
		</g>
		<g>
			<path class="st0" d="M233.7,55.2c4.6-4.3,5.8-11.9,2.8-17.5c3.3,2.4,5.8,5.8,7.5,9.5s2.6,7.7,3.2,11.8"/>
			<g>
				<g>
					<path class="st0" d="M247.3,59c-0.3,0-0.7-2.4-1.9-6.1c-0.6-1.8-1.4-4-2.5-6.3c-0.6-1.1-1.3-2.3-2.1-3.4
						c-0.4-0.6-0.8-1.1-1.3-1.6c-0.2-0.3-0.5-0.5-0.7-0.8l-0.2-0.2l0,0l0,0l0,0c0,0,0,0,0,0.1v0.2c0.1,0.3,0.1,0.6,0.2,1
						c0.2,1.3,0.3,2.5,0.1,3.6c-0.2,2.3-0.9,4.3-1.6,5.8c-1.6,3-3.5,4.1-3.6,4c-0.2-0.2,1.3-1.6,2.5-4.5c0.6-1.5,1.1-3.3,1.2-5.4
						c0.1-1-0.1-2.1-0.3-3.3c-0.1-0.3-0.1-0.6-0.2-0.8c-0.2-0.6-0.4-1.1-0.6-1.7l-0.2-0.4c-0.1-0.1-0.2-0.4-0.3-0.6
						c-0.2-0.4-0.4-0.8-0.6-1.2c-0.4-0.8-0.8-1.6-1.2-2.4c0.7,0.5,1.4,1,2.1,1.6c0.4,0.3,0.8,0.6,1.2,0.9l0.6,0.5l0.6,0.5
						c0.3,0.2,0.5,0.5,0.8,0.7l0.6,0.6c0.3,0.3,0.5,0.6,0.8,0.9c0.5,0.6,1,1.2,1.4,1.8c0.8,1.2,1.5,2.4,2.1,3.6
						c1.2,2.4,1.8,4.7,2.3,6.7C247.5,56.5,247.5,59,247.3,59z"/>
				</g>
			</g>
		</g>
		<g>
			<path class="st0" d="M247.6,59.1c1.5-3.6,2.1-7.6,1.6-11.5c3.8,5.1,7.6,10.3,9,16.4"/>
			<g>
				<g>
					<path class="st0" d="M258.2,64c-0.3,0.1-0.8-1.6-2-4c-1.2-2.5-3.2-5.6-5.6-9c-0.5-0.7-0.3-0.4-0.4-0.5c0,0,0,0,0-0.1
						c0,0,0,0,0,0.1c0,0,0,0,0,0.3c0,0.2,0,0.4,0,0.6c0,0.4-0.1,0.8-0.1,1.1c-0.2,1.4-0.5,2.7-0.8,3.7c-0.7,2-1.4,3.1-1.6,3
						s0.2-1.3,0.5-3.3c0.2-1,0.4-2.2,0.4-3.5c0-0.3,0-0.7,0-1c0-0.2,0-0.4,0-0.5v-0.3v-0.5c0-0.7-0.1-1.6-0.2-2.5s-0.2-1.8-0.3-2.8
						c0.7,0.9,1.4,1.9,2.1,2.8c0.6,0.8,1.2,1.7,1.9,2.5c2.5,3.4,4.4,6.9,5.4,9.6C258.3,62.2,258.4,64,258.2,64z"/>
				</g>
			</g>
		</g>
		<g>
			<path class="st0" d="M254.3,54.4c2,1.5,4,3,5.9,4.5c1.9,1.4,3.8,2.9,5.9,3.9c3.4,1.5,7.3,1.8,10.9,0.8"/>
			<g>
				<g>
					<path class="st0" d="M277.1,63.6c0.1,0.2-1.3,0.9-3.7,1.2c-2.4,0.3-5.9-0.1-9.2-2c-1.6-0.9-3-2-4.2-3s-2.3-1.9-3.1-2.6
						c-1.8-1.5-2.8-2.6-2.6-2.8c0.1-0.2,1.4,0.5,3.4,1.8c1,0.6,2.1,1.4,3.4,2.3c1.2,0.9,2.6,1.9,4.1,2.7c2.9,1.7,6,2.3,8.3,2.3
						C275.6,63.6,277,63.3,277.1,63.6z"/>
				</g>
			</g>
		</g>
		<g>
			<path class="st0" d="M190.3,46.8c5.9,3,12.6,4.1,19.1,3.1c1.5-0.2,3-0.6,4.3-1.4"/>
			<g>
				<g>
					<path class="st0" d="M213.8,48.5c0.2,0.2-1,1.2-3.2,1.8c-2.2,0.6-5.3,0.9-8.7,0.6c-3.5-0.2-6.5-1.2-8.5-2.1s-3.1-1.8-3-2
						c0.2-0.5,5.1,1.9,11.7,2.4c3.2,0.3,6.2,0.1,8.3-0.1C212.4,48.9,213.6,48.3,213.8,48.5z"/>
				</g>
			</g>
		</g>
		<g>
			<path class="st0" d="M265.3,61.7c-0.8-1.8-1.4-3.8-1.6-5.8c5.2,4.1,11.7,6.7,18.4,7.4c2.3,0.2,4.6,0.2,6.8,0.9"/>
			<g>
				<g>
					<path class="st0" d="M288.8,64.1c-0.1,0.2-1.8-0.1-4.8-0.1s-7.3-0.4-11.6-2.2c-2.2-0.8-4.1-1.9-5.8-3c-0.4-0.3-0.8-0.6-1.2-0.8
						l-0.3-0.2c-0.1,0-0.1,0-0.1-0.1l0,0l-0.1-0.1c-0.1-0.1-0.2-0.2-0.2-0.2c0,0.1,0,0.1,0,0.2s0,0.2,0,0.3c0.1,0.3,0.1,0.6,0.2,0.9
						c0.1,0.6,0.2,1.1,0.3,1.5c0.2,0.8,0.3,1.3,0.2,1.3c-0.1,0-0.4-0.3-0.8-1.1c-0.2-0.4-0.4-0.9-0.6-1.4c-0.1-0.3-0.2-0.6-0.3-0.9
						c-0.1-0.5-0.3-1.1-0.4-1.7s-0.2-1.3-0.3-2c0-0.1,0,0,0.1,0l0.1,0.1l0.2,0.1l0.4,0.3c0.3,0.2,0.6,0.4,0.9,0.6s0.7,0.5,1,0.7
						c0.2,0.2,0.5,0.3,0.8,0.5c0.4,0.2,0.8,0.5,1.2,0.7c1.7,1,3.6,1.9,5.6,2.7c4.1,1.6,8.1,2.3,11.1,2.6c1.5,0.2,2.7,0.4,3.5,0.7
						C288.4,63.7,288.8,64,288.8,64.1z"/>
				</g>
			</g>
		</g>
		<g>
			<path class="st0" d="M161.5,171.5c-2.9,4.3-2.5,10.5,0.9,14.4c1.1,1.3,2.6,2.4,4.1,3.2c3.9,2.1,8.6,2.6,12.8,1.5
				c4.3-1.2,8.3-4.8,9.4-10.7"/>
			<g>
				<g>
					<path class="st0" d="M188.8,179.8c0.1,0,0.1,0.7-0.2,2c-0.3,1.2-0.9,3-2.3,4.9c-1.4,1.8-3.6,3.7-6.6,4.6
						c-2.9,0.9-6.4,1-9.9,0.1c-3.4-1-6.4-2.8-8.3-5.4c-1.9-2.5-2.5-5.4-2.5-7.7s0.7-4.1,1.3-5.3c0.6-1.1,1.1-1.6,1.2-1.6
						c0.1,0.1-0.2,0.7-0.6,1.8c-0.4,1.1-0.8,2.9-0.7,5s0.8,4.6,2.5,6.7c1.7,2.1,4.4,3.8,7.5,4.7s6.3,0.8,9,0.1s4.7-2.3,6.1-3.9
						c1.4-1.6,2.2-3.2,2.6-4.3C188.4,180.4,188.6,179.8,188.8,179.8z"/>
				</g>
			</g>
		</g>
		<g>
			<path class="st0" d="M189.9,175.8c-1.9,5.7-3.8,21,16.1,22.3c15.5,1,23.1-10.6,25.1-17.1"/>
			<g>
				<g>
					<path class="st0" d="M231.1,181.1c0.1,0,0,1-0.6,2.6s-1.7,3.8-3.5,6.2c-1.9,2.4-4.6,4.9-8.2,6.8c-3.7,1.8-8.2,2.7-12.9,2.3
						c-1.2-0.1-2.3-0.3-3.4-0.4c-1.1-0.3-2.2-0.5-3.3-0.8c-2.1-0.7-4.1-1.6-5.7-3c-0.9-0.6-1.5-1.4-2.2-2.1
						c-0.3-0.4-0.6-0.8-0.8-1.2c-0.3-0.4-0.5-0.8-0.7-1.2s-0.4-0.8-0.5-1.2c-0.2-0.4-0.3-0.8-0.4-1.2c-0.3-0.8-0.3-1.6-0.5-2.4
						c-0.3-3.1,0.2-5.5,0.6-7.2c0.5-1.6,0.9-2.5,1-2.4c0.1,0-0.1,0.9-0.3,2.6c-0.2,1.6-0.5,4,0,6.9c0.5,2.8,1.8,6.1,4.9,8.3
						c2.9,2.3,7.1,3.4,11.5,3.7s8.6-0.5,12.1-2.1c3.4-1.6,6.1-3.9,8-6.1C229.8,184.6,230.8,181,231.1,181.1z"/>
				</g>
			</g>
		</g>
		<g>
			<path class="st0" d="M183.4,159.2c-0.7,4.3,0.1,8.8,2.2,12.6c1,1.7,2.3,3.4,4.2,4.1"/>
			<g>
				<g>
					<path class="st0" d="M189.8,175.9c-0.1,0.2-1.3,0.1-2.7-1.1c-1.4-1.2-2.8-3.3-3.7-5.9c-0.9-2.6-1-5.1-0.8-6.9
						c0.2-1.8,0.7-2.8,0.9-2.8c0.5,0.1-0.1,4.3,1.6,9.1c0.8,2.4,1.9,4.4,2.9,5.6C189,175.1,189.9,175.6,189.8,175.9z"/>
				</g>
			</g>
		</g>
		<g>
			<path class="st0" d="M190.2,176c2.1-0.6,4.1-1.6,6-2.7c3.6-1.9,6.5-5.2,7.9-9"/>
			<g>
				<g>
					<path class="st0" d="M204.1,164.3c0.2,0.1,0.1,1.2-0.6,2.8s-2.2,3.7-4.3,5.4c-1.1,0.8-2.3,1.5-3.3,1.9c-1,0.5-2,0.9-2.8,1.2
						c-1.7,0.6-2.8,0.6-2.8,0.4c-0.1-0.2,0.9-0.7,2.3-1.5c0.7-0.4,1.6-0.9,2.6-1.5s2-1.1,3-1.9C202.1,168.1,203.7,164.1,204.1,164.3
						z"/>
				</g>
			</g>
		</g>
		<g>
			<path class="st0" d="M183.3,159.4c1.4-1.4,6.9-1.3,11.8,0.2c3.9,1.1,7.5,2.8,8.9,4.8"/>
			<g>
				<g>
					<path class="st0" d="M204,164.3c-0.2,0.1-1-0.7-2.8-1.6c-1.7-0.9-4.3-1.8-7.2-2.6c-2.9-0.7-5.6-1.1-7.6-1.1
						c-1,0-1.7,0.1-2.3,0.2c-0.5,0.1-0.8,0.2-0.9,0.1c-0.1-0.1,0.1-0.4,0.6-0.8c0.5-0.3,1.4-0.6,2.4-0.8c2.1-0.3,5-0.1,8.1,0.6
						c3.1,0.8,5.7,2,7.4,3.2C203.6,162.9,204.2,164.2,204,164.3z"/>
				</g>
			</g>
		</g>
		<g>
			<path class="st0" d="M269.8,168.4c-0.5-7.5-3-15.5-6.2-21.3c-2.7-4.9-6.3-9.4-11.1-10.2c-6.6-1-13.2,5.4-17.6,12.6
				c-4,6.6-7,14.3-8.5,22.2"/>
			<g>
				<g>
					<path class="st0" d="M226.4,171.7c-0.1,0,0-1.2,0.4-3.3s1.2-5.1,2.5-8.8c1.3-3.6,3.2-7.8,6-12.2c1.4-2.1,3.1-4.3,5.1-6.3
						c2-1.9,4.5-3.8,7.5-4.7c1.5-0.4,3.1-0.6,4.6-0.4c1.5,0.2,3,0.8,4.2,1.6c2.5,1.6,4.2,3.8,5.7,6c2.9,4.3,4.5,8.7,5.6,12.4
						s1.5,6.8,1.7,9c0.2,2.1,0.1,3.3,0,3.4c-0.3,0-0.6-4.7-2.9-12c-1.2-3.6-2.9-7.8-5.7-11.9c-1.4-2-3.1-4-5.3-5.4
						c-1.1-0.7-2.3-1.2-3.6-1.4c-1.3-0.2-2.6-0.1-3.9,0.3c-2.6,0.8-4.9,2.4-6.8,4.3c-1.9,1.8-3.6,3.9-5,5.9
						c-2.8,4.1-4.7,8.2-6.2,11.7C227.6,167.1,226.7,171.7,226.4,171.7z"/>
				</g>
			</g>
		</g>
		<g>
			<path class="st0" d="M224.2,171.8c17.7-3.8,31.3-4.1,47.9-2.2"/>
			<g>
				<g>
					<path class="st0" d="M272.1,169.6c0,0.3-2.7,0.1-7.1-0.1c-4.3-0.2-10.3-0.4-16.9-0.1c-13.2,0.6-23.8,2.9-23.9,2.3
						c0-0.2,2.5-1,6.8-2c4.3-0.9,10.3-1.8,17-2.1s12.8,0.1,17.1,0.6C269.5,168.8,272.2,169.4,272.1,169.6z"/>
				</g>
			</g>
		</g>
		<g>
			<path class="st0" d="M262.5,166.6c-1.1-6.7-3.6-12.1-7.4-14.9c-0.9-0.7-2-1.3-3.1-1.6c-4-1.2-8.5,1.4-11.6,5.3
				c-3.1,3.9-5,9.1-6.4,14.3"/>
			<g>
				<g>
					<path class="st0" d="M234,169.6c-0.2-0.1,0.2-2.8,1.7-7.2c0.8-2.1,1.9-4.7,3.7-7.2c0.9-1.2,2-2.5,3.3-3.5
						c1.3-1.1,2.9-2,4.7-2.5c1.8-0.5,3.8-0.5,5.5,0.2s3,1.7,4.1,2.9c2.2,2.3,3.4,4.9,4.1,7c0.8,2.2,1.1,4,1.3,5.3c0.2,1.3,0.1,2,0,2
						c-0.3,0.1-0.8-2.7-2.5-6.8c-0.9-2-2.1-4.4-4.1-6.3c-1-1-2.2-1.9-3.6-2.4c-1.3-0.5-2.9-0.6-4.4-0.1c-1.5,0.4-2.9,1.2-4.1,2.2
						c-1.2,0.9-2.2,2-3.1,3.2c-1.8,2.3-3,4.6-3.9,6.7C235.1,167,234.3,169.7,234,169.6z"/>
				</g>
			</g>
		</g>
		<g>
			<path class="st0" d="M247.6,155.6c3.1-3.6,7.1-3.4,9.9-1.2c2.8,2.1,5.1,9.8,5.1,14.2l-20.9,0.8
				C241.6,169.3,243.1,160.8,247.6,155.6z"/>
		</g>
		<g>
			<g>
				<g>
					<path class="st0" d="M167.4,155.9c1.3-5.6,7.7-31.6-2.8-37.7c-12.9-7.5-27.4,10.8-31.3,19.2"/>
					<g>
						<g>
							<path class="st0" d="M133.2,137.4c-0.1,0,0.2-1.1,1.2-3c1-1.8,2.5-4.4,4.8-7.2s5.4-6.1,9.6-8.7c2.1-1.3,4.6-2.4,7.3-2.8
								c2.7-0.4,5.8,0.1,8.4,1.5c1.3,0.7,2.5,1.7,3.4,2.9s1.5,2.5,1.9,3.8c0.9,2.6,1.2,5.2,1.3,7.7c0.2,4.9-0.4,9.3-1,12.9
								c-0.6,3.6-1.3,6.5-1.9,8.5c-0.5,2-0.9,3-1,3c-0.3-0.1,0.8-4.5,1.7-11.7c0.4-3.6,0.8-7.9,0.6-12.6c-0.2-2.3-0.5-4.8-1.3-7.2
								s-2.3-4.5-4.5-5.7c-2.3-1.3-4.9-1.7-7.3-1.3c-2.4,0.3-4.7,1.3-6.7,2.5c-4,2.4-7.1,5.5-9.5,8.1
								C135.4,133.4,133.4,137.5,133.2,137.4z"/>
						</g>
					</g>
				</g>
				<g>
					<path class="st0" d="M124.1,132.7c14.9,7.4,29.6,15.3,44.1,23.7"/>
					<g>
						<g>
							<path class="st0" d="M168.2,156.4c-0.1,0.2-2.6-1-6.7-3.1c-4-2.1-9.5-5.1-15.6-8.3c-6.1-3.3-11.6-6.2-15.5-8.4
								c-4-2.2-6.4-3.6-6.3-3.8c0.1-0.2,2.7,0.8,6.8,2.7c4.1,1.9,9.7,4.7,15.8,8s11.5,6.4,15.4,8.8
								C166,154.6,168.3,156.2,168.2,156.4z"/>
						</g>
					</g>
				</g>
				<g>
					<path class="st0" d="M163.9,152.8c1.6-4.3,3.8-20.6-2-23.7c-8.5-4.4-19.8,6.9-22.6,10.6"/>
					<g>
						<g>
							<path class="st0" d="M139.3,139.7c-0.2-0.1,1.3-2.7,4.9-5.9c1.8-1.6,4-3.4,6.9-4.8c1.4-0.7,3-1.3,4.8-1.6
								c0.9-0.1,1.8-0.2,2.8-0.1c0.9,0.1,1.9,0.3,2.8,0.7c0.9,0.3,1.9,0.9,2.5,1.7c0.7,0.8,1.1,1.6,1.4,2.5c0.6,1.7,0.9,3.4,1,5
								c0.2,3.2,0,6-0.3,8.3c-0.7,4.7-1.9,7.4-2.1,7.3c-0.2-0.1,0.5-2.9,0.9-7.5c0.2-2.3,0.3-5.1,0-8.1c-0.2-1.5-0.4-3-1-4.5
								c-0.3-0.7-0.7-1.4-1.1-2c-0.5-0.6-1-0.9-1.8-1.2s-1.5-0.5-2.3-0.6s-1.6,0-2.4,0.1c-1.6,0.2-3,0.7-4.4,1.4
								c-2.7,1.3-5,2.9-6.8,4.3C141.3,137.6,139.5,139.9,139.3,139.7z"/>
						</g>
					</g>
				</g>
			</g>
			<path class="st0" d="M145.9,143.6l17.5,10c0,0,4.4-15.6-0.3-19.2C156.8,129.5,146.2,143.6,145.9,143.6z"/>
		</g>
		<g>
			<path class="st0" d="M172.1,190.5c5.4,2.8,6.8,6.5,9.3,12c1.4,3.1,3.2,6.5,6.8,8.1c3.1,1.4,6.9,1.2,10.1,0.1s5.8-3.2,8.1-5.4
				c2.3-2.2,4.2-4.6,6.5-6.8"/>
			<g>
				<g>
					<path class="st0" d="M212.9,198.5c0.1,0.1-0.4,0.7-1.3,1.8s-2.2,2.7-3.9,4.6c-1.7,1.9-4,4.1-7.1,5.7s-7.1,2.5-11.2,1.4
						c-2-0.5-3.8-1.7-5.1-3.2c-1.3-1.4-2.2-3-3-4.6c-1.4-3.1-2.5-5.9-3.7-8s-2.7-3.5-3.8-4.3c-1.1-0.9-1.8-1.3-1.7-1.4
						c0-0.1,0.8,0.1,2.1,0.9c1.2,0.7,3,2.1,4.4,4.2c1.5,2.1,2.7,5,4.1,7.9c0.7,1.4,1.6,2.9,2.8,4.1c1.2,1.2,2.6,2.2,4.4,2.6
						c1.7,0.5,3.5,0.5,5.2,0.3s3.3-0.8,4.7-1.5c2.9-1.4,5.1-3.4,6.9-5.1c1.8-1.7,3.2-3.2,4.3-4.2
						C212.2,198.9,212.9,198.4,212.9,198.5z"/>
				</g>
			</g>
		</g>
		<g>
			<path class="st0" d="M183.5,205.6c-0.4-3.1,1.4-6.2,3.7-8.4c1.7-1.6,3.7-2.9,5.9-3.8"/>
			<g>
				<g>
					<path class="st0" d="M193.1,193.4c0.2,0.5-3.2,2-6.1,5.2c-1.4,1.6-2.3,3.3-2.8,4.7c-0.4,1.3-0.5,2.3-0.7,2.3s-0.6-0.9-0.5-2.5
						s1.1-3.8,2.7-5.6s3.5-3,4.9-3.6C192.1,193.3,193,193.2,193.1,193.4z"/>
				</g>
			</g>
		</g>
		<g>
			<path class="st0" d="M198.4,197.4c-1.9,1.5-3.3,3.6-3.9,6"/>
			<g>
				<g>
					<path class="st0" d="M194.5,203.4c-0.5-0.1-0.5-1.9,0.7-3.8c1.2-1.9,2.9-2.6,3.2-2.2c0.3,0.4-0.7,1.6-1.7,3.1
						C195.7,202.1,195,203.5,194.5,203.4z"/>
				</g>
			</g>
		</g>
		<g>
			<path class="st0" d="M211.5,183.4c34.3-0.5,83.3,14.8,114.9,36.6"/>
			<g>
				<g>
					<path class="st0" d="M326.4,220c-0.1,0.1-1.6-0.7-4.2-2.3c-0.7-0.4-1.4-0.8-2.2-1.3c-0.8-0.5-1.7-1-2.7-1.5
						c-1.9-1.1-4.1-2.3-6.5-3.6c-1.2-0.6-2.5-1.3-3.8-2c-1.4-0.7-2.8-1.3-4.2-2c-2.9-1.4-6.1-2.8-9.4-4.3
						c-6.7-2.8-14.2-5.8-22.2-8.3c-16-5.2-31-8.3-41.9-9.6c-1.4-0.2-2.7-0.3-3.9-0.5c-1.2-0.1-2.4-0.2-3.5-0.3
						c-2.2-0.2-4.1-0.4-5.6-0.4c-3.1-0.1-4.8-0.3-4.8-0.4c0-0.1,1.7-0.2,4.8-0.3c1.6-0.1,3.4,0,5.6,0.1c1.1,0.1,2.3,0.1,3.5,0.2
						c1.2,0.1,2.6,0.2,3.9,0.4c11,1,26.2,4,42.3,9.2c8.1,2.6,15.6,5.6,22.3,8.5c3.3,1.5,6.5,2.9,9.4,4.4c1.5,0.7,2.9,1.4,4.2,2.1
						c1.3,0.7,2.6,1.4,3.8,2.1c2.4,1.3,4.6,2.7,6.4,3.8c0.9,0.6,1.8,1.1,2.6,1.6c0.8,0.5,1.5,1,2.1,1.5
						C325.1,218.9,326.4,219.9,326.4,220z"/>
				</g>
			</g>
		</g>
		<g>
			<path class="st0" d="M80.2,143c31.7,6.8,62.6,17.1,92,30.6"/>
			<g>
				<g>
					<path class="st0" d="M172.2,173.6c-0.1,0.1-1.3-0.3-3.6-1.3c-2.3-0.9-5.6-2.3-9.6-3.9c-8.1-3.3-19.5-7.6-32.2-11.8
						s-24.4-7.5-32.9-9.8c-4.2-1.1-7.7-2-10.1-2.7c-2.4-0.6-3.7-1-3.7-1.2c0-0.1,1.4,0.1,3.8,0.5c2.4,0.4,5.9,1.1,10.2,2.1
						c8.6,2,20.4,5.1,33.1,9.3c12.8,4.2,24.1,8.8,32.1,12.4c4,1.8,7.2,3.3,9.4,4.4C171,172.8,172.2,173.5,172.2,173.6z"/>
				</g>
			</g>
		</g>
		<g>
			<path class="st0" d="M64.7,155.7c33,2.1,71.6,8.6,101.8,20.4"/>
			<g>
				<g>
					<path class="st0" d="M166.5,176c0,0.1-1.5-0.3-4-1.1c-1.2-0.4-2.8-0.9-4.6-1.5s-3.8-1.2-6.1-1.9c-4.5-1.4-9.9-2.8-15.9-4.3
						c-6-1.4-12.7-2.9-19.8-4.3c-7.1-1.3-13.8-2.4-20-3.4c-6.2-0.9-11.7-1.6-16.4-2.1c-2.3-0.3-4.5-0.5-6.3-0.7
						c-1.9-0.2-3.5-0.4-4.8-0.5c-2.6-0.3-4.1-0.5-4.1-0.6s1.5-0.1,4.1-0.1c1.3,0,2.9,0.1,4.8,0.2c1.9,0.1,4,0.2,6.4,0.5
						c4.7,0.4,10.3,1,16.5,1.8s13,1.9,20.1,3.2c7.1,1.4,13.8,2.9,19.8,4.4c6,1.6,11.4,3.2,15.9,4.7c2.2,0.7,4.3,1.5,6,2.1
						c1.8,0.6,3.3,1.2,4.5,1.7C165.2,175.3,166.5,175.9,166.5,176z"/>
				</g>
			</g>
		</g>
		<g>
			<path class="st0" d="M246.8,107.9c6.5,2.3,12.3,6.6,16.4,12.2"/>
			<g>
				<g>
					<path class="st0" d="M263.2,120c-0.4,0.3-3.3-3.3-7.8-6.6c-4.5-3.4-8.7-5.1-8.6-5.6c0.1-0.2,1.3-0.1,3.1,0.6
						c1.8,0.6,4.2,1.8,6.5,3.6s4.2,3.7,5.3,5.2C262.9,118.8,263.4,119.9,263.2,120z"/>
				</g>
			</g>
		</g>
		<g>
			<path class="st0" d="M261,110.3c4,3.4,7.1,8,8.5,13.1"/>
			<g>
				<g>
					<path class="st0" d="M269.5,123.4c-0.5,0.1-1.7-3.2-4.1-6.7c-2.3-3.6-4.8-6-4.5-6.4c0.1-0.2,1,0.2,2.1,1.1
						c1.2,0.9,2.6,2.4,3.8,4.3c1.2,1.9,2,3.8,2.4,5.2C269.7,122.4,269.8,123.3,269.5,123.4z"/>
				</g>
			</g>
		</g>
		<g>
			<path class="st0" d="M270.8,117.7c1.3,2,1.9,4.4,1.7,6.8"/>
			<g>
				<g>
					<path class="st0" d="M272.4,124.5c-0.5-0.1-0.6-1.6-1.1-3.3c-0.4-1.7-1-3.2-0.6-3.5s1.8,0.9,2.3,3
						C273.6,122.9,272.9,124.6,272.4,124.5z"/>
				</g>
			</g>
		</g>
		<g>
			<path class="st0" d="M158.8,99.4c2.5-2.9,5.8-5.1,9.4-6.2"/>
			<g>
				<g>
					<path class="st0" d="M168.2,93.2c0.1,0.5-2.1,1.5-4.7,3.2c-2.5,1.7-4.4,3.3-4.8,3c-0.4-0.3,1-2.7,3.8-4.5
						C165.3,93.1,168.1,92.7,168.2,93.2z"/>
				</g>
			</g>
		</g>
		<g>
			<path class="st0" d="M163.7,99.7c2.9-2.1,5.8-4.1,9-5.6s6.7-2.5,10.2-2.4"/>
			<g>
				<g>
					<path class="st0" d="M183,91.7c0,0.3-1.2,0.4-3,0.8c-1.8,0.4-4.3,1.2-6.9,2.4c-2.6,1.2-4.8,2.6-6.5,3.5s-2.7,1.5-2.9,1.3
						c-0.1-0.2,0.7-1.1,2.2-2.3s3.7-2.8,6.4-4.1s5.4-1.9,7.4-2C181.8,91.2,183,91.5,183,91.7z"/>
				</g>
			</g>
		</g>
		<g>
			<path class="st0" d="M172.3,99.8c4.9-4.5,12-6.4,18.5-4.8"/>
			<g>
				<g>
					<path class="st0" d="M190.7,95c-0.1,0.5-4.5-0.4-9.6,1c-5.1,1.3-8.5,4.2-8.9,3.8c-0.2-0.2,0.5-1.1,1.9-2.3s3.7-2.5,6.5-3.2
						s5.4-0.7,7.2-0.4C189.7,94.3,190.8,94.8,190.7,95z"/>
				</g>
			</g>
		</g>
		<g>
			<path class="st0" d="M186.1,152.4c5.8-1.6,12-1.2,17.6,1"/>
			<g>
				<g>
					<path class="st0" d="M203.7,153.4c-0.2,0.5-4-0.8-8.8-1.1s-8.7,0.5-8.8,0c-0.1-0.2,0.8-0.7,2.5-1.2c1.6-0.4,3.9-0.8,6.5-0.6
						s4.8,0.7,6.4,1.4C202.9,152.6,203.8,153.2,203.7,153.4z"/>
				</g>
			</g>
		</g>
		<g>
			<path class="st0" d="M192.8,147.9c3.6-0.2,7.2,0.3,10.6,1.5"/>
			<g>
				<g>
					<path class="st0" d="M203.4,149.4c-0.2,0.5-2.5,0-5.4-0.4c-2.8-0.4-5.2-0.6-5.3-1.1c-0.1-0.5,2.4-1.1,5.5-0.7
						C201.3,147.7,203.6,149,203.4,149.4z"/>
				</g>
			</g>
		</g>
		<g>
			<g>
				<path class="st0" d="M49.4,206c5.6-10,14.6-18.2,31.9-23.2c7.3-2.1,18-5,28.4-4.6"/>
				<g>
					<g>
						<path class="st0" d="M109.7,178.3c0,0.3-3.9,0.2-10.1,1.1c-3.1,0.5-6.7,1.2-10.7,2.2c-4,1.1-8.4,2.2-12.9,3.8s-8.5,3.6-12,5.8
							s-6.2,4.6-8.4,6.9c-2.1,2.3-3.6,4.3-4.7,5.7c-1,1.4-1.6,2.2-1.7,2.2c-0.1-0.1,0.3-1,1.1-2.5c0.8-1.6,2.2-3.7,4.3-6.2
							c2.1-2.4,4.9-5.1,8.4-7.4c3.5-2.4,7.7-4.5,12.2-6.1c4.6-1.6,9-2.8,13.1-3.8s7.8-1.6,11-1.9c3.2-0.3,5.7-0.4,7.5-0.3
							C108.7,178,109.7,178.1,109.7,178.3z"/>
					</g>
				</g>
			</g>
			<g>
				<path class="st0" d="M34.7,270.9c2.6,0.5,5.4,0,7.7-1.3c-5.2,8.3-13.2,14.8-22.4,18.1c0,0.6,3.3,1,3.3,1.6
					c-0.2,9-1.2,18.1-2.2,27.1c-1.1,10-6.4,19-9.4,28.7c-3,9.6-3,21.5,4.6,28.2c4.8,4.2,15.3,7.7,18.8,3.8"/>
				<g>
					<g>
						<path class="st0" d="M35.1,377.1c0,0-0.1,0.1-0.2,0.3c-0.2,0.2-0.4,0.5-0.9,0.7c-0.9,0.6-2.4,1-4.3,1s-4.3-0.5-6.8-1.4
							c-1.3-0.5-2.6-1.1-4-1.9c-1.3-0.8-2.7-1.7-3.9-3c-1.2-1.2-2.4-2.7-3.2-4.4c-0.9-1.7-1.6-3.6-2-5.6c-0.9-4-0.8-8.4-0.1-12.9
							c1.5-9.1,6.6-17.7,9.3-27.5c0.5-1.7,0.9-3.5,1.1-5.3s0.4-3.6,0.6-5.3c0.4-3.5,0.7-7,1-10.3s0.5-6.6,0.6-9.7
							c0-0.7,0.1-1.5,0.1-2.2c0-0.1-0.1-0.1-1.7-0.6c-0.7-0.2-1.2-0.5-1.4-0.8c-0.1-0.2-0.1-0.3-0.2-0.6c0.2-0.1,0.4-0.3,0.6-0.4
							c0.4-0.3,0.8-0.5,1.2-0.8c0.6-0.3,0.8-0.4,1.1-0.5c5.2-2.2,9.5-5.3,12.8-8.3c1.6-1.5,3-3.1,4.2-4.5c0.3-0.4,0.6-0.7,0.9-1.1
							c0.2-0.2,0.3-0.5,0.5-0.7c0.1-0.2,0.3-0.4,0.4-0.6l0.2-0.3c0,0,0.1-0.1,0-0.1h-0.1l-0.1,0.1c-0.3,0.1-0.6,0.2-0.9,0.3
							c-0.2,0.1-0.3,0.1-0.5,0.1c-0.2,0.1-0.5,0.1-0.7,0.1c-0.9,0.2-1.7,0.2-2.4,0.1c-1.3-0.1-1.9-0.3-1.9-0.4s0.7,0,1.9,0
							c0.6,0,1.4-0.1,2.3-0.3c0.2,0,0.4-0.1,0.7-0.2c0.2-0.1,0.6-0.2,1-0.3c0.7-0.3,1.7-0.8,2.7-1.4l0.1,0.1l0,0
							c0,0-0.1,0.1-0.1,0.2c-0.1,0.2-0.3,0.5-0.4,0.7c-0.3,0.5-0.6,1-1,1.5c-0.2,0.3-0.3,0.5-0.5,0.8c-0.2,0.2-0.3,0.4-0.5,0.7
							c-0.3,0.4-0.6,0.7-0.8,1.1c-1.2,1.5-2.6,3.2-4.2,4.8c-3.3,3.2-7.6,6.5-13,8.9c-0.3,0.1-0.6,0.3-0.9,0.4h-0.1c0,0,0,0,0.1,0
							h0.1h0.1l0.6,0.2c0.1,0,0.2,0.1,0.3,0.1c0.2,0.1,0.3,0.2,0.5,0.3c0.3,0.2,0.4,0.5,0.5,0.9c0,0.8,0,1.7-0.1,2.5
							c-0.1,3.2-0.3,6.4-0.6,9.8c-0.3,3.4-0.6,6.8-1,10.3c-0.2,1.8-0.4,3.5-0.6,5.4c-0.2,1.8-0.6,3.7-1.1,5.5
							c-1.4,5.1-3.4,9.7-5.2,14.2c-1.8,4.5-3.5,8.8-4.2,13.1c-0.8,4.3-0.9,8.5-0.1,12.3c0.4,1.9,1,3.7,1.8,5.2
							c0.8,1.6,1.8,3,2.9,4.2s2.4,2.1,3.6,2.9c1.3,0.8,2.5,1.4,3.7,1.9c2.4,1,4.7,1.5,6.5,1.7c1.8,0.1,3.3-0.2,4.1-0.6
							c0.5-0.2,0.7-0.4,0.9-0.6C35,377.1,35.1,377.1,35.1,377.1z"/>
					</g>
				</g>
			</g>
			<g>
				<path class="st0" d="M38.9,260.9c2.5-0.4,5-1.3,7.2-2.6c-2.5,5.2-6.6,9.6-11.5,12.6"/>
				<g>
					<g>
						<path class="st0" d="M34.7,270.9c-0.3-0.4,4.5-3.4,8.3-9c0.3-0.4,0.5-0.7,0.7-1.1l0.3-0.5l0,0c0,0,0.1-0.1,0.1-0.2
							c0,0,0,0-0.1,0h-0.1l0,0l-0.2,0.1l-0.3,0.1c-0.9,0.3-1.7,0.5-2.3,0.6c-1.3,0.2-2.1,0.1-2.2,0c0-0.2,0.7-0.4,1.9-0.9
							c0.6-0.2,1.3-0.5,2.1-0.9c0.2-0.1,0.5-0.2,0.8-0.3c0.4-0.2,0.8-0.4,1.3-0.6c1-0.6,2-1.1,3.1-1.8c-0.1,0.2-0.2,0.5-0.4,0.8
							c-0.2,0.3-0.3,0.6-0.5,1c-0.3,0.7-0.7,1.3-1,2c-0.2,0.3-0.4,0.7-0.6,1.1c-0.1,0.2-0.2,0.4-0.3,0.6c-0.2,0.4-0.5,0.8-0.8,1.1
							c-2,2.9-4.5,5.1-6.4,6.4C36.1,270.6,34.8,271.1,34.7,270.9z"/>
					</g>
				</g>
			</g>
			<g>
				<path class="st0" d="M41.6,251.3c2.2-0.7,4.3-1.9,6.2-3.4c-2.1,4.8-5.1,9.2-8.8,13"/>
				<g>
					<g>
						<path class="st0" d="M38.9,260.9c-0.4-0.4,3.1-4.1,6.1-9.5l0.3-0.5l0.1-0.3c0-0.1,0,0,0,0l0,0c0,0,0,0,0.1-0.1l0.1-0.1
							c0,0-0.1,0-0.3,0c0,0-0.1,0-0.2,0.1l-0.3,0.1c-0.2,0.1-0.4,0.2-0.5,0.2c-0.3,0.1-0.7,0.2-0.9,0.3c-1.2,0.4-1.9,0.4-1.9,0.2
							c-0.1-0.2,0.5-0.5,1.5-1.1c0.2-0.1,0.5-0.3,0.8-0.5s0.6-0.4,1-0.6c0.6-0.4,1.2-0.8,2.1-1.5s1.8-1.5,2.8-2.3
							c-0.1,0.2-0.1,0.4-0.3,0.7c-0.1,0.3-0.3,0.6-0.4,0.9c-0.3,0.6-0.6,1.3-0.8,1.9c-0.3,0.7-0.6,1.4-1,2.1
							c-0.1,0.3-0.3,0.5-0.4,0.8l-0.3,0.6c-1.6,2.8-3.4,5.1-4.9,6.6C40.2,260.3,39.1,261.1,38.9,260.9z"/>
					</g>
				</g>
			</g>
			<g>
				<path class="st0" d="M43.6,239.7c1.5-0.9,3.1-1.6,4.8-2.1c-1.9,4.7-4.2,9.3-6.8,13.7"/>
				<g>
					<g>
						<path class="st0" d="M41.6,251.3c-0.4-0.3,1.6-4.3,4-9.5c0.4-0.8,0.7-1.6,1.1-2.4c0.2-0.5,0.2-0.4,0.2-0.4s0.1-0.1,0.1-0.2
							c0,0,0,0-0.1,0h-0.1h-0.1c0,0,0,0-0.1,0c-0.6,0.2-1.1,0.4-1.6,0.5c-0.9,0.3-1.4,0.4-1.5,0.3s0.3-0.6,1.1-1.1
							c0.4-0.3,0.9-0.6,1.5-0.9c0.1,0,0.2-0.1,0.3-0.1c0.1-0.1,0.3-0.1,0.4-0.2c0.3-0.1,0.6-0.2,0.9-0.3c0.6-0.2,1.3-0.5,2-0.7
							c-0.2,0.6-0.5,1.3-0.8,2c-0.2,0.6-0.5,1.2-0.7,1.8c-0.3,0.8-0.7,1.6-1.1,2.4C44.8,247.8,42,251.6,41.6,251.3z"/>
					</g>
				</g>
			</g>
			<g>
				<path class="st0" d="M59.3,334.3c-4,4.7-6.2,10.3-6.3,16.3c0,0.9,0.6,1.7,1.5,1.8c2.6,0.3,5.7,2.7,7.3,4.5
					c3.3,3.8,3.8,8.5,2.9,13.4c-0.9,4.9-5.8,9.6-13.2,7.6"/>
				<g>
					<g>
						<path class="st0" d="M51.5,377.9c0-0.1,0.2-0.1,0.6,0c0.2,0,0.4,0,0.7,0.1c0.3,0,0.6,0,1,0c0.7,0,1.7,0,2.7-0.2
							s2.1-0.6,3.2-1.3c1.1-0.7,2.1-1.7,2.9-3c0.4-0.6,0.7-1.3,1-2.1c0.3-0.7,0.4-1.6,0.5-2.4c0.2-1.7,0.2-3.6-0.1-5.4
							s-1-3.7-2.2-5.2c-1.1-1.6-2.7-2.8-4.3-3.8c-0.8-0.5-1.6-0.9-2.4-1.1c-0.2-0.1-0.4-0.1-0.6-0.1c-0.1,0-0.3,0-0.4-0.1
							c-0.2,0-0.3-0.1-0.5-0.2c-0.6-0.3-1-0.9-1.2-1.5c-0.1-0.3-0.1-0.6-0.1-0.9V350c0-0.5,0.1-0.9,0.1-1.3c0.1-0.9,0.2-1.7,0.4-2.5
							c0.4-1.6,0.8-3.1,1.4-4.4c1.1-2.6,2.4-4.5,3.4-5.7s1.7-1.7,1.8-1.7c0.1,0.1-0.4,0.8-1.2,2.1c-0.8,1.3-1.9,3.2-2.8,5.7
							c-0.5,1.3-0.8,2.7-1.1,4.2c-0.1,0.8-0.2,1.6-0.3,2.4c0,0.4-0.1,0.8-0.1,1.3v0.6c0,0.2,0,0.3,0.1,0.4c0.1,0.2,0.3,0.5,0.5,0.6
							c0.1,0,0.1,0,0.2,0.1c0.1,0,0.1,0,0.2,0c0.3,0,0.5,0.1,0.8,0.2c1,0.3,2,0.7,2.9,1.2c1.8,1.1,3.5,2.4,4.8,4.3
							c1.3,1.8,2.1,3.9,2.5,6s0.3,4.1,0,5.9c-0.1,0.9-0.3,1.8-0.6,2.7c-0.3,0.9-0.7,1.7-1.2,2.4c-1,1.4-2.2,2.5-3.5,3.2
							s-2.6,1.1-3.7,1.2c-1.1,0.1-2.1,0.1-2.9-0.1c-0.4-0.1-0.7-0.1-1-0.2s-0.5-0.2-0.7-0.2C51.6,378.1,51.5,378,51.5,377.9z"/>
					</g>
				</g>
			</g>
			<g>
				<path class="st0" d="M42.4,355.1c4.9-0.1,10,3.5,11.8,8.8c1.8,5.4,1.4,21.1-19.1,13.8"/>
				<g>
					<g>
						<path class="st0" d="M35.1,377.6c0.1-0.3,2.6,0.6,6.8,1.1c1,0.1,2.2,0.2,3.4,0.1c1.2-0.1,2.4-0.3,3.6-0.8s2.3-1.3,3.1-2.4
							c0.8-1.1,1.4-2.5,1.7-4c0.3-1.5,0.4-3,0.2-4.5c-0.1-1.5-0.4-2.8-1-4c-1.1-2.4-2.8-4.3-4.4-5.4c-1.7-1.2-3.3-1.7-4.4-2
							s-1.8-0.3-1.8-0.5c0-0.1,0.7-0.3,1.9-0.2c1.2,0.1,3,0.5,4.9,1.7c1.9,1.1,3.9,3.1,5.2,5.8c0.7,1.4,1.1,2.9,1.2,4.5
							c0.2,1.6,0.1,3.3-0.2,5c-0.4,1.7-1,3.3-2.1,4.7c-1,1.4-2.4,2.3-3.8,2.9s-2.9,0.8-4.2,0.8c-1.3,0.1-2.5-0.1-3.6-0.3
							C37.4,379.1,35.1,377.8,35.1,377.6z"/>
					</g>
				</g>
			</g>
			<g>
				<path class="st0" d="M29.4,357.9c3.2,0.4,5.3,3.7,6.4,6.7c0.8,2.1,1.4,4.4,1.3,6.7c0,2.3-1.2,12.9-18.7,3.2"/>
				<g>
					<g>
						<path class="st0" d="M18.5,374.6c0.1-0.1,0.6,0.1,1.6,0.4c0.5,0.2,1.1,0.4,1.7,0.7c0.7,0.2,1.4,0.5,2.3,0.8
							c0.8,0.3,1.8,0.5,2.8,0.8c1,0.2,2.1,0.4,3.2,0.4c2.3,0.1,4.6-0.9,5.5-3.2c1-2.3,0.8-4.9,0.2-7.2c-0.6-2.3-1.3-4.3-2.2-5.8
							c-0.9-1.5-2-2.4-2.8-2.9s-1.4-0.6-1.4-0.7s0.6-0.2,1.7,0.1c1,0.3,2.4,1.3,3.6,2.8c1.2,1.6,2.1,3.6,2.8,6
							c0.3,1.2,0.6,2.5,0.6,3.9s-0.2,2.9-0.8,4.3c-0.6,1.4-1.7,2.7-3.1,3.4c-0.2,0.1-0.3,0.2-0.5,0.3l-0.5,0.2
							c-0.4,0.1-0.7,0.2-1,0.3c-0.7,0-1.4,0.2-2,0.1c-1.3,0-2.5-0.4-3.6-0.6c-1-0.4-2-0.7-2.9-1.1c-0.8-0.4-1.6-0.8-2.3-1.1
							c-0.6-0.4-1.2-0.7-1.6-1C18.8,375,18.4,374.7,18.5,374.6z"/>
					</g>
				</g>
			</g>
			<g>
				<path class="st0" d="M46.3,329.7c3.1,1,6.3,2,9.4,3c1.8,0.6,3.6,1.1,5.4,1.5c5.7,1.1,11.8-0.2,16.7-3.3"/>
				<g>
					<g>
						<path class="st0" d="M77.8,330.8c0.1,0.2-1.3,1.5-4.1,2.8c-2.8,1.2-7.1,2.3-11.8,1.6c-2.4-0.3-4.5-1-6.3-1.7
							c-1.9-0.6-3.5-1.2-4.9-1.8c-2.8-1.1-4.5-1.8-4.4-2s1.9,0.1,4.8,0.9c1.4,0.4,3.2,0.9,5,1.4c1.9,0.5,3.9,1.2,6.1,1.5
							c4.3,0.6,8.4-0.1,11.1-1C76,331.5,77.6,330.6,77.8,330.8z"/>
					</g>
				</g>
			</g>
			<g>
				<path class="st0" d="M96.7,321.9c6.1-5.3,10.2-14.2,12.3-21.7c2.1-7.4,4.5-15.5,10.9-19.8"/>
				<g>
					<g>
						<path class="st0" d="M119.9,280.4c0.2,0.3-2.1,1.7-4.4,5.4c-1.1,1.8-2.2,4.1-3.2,6.8c-1,2.7-1.8,5.7-2.8,8.9
							c-2,6.5-4.9,12-7.6,15.5c-2.7,3.5-5.1,5.1-5.2,4.9c-0.2-0.2,1.8-2,4.2-5.6s5.1-9,7-15.3c0.9-3.2,1.8-6.3,2.9-9
							c1.1-2.7,2.4-5.1,3.7-6.9s2.7-3.1,3.7-3.8C119.2,280.6,119.8,280.3,119.9,280.4z"/>
					</g>
				</g>
			</g>
			<g>
				<path class="st0" d="M88.4,328.8c4.1-3.7,6.9-8.9,7.6-14.4c1,1.5,0.8,5.7,0.7,7.5"/>
				<g>
					<g>
						<path class="st0" d="M96.7,321.9c-0.2,0-0.3-0.8-0.4-2.1c-0.1-0.7-0.1-1.5-0.2-2.3c-0.1-0.4-0.1-0.9-0.2-1.4
							c-0.1-0.5-0.3-0.9-0.5-1.2l1.5-0.3c-0.2,1.4-0.5,3-1,4.6c-1.1,3.3-2.9,5.9-4.5,7.5c-1.5,1.6-2.8,2.3-2.9,2.2
							c-0.2-0.2,0.7-1.2,2-3c1.2-1.7,2.7-4.3,3.8-7.3c0.5-1.5,0.8-2.9,1.1-4.2l0.4-2.3l1.1,2c0.4,0.7,0.5,1.3,0.6,1.8
							s0.1,1.1,0.1,1.5c0,1-0.1,1.8-0.1,2.5C97.1,321.1,96.8,321.9,96.7,321.9z"/>
					</g>
				</g>
			</g>
			<g>
				<path class="st0" d="M75.8,336c5.1-2.7,9.4-6.9,12.2-11.9c-0.2,1.6-0.1,3.2,0.4,4.7"/>
				<g>
					<g>
						<path class="st0" d="M88.4,328.8c-0.1,0-0.4-0.3-0.7-1c-0.1-0.2-0.1-0.4-0.2-0.6c0-0.1-0.1-0.2-0.1-0.3
							c-0.1-0.1-0.1-0.2-0.1-0.2c0-0.1-0.1,0.2-0.1,0.3c-0.1,0.1,0,0.1-0.1,0.3l-0.1,0.1c0,0,0,0,0,0.1l-0.1,0.2
							c-0.2,0.2-0.4,0.5-0.5,0.7c-0.4,0.5-0.8,1-1.2,1.5c-2.1,2.4-4.4,4.1-6.1,5.1c-1.8,1-3,1.3-3.1,1.1c-0.2-0.5,4.1-2.9,7.9-7.4
							c0.4-0.5,0.8-0.9,1.2-1.4c0.2-0.2,0.4-0.5,0.5-0.7l0.1-0.2l0.2-0.3c0.1-0.2,0.3-0.4,0.4-0.6c1.1-1.6,2.4-4,2.9-4.6
							c-0.2,1-0.3,2-0.4,3c-0.1,0.9-0.2,1.5-0.2,2s0,0.9,0,1.2c0,0.2,0,0.4,0,0.6C88.5,328.3,88.5,328.8,88.4,328.8z"/>
					</g>
				</g>
			</g>
			<g>
				<path class="st0" d="M79.7,328.1c-1.3,2.6-2.6,5.3-3.9,7.9"/>
				<g>
					<g>
						<path class="st0" d="M75.8,336c-0.4-0.2,0.1-2.2,1.2-4.4s2.3-3.8,2.7-3.6c0.4,0.2-0.1,2.2-1.2,4.4S76.3,336.2,75.8,336z"/>
					</g>
				</g>
			</g>
			<g>
				<path class="st0" d="M121.1,294.2c-3,7.3-1.2,19.3,3.6,25.7"/>
				<g>
					<g>
						<path class="st0" d="M124.6,319.9c-0.2,0.1-1.3-0.9-2.6-3.1c-0.6-1.1-1.2-2.4-1.8-4c-0.5-1.6-1-3.3-1.2-5.2
							c-0.3-1.9-0.3-3.7-0.3-5.3c0.1-1.6,0.3-3.1,0.6-4.3c0.6-2.4,1.5-3.8,1.7-3.7c0.3,0.1-0.2,1.5-0.5,3.9
							c-0.2,1.2-0.2,2.6-0.2,4.1c0,1.6,0.2,3.3,0.4,5.1c0.3,1.8,0.6,3.5,1,5s0.9,2.8,1.3,3.9C124.1,318.4,124.8,319.7,124.6,319.9z"
							/>
					</g>
				</g>
			</g>
			<g>
				<path class="st0" d="M124.4,320.2c9.2-2.3,12.7,5.9,13.1,6.8c2.5,5.3,1.2,15.2-8,15.2"/>
				<g>
					<g>
						<path class="st0" d="M129.5,342.3c0-0.1,0.5-0.3,1.4-0.4c0.4-0.1,1-0.3,1.6-0.5c0.6-0.3,1.2-0.5,1.8-1c1.2-0.9,2.4-2.4,3-4.4
							c0.3-1,0.4-2.1,0.5-3.2c0-1.1-0.1-2.3-0.4-3.5c-0.2-0.6-0.3-1.1-0.5-1.6s-0.5-1.1-0.8-1.6c-0.6-1-1.2-1.9-1.9-2.6
							c-1.4-1.5-3.1-2.4-4.6-2.8c-0.7-0.2-1.5-0.3-2.1-0.4c-0.6,0-1.2-0.1-1.6,0c-0.9,0.1-1.4,0-1.5-0.1s0.5-0.3,1.4-0.6
							c0.5-0.1,1.1-0.2,1.7-0.3c0.7,0,1.5,0,2.4,0.1c1.7,0.3,3.8,1.2,5.5,2.9c1.7,1.7,3.1,3.9,3.8,6.5c0.6,2.7,0.5,5.3-0.3,7.5
							c-0.7,2.3-2.3,4-3.8,4.9c-0.8,0.5-1.6,0.7-2.2,0.9c-0.7,0.1-1.3,0.2-1.8,0.2C130.1,342.5,129.5,342.4,129.5,342.3z"/>
					</g>
				</g>
			</g>
			<g>
				<path class="st0" d="M117.2,323.7c2.6-0.7,5.3,0.8,7.3,2.6c4.1,3.9,5,9.9,4.7,15.5c-0.1,2.4-4.6,10.7-15.1,7.4"/>
				<g>
					<g>
						<path class="st0" d="M114.1,349.3c0-0.1,0.7-0.1,1.7,0.1c0.5,0.1,1.2,0.1,2,0.1s1.6,0,2.5-0.2s1.9-0.5,2.9-1s1.9-1.2,2.7-2.1
							s1.6-2,2-3.2c0.1-0.3,0.2-0.6,0.3-0.9l0.1-0.4v-0.5c0-0.7,0-1.5,0-2.2c-0.1-2.9-0.6-5.7-1.6-8s-2.4-4.1-3.9-5.3
							c-1.5-1.2-2.9-1.7-4-1.9c-1-0.2-1.7,0-1.7-0.2c0-0.1,0.5-0.5,1.7-0.5s2.9,0.4,4.7,1.6c1.7,1.2,3.5,3.1,4.6,5.6
							c1.2,2.5,1.8,5.5,1.9,8.6c0,0.8,0,1.5,0,2.3v0.6c0,0.2-0.1,0.5-0.1,0.7c-0.1,0.4-0.2,0.8-0.4,1.2c-0.6,1.5-1.5,2.7-2.5,3.7
							c-1,1-2.1,1.7-3.3,2.3c-1.2,0.5-2.3,0.8-3.3,0.9s-2,0-2.8,0c-0.8-0.2-1.5-0.3-2-0.5C114.6,349.6,114.1,349.4,114.1,349.3z"/>
					</g>
				</g>
			</g>
			<g>
				<path class="st0" d="M104.4,330.6c4.9,0.8,9.2,4.8,10.2,9.7c0.3,1.6,0.4,3.2,0.2,4.8c-0.2,2.5-0.9,5.2-2.8,6.9
					c-2.5,2.4-6.4,2.5-9.6,1.3c-3.2-1.3-9.5-6.2-11.8-17.2"/>
				<g>
					<g>
						<path class="st0" d="M90.6,336c0.3-0.1,0.9,3.3,3.4,7.9c1.3,2.3,3.2,4.8,5.8,6.9c1.4,1,2.9,1.9,4.6,2.2
							c1.7,0.3,3.7,0.3,5.3-0.5c1.7-0.7,2.8-2.2,3.4-3.9c0.6-1.7,0.8-3.5,0.9-5.2c0-1.7-0.2-3.3-0.7-4.7c-0.5-1.4-1.3-2.6-2.1-3.6
							c-1.6-2-3.5-3.1-4.8-3.7s-2.1-0.8-2.1-0.9s0.9-0.1,2.4,0.3s3.6,1.4,5.5,3.5c0.9,1,1.8,2.3,2.5,3.9c0.6,1.6,1,3.4,1,5.2
							c0,1.8-0.2,3.8-0.9,5.8c-0.4,1-0.9,2-1.6,2.8c-0.7,0.9-1.6,1.6-2.7,2.1c-4.2,1.9-8.9,0.4-11.7-2c-2.9-2.3-4.8-5.1-5.9-7.6
							c-1.2-2.5-1.8-4.6-2.1-6.1C90.5,336.9,90.5,336.1,90.6,336z"/>
					</g>
				</g>
			</g>
			<g>
				<path class="st0" d="M89.4,328.5c0.5,6.7,2.7,13.3,6.2,19"/>
				<g>
					<g>
						<path class="st0" d="M95.7,347.5c-0.4,0.3-3.3-3.4-5.1-8.9c-1.8-5.4-1.6-10.1-1.1-10.1s1.1,4.4,2.8,9.6
							C93.9,343.3,96.1,347.2,95.7,347.5z"/>
					</g>
				</g>
			</g>
			<g>
				<path class="st0" d="M153.2,276.1c0.7,13.4,0,26.3-1.9,40.2"/>
				<g>
					<g>
						<path class="st0" d="M151.4,316.2c-0.5-0.1,0.5-9,1-20.1c0.6-11.1,0.4-20.1,0.9-20.1s1.4,9,0.9,20.2
							C153.6,307.4,151.8,316.3,151.4,316.2z"/>
					</g>
				</g>
			</g>
			<g>
				<path class="st0" d="M151.2,317.2c1.9-1.8,3.6-5.2,3.4-8.7"/>
				<g>
					<g>
						<path class="st0" d="M154.6,308.4c0.2,0,0.5,0.5,0.6,1.5c0.1,0.9,0,2.3-0.5,3.6c-0.5,1.3-1.3,2.4-2,3s-1.3,0.8-1.4,0.7
							c-0.3-0.4,0.9-2,1.8-4.3C153.9,310.5,154.1,308.5,154.6,308.4z"/>
					</g>
				</g>
			</g>
			<g>
				<path class="st0" d="M154.9,311.2c0.6,7.4-0.1,15-2.1,22.2c2.9-0.1,5.6-2,6.6-4.7"/>
				<g>
					<g>
						<path class="st0" d="M159.4,328.7c0.1,0,0.1,0.5-0.2,1.3s-1,1.8-2.2,2.7c-0.6,0.5-1.3,0.9-2.2,1.2c-0.1,0-0.2,0.1-0.3,0.1
							c-0.2,0-0.4,0.1-0.6,0.1c-0.4,0-0.8,0.1-1.2,0.1c-1.2,0.4-0.5-0.8-0.5-1.5c0.1-0.6,0.3-1.2,0.4-1.8c0.1-0.5,0.2-0.9,0.3-1.4
							c0.2-1,0.4-2,0.6-3c1.4-8.3,1-15.2,1.5-15.3c0.2,0,0.6,1.7,0.8,4.5s0.1,6.8-0.6,11.1c-0.2,1.1-0.4,2.1-0.6,3.1
							c-0.1,0.5-0.2,1-0.4,1.5c-0.1,0.2-0.1,0.5-0.2,0.7v0.2c0,0.1,0,0,0,0.1l0,0c0,0.1-0.1,0.2,0,0.2c0,0,0,0,0.1,0l0,0
							c0.1,0,0.2,0,0.3-0.1c0.7-0.2,1.4-0.5,1.9-0.8c1.1-0.7,1.9-1.5,2.3-2C159,329,159.2,328.7,159.4,328.7z"/>
					</g>
				</g>
			</g>
			<g>
				<path class="st0" d="M159.6,329.7c0.2,9.7,1.2,19.5,5.1,28.4s11,16.7,20.3,19.6"/>
				<g>
					<g>
						<path class="st0" d="M185,377.7c0,0.1-0.8,0-2.3-0.5c-1.4-0.4-3.4-1.3-5.7-2.8c-2.3-1.4-4.7-3.5-7-6.2s-4.4-6-6.1-9.8
							c-3.3-7.5-4.2-14.9-4.5-20.2c-0.3-5.3,0-8.5,0.2-8.5c0.3,0,0.5,3.2,1.1,8.4c0.6,5.2,1.7,12.4,4.9,19.6
							c1.6,3.6,3.6,6.8,5.7,9.4c2.1,2.6,4.4,4.7,6.5,6.2C181.9,376.5,185.1,377.4,185,377.7z"/>
					</g>
				</g>
			</g>
			<g>
				<path class="st0" d="M192.6,349.5c4.3,0.5,9.5,2.2,12,9c2.4,6.7,0.7,12.4-2.9,16.2"/>
				<g>
					<g>
						<path class="st0" d="M201.7,374.7c-0.2-0.2,1.1-1.6,2.2-4.3c0.5-1.3,1-3,1.1-4.9s-0.2-4-0.9-6.1c-0.3-1.1-0.8-2-1.2-2.9
							c-0.5-0.9-1.1-1.7-1.7-2.4c-1.3-1.4-2.7-2.3-4-2.9c-2.6-1.2-4.5-1.4-4.5-1.7c0-0.1,0.5-0.2,1.4-0.1c0.9,0,2.1,0.2,3.6,0.7
							s3.2,1.4,4.7,3c0.8,0.8,1.4,1.7,2,2.7c0.5,1,1.1,2.1,1.4,3.2c0.8,2.3,1,4.6,0.8,6.7s-0.8,3.9-1.5,5.3s-1.6,2.4-2.2,3
							C202.2,374.5,201.8,374.8,201.7,374.7z"/>
					</g>
				</g>
			</g>
			<g>
				<path class="st0" d="M209.1,344c13.8-2.9,21.6,22,9.6,26.3"/>
				<g>
					<g>
						<path class="st0" d="M218.7,370.3c0-0.1,0.4-0.4,1.2-0.9c0.8-0.5,1.8-1.4,2.6-2.8c0.8-1.4,1.3-3.3,1.4-5.4s-0.3-4.6-1.2-6.9
							c-1.7-4.7-5.1-8.2-8.2-9.3c-3.1-1.2-5.3-0.6-5.3-0.9c0-0.1,0.5-0.3,1.5-0.5s2.5-0.2,4.2,0.3c1.8,0.5,3.7,1.6,5.4,3.3
							c0.8,0.8,1.6,1.8,2.3,2.9c0.7,1.1,1.3,2.3,1.8,3.6c0.5,1.3,0.8,2.6,1,3.9s0.3,2.5,0.2,3.7c-0.1,2.4-0.9,4.5-1.9,6
							c-1.1,1.5-2.3,2.4-3.3,2.7C219.3,370.3,218.7,370.4,218.7,370.3z"/>
					</g>
				</g>
			</g>
			<g>
				<path class="st0" d="M214.3,331.9c-3-3.7-4.7-8.5-4.6-13.3c1.2,1.8,3.2,3.1,5.4,3.4c-5.8-12.9-16.1-32.2-7.4-49.6"/>
				<g>
					<g>
						<path class="st0" d="M207.6,272.4c0.3,0.1-1.7,3.8-2.4,10.3c-0.3,3.2-0.2,7.1,0.5,11.3c0.7,4.2,2.1,8.8,3.9,13.4
							c1.5,3.8,3,7.3,4.5,10.6c0.5,1,0.9,2,1.3,3l0.3,0.6l0.2,0.5l0.2,0.5l0.1,0.2v0.1v0.1c-0.8-0.1-1.4-0.3-2.1-0.4
							c-0.4-0.1-0.7-0.2-1.1-0.4c-0.2-0.1-0.3-0.1-0.4-0.2c-0.1,0-0.2-0.1-0.3-0.2c-0.4-0.2-0.8-0.5-1.1-0.7l-0.3-0.2l-0.2-0.1
							l-0.1-0.1c0-0.1-0.1-0.1-0.1-0.2l-0.1-0.1v0.1v0.2v0.2v0.1c0,0.1,0,0.2,0,0.3c0.1,1,0.3,1.9,0.5,2.8c0.4,1.7,1,3.2,1.5,4.3
							c1.1,2.3,2,3.5,1.8,3.6c-0.1,0.1-1.2-0.9-2.5-3.2c-0.7-1.1-1.4-2.6-1.9-4.4c-0.3-0.9-0.5-1.9-0.7-2.9c0-0.1,0-0.2-0.1-0.4
							c0-0.2-0.1-0.5-0.1-0.7c0-0.5,0-0.9-0.1-1.3c0-0.5,0-0.9,0-1.4V317v-0.5c2.5,3.9,4.1,4.1,4.5,4.3h0.1c0,0,0-0.1-0.1-0.1
							c0,0,0,0,0-0.1L213,320c-0.2-0.4-0.4-0.8-0.6-1.2c-1.5-3.3-3.2-6.9-4.7-10.7c-1.8-4.7-3.2-9.4-3.9-13.8
							c-0.7-4.4-0.7-8.4-0.2-11.8c0.6-3.3,1.4-5.9,2.2-7.6C207,273.2,207.5,272.3,207.6,272.4z"/>
					</g>
				</g>
			</g>
			<g>
				<path class="st0" d="M231.3,284c5.5-1.6,11.2-2.4,17-2.4c2.3,0,4.7,0.1,6.9,1.1c3.4,1.5,5.7,5.1,6.2,8.8
					c0.4,3.7-0.8,7.5-2.8,10.7c-0.8,1.2-1.7,2.3-2.4,3.6c-2.6,5.2,0.5,12.1,5.8,14.4s11.9,0.5,15.8-3.7c4-4.2,5.6-10.3,5.2-16"/>
				<g>
					<g>
						<path class="st0" d="M282.9,300.4c0.1,0,0.4,1.4,0.3,4.1c-0.2,2.6-0.8,6.6-3.5,10.6c-1.4,2-3.3,3.9-5.9,5.2
							c-2.5,1.3-5.7,2.1-8.9,1.6c-1.6-0.2-3.3-0.8-4.7-1.7c-1.5-0.9-2.8-2.2-3.7-3.7c-1-1.5-1.7-3.2-1.9-5.1
							c-0.3-1.8-0.1-3.8,0.7-5.6c0.8-1.8,2-3.1,2.9-4.5s1.6-2.9,2-4.4s0.6-3.1,0.5-4.6s-0.5-2.9-1.1-4.2c-1.2-2.6-3.4-4.5-5.9-5.2
							s-5.1-0.6-7.3-0.6c-4.6,0.1-8.3,0.7-10.9,1.1s-4,0.8-4,0.6c0-0.1,1.3-0.6,3.9-1.3c2.5-0.6,6.3-1.4,11-1.7
							c2.3-0.1,4.9-0.3,7.8,0.4c1.4,0.4,2.8,1.1,4,2.1s2.2,2.3,2.9,3.8c0.7,1.5,1.2,3.1,1.3,4.8c0.1,1.7-0.1,3.5-0.6,5.2
							s-1.2,3.3-2.2,4.9c-1,1.5-2.1,2.8-2.8,4.3c-1.3,2.9-0.6,6.5,1,9.1c0.8,1.3,1.9,2.4,3.2,3.2c1.2,0.8,2.7,1.3,4.1,1.5
							c2.9,0.4,5.7-0.2,8-1.3c2.4-1.1,4.2-2.8,5.6-4.6c2.7-3.6,3.5-7.4,3.8-9.9C282.8,301.8,282.7,300.4,282.9,300.4z"/>
					</g>
				</g>
			</g>
			<g>
				<path class="st0" d="M272.5,320c1.8,3.8,12.9,5.7,19.1-0.6c2.9-3,6.2-10.8,5.5-15.7"/>
				<g>
					<g>
						<path class="st0" d="M297.1,303.7c0.2-0.1,0.8,2.2,0.1,5.7c-0.4,1.7-1,3.8-2,5.9c-0.5,1.1-1.1,2.2-1.8,3.2
							c-0.4,0.5-0.8,1.1-1.3,1.6c-0.5,0.4-1,1-1.6,1.4c-2.3,1.7-4.9,2.5-7.3,2.7s-4.6-0.1-6.3-0.6c-1.7-0.5-3-1.4-3.7-2.1
							c-0.2-0.2-0.3-0.4-0.4-0.5c-0.1-0.2-0.2-0.3-0.2-0.5c-0.1-0.3-0.1-0.4-0.1-0.4c0.1,0,0.2,0.1,0.4,0.2c0.1,0.1,0.2,0.2,0.3,0.3
							c0.1,0.1,0.3,0.2,0.5,0.4c0.7,0.5,2,1.1,3.6,1.5s3.6,0.5,5.8,0.2c2.2-0.3,4.5-1.1,6.5-2.5c0.5-0.3,0.9-0.8,1.4-1.2
							c0.4-0.4,0.8-0.9,1.1-1.3c0.7-1,1.3-2,1.8-3c1-2,1.7-3.9,2.2-5.5C297,305.8,296.8,303.7,297.1,303.7z"/>
					</g>
				</g>
			</g>
			<g>
				<path class="st0" d="M286.9,323c4.2,2,9.1-0.4,12.5-3.4c9.6-8.6,15-28,10.6-41.3"/>
				<g>
					<g>
						<path class="st0" d="M310,278.3c0.1,0,0.4,0.7,0.9,2.1c0.3,0.7,0.4,1.6,0.7,2.6c0.2,1,0.4,2.2,0.5,3.6
							c0.4,5.3-0.3,12.9-3.4,20.5c-1.6,3.8-3.6,7.2-5.9,10c-0.6,0.7-1.1,1.4-1.8,1.9c-0.6,0.6-1.2,1.2-1.8,1.7
							c-1.3,1-2.6,1.8-3.8,2.3c-2.5,1.2-4.9,1.3-6.4,1s-2.2-0.9-2.1-1s0.8,0.2,2.2,0.3c1.4,0.1,3.5-0.2,5.7-1.4
							c4.6-2.3,9.2-8.1,12.2-15.4s3.9-14.6,3.8-19.8C310.8,281.5,309.7,278.4,310,278.3z"/>
					</g>
				</g>
			</g>
			<g>
				<path class="st0" d="M270.7,237.1c6.7,1.2,13.1,4.3,18.3,8.9c-1.5-1.2-3.6-1.5-5.4-0.9c4.9,1.9,9.4,4.9,13.2,8.6
					c-1.6-0.2-3.3-0.3-4.9-0.5c10.5,6.8,17.8,18.3,19.3,30.7"/>
				<g>
					<g>
						<path class="st0" d="M311.1,283.9c-0.1,0-0.4-1.1-0.9-3.2s-1.4-5-3-8.4c-0.8-1.7-1.8-3.5-3-5.4c-1.2-1.8-2.6-3.7-4.3-5.6
							c-1.7-1.8-3.6-3.6-5.7-5.3l-0.5-0.4c-0.3-0.2-0.5-0.4-0.8-0.6c-0.6-0.4-1.1-0.8-1.7-1.2c-0.6-0.4-1.1-0.8-1.7-1.2l-0.9-0.6
							h-0.1c0,0,0,0,0.1,0h0.1h0.3l0.5,0.1c1.6,0.2,3.3,0.3,4.9,0.5l0.5,0.1h0.1h-0.4l-0.5-0.1l0,0l0,0l0,0l-0.3-0.3l-0.8-0.6
							c-1-0.8-2.1-1.6-3.2-2.3c-2.2-1.4-4.4-2.6-6.7-3.5l-2-0.8l2-0.7c2.2-0.8,4.5-0.3,6.2,1.1l-1,1.1c-4.5-4.1-9.1-6.3-12.4-7.6
							c-3.3-1.3-5.4-1.7-5.3-1.8c0-0.1,2.1,0,5.6,1s8.4,3.2,13.1,7.3l-1,1.1c-1.2-1-3.1-1.3-4.7-0.7v-1.5c2.3,0.9,4.7,2.1,7,3.6
							c1.1,0.7,2.3,1.5,3.4,2.4l0.8,0.7l0.5,0.4c0.3,0.2,0.5,0.5,0.8,0.7l1.4,1.4l0.7,0.7l0.4,0.4l0.2,0.2l0,0c0,0,0,0-0.1,0h-0.1
							c-0.7-0.1-1.4-0.1-2-0.2c-0.8-0.1-1.7-0.2-2.5-0.2c-0.8-0.1,0.5,0.1,0.7,0.1l0,0l0,0l0,0l0,0l0.3,0.3c2.2,1.7,4.2,3.6,5.8,5.6
							c1.7,2,3.1,3.9,4.3,5.9c1.2,2,2.1,3.9,2.9,5.6c1.5,3.6,2.2,6.6,2.6,8.8C311.3,282.7,311.2,283.9,311.1,283.9z"/>
					</g>
				</g>
			</g>
			<g>
				<path class="st0" d="M114.1,294.1c0.5-2.8,2-5.3,3.8-7.6c4.1-5.3,9.6-9.4,15.8-12.1"/>
				<g>
					<g>
						<path class="st0" d="M133.7,274.5c0.2,0.5-5.7,3.1-11.3,8.4c-2.8,2.7-5,5.4-6.3,7.5s-1.6,3.7-1.9,3.7c-0.2,0-0.3-1.8,0.8-4.2
							c1.1-2.5,3.3-5.4,6.2-8.2c2.9-2.8,6.1-4.7,8.4-5.9C132,274.6,133.6,274.3,133.7,274.5z"/>
					</g>
				</g>
			</g>
			<g>
				<path class="st0" d="M126.7,285c4.4-4,10-6.6,15.9-7.2c-1.4,1.3-3.5,7.3-0.9,10.2"/>
				<g>
					<g>
						<path class="st0" d="M141.8,288c-0.1,0.1-0.3-0.1-0.7-0.5s-0.8-1.2-1-2.2s-0.3-2.2,0-3.6c0.1-0.7,0.3-1.4,0.6-2.1
							c0.1-0.3,0.4-0.9,0.3-0.8l0,0l0,0c0,0,0,0-0.1,0c-0.4,0.1-0.8,0.2-1.3,0.3c-3.8,0.9-7,2.4-9.1,3.7c-2.2,1.3-3.5,2.3-3.7,2.1
							c-0.2-0.2,0.8-1.5,3-3.1c2.1-1.6,5.4-3.4,9.4-4.4c0.8-0.2,3.9-0.6,5.7-0.8c-0.4,0.4-0.8,0.9-1.2,1.3c-0.3,0.4-0.7,0.7-0.9,1.1
							c-0.5,0.8-0.5,0.9-0.6,1.2c-0.3,0.6-0.5,1.2-0.6,1.8c-0.3,1.2-0.4,2.2-0.3,3.1c0.1,0.9,0.3,1.5,0.4,2
							C141.8,287.6,141.9,287.9,141.8,288z"/>
					</g>
				</g>
			</g>
			<g>
				<path class="st0" d="M133.4,274.6c-3.1,2.3-6,6.6-6.7,10.4"/>
				<g>
					<g>
						<path class="st0" d="M126.7,285c-0.2,0-0.3-0.8-0.1-2s0.8-2.7,1.8-4.3c1-1.5,2.2-2.7,3.1-3.4c1-0.7,1.7-0.9,1.8-0.7
							c0.3,0.4-1.7,2.3-3.5,5.1C128.1,282.5,127.2,285,126.7,285z"/>
					</g>
				</g>
			</g>
			<g>
				<path class="st0" d="M152.5,261.5c0.2,6.2-0.8,12.4-3,18.1"/>
				<g>
					<g>
						<path class="st0" d="M149.5,279.6c-0.5-0.2,0.7-4.1,1.6-9.1c0.8-4.9,1-9,1.5-9.1c0.5,0,1.1,4.2,0.3,9.4
							C151.9,276,149.9,279.8,149.5,279.6z"/>
					</g>
				</g>
			</g>
			<g>
				<path class="st0" d="M149.5,279.7c1-1.1,2.9-3.1,3.9-4.2"/>
				<g>
					<g>
						<path class="st0" d="M153.4,275.5c0.4,0.3-0.2,1.5-1.3,2.7c-1.1,1.1-2.2,1.8-2.6,1.5c-0.4-0.3,0.2-1.5,1.3-2.7
							C151.8,275.9,153,275.2,153.4,275.5z"/>
					</g>
				</g>
			</g>
			<g>
				<path class="st0" d="M174.3,371.7c17.7,15.7,35.4,2.2,31-11"/>
				<g>
					<g>
						<path class="st0" d="M205.3,360.7c0.1,0,0.4,0.5,0.8,1.7c0.3,1.1,0.6,2.9,0.3,5c-0.3,2.1-1.3,4.6-3.2,6.8
							c-1.9,2.2-4.6,4-7.8,4.8c-3.2,0.9-6.4,0.7-9.1,0c-2.7-0.7-5-1.8-6.8-2.9c-3.5-2.3-5.2-4.3-5.1-4.4c0.2-0.2,2.1,1.5,5.7,3.4
							c1.8,0.9,4,1.9,6.5,2.4s5.5,0.6,8.3-0.2c2.9-0.8,5.3-2.3,7.1-4.2c1.8-1.9,2.8-4.1,3.2-5.9c0.5-1.9,0.4-3.5,0.3-4.6
							C205.3,361.4,205.2,360.8,205.3,360.7z"/>
					</g>
				</g>
			</g>
			<g>
				<path class="st0" d="M204.6,370.7c1.3,0.8,2.9,1,4.4,1c3.3,0.1,6.7-0.2,9.6-1.5c2.9-1.4,5.3-4,5.7-7"/>
				<g>
					<g>
						<path class="st0" d="M224.3,363.2c0.2,0,0.4,1.5-0.7,3.6c-0.6,1-1.5,2.1-2.7,3s-2.7,1.7-4.4,2.1c-3.4,0.9-6.4,0.7-8.6,0.4
							c-1.1-0.2-2-0.5-2.5-0.8c-0.6-0.3-0.8-0.6-0.7-0.7c0.1-0.2,1.3,0.3,3.4,0.3s5,0,8-0.8s5.3-2.5,6.5-4.1
							C223.8,364.5,224,363.2,224.3,363.2z"/>
					</g>
				</g>
			</g>
			<g>
				<path class="st0" d="M225,363.1c1.2,0.8,2.9,0.6,4.4,0.2c2-0.6,4.1-1.6,5.3-3.4c3.4-5-1-22.5-14.2-21.1"/>
				<g>
					<g>
						<path class="st0" d="M220.5,338.9c0-0.1,0.5-0.3,1.6-0.4s2.7-0.1,4.5,0.6c1.9,0.6,3.9,1.9,5.6,3.9s3,4.5,3.8,7.4
							c0.7,2.9,0.9,5.8,0.1,8.4c-0.2,0.6-0.5,1.3-0.9,1.8s-0.9,1-1.3,1.3c-1,0.7-2,1.2-2.9,1.5c-1.8,0.6-3.4,0.9-4.5,0.6
							s-1.5-0.8-1.5-0.9c0.1-0.1,0.6,0.2,1.5,0.2c1,0,2.3-0.3,4-1.1c1.6-0.7,3.5-1.9,4-4c0.6-2.1,0.4-4.8-0.3-7.4
							c-0.7-2.6-1.9-5-3.3-6.8s-3.2-3.1-4.8-3.8c-1.6-0.7-3.1-0.9-4.1-1C221.1,339,220.5,339,220.5,338.9z"/>
					</g>
				</g>
			</g>
			<g>
				<path class="st0" d="M207.6,326.3c1.6,2.8,4.4,4.9,7.5,5.7"/>
				<g>
					<g>
						<path class="st0" d="M215.1,332c-0.1,0.2-0.7,0.3-1.6,0.1c-0.9-0.2-2.1-0.7-3.3-1.5c-1.1-0.9-2-1.9-2.4-2.7
							c-0.4-0.8-0.5-1.4-0.3-1.5c0.4-0.2,1.7,1.4,3.7,2.9C213.3,330.7,215.3,331.5,215.1,332z"/>
					</g>
				</g>
			</g>
			<g>
				<path class="st0" d="M207.6,326.2c0.3,2.4,2,5.6,3.7,7.3c1.7,1.7,3.7,2.9,5.8,4.1c1,0.6,2,1.1,3,1.3"/>
				<g>
					<g>
						<path class="st0" d="M220.1,338.9c0,0.1-0.3,0.2-0.8,0.2s-1.2-0.2-2-0.6c-1.5-0.7-3.7-1.8-5.8-3.6c-0.5-0.4-1-0.9-1.4-1.4
							s-0.8-1-1.1-1.5c-0.6-1-1-2-1.2-2.8c-0.5-1.7-0.4-2.8-0.2-2.9c0.3,0,0.6,1,1.3,2.4c0.8,1.4,1.9,3.4,3.7,5
							c1.9,1.6,3.9,2.8,5.2,3.8C219.2,338.3,220.1,338.7,220.1,338.9z"/>
					</g>
				</g>
			</g>
			<g>
				<path class="st0" d="M211.2,190.3c65.7,12.7,104.5,58.3,115,68.9"/>
				<g>
					<g>
						<path class="st0" d="M326.3,259.1c-0.1,0.1-1.5-1.2-4-3.6s-6-5.9-10.5-10.2c-4.5-4.2-10-9-16.3-14.2
							c-6.4-5-13.7-10.3-21.6-15.2c-2-1.2-4-2.4-6-3.5c-1-0.6-2-1.1-2.9-1.7c-1-0.6-2-1-3-1.6c-2-1-3.9-2-5.8-3
							c-0.9-0.5-1.9-0.9-2.8-1.4c-0.9-0.4-1.9-0.8-2.8-1.3c-1.9-0.8-3.7-1.6-5.4-2.4c-1.8-0.7-3.5-1.4-5.2-2s-3.3-1.3-4.9-1.9
							c-1.6-0.6-3.1-1-4.6-1.5c-2.9-0.9-5.6-1.8-7.9-2.5c-2.4-0.6-4.4-1.1-6.1-1.5c-3.3-0.9-5.2-1.4-5.2-1.5s1.9,0.2,5.3,0.9
							c1.7,0.3,3.8,0.8,6.2,1.3c2.4,0.6,5.1,1.4,8,2.2c1.5,0.4,3.1,0.8,4.7,1.4c1.6,0.6,3.2,1.2,5,1.8c1.7,0.6,3.5,1.3,5.3,1.9
							c1.8,0.8,3.6,1.6,5.5,2.4c0.9,0.4,1.9,0.8,2.9,1.2s1.9,0.8,2.9,1.3c1.9,1,3.9,2,5.9,3c1,0.5,2,1,3,1.6s2,1.1,3,1.7
							c2,1.2,4,2.3,6,3.5c8,5,15.3,10.3,21.7,15.5c6.3,5.2,11.8,10.2,16.2,14.5c4.4,4.4,7.8,8,10.1,10.6
							C325.1,257.6,326.3,259.1,326.3,259.1z"/>
					</g>
				</g>
			</g>
			<g>
				<path class="st0" d="M208.9,193.2c22,13.8,47.9,33.2,63.4,60.6"/>
				<g>
					<g>
						<path class="st0" d="M272.4,253.8c-0.1,0.1-0.8-0.9-2.1-2.8c-0.6-0.9-1.3-2.1-2.3-3.4c-0.9-1.3-1.9-2.8-3.1-4.4
							c-4.8-6.4-12-14.8-21-22.9c-9-8.2-17.9-14.8-24.4-19.4c-6.5-4.6-10.6-7.4-10.5-7.6c0.1-0.1,1.2,0.5,3.1,1.6
							c1,0.6,2.2,1.3,3.5,2.1c1.4,0.8,2.9,1.8,4.6,2.9c6.7,4.4,15.8,10.9,24.9,19.2c9.1,8.2,16.3,16.9,20.8,23.5
							c1.2,1.6,2.1,3.2,3,4.6c0.9,1.3,1.5,2.6,2.1,3.5C271.9,252.6,272.5,253.8,272.4,253.8z"/>
					</g>
				</g>
			</g>
			<g>
				<path class="st0" d="M237.1,251c0.9,3.9,1.7,7.9,1.6,11.9s-1.2,8.2-3.9,11.2"/>
				<g>
					<g>
						<path class="st0" d="M234.8,274.1c-0.2-0.2,0.6-1.3,1.4-3.2c0.8-1.9,1.5-4.8,1.6-8s-0.4-6.2-0.6-8.3c-0.3-2.2-0.4-3.5-0.1-3.6
							c0.2,0,0.8,1.2,1.3,3.3c0.6,2.1,1.2,5.2,1.2,8.6c-0.1,3.5-1.1,6.6-2.3,8.5C236.2,273.4,235,274.2,234.8,274.1z"/>
					</g>
				</g>
			</g>
			<g>
				<path class="st0" d="M233.8,264.1c2.9,9.3-0.6,20.3-8.4,26.2"/>
				<g>
					<g>
						<path class="st0" d="M225.4,290.3c-0.2-0.2,1.1-1.3,2.7-3.3c0.4-0.5,0.8-1.1,1.2-1.7c0.4-0.6,0.8-1.3,1.3-2
							c0.8-1.5,1.6-3.2,2.2-5c0.6-1.9,0.9-3.7,1.1-5.4c0.1-0.8,0.2-1.6,0.2-2.4s0-1.5,0-2.1c-0.1-2.6-0.5-4.2-0.2-4.2
							c0.2-0.1,1,1.4,1.5,4.1c0.2,1.3,0.3,3,0.2,4.8c-0.1,1.8-0.5,3.8-1.1,5.8s-1.5,3.8-2.5,5.3s-2,2.8-3,3.7
							C227.1,289.7,225.5,290.5,225.4,290.3z"/>
					</g>
				</g>
			</g>
			<g>
				<path class="st0" d="M207.1,296c-0.5-2.1,0.4-4.3,1.7-6c1.3-1.7,3.1-3,4.8-4.2c1-0.7,2-1.4,3-2.1"/>
				<g>
					<g>
						<path class="st0" d="M216.5,283.6c0.1,0.2-0.5,0.9-1.6,1.9s-2.8,2.2-4.3,3.7c-1.6,1.5-2.5,3.1-2.9,4.4s-0.3,2.2-0.6,2.3
							c-0.2,0.1-0.8-0.9-0.6-2.5c0.1-0.8,0.3-1.8,0.8-2.7c0.5-1,1.2-1.9,2.1-2.7c1.7-1.7,3.6-2.7,4.8-3.5
							C215.5,283.8,216.4,283.4,216.5,283.6z"/>
					</g>
				</g>
			</g>
			<g>
				<path class="st0" d="M208.9,291.3c3.5-3.3,9.3-2.1,13.4-4.4c2.5-1.4,4.3-4,4.6-6.9"/>
				<g>
					<g>
						<path class="st0" d="M226.9,280.1c0.2,0,0.4,1.4-0.4,3.5c-0.4,1-1.2,2.2-2.3,3.1c-1.1,1-2.7,1.7-4.3,2.1
							c-1.6,0.4-3.1,0.6-4.5,0.8c-1.3,0.2-2.5,0.4-3.5,0.6c-1.9,0.5-2.9,1.3-3.1,1.1c-0.1-0.1,0.1-0.4,0.5-0.8s1.2-1,2.2-1.4
							s2.3-0.8,3.6-1.1c1.4-0.3,2.8-0.5,4.3-0.9s2.7-0.9,3.7-1.7c1-0.8,1.7-1.7,2.2-2.5C226.4,281.3,226.6,280,226.9,280.1z"/>
					</g>
				</g>
			</g>
			<g>
				<path class="st0" d="M227.1,280.9c0.2,1.4-0.6,7.8-3.2,10.1"/>
				<g>
					<g>
						<path class="st0" d="M224,291c-0.2-0.2,0.1-0.7,0.5-1.6c0.3-0.8,0.8-2,1.1-3.4c0.8-2.8,1.1-5.1,1.6-5.1c0.5-0.1,1,2.6,0.1,5.6
							c-0.4,1.5-1.1,2.8-1.8,3.6C224.8,290.9,224.1,291.2,224,291z"/>
					</g>
				</g>
			</g>
			<g>
				<path class="st0" d="M239.6,263.1c2.2-3.9,3.9-8.1,4.4-12.5s-0.2-9.1-2.5-12.9"/>
				<g>
					<g>
						<path class="st0" d="M241.5,237.7c0.2-0.1,1.3,1,2.2,3.4c1,2.3,1.6,5.8,1.2,9.6c-0.4,3.8-1.8,7-2.9,9.2
							c-1.2,2.2-2.2,3.3-2.4,3.2c-0.2-0.1,0.4-1.5,1.2-3.7c0.8-2.2,1.9-5.3,2.3-8.9c0.4-3.5,0-6.8-0.6-9
							C242,239.2,241.3,237.8,241.5,237.7z"/>
					</g>
				</g>
			</g>
			<g>
				<path class="st0" d="M157.8,247.4c-1.5,3.6-3.1,7.3-4.6,10.9c-0.9,2.1-1.8,4.2-3.2,6s-3.3,3.3-5.6,3.6"/>
				<g>
					<g>
						<path class="st0" d="M144.5,267.9c0-0.3,1.4-0.5,3-1.9c0.8-0.7,1.7-1.6,2.4-2.9c0.8-1.2,1.4-2.7,2.1-4.3
							c2.7-6.5,5.3-11.6,5.7-11.4s-1.4,5.6-4.1,12c-0.7,1.6-1.5,3.2-2.4,4.5s-2,2.3-3.1,3c-1,0.7-2,0.9-2.7,1
							C144.9,268.1,144.5,268,144.5,267.9z"/>
					</g>
				</g>
			</g>
			<g>
				<path class="st0" d="M196.7,235.7c-3.1,6.9-3.8,14.8-2,22.2c0.3-2.2,1.5-4.2,3.2-5.5c0.4,5.3,1.3,10.7,2.7,15.8
					c0.4-1.4,1.3-2.6,2.5-3.5c1,6.6,1,9.6,1,19.7"/>
				<g>
					<g>
						<path class="st0" d="M204.1,284.4c-0.2,0-0.4-2.5-0.5-6.7c-0.1-2.1-0.2-4.6-0.5-7.4c-0.1-0.7-0.2-1.4-0.3-2.2
							c-0.1-0.4-0.1-0.7-0.2-1.1l-0.1-0.6v-0.1v-0.1l-0.1,0.1l0,0l0,0l-0.1,0.1l-0.1,0.1c-0.1,0.1-0.1,0.2-0.2,0.3
							c-0.1,0.2-0.2,0.4-0.3,0.6c-0.4,0.8-0.8,2.3-1.2,3.6l-0.3-1c-0.1-0.4-0.2-0.8-0.3-1.2c-0.2-0.8-0.4-1.7-0.7-2.5
							c-0.1-0.5-0.2-1-0.4-1.5c-0.1-0.5-0.2-0.9-0.3-1.4c-0.4-1.8-0.7-3.7-1-5.7c-0.1-1-0.2-1.9-0.3-2.8l-0.1-0.8c0-0.1,0,0,0-0.1
							l0,0l0,0c0,0-0.1,0.1-0.2,0.2c-0.1,0.2-0.2,0.3-0.4,0.5l-0.2,0.3c-0.1,0.1-0.1,0.1-0.2,0.3c-0.2,0.4-0.4,0.8-0.5,1.3
							c-0.3,0.8-0.5,3.2-0.9,5.6c-0.1-0.6-0.3-1.3-0.4-1.9c-0.2-0.8-0.3-1.5-0.5-2.3c-0.1-0.7-0.3-1.5-0.4-2.2
							c-0.1-0.4-0.1-0.7-0.2-1.1l-0.1-0.7c-0.2-1.6-0.2-3.2-0.2-4.7c0.1-2.9,0.5-5.5,1.1-7.6c1.1-4.2,2.5-6.3,2.6-6.3
							c0.2,0.1-0.8,2.4-1.6,6.5c-0.4,2-0.7,4.5-0.7,7.4c0,1.4,0.1,2.9,0.3,4.4l0.1,0.5v0.1v0.1l0,0v-0.1v-0.1l0,0l0.1-0.2l0.2-0.3
							c0.1-0.2,0.3-0.4,0.4-0.6c0.1-0.1,0.1-0.2,0.3-0.3c0.1-0.2,0.3-0.3,0.5-0.5c0.6-0.6,1.2-1,1.9-1.6c0.1,0,0.2-0.2,0.2-0.1v0.3
							l0.1,0.6c0.1,0.4,0.1,0.8,0.2,1.2c0.1,0.7,0.1,1.3,0.2,2c0.1,0.9,0.2,1.8,0.3,2.8c0.3,1.9,0.6,3.8,1,5.6
							c0.2,0.8,0.4,1.7,0.5,2.5v0.1l0,0l0,0l0,0l0.1-0.1l0.1-0.1l0.2-0.2l0.4-0.4c0.6-0.5,1.1-0.9,1.6-1.3c0.2-0.2,0.2,0.1,0.2,0.2
							l0.1,0.5c0.1,0.3,0.1,0.7,0.2,1s0.1,0.7,0.2,1.1l0.1,0.6c0,0.4,0.1,0.8,0.1,1.2c0.1,0.8,0.1,1.5,0.2,2.2
							c0.2,2.9,0.2,5.4,0.1,7.5C204.5,282,204.3,284.4,204.1,284.4z"/>
					</g>
				</g>
			</g>
			<g>
				<path class="st0" d="M51.6,198.3c-18.4,1-36.8-10.6-43.9-27.7"/>
				<g>
					<g>
						<path class="st0" d="M7.7,170.6c0.3-0.1,1.5,2.7,4.3,6.8c0.4,0.5,0.7,1,1.1,1.6c0.4,0.5,0.9,1.1,1.3,1.6
							c0.9,1.1,2,2.2,3.1,3.4c2.3,2.2,5.1,4.5,8.2,6.5c3.2,2,6.4,3.5,9.4,4.6c1.5,0.5,3,1,4.4,1.3c0.7,0.2,1.4,0.4,2,0.5
							c0.7,0.1,1.3,0.2,1.9,0.3c4.9,0.8,8,0.7,8,1c0,0.1-0.8,0.2-2.2,0.4c-0.4,0-0.7,0.1-1.2,0.1c-0.4,0-0.9,0-1.4,0
							c-1,0-2.2,0-3.4-0.2c-0.6-0.1-1.3-0.2-2-0.2c-0.7-0.1-1.4-0.3-2.1-0.4c-1.5-0.3-3-0.8-4.6-1.2c-3.2-1.1-6.6-2.6-9.9-4.7
							c-3.3-2.1-6.1-4.5-8.5-6.9c-1.1-1.2-2.2-2.4-3.1-3.6c-0.4-0.6-0.9-1.1-1.3-1.7c-0.4-0.6-0.7-1.1-1.1-1.7c-0.7-1-1.2-2.1-1.7-3
							c-0.2-0.4-0.4-0.9-0.6-1.3c-0.2-0.4-0.3-0.8-0.4-1.1C7.8,171.4,7.6,170.7,7.7,170.6z"/>
					</g>
				</g>
			</g>
			<g>
				<path class="st0" d="M8.1,171.4c3.3,3,7.5,4.9,11.9,5.5C4.1,163-3.1,140,2,119.5"/>
				<g>
					<g>
						<path class="st0" d="M1.9,119.5c0.3,0.1-0.8,4.2-0.9,11.1c0,3.4,0.1,7.5,1,11.9c0.8,4.4,2.2,9.2,4.3,14
							c2.1,4.8,4.7,9,7.4,12.6c0.7,0.9,1.3,1.8,2.1,2.6c0.4,0.4,0.7,0.8,1.1,1.2l0.5,0.6l0.3,0.3l0.4,0.4c1.1,1.1,2.1,2.1,3.1,3.1
							l0.4,0.4l0.2,0.2l0.1,0.1h-0.1c-0.4-0.1-0.8-0.1-1.1-0.2c-0.7-0.1-1.4-0.2-2.1-0.4c-0.3-0.1-0.7-0.1-1-0.2
							c-0.3-0.1-0.6-0.2-0.8-0.2c-0.4-0.1-0.8-0.3-1.2-0.4c-0.7-0.3-1.4-0.6-2.1-0.9c-1.3-0.6-2.3-1.3-3-1.9
							c-1.6-1.2-2.2-2.1-2.2-2.1c0.1-0.1,0.9,0.6,2.6,1.6c0.8,0.5,1.8,1.1,3.1,1.6c0.6,0.3,1.3,0.5,2,0.7c0.4,0.1,0.7,0.2,1.1,0.3
							l0.3,0.1h0.1h0.2c0.1,0,0.2,0,0.3,0h0.1c0,0-0.1-0.1-0.2-0.2c-0.3-0.3-0.6-0.5-0.9-0.8l-0.1-0.1l-0.3-0.3l-0.5-0.6
							c-0.4-0.4-0.7-0.8-1.1-1.2c-0.8-0.8-1.5-1.7-2.2-2.6c-2.9-3.6-5.6-8-7.8-12.9c-2.2-4.9-3.5-9.9-4.3-14.4
							c-0.8-4.6-0.8-8.8-0.6-12.3c0.2-1.7,0.2-3.3,0.5-4.7c0.2-1.4,0.4-2.5,0.7-3.5C1.5,120.5,1.8,119.4,1.9,119.5z"/>
					</g>
				</g>
			</g>
			<g>
				<path class="st0" d="M1.4,121.4c0.9,3.6,2.6,6.9,5.1,9.6c1.6-13.3,4.3-26.7,10.2-38.7c6-12,15.5-22.6,27.8-27.9"/>
				<g>
					<g>
						<path class="st0" d="M44.5,64.5c0.1,0.1-1.1,0.7-3.1,1.9c-2,1.1-4.8,2.9-7.9,5.6c-1.6,1.3-3.2,2.9-4.8,4.6
							c-1.6,1.8-3.3,3.7-4.9,5.9c-3.2,4.4-6.1,9.6-8.5,15.3c-2.4,5.8-4,11.5-5.2,16.8c-0.6,2.6-1.1,5.2-1.5,7.6
							c-0.2,1.2-0.4,2.3-0.6,3.5c-0.2,1.1-0.3,2.2-0.5,3.3c-0.1,0.8-0.2,1.5-0.3,2.2c-0.1,0.4-0.1,0.7-0.2,1.1v0.1v0.1l0,0l-0.2-0.2
							l-0.4-0.4c-0.5-0.6-0.9-1.1-1.4-1.7c-0.1-0.2-0.2-0.3-0.2-0.3l-0.2-0.3c-0.1-0.2-0.2-0.4-0.3-0.5c-0.9-1.4-1.5-2.7-1.9-3.8
							c-0.8-2.2-0.9-3.5-0.8-3.5s0.5,1.2,1.4,3.3c0.5,1,1.2,2.3,2.1,3.6c0.1,0.2,0.2,0.3,0.4,0.5l0.2,0.2c0.1,0.1,0.1,0.2,0.1,0.2
							c0.1,0.1,0.2,0.3,0.3,0.4l0.1,0.1c0,0,0.1,0.1,0.1,0v-0.4c0-0.2,0-0.5,0.1-0.7c0.9-8.1,2.6-19.7,7.5-31.5
							c2.4-5.9,5.5-11.2,8.8-15.6c1.7-2.2,3.4-4.2,5.1-5.9c1.8-1.7,3.4-3.3,5.1-4.5c3.3-2.6,6.3-4.2,8.4-5.2
							C43.2,64.7,44.5,64.4,44.5,64.5z"/>
					</g>
				</g>
			</g>
			<g>
				<path class="st0" d="M97.9,97.9c-1.8-3.5-5.6-5.6-9.5-6s-7.8,1.1-11,3.2c-3.9,2.7-6.9,6.5-8.6,11c-2.9,7.8-1.9,17.7-8.2,23"/>
				<g>
					<g>
						<path class="st0" d="M60.7,129.1c0,0,0.1-0.2,0.3-0.6c0.1-0.2,0.3-0.4,0.5-0.6c0.2-0.2,0.4-0.5,0.6-0.8
							c0.9-1.3,1.9-3.2,2.7-5.9c0.7-2.7,1.2-6,1.9-9.7c0.4-1.8,0.8-3.8,1.5-5.8s1.8-3.9,3.1-5.7c2.6-3.6,6.2-6.3,9.8-7.7
							s7.4-1.5,10.2-0.6s4.7,2.6,5.7,3.8c1,1.3,1.2,2.2,1.1,2.2c-0.1,0.1-0.5-0.7-1.6-1.8s-2.9-2.4-5.5-3.1
							c-2.6-0.7-5.9-0.5-9.2,0.9s-6.5,3.9-9,7.2c-1.2,1.7-2.2,3.5-2.9,5.3s-1.1,3.7-1.5,5.5c-0.8,3.6-1.3,7-2.3,9.7
							c-0.9,2.7-2.2,4.8-3.3,6c-0.3,0.3-0.5,0.6-0.8,0.8c-0.2,0.2-0.5,0.4-0.6,0.5C60.9,129.1,60.7,129.2,60.7,129.1z"/>
					</g>
				</g>
			</g>
			<g>
				<path class="st0" d="M39.8,73.8L39.8,73.8c6.8-8.6,15.9-11,25.4-10.7c9.6,0.3,19,3.8,25.7,10c6.8,6.1,10.1,16.2,7.1,24.8"/>
				<g>
					<g>
						<path class="st0" d="M97.9,97.9c-0.1,0,0-0.3,0.1-0.9c0.1-0.5,0.3-1.3,0.4-2.4c0.3-2.1,0.3-5.1-0.6-8.7
							c-0.9-3.6-2.9-7.7-6.4-11.1s-8.1-6.4-13.5-8.3c-5.3-2-10.8-2.6-15.7-2.5c-4.9,0.1-9.3,1.2-12.7,2.7c-3.4,1.5-5.7,3.5-7.3,4.9
							c-0.8,0.7-1.4,1.3-1.8,1.7c-0.4,0.4-0.6,0.6-0.7,0.5c0,0,0.1-0.3,0.4-0.8s0.8-1.1,1.5-1.9c1.4-1.6,3.8-3.8,7.2-5.5
							c3.5-1.8,8-3,13.2-3.2c5.1-0.2,10.8,0.4,16.4,2.5c5.6,2,10.4,5.1,14.1,8.8c3.6,3.8,5.6,8.2,6.4,12c0.8,3.8,0.6,7,0.1,9.1
							c-0.3,1.1-0.5,1.9-0.8,2.4C98.1,97.6,98,97.9,97.9,97.9z"/>
					</g>
				</g>
			</g>
			<g>
				<path class="st0" d="M44.1,64.5c-2,2.1-3.9,6.4-4.3,9.3"/>
				<g>
					<g>
						<path class="st0" d="M39.8,73.8c-0.5,0-0.5-2.6,0.8-5.3c0.6-1.4,1.4-2.5,2.1-3.2s1.3-1,1.5-0.8c0.3,0.3-0.9,2.2-2,4.7
							C40.9,71.8,40.2,73.9,39.8,73.8z"/>
					</g>
				</g>
			</g>
			<g>
				<path class="st0" d="M56.9,158.2c-1.3,11.5,1.6,23.4,12.3,27.8"/>
				<g>
					<g>
						<path class="st0" d="M69.2,186c0,0.1-0.5,0-1.3-0.2c-0.4-0.1-0.9-0.3-1.4-0.6s-1.2-0.6-1.8-1c-0.3-0.2-0.6-0.5-1-0.7
							c-0.3-0.2-0.6-0.6-1-0.9c-0.7-0.6-1.3-1.3-2-2.1c-1.2-1.6-2.3-3.6-3.2-5.8c-1.6-4.4-1.8-8.7-1.6-11.7c0.2-3,0.7-4.8,0.9-4.8
							c0.3,0,0.2,1.9,0.3,4.8c0.2,2.9,0.5,7,2,11.1c0.8,2,1.7,3.9,2.8,5.4c0.6,0.7,1.1,1.5,1.7,2c0.3,0.3,0.6,0.6,0.8,0.9
							c0.3,0.3,0.6,0.5,0.8,0.7c0.5,0.5,1.1,0.8,1.5,1.2c0.5,0.4,0.9,0.6,1.2,0.8C68.9,185.6,69.2,185.9,69.2,186z"/>
					</g>
				</g>
			</g>
			<g>
				<path class="st0" d="M52.9,167.7c0.1-3.5,1.6-6.9,4-9.5"/>
				<g>
					<g>
						<path class="st0" d="M56.9,158.2c0.4,0.4-1,2.2-2,4.7c-1.1,2.5-1.4,4.8-1.9,4.8c-0.2,0-0.5-0.6-0.5-1.6s0.2-2.4,0.8-3.8
							c0.6-1.4,1.4-2.6,2.2-3.2C56.1,158.3,56.7,158,56.9,158.2z"/>
					</g>
				</g>
			</g>
			<g>
				<path class="st0" d="M70.8,119.6c-0.3,6.8-2.6,13.4-6.4,19c-3.1,4.6-7.3,8.4-10.1,13.2c-2.8,4.8-4.2,11-1.3,15.8"/>
				<g>
					<g>
						<path class="st0" d="M52.9,167.7c-0.1,0.1-0.6-0.5-1.2-1.8s-1.1-3.3-0.9-5.8s1-5.5,2.6-8.4s3.9-5.7,6.3-8.5
							c2.4-2.8,4.5-5.5,6-8.3c1.5-2.7,2.5-5.4,3.2-7.7c1.4-4.6,1.5-7.6,1.8-7.6c0.2,0,0.5,3.1-0.6,7.9c-0.6,2.4-1.5,5.2-3,8.1
							c-0.8,1.5-1.7,2.9-2.7,4.4c-1,1.4-2.2,2.9-3.4,4.3c-2.4,2.8-4.7,5.5-6.3,8.2c-1.6,2.7-2.5,5.4-2.8,7.7s0,4.2,0.3,5.5
							C52.7,166.9,53,167.6,52.9,167.7z"/>
					</g>
				</g>
			</g>
			<g>
				<path class="st0" d="M60.7,129.4c4.7-1.4,7.6-5.5,10.1-9.8"/>
				<g>
					<g>
						<path class="st0" d="M70.8,119.6c0.2,0.1,0,0.9-0.6,2.1c-0.6,1.2-1.5,2.8-2.9,4.3s-3.1,2.6-4.4,3.1c-1.3,0.5-2.2,0.4-2.2,0.2
							c-0.1-0.2,0.6-0.6,1.7-1.3c1-0.7,2.4-1.7,3.6-3.1c1.3-1.4,2.3-2.8,3.2-3.8C70,120.1,70.6,119.5,70.8,119.6z"/>
					</g>
				</g>
			</g>
			<g>
				<path class="st0" d="M34,80.9c4.2-3.9,6.9-9.2,7.5-14.9"/>
				<g>
					<g>
						<path class="st0" d="M41.5,66c0.2,0,0.4,1,0.2,2.6c-0.2,1.6-0.7,3.7-1.8,5.9c-1.1,2.2-2.5,3.9-3.7,5c-1.2,1.1-2,1.6-2.2,1.4
							c-0.3-0.4,2.3-3.1,4.3-7.2C40.4,69.7,41,65.9,41.5,66z"/>
					</g>
				</g>
			</g>
			<g>
				<path class="st0" d="M181.5,349c5.2-6.4,12.4-11,20.3-13.2"/>
				<g>
					<g>
						<path class="st0" d="M201.8,335.9c0.1,0.5-5.1,2.1-10.7,5.7s-9.2,7.8-9.6,7.4c-0.2-0.1,0.5-1.4,2-3.1s3.8-3.9,6.7-5.8
							c2.9-1.9,5.8-3.1,8-3.7S201.8,335.7,201.8,335.9z"/>
					</g>
				</g>
			</g>
			<g>
				<path class="st0" d="M195.1,342.8c3-1.5,6.3-2.6,9.7-3.1"/>
				<g>
					<g>
						<path class="st0" d="M204.7,339.6c0.1,0.5-2.1,1.2-4.7,2s-4.7,1.6-5,1.1c-0.2-0.4,1.7-1.9,4.4-2.8
							C202.3,339.1,204.7,339.2,204.7,339.6z"/>
					</g>
				</g>
			</g>
			<g>
				<path class="st0" d="M104,323.1c3-3.2,6.9-5.6,11.1-6.8"/>
				<g>
					<g>
						<path class="st0" d="M115.2,316.3c0.1,0.5-2.6,1.5-5.6,3.4c-3,1.8-5.2,3.7-5.6,3.4c-0.4-0.3,1.4-2.9,4.7-4.9
							C112,316.2,115.1,315.9,115.2,316.3z"/>
					</g>
				</g>
			</g>
			<g>
				<path class="st0" d="M28.6,354.8c6.3-3,13.2-4.6,20.2-4.7"/>
				<g>
					<g>
						<path class="st0" d="M48.8,350.1c0,0.5-4.6,0.8-10.2,2.1c-5.5,1.3-9.8,3.1-10,2.6c-0.2-0.4,3.9-3,9.6-4.3
							C44,349.1,48.8,349.6,48.8,350.1z"/>
					</g>
				</g>
			</g>
			<g>
				<path class="st0" d="M34.5,348.9c3.3-1.3,6.9-1.9,10.5-1.8"/>
				<g>
					<g>
						<path class="st0" d="M45,347.1c0,0.5-2.4,0.7-5.2,1.2c-2.8,0.5-5.1,1-5.3,0.5c-0.2-0.4,2-1.8,5-2.3
							C42.5,346.1,45,346.6,45,347.1z"/>
					</g>
				</g>
			</g>
		</g>
		<g>
			<path class="st0" d="M256.1,227.3c6.3,4.8,14,7.9,21.9,8.7c-2.2,1.2-4.9,1.6-7.3,1.1"/>
			<g>
				<g>
					<path class="st0" d="M270.6,237.1c0-0.2,0.9-0.1,2.2-0.3c0.3,0,0.7-0.1,1.1-0.2c0.1,0,0.2,0,0.3-0.1h0.1c0.1,0,0.1-0.1,0.2-0.1
						c0.1-0.1,0.2-0.1,0.2-0.1s0.1-0.1-0.1-0.1c-0.1,0-0.2,0-0.3,0h-0.1l0,0c0,0,0,0-0.1,0l-0.5-0.1c-1.3-0.2-2.6-0.6-3.9-1
						c-4.2-1.3-7.8-3.2-10.2-4.8c-2.4-1.6-3.6-3-3.5-3.1c0.3-0.4,6,3.8,14.1,6.3c1.3,0.4,2.5,0.7,3.7,1c0.4,0.1,0.8,0.2,1.3,0.3
						c0.6,0.1,1.2,0.2,1.8,0.3c1.2,0.2,2.3,0.3,3.4,0.5c-0.4,0.2-1.4,0.7-2.1,1s-1.4,0.6-2.2,0.8c-0.4,0.1-0.8,0.2-1.2,0.3
						c-0.2,0-0.4,0.1-0.6,0.1c-0.1,0-0.2,0-0.4,0c-0.5,0-0.9,0-1.2,0C271.4,237.6,270.6,237.2,270.6,237.1z"/>
				</g>
			</g>
		</g>
		<g>
			<path class="st0" d="M43.4,230.1c2.6-0.7,5-2.2,6.6-4.4"/>
			<g>
				<g>
					<path class="st0" d="M50,225.7c0.4,0.3-0.4,2.1-2.5,3.5c-2,1.3-4.1,1.4-4.1,0.9c-0.1-0.5,1.5-1.2,3.2-2.4
						C48.3,226.6,49.6,225.4,50,225.7z"/>
				</g>
			</g>
		</g>
		<g>
			<path class="st0" d="M50.2,226.2c-1.9,4.9-4.6,9.5-8.1,13.4"/>
			<g>
				<g>
					<path class="st0" d="M42.1,239.7c-0.4-0.3,1.7-3.2,3.9-6.8c2.2-3.6,3.7-6.8,4.2-6.6c0.4,0.1-0.4,3.7-2.7,7.5
						S42.5,240,42.1,239.7z"/>
				</g>
			</g>
		</g>
		<g>
			<path class="st0" d="M141.7,288c0-1.2,0.7-2.2,1.5-3s1.8-1.4,2.9-2"/>
			<g>
				<g>
					<path class="st0" d="M146,283c0.3,0.4-1,1.5-2.2,2.6c-0.6,0.6-1,1.1-1.3,1.6c-0.3,0.4-0.5,0.8-0.8,0.8c-0.2,0-0.5-0.4-0.4-1.2
						c0.1-0.7,0.5-1.7,1.3-2.5s1.6-1.2,2.3-1.3C145.5,282.8,145.9,282.8,146,283z"/>
				</g>
			</g>
		</g>
		<g>
			<path class="st0" d="M146.6,281.5c-1.7,2.9-2.2,6.4-1.4,9.6c2-2.9,5.1-5,8.5-5.8"/>
			<g>
				<g>
					<path class="st0" d="M153.8,285.3c0.1,0.3-1,0.6-2.6,1.5c-0.8,0.5-1.7,1-2.5,1.8c-0.4,0.4-0.9,0.8-1.3,1.3l-0.2,0.2l-0.1,0.1
						l-0.1,0.2c-0.2,0.3-0.4,0.5-0.6,0.8c-0.4,0.6-0.9,1.2-1.3,1.9l-0.2,0.3c-0.3-1.3-0.6-2.5-0.7-3.7c0-0.4,0-0.5,0-0.7
						s0-0.3,0-0.5c0-0.3,0-0.7,0-1c0.1-1.3,0.4-2.4,0.8-3.3c0.7-1.8,1.6-2.6,1.8-2.5s-0.2,1.2-0.6,2.9c-0.2,0.9-0.3,1.9-0.3,3
						c0,0.3,0,0.6,0,0.9c0,0.1,0,0.3,0,0.4s0,0.4,0,0.3l0,0l0,0l0,0l0,0l0.3-0.3c0.5-0.5,1-0.9,1.5-1.3c1-0.8,2.1-1.3,3-1.6
						C152.5,285,153.7,285.1,153.8,285.3z"/>
				</g>
			</g>
		</g>
		<g>
			<path class="st0" d="M67.2,177.3c23.5-6.7,66.5-4.3,102.3,5.1"/>
			<g>
				<g>
					<path class="st0" d="M169.5,182.5c0,0.1-1.5-0.1-4-0.6c-2.6-0.6-6.3-1.3-10.8-2.1c-9.2-1.7-21.9-3.6-36.1-4.6
						s-27.1-0.8-36.3,0.1c-2.3,0.3-4.4,0.5-6.2,0.8s-3.4,0.5-4.7,0.8c-2.5,0.5-4,0.8-4,0.6c0-0.1,1.3-0.6,3.9-1.3
						c1.3-0.4,2.8-0.7,4.7-1.1c1.8-0.4,3.9-0.6,6.3-1c9.3-1.2,22.3-1.7,36.6-0.6c14.3,1,27.1,3.2,36.2,5.2c4.6,1,8.3,1.9,10.8,2.7
						C168.1,181.9,169.5,182.3,169.5,182.5z"/>
				</g>
			</g>
		</g>
	</g>
</g>
</svg>
