<svg version="1.1"
	 id="svg14814" inkscape:version="1.0.2 (e86c870879, 2021-01-15, custom)" xmlns:cc="http://creativecommons.org/ns#" xmlns:dc="http://purl.org/dc/elements/1.1/" xmlns:inkscape="http://www.inkscape.org/namespaces/inkscape" xmlns:rdf="http://www.w3.org/1999/02/22-rdf-syntax-ns#" xmlns:sodipodi="http://sodipodi.sourceforge.net/DTD/sodipodi-0.dtd" xmlns:svg="http://www.w3.org/2000/svg"
	 xmlns="http://www.w3.org/2000/svg" xmlns:xlink="http://www.w3.org/1999/xlink" x="0px" y="0px" viewBox="-700 170 1200 1700"	 >

<g id="chaudiere" rel="27" >
	<path id="path14834" style="fill:red" d="M223,273.2v-6.5c3,0,4.5,3.1,7.6,2.8c5.6-0.6,7.3-8.2,2-10.6c-1.5-0.7-3.6-0.6-5.1,0.2
		c-1.7,0.9-2.5,2.1-4.5,2.1c0-1.4,0.4-3.4-0.5-4.7c-1.2-1.7-3.8-1.6-4.7,0.4c-0.6,1.3-0.3,3-0.3,4.3c-2.1,0-2.9-1.1-4.5-2.1
		c-1.5-0.8-3.7-0.9-5.3-0.1c-5.1,2.5-3.4,10.1,2.2,10.6c3.1,0.3,4.7-2.8,7.6-2.8v7c-2.2,0-4.5,0.5-6.7,0.8c-5.7,0.8-11.5,2-16.9,4.1
		c-1.7,0.7-3.7,1.5-5.1,2.8c-0.8,0.7-1.3,1.6-0.7,2.7c0.9,1.4,2.8,2.3,4.3,3c3,1.3,6.1,2.3,9.3,3c13.4,3.3,27.7,3.9,41.5,3.5
		c10.6-0.3,21.8-1.3,32-4.4c2.7-0.8,5.4-1.6,7.8-3c1-0.5,2.1-1.2,2.7-2.2c0.6-0.9,0.2-1.8-0.6-2.5c-1.2-1.2-2.9-2-4.5-2.6
		c-3.9-1.6-7.9-2.5-12-3.5c-3-0.7-6.4-1.4-9.5-1.5c0.7-2.9,2.3-5.8,4.4-7.9c2.7-2.9,5.9-5.1,9.8-6.2c8.8-2.5,18.5,1.5,23.2,9.3
		c2,3.3,2.8,6.8,2.8,10.6h10.7c0-4.9-1.1-9.8-3.3-14.2c-1.6-3.2-3.8-6.2-6.5-8.6c-10.4-9.6-26.7-11-38.5-3.2
		c-4.5,3-8.2,7.1-10.7,11.8c-0.8,1.6-1.6,3.4-2.1,5.2c-0.2,0.6-0.2,1.7-0.9,2c-0.8,0.3-1.9,0-2.7-0.1c-2.1-0.1-4.1,0-6.2-0.2
		C233.8,272.3,228.4,273.1,223,273.2 M295.5,282.1c-0.6,0.2-1,0.7-1.2,1.3c-0.2,0.6-0.1,1.2-0.1,1.8c0,1.6-0.6,4.5,1.1,5.4
		c1.1,0.6,3.1,0.2,4.4,0.2h9.6c1.2,0,3.1,0.3,4.2-0.2c1.7-0.9,1.3-3.4,1.3-5c0-0.7,0.1-1.3-0.1-2c-0.2-0.6-0.6-1.1-1.1-1.4
		c-1.2-0.6-3.2-0.2-4.5-0.2h-9.3C298.5,281.9,296.7,281.6,295.5,282.1 M187.7,290.6v99.6v25.9v6.6c0,1-0.2,2.2,0.4,3.1
		c1.3,1.8,4.1,2.8,6.1,3.6c5,1.8,10.1,2.9,15.3,3.9c7.7,1.4,15.5,1.7,23.3,1.9c11,0.3,22-0.4,32.9-2.1c4.8-0.8,9.7-2,14.2-3.7
		c1.9-0.8,4.2-1.7,5.6-3.3c1.2-1.4,0.6-4.2,0.6-5.9v-15.3h13.3c0,3.9-0.2,7.8,0.4,11.7c1.5,9.1,7.2,17,15.2,21.6
		c2.7,1.6,6.4,3.4,9.6,3.5v-7.7c0-0.8,0.3-2.3-0.2-2.9c-0.4-0.5-1.6-0.7-2.2-1c-1.4-0.6-2.6-1.4-3.8-2.2c-4.8-3.5-7.8-8.8-8.3-14.7
		c-0.4-4.3,0-8.9,0-13.3v-26.6v-80.2h-10.7v13.3c-1.7-0.3-3.4-0.2-5.1-0.2h-8.2v-15.4c-3,1.2-5.8,2.7-8.9,3.6
		c-13.3,3.9-27.5,4.6-41.3,4.6c-12.3,0-25-0.8-36.9-4c-2.3-0.6-4.7-1.3-6.9-2.3C190.6,291.9,189.2,291.1,187.7,290.6 M299.4,313.9
		V397c-4.3-0.5-8.9-0.2-13.3-0.2v-82.9L299.4,313.9 M211.6,358.3c1.7-0.2,3.6-0.1,5.3,0.4c7.7,2.2,10.5,11.6,5.9,17.9
		c-0.9,1.3-2,2.3-3.4,3c-1.4,0.8-2.9,1.4-4.5,1.6c-1.5,0.2-3.1,0.1-4.5-0.3c-7.7-1.9-11-11.2-6.7-17.6c0.9-1.3,2.1-2.4,3.4-3.3
		C208.4,359.1,210,358.5,211.6,358.3 M212.1,363.5c-0.9,0.2-1.8,0.6-2.5,1.1c-4.4,3.2-2.7,10.3,2.7,11.2c0.7,0.1,1.4,0.2,2.2,0
		c1-0.2,2-0.6,2.7-1.2c1.5-1.2,2.6-3.1,2.5-5.1C219.6,365.8,215.9,362.8,212.1,363.5 M212.8,389.2c6.9-0.8,12.8,6.1,12.2,12.5
		c-0.6,5.8-5.1,10-10.9,10.6c-1,0.1-2.1,0-3.1-0.2c-7.7-1.4-11.5-10.1-8-16.8C205,391.5,208.7,389.6,212.8,389.2 M212.1,394.6
		c-5,0.9-6.8,7.2-3.2,10.7c1.6,1.6,3.8,2,6,1.6c4.1-0.8,5.9-5.7,4.1-9.1C217.6,395.3,214.8,394.1,212.1,394.6 M328.3,426.4
		c-0.7,0.2-1.3,0.8-1.5,1.5c-0.5,1.7-0.1,4.1-0.1,5.9v8.6c0,1.2-0.2,2.6,0.8,3.5c1,0.9,2.9,0.6,4.2,0.6c0.8,0,1.8,0.1,2.5-0.1
		c0.9-0.3,1.4-1,1.6-1.9c0.3-1.8,0.1-3.9,0.1-5.7V431c0-1.1,0.3-2.6-0.4-3.6c-1-1.6-3.5-1.1-5.1-1.1
		C329.6,426.3,328.9,426.2,328.3,426.4 M337.7,431.7v10.6h7.3v-10.6H337.7 M197,435.6v12.2c0,1.6-0.4,3.6,0.8,4.8
		c1.2,1.3,3.1,2.1,4.7,2.6c3.3,1.2,6.6,1.9,10,2.7c5.9,1.3,12.1,1.6,18.2,1.9c9.3,0.4,18.6-0.1,27.8-1.4c4.4-0.6,8.9-1.6,13.1-3.2
		c1.6-0.6,3.7-1.4,4.8-2.8c0.9-1.2,0.5-3.4,0.5-4.8v-12c-4,0.8-7.9,2-12,2.6c-15.5,2.5-31.5,2.6-47.1,1.1c-4.2-0.4-8.6-0.9-12.7-1.9
		C202.4,436.9,199.7,436,197,435.6L197,435.6z"/>
	
</g>

</svg>
