<?xml version="1.0" encoding="utf-8"?>
<!-- Generator: Adobe Illustrator 27.6.1, SVG Export Plug-In . SVG Version: 6.00 Build 0)  -->
<svg version="1.1" id="Calque_1" xmlns="http://www.w3.org/2000/svg" xmlns:xlink="http://www.w3.org/1999/xlink" x="0px" y="0px"
	 viewBox="0 0 256 256" style="enable-background:new 0 0 256 256;" xml:space="preserve">
<style type="text/css">
	.st0{fill:#18B210;}
	.st1{fill:none;}
	.st2{font-family:'ArialMT';}
	.st3{font-size:51.5707px;}
</style>
<g>
	<g>
		<g>
			<path class="st0" d="M115.5,13.2c-20.5,2.1-42,10.7-58.8,23.4c-6.1,4.7-16,14.3-20.9,20.4C14,84.4,5.4,119.7,12.4,154.2
				c6.5,32.5,26.7,60.9,55.5,78c9.5,5.6,23,11.3,27.1,11.3c6.5-0.1,12.3-6.8,11.1-13c-0.9-5.1-3.4-7.4-10.9-10.3
				c-13.7-5.3-24.1-11.9-33.8-21.7c-14.1-13.9-22.6-29.2-26.6-47.9c-8.1-37.8,7.8-77.3,40-99c48-32.4,113.4-14.7,138.8,37.4
				c16.6,34.1,11.4,75-13.3,103.5c-10.8,12.5-30.1,24.2-39.9,24.2c-12.6,0-20.3-13.8-21.6-38.4l-0.3-6.8l5.1-1
				c7.9-1.5,13.7-4.6,19.6-10.6c3.6-3.6,5.4-6,6.9-9.2c3.6-7.3,3.9-9.2,3.9-32V98.4h-46H82v20.3c0,22.8,0.2,24.7,3.8,31.8
				c4.9,10,14,17.1,25.2,19.7l5,1.2l0.3,7.7c1.5,31.6,12.7,51.9,32.5,58.4c6.4,2.1,16.6,2.2,23.3,0.3c12.1-3.5,30-14.4,40.4-24.9
				c34.8-34.6,43.5-90.3,21.3-134.7C211.6,33.9,164.7,8.1,115.5,13.2z"/>
			<path class="st0" d="M100.3,59.7c-1,0.6-2.1,1.6-2.4,2.2c-0.4,0.7-0.6,6.3-0.6,15.1v14h8.2h8.2V76.9c0-15.4-0.1-15.8-3.4-17.5
				C108,58.2,102.6,58.4,100.3,59.7z"/>
			<path class="st0" d="M145.3,59.7c-1,0.6-2.1,1.6-2.4,2.2c-0.4,0.7-0.6,6.3-0.6,15.1v14h8.2h8.2V76.9c0-15.4-0.1-15.8-3.4-17.5
				C153,58.2,147.5,58.4,145.3,59.7z"/>
		</g>
	</g>
</g>
<rect class="st1" width="256" height="256"/>
<text transform="matrix(0.8406 0 0 1 10.0171 214.2549)" class="st2 st3">cuisine d’été</text>
</svg>
