<?xml version="1.0" encoding="utf-8"?>
<!-- Generator: Adobe Illustrator 28.0.0, SVG Export Plug-In . SVG Version: 6.00 Build 0)  -->
<svg version="1.1" id="Layer_1" xmlns="http://www.w3.org/2000/svg" xmlns:xlink="http://www.w3.org/1999/xlink" x="0px" y="0px"
	 viewBox="0 0 800 800" style="enable-background:new 0 0 800 800;" xml:space="preserve">
<style type="text/css">
	.st0{fill:#328777;}
	.st1{fill:#3EAC92;}
	.st2{fill:#FFDA44;}
	.st3{fill:#FFEB99;}
	.st4{opacity:0.1;fill:#AA6100;enable-background:new    ;}
</style>
<g>
	<path class="st0" d="M153.4,788.2c0,0-5.1,2.3-10.1,1.1c-5-1.2-7.9-5.4-7.9-5.4s5.1-2.3,10.1-1.1
		C150.4,784,153.4,788.2,153.4,788.2z"/>
	<path class="st1" d="M131.5,801.1c-0.8,0-1.4-0.5-1.4-1.2c0-8.3,3.1-14.9,5.7-18.9c2.8-4.4,5.7-6.8,5.8-6.9c0.6-0.5,1.5-0.5,2,0
		c0.6,0.5,0.6,1.2,0,1.7c-0.1,0-2.7,2.3-5.4,6.4c-2.4,3.8-5.3,9.9-5.3,17.7C132.9,800.5,132.3,801.1,131.5,801.1z"/>
	<g>
		<path class="st0" d="M143.6,775.7c0.6-0.5,0.6-1.2,0-1.7c-0.6-0.5-1.5-0.5-2,0c-0.1,0.1-2.1,1.8-4.4,4.9h3.4
			C142.3,776.9,143.6,775.8,143.6,775.7z"/>
		<path class="st0" d="M127.4,773.4c0,0-2.5,4.4-7.3,6s-10.2-0.4-10.2-0.4s2.5-4.4,7.3-6C122,771.5,127.4,773.4,127.4,773.4z"/>
	</g>
	<path class="st1" d="M131.5,801.1c-0.8,0-1.4-0.5-1.4-1.2c0-22.1,3.5-37.6,6.4-46.7c3.2-10,6.4-14.6,6.5-14.8
		c0.4-0.6,1.3-0.8,1.9-0.4c0.7,0.3,0.9,1.1,0.5,1.6c-0.1,0.1-3.2,4.7-6.3,14.4c-2.9,9-6.3,24.2-6.3,46
		C132.9,800.5,132.3,801.1,131.5,801.1z"/>
	<path class="st0" d="M145.5,739.5c0.4-0.6,0.2-1.3-0.5-1.6c-0.7-0.3-1.6-0.1-1.9,0.4c-0.1,0.1-1.9,2.8-4.1,8.3h3
		C143.9,741.9,145.4,739.6,145.5,739.5z"/>
	<path class="st1" d="M131.5,801.1c-0.8,0-1.4-0.5-1.4-1.2c0-28.3-13.1-42.9-13.2-43.1c-0.5-0.5-0.4-1.3,0.3-1.7
		c0.6-0.4,1.5-0.3,2,0.2c0.1,0.2,3.5,3.9,7,11.3c3.1,6.8,6.9,18,6.9,33.2C132.9,800.5,132.3,801.1,131.5,801.1z"/>
	<path class="st0" d="M119.1,755.4c-0.5-0.5-1.4-0.6-2-0.2c-0.6,0.4-0.7,1.1-0.3,1.7c0,0,1.5,1.7,3.4,4.8h3.2
		C121.1,757.6,119.2,755.5,119.1,755.4z"/>
	<path class="st2" d="M116.9,735L116.9,735c1,0.8,2.3,1.3,3.6,1.3l0,0c2.8,0,5.1,1.9,5.1,4.3l0,0c0,1.1,0.5,2.2,1.5,3l0,0
		c2,1.7,2,4.4,0,6l0,0c-1,0.8-1.5,1.9-1.5,3l0,0c0,2.4-2.3,4.3-5.1,4.3l0,0c-1.4,0-2.7,0.5-3.6,1.3l0,0c-2,1.7-5.2,1.7-7.2,0l0,0
		c-1-0.8-2.3-1.3-3.6-1.3l0,0c-2.8,0-5.1-1.9-5.1-4.3l0,0c0-1.1-0.5-2.2-1.5-3l0,0c-2-1.7-2-4.4,0-6l0,0c1-0.8,1.5-1.9,1.5-3l0,0
		c0-2.4,2.3-4.3,5.1-4.3l0,0c1.4,0,2.7-0.5,3.6-1.3l0,0C111.6,733.4,114.9,733.4,116.9,735z"/>
	<ellipse class="st3" cx="113.3" cy="746.6" rx="7.5" ry="6.3"/>
	<path class="st4" d="M127.1,743.8L127.1,743.8c-1-0.8-1.5-1.9-1.5-3c0-2.3-2.2-4.2-4.9-4.3c0,0.1,0,0.1,0,0.2c0,1.1,0.5,2.2,1.5,3
		l0,0c2,1.7,2,4.4,0,6c-1,0.8-1.5,1.9-1.5,3c0,2.4-2.3,4.3-5.1,4.3l0,0c-1.4,0-2.7,0.5-3.6,1.3c-2,1.7-5.2,1.7-7.2,0
		c-1-0.8-2.3-1.3-3.6-1.3l0,0c-0.1,0-0.2,0-0.3,0c0.1,2.3,2.4,4.1,5.1,4.1l0,0c1.4,0,2.7,0.5,3.6,1.3c2,1.7,5.2,1.7,7.2,0
		c1-0.8,2.3-1.3,3.6-1.3l0,0c2.8,0,5.1-1.9,5.1-4.3c0-1.1,0.5-2.2,1.5-3C129.1,748.1,129.1,745.4,127.1,743.8z"/>
	<path class="st2" d="M154.9,755.2L154.9,755.2c1,0.8,2.3,1.3,3.6,1.3l0,0c2.8,0,5.1,1.9,5.1,4.3l0,0c0,1.1,0.5,2.2,1.5,3l0,0
		c2,1.7,2,4.4,0,6l0,0c-1,0.8-1.5,1.9-1.5,3l0,0c0,2.4-2.3,4.3-5.1,4.3l0,0c-1.4,0-2.7,0.5-3.6,1.3l0,0c-2,1.7-5.2,1.7-7.2,0l0,0
		c-1-0.8-2.3-1.3-3.6-1.3l0,0c-2.8,0-5.1-1.9-5.1-4.3l0,0c0-1.1-0.5-2.2-1.5-3l0,0c-2-1.7-2-4.4,0-6l0,0c1-0.8,1.5-1.9,1.5-3l0,0
		c0-2.4,2.3-4.3,5.1-4.3l0,0c1.4,0,2.7-0.5,3.6-1.3l0,0C149.7,753.5,152.9,753.5,154.9,755.2z"/>
	<ellipse class="st3" cx="151.3" cy="766.8" rx="7.5" ry="6.3"/>
	<path class="st2" d="M159.3,723.3L159.3,723.3c1,0.8,2.3,1.3,3.6,1.3l0,0c2.8,0,5.1,1.9,5.1,4.3l0,0c0,1.1,0.5,2.2,1.5,3l0,0
		c2,1.7,2,4.4,0,6l0,0c-1,0.8-1.5,1.9-1.5,3l0,0c0,2.4-2.3,4.3-5.1,4.3l0,0c-1.4,0-2.7,0.5-3.6,1.3l0,0c-2,1.7-5.2,1.7-7.2,0l0,0
		c-1-0.8-2.3-1.3-3.6-1.3l0,0c-2.8,0-5.1-1.9-5.1-4.3l0,0c0-1.1-0.5-2.2-1.5-3l0,0c-2-1.7-2-4.4,0-6l0,0c1-0.8,1.5-1.9,1.5-3l0,0
		c0-2.4,2.3-4.3,5.1-4.3l0,0c1.4,0,2.7-0.5,3.6-1.3l0,0C154,721.6,157.3,721.6,159.3,723.3z"/>
	<ellipse class="st3" cx="155.7" cy="734.8" rx="7.5" ry="6.3"/>
	<g>
		<path class="st4" d="M169.5,731.8L169.5,731.8c-1-0.8-1.5-1.9-1.5-3c0-2.3-2.2-4.2-4.9-4.3c0,0.1,0,0.1,0,0.2c0,1.1,0.5,2.2,1.5,3
			l0,0c2,1.7,2,4.4,0,6c-1,0.8-1.5,1.9-1.5,3c0,2.4-2.3,4.3-5.1,4.3l0,0c-1.4,0-2.7,0.5-3.6,1.3c-2,1.7-5.2,1.7-7.2,0
			c-1-0.8-2.3-1.3-3.6-1.3l0,0c-0.1,0-0.2,0-0.3,0c0.1,2.3,2.4,4.1,5.1,4.1l0,0c1.4,0,2.7,0.5,3.6,1.3c2,1.7,5.2,1.7,7.2,0
			c1-0.8,2.3-1.3,3.6-1.3l0,0c2.8,0,5.1-1.9,5.1-4.3c0-1.1,0.5-2.2,1.5-3C171.5,736.2,171.5,733.5,169.5,731.8z"/>
		<path class="st4" d="M165.1,763.7L165.1,763.7c-1-0.8-1.5-1.9-1.5-3c0-2.3-2.2-4.2-4.9-4.3c0,0.1,0,0.1,0,0.2c0,1.1,0.5,2.2,1.5,3
			l0,0c2,1.7,2,4.4,0,6c-1,0.8-1.5,1.9-1.5,3c0,2.4-2.3,4.3-5.1,4.3l0,0c-1.4,0-2.7,0.5-3.6,1.3c-2,1.7-5.2,1.7-7.2,0
			c-1-0.8-2.3-1.3-3.6-1.3l0,0c-0.1,0-0.2,0-0.3,0c0.1,2.3,2.4,4.1,5.1,4.1l0,0c1.4,0,2.7,0.5,3.6,1.3c2,1.7,5.2,1.7,7.2,0
			c1-0.8,2.3-1.3,3.6-1.3l0,0c2.8,0,5.1-1.9,5.1-4.3c0-1.1,0.5-2.2,1.5-3C167.1,768.1,167.1,765.4,165.1,763.7z"/>
	</g>
</g>
</svg>
