<?xml version="1.0" encoding="utf-8"?>
<!-- Generator: Adobe Illustrator 22.0.0, SVG Export Plug-In . SVG Version: 6.00 Build 0)  -->
<svg version="1.1" id="fs" xmlns="http://www.w3.org/2000/svg" xmlns:xlink="http://www.w3.org/1999/xlink" x="0px" y="0px"
	 viewBox="0 0 1000 1000" style="enable-background:new 0 0 1000 1000;" xml:space="preserve">
<style type="text/css">
	.stc0{opacity:0.1;fill:#35C497;enable-background:new    ;}
	.stc1{fill:#FFFFFF;stroke:#35C497;stroke-width:34;stroke-miterlimit:10;}
	.stc2{fill:#35C497;}
	.stc3{display:none;fill:#296853;}
	.stc4{opacity:0.1;fill:#FFFFFF;stroke:#000000;stroke-miterlimit:10;}
</style>
<path class="stc0" d="M487.3,301l42.9-201.5v205.9l82.9-188.8L569.8,318l121.5-166.8l-84,188.8l153.2-138.5L639,368.3l178.5-103.4
	l-153.7,138L860,339L681,442l204.9-22l-196.1,63.4l204.9,21.5l-204.9,21.5l196.1,63.4l-204.9-22l179,102.9l-196.1-63.9l153.7,138
	L638.5,642l121,166.8L607.3,670.2l84.4,188.3l-121-166.8l43.4,201.5l-83.9-188.3v205.9l-42.9-201.5l-42.9,201.5V704.9L361,892.7
	l43.4-201.5L282.9,858l84.4-188.3l-153.2,138l121-166.8l-178.5,104l153.7-138l-196.1,63.9l179-102.9L88.3,589.3l196.1-63.4L79,504.4
	l204.9-21.5L87.8,419.5l204.9,22L114.1,339l196.1,63.9L157,264.9l178.5,103.4L214.1,201.5L367.3,340l-83.9-188.8L404.9,318
	l-43.4-201.5l82.9,188.8V99.5L487.3,301z"/>
<path class="stc1" d="M789,501.2v-13c0-56.7-46.3-103-103-103H341V240.8H225v144.5h-35c-56.7,0-103,46.3-103,103v168
	c0,56.7,46.3,103,103,103h496c56.7,0,103-46.3,103-103v-15h124v-140L789,501.2L789,501.2z"/>
<path class="stc2" d="M738,597.5c-16.2,12.6-40.1,28.3-79.6,28.3c-44.3,0-68.9-19.6-85.1-32.6c-11.9-9.6-16-12.8-28.5-12.8
	s-16.5,3.2-28.4,12.8c-16.2,13-40.8,32.7-85.1,32.7s-68.9-19.6-85.1-32.6c-11.9-9.6-16-12.8-28.4-12.8c-12.5,0-16.5,3.2-28.4,12.8
	l0,0l0,0c-16.2,13-40.8,32.6-85.1,32.6c-29.9,0-50.8-8.9-66.2-18.8v49.2c0,28.7,23.3,52,52,52h496c28.7,0,52-23.3,52-52v-58.8H738z"
	/>
<path class="stc3" d="M722.3,566.6c-14.8,11.8-31.5,25.2-63.9,25.2s-49.1-13.4-63.9-25.2c-13.6-10.9-25.3-20.2-49.7-20.2
	s-36.1,9.4-49.7,20.2c-14.8,11.8-31.5,25.2-63.9,25.2s-49.1-13.4-63.9-25.2c-13.6-10.9-25.3-20.2-49.7-20.2s-36.1,9.4-49.7,20.2
	c-14.8,11.8-31.5,25.2-63.9,25.2s-49.1-13.4-63.8-25.2c-10.8-8.7-20.5-16.4-36.4-19.1v108.8c0,47.4,38.6,86,86,86h496
	c47.4,0,86-38.6,86-86V546.4C747.6,546.4,735.9,555.7,722.3,566.6z"/>
<rect onclick="alert('click!')" x="71" y="216" class="stc4" width="863" height="569"/>
</svg>
