<?xml version="1.0" standalone="yes"?>
<svg xmlns="http://www.w3.org/2000/svg" width="90" height="90">
<path style="fill:#ffffff; stroke:none;" d="M0 0L0 90L90 90L90 0L0 0z"/>
<path style="fill:#dfdf60; stroke:none;" d="M75 21L75 12C63.4687 12 51.5277 11.0945 40.0394 12.0579C36.1047 12.3878 33.0364 14.8135 28.9992 14.9807C26.3795 15.0892 13.3327 13.3112 14.9707 18.7407C16.1399 22.6163 25.9679 21 29 21L75 21M18 27C18 39.3664 18.6595 51.7065 19.8302 64C20.2065 67.9512 19.0483 73.4547 22.4336 76.3966C25.1246 78.7351 29.7126 77.9998 33 78L59 78C57.3129 68.88 60.9334 61.5511 71 61L72 27L18 27M65.3179 67.0278C58.9451 71.2636 66.0676 81.3687 72.6821 76.9722C79.0549 72.7364 71.9324 62.6313 65.3179 67.0278z"/>
</svg>
