<?xml version="1.0" encoding="utf-8"?>
<!-- Generator: Adobe Illustrator 25.3.0, SVG Export Plug-In . SVG Version: 6.00 Build 0)  -->
<svg version="1.1" id="Calque_1" xmlns="http://www.w3.org/2000/svg" xmlns:xlink="http://www.w3.org/1999/xlink" x="0px" y="0px"
	 viewBox="0 0 800 800" style="enable-background:new 0 0 800 800;" xml:space="preserve">
<style type="text/css">
	.st0{fill:#164477;}
	.st1{fill:#3399CC;}
</style>
<path class="st0" d="M312.7,7.6c-449.4,97.2-378.8,793.6,87.4,790.2c466.2,3.4,536.7-693,87.5-790.2v111.3
	c313.8,92.7,244.3,574.1-87.3,570.8C68.6,693-1.1,211.7,312.8,118.9L312.7,7.6L312.7,7.6z"/>
<path class="st1" d="M400.2,0c-20.3,0-40,1.5-59.6,4.4v109.5c39.3-8,79.8-7.9,119.1,0.1V4.6C440.1,1.6,420.1,0,400.2,0z"/>
<path class="st1" d="M400,140.1c-20.5,0-40.4,2.3-59.4,6.7v506.4c38.7,9,80.7,8.9,119,0V146.9C440.2,142.3,420.2,140,400,140.1z"/>
</svg>
