<?xml version="1.0" encoding="utf-8"?>
<!-- Generator: Adobe Illustrator 28.0.0, SVG Export Plug-In . SVG Version: 6.00 Build 0)  -->
<svg version="1.1" id="Capa_1" xmlns="http://www.w3.org/2000/svg" xmlns:xlink="http://www.w3.org/1999/xlink" x="0px" y="0px"
	 viewBox="0 0 800 800" style="enable-background:new 0 0 800 800;" xml:space="preserve">
<style type="text/css">
	.st0{fill:#00B914;}
</style>
<g>
	<rect x="38.3" y="775.5" class="st0" width="15.3" height="9.8"/>
	<rect x="41.9" y="767.1" class="st0" width="8.5" height="9.1"/>
	<g>
		<path d="M40.1,753.1c1,0,1.8-0.9,1.8-2s-0.8-2-1.8-2h0c-1,0-1.8,0.9-1.8,2S39.1,753.1,40.1,753.1z"/>
		<path d="M25.2,772.2L25.2,772.2c-1,0-1.8,0.9-1.8,2c0,1.1,0.8,2,1.8,2c1,0,1.8-0.9,1.8-2C27,773.1,26.2,772.2,25.2,772.2z"/>
		<path d="M63.8,775.5c-1,0-1.8,0.9-1.8,2s0.8,2,1.8,2c1,0,1.8-0.9,1.8-2S64.8,775.5,63.8,775.5L63.8,775.5z"/>
		<path d="M71.2,785.3H57.3v-11.9c0-1.1-0.8-2-1.8-2h-2.9v-3.9h2.9c1,0,1.8-0.9,1.8-2v-7.9c0-1.1-0.8-2-1.8-2H36.5
			c-1,0-1.8,0.9-1.8,2v7.9c0,1.1,0.8,2,1.8,2h2.9v3.9h-2.9c-1,0-1.8,0.9-1.8,2v11.9H20.8c-1,0-1.8,0.9-1.8,2c0,1.1,0.8,2,1.8,2h50.4
			c1,0,1.8-0.9,1.8-2C73,786.2,72.2,785.3,71.2,785.3z M38.3,759.7h15.3v3.9H38.3V759.7z M38.3,775.5h2.9c1,0,1.8-0.9,1.8-2v-5.9
			h5.9v5.9c0,1.1,0.8,2,1.8,2h2.9v9.9H38.3L38.3,775.5L38.3,775.5z"/>
		<path d="M24.5,750.7c0.9,0.6,2,0.7,3.1,0l0.2-0.1c0.9-0.5,1.1-0.7,2.8,0.4c0.2,0.1,0.4,0.2,0.6,0.2c0.2,0,0.5-0.1,0.7-0.2
			c0.4-0.3,0.6-0.8,0.6-1.3c-0.2-2.3-1.6-6.6-6-6.6c-2,0-3.7,1.8-3.7,4.1C22.7,748.6,23.4,750,24.5,750.7z M26.4,745.9
			c1.4,0,2.3,0.7,2.8,1.6c-1-0.1-1.7,0.2-2.6,0.7l-0.2,0.1c-0.4,0.2-0.5,0.1-0.6,0c-0.3-0.2-0.5-0.7-0.5-1.2
			C25.2,746.5,25.8,745.9,26.4,745.9z"/>
		<path d="M58.8,755.6C58.8,755.6,58.8,755.6,58.8,755.6c0.5,0,0.9-0.3,1.1-0.8c1.2-2.5,1.6-2.6,2.9-2.7l0.2,0
			c1.3-0.2,2.4-0.9,2.9-2.2c0.6-1.4,0.5-3.3-0.4-4.7c-0.6-1-1.6-1.8-2.7-2c-1.1-0.2-2.2,0-3.2,0.7c-4.4,3.2-3.2,8.6-2,11
			C57.9,755.3,58.3,755.6,58.8,755.6z M61.1,746.3c0.4-0.3,0.8-0.4,1.3-0.3c0.4,0.1,0.8,0.4,1.1,0.8c0.3,0.5,0.4,1.4,0.2,1.9
			c-0.1,0.2-0.3,0.5-0.9,0.6l-0.2,0c-1.3,0.2-2.3,0.4-3.4,1.7C59,749.5,59.3,747.6,61.1,746.3z"/>
		<path d="M22.8,763.9c0.5,0.2,1.1,0.3,1.6,0.3c0.9,0,1.9-0.3,2.6-0.9c1-0.8,1.5-2.1,1.3-3.6l0-0.3c-0.1-1.4-0.2-1.9,1.8-3.7
			c0.4-0.3,0.5-0.8,0.4-1.3c-0.1-0.5-0.4-0.9-0.9-1.1c-2.3-0.8-7.3-0.9-9.3,4.5C19.6,760.2,20.6,762.9,22.8,763.9z M22.8,758.8
			c0.7-1.8,1.8-2.8,3.5-3.1c0.1,0,0.2,0,0.3,0c-0.9,1.4-0.9,2.6-0.8,4l0,0.2c0.1,0.7-0.2,1-0.4,1.1c-0.4,0.4-1.2,0.4-1.7,0.2
			C22.9,760.9,22.4,759.8,22.8,758.8z"/>
		<path d="M62.6,756.5c-0.8,0.7-1.2,1.9-1.1,3.1l0,0.2c0.1,1.1,0.2,1.3-1.2,2.7c-0.4,0.3-0.5,0.9-0.4,1.4c0.1,0.5,0.4,0.9,0.9,1
			c0.5,0.2,1.2,0.3,1.9,0.3c2,0,4.5-0.9,5.6-4.2c0.7-2.1-0.3-4.3-2.1-5.1C64.9,755.4,63.5,755.7,62.6,756.5z M65.9,760.1
			c-0.5,1.4-1.3,2-2.1,2.2c0.4-0.9,0.4-1.8,0.3-2.8l0-0.2c0-0.4,0.1-0.5,0.2-0.6c0.2-0.1,0.4-0.2,0.7-0.2c0.1,0,0.3,0,0.4,0.1
			C65.8,758.8,66.1,759.4,65.9,760.1z"/>
		<path d="M31.7,741.8l0.2,0.1c1.3,0.4,1.7,0.5,2.5,3.2c0.2,0.5,0.5,0.8,1,0.9c0.1,0,0.1,0,0.2,0c0.4,0,0.8-0.2,1-0.5
			c1.5-2.2,3.3-7.3-0.6-11.2c-1.7-1.7-4.4-1.6-6,0.3c-1,1.2-1.4,3.1-1,4.6C29.4,740.4,30.4,741.4,31.7,741.8z M31.9,736.4
			c0.3-0.4,0.8-0.6,1.3-0.6c0.4,0,0.8,0.2,1.1,0.5c1.3,1.3,1.8,2.9,1.4,4.7c0,0.1,0,0.2-0.1,0.3c-0.9-1.5-1.8-1.8-3.1-2.2l-0.2-0.1
			c-0.6-0.2-0.8-0.5-0.8-0.8C31.3,737.7,31.5,736.9,31.9,736.4z"/>
	</g>
	<rect x="36.9" y="758.1" class="st0" width="18.2" height="6.6"/>
	<rect x="40.1" y="769.8" width="1.2" height="0.1"/>
</g>
</svg>
