<?xml version="1.0" encoding="utf-8"?>
<!-- Generator: Adobe Illustrator 25.3.0, SVG Export Plug-In . SVG Version: 6.00 Build 0)  -->
<svg version="1.1" id="Calque_1" xmlns="http://www.w3.org/2000/svg" xmlns:xlink="http://www.w3.org/1999/xlink" x="0px" y="0px"
	 viewBox="0 0 906 1280" style="enable-background:new 0 0 906 1280;" xml:space="preserve">
<g transform="translate(0.000000,1280.000000) scale(0.100000,-0.100000)">
	<path d="M4717.4,12375c-28.7-14-59.6-25-67-25s-31.9-11-53.2-25c-21.3-14-50-25-63.8-25c-79.8,0-195.7-112-285-276
		c-30.8-58-57.4-113-57.4-122s-10.6-26-23.4-39c-23.4-23-33-44-67-138c-10.6-27-27.6-72-37.2-100c-24.5-63-30.8-93-42.5-180
		c-13.8-101-12.8-407,1.1-481c11.7-66,9.6-63,129.7-160c26.6-21,16-46-55.3-124c-33-37-73.4-88-91.5-115
		c-130.8-198-276.5-464-350.9-640c-27.6-66-64.9-147-82.9-180c-47.9-89-121.2-247-163.8-355c-40.4-100-142.5-307-173.3-350
		c-21.3-29-112.7-222-154.2-325c-16-38-33-74-37.2-80c-4.3-5-11.7-21-16-35s-17-37-27.6-52c-11.7-14-35.1-59-54.2-100
		c-29.8-65-34-86-39.3-198l-6.4-125l-202.1-7c-110.6-4-223.3-12-249.9-18s-114.9-19-196.7-30c-261.6-34-381.8-58-648.7-131
		c-40.4-11-95.7-29-122.3-39c-26.6-10-74.4-28-106.3-38c-70.2-24-295.6-126-396.7-179c-135.1-72-354.1-242-461.5-358
		c-58.5-64-160.6-218-169.1-255c-3.2-14-12.8-41-20.2-60c-52.1-121-46.8-412,9.6-559c9.6-24,17-52,17-63c0-47,90.4-154,170.2-200
		c14.9-9,43.6-44,62.7-79c19.1-35,47.9-80,63.8-99c17-19,33-45,37.2-57c4.3-12,13.8-27,22.3-33c8.5-7,16-27,16-46
		c0-25-7.4-38-28.7-51c-14.9-10-46.8-35-69.1-55c-23.4-20-58.5-42-77.6-48c-20.2-6-39.3-16-43.6-21c-3.2-5-33-28-65.9-51
		c-82.9-57-136.1-106-167-154c-14.9-22-38.3-51-54.2-65c-25.5-23-68.1-92-68.1-112c0-5-12.8-23-27.6-40C51,5197,0,5044,0,4906
		c0-50,4.3-103,10.6-119c6.4-15,25.5-81,42.5-146c55.3-204,75.5-250,163.8-353c118-139,292.4-292,436-383
		c68.1-44,145.7-93,171.2-110c24.5-16,89.3-68,141.4-115c78.7-70,120.2-97,218-144c65.9-32,148.9-78,184-102s88.3-55,117-68
		c29.8-13,62.7-33,73.4-45c11.7-11,25.5-21,31.9-21s38.3-13,70.2-28c215.9-103,307.3-145,409.4-188c35.1-14,88.3-37,117-50
		c29.8-13,58.5-24,64.9-24c28.7,0,51-43,59.6-112c5.3-51,13.8-78,28.7-92c11.7-12,36.2-38,54.2-58c42.5-48,124.4-68,194.6-48
		c71.3,20,92.5,32,126.5,72c28.7,34,36.2,38,80.8,38c28.7,0,77.6-11,113.8-25c35.1-13,79.8-25,98.9-25s53.2-9,76.6-20
		s52.1-20,64.9-20c13.8,0,38.3-4,56.4-10c18.1-5,86.1-21,149.9-34c173.3-37,202.1-48,202.1-82c0-28-7.4-31-292.4-139
		c-421.1-160-713.6-290-1016.7-450c-162.7-86-383.9-215-466.9-272c-25.5-18-50-33-53.2-33s-42.5-25-86.1-55
		c-109.5-77-138.2-122-147.8-232l-8.5-85l-70.2-67c-55.3-51-82.9-88-121.2-163c-29.8-57-53.2-117-57.4-147c-5.3-45-3.2-53,29.8-92
		c75.5-91,123.4-128,186.1-145c135.1-37,241.4,12,287.1,131c9.6,24,19.1,31,50,36c46.8,7,76.6,31,104.2,81c16,30,20.2,59,20.2,142
		c0,115-2.1,112,74.4,137c35.1,11,56.4,27,77.6,57c26.6,37,52.1,52,219.1,130c274.4,126,339.2,153,516.8,211
		c88.3,29,186.1,63,218,76c57.4,22,93.6,33,345.6,99c176.5,46,210.6,54,313.7,76c545.5,114,624.2,119,823.1,59l104.2-31l44.7-92
		c50-99,84-183,132.9-321c18.1-49,60.6-169,96.8-265c35.1-96,72.3-200,80.8-230c20.2-72,55.3-184,74.4-240
		c31.9-89,58.5-214,62.7-289c2.1-42,11.7-98,20.2-125c28.7-84,25.5-90-54.2-126c-79.8-34-173.3-113-206.3-172
		c-10.6-21-20.2-42-20.2-48c0-7,118-10,361.6-10h361.6v60c0,32,7.4,80,17,105c12.8,37,14.9,83,11.7,238c-3.2,176-7.4,206-42.5,357
		c-51,217-63.8,273-96.8,405c-14.9,61-36.2,151-47.9,200c-11.7,50-28.7,119-38.3,155c-9.6,36-25.5,106-36.2,155
		c-11.7,50-35.1,145-54.2,213c-20.2,74-31.9,132-27.6,147c9.6,34,56.4,59,148.9,82c69.1,16,127.6,18,649.8,17
		c382.8,0,606.2-4,670-12c53.2-7,139.3-17,191.4-23c207.4-22,495.6-76,691.2-130c75.5-20,77.6-51,6.4-122
		c-69.1-70-96.8-124-104.2-206c-6.4-68-5.3-68,34-110c21.3-22,46.8-41,55.3-41c13.8,0,79.8-29,254.2-113c36.2-17,37.2-17,81.9,7
		c25.5,14,60.6,46,79.8,71c63.8,85,69.1,106,71.3,282c3.2,145,5.3,167,25.5,198c19.1,31,22.3,52,22.3,154v118l-34,36
		c-39.3,41-135.1,99-196.7,117c-22.3,7-52.1,19-67,26c-35.1,18-202.1,78-340.3,121c-61.7,20-142.5,45-180.8,58
		c-226.5,73-711.4,175-972,205c-52.1,6-98.9,13-103.2,16c-4.3,2-67,11-139.3,19s-163.8,22-205.2,29c-40.4,8-126.5,20-189.3,26
		c-125.5,12-167,24-167,50c0,21,53.2,97,94.6,134c26.6,24,37.2,27,67,21c19.1-4,54.2-7,77.6-7c55.3,1,152.1-25,185-49
		c54.2-40,110.6-12,171.2,86c21.3,35,24.5,54,25.5,148l1.1,109l39.3,30c35.1,26,46.8,29,90.4,25c28.7-2,77.6-12,109.5-21
		c73.4-21,149.9-30,185-22c22.3,5,27.6,12,27.6,37c0,46,59.6,99,111.7,99c21.3,0,47.9-4,58.5-10c14.9-7,34,0,87.2,33
		c208.4,129,487.1,406,487.1,483c0,21,21.3,49,111.7,151c35.1,39,132.9,171,132.9,179c0,2,14.9,23,31.9,46c18.1,22,31.9,48,31.9,57
		s11.7,34,26.6,56c13.8,22,40.4,67,59.6,100c68.1,121,58.5,115,191.4,115c134,0,172.3,11,212.7,61c21.3,26,29.8,51,35.1,104
		c4.3,39,13.8,100,22.3,137c10.6,47,11.7,77,4.3,100c-5.3,18-9.6,53-9.6,78s-5.3,89-12.8,143c-13.8,109-4.3,224,33,377
		c38.3,152,22.3,262-47.9,341l-36.2,41v112c0,124,10.6,152,61.7,158c23.4,2,29.8,9,31.9,33c1.1,17,12.8,67,24.5,113
		c16,62,30.8,95,62.7,135c37.2,46,42.5,58,42.5,107c0,61-10.6,81-77.6,147l-42.5,42l18.1,63c9.6,35,24.5,88,33,118
		c7.4,30,24.5,87,36.2,125c30.8,98,72.3,253,79.8,300c4.3,22,19.1,85,33,140c13.8,55,35.1,143,47.9,195c28.7,127,58.5,255,84,365
		c11.7,50,34,151,48.9,225c16,74,44.7,207,63.8,295c52.1,231,103.2,471,112.7,535c9.6,57,22.3,117,39.3,185c6.4,22,17,78,24.5,125
		c6.4,47,17,96,22.3,110c6.4,14,14.9,57,19.1,95c23.4,180,31.9,243,41.5,280c5.3,22,14.9,103,21.3,180c7.4,77,17,168,22.3,201
		c18.1,109,13.8,575-7.4,687c-17,97-17,99,5.3,166c12.8,37,23.4,84,23.4,104s6.4,61,14.9,91c10.6,38,13.8,84,9.6,148
		c-4.3,79-10.6,104-41.5,165c-20.2,39-44.7,77-53.2,84s-22.3,26-29.8,43c-8.5,17-46.8,56-85.1,86c-39.3,30-93.6,74-121.2,96
		c-67,56-117,74-204.2,74c-39.3,0-94.6,7-123.4,16c-86.1,27-739.1,54-809.3,34c-126.5-36-778.4-15-1109.2,35
		c-131.9,20-481.7,44-808.2,55c-143.6,5-339.2,13-436,19C4789.8,12402,4775.9,12402,4717.4,12375z M3030.8,7335
		c27.6-27,64.9-74,80.8-103c34-60,91.5-112,179.7-161c36.2-20,61.7-42,64.9-55c2.1-11,6.4-85,9.6-162c5.3-112,3.2-144-7.4-153
		c-8.5-6-82.9-13-184-16c-92.5-4-195.7-11-227.6-16c-31.9-6-90.4-14-129.7-19c-38.3-4-148.9-29-244.6-55c-95.7-25-199.9-53-231.8-61
		c-128.7-33-234-68-329.7-111c-256.3-114-259.5-116-332.9-185c-40.4-37-88.3-76-107.4-88c-52.1-30-121.2-104-144.6-154
		c-21.3-47-50-60-109.5-49c-50,10-268,257-322.2,367c-50,100-29.8,283,43.6,402c25.5,42,157.4,164,176.5,164c5.3,0,14.9,11,20.2,24
		c13.8,35,122.3,103,276.5,172c31.9,14,81.9,37,109.5,50c28.7,13,56.4,24,62.7,24c6.4,0,54.2,19,108.5,41c53.2,23,142.5,55,197.8,71
		c55.3,17,131.9,40,170.2,53c60.6,20,220.1,57,297.8,69c14.9,2,138.2,3,274.4,3l246.7-1L3030.8,7335z"/>
</g>
</svg>
