<?xml version="1.0" standalone="no"?>
<!DOCTYPE svg PUBLIC "-//W3C//DTD SVG 20010904//EN"
 "http://www.w3.org/TR/2001/REC-SVG-20010904/DTD/svg10.dtd">
<svg version="1.0" xmlns="http://www.w3.org/2000/svg"
 width="1280.000000pt" height="1008.000000pt" viewBox="0 0 1280.000000 1008.000000"
 preserveAspectRatio="xMidYMid meet">
<metadata>
Created by potrace 1.15, written by Peter Selinger 2001-2017
</metadata>
<g transform="translate(0.000000,1008.000000) scale(0.100000,-0.100000)"
fill="#000000" stroke="none">
<path class="lbureau" d="M6220 10074 c-1154 -32 -2257 -129 -2849 -250 -748 -152 -1645 -415
-2024 -591 -77 -36 -140 -58 -185 -65 -129 -20 -338 -101 -552 -215 -341 -181
-463 -322 -545 -625 -109 -401 -89 -860 150 -3595 158 -1812 199 -2320 215
-2653 12 -279 28 -344 113 -455 56 -74 119 -128 283 -246 487 -348 1352 -863
1981 -1178 374 -187 498 -223 655 -190 110 23 563 151 636 179 43 17 122 57
177 90 159 96 214 108 615 135 767 51 1221 113 2390 325 703 127 820 150 1065
211 179 45 214 50 330 53 104 3 162 11 292 39 89 20 228 48 310 62 345 58 819
180 1526 395 517 156 670 195 957 244 296 51 466 128 889 403 80 52 147 96
149 98 2 1 -4 148 -12 326 -31 655 -55 1442 -81 2734 l-15 750 -168 164 c-269
263 -451 399 -732 545 -234 121 -402 187 -731 286 -223 67 -348 113 -379 138
-28 23 -50 143 -106 576 -25 193 -61 450 -80 571 -19 121 -42 290 -49 375 -21
228 -105 513 -230 777 -133 280 -329 375 -944 453 -436 55 -887 93 -1451 120
-209 11 -1368 20 -1600 14z m1430 -178 c729 -57 1233 -106 1640 -161 269 -37
309 -47 448 -116 102 -50 136 -74 206 -140 92 -86 152 -171 191 -268 77 -188
292 -1557 298 -1890 1 -89 0 -94 -25 -116 -38 -33 -103 -36 -438 -25 -162 5
-314 10 -338 10 -42 0 -43 -1 -128 -107 -113 -143 -168 -227 -225 -348 -80
-168 -112 -323 -124 -595 -6 -168 -22 -286 -41 -304 -19 -20 -215 -38 -599
-56 -326 -16 -732 -50 -890 -75 -606 -97 -1078 -148 -1740 -190 -817 -52
-1152 -98 -1409 -197 -201 -78 -386 -138 -442 -144 -68 -8 -111 13 -176 88
-98 112 -439 320 -963 589 -289 148 -434 211 -577 254 -62 18 -166 51 -230 73
-133 47 -266 75 -418 91 -98 10 -112 14 -215 68 -103 53 -115 56 -180 57 -89
0 -165 -24 -360 -116 -82 -39 -181 -81 -219 -94 -80 -28 -111 -49 -226 -160
-79 -75 -133 -114 -160 -114 -29 0 -43 117 -70 570 -11 179 -33 494 -51 700
-35 428 -35 542 6 734 48 231 143 553 191 648 30 60 109 113 326 217 626 303
1928 723 2653 855 193 36 389 61 692 90 706 69 2037 173 2408 190 204 9 991
-3 1185 -18z m2595 -2892 c237 -30 826 -149 982 -199 435 -138 759 -342 1135
-715 l207 -205 -10 -400 c-11 -410 -6 -1156 11 -1715 14 -448 39 -1193 44
-1273 l3 -69 -121 -99 c-235 -194 -483 -343 -670 -404 -103 -34 -131 -29 -153
23 -8 20 -40 156 -69 302 -30 146 -75 356 -99 467 -25 112 -45 218 -45 237 0
47 15 83 56 133 51 62 72 118 84 219 13 119 13 1087 -1 1212 -16 148 -35 202
-110 313 -140 207 -396 368 -799 503 -107 35 -264 90 -349 121 -99 36 -182 60
-235 67 -121 15 -200 42 -311 103 -165 91 -237 124 -293 135 -29 5 -64 18 -77
27 -62 46 -95 165 -95 348 0 238 27 350 118 489 30 46 60 107 72 147 20 65 51
114 105 162 48 42 113 82 155 94 60 17 209 10 465 -23z m-8915 -838 c303 -50
675 -166 1123 -350 322 -132 879 -404 1037 -507 138 -89 187 -134 352 -324
l148 -169 0 -421 c1 -1034 31 -1943 70 -2100 55 -222 177 -1242 196 -1647 l7
-147 -36 -36 c-19 -19 -44 -35 -54 -35 -22 0 -207 -62 -343 -115 -258 -100
-453 -130 -589 -89 -69 20 -917 453 -1124 573 -531 308 -1236 781 -1382 927
-71 71 -86 139 -120 559 -58 730 -67 832 -91 1085 -14 146 -49 497 -79 780
-72 683 -73 698 -85 898 -16 261 5 415 75 552 59 114 215 305 329 402 192 163
330 203 566 164z m7660 -546 c391 -14 458 -31 983 -249 301 -125 576 -211 674
-211 79 0 291 -90 431 -184 109 -72 146 -110 187 -188 21 -40 58 -103 82 -141
55 -85 75 -142 101 -293 36 -205 45 -340 39 -587 -6 -263 -17 -333 -72 -444
-68 -137 -209 -238 -486 -347 -93 -36 -1385 -450 -2014 -644 -501 -155 -706
-187 -1800 -281 -493 -43 -744 -56 -1395 -72 -634 -16 -1359 -3 -1387 24 -7 8
-78 388 -92 497 -32 253 -64 821 -81 1465 -6 220 -15 553 -20 740 -5 186 -8
341 -6 342 6 6 275 82 471 133 388 101 658 139 1495 210 872 74 1213 114 1435
170 162 41 275 51 630 59 459 11 556 11 825 1z m2269 -2747 c30 -25 39 -71 51
-270 19 -297 -13 -716 -57 -765 -45 -50 -230 -114 -608 -212 -230 -59 -334
-90 -485 -145 -217 -77 -3016 -636 -3885 -775 -275 -44 -413 -58 -620 -62
-231 -4 -286 -10 -684 -70 -162 -25 -316 -46 -342 -47 -54 -2 -79 15 -109 74
-39 75 -52 163 -101 659 -35 361 -41 508 -20 533 12 16 68 17 645 17 845 0
1095 10 1716 65 151 14 469 41 705 60 837 68 836 68 1900 385 807 240 1066
320 1406 437 274 93 400 131 445 132 12 1 32 -7 43 -16z"/>
<path d="M10363 6283 c-8 -21 25 -81 57 -104 42 -31 146 -52 232 -47 83 5 111
19 106 52 -3 19 -10 21 -83 21 -76 0 -85 3 -174 48 -100 50 -128 57 -138 30z"/>
<path d="M10936 6084 c-9 -8 -16 -25 -16 -37 0 -35 107 -129 231 -202 148 -88
455 -240 519 -256 27 -7 53 -20 57 -28 4 -9 8 -198 9 -421 1 -411 5 -472 39
-500 12 -10 17 -7 26 16 47 124 91 442 92 664 1 144 -13 177 -127 297 -169
179 -492 391 -703 462 -74 25 -106 26 -127 5z"/>
<path d="M1570 5263 c-28 -11 -50 -36 -50 -58 0 -43 113 -127 360 -267 147
-84 232 -126 295 -148 27 -10 106 -45 175 -78 120 -58 194 -86 345 -132 143
-44 173 -76 214 -232 52 -195 77 -425 91 -818 10 -291 15 -344 39 -388 21 -39
33 -30 79 63 43 87 56 174 55 370 -2 347 -73 697 -189 926 -106 213 -97 206
-574 391 -138 53 -369 164 -475 228 -169 102 -319 161 -365 143z"/>
</g>
</svg>
