<?xml version="1.0" encoding="utf-8"?>
<!-- Generator: Adobe Illustrator 25.3.0, SVG Export Plug-In . SVG Version: 6.00 Build 0)  -->
<svg version="1.1" id="Calque_1" xmlns="http://www.w3.org/2000/svg" xmlns:xlink="http://www.w3.org/1999/xlink" x="0px" y="0px"
	 viewBox="0 0 1280 1280" style="enable-background:new 0 0 1280 1280;" xml:space="preserve">
<style type="text/css">
	.st0{fill:#34A936;}
</style>
<g transform="translate(0.000000,1280.000000) scale(0.100000,-0.100000)">
	<path d="M6215,12173c-66-23-149-103-164-158c-34-125,15-269,114-337c21-13,35-31,35-44c0-11,14-33,30-49c30-29,40-74,22-102
		c-6-9-151-15-587-23c-1220-21-2015-49-2056-71c-27-14-24-55,4-71l23-13l-93-445c-51-245-160-760-243-1145
		c-82-385-214-1010-294-1390c-80-379-175-827-211-995s-68-317-72-332c-3-16-9-28-13-28c-5,0-22-12-39-26c-23-19-31-34-31-60
		c0-29,5-36,39-54c205-104,912-159,2542-196l277-6l-58-112c-143-271-238-530-335-912c-44-172-58-247-76-410c-19-186-20-217-9-489
		c16-429,36-707,86-1225c43-449,109-1043,139-1260c8-58,28-232,44-387c22-199,36-297,51-334c18-48,20-77,20-250c0-190,1-196,23-217
		c192-180,1496-214,1869-49c88,39,89,42,81,248c-6,165-5,178,14,205c22,33,39,75,47,119c17,90,177,1431,231,1925
		c35,331,62,689,82,1092c22,451,14,611-47,902c-49,237-57,262-172,576c-92,250-152,388-226,518c-27,48-37,74-29,77c6,2,125,6,262,10
		c817,20,1743,87,2222,161c224,34,322,66,357,115c19,28,12,47-36,90c-39,35-41,41-79,200c-59,249-166,720-314,1384
		c-201,901-417,1861-500,2220c-76,330-118,526-113,529c2,1,15,7,31,14c29,13,35,33,14,51c-8,6-47,15-88,21c-92,12-1262,30-2025,30
		h-572l-6,23c-10,40-6,56,23,89c15,18,31,43,35,55s21,31,39,42c113,70,154,197,106,327c-42,112-127,173-253,180
		C6286,12189,6250,12185,6215,12173z"/>
</g>
<rect x="4618.4" y="-250.4" class="st0" width="4.8" height="4.8"/>
</svg>
