<?xml version="1.0" encoding="utf-8"?>
<!-- Generator: Adobe Illustrator 25.3.0, SVG Export Plug-In . SVG Version: 6.00 Build 0)  -->
<svg version="1.1" id="Calque_1" xmlns="http://www.w3.org/2000/svg" xmlns:xlink="http://www.w3.org/1999/xlink" x="0px" y="0px"
	 viewBox="0 0 1280 1280" style="enable-background:new 0 0 1280 1280;" xml:space="preserve">
<style type="text/css">
	.st0{fill:#3F2323;}
</style>
<g transform="translate(0.000000,1280.000000) scale(0.100000,-0.100000)">
	<path class="st0" d="M11298,8874c-3-2-34-8-69-13c-135-18-280-74-436-167c-159-95-310-262-411-456c-51-98-111-255-111-294
		c-1-10-5-50-11-89c-67-444-81-830-54-1441l6-132l-149-5c-142-4-309-17-513-37c-52-6-124-12-160-15c-85-7-243-23-300-30
		c-25-3-85-10-135-16c-49-6-121-17-160-25c-190-39-185-34-185-170c0-66,4-105,11-110c12-7,10-70-11-444c-5-80-13-397-19-705
		c-10-552-27-1046-38-1075c-3-8-9-53-14-100c-15-166-28-253-40-261c-20-12,71-52,118-52c69,0,71,3,93,178c5,44,12,105,15,135
		s10,93,15,140c9,79,21,232,35,455c3,50,10,153,17,230c6,77,12,194,15,260c3,90,8,122,19,128c8,4,14,23,14,41s9,44,19,58
		c16,20,19,42,20,143c2,164,19,311,49,400c22,68,54,140,65,147c21,13,160,8,212-7c188-58,364-223,456-432c16-37,34-77,39-88
		c29-63,71-226,74-290c1-16,5-46,9-65s8-97,10-173c2-149,3-151,62-167c20-6,20-13,17-625c-1-341-6-714-9-828l-6-209l-26-10
		c-25-10-24-12,34-30c71-23,122-18,147,14c13,18,18,43,18,108c0,47,5,103,11,125c11,40,27,256,34,460c2,61,9,160,14,220
		c12,125,28,352,35,500c3,55,8,137,12,182c6,78,8,82,35,92c30,10,50,40,54,80c2,14,15,82,30,151s30,142,32,163c3,20,9,40,14,43
		s9,17,9,32c0,26,29,114,42,127c5,6,17-74,23-165c9-115,26-336,36-445c5-66,12-160,14-210c5-100,20-260,31-317c5-31,3-39-12-44
		c-47-15-48-17-14-26c19-5,39-14,44-19c12-11,106-12,122-1c22,14,32,48,29,97c-10,141-15,233-20,365c-5,131-11,238-31,590
		c-4,63-8,158-8,210c-1,91,0,95,22,98c27,4,40,27,36,67c-1,17-3,62-5,102c-3,69-2,73,26,95c64,51,220,131,275,142c19,3,46,9,60,12
		c59,14,156,16,207,3c77-18,135-75,158-155c9-33,20-71,24-85c5-14,9-127,10-250c2-139,6-228,13-236c6-7,21-13,34-13c18,0,24-7,28-32
		c8-49,61-350,70-393c4-25,83-348,96-395c5-19,19-66,30-104c11-37,22-78,25-90c2-11,9-39,15-61s15-57,20-77c6-20,18-61,29-90
		c34-93,61-187,61-208c0-17-6-20-50-20c-27,0-50-4-50-8c0-14,141-42,206-42c48,0,65,4,79,20c15,17,16,25,5,72c-7,29-16,60-21,68
		c-4,8-12,33-18,55s-24,87-41,144s-32,116-35,130c-6,38-44,191-55,227c-6,17-10,40-10,52c0,11-4,31-9,44s-14,55-21,93
		c-7,39-21,108-32,154s-21,100-24,120c-2,20-8,61-13,91c-38,228-46,323-56,620c-7,220,12,588,37,735c12,69,26,164,32,215
		c5,42,19,112,40,198c8,34,14,63,15,65c0,1,2,9,4,17c3,8,10,42,17,75s16,71,20,85s13,45,20,70s17,61,23,80s12,40,13,45
		c6,27,79,233,99,280c7,17,25,64,40,105c28,78,36,98,78,190c13,30,34,84,47,120s33,88,45,115c20,47,35,92,40,125c2,8,10,38,19,65
		c23,68,38,142,40,191c0,22,7,48,14,57c15,18,12,346-5,412c-22,92-110,242-180,306c-86,80-290,162-518,207
		C11545,8878,11306,8883,11298,8874z M11490,8711c24-7,23-8-15-21c-22-8-42-14-45-15c-3,0-33-16-68-35c-68-36-216-174-242-225
		c-8-16-30-52-47-80c-51-78-95-204-115-330c-24-156-29-192-33-225c-2-19-11-89-20-155s-18-140-20-165c-3-25-7-65-10-90
		c-19-152-56-552-73-781c-5-64-12-121-16-127c-3-6-9-61-12-123s-8-117-11-122c-6-10-21-8-184,24l-116,22l-13,66c-7,36-16,134-20,218
		c-4,83-11,156-14,161c-3,6-6,223-6,484c0,378,3,494,15,578c16,104,31,181,43,210c7,19,7,18,16,60c5,19,21,62,37,95
		c103,218,243,359,455,461c153,72,215,92,354,110C11442,8720,11457,8720,11490,8711z M11950,8580c74-53,123-125,156-225
		c22-71,26-269,6-375c-25-131-31-156-41-192c-6-21-15-53-20-70c-4-18-18-59-30-90c-11-32-30-84-42-115c-11-31-30-75-41-97
		c-12-23-21-43-21-46c1-9-8-34-24-70c-9-19-37-87-63-150c-74-179-141-343-150-365c-7-19-61-192-82-265c-6-19-14-45-19-58s-9-34-9-47
		s-4-27-10-30c-5-3-10-17-10-31s-4-33-9-42s-11-30-14-47c-3-16-11-55-17-85s-16-86-23-125c-14-76-30-90-62-55c-19,21-18,41,17,220
		c9,49,21,117,31,190c6,38,47,222,56,250c5,14,14,45,21,70c45,159,143,422,216,578c24,50,44,95,44,98s13,34,29,68
		c16,33,41,90,56,126s36,85,47,110s27,60,35,79c79,177,98,439,45,596c-26,78-96,191-135,218c-7,5-2,6,13,1
		C11914,8601,11936,8589,11950,8580z M11738,8544c62-31,111-90,144-172c19-49,22-77,22-202c1-127-2-154-23-220
		c-26-80-90-237-148-360c-19-41-44-97-55-125c-11-27-44-103-74-168s-54-123-54-130s-4-17-9-22c-10-11-111-306-116-340
		c-2-11-12-47-23-80s-23-76-27-95s-11-53-17-75c-5-22-13-62-18-90c-4-27-15-90-23-140c-9-49-21-119-27-155c-12-78-14-88-22-95
		c-3-3-30,3-59,13c-30,11-79,27-109,35c-30,9-84,25-120,35l-65,20v93c0,52,4,120,8,152c4,31,10,97,12,145c3,48,9,103,15,122
		c5,19,10,62,10,94c0,33,4,85,10,115c5,31,14,119,20,196c16,217,65,649,89,795c19,116,24,137,48,214c58,189,184,354,328,428
		c59,31,83,36,161,37C11673,8570,11696,8565,11738,8544z M12266,8095c15-37,1-265-16-265c-10,0-17,130-12,213
		C12242,8106,12254,8128,12266,8095z M8908,5728c6-6,12-15,12-20c0-16-59-70-70-63s-14,88-3,98C8855,5751,8889,5742,8908,5728z
		 M11436,5653c-4-32-9-70-10-85c-2-27-16-52-16-30c0,6-14,34-30,63c-25,41-28,54-19,66c10,11,59,38,78,42
		C11441,5710,11440,5684,11436,5653z M9600,5510c19-6,96-24,170-41c74-16,138-33,142-37c12-12,9-321-5-422l-12-95l-14,45
		c-7,25-19,59-27,75c-7,17-16,42-19,58c-4,15-11,30-16,33s-9,14-9,25c0,10-4,19-10,19c-5,0-10,7-10,15c0,38-139,239-202,294
		c-16,13-28,28-28,32C9560,5522,9558,5522,9600,5510z M10190,5387c0-13,4-27,9-32c5-6,11-32,14-60c6-59,31-177,41-193
		c4-6-4-33-17-59c-14-26-35-79-48-118c-12-38-27-74-31-80c-9-10-10,527-1,551C10165,5419,10190,5412,10190,5387z"/>
	<path class="st0" d="M1305,8860c-44-4-91-11-105-15c-291-83-365-131-443-290c-46-93-73-247-63-355c21-215,29-249,107-495
		c66-205,64-199,108-298c12-27,36-83,52-125c17-42,39-95,49-118c35-76,101-250,115-304c3-8,9-31,14-50s21-73,36-120
		c23-75,30-106,51-208c3-13,12-49,20-80c14-53,23-98,45-232c12-74,27-184,34-245c3-27,11-79,16-115c21-133,28-262,29-530
		c0-245-11-521-25-590c-3-14-10-72-16-130c-13-129-26-228-38-300c-25-152-31-181-46-255c-10-44-19-89-21-100c-5-36-21-110-64-295
		c-19-81-32-147-35-172c-1-16-7-40-13-55c-12-35-33-123-37-159c-4-40,26-64,80-64c47,0,107,20,119,38c4,6,11,48,17,94
		c5,46,14,97,19,113c5,17,11,44,14,60c12,66,17,91,26,125c23,87,72,302,76,335c2,11,14,74,28,140s30,147,36,180c5,33,15,85,21,115
		c5,30,12,70,14,89s9,57,14,85s15,86,22,130c13,75,15,79,56,108l43,29l-1,243c0,133,3,255,7,271c14,56,81,141,145,184
		c67,45,82,47,254,42c136-4,128,4,120-109c-4-54-10-106-12-117c-3-11-7-66-10-122c-6-101-5-102,22-127c34-31,35-13-20-416
		c-16-122-34-275-40-350c-4-49-15-130-41-310c-37-254-36-284,11-296c37-9,111,4,128,24c8,9,17,44,21,77c3,33,10,92,16,130
		c5,39,12,90,15,115c6,50,21,154,35,245c6,33,12,78,15,100c2,22,9,69,14,105c6,36,15,94,20,130c6,36,12,76,15,90
		c17,81,49,272,52,315c2,28,7,73,12,100c7,48,8,50,42,53c83,6,87,11,91,117c1,28,6,58,11,68c9,17,12,16,46-9c59-43,120-112,179-202
		c56-84,124-236,137-302c14-78,26-180,32-270c7-103,15-130,42-130c10,0,27-7,38-15c18-12,21-26,23-97c1-46,6-184,12-308
		c17-407,28-791,29-1014c2-244,7-269,59-279c36-8,91,1,113,17c16,12,18,67,24,667c4,360,8,746,8,859c1,199,2,206,24,228
		c12,12,22,28,22,35c1,6,3,28,5,47c3,19,10,80,16,135c19,178,26,239,33,270c8,42,27,106,37,130c4,11,15,42,24,69
		c30,94,102,218,175,302c74,85,233,176,310,178c30,1,37-4,51-34c61-127,71-182,71-424c0-95,3-177,6-182c4-5,21-14,37-20
		c29-10,30-11,27-68c-1-38,3-67,12-80c16-25,22-72,35-286c25-378,39-567,51-655c5-38,12-90,16-115c13-100,24-178,33-240
		c6-36,13-93,17-127c4-35,12-68,20-73c7-6,36-10,65-8c42,2,55,8,70,28c16,23,17,37,9,155c-6,72-14,155-20,185c-27,148-37,331-45,830
		c-8,431-29,985-44,1150c-4,46-6,165-5,264s-2,190-7,203c-16,41-80,60-289,83c-52,6-113,13-135,15c-49,6-267,21-510,35
		c-99,5-234,14-300,20c-66,5-214,8-328,7l-208-3l-6,24c-3,14,0,48,6,76c18,77,26,755,11,946c-17,231-33,376-49,445
		c-5,22-15,67-21,100c-44,217-161,427-330,593c-155,153-316,253-496,310C1603,8863,1453,8875,1305,8860z M1655,8668
		c159-53,308-149,440-283c108-109,180-222,238-375c21-57,29-84,44-150c5-24,20-137,33-245c15-123,14-701-1-829
		c-13-115-30-301-35-389s-13-103-66-110c-24-3-54-8-68-11c-14-4-41-9-61-12c-36-6-37-6-43,32c-15,102-30,249-46,464
		c-17,229-21,266-30,300c-6,19-10,58-10,85c0,28-4,66-9,85s-12,76-16,125c-8,114-34,381-51,520c-3,28-15,84-26,125s-21,82-22,90
		c-7,50-33,115-98,245c-59,119-153,230-250,296c-31,22-61,39-65,39s-19,10-33,21l-25,21l55-7C1540,8702,1606,8685,1655,8668z
		 M1046,8597c-80-98-110-206-109-397c0-134,5-173,38-300c5-22,32-84,74-175c21-44,51-109,66-145c16-36,52-115,82-177
		c29-61,53-114,53-117c0-4,9-28,21-54c30-67,83-210,108-292c6-19,21-69,35-110c36-112,54-184,61-243c2-15,13-69,25-120
		c11-50,25-111,30-135c6-23,10-65,10-93s5-59,10-70c6-11,10-50,8-87l-3-67l-13,75c-7,41-17,91-22,110s-14,62-20,95
		c-15,79-50,213-68,265c-3,8-7,22-8,30c-8,57-90,308-135,415c-17,39-34,79-39,90c-4,11-55,133-113,270c-104,247-161,397-177,465
		c-4,19-13,51-20,70c-6,19-14,48-16,63c-2,16-6,33-9,38c-15,23-35,185-35,277c0,107,13,181,38,220c8,12,11,22,6,22
		c-13,0,57,70,96,95C1074,8652,1085,8644,1046,8597z M1383,8574c201-52,396-343,443-664c30-206,43-314,49-410c9-125,27-301,50-475
		c26-200,34-279,40-380c3-55,7-120,9-145s7-99,11-166l8-120l-74-24c-41-12-105-36-143-51c-38-16-72-26-76-24c-9,5-22,99-21,139
		c1,17-3,53-9,80c-51,260-64,318-76,366c-9,30-17,64-19,75c-3,11-9,29-13,40c-11,25-32,88-37,112c-5,28-35,115-51,150
		c-8,17-14,33-14,36c0,2-8,22-17,43c-9,22-18,44-19,49c-2,11-27,69-55,131c-10,22-28,65-39,95c-12,30-28,69-36,87c-8,17-21,49-30,70
		c-9,20-26,57-39,82c-12,25-39,88-60,140s-41,100-45,105c-33,46-64,363-42,423c5,15,16,47,23,72c26,90,85,152,163,170
		C1311,8592,1317,8591,1383,8574z M4170,5804c0-20-3-34-7-32c-49,23-63,32-63,39c0,10,53,37,63,32C4167,5841,4170,5823,4170,5804z
		 M1663,5731c6-6,0-21-16-40c-14-17-28-40-32-51c-13-41-25-18-25,49v70l32-10C1639,5744,1658,5736,1663,5731z M1855,5675
		c0-11-66-35-78-28c-4,2-2,13,4,24c8,15,19,19,42,17C1841,5686,1855,5681,1855,5675z M3540,5581c0-6-5-13-10-16
		c-38-23-160-245-195-352c-10-29-21-53-25-53c-9,0-22,165-24,289l-1,74l50,14c28,8,61,17,75,20c14,2,32,7,40,10s26,8,40,10
		c13,2,27,6,29,9C3527,5593,3540,5590,3540,5581z M2859,5510c57-6,125-10,152-10h49v-260c0-143-2-260-4-260s-19,37-37,83
		c-61,151-202,336-320,418c-32,23-59,44-59,46s26,1,58-2C2729,5522,2802,5515,2859,5510z"/>
	<path class="st0" d="M6190,8033c-25-1-119-8-210-13c-164-11-524-52-610-70c-25-5-85-16-135-25c-49-9-121-23-160-31
		c-38-8-80-16-92-18c-52-10-179-49-188-57c-5-5-16-9-25-9c-29,0-194-91-246-135c-92-79-138-210-99-285c8-16,54-63,100-104
		c93-81,215-149,368-206l87-33v-36c0-20,5-101,10-181c13-181,14-1056,2-1130c-5-30-14-75-20-100c-26-109-34-199-22-273s9-212-9-367
		c-5-47-13-114-16-150s-10-92-15-125s-14-100-20-150c-6-49-13-103-16-120c-2-16-9-64-14-105s-14-106-19-145c-5-38-14-108-21-155
		c-6-47-13-92-17-100c-3-8-10-42-14-75s-10-73-12-90c-3-16-8-52-12-80c-3-27-13-70-20-95c-8-25-17-63-20-85c-12-76-21-122-55-265
		c-5-19-16-73-25-120c-10-47-26-116-36-155c-24-90-24-107,4-133c18-17,36-22,73-22c68,0,84,14,89,78c3,29,10,62,16,75
		c11,19,19,45,34,111c2,10,12,44,21,75c18,62,31,108,44,161c18,74,48,187,65,245c10,33,19,69,20,80s5,38,9,60c7,41,12,65,47,245
		c25,124,38,202,43,250c3,19,11,73,19,120c9,47,18,112,22,145s9,71,12,85c6,32,21,155,29,240c7,66,26,110,49,110c28,0,75,33,81,57
		c7,26,0,148-11,193c-7,31-8,266,0,300c3,14,8,41,12,60c7,40,31,100,39,100c16,0,94-54,125-87c129-134,276-442,323-678
		c55-270,66-334,66-372c0-43,19-94,46-123l23-25l-9-210c-5-115-14-286-19-380c-5-93-10-177-10-185c-1-8-5-112-11-230s-14-309-20-425
		c-11-254-20-398-40-640c-5-60-10-166-11-234c-3-143,2-151,81-151c93,0,95,4,120,335c16,203,28,327,35,365c6,33,13,97,35,335
		c5,55,11,123,14,150c3,28,10,100,15,160c34,359,35,372,50,780c5,121,12,228,16,238c8,20,36,37,60,37c9,0,29,9,45,20
		c30,22,33,34,49,265c11,144,31,240,68,325c60,136,69,149,181,278c69,78,92,89,92,44c0-40,27-60,85-64l50-3l7-125
		c3-69,11-215,17-325s13-234,16-275c14-204,26-408,35-630c11-266,27-450,40-464c5-5,6-15,3-22c-5-14,39-64,58-64c5,0,9,7,9,16
		c0,11,8,14,32,12c59-6,60,0,54,437c-4,215-11,541-16,725s-11,420-14,524l-5,188l26,22c18,16,26,34,29,66c2,25,8,83,12,129l7,83
		l50,20c33,13,63,18,88,15c21-3,65,2,98,10c45,11,67,12,87,4c15-6,59-18,98-26c129-29,245-141,290-280c16-51,19-83,16-225
		c-2-91-5-212-5-270l-2-105l47-3c58-4,67-17,79-112c14-104,27-202,34-240c3-19,10-64,16-100s15-78,19-95c8-28,14-63,27-160
		c3-22,9-44,14-50c5-5,9-20,9-33s6-47,14-75c18-67,49-206,52-232c1-11,8-45,14-75s13-68,16-85c3-16,9-39,14-50c11-26,37-113,43-145
		c3-14,17-63,31-110c15-47,28-94,31-105c2-11,9-36,14-55s19-69,30-110s27-97,36-125c18-57,23-74,33-130c7-35,11-40,42-47
		c39-8,119,0,136,13c13,10,11,43-6,104c-6,22-14,60-19,85s-21,90-35,145c-15,55-29,111-31,125c-3,14-12,57-21,95c-8,39-20,90-25,115
		c-16,73-46,229-53,270c-2,14-14,66-26,115c-12,50-23,106-25,125s-9,62-15,95s-15,87-20,120s-16,98-25,145c-25,125-34,180-40,225
		c-3,22-10,60-15,85c-16,81-38,240-69,515c-6,50-13,104-15,120c-3,17-12,102-21,190s-18,180-21,204s-7,75-9,115c-4,93-21,365-34,541
		c-21,291-38,921-27,996l7,45l77,23c233,68,398,147,489,236c46,45,64,71,73,105c16,61,15,101-5,139c-161,312-1114,547-2190,539
		C6339,8037,6215,8035,6190,8033z M5283,6951c147-39,343-73,527-92c63-6,123-16,133-21c15-8,17-31,17-259c0-191-3-250-12-253
		c-7-2-71-13-143-24c-71-12-141-24-155-28c-14-3-44-10-66-14c-39-8-108-29-219-67c-27-9-63-25-80-35c-16-10-33-18-36-18
		c-11,0-21,70-20,149c1,99-30,530-45,634C5176,6979,5177,6979,5283,6951z M7821,6929c-2-8-6-193-9-411c-5-425-4-418-53-380
		s-117,70-229,105c-138,44-281,72-480,96l-55,6v245v245l55,7c30,4,114,14,185,23c234,27,424,54,525,74
		C7813,6949,7826,6947,7821,6929z M6784,6657c0-89-2-191-5-227l-4-65l-265-7c-146-4-283-9-305-10l-40-3l-6,210c-3,116-9,218-13,228
		c-19,41-14,42,320,39l319-2L6784,6657z M6767,6196c3-5,6-28,5-52c0-24-1-132-1-239c-1-120-5-195-11-195c-5,0-13,12-16,28
		c-10,41-62,140-106,204c-47,67-155,152-253,199c-76,36-75,36-105,38c-11,0-20,5-20,11C6260,6206,6757,6213,6767,6196z M7200,6165
		c30-3,64-11,75-15c11-5,36-11,55-12c44-4,38-19-14-37c-95-32-188-126-247-251c-17-36-35-73-40-82c-5-10-9-25-9-33s-4-15-8-15
		c-5,0-12,100-15,223c-5,178-3,224,8,232C7017,6185,7061,6183,7200,6165z M5550,6080c0-5-5-10-11-10c-17,0-99-60-156-113
		c-43-41-55-47-71-38c-32,17-36,43-10,64c32,25,124,70,178,86c63,19,65,19,68,20C5549,6090,5550,6086,5550,6080z M6244,6040
		c38,0,133-46,187-92c64-53,113-114,154-191c27-52,31-73,15-79c-17-5-399,10-410,17s-15,347-4,358c4,3,15,2,25-3
		C6221,6044,6236,6040,6244,6040z M5949,6031c11-7,11-23,2-91c-6-46-11-115-11-153v-70l-37,7c-21,4-63,11-93,16
		c-166,29-330,76-330,96c0,16,105,96,166,127c47,24,97,38,224,65C5931,6041,5933,6041,5949,6031z M7479,5969c67-12,181-61,181-79
		c0-13-75-60-96-60c-9,0-30-6-47-14c-29-13-97-36-122-42c-5-1-32-7-60-13c-27-5-71-16-96-24c-64-20-76-10-51,39
		c46,91,163,204,211,204C7407,5980,7443,5975,7479,5969z M7804,5748c3-13,8-68,11-123c4-55,9-129,12-165l5-64l-65,57
		c-39,34-88,66-121,78c-31,12-56,25-56,29c0,7-86,27-140,32c-40,5-26,21,32,38c29,9,73,26,98,38s50,22,55,22c6,0,39,18,75,40
		C7785,5776,7798,5778,7804,5748z M5680,5595c41-9,84-19,95-21c11-3,52-8,90-12l70-7l-1-115c-2-154-14-483-18-487c-2-2-13,25-25,59
		c-12,35-31,86-43,115c-11,29-19,53-18,55s-26,57-60,123c-63,123-129,224-184,284C5550,5628,5540,5627,5680,5595z M6573,5510h68
		l-3-52c-3-50-5-54-48-82c-104-68-257-251-330-396c-29-56-70-170-70-192c0-9-4-19-9-23c-9-5-4,715,5,744c4,12,31,13,162,8
		C6434,5513,6536,5510,6573,5510z"/>
</g>
</svg>
