<?xml version="1.0" encoding="utf-8"?>
<!-- Generator: Adobe Illustrator 25.3.0, SVG Export Plug-In . SVG Version: 6.00 Build 0)  -->
<svg version="1.1" id="Calque_1" xmlns="http://www.w3.org/2000/svg" xmlns:xlink="http://www.w3.org/1999/xlink" x="0px" y="0px"
	 viewBox="0 0 170.9 178.9" style="enable-background:new 0 0 170.9 178.9;" xml:space="preserve">
<style type="text/css">
	.st0{fill:#1D1D1B;}
	.st1{fill:none;}
	.st2{fill:#2B2C2B;}
	.st3{fill:#FBE098;}
	.st4{fill:#353735;}
	.st5{font-family:'MyriadPro-Regular';}
	.st6{font-size:25.5111px;}
</style>
<g>
	<path class="st0" d="M118.1,28.2c0,7.2-15.8,13-35.4,13c-19.5,0-35.4-5.8-35.4-13s15.8-13,35.4-13
		C102.2,15.3,118.1,21.1,118.1,28.2z"/>
	<line class="st1" x1="77.1" y1="92.6" x2="88.3" y2="92.6"/>
	<polygon class="st2" points="106.6,101 58.7,101 47.1,29.2 64.1,29.2 101.2,29.2 118.2,29.2 	"/>
	<polygon class="st3" points="103,95.6 62.3,95.6 52.4,34.5 66.9,34.5 98.5,34.5 112.9,34.5 	"/>
	<rect x="62.3" y="101" class="st4" width="40.8" height="7.1"/>
	<rect x="42.3" y="27.1" class="st4" width="80.8" height="4.2"/>
	<rect x="79.7" y="32.5" class="st2" width="6" height="65.9"/>
	<rect x="54.9" y="62.5" class="st2" width="55.6" height="6"/>
	<path class="st0" d="M85.7,14.8c0,1.7-1.3,3-3,3s-3-1.3-3-3s1.3-3,3-3C84.3,11.8,85.7,13.2,85.7,14.8z"/>
</g>
<line class="st1" x1="84.3" y1="105" x2="82.2" y2="186.1"/>
<rect x="80" y="97.9" width="6" height="78"/>
<text transform="matrix(0.8514 0 0 1 13.2954 145.55)" class="st5 st6">TERRASSE</text>
</svg>
