<?xml version="1.0" encoding="utf-8"?>
<!-- Generator: Adobe Illustrator 25.3.0, SVG Export Plug-In . SVG Version: 6.00 Build 0)  -->
<svg version="1.1" id="Calque_1" xmlns="http://www.w3.org/2000/svg" xmlns:xlink="http://www.w3.org/1999/xlink" x="0px" y="0px"
	 viewBox="0 0 220.2 239.8" style="enable-background:new 0 0 220.2 239.8;" xml:space="preserve">
<style type="text/css">
	.st0{fill:#32A936;}
	.st1{fill:#98A39E;}
	.st2{fill:#0F2E3C;}
	.st3{fill:#484B47;}
	.st4{fill:#2D586E;}
	.st5{fill:#5B655F;}
	.st6{fill:#9B9757;}
	.st7{fill:#C1BBA7;}
	.st8{fill:#6F8081;}
	.st9{fill:#FED251;}
	.st10{fill:#F3914C;}
	.st11{fill:#AA3213;}
	.st12{fill:#BD2C34;}
	.st13{fill:#D16639;}
	.st14{fill:#956B40;}
	.st15{fill:#543419;}
</style>
<g>
	<g transform="translate(0.000000,512.000000) scale(0.100000,-0.100000)">
		<path d="M225,3665.4c-4.3-2.1-8.2-5.6-9.6-9c-1.4-3.1-24.1-103.9-50.7-224c-32.8-147.6-47.8-219.9-46.7-223.2c0.9-2.7,4.1-6.8,7-9
			l5.5-4.1h163h162.7v-182.5v-182.5H329.7H203.2l-6.6-5.3c-9.6-7.9-9.3-16.9,1.1-24.7l7.7-5.8h273.1c172,0,275.3,0.7,279,1.7
			c14.8,4.1,18.7,20.1,7,28.8l-5.7,4.4l-127,0.9l-126.7,0.9v181.7v181.7l48.5,0.5l48.2,0.3v-57v-57l-5.9-1
			c-3.4-0.7-12.5-6-20.5-11.9c-11.6-8.7-15-12.5-18-20.6c-13.6-34.8,16.6-68.1,63.9-70.5c31.2-1.5,56,9,69.6,29.9
			c6.6,10.1,7.5,13,7.3,24.4c-0.2,20.8-12.3,36.2-36.6,46.4l-12.1,5.1l0.5,55.8l0.7,55.6l89.4,0.5c97.8,0.3,97.2,0.3,102.9,10.6
			c2.3,4.3-3.9,34.8-46.9,228.1l-49.6,223.2l-7.3,5.6l-7.3,5.5H482.2C239.6,3668.6,231.9,3668.5,225,3665.4z M643.1,3044.3
			c11.8-8.9,8-24.6-7-29.2c-16.4-5.1-33,3.2-33,16.6c0,6.5,1.1,8.4,7.5,12.6C620.8,3051.3,633.7,3051.3,643.1,3044.3z"/>
	</g>
	<polygon class="st0" points="86.6,232.5 87.9,232.5 87.9,232.5 	"/>
</g>
<g>
	<path class="st1" d="M140.3,22.1v0.3l0.3,0.3v-0.3L140.3,22.1z"/>
	<path class="st2" d="M141,21.5v29h-3v10h33v-10h-3v-29h-8l-4,0c-1.3,0-2.6,0-3.9,0.1l-1.5,0.3l-0.6,0.4l-0.3,0.1l-0.7,1l-1.7-0.7
		l-1.5-0.5l-1.7-0.4l-1-0.1L141,21.5z"/>
	<path class="st3" d="M168,21.5v29l0.6-1.1l0.1-0.4l0.2-0.8c0.1-0.9,0.1-1.8,0.1-2.7l0-5v-11l0-3.9l-0.1-1.7l-0.2-0.8l-0.1-0.4
		L168,21.5z"/>
	<path class="st4" d="M98,70.5l1.7,0.1l0.5,0c1,0.1,1.9,0.1,2.9,0.2c2,0,4-0.2,6-0.3l4,0h4h38h38h4l4,0c2,0.1,4,0.3,6,0.3
		c1,0,1.9-0.1,2.9-0.2l0.5,0l1.7-0.1l0-1.7l-0.1-1.5l-0.4-1.8l-0.3-0.9l-0.4-0.9l-1.2-1.5l-0.8-0.6l-1.8-0.7l-1.9-0.3l-2-0.1l-1,0
		l-5,0h-9h-6c-1.7,0-3.3,0-5,0c-2-0.1-4-0.3-6-0.3l-3,0.2l-3,0.1l-6,0h-9h-30h-10l-3,0l-2,0l-2,0.1l-1,0.2l-0.9,0.3l-1.5,1L99,62.8
		c-0.5,0.8-0.8,1.8-0.9,2.7C97.9,67.1,98,68.8,98,70.5z"/>
	<path class="st2" d="M103,198.5h103v-128h-74h-19c-1.7,0-3.3,0-5,0.1l-1.9,0.3l-1.5,0.7l-0.6,0.6l-0.4,0.7l-0.5,1.7
		c-0.1,1-0.1,2-0.1,2.9l0,3v23V198.5z"/>
	<path class="st5" d="M206,71.5v126l0.6-1.1l0.1-0.4l0.2-0.8c0.1-1.2,0.1-2.5,0.2-3.7l0-6v-20v-65v-18l0-5c0-1.2,0-2.5-0.2-3.7
		l-0.2-0.8l-0.1-0.4L206,71.5z"/>
	<path class="st4" d="M115,82.5v64v10l0,5l0.1,2l0.1,0.9l0.4,1.8l0.8,1.4l0.6,0.6c0.9,0.8,2.1,1,3.2,1.2l1.9,0.1l2,0l5,0h9h56
		l0.4-1.7l0.1-0.5l0.3-1.9l0.1-1l0.1-2l0-5v-12v-41v-10v-3l0-2l0-1l-0.1-2l-0.2-0.9l-0.3-0.9l-1-1.5l-1.5-1l-0.9-0.3l-1-0.2l-2-0.2
		l-1,0l-2,0l-3,0h-8h-37h-10l-5,0l-2,0.1l-1,0.1l-1.9,0.3l-0.5,0.1L115,82.5z"/>
	<path class="st3" d="M185.7,85.8l0.3,0.3h0.3l-0.3-0.3H185.7z"/>
	<path class="st5" d="M121,86.5l1.1,0.6l0.4,0.1l0.8,0.2c0.9,0.1,1.8,0.1,2.7,0.1l4,0h12h46l-1.1-0.6l-0.4-0.1l-0.8-0.2
		c-0.9-0.1-1.8-0.1-2.7-0.1l-4,0h-12H121z"/>
	<path class="st6" d="M120,87.5v76l0.6-1.1l0.1-0.4l0.2-0.8l0.1-1.7l0-3.9v-10v-38v-11l0-4c0-0.9,0-1.8-0.1-2.7l-0.2-0.8l-0.1-0.4
		L120,87.5z"/>
	<path class="st7" d="M121.7,87.8l0.3,0.3h0.3l-0.3-0.3H121.7z"/>
	<path class="st8" d="M188,87.5v76l0.6-1.1l0.1-0.4l0.2-0.8l0.1-1.7l0-3.9v-10v-38v-11l0-4c0-0.9,0-1.8-0.1-2.7l-0.2-0.8l-0.1-0.4
		L188,87.5z"/>
	<path class="st9" d="M123,88.5l0.1,1.6l0.1,0.4l0.2,0.9l0.4,1.6l0.3,1.7c0.1,0.9,0,1.9,0,2.8l-0.1,3l0,4v5v25v10l0,4c0,1,0,2,0.1,3
		c0.1,1.6,0.4,3.2,0.6,4.8l0.1,0.5l0.2,1.7l1.7-0.5l1.5-0.5l1.9-0.4l2-0.1c1.4,0.1,2.7,0.5,4,0.9l2,0.4c2,0.3,4,0.3,6,0.3l-0.7-1.5
		l-0.3-0.4l-0.5-0.9l-0.8-1.6l-0.7-1.8l-0.2-0.9l-0.1-2l0.1-1l0.6-2l1-2c0.5-1,1.1-1.9,1.5-3l0.7-1.9l0.2-1l0.1-0.5l0.1-1.7l1.5,1.6
		l1.1,1.3l1.1,1.4l0.5,0.8l0.3,0.4l0.6,1.5l0.9-1.1l0.5-1.2l0.4-1.7l0.3-2.9l0.3-2c0.2-1.3,0.4-2.6,0.4-4l-0.1-1.9l-0.2-1l-0.1-0.5
		l-0.4-1.7l1.7,1l0.5,0.4l1,0.7l1.7,1.5l0.8,0.8l1.5,1.7l1.2,1.9l0.5,0.9l0.9,1.8l0.4,0.8l0.9,1.4l0.8,1l1.1,0.9
		c0.5-1.3,1-2.6,1.4-3.9l0.2-1l0.1-0.5l0.2-1.7l1.1,1l1.1,0.3l0.3,0.1l1.4-0.4l0.3,1.5l0.2,0.4l0.3,0.9l0.3,0.7l0.5,1.7
		c0.3,1.3,0.4,2.5,0.4,3.8c0,1-0.1,2-0.2,3c-0.6,3.5-2.6,6.6-3.9,9.8l-0.5,1.5l-0.3,1.7l1.7-0.4l0.5-0.1l1.9-0.3l2-0.1l4,0h5v3h4
		v-73H123z"/>
	<path class="st10" d="M152,125.5v2h1l1-2H152z"/>
	<path class="st11" d="M153,126.5c0.3,1.7,0.7,3.3,0.7,5c0,1.3-0.1,2.7-0.4,4l-0.4,2l-0.3,1l-0.7,2c-0.5,1.3-1.2,2.6-2,3.8l-1.9,3.3
		l-0.6,1.3l-0.5,1.6l1.3-0.7l1.1-1l1.3-1.5l1.2-1.9c0.7-1.3,1.3-2.6,1.9-4l0.3-1l0.5-1.9l0.2-1l0.2-2.2l1,2l1,1l0.5-1.1l0-0.4l0-0.8
		c-0.2-1.2-0.7-2.4-1-3.6l-0.2-1.7l0.1-0.8l0.7-1.6l-2-1.2l-0.5-0.3L153,126.5z"/>
	<path class="st10" d="M153,128.5v7l0.6-1.1l0.1-0.4l0.2-0.8l0-0.8l0-1.6l-0.2-0.8l-0.1-0.4L153,128.5z"/>
	<path class="st12" d="M155,129.5l0.3,1.7l0.2,0.5l0.3,1l0.7,1.8l0.5,1.8l0.2,1.5l-0.2,1.7l1.5,0.6l1.1,0.8l0.3,0.2l1,1.3l0.5-1.1
		l0-0.4l0.2-0.8l0.1-0.8l0.1-0.8l0.2-3.1l-1.4-0.7l-0.9-0.9l-0.6-1.4l-0.2-1.4l0.1-1.7H155z"/>
	<path class="st11" d="M158,131.5l0.4,1.5l0.2,0.3l0.4,0.7l0.8,0.8l1.2,0.6l-0.4-1.5l-0.2-0.3l-0.4-0.7l-0.8-0.8L158,131.5z"/>
	<path class="st10" d="M160,132.5l1,1L160,132.5z"/>
	<path class="st11" d="M167,133.5l-0.3,1.6l-0.4,1.8l-0.3,1.6h2l1-1l0.2,1.7l0.1,0.5l0.2,1.9l0,2c-0.1,1-0.3,2-0.4,3l-0.5,2l-0.3,1
		l-0.7,2l-0.7,1.9l-0.8,1.7l-0.4,0.7l-0.5,0.9l-0.3,0.4l-0.7,1.5l1.6-0.7l1.3-1l1.5-1.5l1.3-1.9l0.6-1l0.5-1l0.4-1l0.5-2
		c0.3-2,0.1-4-0.4-6c-0.2-1-0.5-2-0.9-3l-0.8-1.9l-0.9-1.7l-0.5-0.8l-0.2-0.4L167,133.5z"/>
	<path class="st10" d="M155,135.5l-0.2,1.7l-0.1,0.5l-0.2,1c-0.3,1.3-0.7,2.6-1.3,3.8l-1,2c-0.7,1.3-1.5,2.5-2.2,3.8l-0.6,1.5
		l-0.3,1.7l-1.4-1l-0.3-0.4l-0.6-0.6l-0.8-1l-0.9-1l-0.6,1.7l-0.1,0.5l-0.2,1l0,1.8l0.3,1.9l0.7,1.7l0.5,0.7l1.3,1.2l0.7,0.5
		l1.6,0.6c1.6,0.4,3.1,0.1,4.7,0l2-0.1c1.3,0,2.7,0.3,4,0.1l1-0.2l0.9-0.3l1.7-1l1.4-1.4l1.1-1.8l0.9-1.9l0.3-1l0.4-2l0.1-2l0-1
		l-0.2-1.9l-0.2-1l-0.5-2.2l-1,1.1l-0.3,0.4l-0.6,0.8l-0.5,0.8l-1.3,1.8l-1.4,1.7l-1.3,1.2l-1.6,1.1c0-2.3,0.1-4.7-0.3-7l-0.5-2
		l-0.7-1.9l-0.8-1.7l-0.7-1.2L155,135.5 M169.3,136.1v0.7h0.3v-0.7H169.3z"/>
	<path class="st11" d="M145,136.5l-0.2,1.7l-0.4,1.5c-0.6,2-1.4,3.9-2.1,5.8l-0.6,2l-0.4,2l0,2l0.2,1l0.2,1c0.2,0.9,0.7,1.7,1.2,2.4
		l0.9,1l1.2,0.7v-2l-1-1v-1v-2v-2l1-1v-1v-2v-1l1-1l1-2l1,1l-0.2-1.7l-0.2-0.4l-0.6-1.6l-0.5-0.8l-0.2-0.4L145,136.5z"/>
	<path class="st12" d="M168,137.5l-1.1,1.6l-0.3,0.8l0.1,1.7c0.2,1,0.5,1.9,0.7,2.9l0.2,1l0.3,1.9l0.1,0.5l0,1.7l0.6-1.1l0.1-0.4
		l0.3-0.8c0.2-0.9,0.4-1.8,0.5-2.7l0.1-1l0-1.9l-0.3-1.7l-0.5-1.2L168,137.5z"/>
	<path class="st10" d="M147,138.5l1,1L147,138.5z"/>
	<path class="st13" d="M152.3,139.1v0.7h0.3v-0.3L152.3,139.1z"/>
	<path class="st11" d="M161.3,139.1v0.7h0.3v-0.7H161.3z"/>
	<path class="st10" d="M162,138.5v4l0.8-1l0.2-1l-0.2-0.6l0-0.4L162,138.5z"/>
	<path class="st13" d="M165,138.5l1,1L165,138.5 M158,139.5v3l0.6-0.9v-0.9v-0.3L158,139.5z"/>
	<path class="st11" d="M159,139.5l0.1,1.7l0.1,0.5l0.1,1l0.5,3.7l0.1,1.5l0,1.7l1.6-0.7l1.2-1l1.2-1.5l1-1.8l0.6-1.8l0.2-1l0.2-2.2
		l-1.6,0.9l-1.4,0.9l-0.4,0.3l-1.6,0.9l-0.8-1.7l-0.2-0.4L159,139.5z"/>
	<path class="st13" d="M148,140.5l0,1.7l0.1,1.4l0.3,1.4l0.4,0.6l0.1,0.3l1,0.7l-0.4-1.7l-0.4-1.4l-0.2-0.7l-0.3-0.8l-0.1-0.4
		L148,140.5z"/>
	<path class="st10" d="M149,140.5v5l0.6-1.1l0-0.4l0.1-0.7l-0.1-1.4l0-0.4L149,140.5 M171,140.5v3l0.6-0.9v-0.9v-0.3L171,140.5z"/>
	<path class="st12" d="M146,141.5l-0.5,2.2l-0.1,1l0,1.8l0.1,0.9c0.1,1.1,0.4,2.1,0.5,3.2l0.9-1.1l0.5-1.2l0.3-1.7l0-0.9l-0.2-1.7
		l-0.5-1.2L146,141.5z"/>
	<path class="st10" d="M151,141.5l1,1L151,141.5z"/>
	<path class="st13" d="M142.3,144.1v0.7h0.3v-0.7H142.3 M152.3,144.1v0.7h0.3v-0.7H152.3z"/>
	<path class="st12" d="M159,143.5l0,1.7c0,0.7,0,1.5,0.1,2.2l0.3,1.5l0.4,0.6l0.1,0.3l1,0.7l-0.4-1.7l-0.3-1.4l-0.3-1.6l-0.2-0.8
		l-0.1-0.4L159,143.5z"/>
	<path class="st13" d="M141.3,146.1v0.7h0.3v-0.7H141.3z"/>
	<path class="st10" d="M140,147.5v4l0.5-1v-0.4l0.1-0.6l-0.1-1L140,147.5z"/>
	<path class="st13" d="M147.7,150.8v0.3h0.7l-0.3-0.3H147.7 M170.3,152.1v0.7h0.3v-0.7H170.3z"/>
	<path class="st10" d="M141.3,154.1v0.7h0.3v-0.7H141.3z"/>
	<path class="st13" d="M166.3,154.1v0.7h0.3v-0.7H166.3 M169.3,154.1v0.7h0.3v-0.7H169.3 M168,155.5l1,1L168,155.5 M167,156.5l1,1
		L167,156.5z"/>
	<path class="st14" d="M144,157.5l0.1,1.5l0,0.4l-0.1,1.1l1.5-0.4l0.3-0.2l0.7-0.4l0.8-0.8l0.6-1.2H144 M162,158.5l1.1,0.9l0.4,0.2
		l0.7,0.4l1.2,0.4l1.6,0.2l-0.9-1.1l-0.4-0.4l-1.7-1.5L162,158.5z"/>
	<path class="st10" d="M166,157.5l1,1L166,157.5z"/>
	<path class="st13" d="M153,158.5l1.1,0.6l0.4,0.1l0.7,0.2l1.2,0.1l1.6,0l-1.1-0.6l-0.4-0.1l-0.7-0.2l-1.2-0.1L153,158.5z"/>
	<path class="st14" d="M127,159.5v4h4l-0.6-1.4l-0.8-1l-0.7-0.5l-0.3-0.3L127,159.5z"/>
	<path class="st3" d="M128,159.5l0.9,0.9l0.4,0.2l1.7,0.9l-0.4-1.1l-0.3-0.2l-0.9-0.6L128,159.5z"/>
	<path class="st15" d="M131,159.5v4l1.5-0.3l0.4-0.1l0.9-0.2l0.7-0.2l1.7-0.2c1,0,1.9,0.2,2.8,0.4l2,0.4c1.3,0.2,2.7,0.3,4,0.2l2,0
		l1.8-0.2l1.5-0.6l0.6-0.6l1.1-1.6c-1.3-0.2-2.7-0.5-4-0.6c-1.6-0.1-3.3-0.2-5-0.2l-3-0.1C137,159.5,134,159.5,131,159.5z"/>
	<path class="st14" d="M149,159.5l0.9,0.9l0.9,0.8l0.5,0.6l0.3,0.3l0.5,1.4h8v-4H149z"/>
	<path class="st15" d="M160,159.5l0.3,1.5l0.1,0.5l0.5,2l4,0c1.3,0,2.5,0,3.8-0.3c0.9-0.2,1.7-0.4,2.6-0.7l0.9-0.2l1.8-0.1
		c1,0.1,1.9,0.4,2.8,0.6l0.5,0.2l1.7,0.5l0.3-1.5l0.1-0.5l0.5-2c-2,0-4,0-6,0.2c-2,0.2-4,0.7-6,0.7c-1.6,0-3.2-0.3-4.8-0.5l-1.5-0.2
		L160,159.5z"/>
	<path class="st3" d="M167,159.5l1.1,0.6l0.4,0.1l0.7,0.2l1.2,0.1l1.6,0l-1.1-0.6l-0.4-0.1l-0.7-0.2l-1.2-0.1L167,159.5z"/>
	<path class="st14" d="M180,159.5v4h3v-4H180z"/>
	<path class="st3" d="M179,160.5v3l0.6-0.9v-0.3v-0.9L179,160.5z"/>
	<path class="st14" d="M134,163.5l2-0.5l0.5-0.1l1.5-0.3l-1-0.5l-0.3,0l-1.2,0.1l-0.5,0.3l-0.3,0.1L134,163.5z"/>
	<path class="st5" d="M151,161.5l0.3,1.7l0.4,0.6l0.6,0.3l0.8,0.2c1,0.1,1.9,0.1,2.9,0.1s1.9,0,2.9-0.1l0.8-0.2l0.6-0.3l0.4-0.6
		l0.3-1.7l-1.6,0.9l-0.8,0.4l-1.6,0.4h-1.8l-1.6-0.4l-0.8-0.4L151,161.5 M171,161.5v3h6l-0.7-1.3l-0.9-0.8l-1.4-0.6l-1.4-0.2
		L171,161.5z"/>
	<path class="st6" d="M183,161.5l0.6,1.3l0.3,0.2l0.6,0.6l0.6,0.3l1.2,0.4l1.6,0.2l-1-0.7l-0.4-0.2l-1.3-0.7l-1.1-0.6L183,161.5z"/>
	<path class="st5" d="M134,163.5l1,0.5h0.3h1.1l1.5-0.5l-1-0.5h-0.3h-1.1L134,163.5z"/>
	<path class="st3" d="M138,162.5l-1.7,0.8l-0.5,0.1l-1,0.3l-0.9,0.1l-3,0.3l-3,0.3c-1,0.1-2,0.1-3,0.1l-1.9-0.2l-1-0.2l-0.5-0.1
		l-1.7-0.4l0.7,1l0.3,0.1l0.6,0.4l1.5,0.3c1,0.1,1.9,0.1,2.9,0.1l3,0h4h20h7c2,0,4,0,6-0.2c1.7-0.2,3.4-0.5,5-0.8l-1.1-0.6l-0.4-0.1
		l-0.8-0.2l-1.7-0.1l-1.9,0l-2,0.1l-1,0.1l-2,0.3c-1,0.1-2,0.3-3,0.3c-1,0-2,0-3-0.1l-5-0.7c-1.7-0.2-3.3-0.2-5-0.2l-2-0.1l-1.9-0.3
		l-0.5-0.1L138,162.5z"/>
	<path class="st1" d="M121,163.5l1.1,0.6l0.4,0.1l0.8,0.2c0.7,0.1,1.4,0.1,2.1,0.1l1.7,0l-1.1-0.6l-0.4-0.1l-0.8-0.2
		c-0.7-0.1-1.4-0.1-2.1-0.1L121,163.5z"/>
	<path class="st5" d="M127,163.5l1,0.6l0.3,0.1l1.1,0.3l1.5,0.1l-1-0.6l-0.3-0.1l-1.1-0.3L127,163.5 M179,163.5l1.1,0.6l0.4,0.1
		l0.7,0.2l1.2,0.1l1.6,0l-1.1-0.6l-0.4-0.1l-0.7-0.2l-1.2-0.1L179,163.5z"/>
	<path class="st4" d="M116,191.5h56h9l5,0l2,0l1.9-0.1c0.9-0.1,1.8-0.3,2.5-0.9l0.6-0.6l0.4-0.7l0.3-0.8l0.2-0.9l0.1-1.9l0-1l0-3v-6
		l-1.7-0.4l-0.5-0.1l-1.9-0.3l-1-0.1l-2-0.1l-5,0h-10h-36h-9l-4,0l-2,0l-1.9,0.1c-0.9,0.1-1.8,0.3-2.5,0.9l-0.6,0.6l-0.4,0.7
		l-0.3,0.8l-0.2,0.9l-0.1,1.9l0,1l0,2l0.1,3l0.2,1.9l0.2,1L116,191.5z"/>
	<path class="st2" d="M152,185.5l2.1-0.1l0.9-0.2l1.4-0.7l0.5-0.6l0.3-1.4l-0.3-0.7l-0.5-0.6l-1.4-0.7l-0.7,0l-0.7,0.3l-0.6,0.5
		l-0.7,1.4l-0.2,0.9L152,185.5 M141,181.5v3h3v-3H141 M145,181.5v2h2v-2H145z"/>
	<path class="st4" d="M212,203.5l-0.5-1.6l-0.2-0.4l-0.5-0.9l-1.2-1.2l-0.8-0.5l-1.8-0.5l-2-0.1l-3,0.2c-2,0.1-4,0.1-6,0.1h-6h-65
		h-12l-6,0l-3,0.1l-1,0.1l-0.9,0.2l-0.8,0.3l-1.2,0.9l-0.3,1.3l0.3,0.6l0.5,0.5l0.7,0.4l0.8,0.3l0.9,0.2l1.9,0.1l3,0h4h14H212z"/>
	<path class="st2" d="M100,203.5v9l0,3c0,1,0,2-0.1,3l-0.3,1.9l-0.3,0.9l-0.6,1.6l-0.3,0.9l-0.2,0.4l-0.3,1.5l3.1,0l3.4-0.1l0.8,0
		l0.4,0l1.2,0.1l0.7-1.7l0.2-0.5c0.6-1.3,1.1-2.5,1.6-3.8l1-3l0.8-1.9l1.2-1.5l1.6-1c0.9-0.4,1.9-0.5,2.9-0.5l2-0.1l2,0h12h42h14
		l2,0l2,0.1c1,0.1,2,0.2,2.9,0.5l1.6,1l1.2,1.5l0.8,1.9l0.9,3l0.6,2l0.8,1.9l1,1.5l0.7,0.6l0.8,0.4l0.9,0.3l1.9,0.3l1.8,0.1l3.2,0
		l-0.1-1.6l-0.3-1.3l-0.8-2.4l-0.3-0.9l-0.3-1.9c-0.1-1-0.1-2-0.1-3l0-3v-9H100z"/>
	<path class="st3" d="M112,211.5l1.1,0.6l0.4,0.1l0.8,0.2c0.9,0.1,1.8,0.1,2.7,0.1l4,0h11h43h13l3,0l1,0l1.9,0.1l1.7,0.3l0.8,0.4
		l0.4,0.1l1.1,1l0.4-0.9l-0.4-0.9l-1.2-0.8l-0.9-0.2l-0.9-0.1l-2-0.1l-2,0h-3h-10H112z"/>
	<path class="st5" d="M111,212.5l1,1L111,212.5z"/>
	<path class="st8" d="M110.3,216.1v0.7h0.3v-0.7H110.3z"/>
	<path class="st3" d="M199.3,216.1v0.7h0.3v-0.3L199.3,216.1z"/>
	<path class="st1" d="M200.3,220.1v0.3l0.3,0.3v-0.7H200.3"/>
	<path class="st3" d="M98.7,221.8l0.3,0.3h0.3l-0.3-0.3H98.7z"/>
	<path class="st8" d="M108.3,222.1v0.7h0.3v-0.3L108.3,222.1z"/>
	<path class="st3" d="M210.7,221.8l0.3,0.3h0.3v-0.3H210.7z"/>
	<path class="st5" d="M107,223.5v3l0.6-0.9v-0.3v-0.9L107,223.5z"/>
	<path class="st3" d="M98,225.5l1.1,0.6l0.4,0.1l0.8,0.2c0.9,0.1,1.8,0.1,2.7,0.1l1.9,0l2.2,0l-1.1-0.8l-0.4-0.1l-0.8-0.2l-0.8,0
		l-0.9,0l-1.8,0.1l-1.5,0.1L98,225.5z"/>
</g>
</svg>
