<?xml version="1.0" encoding="UTF-8" standalone="no"?>
<svg
   xmlns:dc="http://purl.org/dc/elements/1.1/"
   xmlns:cc="http://creativecommons.org/ns#"
   xmlns:rdf="http://www.w3.org/1999/02/22-rdf-syntax-ns#"
   xmlns:svg="http://www.w3.org/2000/svg"
   xmlns="http://www.w3.org/2000/svg"
   version="1.1"
   width="50"
   height="50"
   viewBox="0 0 50 50"
   id="svg983">
  <metadata
     id="metadata15">
    <rdf:RDF>
      <cc:Work
         rdf:about="">
        <dc:format>image/svg+xml</dc:format>
        <dc:type
           rdf:resource="http://purl.org/dc/dcmitype/StillImage" />
        <dc:title></dc:title>
      </cc:Work>
    </rdf:RDF>
  </metadata>
  <defs
     id="defs13" />
  <path
     style="fill:#89cbd9;fill-opacity:1;stroke:#3a8bf2;stroke-width:1;stroke-miterlimit:4;stroke-dasharray:none;stroke-opacity:1"
     d="m 18.516284,34.740455 c -0.432954,-0.552042 -0.880199,-1.122608 -1.241169,-1.734988 -0.09527,-0.161431 -0.36097,-0.161431 -0.455712,0 -0.3615,0.61238 -0.808744,1.182946 -1.241697,1.734988 -0.877551,1.119434 -1.706408,2.17694 -1.706408,3.427635 0,1.751397 1.4243,3.175696 3.175697,3.175696 1.751396,0 3.175695,-1.424299 3.175695,-3.175696 0,-1.250695 -0.828856,-2.308201 -1.706406,-3.427635 z"
     id="drop-left" />
  <path
     style="fill:#89cbd9;fill-opacity:1;stroke:#3a8bf2;stroke-width:1;stroke-miterlimit:4;stroke-dasharray:none;stroke-opacity:1"
     d="m 29.044062,40.76733 c -0.432954,-0.552042 -0.880199,-1.122608 -1.241169,-1.734988 -0.09527,-0.161431 -0.36097,-0.161431 -0.455712,0 -0.3615,0.61238 -0.808744,1.182946 -1.241697,1.734988 -0.877551,1.119434 -1.706408,2.17694 -1.706408,3.427635 0,1.751397 1.4243,3.175696 3.175697,3.175696 1.751396,0 3.175695,-1.424299 3.175695,-3.175696 0,-1.250695 -0.828856,-2.308201 -1.706406,-3.427635 z"
     id="drop-middle" />
  <path
     style="fill:#89cbd9;fill-opacity:1;stroke:#3a8bf2;stroke-width:1;stroke-miterlimit:4;stroke-dasharray:none;stroke-opacity:1"
     d="m 34.886682,30.280576 c -0.432954,-0.552042 -0.880199,-1.122608 -1.241169,-1.734988 -0.09527,-0.161431 -0.36097,-0.161431 -0.455712,0 -0.3615,0.61238 -0.808744,1.182946 -1.241697,1.734988 -0.877551,1.119434 -1.706408,2.17694 -1.706408,3.427635 0,1.751397 1.4243,3.175696 3.175697,3.175696 1.751396,0 3.175695,-1.424299 3.175695,-3.175696 0,-1.250695 -0.828856,-2.308201 -1.706406,-3.427635 z"
     id="drop-right" />
  <path
     style="fill:#89cbd9;fill-opacity:1;stroke:#3a8bf2;stroke-width:1;stroke-miterlimit:4;stroke-dasharray:none;stroke-opacity:1"
     d="m 40.35912,42.753506 c -0.432954,-0.552042 -0.880199,-1.122608 -1.241169,-1.734988 -0.09527,-0.161431 -0.36097,-0.161431 -0.455712,0 -0.3615,0.61238 -0.808744,1.182946 -1.241697,1.734988 -0.877551,1.119434 -1.706408,2.17694 -1.706408,3.427635 0,1.751397 1.4243,3.175696 3.175697,3.175696 1.751396,0 3.175695,-1.424299 3.175695,-3.175696 0,-1.250695 -0.828856,-2.308201 -1.706406,-3.427635 z"
     id="drop-far-right" />
  <path
     style="fill:#89cbd9;fill-opacity:1;stroke:#3a8bf2;stroke-width:1;stroke-miterlimit:4;stroke-dasharray:none;stroke-opacity:1"
     d="m 12.909968,22.846726 c -0.432954,-0.552042 -0.880199,-1.122608 -1.241169,-1.734988 -0.09527,-0.161431 -0.36097,-0.161431 -0.455712,0 -0.3615,0.61238 -0.808744,1.182946 -1.2416967,1.734988 -0.877551,1.119434 -1.706408,2.17694 -1.706408,3.427635 0,1.751397 1.4243,3.175696 3.1756967,3.175696 1.751396,0 3.175695,-1.424299 3.175695,-3.175696 0,-1.250695 -0.828856,-2.308201 -1.706406,-3.427635 z"
     id="drop-far-left" />
  <g
     transform="matrix(1.0036931,0,0,1.0036931,12.85997,-8.0664911)"
     id="cloud-bottom">
    <path
       d="m 31.841506,23.645707 -0.525404,-0.232 c 0.750281,-2.493 0.502606,-5.241 -0.702611,-7.772 -2.075708,-4.358 -6.416768,-7.066 -11.330902,-7.066 -0.879818,0 -1.791762,0.109 -2.707851,0.325 -1.118168,0.264 -2.211464,0.684 -3.250873,1.25 -0.496387,0.271 -0.97723,0.574 -1.430093,0.899 -0.922307,0.663 -1.749275,1.433 -2.4601762,2.289 -0.5119321,0.618 -0.9544321,1.261 -1.3140281,1.912 l -0.2456031,0.444 c -2.399034,-0.597 -4.8053222,-0.356 -6.94528125,0.6 -1.14407498,0.511 -2.15964875,1.205 -3.02081395,2.064 -0.4476815,0.444 -0.8601288,0.948 -1.2300878,1.499 -0.7896605,1.178 -1.3036652,2.489 -1.5357963,3.936 l -0.062178,0.392 c -2.7503397,0.411 -4.4861419,1.709 -5.4654453,2.741 -1.564813,1.649 -2.427014,3.855 -2.427014,6.212 0,4.342 3.0218502,8.737 8.7961127,8.737 1.6653338,0 6.7805096,0.006 12.4469969,0.014 l 2.6726174,0.003 c 6.814707,0.01 13.770352,0.019 16.087518,0.019 4.868536,0 8.691446,-2.966 9.737073,-7.554 1.028009,-4.513 -1.063244,-8.917 -5.08616,-10.712 m -30.7283613,2.942 c 0.1647717,-0.277 0.09534,-0.624 -0.16373536,-0.823 -1.0259368,-0.786 -2.20006444,-1.399 -3.52134674,-1.831 0.6694497,-3.701 3.9358667,-6.362 7.8624066,-6.362 2.7171781,0 5.5089698,1.407 7.2872598,3.672 0.197934,0.251 0.590691,0.326 0.870492,0.165 0.2912,-0.165 0.408302,-0.515 0.271511,-0.814 -1.017647,-2.217 -2.734795,-3.873 -3.467459,-4.516 1.856013,-3.181 5.455082,-5.303 9.032389,-5.303 4.011516,0 7.559807,2.217 9.258302,5.785 1.525433,3.202 1.127494,6.704 -1.037336,9.139 -0.771007,0.866 -1.702641,1.581 -2.768993,2.122 -0.2912,0.146 -0.426956,0.473 -0.322289,0.773 0.09223,0.262 0.344051,0.438 0.631106,0.438 l 0.108812,-0.009 c 3.542072,-0.563 5.340053,-2.605 5.93178,-3.276 0.0021,-0.003 0.0041,-0.005 0.0073,-0.008 3.378337,1.637 4.247793,5.341 3.608396,8.142 -0.642506,2.818 -2.953455,5.828 -7.510065,5.828 -2.384526,0 -9.683185,-0.01 -16.686499,-0.02 -6.4540754,-0.008 -12.6552934,-0.017 -14.5216693,-0.017 -4.2778456,0 -6.5152167,-3.288 -6.5152167,-6.536 0,-1.806 0.6487235,-3.484 1.8280327,-4.725 1.3409719,-1.412 3.2829978,-2.159 5.6157086,-2.159 1.1513291,0 2.29022258,0.207 3.38248257,0.614 0.29949064,0.113 0.65701407,-0.01 0.81867683,-0.279"
       class="contour"
       id="path2327"
       style="fill:#808080;stroke-width:1.01798809" />
    <path
       d="m 1.1131447,26.587707 c 0.1647717,-0.277 0.09534,-0.624 -0.16373536,-0.823 -1.0259368,-0.786 -2.20006444,-1.399 -3.52134674,-1.831 0.6694497,-3.701 3.9358667,-6.362 7.8624066,-6.362 2.7171781,0 5.5089698,1.407 7.2872598,3.672 0.197934,0.251 0.590691,0.326 0.870492,0.165 0.2912,-0.165 0.408302,-0.515 0.271511,-0.814 -1.017647,-2.217 -2.734795,-3.873 -3.467459,-4.516 1.856013,-3.181 5.455082,-5.303 9.032389,-5.303 4.011516,0 7.559807,2.217 9.258302,5.785 1.525433,3.202 1.127494,6.704 -1.037336,9.139 -0.771007,0.866 -1.702641,1.581 -2.768993,2.122 -0.2912,0.146 -0.426956,0.473 -0.322289,0.773 0.09223,0.262 0.344051,0.438 0.631106,0.438 l 0.108812,-0.009 c 3.542072,-0.563 5.340054,-2.605 5.931781,-3.276 0.0021,-0.003 0.0041,-0.005 0.0073,-0.008 3.378337,1.637 4.247793,5.341 3.608396,8.142 -0.642506,2.818 -2.953455,5.828 -7.510066,5.828 -2.384526,0 -9.683185,-0.01 -16.686499,-0.02 -6.4540754,-0.008 -12.6552934,-0.017 -14.5216693,-0.017 -4.2778456,0 -6.5152167,-3.288 -6.5152167,-6.536 0,-1.806 0.6487235,-3.484 1.8280327,-4.725 1.3409719,-1.412 3.2829978,-2.159 5.6157086,-2.159 1.1513291,0 2.29022258,0.207 3.38248257,0.614 0.29949064,0.113 0.65701407,-0.01 0.81867683,-0.279"
       class="inside"
       id="path2327-1"
       style="fill:#b3b3b3;fill-opacity:1;stroke-width:1.01999998" />
  </g>
</svg>
