<?xml version="1.0" encoding="UTF-8" ?>
<svg
   xmlns:dc="http://purl.org/dc/elements/1.1/"
   xmlns:cc="http://creativecommons.org/ns#"
   xmlns:rdf="http://www.w3.org/1999/02/22-rdf-syntax-ns#"
   xmlns:svg="http://www.w3.org/2000/svg"
   xmlns="http://www.w3.org/2000/svg"
   id="svg4952"
   version="1.1"
   viewBox="0 0 50 50"
   height="50"
   width="50">
  <g
     id="sun">
    <path
       style="fill:#ffa600;stroke-width:0.08817264"
       d="m 49.776085,26.508567 -4.844613,-4.24618 4.673275,-4.429608 c 0.171692,-0.162774 0.242368,-0.403507 0.185668,-0.631847 -0.05679,-0.228253 -0.232549,-0.409132 -0.460941,-0.474698 l -6.21983,-1.78348 2.298779,-5.9814964 c 0.08447,-0.219727 0.04378,-0.4672275 -0.1065,-0.6494251 C 45.151549,8.1297228 44.914222,8.0406894 44.679374,8.0783066 L 38.286348,9.1024106 37.766407,2.7249661 C 37.747301,2.4906493 37.603118,2.2841938 37.38826,2.1834709 37.173402,2.082748 36.920242,2.1028751 36.72449,2.2362932 L 31.393637,5.8698746 28.155373,0.3288872 C 28.036401,0.12533212 27.816589,-1.6120399e-7 27.578644,-1.6120399e-7 27.340699,-1.6120399e-7 27.120976,0.12533212 27.002003,0.3288872 L 23.284842,6.6893684 16.855019,3.0020858 C 16.649182,2.8840485 16.395316,2.8835211 16.189126,3.0005038 15.982759,3.1174864 15.855384,3.3344009 15.854765,3.5694209 L 15.839195,9.9674312 9.385046,9.4388558 C 9.1484278,9.4195238 8.9184438,9.5264798 8.7829302,9.7195793 8.647328,9.9126752 8.6262756,10.162637 8.7279105,10.375156 l 2.7635235,5.786291 -6.0603449,2.257124 c -0.2225538,0.08288 -0.3834542,0.276856 -0.4221976,0.5088 -0.038743,0.231856 0.050862,0.466524 0.2349375,0.615499 l 5.008257,4.056336 -4.4946849,4.606356 c -0.1650578,0.169191 -0.2263574,0.41256 -0.160635,0.63844 0.065811,0.225879 0.2485597,0.399903 0.4793398,0.456504 l 6.2851991,1.542572 -2.060569,6.065431 c -0.07572,0.222804 -0.0253,0.468547 0.132152,0.644768 0.15754,0.176221 0.398227,0.256025 0.631307,0.209355 l 6.34756,-1.269407 0.77142,6.352572 c 0.02821,0.23335 0.180537,0.434004 0.399198,0.526466 0.21884,0.09246 0.470849,0.06258 0.661205,-0.07831 l 5.183133,-3.83617 3.454626,5.235303 C 28.003584,44.884599 28.216496,45 28.444534,45 c 0.0086,0 0.01733,-1.76e-4 0.02609,-5.27e-4 0.237679,-0.0091 0.452449,-0.142911 0.563284,-0.35086 l 3.016949,-5.484826 5.469993,3.425457 c 0.201059,0.125859 0.454395,0.13623 0.665362,0.02724 0.2107,-0.108985 0.346656,-0.320802 0.356475,-0.555646 l 0.268108,-6.39265 6.428408,0.776955 c 0.235645,0.02848 0.469699,-0.06952 0.612819,-0.257256 0.143121,-0.187823 0.173904,-0.436729 0.08085,-0.653028 l -2.533008,-5.88842 6.144554,-2.021752 c 0.225738,-0.07427 0.394157,-0.261826 0.442012,-0.4921 0.04776,-0.230099 -0.03246,-0.468019 -0.210347,-0.624025 z"
       id="path2" />
    <ellipse
       style="fill:#ffdb2d;stroke-width:0.08817264"
       cx="27.354057"
       cy="22.194315"
       rx="13.71669"
       ry="13.618591"
       id="ellipse4" />
  </g>
  <g
     transform="matrix(1.0036931,0,0,1.0036931,12.60398,7.9281268)"
     id="cloud-bottom">
    <path
       d="m 31.841506,23.645707 -0.525404,-0.232 c 0.750281,-2.493 0.502606,-5.241 -0.702611,-7.772 -2.075708,-4.358 -6.416768,-7.066 -11.330902,-7.066 -0.879818,0 -1.791762,0.109 -2.707851,0.325 -1.118168,0.264 -2.211464,0.684 -3.250873,1.25 -0.496387,0.271 -0.97723,0.574 -1.430093,0.899 -0.922307,0.663 -1.749275,1.433 -2.4601762,2.289 -0.5119321,0.618 -0.9544321,1.261 -1.3140281,1.912 l -0.2456031,0.444 c -2.399034,-0.597 -4.8053222,-0.356 -6.94528125,0.6 -1.14407498,0.511 -2.15964875,1.205 -3.02081395,2.064 -0.4476815,0.444 -0.8601288,0.948 -1.2300878,1.499 -0.7896605,1.178 -1.3036652,2.489 -1.5357963,3.936 l -0.062178,0.392 c -2.7503397,0.411 -4.4861419,1.709 -5.4654453,2.741 -1.564813,1.649 -2.427014,3.855 -2.427014,6.212 0,4.342 3.0218502,8.737 8.7961127,8.737 1.6653338,0 6.7805096,0.006 12.4469969,0.014 l 2.6726174,0.003 c 6.814707,0.01 13.770352,0.019 16.087518,0.019 4.868536,0 8.691446,-2.966 9.737073,-7.554 1.028009,-4.513 -1.063244,-8.917 -5.08616,-10.712 m -30.7283613,2.942 c 0.1647717,-0.277 0.09534,-0.624 -0.16373536,-0.823 -1.0259368,-0.786 -2.20006444,-1.399 -3.52134674,-1.831 0.6694497,-3.701 3.9358667,-6.362 7.8624066,-6.362 2.7171781,0 5.5089698,1.407 7.2872598,3.672 0.197934,0.251 0.590691,0.326 0.870492,0.165 0.2912,-0.165 0.408302,-0.515 0.271511,-0.814 -1.017647,-2.217 -2.734795,-3.873 -3.467459,-4.516 1.856013,-3.181 5.455082,-5.303 9.032389,-5.303 4.011516,0 7.559807,2.217 9.258302,5.785 1.525433,3.202 1.127494,6.704 -1.037336,9.139 -0.771007,0.866 -1.702641,1.581 -2.768993,2.122 -0.2912,0.146 -0.426956,0.473 -0.322289,0.773 0.09223,0.262 0.344051,0.438 0.631106,0.438 l 0.108812,-0.009 c 3.542072,-0.563 5.340053,-2.605 5.93178,-3.276 0.0021,-0.003 0.0041,-0.005 0.0073,-0.008 3.378337,1.637 4.247793,5.341 3.608396,8.142 -0.642506,2.818 -2.953455,5.828 -7.510065,5.828 -2.384526,0 -9.683185,-0.01 -16.686499,-0.02 -6.4540754,-0.008 -12.6552934,-0.017 -14.5216693,-0.017 -4.2778456,0 -6.5152167,-3.288 -6.5152167,-6.536 0,-1.806 0.6487235,-3.484 1.8280327,-4.725 1.3409719,-1.412 3.2829978,-2.159 5.6157086,-2.159 1.1513291,0 2.29022258,0.207 3.38248257,0.614 0.29949064,0.113 0.65701407,-0.01 0.81867683,-0.279"
       class="contour"
       id="path2327"
       style="fill:#808080;stroke-width:1.01798809" />
    <path
       d="m 1.1131447,26.587707 c 0.1647717,-0.277 0.09534,-0.624 -0.16373536,-0.823 -1.0259368,-0.786 -2.20006444,-1.399 -3.52134674,-1.831 0.6694497,-3.701 3.9358667,-6.362 7.8624066,-6.362 2.7171781,0 5.5089698,1.407 7.2872598,3.672 0.197934,0.251 0.590691,0.326 0.870492,0.165 0.2912,-0.165 0.408302,-0.515 0.271511,-0.814 -1.017647,-2.217 -2.734795,-3.873 -3.467459,-4.516 1.856013,-3.181 5.455082,-5.303 9.032389,-5.303 4.011516,0 7.559807,2.217 9.258302,5.785 1.525433,3.202 1.127494,6.704 -1.037336,9.139 -0.771007,0.866 -1.702641,1.581 -2.768993,2.122 -0.2912,0.146 -0.426956,0.473 -0.322289,0.773 0.09223,0.262 0.344051,0.438 0.631106,0.438 l 0.108812,-0.009 c 3.542072,-0.563 5.340054,-2.605 5.931781,-3.276 0.0021,-0.003 0.0041,-0.005 0.0073,-0.008 3.378337,1.637 4.247793,5.341 3.608396,8.142 -0.642506,2.818 -2.953455,5.828 -7.510066,5.828 -2.384526,0 -9.683185,-0.01 -16.686499,-0.02 -6.4540754,-0.008 -12.6552934,-0.017 -14.5216693,-0.017 -4.2778456,0 -6.5152167,-3.288 -6.5152167,-6.536 0,-1.806 0.6487235,-3.484 1.8280327,-4.725 1.3409719,-1.412 3.2829978,-2.159 5.6157086,-2.159 1.1513291,0 2.29022258,0.207 3.38248257,0.614 0.29949064,0.113 0.65701407,-0.01 0.81867683,-0.279"
       class="inside"
       id="path2327-1"
       style="fill:#b3b3b3;fill-opacity:0.92857139;stroke-width:1.02" />
  </g>
  <g
     id="cloud-left">
    <path
       d="m 3.9324677,24.115301 0.4148107,-0.183166 c -0.5923529,-1.968244 -0.3968115,-4.137812 0.5547171,-6.136058 1.6387883,-3.440676 5.0660904,-5.578664 8.9458395,-5.578664 0.694623,0 1.41461,0.08606 2.13787,0.25659 0.882803,0.208431 1.745969,0.540024 2.56659,0.986886 0.391902,0.213956 0.771531,0.453177 1.12907,0.709767 0.728169,0.523444 1.381067,1.131366 1.942329,1.807184 0.404175,0.487916 0.753532,0.995569 1.037436,1.50954 l 0.193906,0.350542 c 1.894056,-0.471337 3.793841,-0.281065 5.483356,0.473704 0.903257,0.403439 1.70506,0.951357 2.384957,1.629545 0.353448,0.350542 0.679079,0.748454 0.971164,1.183473 0.623444,0.93004 1.029255,1.965086 1.212524,3.107504 l 0.04909,0.309486 c 2.171415,0.324489 3.541845,1.349269 4.315013,2.164042 1.235433,1.3019 1.916148,3.043554 1.916148,4.904424 0,3.428044 -2.385776,6.897933 -6.944603,6.897933 -1.314794,0 -5.353267,0.0047 -9.827005,0.01105 l -2.110053,0.0024 c -5.380266,0.0079 -10.8718044,0.015 -12.7012258,0.015 -3.8437486,0 -6.86196708,-2.341681 -7.68749808,-5.963944 -0.81162144,-3.56305 0.83943976,-7.040044 4.01556458,-8.457211 m 24.2602903,2.322733 c -0.130088,-0.218694 -0.07527,-0.492653 0.129271,-0.649766 0.809985,-0.620553 1.736968,-1.104521 2.780131,-1.445589 -0.528536,-2.921969 -3.107398,-5.022851 -6.207433,-5.022851 -2.145234,0 -4.349377,1.110838 -5.753351,2.899074 -0.156271,0.198167 -0.466355,0.25738 -0.687261,0.130269 -0.229904,-0.130269 -0.322357,-0.406597 -0.21436,-0.642659 0.803441,-1.75034 2.159143,-3.057765 2.737587,-3.565419 -1.465337,-2.511425 -4.306831,-4.186762 -7.131144,-4.186762 -3.167125,0 -5.9685291,1.75034 -7.3095047,4.567305 -1.2043417,2.528005 -0.8901656,5.292862 0.8189852,7.215314 0.6087163,0.683714 1.3442489,1.248213 2.1861425,1.675337 0.2299047,0.115268 0.3370852,0.373437 0.2544497,0.610289 -0.072816,0.206852 -0.271631,0.345805 -0.4982633,0.345805 l -0.085908,-0.0071 C 6.4156049,27.916781 4.9960843,26.304606 4.5289111,25.774846 c -0.00166,-0.0024 -0.00324,-0.0039 -0.00576,-0.0063 -2.6672245,1.292425 -3.3536671,4.216763 -2.848858,6.428175 0.5072637,2.224834 2.3317767,4.601253 5.9292573,4.601253 1.8826026,0 7.6449526,-0.0079 13.1741256,-0.01579 5.095545,-0.0063 9.991457,-0.01342 11.464976,-0.01342 3.377394,0 5.143816,-2.595902 5.143816,-5.160225 0,-1.425851 -0.512172,-2.750646 -1.443246,-3.730426 -1.058708,-1.114785 -2.591954,-1.704548 -4.433648,-1.704548 -0.908983,0 -1.808149,0.163429 -2.670497,0.484758 -0.236451,0.08922 -0.518718,-0.0079 -0.646352,-0.220272"
       class="contour"
       id="path2327-7"
       style="fill:#808080;stroke-width:0.8" />
    <path
       d="m 28.192758,26.438033 c -0.130088,-0.218694 -0.07527,-0.492653 0.129271,-0.649765 0.809985,-0.620554 1.736968,-1.104522 2.780131,-1.445589 -0.528536,-2.92197 -3.107398,-5.022851 -6.207433,-5.022851 -2.145234,0 -4.349377,1.110838 -5.753351,2.899074 -0.156271,0.198167 -0.466355,0.25738 -0.687261,0.130269 -0.229904,-0.130269 -0.322357,-0.406597 -0.21436,-0.64266 0.803441,-1.750339 2.159143,-3.057765 2.737587,-3.565418 -1.465337,-2.511426 -4.306831,-4.186762 -7.131144,-4.186762 -3.167125,0 -5.9685291,1.75034 -7.3095047,4.567304 -1.2043417,2.528005 -0.8901656,5.292863 0.8189852,7.215314 0.6087163,0.683714 1.3442489,1.248213 2.1861425,1.675337 0.2299047,0.115268 0.3370852,0.373437 0.2544497,0.610289 -0.072816,0.206852 -0.271631,0.345805 -0.4982633,0.345805 l -0.085908,-0.0071 c -2.7964946,-0.444493 -4.216016,-2.056668 -4.6831892,-2.586428 -0.00166,-0.0024 -0.00324,-0.0039 -0.00576,-0.0063 -2.6672245,1.292425 -3.3536671,4.216763 -2.8488579,6.428175 0.5072637,2.224834 2.3317766,4.601254 5.929258,4.601254 1.8826026,0 7.6449527,-0.0079 13.1741257,-0.01579 5.095545,-0.0063 9.991457,-0.01342 11.464976,-0.01342 3.377394,0 5.143816,-2.595903 5.143816,-5.160225 0,-1.425852 -0.512172,-2.750646 -1.443246,-3.730426 -1.058708,-1.114785 -2.591954,-1.704548 -4.433648,-1.704548 -0.908983,0 -1.808149,0.163428 -2.670497,0.484758 -0.236451,0.08921 -0.518718,-0.0079 -0.646352,-0.220273"
       class="inside"
       id="path2327-1-0"
       style="fill:#b3b3b3;fill-opacity:0.94117647;stroke-width:0.8" />
  </g>
</svg>
