<?xml version="1.0" encoding="utf-8"?>
<!-- Generator: Adobe Illustrator 16.0.0, SVG Export Plug-In . SVG Version: 6.00 Build 0)  -->
<!DOCTYPE svg PUBLIC "-//W3C//DTD SVG 1.1//EN" "http://www.w3.org/Graphics/SVG/1.1/DTD/svg11.dtd">
<svg version="1.1" id="Calque_1" xmlns="http://www.w3.org/2000/svg" xmlns:xlink="http://www.w3.org/1999/xlink" x="0px" y="0px"
	 width="199.796px" height="217.016px" viewBox="0 0 199.796 217.016" enable-background="new 0 0 199.796 217.016"
	 xml:space="preserve">
<g>
	<g>
		<g>
			<path fill="#F4A634" d="M125.805,34.151c-21.968,0-39.843,17.875-39.843,39.842s17.875,39.841,39.843,39.841
				c21.966,0,39.842-17.875,39.842-39.841S147.771,34.151,125.805,34.151z M125.805,102.451c-15.72,0-28.459-12.74-28.459-28.458
				c0-15.719,12.74-28.458,28.459-28.458s28.457,12.739,28.457,28.458C154.262,89.711,141.523,102.451,125.805,102.451z"/>
		</g>
		<g>
			<g>
				<path fill="#F4A634" d="M125.805,0c-3.143,0-5.692,2.55-5.692,5.692v11.383c0,3.142,2.55,5.691,5.692,5.691
					c3.142,0,5.691-2.549,5.691-5.691V5.692C131.495,2.55,128.946,0,125.805,0z"/>
			</g>
			<g>
				<path fill="#F4A634" d="M125.805,125.217c-3.143,0-5.692,2.549-5.692,5.691v11.385c0,3.141,2.55,5.691,5.692,5.691
					c3.142,0,5.691-2.551,5.691-5.691v-11.385C131.495,127.766,128.946,125.217,125.805,125.217z"/>
			</g>
		</g>
		<g>
			<g>
				<path fill="#F4A634" d="M178.118,21.67c-2.223-2.223-5.825-2.223-8.048,0l-8.048,8.049c-2.224,2.224-2.224,5.825,0,8.048
					c2.224,2.225,5.825,2.225,8.048,0l8.048-8.048C180.342,27.495,180.342,23.894,178.118,21.67z"/>
			</g>
			<g>
				<path fill="#F4A634" d="M89.586,110.217c-2.224-2.224-5.824-2.23-8.048,0l-8.048,8.049c-2.223,2.223-2.223,5.824,0,8.047
					c2.223,2.225,5.825,2.225,8.048,0l8.048-8.047C91.81,116.036,91.81,112.44,89.586,110.217z"/>
			</g>
		</g>
		<g>
			<g>
				<path fill="#F4A634" d="M51.813,73.992c0,3.142,2.549,5.691,5.691,5.691h11.383c3.143,0,5.692-2.55,5.692-5.691
					c0-3.143-2.549-5.692-5.692-5.692H57.504C54.361,68.301,51.813,70.85,51.813,73.992z"/>
			</g>
			<g>
				<path fill="#F4A634" d="M177.029,73.992c0,3.142,2.549,5.691,5.691,5.691h11.384c3.142,0,5.691-2.55,5.691-5.691
					c0-3.143-2.549-5.692-5.691-5.692h-11.384C179.578,68.301,177.029,70.85,177.029,73.992z"/>
			</g>
		</g>
		<g>
			<g>
				<path fill="#F4A634" d="M73.482,21.67c-2.224,2.224-2.224,5.825,0,8.049l8.048,8.048c2.224,2.225,5.825,2.225,8.048,0
					c2.224-2.223,2.224-5.824,0-8.048L81.53,21.67C79.307,19.446,75.705,19.446,73.482,21.67z"/>
			</g>
			<g>
				<path fill="#F4A634" d="M162.029,110.209c-2.225,2.223-2.231,5.826,0,8.049l8.048,8.047c2.223,2.225,5.825,2.225,8.048,0
					c2.223-2.223,2.223-5.824,0-8.047l-8.048-8.049C167.848,107.987,164.252,107.987,162.029,110.209z"/>
			</g>
		</g>
	</g>
	<g>
		<polygon fill="#F4A634" points="94.908,157.745 82.096,157.12 67.652,171.483 79.035,182.868 67.652,217.016 101.802,182.868 
			90.419,171.483 		"/>
	</g>
	<g>
		<g>
			<path fill="#FFFFFF" d="M142.294,70.289c-1.89,0-3.757,0.134-5.618,0.399c-10.627-14.48-27.398-23.167-45.607-23.167
				S56.095,56.208,45.46,70.688c-1.86-0.267-3.728-0.399-5.618-0.399C17.875,70.289,0,88.164,0,110.131
				c0,21.967,17.875,39.842,39.842,39.842c4.869,0,9.635-0.889,14.125-2.609c10.301,8.982,23.404,13.992,37.101,13.992
				c13.711,0,26.798-5.01,37.1-13.992c4.491,1.719,9.256,2.609,14.126,2.609c21.966,0,39.842-17.875,39.842-39.842
				C182.135,88.164,164.261,70.289,142.294,70.289z"/>
		</g>
		<g>
			<path fill="#C7C6C6" d="M142.294,70.289c-1.89,0-3.757,0.134-5.618,0.399c-10.627-14.48-27.398-23.167-45.607-23.167
				S56.095,56.208,45.46,70.688c-1.86-0.267-3.728-0.399-5.618-0.399C17.875,70.289,0,88.164,0,110.131
				c0,21.967,17.875,39.842,39.842,39.842c4.869,0,9.635-0.889,14.125-2.609c10.301,8.982,23.404,13.992,37.101,13.992
				c13.711,0,26.798-5.01,37.1-13.992c4.491,1.719,9.256,2.609,14.126,2.609c21.966,0,39.842-17.875,39.842-39.842
				C182.135,88.164,164.261,70.289,142.294,70.289z M142.294,138.588c-6.092,0-11.709-1.957-16.341-5.217
				c-8.352,10.063-20.788,16.6-34.884,16.6c-14.097,0-26.532-6.537-34.884-16.6c-4.624,3.26-10.249,5.217-16.342,5.217
				c-15.719,0-28.457-12.74-28.457-28.457c0-15.718,12.739-28.458,28.457-28.458c3.847,0,7.492,0.785,10.827,2.164
				c7.553-14.732,22.716-24.931,40.398-24.931s32.846,10.198,40.39,24.931c3.344-1.379,6.996-2.164,10.835-2.164
				c15.72,0,28.458,12.74,28.458,28.458C170.752,125.848,158.014,138.588,142.294,138.588z"/>
		</g>
	</g>
</g>
</svg>
