<?xml version="1.0" encoding="utf-8"?>
<!-- Generator: Adobe Illustrator 16.0.0, SVG Export Plug-In . SVG Version: 6.00 Build 0)  -->
<!DOCTYPE svg PUBLIC "-//W3C//DTD SVG 1.1//EN" "http://www.w3.org/Graphics/SVG/1.1/DTD/svg11.dtd">
<svg version="1.1" id="Calque_1" xmlns="http://www.w3.org/2000/svg" xmlns:xlink="http://www.w3.org/1999/xlink" x="0px" y="0px"
	 width="182.136px" height="208.344px" viewBox="0 0 182.136 208.344" enable-background="new 0 0 182.136 208.344"
	 xml:space="preserve">
<g>
	<g>
		<g>
			<g>
				<path fill="#46385A" d="M159.796,75.322c-17.742,17.757-46.63,17.757-64.387,0s-17.757-46.646,0-64.396
					c4.698-4.69,10.427-8.271,17.015-10.604c2.075-0.728,4.373-0.2,5.914,1.349c1.556,1.557,2.083,3.854,1.35,5.914
					c-4.461,12.584-1.423,26.207,7.915,35.543c9.322,9.33,22.945,12.362,35.543,7.916c2.061-0.734,4.365-0.209,5.914,1.349
					c1.557,1.542,2.074,3.847,1.341,5.914C168.081,64.896,164.494,70.623,159.796,75.322z M103.457,18.976
					c-13.318,13.318-13.318,34.988,0,48.299c14.229,14.236,38.463,12.955,50.869-2.905c-12.791,0.8-25.39-3.815-34.772-13.19
					s-13.992-21.975-13.191-34.767C105.339,17.212,104.368,18.063,103.457,18.976z"/>
			</g>
		</g>
	</g>
	<g>
		<g>
			<path fill="#FFFFFF" d="M142.292,67.781c-1.89,0-3.757,0.133-5.618,0.399c-10.627-14.48-27.397-23.166-45.606-23.166
				S56.095,53.7,45.46,68.181c-1.859-0.267-3.728-0.399-5.618-0.399C17.875,67.781,0,85.656,0,107.623
				c0,21.967,17.875,39.842,39.842,39.842c4.869,0,9.636-0.889,14.126-2.607c10.301,8.98,23.403,13.992,37.1,13.992
				c13.71,0,26.798-5.01,37.1-13.992c4.491,1.719,9.258,2.607,14.127,2.607c21.966,0,39.842-17.875,39.842-39.842
				C182.136,85.656,164.259,67.781,142.292,67.781z"/>
		</g>
		<g>
			<path fill="#C7C6C6" d="M142.292,67.781c-1.89,0-3.757,0.133-5.618,0.399c-10.627-14.48-27.397-23.166-45.606-23.166
				S56.095,53.7,45.46,68.181c-1.859-0.267-3.728-0.399-5.618-0.399C17.875,67.781,0,85.656,0,107.623
				c0,21.967,17.875,39.842,39.842,39.842c4.869,0,9.636-0.889,14.126-2.607c10.301,8.98,23.403,13.992,37.1,13.992
				c13.71,0,26.798-5.01,37.1-13.992c4.491,1.719,9.258,2.607,14.127,2.607c21.966,0,39.842-17.875,39.842-39.842
				C182.136,85.656,164.259,67.781,142.292,67.781z M142.292,136.082c-6.092,0-11.709-1.957-16.341-5.217
				c-8.353,10.064-20.788,16.602-34.884,16.602c-14.097,0-26.531-6.537-34.885-16.602c-4.624,3.262-10.249,5.217-16.341,5.217
				c-15.719,0-28.458-12.74-28.458-28.459c0-15.717,12.74-28.458,28.458-28.458c3.847,0,7.492,0.786,10.827,2.164
				c7.552-14.732,22.715-24.932,40.398-24.932c17.683,0,32.846,10.199,40.39,24.932c3.343-1.378,6.996-2.164,10.835-2.164
				c15.719,0,28.458,12.74,28.458,28.458C170.75,123.341,158.011,136.082,142.292,136.082z"/>
		</g>
	</g>
	<g>
		<path fill="#40A0BE" d="M27.221,191.003c-3.291,5.363-1.613,12.365,3.749,15.656c5.363,3.291,12.365,1.613,15.656-3.748
			c3.291-5.363,2.204-25.359,2.204-25.359S30.511,185.642,27.221,191.003z"/>
	</g>
	<g>
		<path fill="#40A0BE" d="M72.721,177.003c-3.291,5.363-1.614,12.365,3.749,15.656s12.365,1.613,15.656-3.748
			c3.291-5.363,2.205-25.359,2.205-25.359S76.011,171.642,72.721,177.003z"/>
	</g>
</g>
</svg>
