<?xml version="1.0" encoding="UTF-8" ?>
<svg
   xmlns:dc="http://purl.org/dc/elements/1.1/"
   xmlns:cc="http://creativecommons.org/ns#"
   xmlns:rdf="http://www.w3.org/1999/02/22-rdf-syntax-ns#"
   xmlns:svg="http://www.w3.org/2000/svg"
   xmlns="http://www.w3.org/2000/svg"
   version="1.1"
   width="50"
   height="50"
   viewBox="0 0 50 50"
   id="svg983">
  <path
     style="fill:#89cbd9;fill-opacity:1;stroke:#3a8bf2;stroke-width:1;stroke-miterlimit:4;stroke-dasharray:none;stroke-opacity:1"
     d="m 31.981199,41.061672 c 0.432954,-0.552042 0.880199,-1.122608 1.241169,-1.734988 0.09527,-0.161431 0.36097,-0.161431 0.455712,0 0.3615,0.61238 0.808744,1.182946 1.241697,1.734988 0.877551,1.119434 1.706408,2.17694 1.706408,3.427635 0,1.751397 -1.4243,3.175696 -3.175697,3.175696 -1.751396,0 -3.175695,-1.424299 -3.175695,-3.175696 0,-1.250695 0.828856,-2.308201 1.706406,-3.427635 z"
     class="drop"
     id="path7209" />
  <path
     style="fill:#89cbd9;fill-opacity:1;stroke:#3a8bf2;stroke-width:1;stroke-miterlimit:4;stroke-dasharray:none;stroke-opacity:1"
     d="m 21.286446,21.364495 c 0.432954,-0.552042 0.880199,-1.122608 1.241169,-1.734988 0.09527,-0.161431 0.36097,-0.161431 0.455712,0 0.3615,0.61238 0.808744,1.182946 1.241697,1.734988 0.877551,1.119434 1.706408,2.17694 1.706408,3.427635 0,1.751397 -1.4243,3.175696 -3.175697,3.175696 -1.751396,0 -3.175695,-1.424299 -3.175695,-3.175696 0,-1.250695 0.828856,-2.308201 1.706406,-3.427635 z"
     class="drop"
     id="path7211" />
  <path
     style="fill:#89cbd9;fill-opacity:1;stroke:#3a8bf2;stroke-width:1;stroke-miterlimit:4;stroke-dasharray:none;stroke-opacity:1"
     d="m 15.443826,9.4331182 c 0.432954,-0.552042 0.880199,-1.122608 1.241169,-1.734988 0.09527,-0.161431 0.36097,-0.161431 0.455712,0 0.3615,0.61238 0.808744,1.182946 1.241697,1.734988 0.877551,1.1194338 1.706408,2.1769398 1.706408,3.4276348 0,1.751397 -1.4243,3.175696 -3.175697,3.175696 -1.751396,0 -3.175695,-1.424299 -3.175695,-3.175696 0,-1.250695 0.828856,-2.308201 1.706406,-3.4276348 z"
     class="drop"
     id="path7213" />
  <path
     style="fill:#89cbd9;fill-opacity:1;stroke:#3a8bf2;stroke-width:1;stroke-miterlimit:4;stroke-dasharray:none;stroke-opacity:1"
     d="m 32.769087,22.19821 c 0.432954,-0.552042 0.880199,-1.122608 1.241169,-1.734988 0.09527,-0.161431 0.36097,-0.161431 0.455712,0 0.3615,0.61238 0.808744,1.182946 1.241697,1.734988 0.877551,1.119434 1.706408,2.17694 1.706408,3.427635 0,1.751397 -1.4243,3.175696 -3.175697,3.175696 -1.751396,0 -3.175695,-1.424299 -3.175695,-3.175696 0,-1.250695 0.828856,-2.308201 1.706406,-3.427635 z"
     class="drop"
     id="path7215" />
  <path
     style="fill:#89cbd9;fill-opacity:1;stroke:#3a8bf2;stroke-width:0.97902906;stroke-miterlimit:4;stroke-dasharray:none;stroke-opacity:1"
     d="m 7.1963224,35.610622 c 0.414985,-0.552042 0.843668,-1.122608 1.189657,-1.734988 0.09132,-0.161431 0.345989,-0.161431 0.436799,0 0.346497,0.61238 0.77518,1.182946 1.1901636,1.734988 0.841131,1.119434 1.635589,2.17694 1.635589,3.427635 0,1.751397 -1.365189,3.175696 -3.0438986,3.175696 -1.678709,0 -3.043897,-1.424299 -3.043897,-3.175696 0,-1.250695 0.794457,-2.308201 1.635587,-3.427635 z"
     class="drop"
     id="path7219" />
  <path
     style="fill:#89cbd9;fill-opacity:1;stroke:#3a8bf2;stroke-width:1;stroke-miterlimit:4;stroke-dasharray:none;stroke-opacity:1"
     d="m 29.155149,6.8089653 c 0.432954,-0.552042 0.880199,-1.1226086 1.241169,-1.7349886 0.09527,-0.1614307 0.36097,-0.1614307 0.455712,0 0.3615,0.61238 0.808744,1.1829466 1.241697,1.7349886 0.877551,1.119434 1.706408,2.17694 1.706408,3.4276347 0,1.751397 -1.4243,3.175696 -3.175697,3.175696 -1.751396,0 -3.175695,-1.424299 -3.175695,-3.175696 0,-1.2506947 0.828856,-2.3082007 1.706406,-3.4276347 z"
     class="drop"
     id="path7221" />
  <path
     style="fill:#89cbd9;fill-opacity:1;stroke:#3a8bf2;stroke-width:1;stroke-miterlimit:4;stroke-dasharray:none;stroke-opacity:1"
     d="m 5.9459644,23.270456 c 0.432954,-0.552042 0.880199,-1.122608 1.241169,-1.734988 0.09527,-0.161431 0.36097,-0.161431 0.455712,0 0.3615,0.61238 0.808744,1.182946 1.241697,1.734988 0.877551,1.119433 1.7064076,2.176939 1.7064076,3.427634 0,1.751397 -1.4242996,3.175696 -3.1756966,3.175696 -1.751396,0 -3.175695,-1.424299 -3.175695,-3.175696 0,-1.250695 0.828856,-2.308201 1.706406,-3.427634 z"
     class="drop"
     id="path7223" />
  <path
     style="fill:#89cbd9;fill-opacity:1;stroke:#3a8bf2;stroke-width:1;stroke-miterlimit:4;stroke-dasharray:none;stroke-opacity:1"
     d="m 40.730155,33.755193 c 0.432954,-0.552042 0.880199,-1.122608 1.241169,-1.734988 0.09527,-0.161431 0.36097,-0.161431 0.455712,0 0.3615,0.61238 0.808744,1.182946 1.241697,1.734988 0.877551,1.119434 1.706408,2.17694 1.706408,3.427635 0,1.751397 -1.4243,3.175696 -3.175697,3.175696 -1.751396,0 -3.175695,-1.424299 -3.175695,-3.175696 0,-1.250695 0.828856,-2.308201 1.706406,-3.427635 z"
     class="drop"
     id="path7225" />
  <path
     id="bolt"
     d="m 24.399427,43.054442 -1.807507,3.518937 c -1.781918,3.469121 -3.348927,5.017776 -3.637659,1.624613 -0.154852,-1.819807 0.46811,-3.537753 0.912278,-5.370796 h -1.364921 c -0.03586,0 -0.06916,-0.0294 -0.08771,-0.07738 -0.0186,-0.04809 -0.01984,-0.107834 -0.0031,-0.157576 l 1.462785,-4.361155 h -2.169267 c -0.03575,0 -0.06896,-0.02915 -0.0876,-0.07685 -0.0186,-0.0477 -0.02004,-0.107165 -0.0037,-0.156907 l 2.430598,-7.397091 c 0.01756,-0.05351 0.05279,-0.08713 0.09125,-0.08713 h 4.383645 0.678319 0.76524 c 0.03674,0 0.07069,0.0307 0.08897,0.08051 0.01832,0.04982 0.01821,0.111106 -3.22e-4,0.16078 l -1.439395,3.859413 h 1.618284 c 0.03746,0 0.07197,0.03197 0.08996,0.08329 0.01799,0.05144 0.01668,0.1141 -0.0035,0.163457 l -2.074015,5.079054 h 1.580438 c 0.03976,0 0.07596,0.03605 0.09287,0.09234 0.01688,0.05637 0.01146,0.122795 -0.014,0.170708 l -1.096588,2.082164"
     style="fill:#f29f26;stroke-width:0.02815263" />
  <g
     id="g940"
     transform="translate(13.652265,18.660519)">
    <path
       id="path9060-1"
       d="m 26.744888,7.660109 c 1.631875,2.086222 0.295654,3.978227 -3.540196,3.978227 -1.673538,0 -7.233867,0.0079 -13.021093,0.01414 -6.279716,0.0077 -12.823406,0.01414 -14.961558,0.01414 -4.085811,0 -6.159469,-2.286298 -6.735591,-4.426604 -0.573333,-2.127393 2.000523,-4.01058 5.029802,-5.253903 0.0029,0.0024 0.0051,0.0033 0.007,0.0057 0.530588,0.509633 2.142673,2.060504 5.31877,2.48811 l 0.09808,0.0071 c 0.257396,0 0.482967,-0.134449 0.565677,-0.33344 C -0.400361,3.925723 -0.522071,3.678114 -0.78319,3.567226 -1.739366,3.15634 -2.575226,2.612858 -3.26657,1.955121 c -1.604924,-0.603547 -0.608221,-2.17994 -0.07032,-4.044265 0.538388,-1.865992 1.864242,-2.775653 1.837752,-4.657231 -0.606285,-2.333991 -4.843846,-3.877796 -4.843846,-5.249475 0,-2.466895 2.006567,-4.963502 5.842415,-4.963502 1.673539,0 7.233867,-0.0079 13.021094,-0.01413 6.279715,-0.0076 12.825158,-0.01413 14.96331,-0.01413 4.08581,0 6.157717,2.286297 6.73384,4.426602 0.509372,1.972593 -4.187847,2.539193 -6.823159,4.736027 -0.0028,-0.0024 -0.0034,-0.0033 -0.0053,-0.0057 -0.530587,-0.509581 -2.142671,-2.060452 -5.318769,-2.488057 l -0.09808,-0.0071 c -0.257396,0 -0.482968,0.134451 -0.565677,0.333443 -0.09386,0.227852 0.02786,0.475464 0.288968,0.586352 0.956174,0.410896 2.130782,1.578629 2.822127,2.236368 -3.319389,6.57132 -4.787599,2.144998 -2.184092,10.025029 1.279622,2.202367 3.15998,2.921573 4.411187,4.80482 z"
       style="fill:#666666;fill-opacity:1;stroke-width:0.84009469" />
    <path
       style="fill:#4d4d4d;stroke-width:0.84009469"
       d="m 25.927948,-4.589614 3.463112,-2.40843 c 3.60726,-1.363324 7.744915,-2.497064 6.823121,-5.924741 -0.93759,-3.48464 -4.366593,-5.737769 -8.732101,-5.737769 -2.077752,0 -8.315057,0.0065 -14.425654,0.01413 l -2.395811,0.0028 c -5.0810138,0.0061 -9.66791882,0.0099 -11.16118682,0.0099 -5.17765398,0 -7.88796198,3.338571 -7.88796198,6.636372 0,1.790171 3.552293,3.383119 4.753926,5.367074 -0.641094,1.326926 -0.320088,1.332995 -1.050074,2.860351 -0.729986,1.527356 -2.335108,3.04176903 -1.998728,3.98849903 l -0.471106,0.176613 C -10.761776,1.75851 -14.430112,4.174033 -13.508319,7.601711 c 0.937591,3.484639 4.3648402,5.73777 8.7303492,5.73777 2.077751,0 8.315056,-0.0064 14.425654,-0.01414 l 2.3958118,-0.0027 c 5.081014,-0.0061 9.667918,-0.0099 11.161185,-0.0099 5.177654,0 7.608782,-3.573164 6.094608,-6.636372 C 28.696612,5.457107 26.31009,4.042244 25.039435,2.402302 23.369142,0.24657603 23.43947,-0.42577297 23.520308,-1.354462 24.09,-2.868494 24.599874,-3.666001 25.927948,-4.589614 Z m 0.81694,12.249723 c 1.631875,2.086222 0.295654,3.978227 -3.540196,3.978227 -1.673538,0 -7.233867,0.0079 -13.021093,0.01414 -6.2797158,0.0077 -12.8234058,0.01414 -14.9615578,0.01414 -4.085811,0 -6.1594692,-2.286298 -6.7355912,-4.426604 -0.573333,-2.127393 2.0005232,-4.01058 5.0298022,-5.253903 0.0029,0.0024 0.0051,0.0033 0.007,0.0057 0.530588,0.509633 2.142673,2.060504 5.31877,2.48811 l 0.09808,0.0071 c 0.25739598,0 0.48296698,-0.134449 0.56567698,-0.33344 0.09386,-0.227856 -0.02785,-0.475465 -0.288969,-0.586353 C -1.7393658,3.15634 -2.5752258,2.612858 -3.2665698,1.955121 c -1.604924,-0.603547 -0.608221,-2.17993997 -0.07032,-4.044265 0.538388,-1.865992 1.864242,-2.775653 1.837752,-4.657231 -0.606285,-2.333991 -4.843846,-3.877796 -4.843846,-5.249475 0,-2.466895 2.006567,-4.963502 5.84241498,-4.963502 1.67353902,0 7.23386702,-0.0079 13.02109382,-0.01413 6.279715,-0.0076 12.825158,-0.01413 14.96331,-0.01413 4.08581,0 6.157717,2.286297 6.73384,4.426602 0.509372,1.972593 -4.187847,2.539193 -6.823159,4.736027 -0.0028,-0.0024 -0.0034,-0.0033 -0.0053,-0.0057 -0.530587,-0.509581 -2.142671,-2.060452 -5.318769,-2.488057 l -0.09808,-0.0071 c -0.257396,0 -0.482968,0.134451 -0.565677,0.333443 -0.09386,0.227852 0.02786,0.475464 0.288968,0.586352 0.956174,0.410896 2.130782,1.578629 2.822127,2.236368 -3.319389,6.57132003 -4.787599,2.144998 -2.184092,10.025029 1.279622,2.202367 3.15998,2.921573 4.411187,4.80482 z"
       id="path936" />
  </g>
</svg>
