<?xml version="1.0" encoding="UTF-8" ?>
<svg
   xmlns:dc="http://purl.org/dc/elements/1.1/"
   xmlns:cc="http://creativecommons.org/ns#"
   xmlns:rdf="http://www.w3.org/1999/02/22-rdf-syntax-ns#"
   xmlns:svg="http://www.w3.org/2000/svg"
   xmlns="http://www.w3.org/2000/svg"
   id="Calque_1"
   x="0px"
   y="0px"
   width="50"
   height="50"
   viewBox="0 0 50 50"
   version="1.1">
  <path
     class="fog"
     style="fill:#cbd5d8;fill-opacity:0.86734697;stroke-width:2.54280019"
     d="M 23.585231,41.841982 H 8.18317 c -1.503646,0 -2.71851,1.270064 -2.71851,2.836217 0,1.568748 1.214864,2.841409 2.71851,2.841409 h 15.402061 c 1.503641,0 2.720995,-1.270063 2.720995,-2.841409 0,-1.563555 -1.217354,-2.836217 -2.720995,-2.836217"
     id="path2105-2" />
  <path
     class="fog"
     style="fill:#cbd5d8;fill-opacity:0.86734697;stroke-width:2.60397148"
     d="m 8.1792248,30.330679 c -1.574248,0 -2.850877,1.270064 -2.850877,2.836217 0,1.568748 1.276629,2.841409 2.850877,2.841409 1.576859,0 2.8508772,-1.270063 2.8508772,-2.841409 0,-1.563555 -1.2740182,-2.836217 -2.8508772,-2.836217"
     id="path1533-9" />
  <path
     class="fog"
     style="fill:#cbd5d8;fill-opacity:0.86734697;stroke-width:2.54280019"
     d="M 43.318432,30.330679 H 15.916371 c -1.503646,0 -2.71851,1.270064 -2.71851,2.836217 0,1.568748 1.214864,2.841409 2.71851,2.841409 h 27.402061 c 1.503638,0 2.720998,-1.270063 2.720998,-2.841409 0,-1.563555 -1.21736,-2.836217 -2.720998,-2.836217"
     id="path2105-2-5" />
  <path
     class="fog"
     style="fill:#cbd5d8;fill-opacity:0.86734697;stroke-width:2.54280019"
     d="M 44.631986,17.830678 H 3.2299289 c -1.503646,0 -2.71851,1.270064 -2.71851,2.836217 0,1.568748 1.214864,2.841409 2.71851,2.841409 H 44.631986 c 1.50364,0 2.721,-1.270063 2.721,-2.841409 0,-1.563555 -1.21736,-2.836217 -2.721,-2.836217"
     id="path2105-2-5-0" />
  <path
     class="fog"
     style="fill:#cbd5d8;fill-opacity:0.86734697;stroke-width:2.54280019"
     d="M 42.259111,41.841982 H 32.85705 c -1.503646,0 -2.71851,1.270064 -2.71851,2.836217 0,1.568748 1.214864,2.841409 2.71851,2.841409 h 9.402061 c 1.503641,0 2.720995,-1.270063 2.720995,-2.841409 0,-1.563555 -1.217354,-2.836217 -2.720995,-2.836217"
     id="path2105-2-4" />
  <path
     class="fog"
     style="fill:#cbd5d8;fill-opacity:0.86734697;stroke-width:2.54280019"
     d="M 29.496397,4.9069499 H 8.094336 c -1.5036459,0 -2.7185099,1.270064 -2.7185099,2.836217 0,1.5687481 1.214864,2.8414091 2.7185099,2.8414091 h 21.402061 c 1.503638,0 2.720998,-1.270063 2.720998,-2.8414091 0,-1.563555 -1.21736,-2.836217 -2.720998,-2.836217"
     id="path2105-2-5-8" />
  <path
     class="fog"
     style="fill:#cbd5d8;fill-opacity:0.86734697;stroke-width:2.54280019"
     d="m 43.411652,4.90695 h -7.402061 c -1.503646,0 -2.71851,1.270064 -2.71851,2.836217 0,1.568748 1.214864,2.841409 2.71851,2.841409 h 7.402061 c 1.503641,0 2.720995,-1.270063 2.720995,-2.841409 0,-1.563555 -1.217354,-2.836217 -2.720995,-2.836217"
     id="path2105-2-1" />
</svg>
