<?xml version="1.0" encoding="UTF-8"?>
<svg xmlns:dc="http://purl.org/dc/elements/1.1/" xmlns:cc="http://creativecommons.org/ns#" xmlns:rdf="http://www.w3.org/1999/02/22-rdf-syntax-ns#" xmlns:svg="http://www.w3.org/2000/svg" xmlns="http://www.w3.org/2000/svg" id="svg983" viewBox="0 0 50 50" height="50" width="50" version="1.1">
  <path id="drop-left" d="m 19.245098,38.952319 c -0.432954,-0.552042 -0.880199,-1.122608 -1.241169,-1.734988 -0.09527,-0.161431 -0.36097,-0.161431 -0.455712,0 -0.3615,0.61238 -0.808744,1.182946 -1.241697,1.734988 -0.877551,1.119434 -1.706408,2.17694 -1.706408,3.427635 0,1.751397 1.4243,3.175696 3.175697,3.175696 1.751396,0 3.175695,-1.424299 3.175695,-3.175696 0,-1.250695 -0.828856,-2.308201 -1.706406,-3.427635 z" style="fill:#89cbd9;fill-opacity:1;stroke:#3a8bf2;stroke-width:1;stroke-miterlimit:4;stroke-dasharray:none;stroke-opacity:1"/>
  <path id="drop-right" d="m 35.615496,32.49244 c -0.432954,-0.552042 -0.880199,-1.122608 -1.241169,-1.734988 -0.09527,-0.161431 -0.36097,-0.161431 -0.455712,0 -0.3615,0.61238 -0.808744,1.182946 -1.241697,1.734988 -0.877551,1.119434 -1.706408,2.17694 -1.706408,3.427635 0,1.751397 1.4243,3.175696 3.175697,3.175696 1.751396,0 3.175695,-1.424299 3.175695,-3.175696 0,-1.250695 -0.828856,-2.308201 -1.706406,-3.427635 z" style="fill:#89cbd9;fill-opacity:1;stroke:#3a8bf2;stroke-width:1;stroke-miterlimit:4;stroke-dasharray:none;stroke-opacity:1"/>
  <g id="cloud">
    <path style="fill:#cbd5d8;stroke-width:1.01798809" id="path2327" class="contour" d="M 44.654158,15.734 44.128754,15.502 C 44.879035,13.009 44.63136,10.261 43.426143,7.73 41.350435,3.372 37.009375,0.664 32.095241,0.664 c -0.879818,0 -1.791762,0.109 -2.707851,0.325 -1.118168,0.264 -2.211464,0.684 -3.250873,1.25 -0.496387,0.271 -0.97723,0.574 -1.430093,0.899 -0.922307,0.663 -1.749275,1.433 -2.460176,2.289 -0.511932,0.618 -0.954432,1.261 -1.314028,1.912 l -0.245603,0.444 c -2.399034,-0.597 -4.805323,-0.356 -6.945282,0.6 -1.144075,0.511 -2.159648,1.205 -3.020814,2.064 -0.447681,0.444 -0.8601284,0.948 -1.2300874,1.499 -0.7896605,1.178 -1.3036652,2.489 -1.5357963,3.936 l -0.062178,0.392 C 5.1421196,16.685 3.4063174,17.983 2.4270141,19.015 0.86220143,20.664 0,22.87 0,25.227 c 0,4.342 3.0218502,8.737 8.7961127,8.737 1.6653333,0 6.7805093,0.006 12.4469973,0.014 l 2.672617,0.003 C 30.730434,33.991 37.686079,34 40.003245,34 c 4.868536,0 8.691446,-2.966 9.737073,-7.554 1.028009,-4.513 -1.063244,-8.917 -5.08616,-10.712 m -30.728361,2.942 c 0.164771,-0.277 0.09534,-0.624 -0.163736,-0.823 -1.025936,-0.786 -2.200064,-1.399 -3.521346,-1.831 0.669449,-3.701 3.935866,-6.362 7.862406,-6.362 2.717178,0 5.50897,1.407 7.28726,3.672 0.197934,0.251 0.590691,0.326 0.870492,0.165 0.2912,-0.165 0.408302,-0.515 0.271511,-0.814 -1.017647,-2.217 -2.734795,-3.873 -3.467459,-4.516 1.856013,-3.181 5.455082,-5.303 9.032389,-5.303 4.011516,0 7.559807,2.217 9.258302,5.785 1.525433,3.202 1.127494,6.704 -1.037336,9.139 -0.771007,0.866 -1.702641,1.581 -2.768993,2.122 -0.2912,0.146 -0.426956,0.473 -0.322289,0.773 0.09223,0.262 0.344051,0.438 0.631106,0.438 l 0.108812,-0.009 c 3.542072,-0.563 5.340053,-2.605 5.93178,-3.276 0.0021,-0.003 0.0041,-0.005 0.0073,-0.008 3.378337,1.637 4.247793,5.341 3.608396,8.142 -0.642506,2.818 -2.953455,5.828 -7.510065,5.828 -2.384526,0 -9.683185,-0.01 -16.686499,-0.02 -6.454075,-0.008 -12.655293,-0.017 -14.5216693,-0.017 -4.2778456,0 -6.5152168,-3.288 -6.5152168,-6.536 0,-1.806 0.6487236,-3.484 1.8280328,-4.725 1.3409719,-1.412 3.2829978,-2.159 5.6157086,-2.159 1.1513287,0 2.2902227,0.207 3.3824827,0.614 0.299491,0.113 0.657014,-0.01 0.818677,-0.279"/>
    <path style="fill:#ffffff;stroke-width:1.01798809" id="path2327-1" class="inside" d="m 13.925797,18.676 c 0.164771,-0.277 0.09534,-0.624 -0.163736,-0.823 -1.025936,-0.786 -2.200064,-1.399 -3.521346,-1.831 0.669449,-3.701 3.935866,-6.362 7.862406,-6.362 2.717178,0 5.50897,1.407 7.28726,3.672 0.197934,0.251 0.590691,0.326 0.870492,0.165 0.2912,-0.165 0.408302,-0.515 0.271511,-0.814 -1.017647,-2.217 -2.734795,-3.873 -3.467459,-4.516 1.856013,-3.181 5.455082,-5.303 9.032389,-5.303 4.011516,0 7.559807,2.217 9.258302,5.785 1.525433,3.202 1.127494,6.704 -1.037336,9.139 -0.771007,0.866 -1.702641,1.581 -2.768993,2.122 -0.2912,0.146 -0.426956,0.473 -0.322289,0.773 0.09223,0.262 0.344051,0.438 0.631106,0.438 l 0.108812,-0.009 c 3.542072,-0.563 5.340054,-2.605 5.931781,-3.276 0.0021,-0.003 0.0041,-0.005 0.0073,-0.008 3.378337,1.637 4.247793,5.341 3.608396,8.142 -0.642506,2.818 -2.953455,5.828 -7.510066,5.828 -2.384526,0 -9.683185,-0.01 -16.686499,-0.02 -6.454075,-0.008 -12.655293,-0.017 -14.5216693,-0.017 -4.2778456,0 -6.5152168,-3.288 -6.5152168,-6.536 0,-1.806 0.6487236,-3.484 1.8280328,-4.725 1.3409719,-1.412 3.2829978,-2.159 5.6157086,-2.159 1.1513287,0 2.2902227,0.207 3.3824827,0.614 0.299491,0.113 0.657014,-0.01 0.818677,-0.279"/>
  </g>
</svg>