<?xml version="1.0" encoding="UTF-8"?>
<svg xmlns:dc="http://purl.org/dc/elements/1.1/" xmlns:cc="http://creativecommons.org/ns#" xmlns:rdf="http://www.w3.org/1999/02/22-rdf-syntax-ns#" xmlns:svg="http://www.w3.org/2000/svg" xmlns="http://www.w3.org/2000/svg" id="svg983" viewBox="0 0 50 50" height="50" width="50" version="1.1">
  <g id="sun">
    <path id="path2" d="m 29.850723,17.672378 -3.229742,-2.830787 3.115516,-2.953072 c 0.114462,-0.108516 0.161579,-0.269005 0.123779,-0.421231 -0.03786,-0.152169 -0.155033,-0.272755 -0.307294,-0.316466 L 25.406429,9.9618358 26.938948,5.9741716 c 0.05631,-0.1464847 0.02919,-0.311485 -0.071,-0.4329501 C 26.767699,5.4198151 26.609481,5.3604595 26.452915,5.3855376 L 22.190898,6.0682736 21.844271,1.816644 C 21.831533,1.6604328 21.735411,1.5227958 21.592173,1.4556472 21.448934,1.3884986 21.280161,1.4019167 21.149659,1.4908621 L 17.595758,3.9132496 15.436915,0.21925813 C 15.3576,0.08355474 15.211059,-1.0746932e-7 15.052429,-1.0746932e-7 14.893799,-1.0746932e-7 14.747317,0.08355474 14.668002,0.21925813 L 12.189894,4.4595788 7.9033458,2.0013905 C 7.7661211,1.922699 7.5968771,1.9223474 7.4594171,2.0003358 7.3218392,2.0783242 7.2369225,2.2229339 7.2365098,2.3796139 L 7.2261298,6.644954 2.9233639,6.2925704 C 2.7656185,6.2796824 2.6122958,6.3509864 2.5219534,6.4797194 2.4315519,6.60845 2.417517,6.7750912 2.4852736,6.9167705 l 1.8423492,3.8575275 -4.04023007,1.504749 c -0.14836919,0.05525 -0.25563612,0.184571 -0.28146509,0.3392 -0.02582898,0.154571 0.0339079,0.311016 0.15662503,0.410333 l 3.33883763,2.704224 -2.99645625,3.070904 c -0.11003852,0.112794 -0.15090492,0.27504 -0.10709001,0.425626 0.0438739,0.150586 0.16570645,0.266602 0.31955988,0.304336 l 4.19013238,1.028381 -1.3737124,4.043621 c -0.050479,0.148536 -0.016865,0.312365 0.088102,0.429845 0.1050261,0.117481 0.2654842,0.170684 0.4208708,0.13957 l 4.2317068,-0.846271 0.51428,4.235048 c 0.018807,0.155567 0.120358,0.289336 0.266132,0.350977 0.1458933,0.06164 0.3138993,0.04172 0.4408033,-0.05221 l 3.4554212,-2.557447 2.303084,3.490202 c 0.0815,0.127675 0.22344,0.204609 0.375465,0.204609 0.0057,0 0.01155,-1.17e-4 0.01739,-3.51e-4 0.158453,-0.0061 0.301633,-0.09527 0.375523,-0.233907 l 2.011299,-3.65655 3.646662,2.283638 c 0.134039,0.08391 0.30293,0.09082 0.443575,0.01816 0.140466,-0.07266 0.231104,-0.213868 0.23765,-0.370431 l 0.178738,-4.261767 4.285606,0.51797 c 0.157096,0.01899 0.313132,-0.04635 0.408546,-0.171504 0.09541,-0.125215 0.115936,-0.291152 0.0539,-0.435352 l -1.688672,-3.925613 4.096369,-1.347834 c 0.150492,-0.04951 0.262771,-0.174551 0.294675,-0.328067 0.03184,-0.153399 -0.02164,-0.312013 -0.140232,-0.416017 z" style="fill:#ffa600;stroke-width:0.05878176"/>
    <ellipse id="ellipse4" ry="9.0790606" rx="9.1444597" cy="14.796209" cx="14.902704" style="fill:#ffdb2d;stroke-width:0.05878176"/>
  </g>
  <path style="fill:#89cbd9;fill-opacity:1;stroke:#3a8bf2;stroke-width:1;stroke-miterlimit:4;stroke-dasharray:none;stroke-opacity:1" d="m 18.383339,32.109688 c 0.650971,-0.261606 1.323579,-0.532108 1.942378,-0.881959 0.163222,-0.09217 0.393325,0.04068 0.394658,0.227856 0.0069,0.711086 0.10892,1.428833 0.207848,2.123392 0.200264,1.408234 0.389322,2.738489 -0.236025,3.821623 -0.875699,1.516754 -2.821328,2.038083 -4.338083,1.162385 -1.516753,-0.875698 -2.038083,-2.821327 -1.162384,-4.338081 0.625347,-1.083134 1.871911,-1.584533 3.191608,-2.115216 z" class="drop" id="path7211"/>
  <path style="fill:#89cbd9;fill-opacity:1;stroke:#3a8bf2;stroke-width:1;stroke-miterlimit:4;stroke-dasharray:none;stroke-opacity:1" d="m 40.688894,30.733755 c 0.65097,-0.261605 1.323578,-0.532108 1.942378,-0.881959 0.163221,-0.09217 0.393324,0.04068 0.394658,0.227856 0.0069,0.711086 0.10892,1.428833 0.207847,2.123392 0.200264,1.408234 0.389323,2.738489 -0.236025,3.821623 -0.875698,1.516754 -2.821328,2.038083 -4.338082,1.162385 -1.516754,-0.875698 -2.038083,-2.821327 -1.162385,-4.338081 0.625348,-1.083134 1.871911,-1.584533 3.191609,-2.115216 z" class="drop" id="path7213"/>
  <path style="fill:#89cbd9;fill-opacity:1;stroke:#3a8bf2;stroke-width:1;stroke-miterlimit:4;stroke-dasharray:none;stroke-opacity:1" d="m 8.2745031,24.328816 c 0.432954,-0.552042 0.880199,-1.122608 1.241169,-1.734988 0.09527,-0.161431 0.36097,-0.161431 0.455712,0 0.3614999,0.61238 0.8087439,1.182946 1.2416969,1.734988 0.877551,1.119434 1.706408,2.17694 1.706408,3.427635 0,1.751397 -1.4243,3.175696 -3.1756969,3.175696 -1.751396,0 -3.175695,-1.424299 -3.175695,-3.175696 0,-1.250695 0.828856,-2.308201 1.706406,-3.427635 z" class="drop" id="path7217"/>
  <path style="fill:#89cbd9;fill-opacity:1;stroke:#3a8bf2;stroke-width:0.97902906;stroke-miterlimit:4;stroke-dasharray:none;stroke-opacity:1" d="m 33.110555,41.129888 c 0.635408,-0.27059 1.291942,-0.550373 1.897767,-0.907716 0.159801,-0.09414 0.380351,0.03319 0.378279,0.2184 -0.0061,0.703585 0.07985,1.412051 0.163218,2.097626 0.168724,1.390023 0.327992,2.70308 -0.297356,3.786213 -0.875698,1.516754 -2.770136,2.067639 -4.223942,1.228284 -1.453804,-0.839354 -1.923942,-2.755428 -1.048244,-4.272182 0.625348,-1.083133 1.842121,-1.601732 3.130278,-2.150625 z" class="drop" id="path7219"/>
  <path style="fill:#89cbd9;fill-opacity:1;stroke:#3a8bf2;stroke-width:1;stroke-miterlimit:4;stroke-dasharray:none;stroke-opacity:1" d="m 44.84826,39.030218 c 0.65097,-0.261605 1.323579,-0.532108 1.942378,-0.88196 0.163222,-0.09217 0.393325,0.04068 0.394659,0.227856 0.0069,0.711087 0.108919,1.428834 0.207846,2.123393 0.200265,1.408234 0.389323,2.738489 -0.236025,3.821623 -0.875698,1.516754 -2.821328,2.038083 -4.338082,1.162385 -1.516753,-0.875698 -2.038083,-2.821327 -1.162384,-4.338081 0.625347,-1.083134 1.87191,-1.584533 3.191608,-2.115216 z" class="drop" id="path7221"/>
  <path style="fill:#89cbd9;fill-opacity:1;stroke:#3a8bf2;stroke-width:1;stroke-miterlimit:4;stroke-dasharray:none;stroke-opacity:1" d="m 44.276617,20.40893 c 0.65097,-0.261605 1.323579,-0.532107 1.942378,-0.881958 0.163222,-0.09217 0.393324,0.04068 0.394658,0.227856 0.0069,0.711086 0.10892,1.428833 0.207848,2.123391 0.200264,1.408234 0.389322,2.738489 -0.236025,3.821623 -0.875699,1.516754 -2.821328,2.038083 -4.338083,1.162385 C 40.73064,25.986529 40.20931,24.0409 41.085009,22.524146 41.710356,21.441012 42.95692,20.939613 44.276617,20.40893 Z" class="drop" id="path7213-9"/>
  <path style="fill:#89cbd9;fill-opacity:1;stroke:#3a8bf2;stroke-width:1;stroke-miterlimit:4;stroke-dasharray:none;stroke-opacity:1" d="m 42.780153,12.267818 c 0.432954,-0.552042 0.880199,-1.122608 1.241169,-1.734988 0.09527,-0.161431 0.36097,-0.161431 0.455712,0 0.3615,0.61238 0.808744,1.182946 1.241697,1.734988 0.877551,1.119434 1.706408,2.17694 1.706408,3.427635 0,1.751397 -1.4243,3.175696 -3.175697,3.175696 -1.751396,0 -3.175695,-1.424299 -3.175695,-3.175696 0,-1.250695 0.828856,-2.308201 1.706406,-3.427635 z" class="drop" id="path7221-3"/>
  <path style="fill:#89cbd9;fill-opacity:1;stroke:#3a8bf2;stroke-width:0.97902906;stroke-miterlimit:4;stroke-dasharray:none;stroke-opacity:1" d="m 21.090786,42.635094 c 0.635409,-0.270589 1.291942,-0.550373 1.897767,-0.907715 0.159801,-0.09414 0.380351,0.03319 0.37828,0.2184 -0.0061,0.703585 0.07985,1.412051 0.163218,2.097625 0.168724,1.390024 0.327991,2.70308 -0.297356,3.786214 -0.875699,1.516754 -2.770136,2.067639 -4.223942,1.228284 -1.453805,-0.839355 -1.923943,-2.755428 -1.048244,-4.272182 0.625347,-1.083134 1.84212,-1.601732 3.130277,-2.150626 z" class="drop" id="path7219-6"/>
  <path style="fill:#89cbd9;fill-opacity:1;stroke:#3a8bf2;stroke-width:1;stroke-miterlimit:4;stroke-dasharray:none;stroke-opacity:1" d="m 8.5057063,38.169653 c 0.65097,-0.261606 1.323579,-0.532108 1.9423777,-0.88196 0.163222,-0.09217 0.393325,0.04068 0.394658,0.227856 0.0069,0.711087 0.10892,1.428834 0.207847,2.123393 0.200265,1.408233 0.389323,2.738489 -0.236025,3.821623 -0.8756977,1.516754 -2.8213277,2.038083 -4.338082,1.162384 -1.5167535,-0.875698 -2.0380831,-2.821326 -1.1623846,-4.33808 0.6253475,-1.083134 1.8719109,-1.584533 3.1916089,-2.115216 z" class="drop" id="path7211-0"/>
  <path style="fill:#89cbd9;fill-opacity:1;stroke:#3a8bf2;stroke-width:1;stroke-miterlimit:4;stroke-dasharray:none;stroke-opacity:1" d="m 29.677627,32.958166 c 0.65097,-0.261605 1.323579,-0.532107 1.942378,-0.881959 0.163222,-0.09217 0.393325,0.04068 0.394658,0.227856 0.0069,0.711087 0.10892,1.428833 0.207847,2.123392 0.200265,1.408234 0.389323,2.73849 -0.236025,3.821623 -0.875698,1.516755 -2.821328,2.038084 -4.338082,1.162385 -1.516753,-0.875698 -2.038083,-2.821326 -1.162384,-4.338081 0.625347,-1.083133 1.87191,-1.584532 3.191608,-2.115216 z" class="drop" id="path7211-6"/>
  <g id="cloud-top">
    <path style="fill:#808080;stroke-width:0.61076844;fill-opacity:1" id="path2327" class="contour" d="M 46.792496,9.0412768 46.477253,8.9020879 C 46.927422,7.4064076 46.778817,5.7577395 46.055687,4.239261 44.810262,1.6246701 42.205626,1.28e-7 39.257145,1.28e-7 c -0.527891,0 -1.075057,0.065394772 -1.62471,0.194984402 -0.670901,0.15838733 -1.326879,0.41036717 -1.950524,0.74994 C 35.384079,1.1075115 35.095573,1.289297 34.823855,1.4842814 34.270471,1.8820496 33.77429,2.3440126 33.347749,2.8575715 33.04059,3.2283418 32.77509,3.614111 32.559332,4.0046797 L 32.411971,4.2710584 C 30.97255,3.9128871 29.528777,4.0574755 28.244801,4.6310296 27.558356,4.9376051 26.949012,5.3539718 26.432313,5.8693305 26.163704,6.1357092 25.916236,6.438085 25.69426,6.7686586 25.220464,7.475402 24.912061,8.2619391 24.772783,9.1300697 l -0.03731,0.2351811 C 23.085272,9.6118311 22.043791,10.390569 21.456209,11.009719 20.517321,11.99904 20,13.322534 20,14.736621 c 0,2.604992 1.81311,5.241781 5.277668,5.241781 0.9992,0 4.068306,0.0036 7.468198,0.0084 l 1.603571,0.0018 C 38.438261,19.9946 42.611648,20 44.001948,20 c 2.921121,0 5.214868,-1.779458 5.842244,-4.532037 0.616805,-2.707584 -0.637947,-5.349772 -3.051696,-6.4266862 M 28.355478,10.806336 c 0.09886,-0.166187 0.0572,-0.37437 -0.09824,-0.493761 C 27.641676,9.8410128 26.937199,9.4732422 26.14443,9.2140629 26.5461,6.9936406 28.50595,5.3971683 30.861874,5.3971683 c 1.630307,0 3.305382,0.8441325 4.372356,2.2030238 0.118761,0.1505879 0.354415,0.1955843 0.522295,0.098992 0.17472,-0.098992 0.244982,-0.3089752 0.162907,-0.4883609 C 35.308843,5.8807296 34.278554,4.8872091 33.838955,4.50144 c 1.113608,-1.9084473 3.27305,-3.1815455 5.419434,-3.1815455 2.40691,0 4.535884,1.3300936 5.554981,3.4707223 0.91526,1.9210464 0.676497,4.0220783 -0.622401,5.4829612 -0.462604,0.519559 -1.021585,0.948524 -1.661396,1.273098 -0.17472,0.08759 -0.256174,0.283778 -0.193373,0.463763 0.05534,0.157188 0.20643,0.262779 0.378663,0.262779 l 0.06529,-0.0054 c 2.125244,-0.337773 3.204032,-1.562875 3.559068,-1.965443 0.0013,-0.0018 0.0025,-0.003 0.0044,-0.0048 2.027003,0.982122 2.548676,3.204344 2.165038,4.884809 -0.385503,1.690665 -1.772073,3.496521 -4.506039,3.496521 -1.430716,0 -5.809911,-0.006 -10.0119,-0.012 -3.872445,-0.0048 -7.593176,-0.0102 -8.713002,-0.0102 -2.566707,0 -3.90913,-1.972642 -3.90913,-3.921286 0,-1.083513 0.389234,-2.090233 1.09682,-2.834773 0.804583,-0.847132 1.969799,-1.295296 3.369425,-1.295296 0.690797,0 1.374134,0.12419 2.02949,0.36837 0.179694,0.0678 0.394208,-0.006 0.491206,-0.167386"/>
    <path style="fill:#b3b3b3;stroke-width:0.61076844;fill-opacity:1" id="path2327-1" class="inside" d="m 28.355478,10.806336 c 0.09886,-0.166187 0.0572,-0.37437 -0.09824,-0.493761 C 27.641676,9.8410128 26.937199,9.4732422 26.14443,9.2140629 26.5461,6.9936406 28.50595,5.3971683 30.861874,5.3971683 c 1.630307,0 3.305382,0.8441325 4.372356,2.2030238 0.118761,0.1505879 0.354415,0.1955843 0.522295,0.098992 0.17472,-0.098992 0.244982,-0.3089752 0.162907,-0.4883609 C 35.308843,5.8807296 34.278554,4.8872091 33.838955,4.50144 c 1.113608,-1.9084473 3.27305,-3.1815455 5.419434,-3.1815455 2.40691,0 4.535884,1.3300936 5.554981,3.4707223 0.91526,1.9210464 0.676497,4.0220783 -0.622401,5.4829612 -0.462604,0.519559 -1.021585,0.948524 -1.661396,1.273098 -0.17472,0.08759 -0.256174,0.283778 -0.193373,0.463763 0.05534,0.157188 0.20643,0.262779 0.378663,0.262779 l 0.06529,-0.0054 c 2.125244,-0.337773 3.204033,-1.562875 3.559069,-1.965443 0.0013,-0.0018 0.0025,-0.003 0.0044,-0.0048 2.027002,0.982122 2.548676,3.204344 2.165038,4.884809 -0.385504,1.690665 -1.772073,3.496521 -4.50604,3.496521 -1.430716,0 -5.809911,-0.006 -10.0119,-0.012 -3.872445,-0.0048 -7.593176,-0.0102 -8.713002,-0.0102 -2.566707,0 -3.90913,-1.972642 -3.90913,-3.921286 0,-1.083513 0.389234,-2.090233 1.09682,-2.834773 0.804583,-0.847132 1.969799,-1.295296 3.369425,-1.295296 0.690797,0 1.374134,0.12419 2.02949,0.36837 0.179694,0.0678 0.394208,-0.006 0.491206,-0.167386"/>
  </g>
  <g id="cloud-bottom">
    <path style="fill:#808080;stroke-width:0.78849864;fill-opacity:1" id="path2327-6" class="contour" d="M 35.723328,21.301596 35.303005,21.12761 C 35.903229,19.258009 35.705089,17.197174 34.740916,15.299076 33.080349,12.030838 29.607501,10 25.676194,10 c -0.703855,0 -1.43341,0.08174 -2.166281,0.243731 -0.894535,0.197984 -1.769171,0.512959 -2.600699,0.937425 -0.397109,0.203233 -0.781784,0.430465 -1.144074,0.674196 -0.737846,0.49721 -1.39942,1.074664 -1.968141,1.716612 -0.409546,0.463463 -0.763546,0.945675 -1.051222,1.433886 l -0.196483,0.332973 c -1.919227,-0.447714 -3.844258,-0.266979 -5.556226,0.449964 -0.91526,0.383219 -1.7277181,0.903678 -2.4166509,1.547876 -0.3581448,0.332974 -0.6881027,0.710943 -0.9840699,1.12416 -0.6317285,0.88343 -1.0429322,1.866601 -1.2286371,2.951764 l -0.049742,0.293977 C 4.1136958,22.014789 2.725054,22.988211 1.9416114,23.762149 0.68976117,24.9988 0,26.653168 0,28.420776 c 0,3.25624 2.4174803,6.552226 7.0368904,6.552226 1.3322667,0 5.4244076,0.0045 9.9575986,0.0105 l 2.138093,0.0023 C 24.584348,34.993251 30.148864,35 32.002597,35 c 3.894829,0 6.953157,-2.224322 7.789659,-5.665047 0.822407,-3.384479 -0.850595,-6.687215 -4.068928,-8.033357 m -24.58269,2.206323 c 0.131817,-0.207733 0.07627,-0.467962 -0.130989,-0.6172 C 10.1889,22.301266 9.2495979,21.841553 8.1925723,21.517579 8.7281315,18.742051 11.341265,16.74646 14.482497,16.74646 c 2.173743,0 4.407177,1.055166 5.829809,2.75378 0.158347,0.188235 0.472552,0.244481 0.696393,0.12374 0.23296,-0.12374 0.326642,-0.386219 0.217209,-0.610451 -0.814118,-1.662617 -2.187836,-2.904518 -2.773967,-3.386729 1.48481,-2.385559 4.364065,-3.976932 7.225911,-3.976932 3.209213,0 6.047846,1.662617 7.406642,4.338403 1.220346,2.401308 0.901995,5.027598 -0.829869,6.853702 -0.616805,0.649448 -1.362113,1.185655 -2.215194,1.591372 -0.23296,0.109492 -0.341565,0.354722 -0.257831,0.579704 0.07378,0.196484 0.27524,0.328474 0.504884,0.328474 l 0.08705,-0.0068 c 2.833658,-0.422216 4.272042,-1.953593 4.745424,-2.456803 0.0017,-0.0023 0.0033,-0.0038 0.0058,-0.006 2.70267,1.227652 3.398235,4.00543 2.886717,6.106012 -0.514005,2.113331 -2.362764,4.37065 -6.008052,4.37065 -1.907621,0 -7.746548,-0.0075 -13.3492,-0.015 -5.16326,-0.006 -10.1242347,-0.01275 -11.6173358,-0.01275 -3.4222766,0 -5.2121736,-2.465802 -5.2121736,-4.901608 0,-1.354391 0.5189789,-2.61279 1.4624263,-3.543466 1.0727775,-1.058915 2.6263983,-1.61912 4.492567,-1.61912 0.921063,0 1.8321783,0.155237 2.7059861,0.460463 0.239593,0.08474 0.525611,-0.0075 0.654942,-0.209234"/>
    <path style="fill:#b3b3b3;stroke-width:0.78849864;fill-opacity:1" id="path2327-1-7" class="inside" d="m 11.140638,23.507919 c 0.131817,-0.207733 0.07627,-0.467962 -0.130989,-0.6172 C 10.1889,22.301266 9.2495979,21.841553 8.1925723,21.517579 8.7281315,18.742051 11.341265,16.74646 14.482497,16.74646 c 2.173743,0 4.407177,1.055166 5.829809,2.75378 0.158347,0.188235 0.472552,0.244481 0.696393,0.12374 0.23296,-0.12374 0.326642,-0.386219 0.217209,-0.610451 -0.814118,-1.662617 -2.187836,-2.904518 -2.773967,-3.386729 1.48481,-2.385559 4.364065,-3.976932 7.225911,-3.976932 3.209213,0 6.047846,1.662617 7.406642,4.338403 1.220346,2.401308 0.901995,5.027598 -0.829869,6.853702 -0.616805,0.649448 -1.362113,1.185655 -2.215194,1.591372 -0.23296,0.109492 -0.341565,0.354722 -0.257831,0.579704 0.07378,0.196484 0.27524,0.328474 0.504884,0.328474 l 0.08705,-0.0068 c 2.833658,-0.422216 4.272043,-1.953593 4.745425,-2.456803 0.0017,-0.0023 0.0033,-0.0038 0.0058,-0.006 2.70267,1.227652 3.398234,4.00543 2.886717,6.106012 -0.514005,2.113331 -2.362764,4.37065 -6.008053,4.37065 -1.907621,0 -7.746548,-0.0075 -13.3492,-0.015 -5.16326,-0.006 -10.1242347,-0.01275 -11.6173358,-0.01275 -3.4222766,0 -5.2121736,-2.465802 -5.2121736,-4.901608 0,-1.354391 0.5189789,-2.61279 1.4624263,-3.543466 1.0727775,-1.058915 2.6263983,-1.61912 4.492567,-1.61912 0.921063,0 1.8321783,0.155237 2.7059861,0.460463 0.239593,0.08474 0.525611,-0.0075 0.654942,-0.209234"/>
  </g>
</svg>