<?xml version="1.0" encoding="utf-8"?>
<!-- Generator: Adobe Illustrator 16.0.0, SVG Export Plug-In . SVG Version: 6.00 Build 0)  -->
<!DOCTYPE svg PUBLIC "-//W3C//DTD SVG 1.1//EN" "http://www.w3.org/Graphics/SVG/1.1/DTD/svg11.dtd">
<svg version="1.1" id="Calque_1" xmlns="http://www.w3.org/2000/svg" xmlns:xlink="http://www.w3.org/1999/xlink" x="0px" y="0px"
	 width="198.77px" height="229.791px" viewBox="0 0 198.77 229.791" enable-background="new 0 0 198.77 229.791"
	 xml:space="preserve">
<g>
	<path fill="#F4A634" d="M124.776,34.15c-21.966,0-39.842,17.875-39.842,39.842s17.875,39.842,39.842,39.842
		s39.842-17.875,39.842-39.842S146.743,34.15,124.776,34.15z M124.776,102.45c-15.719,0-28.458-12.74-28.458-28.458
		c0-15.719,12.74-28.458,28.458-28.458c15.719,0,28.458,12.739,28.458,28.458C153.235,89.711,140.495,102.45,124.776,102.45z"/>
	<g>
		<path fill="#F4A634" d="M124.776,0c-3.143,0-5.691,2.55-5.691,5.691v11.384c0,3.142,2.55,5.691,5.691,5.691
			c3.143,0,5.691-2.55,5.691-5.691V5.691C130.469,2.549,127.919,0,124.776,0z"/>
		<path fill="#F4A634" d="M124.776,125.216c-3.143,0-5.691,2.549-5.691,5.693v11.383c0,3.141,2.55,5.691,5.691,5.691
			c3.143,0,5.691-2.549,5.691-5.691V130.91C130.469,127.765,127.919,125.216,124.776,125.216z"/>
	</g>
	<g>
		<path fill="#F4A634" d="M177.092,21.67c-2.224-2.223-5.825-2.223-8.048,0l-8.05,8.048c-2.223,2.224-2.223,5.825,0,8.048
			c2.225,2.225,5.825,2.225,8.05,0l8.048-8.048C179.314,27.495,179.314,23.893,177.092,21.67z"/>
		<path fill="#F4A634" d="M88.56,110.217c-2.225-2.224-5.825-2.23-8.049,0l-8.049,8.048c-2.223,2.223-2.223,5.824,0,8.047
			c2.223,2.225,5.825,2.225,8.049,0l8.049-8.047C90.782,116.035,90.782,112.439,88.56,110.217z"/>
	</g>
	<g>
		<path fill="#F4A634" d="M50.784,73.992c0,3.142,2.549,5.691,5.692,5.691h11.383c3.142,0,5.692-2.549,5.692-5.691
			c0-3.144-2.551-5.692-5.692-5.692H56.477C53.335,68.3,50.784,70.849,50.784,73.992z"/>
		<path fill="#F4A634" d="M176.003,73.992c0,3.142,2.549,5.691,5.691,5.691h11.383c3.143,0,5.692-2.549,5.692-5.691
			c0-3.144-2.55-5.692-5.692-5.692h-11.383C178.552,68.3,176.003,70.849,176.003,73.992z"/>
	</g>
	<g>
		<path fill="#F4A634" d="M72.454,21.67c-2.223,2.224-2.223,5.825,0,8.048l8.049,8.048c2.224,2.225,5.824,2.225,8.049,0
			c2.223-2.223,2.223-5.824,0-8.048l-8.049-8.048C78.279,19.446,74.679,19.446,72.454,21.67z"/>
		<path fill="#F4A634" d="M161.003,110.209c-2.224,2.224-2.231,5.826,0,8.048l8.049,8.047c2.223,2.225,5.824,2.225,8.048,0
			c2.223-2.223,2.223-5.824,0-8.047l-8.048-8.048C166.819,107.986,163.226,107.986,161.003,110.209z"/>
	</g>
</g>
<g>
	<path fill="#FFFFFF" d="M142.292,73.855c-1.891,0-3.758,0.134-5.618,0.399c-10.627-14.48-27.399-23.167-45.607-23.167
		c-18.209,0-34.973,8.687-45.606,23.167c-1.861-0.267-3.729-0.399-5.618-0.399C17.875,73.855,0,91.73,0,113.697
		c0,21.966,17.875,39.841,39.842,39.841c4.869,0,9.634-0.889,14.125-2.609c10.301,8.982,23.404,13.992,37.101,13.992
		c13.709,0,26.798-5.01,37.1-13.992c4.491,1.721,9.257,2.609,14.125,2.609c21.967,0,39.842-17.875,39.842-39.841
		C182.134,91.73,164.259,73.855,142.292,73.855z"/>
	<path fill="#C7C6C6" d="M142.292,73.855c-1.891,0-3.758,0.134-5.618,0.399c-10.627-14.48-27.399-23.167-45.607-23.167
		c-18.209,0-34.973,8.687-45.606,23.167c-1.861-0.267-3.729-0.399-5.618-0.399C17.875,73.855,0,91.73,0,113.697
		c0,21.966,17.875,39.841,39.842,39.841c4.869,0,9.634-0.889,14.125-2.609c10.301,8.982,23.404,13.992,37.101,13.992
		c13.709,0,26.798-5.01,37.1-13.992c4.491,1.721,9.257,2.609,14.125,2.609c21.967,0,39.842-17.875,39.842-39.841
		C182.134,91.73,164.259,73.855,142.292,73.855z M142.292,142.156c-6.093,0-11.709-1.957-16.342-5.219
		c-8.353,10.064-20.788,16.602-34.884,16.602s-26.532-6.537-34.884-16.602c-4.624,3.262-10.249,5.219-16.342,5.219
		c-15.719,0-28.457-12.74-28.457-28.458c0-15.72,12.739-28.458,28.457-28.458c3.847,0,7.492,0.784,10.827,2.163
		C58.22,72.67,73.384,62.472,91.066,62.472s32.846,10.198,40.39,24.931c3.343-1.379,6.996-2.163,10.835-2.163
		c15.719,0,28.458,12.739,28.458,28.458C170.751,129.416,158.011,142.156,142.292,142.156z"/>
</g>
<path fill="#B9E0F7" d="M112.597,208.089l-5.719-3.295c0.172-0.994,0.305-2.006,0.305-3.059s-0.133-2.064-0.318-3.059l5.732-3.303
	c2.674-1.563,3.586-4.996,2.052-7.658c-1.55-2.693-4.979-3.613-7.664-2.064l-5.778,3.336c-1.549-1.316-3.296-2.35-5.242-3.051
	v-6.639c0-3.104-2.521-5.619-5.619-5.619c-3.098,0-5.612,2.516-5.612,5.619v6.631c-1.946,0.695-3.7,1.742-5.249,3.059l-5.764-3.336
	c-2.694-1.549-6.129-0.635-7.679,2.059c-1.549,2.674-0.614,6.115,2.065,7.664l5.705,3.297c-0.187,0.998-0.305,2.012-0.305,3.064
	s0.119,2.064,0.305,3.057l-5.705,3.297c-2.688,1.549-3.614,5.004-2.065,7.684c1.55,2.68,4.984,3.594,7.664,2.045l5.772-3.316
	c1.549,1.311,3.303,2.344,5.255,3.039v6.65c0,3.098,2.515,5.6,5.612,5.6c3.099,0,5.619-2.502,5.619-5.6v-6.65
	c1.946-0.695,3.713-1.729,5.249-3.059l5.772,3.336c2.687,1.549,6.115,0.635,7.664-2.045
	C116.197,213.093,115.284,209.658,112.597,208.089z M90.346,207.355c-3.099,0-5.619-2.521-5.619-5.619s2.521-5.605,5.619-5.605
	c3.098,0,5.612,2.508,5.612,5.605S93.442,207.355,90.346,207.355z"/>
<path fill="#40A0BE" d="M33.192,179.468c-3.291,5.363-1.614,12.365,3.749,15.656s12.365,1.615,15.656-3.748
	s2.205-25.359,2.205-25.359S36.482,174.105,33.192,179.468z"/>
<path fill="#40A0BE" d="M128.242,180.285c-3.291,5.363-1.614,12.365,3.749,15.656s12.365,1.613,15.656-3.75
	c3.291-5.361,2.205-25.357,2.205-25.357S131.533,174.921,128.242,180.285z"/>
</svg>
