<?xml version="1.0" encoding="UTF-8" standalone="no"?>
<svg xmlns:dc="http://purl.org/dc/elements/1.1/" xmlns:cc="http://creativecommons.org/ns#" xmlns:rdf="http://www.w3.org/1999/02/22-rdf-syntax-ns#" xmlns:svg="http://www.w3.org/2000/svg" xmlns="http://www.w3.org/2000/svg" version="1.1" viewBox="0 0 50 50" height="50" width="50" y="0px" x="0px" id="Calque_1">
  <g id="sun">
    <path style="fill:#ffa600;stroke-width:0.09796961" d="m 49.751202,29.453964 -5.382904,-4.717978 5.192528,-4.921787 c 0.190769,-0.18086 0.269298,-0.448341 0.206298,-0.702052 -0.0631,-0.253614 -0.258388,-0.454591 -0.512157,-0.527442 L 42.344045,16.60306 44.898244,9.9569533 C 44.992105,9.7128122 44.946894,9.4378117 44.77991,9.2353699 44.612828,9.0330258 44.349132,8.9340998 44.088189,8.9758967 L 36.984827,10.11379 36.407115,3.0277406 C 36.385886,2.7673886 36.225683,2.5379936 35.986952,2.4260793 35.748221,2.314165 35.466932,2.3365284 35.24943,2.4847708 L 29.32626,6.5220834 25.728189,0.36543077 C 25.595998,0.13925846 25.351762,3.7644001e-7 25.087379,3.7644001e-7 24.822996,3.7644001e-7 24.578859,0.13925846 24.446667,0.36543077 L 20.316488,7.432632 13.17224,3.3356514 C 12.943533,3.2044988 12.661459,3.2039129 12.432359,3.3338936 12.203063,3.4638743 12.061535,3.7048904 12.060847,3.9660237 l -0.0173,7.1089003 -7.1712762,-0.587306 c -0.2629091,-0.02148 -0.5184469,0.09736 -0.6690176,0.311915 -0.1506691,0.214551 -0.1740606,0.492286 -0.061133,0.728419 l 3.0705819,6.429212 -6.73371662,2.507915 C 0.23170349,20.557169 0.05292529,20.772697 0.009877,21.030412 -0.0331713,21.28803 0.06639017,21.548773 0.27091872,21.7143 l 5.56472938,4.50704 -4.99409376,5.118174 c -0.18339753,0.187989 -0.25150819,0.4584 -0.17848334,0.709377 0.0731231,0.250977 0.27617742,0.444337 0.5325998,0.507227 l 6.983554,1.713969 -2.2895207,6.739368 c -0.084131,0.247559 -0.028109,0.520607 0.146836,0.716408 0.1750434,0.195801 0.4424736,0.284473 0.7014513,0.232617 l 7.0528446,-1.410452 0.857133,7.058413 c 0.03135,0.259278 0.200597,0.482227 0.443554,0.584962 0.243155,0.102734 0.523165,0.06953 0.734672,-0.08701 l 5.759036,-4.262411 3.838473,5.817004 C 25.559534,49.871777 25.796103,50 26.049479,50 c 0.0096,0 0.01926,-1.95e-4 0.02899,-5.86e-4 0.264088,-0.01016 0.502721,-0.158789 0.625871,-0.389844 l 3.352165,-6.094251 6.07777,3.806063 c 0.223399,0.139844 0.504884,0.151367 0.739291,0.03027 0.234112,-0.121094 0.385174,-0.356446 0.396084,-0.617384 l 0.297898,-7.102944 7.142675,0.863283 c 0.261828,0.03164 0.521887,-0.07725 0.68091,-0.28584 0.159023,-0.208692 0.193226,-0.485255 0.08983,-0.725587 L 42.666509,32.940491 49.493792,30.6941 c 0.25082,-0.08252 0.437952,-0.290918 0.491124,-0.546778 0.05307,-0.255665 -0.03607,-0.520021 -0.233719,-0.693361 z" id="path2"/>
    <ellipse style="fill:#ffdb2d;stroke-width:0.09796961" cx="24.837837" cy="24.660351" rx="15.240767" ry="15.131768" id="ellipse4"/>
  </g>
  <path id="path2105-2" d="M 23.585231,41.841982 H 8.18317 c -1.503646,0 -2.71851,1.270064 -2.71851,2.836217 0,1.568748 1.214864,2.841409 2.71851,2.841409 h 15.402061 c 1.503641,0 2.720995,-1.270063 2.720995,-2.841409 0,-1.563555 -1.217354,-2.836217 -2.720995,-2.836217" style="fill:#cbd5d8;stroke-width:2.54280019;fill-opacity:0.86734694"/>
  <path id="path1533-9" d="m 8.1792248,30.330679 c -1.574248,0 -2.850877,1.270064 -2.850877,2.836217 0,1.568748 1.276629,2.841409 2.850877,2.841409 1.576859,0 2.8508772,-1.270063 2.8508772,-2.841409 0,-1.563555 -1.2740182,-2.836217 -2.8508772,-2.836217" style="fill:#cbd5d8;stroke-width:2.60397148;fill-opacity:0.86734694"/>
  <path id="path2105-2-5" d="M 43.318432,30.330679 H 15.916371 c -1.503646,0 -2.71851,1.270064 -2.71851,2.836217 0,1.568748 1.214864,2.841409 2.71851,2.841409 h 27.402061 c 1.503638,0 2.720998,-1.270063 2.720998,-2.841409 0,-1.563555 -1.21736,-2.836217 -2.720998,-2.836217" style="fill:#cbd5d8;stroke-width:2.54280019;fill-opacity:0.86734694"/>
  <path id="path2105-2-5-0" d="M 44.631986,17.830678 H 3.2299289 c -1.503646,0 -2.71851,1.270064 -2.71851,2.836217 0,1.568748 1.214864,2.841409 2.71851,2.841409 H 44.631986 c 1.50364,0 2.721,-1.270063 2.721,-2.841409 0,-1.563555 -1.21736,-2.836217 -2.721,-2.836217" style="fill:#cbd5d8;stroke-width:2.54280019;fill-opacity:0.86734694"/>
  <path id="path2105-2-4" d="M 42.259111,41.841982 H 32.85705 c -1.503646,0 -2.71851,1.270064 -2.71851,2.836217 0,1.568748 1.214864,2.841409 2.71851,2.841409 h 9.402061 c 1.503641,0 2.720995,-1.270063 2.720995,-2.841409 0,-1.563555 -1.217354,-2.836217 -2.720995,-2.836217" style="fill:#cbd5d8;stroke-width:2.54280019;fill-opacity:0.86734694"/>
  <path id="path2105-2-5-8" d="M 29.496397,4.9069499 H 8.094336 c -1.5036459,0 -2.7185099,1.270064 -2.7185099,2.836217 0,1.5687481 1.214864,2.8414091 2.7185099,2.8414091 h 21.402061 c 1.503638,0 2.720998,-1.270063 2.720998,-2.8414091 0,-1.563555 -1.21736,-2.836217 -2.720998,-2.836217" style="fill:#cbd5d8;stroke-width:2.54280019;fill-opacity:0.86734694"/>
  <path id="path2105-2-1" d="m 43.411652,4.90695 h -7.402061 c -1.503646,0 -2.71851,1.270064 -2.71851,2.836217 0,1.568748 1.214864,2.841409 2.71851,2.841409 h 7.402061 c 1.503641,0 2.720995,-1.270063 2.720995,-2.841409 0,-1.563555 -1.217354,-2.836217 -2.720995,-2.836217" style="fill:#cbd5d8;stroke-width:2.54280019;fill-opacity:0.86734694"/>
</svg>