<?xml version="1.0" encoding="UTF-8"?>
<svg
   xmlns:dc="http://purl.org/dc/elements/1.1/"
   xmlns:cc="http://creativecommons.org/ns#"
   xmlns:rdf="http://www.w3.org/1999/02/22-rdf-syntax-ns#"
   xmlns:svg="http://www.w3.org/2000/svg"
   xmlns="http://www.w3.org/2000/svg"
   version="1.1"
   width="50"
   height="50"
   viewBox="0 0 50 50"
   id="svg983">
  <g
     id="sun">
    <path
       id="path2"
       d="m 49.850723,17.672378 -3.229742,-2.830787 3.115517,-2.953071 c 0.114461,-0.108516 0.161578,-0.269005 0.123778,-0.421232 -0.03786,-0.152168 -0.155032,-0.272754 -0.307294,-0.316465 L 45.406429,9.9618362 46.938948,5.974172 c 0.05631,-0.1464847 0.02919,-0.311485 -0.071,-0.4329501 C 46.767699,5.4198154 46.609481,5.3604598 46.452916,5.385538 L 42.190898,6.068274 41.844271,1.8166443 C 41.831534,1.6604332 41.735412,1.5227962 41.592173,1.4556476 41.448934,1.388499 41.280161,1.401917 41.14966,1.4908624 L 37.595758,3.91325 35.436915,0.21925843 C 35.357601,0.08355505 35.211059,1.9253067e-7 35.052429,1.9253067e-7 34.893799,1.9253067e-7 34.747317,0.08355505 34.668002,0.21925843 L 32.189895,4.4595792 27.903346,2.0013908 c -0.137225,-0.078691 -0.306469,-0.079043 -0.443929,-0.00105 -0.137578,0.077988 -0.222494,0.2225981 -0.222907,0.3792781 L 27.22613,6.6449544 22.923364,6.2925708 c -0.157745,-0.012888 -0.311068,0.058416 -0.40141,0.187149 -0.0904,0.1287306 -0.104437,0.2953718 -0.03668,0.4370511 l 1.842349,3.8575271 -4.04023,1.50475 c -0.148369,0.05525 -0.255636,0.18457 -0.281465,0.3392 -0.02583,0.15457 0.03391,0.311016 0.156625,0.410332 l 3.338838,2.704224 -2.996457,3.070904 c -0.110038,0.112794 -0.150905,0.27504 -0.10709,0.425627 0.04387,0.150586 0.165707,0.266602 0.31956,0.304336 l 4.190133,1.028381 -1.373713,4.043621 c -0.05048,0.148536 -0.01687,0.312364 0.0881,0.429845 0.105027,0.117481 0.265485,0.170683 0.420872,0.13957 l 4.231706,-0.846271 0.51428,4.235048 c 0.01881,0.155566 0.120358,0.289336 0.266132,0.350977 0.145894,0.06164 0.3139,0.04172 0.440804,-0.05221 l 3.455422,-2.557446 2.303084,3.490202 C 35.335723,29.923066 35.477664,30 35.629689,30 c 0.0057,0 0.01155,-1.17e-4 0.01739,-3.51e-4 0.158452,-0.0061 0.301632,-0.09527 0.375522,-0.233907 l 2.011299,-3.656551 3.646662,2.283638 c 0.13404,0.08391 0.30293,0.09082 0.443575,0.01816 0.140467,-0.07266 0.231104,-0.213868 0.23765,-0.37043 l 0.178739,-4.261767 4.285605,0.51797 c 0.157097,0.01899 0.313133,-0.04635 0.408546,-0.171504 0.09541,-0.125215 0.115936,-0.291153 0.0539,-0.435352 l -1.688672,-3.925613 4.096369,-1.347835 c 0.150492,-0.04951 0.262772,-0.174551 0.294675,-0.328067 0.03184,-0.153399 -0.02164,-0.312012 -0.140231,-0.416016 z"
       style="fill:#ffa600;stroke-width:0.05878176" />
    <ellipse
       id="ellipse4"
       ry="9.0790606"
       rx="9.1444597"
       cy="14.79621"
       cx="34.902706"
       style="fill:#ffdb2d;stroke-width:0.05878176" />
  </g>
  <path
     style="fill:#89cbd9;fill-opacity:1;stroke:#3a8bf2;stroke-width:1;stroke-miterlimit:4;stroke-dasharray:none;stroke-opacity:1"
     d="m 31.178631,13.774353 c 0.432954,-0.552042 0.880199,-1.122608 1.241169,-1.734988 0.09527,-0.161431 0.36097,-0.161431 0.455712,0 0.3615,0.61238 0.808744,1.182946 1.241697,1.734988 0.877551,1.119434 1.706408,2.17694 1.706408,3.427635 0,1.751397 -1.4243,3.175696 -3.175697,3.175696 -1.751396,0 -3.175695,-1.424299 -3.175695,-3.175696 0,-1.250695 0.828856,-2.308201 1.706406,-3.427635 z"
     class="drop"
     id="path7209" />
  <path
     style="fill:#89cbd9;fill-opacity:1;stroke:#3a8bf2;stroke-width:1;stroke-miterlimit:4;stroke-dasharray:none;stroke-opacity:1"
     d="m 15.443826,9.4331182 c 0.432954,-0.552042 0.880199,-1.122608 1.241169,-1.734988 0.09527,-0.161431 0.36097,-0.161431 0.455712,0 0.3615,0.61238 0.808744,1.182946 1.241697,1.734988 0.877551,1.1194338 1.706408,2.1769398 1.706408,3.4276348 0,1.751397 -1.4243,3.175696 -3.175697,3.175696 -1.751396,0 -3.175695,-1.424299 -3.175695,-3.175696 0,-1.250695 0.828856,-2.308201 1.706406,-3.4276348 z"
     class="drop"
     id="path7213" />
  <path
     style="fill:#89cbd9;fill-opacity:1;stroke:#3a8bf2;stroke-width:1;stroke-miterlimit:4;stroke-dasharray:none;stroke-opacity:1"
     d="m 5.9459644,23.270456 c 0.432954,-0.552042 0.880199,-1.122608 1.241169,-1.734988 0.09527,-0.161431 0.36097,-0.161431 0.455712,0 0.3615,0.61238 0.808744,1.182946 1.241697,1.734988 0.877551,1.119433 1.7064076,2.176939 1.7064076,3.427634 0,1.751397 -1.4242996,3.175696 -3.1756966,3.175696 -1.751396,0 -3.175695,-1.424299 -3.175695,-3.175696 0,-1.250695 0.828856,-2.308201 1.706406,-3.427634 z"
     class="drop"
     id="path7223" />
  <path
     id="bolt-left"
     d="m 33.738631,43.474099 -1.56067,3.195833 c -1.538576,3.150591 -2.891591,4.557051 -3.140892,1.475443 -0.133707,-1.652715 0.404182,-3.212922 0.787694,-4.877656 h -1.178525 c -0.03096,0 -0.05971,-0.0267 -0.07573,-0.07028 -0.01606,-0.04367 -0.01712,-0.09793 -0.0026,-0.143108 l 1.263025,-3.96072 h -1.873028 c -0.03087,0 -0.05954,-0.02647 -0.07564,-0.06979 -0.01606,-0.04332 -0.01729,-0.09732 -0.0032,-0.1425 l 2.098671,-6.717901 c 0.01517,-0.0486 0.04558,-0.07913 0.07879,-0.07913 h 3.785006 0.585686 0.660738 c 0.03173,0 0.06104,0.02788 0.07682,0.07312 0.01582,0.04524 0.01572,0.100902 -2.78e-4,0.146018 l -1.242828,3.505047 h 1.397287 c 0.03234,0 0.06214,0.02903 0.07767,0.07564 0.01553,0.04671 0.01441,0.103625 -0.003,0.148449 l -1.790784,4.612702 h 1.364611 c 0.03433,0 0.06559,0.03275 0.08018,0.08386 0.01458,0.05119 0.0098,0.111522 -0.01208,0.155033 l -0.946836,1.890982"
     style="fill:#f29f26;stroke-width:0.02492992" />
  <path
     id="bolt-right"
     d="m 17.19877,38.849432 -0.87832,3.195833 c -0.865885,3.150591 -1.62734,4.557051 -1.767643,1.475443 -0.07525,-1.652715 0.227467,-3.212922 0.443302,-4.877656 h -0.663255 c -0.01742,0 -0.0336,-0.0267 -0.04262,-0.07028 -0.009,-0.04367 -0.0096,-0.09793 -0.0015,-0.143108 l 0.71081,-3.96072 h -1.054113 c -0.01737,0 -0.03351,-0.02647 -0.04257,-0.06979 -0.009,-0.04332 -0.0097,-0.09732 -0.0018,-0.1425 l 1.181098,-6.717901 c 0.0085,-0.0486 0.02565,-0.07913 0.04434,-0.07913 h 2.13014 0.329615 0.371852 c 0.01786,0 0.03435,0.02788 0.04323,0.07312 0.0089,0.04524 0.0088,0.100902 -1.56e-4,0.146018 l -0.699444,3.505047 h 0.786371 c 0.0182,0 0.03497,0.02903 0.04371,0.07564 0.0087,0.04671 0.0081,0.103625 -0.0017,0.148449 l -1.007824,4.612702 h 0.767981 c 0.01932,0 0.03691,0.03275 0.04512,0.08386 0.0082,0.05119 0.0055,0.111522 -0.0068,0.155033 l -0.532864,1.890982"
     style="fill:#f29f26;stroke-width:0.01870215" />
  <g
     id="cloud-front-top"
     transform="matrix(1.3888889,0,0,1.4583332,-11.111111,0.13862506)">
    <path
       id="path9060"
       style="fill:#4d4d4d;stroke-width:0.73292214"
       class="contour"
       d="m 11.849004,10.754475 0.37829,-0.167026 c -0.540202,-1.7948166 -0.361876,-3.7732183 0.50588,-5.5953925 1.49451,-3.137509 4.620074,-5.08711306 8.15825,-5.08711306 0.633469,0 1.290069,0.07847372 1.949653,0.23398128 0.805081,0.19006479 1.592254,0.4924406 2.340628,0.89992808 0.357399,0.1951043 0.703606,0.4132469 1.029667,0.6472282 0.664062,0.4773218 1.259478,1.0316774 1.771327,1.6479481 0.368591,0.4449244 0.687191,0.9078474 0.9461,1.3765299 l 0.176835,0.3196544 c 1.727304,-0.4298056 3.459832,-0.2562995 5.000603,0.4319655 0.823734,0.3678905 1.554946,0.8675305 2.174986,1.4859611 0.32233,0.3196544 0.619292,0.6825054 0.885663,1.0791936 0.568556,0.8480922 0.938639,1.7919367 1.105774,2.8336934 l 0.04477,0.282217 c 1.980244,0.295897 3.230022,1.230382 3.935121,1.973362 1.126664,1.187185 1.74745,2.775378 1.74745,4.472283 0,3.12599 -2.175732,6.290136 -6.333202,6.290136 -1.19904,0 -4.881966,0.0043 -8.961838,0.01008 l -1.924284,0.0022 c -4.90659,0.0072 -9.914655,0.01364 -11.583014,0.01364 -3.505347,0 -6.2578419,-2.135349 -7.0106933,-5.438445 -0.7401666,-3.2491 0.7655357,-6.419726 3.6620353,-7.712023 m 22.124421,2.118071 c -0.118635,-0.199424 -0.06865,-0.449244 0.11789,-0.592513 0.738674,-0.565874 1.584046,-1.007199 2.535369,-1.318214 -0.482003,-2.664507 -2.833824,-4.5802737 -5.660933,-4.5802737 -1.956368,0 -3.966458,1.012959 -5.246827,2.6436285 C 25.576412,9.2058793 25.293627,9.259875 25.092171,9.1439643 24.882507,9.0251738 24.798193,8.773194 24.896683,8.5579312 25.629389,6.9618189 26.865735,5.7695943 27.393253,5.3066713 26.056924,3.0165345 23.465594,1.4888168 20.889933,1.4888168 c -2.888292,0 -5.443061,1.5961123 -6.665978,4.1648667 -1.098311,2.3052556 -0.811795,4.8264935 0.746882,6.5795535 0.555125,0.62347 1.225902,1.138229 1.993675,1.527718 0.209664,0.105111 0.307409,0.340533 0.232048,0.556515 -0.06641,0.188625 -0.247716,0.315335 -0.454396,0.315335 l -0.07834,-0.0065 c -2.550292,-0.405328 -3.844838,-1.87545 -4.270882,-2.358532 -0.0015,-0.0022 -0.003,-0.0036 -0.0053,-0.0058 -2.4324024,1.178546 -3.0584107,3.845212 -2.5980449,5.861771 0.4626049,2.028798 2.1264879,4.195824 5.4072469,4.195824 1.716859,0 6.971894,-0.0072 12.01428,-0.0144 4.646934,-0.0058 9.111811,-0.01224 10.455602,-0.01224 3.080049,0 4.690957,-2.36717 4.690957,-4.705543 0,-1.300216 -0.467082,-2.50828 -1.316184,-3.401728 -0.9655,-1.016559 -2.363759,-1.554356 -4.04331,-1.554356 -0.828957,0 -1.648961,0.149028 -2.435388,0.442045 -0.215634,0.08135 -0.47305,-0.0072 -0.589447,-0.200864" />
    <path
       id="path9062"
       style="fill:#666666;fill-opacity:1;stroke-width:0.73292214"
       class="inside"
       d="m 33.973424,12.872546 c -0.118635,-0.199424 -0.06865,-0.449244 0.11789,-0.592513 0.738674,-0.565874 1.584046,-1.007199 2.535369,-1.318214 C 36.14468,8.297312 33.79286,6.3815453 30.965751,6.3815453 c -1.956368,0 -3.966459,1.012959 -5.246828,2.6436285 C 25.576411,9.2058793 25.293626,9.259875 25.092169,9.1439643 24.882505,9.0251738 24.798192,8.773194 24.896681,8.5579312 25.629387,6.9618189 26.865734,5.7695943 27.393252,5.3066713 26.056922,3.0165345 23.465593,1.4888168 20.889931,1.4888168 c -2.888291,0 -5.443061,1.5961123 -6.665977,4.1648667 -1.098312,2.3052556 -0.811796,4.8264935 0.746882,6.5795535 0.555125,0.62347 1.225901,1.138229 1.993675,1.527718 0.209664,0.105111 0.307408,0.340533 0.232048,0.556515 -0.06641,0.188625 -0.247717,0.315335 -0.454396,0.315335 l -0.07835,-0.0065 c -2.550292,-0.405328 -3.844839,-1.87545 -4.270883,-2.358532 -0.0015,-0.0022 -0.003,-0.0036 -0.0053,-0.0058 -2.4324025,1.178546 -3.0584109,3.845212 -2.598045,5.861771 0.462604,2.028798 2.126488,4.195824 5.407248,4.195824 1.716859,0 6.971893,-0.0072 12.01428,-0.0144 4.646934,-0.0058 9.111811,-0.01224 10.455602,-0.01224 3.080049,0 4.690956,-2.36717 4.690956,-4.705543 0,-1.300216 -0.467081,-2.50828 -1.316184,-3.401728 -0.9655,-1.016559 -2.363758,-1.554356 -4.04331,-1.554356 -0.828956,0 -1.64896,0.149028 -2.435387,0.442045 -0.215634,0.08135 -0.473051,-0.0072 -0.589448,-0.200864" />
  </g>
</svg>
