<?xml version="1.0" encoding="UTF-8" standalone="no"?>
<svg
   xmlns:dc="http://purl.org/dc/elements/1.1/"
   xmlns:cc="http://creativecommons.org/ns#"
   xmlns:rdf="http://www.w3.org/1999/02/22-rdf-syntax-ns#"
   xmlns:svg="http://www.w3.org/2000/svg"
   xmlns="http://www.w3.org/2000/svg"
   id="svg983"
   viewBox="0 0 50 50"
   height="50"
   width="50"
   version="1.1">
  <path
     style="fill:#f29f26;stroke-width:0.01279246"
     d="m 34.864876,41.330374 -0.639542,2.053489 c -0.630489,2.02442 -1.184937,2.928144 -1.287097,0.94805 -0.05479,-1.061956 0.165628,-2.06447 0.322787,-3.134149 h -0.482945 c -0.01269,0 -0.02447,-0.01716 -0.03103,-0.04516 -0.0066,-0.02806 -0.007,-0.06293 -0.0011,-0.09196 l 0.517572,-2.54497 h -0.767543 c -0.01265,0 -0.0244,-0.01701 -0.031,-0.04484 -0.0066,-0.02784 -0.0071,-0.06253 -0.0013,-0.09156 l 0.860032,-4.316602 c 0.0062,-0.03123 0.01868,-0.05085 0.03229,-0.05085 h 1.551047 0.240006 0.270762 c 0.013,0 0.02501,0.01791 0.03148,0.04698 0.0065,0.02907 0.0064,0.06484 -1.14e-4,0.09382 l -0.509295,2.252176 h 0.572591 c 0.01325,0 0.02546,0.01865 0.03183,0.0486 0.0064,0.03001 0.0059,0.06658 -0.0012,0.09539 l -0.733841,2.963902 h 0.5592 c 0.01406,0 0.02688,0.02104 0.03286,0.05388 0.006,0.03289 0.004,0.07166 -0.0049,0.09962 l -0.388001,1.215055"
     id="bolt-left-3" />
  <g
     id="sun">
    <path
       style="fill:#ffa600;stroke-width:0.05878176"
       d="m 49.850723,17.672378 -3.229742,-2.830787 3.115517,-2.953071 c 0.114461,-0.108516 0.161578,-0.269005 0.123778,-0.421232 -0.03786,-0.152168 -0.155032,-0.272754 -0.307294,-0.316465 L 45.406429,9.9618362 46.938948,5.974172 c 0.05631,-0.1464847 0.02919,-0.311485 -0.071,-0.4329501 C 46.767699,5.4198154 46.609481,5.3604598 46.452916,5.385538 L 42.190898,6.068274 41.844271,1.8166443 C 41.831534,1.6604332 41.735412,1.5227962 41.592173,1.4556476 41.448934,1.388499 41.280161,1.401917 41.14966,1.4908624 L 37.595758,3.91325 35.436915,0.21925843 C 35.357601,0.08355505 35.211059,1.9253067e-7 35.052429,1.9253067e-7 34.893799,1.9253067e-7 34.747317,0.08355505 34.668002,0.21925843 L 32.189895,4.4595792 27.903346,2.0013908 c -0.137225,-0.078691 -0.306469,-0.079043 -0.443929,-0.00105 -0.137578,0.077988 -0.222494,0.2225981 -0.222907,0.3792781 L 27.22613,6.6449544 22.923364,6.2925708 c -0.157745,-0.012888 -0.311068,0.058416 -0.40141,0.187149 -0.0904,0.1287306 -0.104437,0.2953718 -0.03668,0.4370511 l 1.842349,3.8575271 -4.04023,1.50475 c -0.148369,0.05525 -0.255636,0.18457 -0.281465,0.3392 -0.02583,0.15457 0.03391,0.311016 0.156625,0.410332 l 3.338838,2.704224 -2.996457,3.070904 c -0.110038,0.112794 -0.150905,0.27504 -0.10709,0.425627 0.04387,0.150586 0.165707,0.266602 0.31956,0.304336 l 4.190133,1.028381 -1.373713,4.043621 c -0.05048,0.148536 -0.01687,0.312364 0.0881,0.429845 0.105027,0.117481 0.265485,0.170683 0.420872,0.13957 l 4.231706,-0.846271 0.51428,4.235048 c 0.01881,0.155566 0.120358,0.289336 0.266132,0.350977 0.145894,0.06164 0.3139,0.04172 0.440804,-0.05221 l 3.455422,-2.557446 2.303084,3.490202 C 35.335723,29.923066 35.477664,30 35.629689,30 c 0.0057,0 0.01155,-1.17e-4 0.01739,-3.51e-4 0.158452,-0.0061 0.301632,-0.09527 0.375522,-0.233907 l 2.011299,-3.656551 3.646662,2.283638 c 0.13404,0.08391 0.30293,0.09082 0.443575,0.01816 0.140467,-0.07266 0.231104,-0.213868 0.23765,-0.37043 l 0.178739,-4.261767 4.285605,0.51797 c 0.157097,0.01899 0.313133,-0.04635 0.408546,-0.171504 0.09541,-0.125215 0.115936,-0.291153 0.0539,-0.435352 l -1.688672,-3.925613 4.096369,-1.347835 c 0.150492,-0.04951 0.262772,-0.174551 0.294675,-0.328067 0.03184,-0.153399 -0.02164,-0.312012 -0.140231,-0.416016 z"
       id="path2" />
    <ellipse
       style="fill:#ffdb2d;stroke-width:0.05878176"
       cx="34.902706"
       cy="14.79621"
       rx="9.1444597"
       ry="9.0790606"
       id="ellipse4" />
  </g>
  <path
     id="path7209"
     class="drop"
     d="m 6.8142247,15.681132 c 0.432954,-0.552042 0.880199,-1.122608 1.241169,-1.734988 0.09527,-0.161431 0.36097,-0.161431 0.455712,0 0.3615,0.61238 0.808744,1.182946 1.241697,1.734988 0.8775513,1.119434 1.7064083,2.17694 1.7064083,3.427635 0,1.751397 -1.4243,3.175696 -3.1756973,3.175696 -1.751396,0 -3.175695,-1.424299 -3.175695,-3.175696 0,-1.250695 0.828856,-2.308201 1.706406,-3.427635 z"
     style="fill:#89cbd9;fill-opacity:1;stroke:#3a8bf2;stroke-width:1;stroke-miterlimit:4;stroke-dasharray:none;stroke-opacity:1" />
  <path
     id="path7213"
     class="drop"
     d="m 37.596535,30.684749 c 0.432954,-0.552042 0.880199,-1.122608 1.241169,-1.734988 0.09527,-0.161431 0.36097,-0.161431 0.455712,0 0.3615,0.61238 0.808744,1.182946 1.241697,1.734988 0.877551,1.119434 1.706408,2.17694 1.706408,3.427635 0,1.751397 -1.4243,3.175696 -3.175697,3.175696 -1.751396,0 -3.175695,-1.424299 -3.175695,-3.175696 0,-1.250695 0.828856,-2.308201 1.706406,-3.427635 z"
     style="fill:#89cbd9;fill-opacity:1;stroke:#3a8bf2;stroke-width:1;stroke-miterlimit:4;stroke-dasharray:none;stroke-opacity:1" />
  <path
     id="path7223"
     class="drop"
     d="m 17.484626,17.529417 c 0.432954,-0.552042 0.880199,-1.122608 1.241169,-1.734988 0.09527,-0.161431 0.36097,-0.161431 0.455712,0 0.3615,0.61238 0.808744,1.182946 1.241697,1.734988 0.877551,1.119433 1.706407,2.176939 1.706407,3.427634 0,1.751397 -1.424299,3.175696 -3.175696,3.175696 -1.751396,0 -3.175695,-1.424299 -3.175695,-3.175696 0,-1.250695 0.828856,-2.308201 1.706406,-3.427634 z"
     style="fill:#89cbd9;fill-opacity:1;stroke:#3a8bf2;stroke-width:1;stroke-miterlimit:4;stroke-dasharray:none;stroke-opacity:1" />
  <path
     style="fill:#f29f26;stroke-width:0.01645433"
     d="m 44.194984,45.515366 -0.968977,2.242333 c -0.955259,2.21059 -1.795309,3.197422 -1.950094,1.035235 -0.08301,-1.159616 0.250947,-2.254324 0.489058,-3.422374 h -0.731713 c -0.01922,0 -0.03707,-0.01873 -0.04702,-0.04931 -0.01,-0.03064 -0.01063,-0.06871 -0.0017,-0.10041 l 0.784178,-2.77901 h -1.162912 c -0.01917,0 -0.03697,-0.01857 -0.04696,-0.04897 -0.01,-0.03039 -0.01074,-0.06828 -0.002,-0.09998 l 1.303006,-4.713567 c 0.0094,-0.03409 0.0283,-0.05552 0.04892,-0.05552 h 2.350005 0.363637 0.410233 c 0.0197,0 0.0379,0.01957 0.0477,0.0513 0.0098,0.03174 0.0098,0.0708 -1.73e-4,0.102451 l -0.771637,2.459292 h 0.867537 c 0.02008,0 0.03858,0.02037 0.04822,0.05307 0.0096,0.03278 0.0089,0.07271 -0.0018,0.104157 l -1.111847,3.23647 h 0.847249 c 0.02131,0 0.04072,0.02297 0.04978,0.05884 0.0091,0.03592 0.0061,0.07824 -0.0075,0.108778 l -0.587865,1.326795"
     id="bolt" />
  <path
     style="fill:#f29f26;stroke-width:0.03065814"
     d="m 14.45897,40.411269 -1.56067,4.833192 c -1.538576,4.764771 -2.89159,6.891819 -3.1408916,2.231374 -0.133707,-2.49947 0.4041816,-4.859036 0.7876936,-7.376683 H 9.3665774 c -0.03096,0 -0.05971,-0.04038 -0.07573,-0.106287 -0.01606,-0.06604 -0.01712,-0.148104 -0.0026,-0.216428 L 10.551273,33.786474 H 8.6782444 c -0.03087,0 -0.05954,-0.04003 -0.07564,-0.105546 -0.01606,-0.06552 -0.017289,-0.147181 -0.0032,-0.215509 L 10.698075,23.305657 c 0.01518,-0.0735 0.04558,-0.119672 0.07879,-0.119672 h 3.785007 0.585685 0.660739 c 0.03173,0 0.06104,0.04216 0.07682,0.110582 0.01582,0.06842 0.01572,0.152599 -2.78e-4,0.22083 l -1.242828,5.300829 h 1.397287 c 0.03234,0 0.06213,0.0439 0.07767,0.114393 0.01552,0.07064 0.0144,0.156717 -0.003,0.224506 l -1.790784,6.975982 h 1.364611 c 0.03432,0 0.0656,0.04953 0.08019,0.126825 0.01458,0.07742 0.0098,0.168659 -0.01207,0.234463 l -0.946836,2.859811"
     id="bolt-left" />
  <g
     transform="matrix(0.78272131,0,0,0.8218573,-6.0499063,5.5865984)"
     id="cloud-front-top">
    <path
       d="m 11.849004,10.754475 0.37829,-0.167026 c -0.540202,-1.7948166 -0.361876,-3.7732183 0.50588,-5.5953925 1.49451,-3.137509 4.620074,-5.08711306 8.15825,-5.08711306 0.633469,0 1.290069,0.07847372 1.949653,0.23398128 0.805081,0.19006479 1.592254,0.4924406 2.340628,0.89992808 0.357399,0.1951043 0.703606,0.4132469 1.029667,0.6472282 0.664062,0.4773218 1.259478,1.0316774 1.771327,1.6479481 0.368591,0.4449244 0.687191,0.9078474 0.9461,1.3765299 l 0.176835,0.3196544 c 1.727304,-0.4298056 3.459832,-0.2562995 5.000603,0.4319655 0.823734,0.3678905 1.554946,0.8675305 2.174986,1.4859611 0.32233,0.3196544 0.619292,0.6825054 0.885663,1.0791936 0.568556,0.8480922 0.938639,1.7919367 1.105774,2.8336934 l 0.04477,0.282217 c 1.980244,0.295897 3.230022,1.230382 3.935121,1.973362 1.126664,1.187185 1.74745,2.775378 1.74745,4.472283 0,3.12599 -2.175732,6.290136 -6.333202,6.290136 -1.19904,0 -4.881966,0.0043 -8.961838,0.01008 l -1.924284,0.0022 c -4.90659,0.0072 -9.914655,0.01364 -11.583014,0.01364 -3.505347,0 -6.2578419,-2.135349 -7.0106933,-5.438445 -0.7401666,-3.2491 0.7655357,-6.419726 3.6620353,-7.712023 m 22.124421,2.118071 c -0.118635,-0.199424 -0.06865,-0.449244 0.11789,-0.592513 0.738674,-0.565874 1.584046,-1.007199 2.535369,-1.318214 -0.482003,-2.664507 -2.833824,-4.5802737 -5.660933,-4.5802737 -1.956368,0 -3.966458,1.012959 -5.246827,2.6436285 C 25.576412,9.2058793 25.293627,9.259875 25.092171,9.1439643 24.882507,9.0251738 24.798193,8.773194 24.896683,8.5579312 25.629389,6.9618189 26.865735,5.7695943 27.393253,5.3066713 26.056924,3.0165345 23.465594,1.4888168 20.889933,1.4888168 c -2.888292,0 -5.443061,1.5961123 -6.665978,4.1648667 -1.098311,2.3052556 -0.811795,4.8264935 0.746882,6.5795535 0.555125,0.62347 1.225902,1.138229 1.993675,1.527718 0.209664,0.105111 0.307409,0.340533 0.232048,0.556515 -0.06641,0.188625 -0.247716,0.315335 -0.454396,0.315335 l -0.07834,-0.0065 c -2.550292,-0.405328 -3.844838,-1.87545 -4.270882,-2.358532 -0.0015,-0.0022 -0.003,-0.0036 -0.0053,-0.0058 -2.4324024,1.178546 -3.0584107,3.845212 -2.5980449,5.861771 0.4626049,2.028798 2.1264879,4.195824 5.4072469,4.195824 1.716859,0 6.971894,-0.0072 12.01428,-0.0144 4.646934,-0.0058 9.111811,-0.01224 10.455602,-0.01224 3.080049,0 4.690957,-2.36717 4.690957,-4.705543 0,-1.300216 -0.467082,-2.50828 -1.316184,-3.401728 -0.9655,-1.016559 -2.363759,-1.554356 -4.04331,-1.554356 -0.828957,0 -1.648961,0.149028 -2.435388,0.442045 -0.215634,0.08135 -0.47305,-0.0072 -0.589447,-0.200864"
       class="contour"
       style="fill:#4d4d4d;stroke-width:0.73292214"
       id="path9060" />
    <path
       d="m 33.973424,12.872546 c -0.118635,-0.199424 -0.06865,-0.449244 0.11789,-0.592513 0.738674,-0.565874 1.584046,-1.007199 2.535369,-1.318214 C 36.14468,8.297312 33.79286,6.3815453 30.965751,6.3815453 c -1.956368,0 -3.966459,1.012959 -5.246828,2.6436285 C 25.576411,9.2058793 25.293626,9.259875 25.092169,9.1439643 24.882505,9.0251738 24.798192,8.773194 24.896681,8.5579312 25.629387,6.9618189 26.865734,5.7695943 27.393252,5.3066713 26.056922,3.0165345 23.465593,1.4888168 20.889931,1.4888168 c -2.888291,0 -5.443061,1.5961123 -6.665977,4.1648667 -1.098312,2.3052556 -0.811796,4.8264935 0.746882,6.5795535 0.555125,0.62347 1.225901,1.138229 1.993675,1.527718 0.209664,0.105111 0.307408,0.340533 0.232048,0.556515 -0.06641,0.188625 -0.247717,0.315335 -0.454396,0.315335 l -0.07835,-0.0065 c -2.550292,-0.405328 -3.844839,-1.87545 -4.270883,-2.358532 -0.0015,-0.0022 -0.003,-0.0036 -0.0053,-0.0058 -2.4324025,1.178546 -3.0584109,3.845212 -2.598045,5.861771 0.462604,2.028798 2.126488,4.195824 5.407248,4.195824 1.716859,0 6.971893,-0.0072 12.01428,-0.0144 4.646934,-0.0058 9.111811,-0.01224 10.455602,-0.01224 3.080049,0 4.690956,-2.36717 4.690956,-4.705543 0,-1.300216 -0.467081,-2.50828 -1.316184,-3.401728 -0.9655,-1.016559 -2.363758,-1.554356 -4.04331,-1.554356 -0.828956,0 -1.64896,0.149028 -2.435387,0.442045 -0.215634,0.08135 -0.473051,-0.0072 -0.589448,-0.200864"
       class="inside"
       style="fill:#666666;fill-opacity:1;stroke-width:0.73292214"
       id="path9062" />
  </g>
  <g
     transform="matrix(0.62550447,0,0,0.65677964,22.7956,22.128109)"
     id="cloud-front-top-0">
    <path
       d="m 11.849004,10.754475 0.37829,-0.167026 c -0.540202,-1.7948166 -0.361876,-3.7732183 0.50588,-5.5953925 1.49451,-3.137509 4.620074,-5.08711306 8.15825,-5.08711306 0.633469,0 1.290069,0.07847372 1.949653,0.23398128 0.805081,0.19006479 1.592254,0.4924406 2.340628,0.89992808 0.357399,0.1951043 0.703606,0.4132469 1.029667,0.6472282 0.664062,0.4773218 1.259478,1.0316774 1.771327,1.6479481 0.368591,0.4449244 0.687191,0.9078474 0.9461,1.3765299 l 0.176835,0.3196544 c 1.727304,-0.4298056 3.459832,-0.2562995 5.000603,0.4319655 0.823734,0.3678905 1.554946,0.8675305 2.174986,1.4859611 0.32233,0.3196544 0.619292,0.6825054 0.885663,1.0791936 0.568556,0.8480922 0.938639,1.7919367 1.105774,2.8336934 l 0.04477,0.282217 c 1.980244,0.295897 3.230022,1.230382 3.935121,1.973362 1.126664,1.187185 1.74745,2.775378 1.74745,4.472283 0,3.12599 -2.175732,6.290136 -6.333202,6.290136 -1.19904,0 -4.881966,0.0043 -8.961838,0.01008 l -1.924284,0.0022 c -4.90659,0.0072 -9.914655,0.01364 -11.583014,0.01364 -3.505347,0 -6.2578419,-2.135349 -7.0106933,-5.438445 -0.7401666,-3.2491 0.7655357,-6.419726 3.6620353,-7.712023 m 22.124421,2.118071 c -0.118635,-0.199424 -0.06865,-0.449244 0.11789,-0.592513 0.738674,-0.565874 1.584046,-1.007199 2.535369,-1.318214 -0.482003,-2.664507 -2.833824,-4.5802737 -5.660933,-4.5802737 -1.956368,0 -3.966458,1.012959 -5.246827,2.6436285 C 25.576412,9.2058793 25.293627,9.259875 25.092171,9.1439643 24.882507,9.0251738 24.798193,8.773194 24.896683,8.5579312 25.629389,6.9618189 26.865735,5.7695943 27.393253,5.3066713 26.056924,3.0165345 23.465594,1.4888168 20.889933,1.4888168 c -2.888292,0 -5.443061,1.5961123 -6.665978,4.1648667 -1.098311,2.3052556 -0.811795,4.8264935 0.746882,6.5795535 0.555125,0.62347 1.225902,1.138229 1.993675,1.527718 0.209664,0.105111 0.307409,0.340533 0.232048,0.556515 -0.06641,0.188625 -0.247716,0.315335 -0.454396,0.315335 l -0.07834,-0.0065 c -2.550292,-0.405328 -3.844838,-1.87545 -4.270882,-2.358532 -0.0015,-0.0022 -0.003,-0.0036 -0.0053,-0.0058 -2.4324024,1.178546 -3.0584107,3.845212 -2.5980449,5.861771 0.4626049,2.028798 2.1264879,4.195824 5.4072469,4.195824 1.716859,0 6.971894,-0.0072 12.01428,-0.0144 4.646934,-0.0058 9.111811,-0.01224 10.455602,-0.01224 3.080049,0 4.690957,-2.36717 4.690957,-4.705543 0,-1.300216 -0.467082,-2.50828 -1.316184,-3.401728 -0.9655,-1.016559 -2.363759,-1.554356 -4.04331,-1.554356 -0.828957,0 -1.648961,0.149028 -2.435388,0.442045 -0.215634,0.08135 -0.47305,-0.0072 -0.589447,-0.200864"
       class="contour"
       style="fill:#4d4d4d;stroke-width:0.73292214"
       id="path9060-2" />
    <path
       d="m 33.973424,12.872546 c -0.118635,-0.199424 -0.06865,-0.449244 0.11789,-0.592513 0.738674,-0.565874 1.584046,-1.007199 2.535369,-1.318214 C 36.14468,8.297312 33.79286,6.3815453 30.965751,6.3815453 c -1.956368,0 -3.966459,1.012959 -5.246828,2.6436285 C 25.576411,9.2058793 25.293626,9.259875 25.092169,9.1439643 24.882505,9.0251738 24.798192,8.773194 24.896681,8.5579312 25.629387,6.9618189 26.865734,5.7695943 27.393252,5.3066713 26.056922,3.0165345 23.465593,1.4888168 20.889931,1.4888168 c -2.888291,0 -5.443061,1.5961123 -6.665977,4.1648667 -1.098312,2.3052556 -0.811796,4.8264935 0.746882,6.5795535 0.555125,0.62347 1.225901,1.138229 1.993675,1.527718 0.209664,0.105111 0.307408,0.340533 0.232048,0.556515 -0.06641,0.188625 -0.247717,0.315335 -0.454396,0.315335 l -0.07835,-0.0065 c -2.550292,-0.405328 -3.844839,-1.87545 -4.270883,-2.358532 -0.0015,-0.0022 -0.003,-0.0036 -0.0053,-0.0058 -2.4324025,1.178546 -3.0584109,3.845212 -2.598045,5.861771 0.462604,2.028798 2.126488,4.195824 5.407248,4.195824 1.716859,0 6.971893,-0.0072 12.01428,-0.0144 4.646934,-0.0058 9.111811,-0.01224 10.455602,-0.01224 3.080049,0 4.690956,-2.36717 4.690956,-4.705543 0,-1.300216 -0.467081,-2.50828 -1.316184,-3.401728 -0.9655,-1.016559 -2.363758,-1.554356 -4.04331,-1.554356 -0.828956,0 -1.64896,0.149028 -2.435387,0.442045 -0.215634,0.08135 -0.473051,-0.0072 -0.589448,-0.200864"
       class="inside"
       style="fill:#666666;fill-opacity:1;stroke-width:0.73292214"
       id="path9062-3" />
  </g>
</svg>
