<?xml version="1.0" encoding="UTF-8" standalone="no"?>
<svg xmlns:dc="http://purl.org/dc/elements/1.1/" xmlns:cc="http://creativecommons.org/ns#" xmlns:rdf="http://www.w3.org/1999/02/22-rdf-syntax-ns#" xmlns:svg="http://www.w3.org/2000/svg" xmlns="http://www.w3.org/2000/svg" id="svg1596" viewBox="0 0 50 50" height="50" width="50" y="0px" x="0px" version="1.1">
  <metadata id="metadata13">
    <rdf:RDF>
      <cc:Work rdf:about="">
        <dc:format>image/svg+xml</dc:format>
        <dc:type rdf:resource="http://purl.org/dc/dcmitype/StillImage"/>
        <dc:title/>
      </cc:Work>
    </rdf:RDF>
  </metadata>
  <defs id="defs11"/>
  <g id="sun" transform="matrix(0.90000003,0,0,0.90000001,5.0000021,-3.3879601e-7)">
    <path style="fill:#ffa600;stroke-width:0.09796961" d="m 49.751202,29.453964 -5.382904,-4.717978 5.192528,-4.921787 c 0.190769,-0.18086 0.269298,-0.448341 0.206298,-0.702052 -0.0631,-0.253614 -0.258388,-0.454591 -0.512157,-0.527442 L 42.344045,16.60306 44.898244,9.9569533 C 44.992105,9.7128122 44.946894,9.4378117 44.77991,9.2353699 44.612828,9.0330258 44.349132,8.9340998 44.088189,8.9758967 L 36.984827,10.11379 36.407115,3.0277406 C 36.385886,2.7673886 36.225683,2.5379936 35.986952,2.4260793 35.748221,2.314165 35.466932,2.3365284 35.24943,2.4847708 L 29.32626,6.5220834 25.728189,0.36543077 C 25.595998,0.13925846 25.351762,3.7644001e-7 25.087379,3.7644001e-7 24.822996,3.7644001e-7 24.578859,0.13925846 24.446667,0.36543077 L 20.316488,7.432632 13.17224,3.3356514 C 12.943533,3.2044988 12.661459,3.2039129 12.432359,3.3338936 12.203063,3.4638743 12.061535,3.7048904 12.060847,3.9660237 l -0.0173,7.1089003 -7.1712762,-0.587306 c -0.2629091,-0.02148 -0.5184469,0.09736 -0.6690176,0.311915 -0.1506691,0.214551 -0.1740606,0.492286 -0.061133,0.728419 l 3.0705819,6.429212 -6.73371662,2.507915 C 0.23170349,20.557169 0.05292529,20.772697 0.009877,21.030412 -0.0331713,21.28803 0.06639017,21.548773 0.27091872,21.7143 l 5.56472938,4.50704 -4.99409376,5.118174 c -0.18339753,0.187989 -0.25150819,0.4584 -0.17848334,0.709377 0.0731231,0.250977 0.27617742,0.444337 0.5325998,0.507227 l 6.983554,1.713969 -2.2895207,6.739368 c -0.084131,0.247559 -0.028109,0.520607 0.146836,0.716408 0.1750434,0.195801 0.4424736,0.284473 0.7014513,0.232617 l 7.0528446,-1.410452 0.857133,7.058413 c 0.03135,0.259278 0.200597,0.482227 0.443554,0.584962 0.243155,0.102734 0.523165,0.06953 0.734672,-0.08701 l 5.759036,-4.262411 3.838473,5.817004 C 25.559534,49.871777 25.796103,50 26.049479,50 c 0.0096,0 0.01926,-1.95e-4 0.02899,-5.86e-4 0.264088,-0.01016 0.502721,-0.158789 0.625871,-0.389844 l 3.352165,-6.094251 6.07777,3.806063 c 0.223399,0.139844 0.504884,0.151367 0.739291,0.03027 0.234112,-0.121094 0.385174,-0.356446 0.396084,-0.617384 l 0.297898,-7.102944 7.142675,0.863283 c 0.261828,0.03164 0.521887,-0.07725 0.68091,-0.28584 0.159023,-0.208692 0.193226,-0.485255 0.08983,-0.725587 L 42.666509,32.940491 49.493792,30.6941 c 0.25082,-0.08252 0.437952,-0.290918 0.491124,-0.546778 0.05307,-0.255665 -0.03607,-0.520021 -0.233719,-0.693361 z" id="path2"/>
    <ellipse style="fill:#ffdb2d;stroke-width:0.09796961" cx="24.837837" cy="24.660351" rx="15.240767" ry="15.131768" id="ellipse4"/>
  </g>
  <g id="cloud" transform="matrix(1.1333503,0,0,1.1333503,-0.49369322,-6.3213912)">
    <path style="fill:#b3b3b3;stroke-width:0.71890676" d="m 27.349888,39.244117 c -0.470165,-0.514018 -1.291875,-1.171099 -2.565059,-1.443564 -0.149533,-0.892883 -0.529115,-1.736879 -1.101365,-2.443564 -1.017253,-1.290438 -2.550681,-2.029474 -4.20848,-2.029474 l -0.140187,0.0036 -0.09921,-0.0266 -0.02372,0.03163 c -0.260244,0.01366 -0.520489,0.04529 -0.776419,0.09705 -0.209921,-0.400431 -0.470884,-0.780014 -0.774263,-1.138029 -0.514737,-0.639827 -1.023723,-0.999281 -1.631918,-1.375269 -1.030194,-0.627606 -2.204169,-0.992091 -3.309847,-0.992091 -2.278216,0 -4.3400402,1.17685 -5.5161717,3.148092 -0.056075,0.09418 -0.107836,0.204889 -0.1610351,0.307692 -0.3048165,0.593817 -0.6347947,1.492451 -0.6915883,2.177569 -0.080518,0.717469 -0.030913,1.629043 0.094896,2.092019 -1.0337879,0.291876 -1.9992797,1.326383 -2.4040242,2.225016 -0.4047445,0.898634 -0.470165,2.810207 -0.071891,4.023002 0.7102799,2.16391 2.6002858,3.480228 4.9309815,3.480228 h 0.05895 c 1.2048878,0 4.6750508,0.02229 8.0050268,0.01797 3.112148,-0.0043 6.101362,0.005 7.002152,0.005 3.060386,0 4.660673,-2.401149 4.660673,-4.778573 7.19e-4,-1.283968 -0.452912,-2.480229 -1.277498,-3.381738 m -3.383175,6.619694 c -0.907979,0 -3.933858,0.03594 -7.069729,0.04026 -3.309847,0.0043 -6.741189,0.04026 -7.9374498,0.04026 h -0.05895 c -1.6491721,0 -2.930264,-0.948957 -3.4291853,-2.463693 -0.5197696,-1.583752 -0.028037,-3.34076 1.195542,-4.240831 C 7.1637084,38.873131 7.676289,38.61073 8.1895884,38.502894 L 8.4713968,38.443255 8.3355235,38.189481 C 7.6496864,36.917735 7.7359552,35.270001 8.5605413,33.888262 9.44911,32.400125 11.003386,31.510837 12.718698,31.510837 c 1.831056,0 4.101363,1.288281 4.70165,3.675771 l 0.06398,0.255212 0.237239,-0.112869 c 1.752695,-0.834651 3.654203,-0.342199 4.728969,1.021567 0.608914,0.753414 0.895758,1.811645 0.808051,2.780012 l 0.02947,0.344356 h 0.235802 c 1.105678,0 2.02516,0.25665 2.658517,0.948957 0.556434,0.608196 0.864126,1.377426 0.864126,2.263119 7.19e-4,1.542774 -0.964054,3.176849 -3.079797,3.176849" id="path14"/>
    <path style="opacity:1;fill:#ffffff;fill-opacity:1;stroke:none;stroke-width:20.15117073;stroke-linecap:round;stroke-linejoin:round;stroke-miterlimit:9;stroke-dasharray:none;stroke-opacity:1;paint-order:normal" d="m 12.441488,31.426965 c -2.4855401,0.180123 -4.8048566,2.410731 -4.6059076,4.99345 -0.00888,0.676499 0.1819805,1.332882 0.4547133,1.946372 -2.2395837,0.4558 -3.7651354,3.041214 -2.8767895,5.189189 0.546351,1.447945 2.0121929,2.664873 3.6277353,2.427586 5.0831185,0.02075 10.1726975,0.09413 15.2519175,-0.118336 1.723727,0.05125 2.987717,-1.724449 2.801484,-3.350132 0.04882,-1.52862 -1.170893,-2.862231 -2.66793,-3.05731 -0.706643,-0.02042 -1.217283,-0.185589 -1.077878,-1.013593 -0.158521,-2.034875 -2.035659,-3.833298 -4.124692,-3.577621 -0.579282,0.02767 -1.191634,0.284699 -1.71836,0.369439 -0.499495,-2.274278 -2.766965,-3.884503 -5.064293,-3.809044 z" id="path833"/>
  </g>
</svg>