<?xml version="1.0" encoding="utf-8"?>
<!-- Generator: Adobe Illustrator 16.0.0, SVG Export Plug-In . SVG Version: 6.00 Build 0)  -->
<!DOCTYPE svg PUBLIC "-//W3C//DTD SVG 1.1//EN" "http://www.w3.org/Graphics/SVG/1.1/DTD/svg11.dtd">
<svg version="1.1" id="Calque_1" xmlns="http://www.w3.org/2000/svg" xmlns:xlink="http://www.w3.org/1999/xlink" x="0px" y="0px"
	 width="199.768px" height="225.21px" viewBox="0 0 199.768 225.21" enable-background="new 0 0 199.768 225.21"
	 xml:space="preserve">
<g>
	<g>
		<g>
			<path fill="#F4A634" d="M125.775,34.15c-21.966,0-39.842,17.875-39.842,39.842s17.875,39.842,39.842,39.842
				s39.842-17.875,39.842-39.842S147.742,34.15,125.775,34.15z M125.775,102.451c-15.719,0-28.458-12.74-28.458-28.459
				c0-15.717,12.739-28.457,28.458-28.457s28.458,12.74,28.458,28.457C154.233,89.711,141.494,102.451,125.775,102.451z"/>
		</g>
		<g>
			<g>
				<path fill="#F4A634" d="M125.775,0c-3.143,0-5.692,2.55-5.692,5.691v11.383c0,3.143,2.55,5.692,5.692,5.692
					c3.142,0,5.691-2.55,5.691-5.692V5.691C131.467,2.55,128.917,0,125.775,0z"/>
			</g>
			<g>
				<path fill="#F4A634" d="M125.775,125.218c-3.143,0-5.692,2.549-5.692,5.691v11.383c0,3.143,2.55,5.691,5.692,5.691
					c3.142,0,5.691-2.549,5.691-5.691V130.91C131.467,127.767,128.917,125.218,125.775,125.218z"/>
			</g>
		</g>
		<g>
			<g>
				<path fill="#F4A634" d="M178.09,21.67c-2.223-2.223-5.824-2.223-8.048,0l-8.048,8.048c-2.223,2.224-2.223,5.825,0,8.048
					c2.225,2.225,5.825,2.225,8.048,0l8.048-8.048C180.313,27.494,180.313,23.894,178.09,21.67z"/>
			</g>
			<g>
				<path fill="#F4A634" d="M89.559,110.218c-2.225-2.224-5.825-2.229-8.049,0l-8.048,8.049c-2.223,2.223-2.223,5.824,0,8.047
					c2.224,2.225,5.825,2.225,8.048,0l8.049-8.047C91.781,116.035,91.781,112.441,89.559,110.218z"/>
			</g>
		</g>
		<g>
			<g>
				<path fill="#F4A634" d="M51.783,73.992c0,3.142,2.549,5.691,5.692,5.691h11.383c3.142,0,5.692-2.55,5.692-5.691
					c0-3.143-2.551-5.692-5.692-5.692H57.476C54.333,68.301,51.783,70.85,51.783,73.992z"/>
			</g>
			<g>
				<path fill="#F4A634" d="M177,73.992c0,3.142,2.549,5.691,5.692,5.691h11.383c3.142,0,5.692-2.55,5.692-5.691
					c0-3.143-2.549-5.692-5.692-5.692h-11.383C179.55,68.301,177,70.85,177,73.992z"/>
			</g>
		</g>
		<g>
			<g>
				<path fill="#F4A634" d="M73.453,21.67c-2.223,2.225-2.223,5.825,0,8.048l8.048,8.048c2.224,2.225,5.825,2.225,8.048,0
					c2.225-2.223,2.225-5.825,0-8.048l-8.048-8.048C79.278,19.447,75.677,19.447,73.453,21.67z"/>
			</g>
			<g>
				<path fill="#F4A634" d="M162.001,110.21c-2.224,2.224-2.23,5.825,0,8.047l8.048,8.049c2.224,2.223,5.825,2.223,8.049,0
					c2.223-2.225,2.223-5.826,0-8.049l-8.049-8.047C167.818,107.986,164.225,107.986,162.001,110.21z"/>
			</g>
		</g>
	</g>
	<g>
		<g>
			<path fill="#FFFFFF" d="M142.294,71.572c-1.89,0-3.757,0.133-5.618,0.399c-10.627-14.481-27.398-23.167-45.607-23.167
				S56.095,57.49,45.46,71.972c-1.86-0.267-3.728-0.399-5.618-0.399C17.875,71.572,0,89.447,0,111.414
				c0,21.966,17.875,39.841,39.842,39.841c4.869,0,9.635-0.889,14.125-2.607c10.301,8.98,23.404,13.992,37.101,13.992
				c13.711,0,26.798-5.01,37.1-13.992c4.491,1.719,9.256,2.607,14.126,2.607c21.966,0,39.842-17.875,39.842-39.841
				C182.136,89.447,164.261,71.572,142.294,71.572z"/>
		</g>
		<g>
			<path fill="#C7C6C6" d="M142.294,71.572c-1.89,0-3.757,0.133-5.618,0.399c-10.627-14.481-27.398-23.167-45.607-23.167
				S56.095,57.49,45.46,71.972c-1.86-0.267-3.728-0.399-5.618-0.399C17.875,71.572,0,89.447,0,111.414
				c0,21.966,17.875,39.841,39.842,39.841c4.869,0,9.635-0.889,14.125-2.607c10.301,8.98,23.404,13.992,37.101,13.992
				c13.711,0,26.798-5.01,37.1-13.992c4.491,1.719,9.256,2.607,14.126,2.607c21.966,0,39.842-17.875,39.842-39.841
				C182.136,89.447,164.261,71.572,142.294,71.572z M142.294,139.871c-6.092,0-11.709-1.955-16.341-5.217
				c-8.352,10.064-20.788,16.602-34.884,16.602c-14.097,0-26.532-6.537-34.884-16.602c-4.624,3.262-10.249,5.217-16.342,5.217
				c-15.719,0-28.457-12.738-28.457-28.457c0-15.72,12.739-28.459,28.457-28.459c3.847,0,7.492,0.785,10.827,2.164
				c7.553-14.732,22.716-24.931,40.398-24.931s32.846,10.198,40.39,24.931c3.344-1.377,6.996-2.164,10.835-2.164
				c15.72,0,28.458,12.739,28.458,28.459C170.753,127.132,158.014,139.871,142.294,139.871z"/>
		</g>
	</g>
	<g>
		<path fill="#40A0BE" d="M27.223,171.187c-3.291,5.363-1.613,12.365,3.75,15.656c5.362,3.291,12.364,1.613,15.655-3.75
			s2.205-25.357,2.205-25.357S30.514,165.824,27.223,171.187z"/>
	</g>
	<g>
		<path fill="#40A0BE" d="M89.223,185.685c-3.291,5.363-1.614,12.365,3.748,15.656c5.363,3.291,12.365,1.613,15.656-3.75
			c3.291-5.361,2.204-25.357,2.204-25.357S92.514,180.322,89.223,185.685z"/>
	</g>
	<g>
		<path fill="#40A0BE" d="M47.268,207.869c-3.291,5.363-1.614,12.365,3.749,15.656c5.362,3.291,12.364,1.613,15.655-3.748
			c3.291-5.363,2.204-25.359,2.204-25.359S50.557,202.507,47.268,207.869z"/>
	</g>
</g>
</svg>
