<?xml version="1.0" encoding="utf-8"?>
<!-- Generator: Adobe Illustrator 16.0.0, SVG Export Plug-In . SVG Version: 6.00 Build 0)  -->
<!DOCTYPE svg PUBLIC "-//W3C//DTD SVG 1.1//EN" "http://www.w3.org/Graphics/SVG/1.1/DTD/svg11.dtd">
<svg version="1.1" id="Calque_1" xmlns="http://www.w3.org/2000/svg" xmlns:xlink="http://www.w3.org/1999/xlink" x="0px" y="0px"
	 width="182.136px" height="160.789px" viewBox="0 0 182.136 160.789" enable-background="new 0 0 182.136 160.789"
	 xml:space="preserve">
<g>
	<g>
		<g>
			<path fill="#46385A" d="M155.047,75.321c-17.742,17.756-46.63,17.756-64.387,0c-17.757-17.757-17.757-46.645,0-64.395
				c4.698-4.691,10.427-8.271,17.015-10.605c2.075-0.726,4.373-0.199,5.914,1.35c1.556,1.556,2.083,3.854,1.35,5.914
				c-4.461,12.584-1.423,26.204,7.915,35.543c9.322,9.329,22.945,12.361,35.543,7.914c2.061-0.733,4.365-0.207,5.914,1.35
				c1.557,1.541,2.074,3.846,1.341,5.914C163.333,64.895,159.746,70.622,155.047,75.321z M98.709,18.975
				c-13.318,13.317-13.318,34.988,0,48.298c14.229,14.237,38.463,12.955,50.869-2.905c-12.792,0.8-25.39-3.816-34.771-13.191
				c-9.384-9.375-13.992-21.975-13.192-34.766C100.591,17.212,99.62,18.063,98.709,18.975z"/>
		</g>
	</g>
</g>
<g>
	<g>
		<path fill="#FFFFFF" d="M142.292,69.721c-1.89,0-3.757,0.134-5.618,0.399c-10.627-14.48-27.397-23.166-45.606-23.166
			S56.095,55.64,45.46,70.12c-1.859-0.267-3.728-0.399-5.618-0.399C17.875,69.721,0,87.595,0,109.562s17.875,39.842,39.842,39.842
			c4.869,0,9.636-0.889,14.127-2.607c10.301,8.98,23.403,13.992,37.099,13.992c13.711,0,26.798-5.012,37.101-13.992
			c4.49,1.719,9.257,2.607,14.125,2.607c21.967,0,39.843-17.875,39.843-39.842C182.135,87.595,164.258,69.721,142.292,69.721z"/>
	</g>
	<g>
		<path fill="#C7C6C6" d="M142.292,69.721c-1.89,0-3.757,0.134-5.618,0.399c-10.627-14.48-27.397-23.166-45.606-23.166
			S56.095,55.64,45.46,70.12c-1.859-0.267-3.728-0.399-5.618-0.399C17.875,69.721,0,87.595,0,109.562s17.875,39.842,39.842,39.842
			c4.869,0,9.636-0.889,14.127-2.607c10.301,8.98,23.403,13.992,37.099,13.992c13.711,0,26.798-5.012,37.101-13.992
			c4.49,1.719,9.257,2.607,14.125,2.607c21.967,0,39.843-17.875,39.843-39.842C182.135,87.595,164.258,69.721,142.292,69.721z
			 M142.292,138.021c-6.092,0-11.709-1.957-16.341-5.217c-8.352,10.063-20.788,16.6-34.884,16.6c-14.097,0-26.531-6.537-34.884-16.6
			c-4.625,3.26-10.25,5.217-16.342,5.217c-15.719,0-28.458-12.74-28.458-28.459s12.739-28.457,28.458-28.457
			c3.847,0,7.493,0.785,10.828,2.164c7.553-14.734,22.715-24.932,40.398-24.932c17.683,0,32.846,10.198,40.39,24.932
			c3.343-1.379,6.996-2.164,10.835-2.164c15.719,0,28.458,12.74,28.458,28.457C170.75,125.281,158.012,138.021,142.292,138.021z"/>
	</g>
</g>
</svg>
