<?xml version="1.0" encoding="utf-8"?>
<!-- Generator: Adobe Illustrator 16.0.0, SVG Export Plug-In . SVG Version: 6.00 Build 0)  -->
<!DOCTYPE svg PUBLIC "-//W3C//DTD SVG 1.1//EN" "http://www.w3.org/Graphics/SVG/1.1/DTD/svg11.dtd">
<svg version="1.1" id="Calque_1" xmlns="http://www.w3.org/2000/svg" xmlns:xlink="http://www.w3.org/1999/xlink" x="0px" y="0px"
	 width="205.137px" height="147.983px" viewBox="0 0 205.137 147.983" enable-background="new 0 0 205.137 147.983"
	 xml:space="preserve">
<g>
	<g>
		<path fill="#F4A634" d="M73.992,34.149c-21.967,0-39.843,17.875-39.843,39.842c0,21.968,17.875,39.843,39.843,39.843
			c21.967,0,39.842-17.875,39.842-39.843C113.834,52.024,95.958,34.149,73.992,34.149z M73.992,102.45
			c-15.72,0-28.458-12.74-28.458-28.458c0-15.719,12.739-28.458,28.458-28.458s28.458,12.739,28.458,28.458
			C102.45,89.709,89.711,102.45,73.992,102.45z"/>
	</g>
	<g>
		<g>
			<path fill="#F4A634" d="M73.992,0C70.85,0,68.3,2.549,68.3,5.691v11.384c0,3.142,2.549,5.691,5.692,5.691
				c3.143,0,5.691-2.549,5.691-5.691V5.691C79.684,2.549,77.134,0,73.992,0z"/>
		</g>
		<g>
			<path fill="#F4A634" d="M73.992,125.217c-3.143,0-5.692,2.549-5.692,5.691v11.383c0,3.143,2.549,5.691,5.692,5.691
				c3.143,0,5.691-2.549,5.691-5.691v-11.383C79.684,127.766,77.134,125.217,73.992,125.217z"/>
		</g>
	</g>
	<g>
		<g>
			<path fill="#F4A634" d="M126.306,21.669c-2.223-2.224-5.825-2.224-8.048,0l-8.048,8.048c-2.224,2.224-2.224,5.825,0,8.048
				c2.224,2.224,5.825,2.224,8.048,0l8.048-8.048C128.529,27.495,128.529,23.893,126.306,21.669z"/>
		</g>
		<g>
			<path fill="#F4A634" d="M37.773,110.217c-2.224-2.225-5.824-2.232-8.048,0l-8.048,8.047c-2.223,2.223-2.223,5.826,0,8.049
				s5.825,2.223,8.048,0l8.048-8.049C39.997,116.034,39.997,112.44,37.773,110.217z"/>
		</g>
	</g>
	<g>
		<g>
			<path fill="#F4A634" d="M0,73.991c0,3.142,2.55,5.691,5.691,5.691h11.384c3.142,0,5.691-2.549,5.691-5.691
				c0-3.143-2.55-5.692-5.691-5.692H5.691C2.549,68.3,0,70.849,0,73.991z"/>
		</g>
		<g>
			<path fill="#F4A634" d="M125.217,73.991c0,3.142,2.549,5.691,5.692,5.691h11.383c3.142,0,5.692-2.549,5.692-5.691
				c0-3.143-2.55-5.692-5.692-5.692h-11.383C127.766,68.3,125.217,70.849,125.217,73.991z"/>
		</g>
	</g>
	<g>
		<g>
			<path fill="#F4A634" d="M21.67,21.669c-2.223,2.224-2.223,5.825,0,8.048l8.048,8.048c2.224,2.224,5.825,2.224,8.048,0
				c2.225-2.223,2.225-5.825,0-8.048l-8.048-8.048C27.495,19.445,23.893,19.445,21.67,21.669z"/>
		</g>
		<g>
			<path fill="#F4A634" d="M110.217,110.209c-2.224,2.223-2.23,5.824,0,8.047l8.048,8.049c2.224,2.223,5.825,2.223,8.048,0
				c2.224-2.223,2.224-5.826,0-8.049l-8.048-8.047C116.035,107.985,112.439,107.985,110.217,110.209z"/>
		</g>
	</g>
</g>
<g>
	<g>
		<path fill="#FFFFFF" d="M179.82,18.833c-0.89,0-1.783,0.051-2.668,0.15c-6.293-8.211-16.129-13.092-26.451-13.092
			c-10.477,0-20.077,4.762-26.452,13.092c-0.884-0.1-1.778-0.15-2.667-0.15c-13.133,0-23.817,10.684-23.817,23.816
			c0,13.134,10.685,23.817,23.817,23.817c2.667,0,5.284-0.444,7.79-1.319c6.012,5.029,13.559,7.79,21.329,7.79
			c7.77,0,15.316-2.762,21.328-7.79c2.507,0.876,5.123,1.319,7.791,1.319c13.133,0,23.816-10.684,23.816-23.817
			C203.637,29.517,192.953,18.833,179.82,18.833z"/>
	</g>
	<g>
		<path fill="#C7C6C6" d="M179.82,18.833c-0.89,0-1.783,0.051-2.668,0.15c-6.293-8.211-16.129-13.092-26.451-13.092
			c-10.477,0-20.077,4.762-26.452,13.092c-0.884-0.1-1.778-0.15-2.667-0.15c-13.133,0-23.817,10.684-23.817,23.816
			c0,13.134,10.685,23.817,23.817,23.817c2.667,0,5.284-0.444,7.79-1.319c6.012,5.029,13.559,7.79,21.329,7.79
			c7.77,0,15.316-2.762,21.328-7.79c2.507,0.876,5.123,1.319,7.791,1.319c13.133,0,23.816-10.684,23.816-23.817
			C203.637,29.517,192.953,18.833,179.82,18.833z M121.582,27.641c1.955,0,3.876,0.384,5.709,1.142l0.995,0.41l0.49-0.958
			c4.28-8.35,12.682-13.536,21.925-13.536c9.244,0,17.644,5.187,21.92,13.535l0.489,0.958l0.995-0.409
			c1.837-0.759,3.76-1.143,5.714-1.143c8.276,0,15.009,6.732,15.009,15.008c0,8.276-6.733,15.01-15.009,15.01
			c-3.079,0-6.059-0.952-8.615-2.754l-0.884-0.621l-0.688,0.832c-4.754,5.729-11.654,9.015-18.931,9.015s-14.177-3.286-18.931-9.015
			l-0.689-0.831l-0.884,0.622c-2.553,1.801-5.532,2.753-8.615,2.753c-8.276,0-15.01-6.733-15.01-15.01
			C106.574,34.374,113.306,27.641,121.582,27.641z"/>
		<path fill="#C7C6C6" d="M150.701,74.438c-7.821,0-15.474-2.695-21.641-7.607c-2.419,0.754-4.931,1.137-7.479,1.137
			c-13.959,0-25.316-11.357-25.316-25.317s11.357-25.316,25.316-25.316c0.661,0,1.329,0.026,1.993,0.079
			c6.651-8.286,16.49-13.021,27.126-13.021c10.465,0,20.542,4.854,27.125,13.021c0.665-0.054,1.333-0.08,1.994-0.08
			c13.959,0,25.316,11.356,25.316,25.316s-11.357,25.317-25.316,25.317c-2.549,0-5.061-0.382-7.479-1.137
			C166.174,71.742,158.522,74.438,150.701,74.438z M129.681,63.45l0.653,0.546c5.736,4.798,12.97,7.44,20.367,7.44
			c7.396,0,14.63-2.643,20.366-7.44l0.653-0.546l0.804,0.28c2.347,0.82,4.801,1.235,7.295,1.235
			c12.307,0,22.317-10.011,22.317-22.317c0-12.306-10.011-22.316-22.317-22.316c-0.829,0-1.669,0.047-2.498,0.142l-0.843,0.095
			l-0.516-0.673c-6.001-7.83-15.445-12.505-25.263-12.505c-9.973,0-19.18,4.558-25.261,12.504l-0.516,0.674l-0.844-0.095
			c-0.829-0.094-1.67-0.142-2.498-0.142c-12.306,0-22.316,10.011-22.316,22.316c0,12.307,10.011,22.317,22.316,22.317
			c2.494,0,4.948-0.416,7.295-1.235L129.681,63.45z M150.701,65.629c-7.625,0-14.856-3.395-19.891-9.324
			c-2.751,1.868-5.936,2.854-9.229,2.854c-9.104,0-16.51-7.406-16.51-16.51c0-9.103,7.406-16.508,16.51-16.508
			c2.053,0,4.069,0.384,6,1.143c4.578-8.695,13.409-14.083,23.119-14.083c9.711,0,18.541,5.388,23.115,14.083
			c1.935-0.759,3.952-1.143,6.004-1.143c9.103,0,16.508,7.406,16.508,16.508c0,9.104-7.406,16.51-16.508,16.51
			c-3.291,0-6.476-0.985-9.229-2.854C165.558,62.234,158.326,65.629,150.701,65.629z M131.349,52.258l1.576,1.899
			c4.469,5.384,10.948,8.472,17.776,8.472s13.308-3.088,17.775-8.472l1.575-1.898l2.017,1.421c2.303,1.621,4.982,2.479,7.752,2.479
			c7.448,0,13.508-6.061,13.508-13.51c0-7.448-6.061-13.508-13.508-13.508c-1.759,0-3.488,0.346-5.143,1.028l-2.272,0.938
			l-1.12-2.188C167.267,21.074,159.38,16.2,150.701,16.2c-8.678,0-16.567,4.875-20.589,12.721l-1.122,2.188l-2.272-0.938
			c-1.649-0.683-3.378-1.027-5.136-1.027c-7.449,0-13.509,6.061-13.509,13.508c0,7.448,6.06,13.51,13.509,13.51
			c2.771,0,5.453-0.857,7.752-2.479L131.349,52.258z"/>
	</g>
</g>
</svg>
