<?xml version="1.0" encoding="utf-8"?>
<!-- Generator: Adobe Illustrator 16.0.0, SVG Export Plug-In . SVG Version: 6.00 Build 0)  -->
<!DOCTYPE svg PUBLIC "-//W3C//DTD SVG 1.1//EN" "http://www.w3.org/Graphics/SVG/1.1/DTD/svg11.dtd">
<svg version="1.1" id="Calque_1" xmlns="http://www.w3.org/2000/svg" xmlns:xlink="http://www.w3.org/1999/xlink" x="0px" y="0px"
	 width="182.731px" height="188.833px" viewBox="0 0 182.731 188.833" enable-background="new 0 0 182.731 188.833"
	 xml:space="preserve">
<g>
	<g>
		<path fill="#F4A634" d="M73.992,34.149c-21.967,0-39.842,17.875-39.842,39.842c0,21.968,17.875,39.843,39.842,39.843
			c21.966,0,39.842-17.875,39.842-39.843C113.834,52.025,95.959,34.149,73.992,34.149z M73.992,102.45
			c-15.719,0-28.458-12.739-28.458-28.458s12.74-28.458,28.458-28.458c15.719,0,28.458,12.74,28.458,28.458
			C102.451,89.711,89.711,102.45,73.992,102.45z"/>
	</g>
	<g>
		<g>
			<path fill="#F4A634" d="M73.992,0C70.851,0,68.3,2.55,68.3,5.691v11.383c0,3.143,2.551,5.692,5.692,5.692s5.692-2.55,5.692-5.692
				V5.691C79.685,2.55,77.134,0,73.992,0z"/>
		</g>
		<g>
			<path fill="#F4A634" d="M73.992,125.217c-3.142,0-5.692,2.549-5.692,5.691v11.383c0,3.143,2.551,5.691,5.692,5.691
				s5.692-2.549,5.692-5.691v-11.383C79.685,127.766,77.134,125.217,73.992,125.217z"/>
		</g>
	</g>
	<g>
		<g>
			<path fill="#F4A634" d="M126.308,21.67c-2.224-2.224-5.825-2.224-8.049,0l-8.048,8.048c-2.223,2.224-2.223,5.824,0,8.048
				c2.225,2.224,5.825,2.224,8.048,0l8.049-8.048C128.53,27.494,128.53,23.893,126.308,21.67z"/>
		</g>
		<g>
			<path fill="#F4A634" d="M37.774,110.217c-2.225-2.225-5.825-2.232-8.048,0l-8.048,8.047c-2.224,2.223-2.224,5.826,0,8.049
				c2.223,2.223,5.824,2.223,8.048,0l8.048-8.049C39.998,116.034,39.998,112.44,37.774,110.217z"/>
		</g>
	</g>
	<g>
		<g>
			<path fill="#F4A634" d="M0,73.991c0,3.143,2.549,5.692,5.692,5.692h11.383c3.142,0,5.692-2.55,5.692-5.692
				c0-3.142-2.551-5.691-5.692-5.691H5.692C2.55,68.3,0,70.85,0,73.991z"/>
		</g>
		<g>
			<path fill="#F4A634" d="M125.217,73.991c0,3.143,2.55,5.692,5.692,5.692h11.383c3.143,0,5.692-2.55,5.692-5.692
				c0-3.142-2.549-5.691-5.692-5.691h-11.383C127.767,68.3,125.217,70.85,125.217,73.991z"/>
		</g>
	</g>
	<g>
		<g>
			<path fill="#F4A634" d="M21.67,21.67c-2.223,2.224-2.223,5.824,0,8.048l8.048,8.048c2.225,2.224,5.825,2.224,8.049,0
				s2.224-5.825,0-8.048l-8.049-8.048C27.495,19.446,23.895,19.446,21.67,21.67z"/>
		</g>
		<g>
			<path fill="#F4A634" d="M110.217,110.209c-2.224,2.225-2.23,5.824,0,8.049l8.048,8.047c2.224,2.223,5.825,2.223,8.049,0
				c2.223-2.223,2.223-5.824,0-8.047l-8.049-8.049C116.035,107.987,112.441,107.987,110.217,110.209z"/>
		</g>
	</g>
</g>
<g>
	<g>
		<path fill="#FFFFFF" d="M142.89,97.764c-1.89,0-3.757,0.135-5.617,0.4c-10.627-14.481-27.399-23.167-45.607-23.167
			s-34.973,8.686-45.608,23.167c-1.859-0.268-3.728-0.4-5.618-0.4c-21.966,0-39.842,17.875-39.842,39.842
			s17.875,39.842,39.842,39.842c4.869,0,9.636-0.889,14.127-2.607c10.301,8.98,23.403,13.992,37.1,13.992
			c13.71,0,26.798-5.012,37.099-13.992c4.491,1.719,9.257,2.607,14.126,2.607c21.966,0,39.842-17.875,39.842-39.842
			C182.732,115.639,164.857,97.764,142.89,97.764z"/>
	</g>
	<g>
		<path fill="#C7C6C6" d="M142.89,97.764c-1.89,0-3.757,0.135-5.617,0.4c-10.627-14.481-27.399-23.167-45.607-23.167
			s-34.973,8.686-45.608,23.167c-1.859-0.268-3.728-0.4-5.618-0.4c-21.966,0-39.842,17.875-39.842,39.842
			s17.875,39.842,39.842,39.842c4.869,0,9.636-0.889,14.127-2.607c10.301,8.98,23.403,13.992,37.1,13.992
			c13.71,0,26.798-5.012,37.099-13.992c4.491,1.719,9.257,2.607,14.126,2.607c21.966,0,39.842-17.875,39.842-39.842
			C182.732,115.639,164.857,97.764,142.89,97.764z M142.89,166.065c-6.092,0-11.709-1.957-16.341-5.217
			c-8.352,10.063-20.788,16.6-34.884,16.6s-26.532-6.537-34.884-16.6c-4.624,3.26-10.249,5.217-16.341,5.217
			c-15.719,0-28.458-12.74-28.458-28.459s12.739-28.457,28.458-28.457c3.846,0,7.493,0.785,10.828,2.164
			c7.552-14.734,22.715-24.932,40.397-24.932s32.846,10.198,40.39,24.932c3.344-1.379,6.996-2.164,10.836-2.164
			c15.719,0,28.457,12.74,28.457,28.457C171.349,153.325,158.609,166.065,142.89,166.065z"/>
	</g>
</g>
</svg>
