<?xml version="1.0" encoding="utf-8"?>
<!-- Generator: Adobe Illustrator 22.0.0, SVG Export Plug-In . SVG Version: 6.00 Build 0)  -->
<svg version="1.1" id="Calque_1" xmlns="http://www.w3.org/2000/svg" xmlns:xlink="http://www.w3.org/1999/xlink" x="0px" y="0px"
	 viewBox="0 0 148 148" style="enable-background:new 0 0 148 148;" xml:space="preserve">
<style type="text/css">
	.st0{fill:#F4D813;}
	.st1{fill:#F4F4D8;}
</style>
<g>
	<g>
		<path class="st0" d="M74,34.2C52,34.2,34.1,52,34.1,74S52,113.8,74,113.8c22,0,39.8-17.9,39.8-39.8S96,34.2,74,34.2z M74,102.4
			c-15.7,0-28.5-12.7-28.5-28.5S58.3,45.5,74,45.5s28.5,12.7,28.5,28.5S89.7,102.4,74,102.4z"/>
	</g>
	<g>
		<g>
			<path class="st0" d="M74,0c-3.1,0-5.7,2.5-5.7,5.7v11.4c0,3.1,2.5,5.7,5.7,5.7s5.7-2.5,5.7-5.7V5.7C79.7,2.5,77.1,0,74,0z"/>
		</g>
		<g>
			<path class="st0" d="M74,125.2c-3.1,0-5.7,2.6-5.7,5.7v11.4c0,3.1,2.5,5.7,5.7,5.7s5.7-2.5,5.7-5.7v-11.4
				C79.7,127.8,77.1,125.2,74,125.2z"/>
		</g>
	</g>
	<g>
		<g>
			<path class="st0" d="M126.3,21.7c-2.2-2.2-5.8-2.2-8,0l-8,8c-2.2,2.2-2.2,5.8,0,8s5.8,2.2,8,0l8-8
				C128.5,27.5,128.5,23.9,126.3,21.7z"/>
		</g>
		<g>
			<path class="st0" d="M37.8,110.2c-2.2-2.2-5.8-2.2-8,0l-8,8c-2.2,2.2-2.2,5.8,0,8c2.2,2.2,5.8,2.2,8,0l8-8
				C40,116,40,112.4,37.8,110.2z"/>
		</g>
	</g>
	<g>
		<g>
			<path class="st0" d="M0,74c0,3.1,2.5,5.7,5.7,5.7h11.4c3.1,0,5.7-2.5,5.7-5.7c0-3.1-2.5-5.7-5.7-5.7H5.7C2.5,68.3,0,70.9,0,74z"
				/>
		</g>
		<g>
			<path class="st0" d="M125.2,74c0,3.1,2.5,5.7,5.7,5.7h11.4c3.1,0,5.7-2.5,5.7-5.7c0-3.1-2.6-5.7-5.7-5.7h-11.4
				C127.8,68.3,125.2,70.9,125.2,74z"/>
		</g>
	</g>
	<g>
		<g>
			<path class="st0" d="M21.7,21.7c-2.2,2.2-2.2,5.8,0,8l8,8c2.2,2.2,5.8,2.2,8,0c2.2-2.2,2.2-5.8,0-8l-8-8
				C27.5,19.4,23.9,19.4,21.7,21.7z"/>
		</g>
		<g>
			<path class="st0" d="M110.2,110.2c-2.2,2.2-2.2,5.8,0,8l8,8c2.2,2.2,5.8,2.2,8,0c2.2-2.2,2.2-5.8,0-8l-8-8
				C116,108,112.4,108,110.2,110.2z"/>
		</g>
	</g>
</g>
<rect x="25.7" y="86" class="st1" width="116.6" height="7"/>
<rect x="17.1" y="50" class="st1" width="91.1" height="6"/>
</svg>
