<?xml version="1.0" encoding="UTF-8" standalone="no"?>
<svg
   xmlns:dc="http://purl.org/dc/elements/1.1/"
   xmlns:cc="http://creativecommons.org/ns#"
   xmlns:rdf="http://www.w3.org/1999/02/22-rdf-syntax-ns#"
   xmlns:svg="http://www.w3.org/2000/svg"
   xmlns="http://www.w3.org/2000/svg"
   id="svg4268"
   version="1.1"
   viewBox="0 0 50 50"
   height="50"
   width="50">
  <g
     id="sun">
    <path
       style="fill:#ffa600;stroke-width:0.08817264"
       d="m 44.776085,26.508567 -4.844613,-4.24618 4.673275,-4.429608 c 0.171692,-0.162774 0.242368,-0.403507 0.185668,-0.631847 -0.05679,-0.228253 -0.232549,-0.409132 -0.460941,-0.474698 l -6.21983,-1.78348 2.298779,-5.9814964 c 0.08447,-0.219727 0.04378,-0.4672275 -0.1065,-0.6494251 C 40.151549,8.1297228 39.914222,8.0406894 39.679374,8.0783066 L 33.286348,9.1024106 32.766407,2.7249661 C 32.747301,2.4906493 32.603118,2.2841938 32.38826,2.1834709 32.173402,2.082748 31.920242,2.1028751 31.72449,2.2362932 L 26.393637,5.8698746 23.155373,0.3288872 C 23.036401,0.12533212 22.816589,-1.6120399e-7 22.578644,-1.6120399e-7 22.340699,-1.6120399e-7 22.120976,0.12533212 22.002003,0.3288872 L 18.284842,6.6893684 11.855019,3.0020858 C 11.649182,2.8840485 11.395316,2.8835211 11.189126,3.0005038 10.982759,3.1174864 10.855384,3.3344009 10.854765,3.5694209 L 10.839195,9.9674312 4.385046,9.4388558 C 4.1484278,9.4195238 3.9184438,9.5264798 3.7829302,9.7195793 3.647328,9.9126752 3.6262756,10.162637 3.7279105,10.375156 l 2.7635238,5.786291 -6.0603452,2.257124 c -0.22255379,0.08288 -0.38345418,0.276856 -0.42219764,0.5088 -0.03874347,0.231856 0.05086185,0.466524 0.23493755,0.615499 l 5.00825659,4.056336 -4.49468451,4.606356 c -0.16505778,0.169191 -0.22635738,0.41256 -0.16063501,0.63844 0.0658108,0.225879 0.24855968,0.399903 0.47933982,0.456504 l 6.2851988,1.542572 -2.0605687,6.065431 c -0.075718,0.222804 -0.025298,0.468547 0.1321524,0.644768 0.1575391,0.176221 0.3982263,0.256025 0.6313062,0.209355 l 6.3475604,-1.269407 0.77142,6.352572 c 0.02821,0.23335 0.180537,0.434004 0.399198,0.526466 0.21884,0.09246 0.470849,0.06258 0.661205,-0.07831 l 5.183133,-3.83617 3.454626,5.235303 C 23.003584,44.884599 23.216496,45 23.444534,45 c 0.0086,0 0.01733,-1.76e-4 0.02609,-5.27e-4 0.237679,-0.0091 0.452449,-0.142911 0.563284,-0.35086 l 3.016949,-5.484826 5.469993,3.425457 c 0.201059,0.125859 0.454395,0.13623 0.665362,0.02724 0.2107,-0.108985 0.346656,-0.320802 0.356475,-0.555646 l 0.268108,-6.39265 6.428408,0.776955 c 0.235645,0.02848 0.469699,-0.06952 0.612819,-0.257256 0.143121,-0.187823 0.173904,-0.436729 0.08085,-0.653028 l -2.533008,-5.88842 6.144554,-2.021752 c 0.225738,-0.07427 0.394157,-0.261826 0.442012,-0.4921 0.04776,-0.230099 -0.03246,-0.468019 -0.210347,-0.624025 z"
       id="path2" />
    <ellipse
       style="fill:#ffdb2d;stroke-width:0.08817264"
       cx="22.354057"
       cy="22.194315"
       rx="13.71669"
       ry="13.618591"
       id="ellipse4" />
  </g>
  <g
     transform="matrix(1.0362998,0,0,1,0,-0.001001)"
     id="cloud">
    <path
       d="m 43.09,31.735001 -0.507,-0.232 c 0.724,-2.493 0.485,-5.241 -0.678,-7.772 -2.003,-4.358 -6.192,-7.066 -10.934,-7.066 -0.849,0 -1.729,0.109 -2.613,0.325 -1.079,0.264 -2.134,0.684 -3.137,1.25 -0.479,0.271 -0.943,0.574 -1.38,0.899 -0.89,0.663 -1.688,1.433 -2.374,2.289 -0.494,0.618 -0.921,1.261 -1.268,1.912 l -0.237,0.444 c -2.315,-0.597 -4.637,-0.356 -6.702,0.6 -1.104,0.511 -2.084,1.205 -2.915,2.064 -0.432,0.444 -0.83,0.948 -1.187,1.499 -0.762,1.178 -1.258,2.489 -1.482,3.936 l -0.06,0.392 c -2.654,0.411 -4.329,1.709 -5.274,2.741 -1.51,1.649 -2.342,3.855 -2.342,6.212 0,4.342 2.916,8.737 8.488,8.737 1.607,0 6.543,0.006 12.011,0.014 l 2.579,0.003 c 6.576,0.01 13.288,0.019 15.524,0.019 4.698,0 8.387,-2.966 9.396,-7.554 0.992,-4.513 -1.026,-8.917 -4.908,-10.712 m -29.652,2.942 c 0.159,-0.277 0.092,-0.624 -0.158,-0.823 -0.99,-0.786 -2.123,-1.399 -3.398,-1.831 0.646,-3.701 3.798,-6.362 7.587,-6.362 2.622,0 5.316,1.407 7.032,3.672 0.191,0.251 0.57,0.326 0.84,0.165 0.281,-0.165 0.394,-0.515 0.262,-0.814 -0.982,-2.217 -2.639,-3.873 -3.346,-4.516 1.791,-3.181 5.264,-5.303 8.716,-5.303 3.871,0 7.295,2.217 8.934,5.785 1.472,3.202 1.088,6.704 -1.001,9.139 -0.744,0.866 -1.643,1.581 -2.672,2.122 -0.281,0.146 -0.412,0.473 -0.311,0.773 0.089,0.262 0.332,0.438 0.609,0.438 l 0.105,-0.009 c 3.418,-0.563 5.153,-2.605 5.724,-3.276 0.002,-0.003 0.004,-0.005 0.007,-0.008 3.26,1.637 4.099,5.341 3.482,8.142 -0.62,2.818 -2.85,5.828 -7.247,5.828 -2.301,0 -9.344,-0.01 -16.102,-0.02 -6.228,-0.008 -12.212,-0.017 -14.013,-0.017 -4.128,0 -6.287,-3.288 -6.287,-6.536 0,-1.806 0.626,-3.484 1.764,-4.725 1.294,-1.412 3.168,-2.159 5.419,-2.159 1.111,0 2.21,0.207 3.264,0.614 0.289,0.113 0.634,-0.01 0.79,-0.279"
       class="contour"
       id="path2327"
       style="fill:#cbd5d8" />
    <path
       d="m 13.438,34.677001 c 0.159,-0.277 0.092,-0.624 -0.158,-0.823 -0.99,-0.786 -2.123,-1.399 -3.398,-1.831 0.646,-3.701 3.798,-6.362 7.587,-6.362 2.622,0 5.316,1.407 7.032,3.672 0.191,0.251 0.57,0.326 0.84,0.165 0.281,-0.165 0.394,-0.515 0.262,-0.814 -0.982,-2.217 -2.639,-3.873 -3.346,-4.516 1.791,-3.181 5.264,-5.303 8.716,-5.303 3.871,0 7.295,2.217 8.934,5.785 1.472,3.202 1.088,6.704 -1.001,9.139 -0.744,0.866 -1.643,1.581 -2.672,2.122 -0.281,0.146 -0.412,0.473 -0.311,0.773 0.089,0.262 0.332,0.438 0.609,0.438 l 0.105,-0.009 c 3.418,-0.563 5.153001,-2.605 5.724001,-3.276 0.002,-0.003 0.004,-0.005 0.007,-0.008 3.26,1.637 4.099,5.341 3.482,8.142 -0.62,2.818 -2.85,5.828 -7.247001,5.828 -2.301,0 -9.344,-0.01 -16.102,-0.02 -6.228,-0.008 -12.212,-0.017 -14.013,-0.017 -4.128,0 -6.287,-3.288 -6.287,-6.536 0,-1.806 0.626,-3.484 1.764,-4.725 1.294,-1.412 3.168,-2.159 5.419,-2.159 1.111,0 2.21,0.207 3.264,0.614 0.289,0.113 0.634,-0.01 0.79,-0.279"
       class="inside"
       id="path2327-1"
       style="fill:#ffffff" />
  </g>
</svg>
