<?xml version="1.0" standalone="yes"?>
<svg xmlns="http://www.w3.org/2000/svg" width="320" height="426">
<path style="fill:#a5dcf1; stroke:none;" d="M283.667 13.3333C283.222 13.7777 284.278 13.7222 284.333 13.6667C284.778 13.2223 283.722 13.2778 283.667 13.3333z"/>
<path style="fill:#979696; stroke:none;" d="M285 13L286 15C287.635 14.455 287.455 14.6351 288 13L285 13z"/>
<path style="fill:#a5dcf1; stroke:none;" d="M277 14C278.506 14.683 279.315 14.8259 281 15C279.494 14.317 278.685 14.1741 277 14z"/>
<path style="fill:#09a0e2; stroke:none;" d="M286 14C274.64 14.4891 254.948 21.9202 260.742 36.9992C263.582 44.3894 275.278 47.1299 279.91 39.8912C282.786 35.3976 281.529 29.97 282.304 25C282.907 21.1332 284.859 17.703 286 14z"/>
<path style="fill:#a5dcf1; stroke:none;" d="M272.667 16.3333C272.222 16.7777 273.278 16.7223 273.333 16.6667C273.778 16.2222 272.722 16.2779 272.667 16.3333M285 16L286 17L285 16M262 24L270 18C266.118 17.1707 263.969 21.0581 262 24z"/>
<path style="fill:#979696; stroke:none;" d="M270.667 17.3333C270.222 17.7777 271.278 17.7222 271.333 17.6667C271.778 17.2222 270.722 17.2778 270.667 17.3333z"/>
<path style="fill:#a5dcf1; stroke:none;" d="M283.333 19.6667C283.278 19.7223 283.222 20.7777 283.667 20.3333C283.722 20.2778 283.778 19.2222 283.333 19.6667M282 23L282 35C283.512 31.3957 283.512 26.6043 282 23M261 25L262 26L261 25M260 27L261 28L260 27z"/>
<path style="fill:#979696; stroke:none;" d="M259 29L259 35C259.951 32.7147 259.951 31.2853 259 29z"/>
<path style="fill:#a5dcf1; stroke:none;" d="M281.333 36.6667C281.278 36.7223 281.222 37.7777 281.667 37.3333C281.722 37.2778 281.778 36.2222 281.333 36.6667M260 37L261 38L260 37z"/>
<path style="fill:#979696; stroke:none;" d="M280 39L281 40L280 39z"/>
<path style="fill:#a5dcf1; stroke:none;" d="M262 40C263.103 41.4567 263.543 41.8966 265 43C263.897 41.5433 263.457 41.1035 262 40M206.667 41.3333C206.222 41.7778 207.278 41.7222 207.333 41.6667C207.778 41.2224 206.722 41.2778 206.667 41.3333z"/>
<path style="fill:#09a0e2; stroke:none;" d="M213 41C201.9 41.484 181.507 47.9867 185.438 63C187.672 71.5351 199.647 75.1673 205.297 67.811C209.108 62.8496 207.321 56.6748 208.214 51C208.806 47.2318 211.08 44.1937 213 41z"/>
<path style="fill:#a5dcf1; stroke:none;" d="M279 41L280 42L279 41M202.667 42.3333C202.222 42.7779 203.278 42.7222 203.333 42.6667C203.778 42.2224 202.722 42.2776 202.667 42.3333M199.667 43.3333C199.222 43.7779 200.278 43.7221 200.333 43.6667C200.778 43.2224 199.722 43.2777 199.667 43.3333M276 43L277 44L276 43M210 44L211 45L210 44M267.667 44.3333C267.222 44.7777 268.278 44.7222 268.333 44.6667C268.778 44.2222 267.722 44.2778 267.667 44.3333z"/>
<path style="fill:#979696; stroke:none;" d="M269 44C270.769 44.779 272.036 44.9124 274 45C272.231 44.2211 270.964 44.0876 269 44z"/>
<path style="fill:#a5dcf1; stroke:none;" d="M193 46L194 47L193 46M209 46C207.513 52.2468 208.174 58.6748 207 65C210.406 62.0239 210.032 50.295 209 46M191 47L187 52C189.089 50.4443 190.403 49.5116 191 47M186 53L187 54L186 53z"/>
<path style="fill:#979696; stroke:none;" d="M185.333 55.6667C185.278 55.7221 185.222 56.7779 185.667 56.3333C185.722 56.2777 185.778 55.2222 185.333 55.6667z"/>
<path style="fill:#a5dcf1; stroke:none;" d="M184 58L184 61C184.696 59.4463 184.696 59.5537 184 58M187 67C188.33 68.7525 189.247 69.6697 191 71C189.67 69.2475 188.752 68.3302 187 67M204 69C200.959 71.0092 198.637 71.804 195 72C198.102 73.2889 204.111 73.437 204 69z"/>
<path style="fill:#979696; stroke:none;" d="M202 70L203 71L202 70z"/>
<path style="fill:#a5dcf1; stroke:none;" d="M192.667 71.3333C192.222 71.7779 193.278 71.7221 193.333 71.6667C193.778 71.2224 192.722 71.2777 192.667 71.3333M268 94C269.648 94.9241 271.175 95.4494 273 96C271.46 94.1969 270.403 94.168 268 94z"/>
<path style="fill:#09a0e2; stroke:none;" d="M272 95C260.798 95.2386 240.238 103.101 245.894 117.999C248.955 126.062 260.896 129.084 265.721 120.895C268.665 115.901 267.374 110.395 268.214 105C268.766 101.456 270.789 98.334 272 95z"/>
<path style="fill:#a5dcf1; stroke:none;" d="M261.667 96.3333C261.222 96.7777 262.278 96.7222 262.333 96.6667C262.778 96.2222 261.722 96.2778 261.667 96.3333M256 98L257 99L256 98M254 99L255 100L254 99M252 100C250.138 101.945 248.532 103.794 247 106C249.408 104.263 251.303 102.905 252 100M269 100C267.892 104.655 268 109.239 268 114C269.568 110.264 269.942 103.923 269 100z"/>
<path style="fill:#979696; stroke:none;" d="M245.333 109.667C245.278 109.722 245.222 110.778 245.667 110.333C245.722 110.278 245.778 109.222 245.333 109.667z"/>
<path style="fill:#a5dcf1; stroke:none;" d="M207 110L212 112L211 113C212.195 111.777 212.316 111.58 213 110L207 110M201 112C202.846 112.468 204.069 112.301 206 112C204.057 111.378 203.051 111.564 201 112z"/>
<path style="fill:#09a0e2; stroke:none;" d="M212 111C200.917 111.236 181.057 118.34 185.653 132.999C188.151 140.967 199.358 145.337 205.005 137.775C208.774 132.73 207.409 126.757 208.133 121C208.585 117.408 210.597 114.278 212 111z"/>
<path style="fill:#a5dcf1; stroke:none;" d="M244 111L244 116C244.83 113.969 244.83 113.03 244 111M198.667 113.333C198.222 113.778 199.278 113.722 199.333 113.667C199.778 113.222 198.722 113.278 198.667 113.333M194 115L195 116L194 115M192 116L191 118C192.263 117.029 192.392 117.306 192 116M209 116C207.653 120.558 208 125.27 208 130C209.568 126.264 209.942 119.923 209 116M267.333 116.667C267.278 116.722 267.222 117.778 267.667 117.333C267.722 117.278 267.778 116.222 267.333 116.667M245.333 117.667C245.278 117.722 245.222 118.778 245.667 118.333C245.722 118.278 245.778 117.222 245.333 117.667M189 119C187.814 120.186 187.472 120.584 187 122C188.548 120.738 188.808 120.806 189 119M266.333 119.667C266.278 119.722 266.222 120.778 266.667 120.333C266.722 120.278 266.778 119.222 266.333 119.667M247 121C248.103 122.457 248.543 122.897 250 124C248.896 122.543 248.457 122.103 247 121M128 122C128.545 123.635 128.365 123.455 130 124L130 122L128 122M123 123C124.248 123.685 124.548 123.749 126 124C124.752 123.315 124.452 123.251 123 123z"/>
<path style="fill:#09a0e2; stroke:none;" d="M129 123C117.593 124.473 98.8842 129.684 102.394 144.999C104.385 153.685 116.431 157.522 122.106 149.786C125.007 145.832 123.632 140.539 124.184 136C124.761 131.26 127.268 127.338 129 123z"/>
<path style="fill:#a5dcf1; stroke:none;" d="M119.667 124.333C119.222 124.778 120.278 124.722 120.333 124.667C120.778 124.222 119.722 124.278 119.667 124.333M116.667 125.333C116.222 125.778 117.278 125.722 117.333 125.667C117.778 125.222 116.722 125.278 116.667 125.333M252.667 125.333C252.222 125.778 253.278 125.722 253.333 125.667C253.778 125.222 252.722 125.278 252.667 125.333M260.667 125.333C260.222 125.778 261.278 125.722 261.333 125.667C261.778 125.222 260.722 125.278 260.667 125.333M126 127L127 128L126 127M184 128L184 131C184.696 129.446 184.696 129.554 184 128M108 129C102.408 134.415 101.001 137.263 101 145C102.088 142.431 101.922 139.537 103.178 137C104.619 134.091 107.25 132.147 108 129M125.333 130.667C125.278 130.722 125.222 131.778 125.667 131.333C125.722 131.278 125.778 130.222 125.333 130.667M207.333 132.667C207.278 132.722 207.222 133.778 207.667 133.333C207.722 133.278 207.778 132.222 207.333 132.667z"/>
<path style="fill:#979696; stroke:none;" d="M124 133L124 145C125.512 141.396 125.512 136.604 124 133z"/>
<path style="fill:#a5dcf1; stroke:none;" d="M185 133C185.684 134.58 185.805 134.777 187 136C186.309 134.611 186.016 134.139 185 133z"/>
<path style="fill:#979696; stroke:none;" d="M206 135L207 136L206 135z"/>
<path style="fill:#a5dcf1; stroke:none;" d="M205 137L206 138L205 137M191 140C192.223 141.195 192.42 141.316 194 142C192.861 140.985 192.388 140.691 191 140M199.667 141.333C199.222 141.778 200.278 141.722 200.333 141.667C200.778 141.222 199.722 141.278 199.667 141.333M102 146L103 147L102 146M103 148L104 149L103 148z"/>
<path style="fill:#979696; stroke:none;" d="M122 149L123 150L122 149z"/>
<path style="fill:#a5dcf1; stroke:none;" d="M107 152L108 153L107 152z"/>
<path style="fill:#979696; stroke:none;" d="M119 152L120 153L119 152z"/>
<path style="fill:#a5dcf1; stroke:none;" d="M117.667 153.333C117.222 153.778 118.278 153.722 118.333 153.667C118.778 153.222 117.722 153.278 117.667 153.333M110 154C111.769 154.779 113.036 154.912 115 155C113.231 154.221 111.964 154.088 110 154z"/>
<path style="fill:#f1a186; stroke:none;" d="M109 162C114.809 164.415 122.852 161.511 129 161.09C140.737 160.286 152.331 161.968 164 162C158.862 159.268 152.667 160 147 160C134.203 160 121.698 161.738 109 162z"/>
<path style="fill:#9a3467; stroke:none;" d="M11 238C19.1812 233.221 25.1035 227.726 35 226.3C56.1329 223.255 80.8257 239.522 84 261C94.0025 256.772 100.624 250.552 112 249.29C134.293 246.817 157.057 266.027 158 288C165.138 283.162 170.21 277.544 179 275.669C201.696 270.827 230.869 287.251 232 312C240.605 308.743 247.435 303.088 257 302.177C279.107 300.072 300.609 316.783 305 338C307.364 334.08 307.612 329.478 308.155 325C309.09 317.291 310.086 310.778 309.155 303C305.971 276.389 298.057 251.525 281.691 229.91C268.571 212.581 252.446 198.351 234 186.914C226.641 182.352 218.483 179.476 211.059 175.176C205.931 172.206 206.937 164.997 200.981 162.934C194.677 160.75 191.35 167.748 184.999 166.455C174.314 164.28 163.916 161.837 153 161.09C112.025 158.283 68.1611 169.777 38.0895 198.831C29.3843 207.242 21.3389 216.43 15.6358 227.169C13.7523 230.716 11.5679 234 11 238z"/>
<path style="fill:#f1a186; stroke:none;" d="M195 162C198.097 162.948 201.219 162.818 203.721 165.282C206.079 167.605 206.075 170.881 207.988 173.362C209.672 175.546 212.493 176.274 215 177C213.096 175.262 210.428 173.928 209.008 171.737C205.171 165.817 203.793 159.808 195 162M166 162C167.769 162.779 169.036 162.912 171 163C169.231 162.221 167.964 162.088 166 162M94 166C98.2812 167.3 103.719 165.108 108 164C103.624 162.434 98.3498 164.775 94 166z"/>
<path style="fill:#979696; stroke:none;" d="M171 163C172.248 163.685 172.548 163.749 174 164C172.752 163.315 172.452 163.251 171 163z"/>
<path style="fill:#f1a186; stroke:none;" d="M174 163C177.999 165.849 188.825 169.753 192 165C185.903 166.325 180.01 164.165 174 163M193 163L194 164L193 163M22 217C30.5283 209.431 37.052 199.799 46 192.465C59.9349 181.043 75.8344 175.166 92 168C85.9572 166.922 77.4385 172.015 72 174.555C53.9186 182.999 30.0738 197.926 22 217z"/>
<path style="fill:#a5dcf1; stroke:none;" d="M289.667 176.333C289.222 176.778 290.278 176.722 290.333 176.667C290.778 176.222 289.722 176.278 289.667 176.333z"/>
<path style="fill:#09a0e2; stroke:none;" d="M295 176C283.335 177.017 263.117 183.545 267.573 198.999C269.959 207.28 281.998 210.004 287.297 202.891C291.062 197.838 289.312 191.732 290.214 186C290.806 182.232 293.079 179.194 295 176z"/>
<path style="fill:#f1a186; stroke:none;" d="M216 177C221.013 181.153 228.017 184.422 234 187C229.399 182.255 222.396 178.612 216 177z"/>
<path style="fill:#a5dcf1; stroke:none;" d="M286.667 177.333C286.222 177.778 287.278 177.722 287.333 177.667C287.778 177.222 286.722 177.278 286.667 177.333M282.667 178.333C282.222 178.778 283.278 178.722 283.333 178.667C283.778 178.222 282.722 178.278 282.667 178.333M279.667 179.333C279.222 179.778 280.278 179.722 280.333 179.667C280.778 179.222 279.722 179.278 279.667 179.333M292 179L290 185C291.631 182.957 292.444 181.583 292 179M277 180L278 181L277 180M274 182L275 183L274 182M272 183L269 187C270.756 185.623 271.54 185.106 272 183z"/>
<path style="fill:#f1a186; stroke:none;" d="M235 187C238.905 191.725 244.668 195.032 250 198C246.096 193.205 240.569 189.635 235 187z"/>
<path style="fill:#a5dcf1; stroke:none;" d="M268 188L269 189L268 188M266 192L266 198C266.951 195.715 266.951 194.285 266 192z"/>
<path style="fill:#f1a186; stroke:none;" d="M251 198C254.867 203.254 260.375 207.377 265 212C269.937 216.935 274.396 222.875 280 227C273.143 216.037 261.767 205.122 251 198z"/>
<path style="fill:#a5dcf1; stroke:none;" d="M289.333 198.667C289.278 198.722 289.222 199.778 289.667 199.333C289.722 199.278 289.778 198.222 289.333 198.667M267.333 199.667C267.278 199.722 267.222 200.778 267.667 200.333C267.722 200.278 267.778 199.222 267.333 199.667M286 204L287 205L286 204z"/>
<path style="fill:#979696; stroke:none;" d="M273.667 206.333C273.222 206.778 274.278 206.722 274.333 206.667C274.778 206.222 273.722 206.278 273.667 206.333z"/>
<path style="fill:#a5dcf1; stroke:none;" d="M283 206L284 207L283 206M274 207C276.613 208.098 279.164 207.993 282 208C279.387 206.902 276.835 207.007 274 207z"/>
<path style="fill:#f1a186; stroke:none;" d="M20.3333 218.667C20.2778 218.722 20.2222 219.778 20.6667 219.333C20.7222 219.278 20.7778 218.222 20.3333 218.667M18 221L16 225C17.8595 223.735 18.3689 223.223 18 221M15 226L12 234C14.0132 231.559 15.5307 229.18 15 226M29 227C34.7152 229.05 43.6131 227.193 50 228C43.9254 224.361 35.6727 226.157 29 227M26.6667 228.333C26.2222 228.778 27.2778 228.722 27.3333 228.667C27.7778 228.222 26.7222 228.278 26.6667 228.333M51.6667 228.333C51.2222 228.778 52.2778 228.722 52.3333 228.667C52.7778 228.222 51.7222 228.278 51.6667 228.333M280 228L283 233C283.098 230.413 282.015 229.644 280 228M14 236C17.6752 233.962 21.1328 231.669 25 230C20.5601 229.274 16.6966 232.746 14 236M55 229C58.4825 231.636 62.8933 233.508 67 235C63.5595 231.779 59.6365 229.827 55 229M285.333 234.667C285.278 234.722 285.222 235.778 285.667 235.333C285.722 235.278 285.778 234.222 285.333 234.667M10.3333 236.667C10.2778 236.722 10.2222 237.778 10.6667 237.333C10.7223 237.278 10.7778 236.222 10.3333 236.667M68 236C71.7711 240.364 75.7166 244.193 79 249C78.8086 243.319 72.8194 238.249 68 236M12 237L13 238L12 237M287 237C288.178 240.718 289.673 243.864 293 246C291.235 242.819 289.39 239.741 287 237M293 247C295.722 256.451 300.466 265.783 304 275C305.747 267.347 297.811 252.807 293 247M110 249C112.89 250.213 115.874 249.998 119 250C116.11 248.787 113.126 249.002 110 249M80 250L81 253C81.4009 251.234 81.2892 251.443 80 250M98 252C101.298 252.779 104.683 251.643 108 251C104.621 249.791 101.386 251.049 98 252M121 250C123.793 251.707 126.802 252.338 130 253C127.258 250.754 124.507 250.289 121 250M96 253L97 254L96 253M131 253L138 257C136.184 254.258 134.202 253.584 131 253M82 254L83 263C87.4128 261.034 91.0804 257.818 95 255C90.8919 255.211 87.442 258.857 84 261C83.7652 258.309 83.3931 256.311 82 254M139 257C145.633 263.98 153.141 269.286 156 279C158.307 270.587 145.915 259.679 139 257M166 282C176.311 276.603 185.567 276 197 276C189.046 272.662 171.045 274.304 166 282M198 276C199.458 277.081 200.248 277.436 202 278C200.457 276.733 199.952 276.511 198 276M305 276C305.803 286.087 308.916 295.794 309 306C312.246 298.265 308.894 283.166 305 276M204 278C206.209 279.647 208.491 280.856 211 282C209.184 279.258 207.202 278.584 204 278z"/>
<path style="fill:#979696; stroke:none;" d="M155 279L156 280L155 279z"/>
<path style="fill:#020202; stroke:none;" d="M156 279C145.755 310.434 135.002 342.032 123.424 373C120.711 380.257 118.423 387.686 115.866 395C114.9 397.763 113.385 401.653 109.986 402.079C106.042 402.572 104.294 398.166 104.819 395C106.021 387.752 110.071 381.053 112 374C101.503 377.024 96.1149 383.156 94.3256 394C92.7625 403.474 99.6902 413.557 110 412.775C123.997 411.713 126.913 394.78 130.656 384C138.056 362.685 145.188 341.279 152.691 320C156.891 308.091 162.859 295.441 165 283C162.181 284.299 160.279 285.87 158 288C157.929 284.661 157.731 281.889 156 279z"/>
<path style="fill:#595959; stroke:none;" d="M155 280L156 281L155 280z"/>
<path style="fill:#979696; stroke:none;" d="M154 282L155 283L154 282z"/>
<path style="fill:#f1a186; stroke:none;" d="M212 282C216.657 286.754 221.836 291.836 227 296C223.51 289.962 218.592 284.554 212 282z"/>
<path style="fill:#595959; stroke:none;" d="M154 283L155 284L154 283M165 283L166 284L165 283z"/>
<path style="fill:#979696; stroke:none;" d="M165 284L166 285L165 284M153 285L154 286L153 285z"/>
<path style="fill:#595959; stroke:none;" d="M153 286L154 287L153 286M164 286L165 287L164 286z"/>
<path style="fill:#a5dcf1; stroke:none;" d="M152 287L153 288L152 287z"/>
<path style="fill:#979696; stroke:none;" d="M164 287L165 288L164 287M152 288L153 289L152 288z"/>
<path style="fill:#595959; stroke:none;" d="M163.333 288.667C163.278 288.722 163.222 289.778 163.667 289.333C163.722 289.278 163.778 288.222 163.333 288.667z"/>
<path style="fill:#979696; stroke:none;" d="M151.333 290.667C151.278 290.722 151.222 291.778 151.667 291.333C151.722 291.278 151.778 290.222 151.333 290.667M163 290L164 291L163 290z"/>
<path style="fill:#595959; stroke:none;" d="M162 291L163 292L162 291z"/>
<path style="fill:#979696; stroke:none;" d="M162 292L163 293L162 292M150 293L151 294L150 293z"/>
<path style="fill:#595959; stroke:none;" d="M150 294L151 295L150 294M161 294L162 295L161 294z"/>
<path style="fill:#979696; stroke:none;" d="M161 295L162 296L161 295M149 296L150 297L149 296z"/>
<path style="fill:#595959; stroke:none;" d="M149 297L150 298L149 297M160 297L161 298L160 297z"/>
<path style="fill:#f1a186; stroke:none;" d="M227 297L229 302C229.375 299.581 228.693 298.782 227 297z"/>
<path style="fill:#979696; stroke:none;" d="M160 298L161 299L160 298M148 299L149 300L148 299z"/>
<path style="fill:#595959; stroke:none;" d="M148 300L149 301L148 300M159 300L160 301L159 300z"/>
<path style="fill:#979696; stroke:none;" d="M159 301L160 302L159 301M147 302L148 303L147 302z"/>
<path style="fill:#f1a186; stroke:none;" d="M254 302C257.163 303.327 260.586 303 264 303C260.837 301.673 257.414 302 254 302z"/>
<path style="fill:#595959; stroke:none;" d="M147 303L148 304L147 303M158 303L159 304L158 303z"/>
<path style="fill:#f1a186; stroke:none;" d="M230 303L231 314C234.953 312.902 237.741 310.445 241 308C237.66 308.109 234.909 310.389 232 312C231.929 308.661 231.731 305.889 230 303M250 303C251.248 303.685 251.548 303.749 253 304C251.752 303.315 251.452 303.251 250 303M268 303C271.408 304.913 275.248 305.914 279 307C275.821 304.198 272.177 303.365 268 303z"/>
<path style="fill:#979696; stroke:none;" d="M158 304L159 305L158 304z"/>
<path style="fill:#f1a186; stroke:none;" d="M242 306C244.465 306.445 246.547 305.639 249 305C246.395 304.271 244.55 305.079 242 306z"/>
<path style="fill:#979696; stroke:none;" d="M146 305L147 306L146 305z"/>
<path style="fill:#595959; stroke:none;" d="M146 306L147 307L146 306M157 306L158 307L157 306z"/>
<path style="fill:#979696; stroke:none;" d="M157 307L158 308L157 307z"/>
<path style="fill:#f1a186; stroke:none;" d="M280 307L281 308L280 307z"/>
<path style="fill:#979696; stroke:none;" d="M145 308L146 309L145 308z"/>
<path style="fill:#595959; stroke:none;" d="M156.333 308.667C156.278 308.722 156.222 309.778 156.667 309.333C156.722 309.278 156.778 308.222 156.333 308.667z"/>
<path style="fill:#f1a186; stroke:none;" d="M283 308C284.223 309.195 284.42 309.316 286 310C284.861 308.985 284.388 308.691 283 308z"/>
<path style="fill:#595959; stroke:none;" d="M145 309L146 310L145 309z"/>
<path style="fill:#979696; stroke:none;" d="M156 310L157 311L156 310M144 311L145 312L144 311z"/>
<path style="fill:#595959; stroke:none;" d="M155.333 311.667C155.278 311.722 155.222 312.778 155.667 312.333C155.722 312.278 155.778 311.222 155.333 311.667z"/>
<path style="fill:#f1a186; stroke:none;" d="M287 311C291.028 315.357 295.387 319.258 299 324C298.646 318.294 291.926 313.103 287 311z"/>
<path style="fill:#595959; stroke:none;" d="M144 312L145 313L144 312z"/>
<path style="fill:#a5dcf1; stroke:none;" d="M143 313L144 314L143 313M155 313L156 314L155 313z"/>
<path style="fill:#979696; stroke:none;" d="M143 314L144 315L143 314z"/>
<path style="fill:#595959; stroke:none;" d="M143 315L144 316L143 315M154 315L155 316L154 315z"/>
<path style="fill:#a5dcf1; stroke:none;" d="M142 316L143 317L142 316M154 316L155 317L154 316z"/>
<path style="fill:#f1a186; stroke:none;" d="M309 316C308.681 323.429 306.949 330.654 306 338C305.014 336.522 305 336.797 305 335C304.221 336.769 304.088 338.036 304 340L307 340C307.926 332.713 311.942 323.014 309 316z"/>
<path style="fill:#979696; stroke:none;" d="M142 317L143 318L142 317z"/>
<path style="fill:#595959; stroke:none;" d="M153 317L154 318L153 317z"/>
<path style="fill:#979696; stroke:none;" d="M153 318L154 319L153 318z"/>
<path style="fill:#a5dcf1; stroke:none;" d="M141 319L142 320L141 319z"/>
<path style="fill:#595959; stroke:none;" d="M141 320L142 321L141 320M152 320L153 321L152 320z"/>
<path style="fill:#979696; stroke:none;" d="M152 321L153 322L152 321M140 322L141 323L140 322z"/>
<path style="fill:#595959; stroke:none;" d="M140 323L141 324L140 323M151 323L152 324L151 323z"/>
<path style="fill:#979696; stroke:none;" d="M151 324L152 325L151 324z"/>
<path style="fill:#a5dcf1; stroke:none;" d="M139 325L140 326L139 325z"/>
<path style="fill:#f1a186; stroke:none;" d="M300 325L303 334C304.058 330.41 302.51 327.597 300 325z"/>
<path style="fill:#595959; stroke:none;" d="M139 326L140 327L139 326M150 326L151 327L150 326z"/>
<path style="fill:#979696; stroke:none;" d="M150 327L151 328L150 327M138 328L139 329L138 328z"/>
<path style="fill:#595959; stroke:none;" d="M138 329L139 330L138 329M149 329L150 330L149 329z"/>
<path style="fill:#979696; stroke:none;" d="M149 330L150 331L149 330M137 331L138 332L137 331z"/>
<path style="fill:#595959; stroke:none;" d="M137 332L138 333L137 332M148 332L149 333L148 332z"/>
<path style="fill:#a5dcf1; stroke:none;" d="M136 333L137 334L136 333z"/>
<path style="fill:#979696; stroke:none;" d="M148 333L149 334L148 333M136 334L137 335L136 334z"/>
<path style="fill:#595959; stroke:none;" d="M136 335L137 336L136 335M147 335L148 336L147 335z"/>
<path style="fill:#979696; stroke:none;" d="M147 336L148 337L147 336M135 337L136 338L135 337z"/>
<path style="fill:#595959; stroke:none;" d="M146.333 337.667C146.278 337.722 146.222 338.778 146.667 338.333C146.722 338.278 146.778 337.222 146.333 337.667M135 338L136 339L135 338z"/>
<path style="fill:#979696; stroke:none;" d="M146 339L147 340L146 339M134 340L135 341L134 340z"/>
<path style="fill:#595959; stroke:none;" d="M145.333 340.667C145.278 340.722 145.222 341.778 145.667 341.333C145.722 341.278 145.778 340.222 145.333 340.667M134 341L135 342L134 341z"/>
<path style="fill:#a5dcf1; stroke:none;" d="M133 342L134 343L133 342M145 342L146 343L145 342z"/>
<path style="fill:#979696; stroke:none;" d="M133 343L134 344L133 343z"/>
<path style="fill:#595959; stroke:none;" d="M144 343L145 344L144 343z"/>
<path style="fill:#979696; stroke:none;" d="M144 344L145 345L144 344M132.333 345.667C132.278 345.722 132.222 346.778 132.667 346.333C132.722 346.278 132.778 345.222 132.333 345.667z"/>
<path style="fill:#a5dcf1; stroke:none;" d="M144 345L145 346L144 345z"/>
<path style="fill:#595959; stroke:none;" d="M143 346L144 347L143 346z"/>
<path style="fill:#979696; stroke:none;" d="M143 347L144 348L143 347M131 348L132 349L131 348z"/>
<path style="fill:#595959; stroke:none;" d="M131 349L132 350L131 349M142 349L143 350L142 349z"/>
<path style="fill:#979696; stroke:none;" d="M142 350L143 351L142 350M130 351L131 352L130 351z"/>
<path style="fill:#595959; stroke:none;" d="M130 352L131 353L130 352M141 352L142 353L141 352z"/>
<path style="fill:#979696; stroke:none;" d="M141 353L142 354L141 353M129 354L130 355L129 354z"/>
<path style="fill:#595959; stroke:none;" d="M129 355L130 356L129 355M140 355L141 356L140 355z"/>
<path style="fill:#979696; stroke:none;" d="M140 356L141 357L140 356M128 357L129 358L128 357z"/>
<path style="fill:#595959; stroke:none;" d="M128 358L129 359L128 358M139 358L140 359L139 358z"/>
<path style="fill:#979696; stroke:none;" d="M127.333 359.667C127.278 359.722 127.222 360.778 127.667 360.333C127.722 360.278 127.778 359.222 127.333 359.667M139 359L140 360L139 359z"/>
<path style="fill:#595959; stroke:none;" d="M127 361L128 362L127 361M138 361L139 362L138 361z"/>
<path style="fill:#a5dcf1; stroke:none;" d="M126 362L127 363L126 362z"/>
<path style="fill:#979696; stroke:none;" d="M138 362L139 363L138 362M126 363L127 364L126 363z"/>
<path style="fill:#595959; stroke:none;" d="M137.333 363.667C137.278 363.722 137.222 364.778 137.667 364.333C137.722 364.278 137.778 363.222 137.333 363.667M126 364L127 365L126 364z"/>
<path style="fill:#a5dcf1; stroke:none;" d="M125 365L126 366L125 365z"/>
<path style="fill:#979696; stroke:none;" d="M137 365L138 366L137 365M125 366L126 367L125 366z"/>
<path style="fill:#595959; stroke:none;" d="M136.333 366.667C136.278 366.722 136.222 367.778 136.667 367.333C136.722 367.278 136.778 366.222 136.333 366.667M125 367L126 368L125 367z"/>
<path style="fill:#a5dcf1; stroke:none;" d="M124 368L125 369L124 368z"/>
<path style="fill:#979696; stroke:none;" d="M124 369L125 370L124 369z"/>
<path style="fill:#595959; stroke:none;" d="M135 369L136 370L135 369M124 370L125 371L124 370z"/>
<path style="fill:#979696; stroke:none;" d="M135 370L136 371L135 370z"/>
<path style="fill:#a5dcf1; stroke:none;" d="M123 371L124 372L123 371z"/>
<path style="fill:#979696; stroke:none;" d="M123 372L124 373L123 372z"/>
<path style="fill:#595959; stroke:none;" d="M134 372L135 373L134 372z"/>
<path style="fill:#979696; stroke:none;" d="M110 373L111 374L110 373z"/>
<path style="fill:#595959; stroke:none;" d="M111 373L112 374L111 373z"/>
<path style="fill:#a5dcf1; stroke:none;" d="M112.333 373.667C112.278 373.722 112.222 374.778 112.667 374.333C112.722 374.278 112.778 373.222 112.333 373.667z"/>
<path style="fill:#979696; stroke:none;" d="M134 373L135 374L134 373M108 374L109 375L108 374z"/>
<path style="fill:#595959; stroke:none;" d="M109 374L110 375L109 374z"/>
<path style="fill:#a5dcf1; stroke:none;" d="M122 374L123 375L122 374z"/>
<path style="fill:#979696; stroke:none;" d="M106 375L107 376L106 375z"/>
<path style="fill:#595959; stroke:none;" d="M107 375L108 376L107 375z"/>
<path style="fill:#979696; stroke:none;" d="M122 375L123 376L122 375z"/>
<path style="fill:#595959; stroke:none;" d="M133 375L134 376L133 375z"/>
<path style="fill:#979696; stroke:none;" d="M104 376L105 377L104 376z"/>
<path style="fill:#595959; stroke:none;" d="M105 376L106 377L105 376z"/>
<path style="fill:#979696; stroke:none;" d="M111 376L112 377L111 376M133 376L134 377L133 376M102 377L103 378L102 377z"/>
<path style="fill:#595959; stroke:none;" d="M103 377L104 378L103 377z"/>
<path style="fill:#979696; stroke:none;" d="M121 377L122 378L121 377M100 378L101 379L100 378z"/>
<path style="fill:#595959; stroke:none;" d="M101 378L102 379L101 378M110 378L111 379L110 378M121 378L122 379L121 378M132 378L133 379L132 378M99 379L100 380L99 379z"/>
<path style="fill:#979696; stroke:none;" d="M110 379L111 380L110 379M132 379L133 380L132 379M98 380L99 381L98 380M120 380L121 381L120 380z"/>
<path style="fill:#595959; stroke:none;" d="M98 381L99 382L98 381M109 381L110 382L109 381M120 381L121 382L120 381M131 381L132 382L131 381z"/>
<path style="fill:#a5dcf1; stroke:none;" d="M97 382L98 383L97 382z"/>
<path style="fill:#979696; stroke:none;" d="M109 382L110 383L109 382M131 382L132 383L131 382M97 383L98 384L97 383z"/>
<path style="fill:#595959; stroke:none;" d="M108.333 383.667C108.278 383.722 108.222 384.778 108.667 384.333C108.722 384.278 108.778 383.222 108.333 383.667z"/>
<path style="fill:#979696; stroke:none;" d="M119 383L120 384L119 383z"/>
<path style="fill:#595959; stroke:none;" d="M119 384L120 385L119 384M130 384L131 385L130 384z"/>
<path style="fill:#979696; stroke:none;" d="M96 385L97 386L96 385M108 385L109 386L108 385M130 385L131 386L130 385z"/>
<path style="fill:#595959; stroke:none;" d="M96 386L97 387L96 386M107 386L108 387L107 386z"/>
<path style="fill:#979696; stroke:none;" d="M118 386L119 387L118 386M107 387L108 388L107 387z"/>
<path style="fill:#595959; stroke:none;" d="M118 387L119 388L118 387M129 387L130 388L129 387z"/>
<path style="fill:#979696; stroke:none;" d="M95 388L96 389L95 388z"/>
<path style="fill:#a5dcf1; stroke:none;" d="M117 388L118 389L117 388z"/>
<path style="fill:#979696; stroke:none;" d="M129 388L130 389L129 388z"/>
<path style="fill:#595959; stroke:none;" d="M95 389L96 390L95 389M106 389L107 390L106 389z"/>
<path style="fill:#979696; stroke:none;" d="M117 389L118 390L117 389z"/>
<path style="fill:#595959; stroke:none;" d="M128.333 389.667C128.278 389.722 128.222 390.778 128.667 390.333C128.722 390.278 128.778 389.222 128.333 389.667z"/>
<path style="fill:#979696; stroke:none;" d="M106 390L107 391L106 390z"/>
<path style="fill:#595959; stroke:none;" d="M117 390L118 391L117 390z"/>
<path style="fill:#979696; stroke:none;" d="M94 391L95 392L94 391z"/>
<path style="fill:#a5dcf1; stroke:none;" d="M116 391L117 392L116 391z"/>
<path style="fill:#595959; stroke:none;" d="M94 392L95 393L94 392M105 392L106 393L105 392z"/>
<path style="fill:#979696; stroke:none;" d="M116 392L117 393L116 392z"/>
<path style="fill:#595959; stroke:none;" d="M127 392L128 393L127 392z"/>
<path style="fill:#a5dcf1; stroke:none;" d="M93.3333 393.667C93.2778 393.722 93.2222 394.778 93.6667 394.333C93.7222 394.278 93.7778 393.222 93.3333 393.667z"/>
<path style="fill:#979696; stroke:none;" d="M105 393L106 394L105 393M127 393L128 394L127 393z"/>
<path style="fill:#a5dcf1; stroke:none;" d="M115 394L116 395L115 394z"/>
<path style="fill:#979696; stroke:none;" d="M93 395L93 400C93.8299 397.97 93.8299 397.03 93 395z"/>
<path style="fill:#595959; stroke:none;" d="M104 395L105 396L104 395z"/>
<path style="fill:#979696; stroke:none;" d="M115 395L116 396L115 395z"/>
<path style="fill:#595959; stroke:none;" d="M126 395L127 396L126 395z"/>
<path style="fill:#979696; stroke:none;" d="M104 396L104 399C104.696 397.446 104.696 397.554 104 396z"/>
<path style="fill:#595959; stroke:none;" d="M115 396L116 397L115 396z"/>
<path style="fill:#979696; stroke:none;" d="M126 396L127 397L126 396z"/>
<path style="fill:#a5dcf1; stroke:none;" d="M114 397L115 398L114 397z"/>
<path style="fill:#979696; stroke:none;" d="M114 398L115 399L114 398z"/>
<path style="fill:#595959; stroke:none;" d="M125 398L126 399L125 398M104 399L105 400L104 399M114 399L115 400L114 399z"/>
<path style="fill:#979696; stroke:none;" d="M125 399L126 400L125 399M105 400C105.545 401.635 105.365 401.455 107 402C106.455 400.365 106.635 400.545 105 400M113 400L112 402C113.263 401.029 113.392 401.306 113 400z"/>
<path style="fill:#595959; stroke:none;" d="M124 401L125 402L124 401M94 402L95 403L94 402M107 402L108 403L107 402z"/>
<path style="fill:#979696; stroke:none;" d="M108 402C109.248 402.685 109.548 402.749 111 403C109.752 402.315 109.452 402.251 108 402z"/>
<path style="fill:#595959; stroke:none;" d="M111 402L112 403L111 402z"/>
<path style="fill:#979696; stroke:none;" d="M124 402L125 403L124 402z"/>
<path style="fill:#a5dcf1; stroke:none;" d="M94 403L95 404L94 403z"/>
<path style="fill:#595959; stroke:none;" d="M123 403L124 404L123 403M95 404L96 405L95 404z"/>
<path style="fill:#979696; stroke:none;" d="M123 404L124 405L123 404z"/>
<path style="fill:#a5dcf1; stroke:none;" d="M95 405L96 406L95 405z"/>
<path style="fill:#595959; stroke:none;" d="M122 405L123 406L122 405z"/>
<path style="fill:#979696; stroke:none;" d="M96 406L97 407L96 406M122 406L118 411C120.089 409.444 121.403 408.512 122 406z"/>
<path style="fill:#595959; stroke:none;" d="M97 407C98.1034 408.457 98.5434 408.897 100 410C98.8966 408.543 98.4566 408.103 97 407z"/>
<path style="fill:#979696; stroke:none;" d="M100 410L101 411L100 410z"/>
<path style="fill:#595959; stroke:none;" d="M117 410L118 411L117 410z"/>
<path style="fill:#979696; stroke:none;" d="M102 411L103 412L102 411z"/>
<path style="fill:#595959; stroke:none;" d="M115 411L116 412L115 411z"/>
<path style="fill:#979696; stroke:none;" d="M116 411L117 412L116 411M104.667 412.333C104.222 412.778 105.278 412.722 105.333 412.667C105.778 412.222 104.722 412.278 104.667 412.333z"/>
<path style="fill:#595959; stroke:none;" d="M112 412L113 413L112 412z"/>
<path style="fill:#979696; stroke:none;" d="M113 412L114 413L113 412z"/>
</svg>
