<?xml version="1.0" encoding="utf-8"?>
<!-- Generator: Adobe Illustrator 16.0.0, SVG Export Plug-In . SVG Version: 6.00 Build 0)  -->
<!DOCTYPE svg PUBLIC "-//W3C//DTD SVG 1.1//EN" "http://www.w3.org/Graphics/SVG/1.1/DTD/svg11.dtd">
<svg version="1.1" id="Calque_1" xmlns="http://www.w3.org/2000/svg" xmlns:xlink="http://www.w3.org/1999/xlink" x="0px" y="0px"
	 width="182.135px" height="189.865px" viewBox="0 0 182.135 189.865" enable-background="new 0 0 182.135 189.865"
	 xml:space="preserve">
<g>
	<path fill="#40A0BE" d="M31.222,132.023c-3.291,5.363-1.613,12.365,3.75,15.656c5.362,3.291,12.364,1.615,15.655-3.748
		s2.204-25.359,2.204-25.359S34.513,126.66,31.222,132.023z"/>
</g>
<g>
	<path fill="#40A0BE" d="M68.222,132.023c-3.291,5.363-1.613,12.365,3.75,15.656c5.362,3.291,12.364,1.615,15.655-3.748
		s2.204-25.359,2.204-25.359S71.513,126.66,68.222,132.023z"/>
</g>
<g>
	<path fill="#40A0BE" d="M105.222,132.023c-3.291,5.363-1.613,12.365,3.75,15.656c5.362,3.291,12.364,1.615,15.655-3.748
		s2.204-25.359,2.204-25.359S108.513,126.66,105.222,132.023z"/>
</g>
<g>
	<path fill="#40A0BE" d="M41.722,172.523c-3.291,5.363-1.613,12.365,3.75,15.656c5.362,3.291,12.364,1.615,15.655-3.748
		s2.204-25.359,2.204-25.359S45.013,167.16,41.722,172.523z"/>
</g>
<g>
	<path fill="#40A0BE" d="M78.722,172.523c-3.291,5.363-1.613,12.365,3.75,15.656c5.362,3.291,12.364,1.615,15.655-3.748
		s2.204-25.359,2.204-25.359S82.013,167.16,78.722,172.523z"/>
</g>
<g>
	<path fill="#C7C6C6" d="M142.293,22.767c-1.89,0-3.757,0.134-5.618,0.4C126.048,8.686,109.276,0,91.068,0
		C72.859,0,56.095,8.686,45.46,23.167c-1.859-0.268-3.728-0.4-5.618-0.4C17.875,22.767,0,40.642,0,62.609
		c0,21.967,17.875,39.841,39.842,39.841c4.869,0,9.636-0.889,14.126-2.609c10.301,8.982,23.404,13.992,37.101,13.992
		c13.71,0,26.798-5.01,37.099-13.992c4.491,1.719,9.257,2.609,14.126,2.609c21.966,0,39.842-17.875,39.842-39.841
		S164.259,22.767,142.293,22.767z M142.293,91.066c-6.092,0-11.709-1.956-16.341-5.217c-8.352,10.064-20.788,16.601-34.884,16.601
		S64.536,95.914,56.185,85.85c-4.624,3.261-10.249,5.217-16.342,5.217c-15.719,0-28.457-12.74-28.457-28.458
		c0-15.719,12.738-28.458,28.457-28.458c3.847,0,7.493,0.785,10.827,2.164c7.553-14.732,22.716-24.931,40.398-24.931
		s32.846,10.198,40.39,24.931c3.344-1.378,6.996-2.164,10.835-2.164c15.72,0,28.458,12.74,28.458,28.458
		C170.751,78.328,158.013,91.066,142.293,91.066z"/>
</g>
</svg>
