<?xml version="1.0" encoding="utf-8"?>
<!-- Generator: Adobe Illustrator 16.0.0, SVG Export Plug-In . SVG Version: 6.00 Build 0)  -->
<!DOCTYPE svg PUBLIC "-//W3C//DTD SVG 1.1//EN" "http://www.w3.org/Graphics/SVG/1.1/DTD/svg11.dtd">
<svg version="1.1" id="Calque_1" xmlns="http://www.w3.org/2000/svg" xmlns:xlink="http://www.w3.org/1999/xlink" x="0px" y="0px"
	 width="182.135px" height="165.199px" viewBox="0 0 182.135 165.199" enable-background="new 0 0 182.135 165.199"
	 xml:space="preserve">
<g>
	<path fill="#C7C6C6" d="M142.293,22.768c-1.89,0-3.757,0.134-5.618,0.4C126.048,8.687,109.276,0,91.068,0
		C72.859,0,56.095,8.687,45.46,23.168c-1.859-0.268-3.728-0.4-5.618-0.4C17.875,22.768,0,40.643,0,62.609
		c0,21.966,17.875,39.841,39.842,39.841c4.869,0,9.636-0.889,14.126-2.607c10.301,8.98,23.404,13.992,37.101,13.992
		c13.71,0,26.798-5.012,37.099-13.992c4.491,1.719,9.257,2.607,14.126,2.607c21.966,0,39.842-17.875,39.842-39.841
		C182.135,40.644,164.259,22.768,142.293,22.768z M142.293,91.068c-6.092,0-11.709-1.955-16.341-5.217
		c-8.352,10.064-20.788,16.602-34.884,16.602s-26.532-6.537-34.884-16.602c-4.624,3.262-10.249,5.217-16.342,5.217
		c-15.719,0-28.457-12.74-28.457-28.458c0-15.719,12.738-28.458,28.457-28.458c3.847,0,7.493,0.785,10.827,2.164
		c7.553-14.732,22.716-24.931,40.398-24.931s32.846,10.198,40.39,24.931c3.344-1.378,6.996-2.164,10.835-2.164
		c15.72,0,28.458,12.74,28.458,28.458S158.013,91.068,142.293,91.068z"/>
</g>
<g>
	<path fill="#40A0BE" d="M28.222,147.857c-3.291,5.363-1.613,12.365,3.75,15.656c5.362,3.291,12.364,1.615,15.655-3.748
		s2.205-25.359,2.205-25.359S31.513,142.494,28.222,147.857z"/>
</g>
<g>
	<path fill="#40A0BE" d="M73.722,133.857c-3.291,5.363-1.613,12.365,3.75,15.656c5.362,3.291,12.364,1.615,15.655-3.748
		s2.204-25.359,2.204-25.359S77.013,128.494,73.722,133.857z"/>
</g>
</svg>
