<?xml version="1.0" encoding="utf-8"?>
<!-- Generator: Adobe Illustrator 16.0.0, SVG Export Plug-In . SVG Version: 6.00 Build 0)  -->
<!DOCTYPE svg PUBLIC "-//W3C//DTD SVG 1.1//EN" "http://www.w3.org/Graphics/SVG/1.1/DTD/svg11.dtd">
<svg version="1.1" id="Calque_1" xmlns="http://www.w3.org/2000/svg" xmlns:xlink="http://www.w3.org/1999/xlink" x="0px" y="0px"
	 width="199.768px" height="241.583px" viewBox="0 0 199.768 241.583" enable-background="new 0 0 199.768 241.583"
	 xml:space="preserve">
<g>
	<g>
		<g>
			<path fill="#F4A634" d="M125.775,34.148c-21.966,0-39.842,17.875-39.842,39.842s17.875,39.842,39.842,39.842
				s39.842-17.875,39.842-39.842S147.742,34.148,125.775,34.148z M125.775,102.449c-15.719,0-28.458-12.74-28.458-28.457
				c0-15.719,12.739-28.459,28.458-28.459s28.458,12.74,28.458,28.459C154.233,89.709,141.494,102.449,125.775,102.449z"/>
		</g>
		<g>
			<g>
				<path fill="#F4A634" d="M125.775,0c-3.143,0-5.692,2.549-5.692,5.69v11.383c0,3.144,2.55,5.692,5.692,5.692
					c3.142,0,5.691-2.549,5.691-5.692V5.69C131.467,2.549,128.917,0,125.775,0z"/>
			</g>
			<g>
				<path fill="#F4A634" d="M125.775,125.215c-3.143,0-5.692,2.549-5.692,5.691v11.383c0,3.143,2.55,5.693,5.692,5.693
					c3.142,0,5.691-2.551,5.691-5.693v-11.383C131.467,127.766,128.917,125.215,125.775,125.215z"/>
			</g>
		</g>
		<g>
			<g>
				<path fill="#F4A634" d="M178.09,21.668c-2.223-2.223-5.824-2.223-8.048,0l-8.048,8.049c-2.223,2.224-2.223,5.826,0,8.049
					c2.225,2.223,5.825,2.223,8.048,0l8.048-8.049C180.313,27.494,180.313,23.893,178.09,21.668z"/>
			</g>
			<g>
				<path fill="#F4A634" d="M89.559,110.215c-2.225-2.223-5.825-2.229-8.049,0l-8.048,8.049c-2.223,2.224-2.223,5.827,0,8.049
					c2.224,2.223,5.825,2.223,8.048,0l8.049-8.049C91.781,116.033,91.781,112.439,89.559,110.215z"/>
			</g>
		</g>
		<g>
			<g>
				<path fill="#F4A634" d="M51.783,73.99c0,3.143,2.549,5.692,5.692,5.692h11.383c3.142,0,5.692-2.55,5.692-5.692
					c0-3.142-2.551-5.691-5.692-5.691H57.476C54.333,68.299,51.783,70.849,51.783,73.99z"/>
			</g>
			<g>
				<path fill="#F4A634" d="M177,73.99c0,3.143,2.549,5.692,5.692,5.692h11.383c3.142,0,5.692-2.55,5.692-5.692
					c0-3.142-2.549-5.691-5.692-5.691h-11.383C179.55,68.299,177,70.849,177,73.99z"/>
			</g>
		</g>
		<g>
			<g>
				<path fill="#F4A634" d="M73.453,21.668c-2.223,2.225-2.223,5.826,0,8.049l8.048,8.049c2.224,2.223,5.825,2.223,8.048,0
					c2.225-2.224,2.225-5.826,0-8.049l-8.048-8.049C79.278,19.445,75.677,19.445,73.453,21.668z"/>
			</g>
			<g>
				<path fill="#F4A634" d="M162.001,110.209c-2.224,2.224-2.23,5.824,0,8.047l8.048,8.049c2.224,2.223,5.825,2.223,8.049,0
					c2.223-2.225,2.223-5.827,0-8.049l-8.049-8.047C167.818,107.985,164.225,107.985,162.001,110.209z"/>
			</g>
		</g>
	</g>
	<g>
		<g>
			<path fill="#FFFFFF" d="M142.294,71.57c-1.89,0-3.757,0.133-5.618,0.4c-10.627-14.481-27.398-23.168-45.607-23.168
				S56.095,57.489,45.46,71.971c-1.86-0.268-3.728-0.4-5.618-0.4C17.875,71.57,0,89.445,0,111.412
				c0,21.965,17.875,39.842,39.842,39.842c4.869,0,9.635-0.891,14.125-2.609c10.301,8.982,23.404,13.992,37.101,13.992
				c13.711,0,26.798-5.01,37.1-13.992c4.491,1.719,9.256,2.609,14.126,2.609c21.966,0,39.842-17.875,39.842-39.842
				C182.136,89.445,164.261,71.57,142.294,71.57z"/>
		</g>
		<g>
			<path fill="#C7C6C6" d="M142.294,71.57c-1.89,0-3.757,0.133-5.618,0.4c-10.627-14.481-27.398-23.168-45.607-23.168
				S56.095,57.489,45.46,71.971c-1.86-0.268-3.728-0.4-5.618-0.4C17.875,71.57,0,89.445,0,111.412
				c0,21.965,17.875,39.842,39.842,39.842c4.869,0,9.635-0.891,14.125-2.609c10.301,8.982,23.404,13.992,37.101,13.992
				c13.711,0,26.798-5.01,37.1-13.992c4.491,1.719,9.256,2.609,14.126,2.609c21.966,0,39.842-17.875,39.842-39.842
				C182.136,89.445,164.261,71.57,142.294,71.57z M142.294,139.872c-6.092,0-11.709-1.957-16.341-5.217
				c-8.352,10.063-20.788,16.6-34.884,16.6c-14.097,0-26.532-6.537-34.884-16.6c-4.624,3.26-10.249,5.217-16.342,5.217
				c-15.719,0-28.457-12.74-28.457-28.459c0-15.719,12.739-28.457,28.457-28.457c3.847,0,7.492,0.785,10.827,2.164
				c7.553-14.733,22.716-24.932,40.398-24.932s32.846,10.198,40.39,24.932c3.344-1.379,6.996-2.164,10.835-2.164
				c15.72,0,28.458,12.738,28.458,28.457C170.753,127.131,158.014,139.872,142.294,139.872z"/>
		</g>
	</g>
	<g>
		<path fill="#40A0BE" d="M30.223,183.743c-3.291,5.363-1.613,12.365,3.75,15.656c5.362,3.291,12.364,1.613,15.655-3.75
			c3.291-5.361,2.204-25.357,2.204-25.357S33.514,178.379,30.223,183.743z"/>
	</g>
	<g>
		<path fill="#40A0BE" d="M67.223,183.743c-3.291,5.363-1.613,12.365,3.75,15.656c5.362,3.291,12.364,1.613,15.655-3.75
			c3.291-5.361,2.204-25.357,2.204-25.357S70.514,178.379,67.223,183.743z"/>
	</g>
	<g>
		<path fill="#40A0BE" d="M104.223,183.743c-3.291,5.363-1.613,12.365,3.75,15.656c5.362,3.291,12.364,1.613,15.655-3.75
			c3.291-5.361,2.204-25.357,2.204-25.357S107.514,178.379,104.223,183.743z"/>
	</g>
	<g>
		<path fill="#40A0BE" d="M40.723,224.243c-3.291,5.363-1.613,12.365,3.75,15.656c5.362,3.291,12.364,1.613,15.655-3.75
			c3.291-5.361,2.204-25.357,2.204-25.357S44.014,218.879,40.723,224.243z"/>
	</g>
	<g>
		<path fill="#40A0BE" d="M77.723,224.243c-3.291,5.363-1.613,12.365,3.75,15.656c5.362,3.291,12.364,1.613,15.655-3.75
			c3.291-5.361,2.204-25.357,2.204-25.357S81.014,218.879,77.723,224.243z"/>
	</g>
</g>
</svg>
