<?xml version="1.0" encoding="UTF-8" standalone="no"?>
<svg xmlns:dc="http://purl.org/dc/elements/1.1/" xmlns:cc="http://creativecommons.org/ns#" xmlns:rdf="http://www.w3.org/1999/02/22-rdf-syntax-ns#" xmlns:svg="http://www.w3.org/2000/svg" xmlns="http://www.w3.org/2000/svg" version="1.1" width="50" height="50" viewBox="0 0 50 50" id="svg983">
  <metadata id="metadata19">
    <rdf:RDF>
      <cc:Work rdf:about="">
        <dc:format>image/svg+xml</dc:format>
        <dc:type rdf:resource="http://purl.org/dc/dcmitype/StillImage"/>
        <dc:title/>
      </cc:Work>
    </rdf:RDF>
  </metadata>
  <defs id="defs17"/>
  <path style="fill:#89cbd9;fill-opacity:1;stroke:#3a8bf2;stroke-width:1;stroke-miterlimit:4;stroke-dasharray:none;stroke-opacity:1" d="m 29.60236,34.104861 c 0.432954,-0.552042 0.880199,-1.122608 1.241169,-1.734988 0.09527,-0.161431 0.36097,-0.161431 0.455712,0 0.3615,0.61238 0.808744,1.182946 1.241697,1.734988 0.877551,1.119434 1.706408,2.17694 1.706408,3.427635 0,1.751397 -1.4243,3.175696 -3.175697,3.175696 -1.751396,0 -3.175695,-1.424299 -3.175695,-3.175696 0,-1.250695 0.828856,-2.308201 1.706406,-3.427635 z" class="drop" id="path7209"/>
  <path style="fill:#89cbd9;fill-opacity:1;stroke:#3a8bf2;stroke-width:1;stroke-miterlimit:4;stroke-dasharray:none;stroke-opacity:1" d="m 18.862717,35.165635 c 0.432954,-0.552042 0.880199,-1.122608 1.241169,-1.734988 0.09527,-0.161431 0.36097,-0.161431 0.455712,0 0.3615,0.61238 0.808744,1.182946 1.241697,1.734988 0.877551,1.119434 1.706408,2.17694 1.706408,3.427635 0,1.751397 -1.4243,3.175696 -3.175697,3.175696 -1.751396,0 -3.175695,-1.424299 -3.175695,-3.175696 0,-1.250695 0.828856,-2.308201 1.706406,-3.427635 z" class="drop" id="path7211"/>
  <path style="fill:#89cbd9;fill-opacity:1;stroke:#3a8bf2;stroke-width:1;stroke-miterlimit:4;stroke-dasharray:none;stroke-opacity:1" d="m 13.443826,27.433118 c 0.432954,-0.552042 0.880199,-1.122608 1.241169,-1.734988 0.09527,-0.161431 0.36097,-0.161431 0.455712,0 0.3615,0.61238 0.808744,1.182946 1.241697,1.734988 0.877551,1.119434 1.706408,2.17694 1.706408,3.427635 0,1.751397 -1.4243,3.175696 -3.175697,3.175696 -1.751396,0 -3.175695,-1.424299 -3.175695,-3.175696 0,-1.250695 0.828856,-2.308201 1.706406,-3.427635 z" class="drop" id="path7213"/>
  <path style="fill:#89cbd9;fill-opacity:1;stroke:#3a8bf2;stroke-width:1;stroke-miterlimit:4;stroke-dasharray:none;stroke-opacity:1" d="m 36.784948,42.96537 c 0.432954,-0.552042 0.880199,-1.122608 1.241169,-1.734988 0.09527,-0.161431 0.36097,-0.161431 0.455712,0 0.3615,0.61238 0.808744,1.182946 1.241697,1.734988 0.877551,1.119434 1.706408,2.17694 1.706408,3.427635 0,1.751397 -1.4243,3.175696 -3.175697,3.175696 -1.751396,0 -3.175695,-1.424299 -3.175695,-3.175696 0,-1.250695 0.828856,-2.308201 1.706406,-3.427635 z" class="drop" id="path7215"/>
  <path style="fill:#89cbd9;fill-opacity:1;stroke:#3a8bf2;stroke-width:1;stroke-miterlimit:4;stroke-dasharray:none;stroke-opacity:1" d="m 12.208676,42.541641 c 0.432954,-0.552042 0.880199,-1.122608 1.241169,-1.734988 0.09527,-0.161431 0.36097,-0.161431 0.455712,0 0.3615,0.61238 0.808744,1.182946 1.241697,1.734988 0.877551,1.119434 1.706408,2.17694 1.706408,3.427635 0,1.751397 -1.4243,3.175696 -3.175697,3.175696 -1.751396,0 -3.175695,-1.424299 -3.175695,-3.175696 0,-1.250695 0.828856,-2.308201 1.706406,-3.427635 z" class="drop" id="path7217"/>
  <path style="fill:#89cbd9;fill-opacity:1;stroke:#3a8bf2;stroke-width:0.97902906;stroke-miterlimit:4;stroke-dasharray:none;stroke-opacity:1" d="m 26.544637,43.177235 c 0.414985,-0.552042 0.843668,-1.122608 1.189657,-1.734988 0.09132,-0.161431 0.345989,-0.161431 0.436799,0 0.346497,0.61238 0.77518,1.182946 1.190164,1.734988 0.841131,1.119434 1.635589,2.17694 1.635589,3.427635 0,1.751397 -1.365189,3.175696 -3.043899,3.175696 -1.678709,0 -3.043897,-1.424299 -3.043897,-3.175696 0,-1.250695 0.794457,-2.308201 1.635587,-3.427635 z" class="drop" id="path7219"/>
  <path style="fill:#89cbd9;fill-opacity:1;stroke:#3a8bf2;stroke-width:1;stroke-miterlimit:4;stroke-dasharray:none;stroke-opacity:1" d="m 4.3696933,36.821303 c 0.432954,-0.552042 0.880199,-1.122609 1.241169,-1.734989 0.09527,-0.16143 0.36097,-0.16143 0.455712,0 0.3615,0.61238 0.808744,1.182947 1.241697,1.734989 0.877551,1.119434 1.706408,2.17694 1.706408,3.427635 0,1.751397 -1.4243,3.175696 -3.175697,3.175696 -1.751396,0 -3.175695,-1.424299 -3.175695,-3.175696 0,-1.250695 0.828856,-2.308201 1.706406,-3.427635 z" class="drop" id="path7221"/>
  <path style="fill:#89cbd9;fill-opacity:1;stroke:#3a8bf2;stroke-width:1;stroke-miterlimit:4;stroke-dasharray:none;stroke-opacity:1" d="m 5.9459644,23.270456 c 0.432954,-0.552042 0.880199,-1.122608 1.241169,-1.734988 0.09527,-0.161431 0.36097,-0.161431 0.455712,0 0.3615,0.61238 0.808744,1.182946 1.241697,1.734988 0.877551,1.119433 1.7064076,2.176939 1.7064076,3.427634 0,1.751397 -1.4242996,3.175696 -3.1756966,3.175696 -1.751396,0 -3.175695,-1.424299 -3.175695,-3.175696 0,-1.250695 0.828856,-2.308201 1.706406,-3.427634 z" class="drop" id="path7223"/>
  <path style="fill:#89cbd9;fill-opacity:1;stroke:#3a8bf2;stroke-width:1;stroke-miterlimit:4;stroke-dasharray:none;stroke-opacity:1" d="m 43.776473,38.304353 c 0.432954,-0.552042 0.880199,-1.122608 1.241169,-1.734988 0.09527,-0.161431 0.36097,-0.161431 0.455712,0 0.3615,0.61238 0.808744,1.182946 1.241697,1.734988 0.877551,1.119434 1.706408,2.17694 1.706408,3.427635 0,1.751397 -1.4243,3.175696 -3.175697,3.175696 -1.751396,0 -3.175695,-1.424299 -3.175695,-3.175696 0,-1.250695 0.828856,-2.308201 1.706406,-3.427635 z" class="drop" id="path7225"/>
  <g id="cloud-front-top" transform="matrix(1.3888889,0,0,1.4583332,-11.111111,0.13862506)">
    <path id="path9060" style="fill:#4d4d4d;stroke-width:0.73292214" class="contour" d="m 11.849004,10.754475 0.37829,-0.167026 c -0.540202,-1.7948166 -0.361876,-3.7732183 0.50588,-5.5953925 1.49451,-3.137509 4.620074,-5.08711306 8.15825,-5.08711306 0.633469,0 1.290069,0.07847372 1.949653,0.23398128 0.805081,0.19006479 1.592254,0.4924406 2.340628,0.89992808 0.357399,0.1951043 0.703606,0.4132469 1.029667,0.6472282 0.664062,0.4773218 1.259478,1.0316774 1.771327,1.6479481 0.368591,0.4449244 0.687191,0.9078474 0.9461,1.3765299 l 0.176835,0.3196544 c 1.727304,-0.4298056 3.459832,-0.2562995 5.000603,0.4319655 0.823734,0.3678905 1.554946,0.8675305 2.174986,1.4859611 0.32233,0.3196544 0.619292,0.6825054 0.885663,1.0791936 0.568556,0.8480922 0.938639,1.7919367 1.105774,2.8336934 l 0.04477,0.282217 c 1.980244,0.295897 3.230022,1.230382 3.935121,1.973362 1.126664,1.187185 1.74745,2.775378 1.74745,4.472283 0,3.12599 -2.175732,6.290136 -6.333202,6.290136 -1.19904,0 -4.881966,0.0043 -8.961838,0.01008 l -1.924284,0.0022 c -4.90659,0.0072 -9.914655,0.01364 -11.583014,0.01364 -3.505347,0 -6.2578419,-2.135349 -7.0106933,-5.438445 -0.7401666,-3.2491 0.7655357,-6.419726 3.6620353,-7.712023 m 22.124421,2.118071 c -0.118635,-0.199424 -0.06865,-0.449244 0.11789,-0.592513 0.738674,-0.565874 1.584046,-1.007199 2.535369,-1.318214 -0.482003,-2.664507 -2.833824,-4.5802737 -5.660933,-4.5802737 -1.956368,0 -3.966458,1.012959 -5.246827,2.6436285 C 25.576412,9.2058793 25.293627,9.259875 25.092171,9.1439643 24.882507,9.0251738 24.798193,8.773194 24.896683,8.5579312 25.629389,6.9618189 26.865735,5.7695943 27.393253,5.3066713 26.056924,3.0165345 23.465594,1.4888168 20.889933,1.4888168 c -2.888292,0 -5.443061,1.5961123 -6.665978,4.1648667 -1.098311,2.3052556 -0.811795,4.8264935 0.746882,6.5795535 0.555125,0.62347 1.225902,1.138229 1.993675,1.527718 0.209664,0.105111 0.307409,0.340533 0.232048,0.556515 -0.06641,0.188625 -0.247716,0.315335 -0.454396,0.315335 l -0.07834,-0.0065 c -2.550292,-0.405328 -3.844838,-1.87545 -4.270882,-2.358532 -0.0015,-0.0022 -0.003,-0.0036 -0.0053,-0.0058 -2.4324024,1.178546 -3.0584107,3.845212 -2.5980449,5.861771 0.4626049,2.028798 2.1264879,4.195824 5.4072469,4.195824 1.716859,0 6.971894,-0.0072 12.01428,-0.0144 4.646934,-0.0058 9.111811,-0.01224 10.455602,-0.01224 3.080049,0 4.690957,-2.36717 4.690957,-4.705543 0,-1.300216 -0.467082,-2.50828 -1.316184,-3.401728 -0.9655,-1.016559 -2.363759,-1.554356 -4.04331,-1.554356 -0.828957,0 -1.648961,0.149028 -2.435388,0.442045 -0.215634,0.08135 -0.47305,-0.0072 -0.589447,-0.200864"/>
    <path id="path9062" style="fill:#666666;fill-opacity:1;stroke-width:0.73292214" class="inside" d="m 33.973424,12.872546 c -0.118635,-0.199424 -0.06865,-0.449244 0.11789,-0.592513 0.738674,-0.565874 1.584046,-1.007199 2.535369,-1.318214 C 36.14468,8.297312 33.79286,6.3815453 30.965751,6.3815453 c -1.956368,0 -3.966459,1.012959 -5.246828,2.6436285 C 25.576411,9.2058793 25.293626,9.259875 25.092169,9.1439643 24.882505,9.0251738 24.798192,8.773194 24.896681,8.5579312 25.629387,6.9618189 26.865734,5.7695943 27.393252,5.3066713 26.056922,3.0165345 23.465593,1.4888168 20.889931,1.4888168 c -2.888291,0 -5.443061,1.5961123 -6.665977,4.1648667 -1.098312,2.3052556 -0.811796,4.8264935 0.746882,6.5795535 0.555125,0.62347 1.225901,1.138229 1.993675,1.527718 0.209664,0.105111 0.307408,0.340533 0.232048,0.556515 -0.06641,0.188625 -0.247717,0.315335 -0.454396,0.315335 l -0.07835,-0.0065 c -2.550292,-0.405328 -3.844839,-1.87545 -4.270883,-2.358532 -0.0015,-0.0022 -0.003,-0.0036 -0.0053,-0.0058 -2.4324025,1.178546 -3.0584109,3.845212 -2.598045,5.861771 0.462604,2.028798 2.126488,4.195824 5.407248,4.195824 1.716859,0 6.971893,-0.0072 12.01428,-0.0144 4.646934,-0.0058 9.111811,-0.01224 10.455602,-0.01224 3.080049,0 4.690956,-2.36717 4.690956,-4.705543 0,-1.300216 -0.467081,-2.50828 -1.316184,-3.401728 -0.9655,-1.016559 -2.363758,-1.554356 -4.04331,-1.554356 -0.828956,0 -1.64896,0.149028 -2.435387,0.442045 -0.215634,0.08135 -0.473051,-0.0072 -0.589448,-0.200864"/>
  </g>
</svg>