<?xml version="1.0" encoding="UTF-8" ?>
<svg
   xmlns:dc="http://purl.org/dc/elements/1.1/"
   xmlns:cc="http://creativecommons.org/ns#"
   xmlns:rdf="http://www.w3.org/1999/02/22-rdf-syntax-ns#"
   xmlns:svg="http://www.w3.org/2000/svg"
   xmlns="http://www.w3.org/2000/svg"
   version="1.1"
   width="50"
   height="50"
   viewBox="0 0 50 50"
   id="svg983">
  <path
     class="drop"
     style="fill:#9ddcd9;fill-opacity:1;stroke:#2979db;stroke-width:0.31021401;stroke-miterlimit:4;stroke-dasharray:none;stroke-opacity:1"
     id="drop-left"
     d="m 22.114056,44.049247 -1.124711,-0.568216 0.974668,-0.502912 c 0.179769,-0.09276 0.239575,-0.295474 0.133568,-0.452785 -0.106007,-0.157265 -0.337621,-0.209596 -0.517439,-0.116876 l -1.342622,0.692758 -2.024359,-1.022758 2.024007,-1.022586 1.343024,0.692672 c 0.06021,0.03111 0.12631,0.0458 0.191507,0.0458 0.129386,0 0.255396,-0.0582 0.325882,-0.162819 0.105952,-0.157304 0.0461,-0.360022 -0.133668,-0.452784 l -0.974821,-0.502738 1.124964,-0.568344 c 0.180726,-0.09129 0.242648,-0.293536 0.138302,-0.451681 -0.104349,-0.158188 -0.335453,-0.212377 -0.516179,-0.121025 l -1.124711,0.568255 -0.01026,-0.990264 c -0.0019,-0.182614 -0.173066,-0.33018 -0.381251,-0.327668 -0.208689,0.0017 -0.376366,0.151002 -0.374451,0.333624 l 0.01406,1.364128 -2.024259,1.022713 V 39.46049 l 1.357181,-0.671203 c 0.181683,-0.08985 0.245721,-0.291551 0.143038,-0.450579 -0.10268,-0.158983 -0.333236,-0.215064 -0.51492,-0.125164 l -0.985295,0.487303 v -1.136595 c 0,-0.182608 -0.169189,-0.330662 -0.377879,-0.330662 -0.208684,0 -0.377871,0.148054 -0.377871,0.330662 v 1.136595 l -0.985299,-0.487266 c -0.18179,-0.0899 -0.412195,-0.03383 -0.514924,0.12517 -0.10268,0.158982 -0.03867,0.360732 0.143036,0.450586 l 1.357135,0.671196 v 2.045205 l -2.024262,-1.022713 0.01406,-1.364128 c 0.002,-0.182622 -0.165765,-0.331987 -0.374455,-0.333624 -0.0013,0 -0.002,0 -0.0033,0 -0.207071,0 -0.375906,0.14607 -0.377777,0.32771 l -0.01026,0.990222 -1.124712,-0.568255 c -0.180721,-0.09135 -0.411835,-0.03709 -0.516171,0.121025 -0.104349,0.158146 -0.04238,0.360377 0.1383,0.451681 l 1.124911,0.568344 -0.974972,0.502825 c -0.179773,0.09271 -0.239624,0.295433 -0.13367,0.452785 0.07049,0.104624 0.196501,0.162818 0.325932,0.162818 0.0652,0 0.13125,-0.0148 0.191513,-0.0458 l 1.343172,-0.692676 2.024056,1.022585 -2.024407,1.022758 -1.342821,-0.692891 c -0.179674,-0.09271 -0.411432,-0.04044 -0.517445,0.116882 -0.106007,0.157304 -0.04622,0.360018 0.133571,0.452738 l 0.974819,0.502959 -1.124712,0.568209 c -0.180721,0.0913 -0.242648,0.293543 -0.138307,0.451682 0.06998,0.106076 0.197004,0.165372 0.327597,0.165372 0.06408,0 0.129081,-0.01428 0.188588,-0.04434 l 1.124712,-0.568249 0.01026,0.990309 c 0.002,0.1816 0.1707,0.327709 0.377772,0.327709 0.0013,0 0.002,0 0.0033,-4.6e-5 0.208683,-0.0017 0.376366,-0.151002 0.374449,-0.333617 l -0.01406,-1.364176 2.024307,-1.022712 v 2.045298 l -1.357127,0.671196 c -0.181684,0.08985 -0.245727,0.291557 -0.143042,0.450579 0.06948,0.107579 0.197507,0.168019 0.329307,0.168019 0.06302,0 0.126866,-0.01381 0.185617,-0.04283 l 0.985299,-0.487265 v 1.136594 c 0,0.182614 0.169187,0.330663 0.377877,0.330663 0.208684,0 0.377878,-0.148049 0.377878,-0.330663 v -1.136594 l 0.985297,0.487265 c 0.05875,0.02908 0.122583,0.04283 0.185612,0.04283 0.131804,0 0.259829,-0.06044 0.329308,-0.168019 0.10268,-0.158981 0.03865,-0.360731 -0.143039,-0.450579 l -1.357178,-0.671196 v -2.045258 l 2.024255,1.022672 -0.01441,1.364136 c -0.002,0.182615 0.165661,0.332026 0.37435,0.333703 0.0012,4.7e-5 0.0024,4.7e-5 0.0036,4.7e-5 0.207026,0 0.375862,-0.146069 0.377777,-0.327622 l 0.01047,-0.990443 1.124864,0.568296 c 0.05951,0.03006 0.124497,0.04434 0.188587,0.04434 0.130593,0 0.25761,-0.05934 0.327592,-0.165373 0.104349,-0.158145 0.04243,-0.360377 -0.138353,-0.451681 z" />
  <path
     class="drop"
     style="fill:#9ddcd9;fill-opacity:1;stroke:#2979db;stroke-width:0.31021401;stroke-miterlimit:4;stroke-dasharray:none;stroke-opacity:1"
     id="drop-middle"
     d="M 35.110943,47.268272 33.986232,46.700056 34.9609,46.197144 c 0.179769,-0.09276 0.239575,-0.295474 0.133568,-0.452785 -0.106007,-0.157265 -0.337621,-0.209596 -0.517439,-0.116876 l -1.342622,0.692758 -2.024359,-1.022758 2.024007,-1.022586 1.343024,0.692672 c 0.06021,0.03111 0.12631,0.0458 0.191507,0.0458 0.129386,0 0.255396,-0.0582 0.325882,-0.162819 0.105952,-0.157304 0.0461,-0.360022 -0.133668,-0.452784 l -0.974821,-0.502738 1.124964,-0.568344 c 0.180726,-0.09129 0.242648,-0.293536 0.138302,-0.451681 -0.104349,-0.158188 -0.335453,-0.212377 -0.516179,-0.121025 l -1.124711,0.568255 -0.01026,-0.990264 c -0.0019,-0.182614 -0.173066,-0.33018 -0.381251,-0.327668 -0.208689,0.0017 -0.376366,0.151002 -0.374451,0.333624 l 0.01406,1.364128 -2.024259,1.022713 v -2.045251 l 1.357181,-0.671203 c 0.181683,-0.08985 0.245721,-0.291551 0.143038,-0.450579 -0.10268,-0.158983 -0.333236,-0.215064 -0.51492,-0.125164 l -0.985295,0.487303 v -1.136595 c 0,-0.182608 -0.169189,-0.330662 -0.377879,-0.330662 -0.208684,0 -0.377871,0.148054 -0.377871,0.330662 v 1.136595 l -0.985299,-0.487266 c -0.18179,-0.0899 -0.412195,-0.03383 -0.514924,0.12517 -0.10268,0.158982 -0.03867,0.360732 0.143036,0.450586 l 1.357135,0.671196 v 2.045205 l -2.024262,-1.022713 0.01406,-1.364128 c 0.002,-0.182622 -0.165765,-0.331987 -0.374455,-0.333624 -0.0013,0 -0.002,0 -0.0033,0 -0.207071,0 -0.375906,0.14607 -0.377777,0.32771 l -0.01026,0.990222 -1.124712,-0.568255 c -0.180721,-0.09135 -0.411835,-0.03709 -0.516171,0.121025 -0.104349,0.158146 -0.04238,0.360377 0.1383,0.451681 l 1.124911,0.568344 -0.974972,0.502825 c -0.179773,0.09271 -0.239624,0.295433 -0.13367,0.452785 0.07049,0.104624 0.196501,0.162818 0.325932,0.162818 0.0652,0 0.13125,-0.0148 0.191513,-0.0458 l 1.343172,-0.692676 2.024056,1.022585 -2.024407,1.022758 -1.342821,-0.692891 c -0.179674,-0.09271 -0.411432,-0.04044 -0.517445,0.116882 -0.106007,0.157304 -0.04622,0.360018 0.133571,0.452738 l 0.974819,0.502959 -1.124712,0.568209 c -0.180721,0.0913 -0.242648,0.293543 -0.138307,0.451682 0.06998,0.106076 0.197004,0.165372 0.327597,0.165372 0.06408,0 0.129081,-0.01428 0.188588,-0.04434 l 1.124712,-0.568249 0.01026,0.990309 c 0.002,0.1816 0.1707,0.327709 0.377772,0.327709 0.0013,0 0.002,0 0.0033,-4.6e-5 0.208683,-0.0017 0.376366,-0.151002 0.374449,-0.333617 l -0.01406,-1.364176 2.024307,-1.022712 v 2.045298 l -1.357127,0.671196 c -0.181684,0.08985 -0.245727,0.291557 -0.143042,0.450579 0.06948,0.107579 0.197507,0.168019 0.329307,0.168019 0.06302,0 0.126866,-0.01381 0.185617,-0.04283 l 0.985299,-0.487265 v 1.136594 c 0,0.182614 0.169187,0.330663 0.377877,0.330663 0.208684,0 0.377878,-0.148049 0.377878,-0.330663 v -1.136594 l 0.985297,0.487265 c 0.05875,0.02908 0.122583,0.04283 0.185612,0.04283 0.131804,0 0.259829,-0.06044 0.329308,-0.168019 0.10268,-0.158981 0.03865,-0.360731 -0.143039,-0.450579 l -1.357178,-0.671196 v -2.045258 l 2.024255,1.022672 -0.01441,1.364136 c -0.002,0.182615 0.165661,0.332026 0.37435,0.333703 0.0012,4.7e-5 0.0024,4.7e-5 0.0036,4.7e-5 0.207026,0 0.375862,-0.146069 0.377777,-0.327622 l 0.01047,-0.990443 1.124864,0.568296 c 0.05951,0.03006 0.124497,0.04434 0.188587,0.04434 0.130593,0 0.25761,-0.05934 0.327592,-0.165373 0.104349,-0.158145 0.04243,-0.360377 -0.138353,-0.451681 z" />
  <path
     class="drop"
     style="fill:#9ddcd9;fill-opacity:1;stroke:#2979db;stroke-width:0.31021401;stroke-miterlimit:4;stroke-dasharray:none;stroke-opacity:1"
     id="drop-right"
     d="m 40.953567,36.021875 -1.124711,-0.568216 0.974668,-0.502912 c 0.179769,-0.09276 0.239575,-0.295474 0.133568,-0.452785 -0.106007,-0.157265 -0.337621,-0.209596 -0.517439,-0.116876 l -1.342622,0.692758 -2.024359,-1.022758 2.024007,-1.022586 1.343024,0.692672 c 0.06021,0.03111 0.12631,0.0458 0.191507,0.0458 0.129386,0 0.255396,-0.0582 0.325882,-0.162819 0.105952,-0.157304 0.0461,-0.360022 -0.133668,-0.452784 l -0.974821,-0.502738 1.124964,-0.568344 c 0.180726,-0.09129 0.242648,-0.293536 0.138302,-0.451681 -0.104349,-0.158188 -0.335453,-0.212377 -0.516179,-0.121025 l -1.124711,0.568255 -0.01026,-0.990264 c -0.0019,-0.182614 -0.173066,-0.33018 -0.381251,-0.327668 -0.208689,0.0017 -0.376366,0.151002 -0.374451,0.333624 l 0.01406,1.364128 -2.024259,1.022713 v -2.045251 l 1.357181,-0.671203 c 0.181683,-0.08985 0.245721,-0.291551 0.143038,-0.450579 -0.10268,-0.158983 -0.333236,-0.215064 -0.51492,-0.125164 l -0.985295,0.487303 V 29.53688 c 0,-0.182608 -0.169189,-0.330662 -0.377879,-0.330662 -0.208684,0 -0.377871,0.148054 -0.377871,0.330662 v 1.136595 l -0.985299,-0.487266 c -0.18179,-0.0899 -0.412195,-0.03383 -0.514924,0.12517 -0.10268,0.158982 -0.03867,0.360732 0.143036,0.450586 l 1.357135,0.671196 v 2.045205 l -2.024262,-1.022713 0.01406,-1.364128 c 0.002,-0.182622 -0.165765,-0.331987 -0.374455,-0.333624 -0.0013,0 -0.002,0 -0.0033,0 -0.207071,0 -0.375906,0.14607 -0.377777,0.32771 l -0.01026,0.990222 -1.124712,-0.568255 c -0.180721,-0.09135 -0.411835,-0.03709 -0.516171,0.121025 -0.104349,0.158146 -0.04238,0.360377 0.1383,0.451681 l 1.124911,0.568344 -0.974972,0.502825 c -0.179773,0.09271 -0.239624,0.295433 -0.13367,0.452785 0.07049,0.104624 0.196501,0.162818 0.325932,0.162818 0.0652,0 0.13125,-0.0148 0.191513,-0.0458 l 1.343172,-0.692676 2.024056,1.022585 -2.024407,1.022758 -1.342821,-0.692891 c -0.179674,-0.09271 -0.411432,-0.04044 -0.517445,0.116882 -0.106007,0.157304 -0.04622,0.360018 0.133571,0.452738 l 0.974819,0.502959 -1.124712,0.568209 c -0.180721,0.0913 -0.242648,0.293543 -0.138307,0.451682 0.06998,0.106076 0.197004,0.165372 0.327597,0.165372 0.06408,0 0.129081,-0.01428 0.188588,-0.04434 l 1.124712,-0.568249 0.01026,0.990309 c 0.002,0.1816 0.1707,0.327709 0.377772,0.327709 0.0013,0 0.002,0 0.0033,-4.6e-5 0.208683,-0.0017 0.376366,-0.151002 0.374449,-0.333617 l -0.01406,-1.364176 2.024307,-1.022712 v 2.045298 l -1.357127,0.671196 c -0.181684,0.08985 -0.245727,0.291557 -0.143042,0.450579 0.06948,0.107579 0.197507,0.168019 0.329307,0.168019 0.06302,0 0.126866,-0.01381 0.185617,-0.04283 l 0.985299,-0.487265 v 1.136594 c 0,0.182614 0.169187,0.330663 0.377877,0.330663 0.208684,0 0.377878,-0.148049 0.377878,-0.330663 v -1.136594 l 0.985297,0.487265 c 0.05875,0.02908 0.122583,0.04283 0.185612,0.04283 0.131804,0 0.259829,-0.06044 0.329308,-0.168019 0.10268,-0.158981 0.03865,-0.360731 -0.143039,-0.450579 L 36.674817,36.66905 v -2.045258 l 2.024255,1.022672 -0.01441,1.364136 c -0.002,0.182615 0.165661,0.332026 0.37435,0.333703 0.0012,4.7e-5 0.0024,4.7e-5 0.0036,4.7e-5 0.207026,0 0.375862,-0.146069 0.377777,-0.327622 l 0.01047,-0.990443 1.124864,0.568296 c 0.05951,0.03006 0.124497,0.04434 0.188587,0.04434 0.130593,0 0.25761,-0.05934 0.327592,-0.165373 0.104349,-0.158145 0.04243,-0.360377 -0.138353,-0.451681 z" />
  <g
     id="cloud">
    <path
       d="M 44.654158,15.734 44.128754,15.502 C 44.879035,13.009 44.63136,10.261 43.426143,7.73 41.350435,3.372 37.009375,0.664 32.095241,0.664 c -0.879818,0 -1.791762,0.109 -2.707851,0.325 -1.118168,0.264 -2.211464,0.684 -3.250873,1.25 -0.496387,0.271 -0.97723,0.574 -1.430093,0.899 -0.922307,0.663 -1.749275,1.433 -2.460176,2.289 -0.511932,0.618 -0.954432,1.261 -1.314028,1.912 l -0.245603,0.444 c -2.399034,-0.597 -4.805323,-0.356 -6.945282,0.6 -1.144075,0.511 -2.159648,1.205 -3.020814,2.064 -0.447681,0.444 -0.8601284,0.948 -1.2300874,1.499 -0.7896605,1.178 -1.3036652,2.489 -1.5357963,3.936 l -0.062178,0.392 C 5.1421196,16.685 3.4063174,17.983 2.4270141,19.015 0.86220143,20.664 0,22.87 0,25.227 c 0,4.342 3.0218502,8.737 8.7961127,8.737 1.6653333,0 6.7805093,0.006 12.4469973,0.014 l 2.672617,0.003 C 30.730434,33.991 37.686079,34 40.003245,34 c 4.868536,0 8.691446,-2.966 9.737073,-7.554 1.028009,-4.513 -1.063244,-8.917 -5.08616,-10.712 m -30.728361,2.942 c 0.164771,-0.277 0.09534,-0.624 -0.163736,-0.823 -1.025936,-0.786 -2.200064,-1.399 -3.521346,-1.831 0.669449,-3.701 3.935866,-6.362 7.862406,-6.362 2.717178,0 5.50897,1.407 7.28726,3.672 0.197934,0.251 0.590691,0.326 0.870492,0.165 0.2912,-0.165 0.408302,-0.515 0.271511,-0.814 -1.017647,-2.217 -2.734795,-3.873 -3.467459,-4.516 1.856013,-3.181 5.455082,-5.303 9.032389,-5.303 4.011516,0 7.559807,2.217 9.258302,5.785 1.525433,3.202 1.127494,6.704 -1.037336,9.139 -0.771007,0.866 -1.702641,1.581 -2.768993,2.122 -0.2912,0.146 -0.426956,0.473 -0.322289,0.773 0.09223,0.262 0.344051,0.438 0.631106,0.438 l 0.108812,-0.009 c 3.542072,-0.563 5.340053,-2.605 5.93178,-3.276 0.0021,-0.003 0.0041,-0.005 0.0073,-0.008 3.378337,1.637 4.247793,5.341 3.608396,8.142 -0.642506,2.818 -2.953455,5.828 -7.510065,5.828 -2.384526,0 -9.683185,-0.01 -16.686499,-0.02 -6.454075,-0.008 -12.655293,-0.017 -14.5216693,-0.017 -4.2778456,0 -6.5152168,-3.288 -6.5152168,-6.536 0,-1.806 0.6487236,-3.484 1.8280328,-4.725 1.3409719,-1.412 3.2829978,-2.159 5.6157086,-2.159 1.1513287,0 2.2902227,0.207 3.3824827,0.614 0.299491,0.113 0.657014,-0.01 0.818677,-0.279"
       class="contour"
       id="path2327"
       style="fill:#cbd5d8;stroke-width:1.01798809" />
    <path
       d="m 13.925797,18.676 c 0.164771,-0.277 0.09534,-0.624 -0.163736,-0.823 -1.025936,-0.786 -2.200064,-1.399 -3.521346,-1.831 0.669449,-3.701 3.935866,-6.362 7.862406,-6.362 2.717178,0 5.50897,1.407 7.28726,3.672 0.197934,0.251 0.590691,0.326 0.870492,0.165 0.2912,-0.165 0.408302,-0.515 0.271511,-0.814 -1.017647,-2.217 -2.734795,-3.873 -3.467459,-4.516 1.856013,-3.181 5.455082,-5.303 9.032389,-5.303 4.011516,0 7.559807,2.217 9.258302,5.785 1.525433,3.202 1.127494,6.704 -1.037336,9.139 -0.771007,0.866 -1.702641,1.581 -2.768993,2.122 -0.2912,0.146 -0.426956,0.473 -0.322289,0.773 0.09223,0.262 0.344051,0.438 0.631106,0.438 l 0.108812,-0.009 c 3.542072,-0.563 5.340054,-2.605 5.931781,-3.276 0.0021,-0.003 0.0041,-0.005 0.0073,-0.008 3.378337,1.637 4.247793,5.341 3.608396,8.142 -0.642506,2.818 -2.953455,5.828 -7.510066,5.828 -2.384526,0 -9.683185,-0.01 -16.686499,-0.02 -6.454075,-0.008 -12.655293,-0.017 -14.5216693,-0.017 -4.2778456,0 -6.5152168,-3.288 -6.5152168,-6.536 0,-1.806 0.6487236,-3.484 1.8280328,-4.725 1.3409719,-1.412 3.2829978,-2.159 5.6157086,-2.159 1.1513287,0 2.2902227,0.207 3.3824827,0.614 0.299491,0.113 0.657014,-0.01 0.818677,-0.279"
       class="inside"
       id="path2327-1"
       style="fill:#ffffff;stroke-width:1.01798809" />
  </g>
</svg>
