<?xml version="1.0" encoding="utf-8"?>
<!-- Generator: Adobe Illustrator 16.0.0, SVG Export Plug-In . SVG Version: 6.00 Build 0)  -->
<!DOCTYPE svg PUBLIC "-//W3C//DTD SVG 1.1//EN" "http://www.w3.org/Graphics/SVG/1.1/DTD/svg11.dtd">
<svg version="1.1" id="Calque_1" xmlns="http://www.w3.org/2000/svg" xmlns:xlink="http://www.w3.org/1999/xlink" x="0px" y="0px"
	 width="190.767px" height="139.703px" viewBox="0 0 190.767 139.703" enable-background="new 0 0 190.767 139.703"
	 xml:space="preserve">
<g>
	<g>
		<path fill="#FFFFFF" d="M160.196,16.612c-1.141,0-2.288,0.064-3.423,0.193C148.695,6.265,136.07,0,122.82,0
			C109.374,0,97.05,6.113,88.867,16.806c-1.135-0.129-2.281-0.193-3.423-0.193c-16.855,0-30.569,13.714-30.569,30.57
			c0,16.855,13.714,30.569,30.569,30.569c3.423,0,6.782-0.568,9.999-1.691c7.717,6.453,17.403,10,27.377,10
			c9.975,0,19.66-3.547,27.377-10c3.217,1.123,6.576,1.691,9.999,1.691c16.856,0,30.57-13.713,30.57-30.569
			C190.767,30.326,177.054,16.612,160.196,16.612z"/>
	</g>
	<g>
		<path fill="#C7C6C6" d="M160.196,16.612c-1.141,0-2.288,0.064-3.423,0.193C148.695,6.265,136.07,0,122.82,0
			C109.374,0,97.05,6.113,88.867,16.806c-1.135-0.129-2.281-0.193-3.423-0.193c-16.855,0-30.569,13.714-30.569,30.57
			c0,16.855,13.714,30.569,30.569,30.569c3.423,0,6.782-0.568,9.999-1.691c7.717,6.453,17.403,10,27.377,10
			c9.975,0,19.66-3.547,27.377-10c3.217,1.123,6.576,1.691,9.999,1.691c16.856,0,30.57-13.713,30.57-30.569
			C190.767,30.326,177.054,16.612,160.196,16.612z M85.444,27.918c2.51,0,4.976,0.493,7.328,1.465l1.277,0.528l0.63-1.229
			c5.493-10.718,16.275-17.375,28.141-17.375c11.867,0,22.647,6.656,28.136,17.373l0.63,1.23l1.276-0.527
			c2.358-0.973,4.825-1.465,7.334-1.465c10.622,0,19.265,8.643,19.265,19.265s-8.643,19.265-19.265,19.265
			c-3.952,0-7.776-1.222-11.06-3.533l-1.134-0.798l-0.885,1.066c-6.103,7.353-14.959,11.57-24.299,11.57
			c-9.339,0-18.196-4.217-24.298-11.57l-0.886-1.067l-1.134,0.799c-3.276,2.312-7.102,3.533-11.059,3.533
			c-10.623,0-19.265-8.642-19.265-19.265S74.821,27.918,85.444,27.918z"/>
	</g>
</g>
<g>
	<g>
		<path fill="#FFFFFF" d="M142.293,48.636c-1.89,0-3.757,0.135-5.617,0.4c-10.627-14.48-27.399-23.167-45.607-23.167
			S56.096,34.556,45.46,49.036c-1.859-0.267-3.728-0.4-5.618-0.4C17.876,48.636,0,66.511,0,88.478
			c0,21.967,17.875,39.842,39.842,39.842c4.869,0,9.636-0.889,14.127-2.609c10.301,8.982,23.403,13.992,37.1,13.992
			c13.71,0,26.798-5.01,37.099-13.992c4.491,1.721,9.257,2.609,14.126,2.609c21.966,0,39.842-17.875,39.842-39.842
			C182.135,66.511,164.261,48.636,142.293,48.636z"/>
	</g>
	<g>
		<path fill="#C7C6C6" d="M142.293,48.636c-1.89,0-3.757,0.135-5.617,0.4c-10.627-14.48-27.399-23.167-45.607-23.167
			S56.096,34.556,45.46,49.036c-1.859-0.267-3.728-0.4-5.618-0.4C17.876,48.636,0,66.511,0,88.478
			c0,21.967,17.875,39.842,39.842,39.842c4.869,0,9.636-0.889,14.127-2.609c10.301,8.982,23.403,13.992,37.1,13.992
			c13.71,0,26.798-5.01,37.099-13.992c4.491,1.721,9.257,2.609,14.126,2.609c21.966,0,39.842-17.875,39.842-39.842
			C182.135,66.511,164.261,48.636,142.293,48.636z M142.293,116.937c-6.092,0-11.709-1.955-16.341-5.217
			c-8.352,10.064-20.788,16.602-34.884,16.602s-26.532-6.537-34.884-16.602c-4.624,3.262-10.249,5.217-16.341,5.217
			c-15.719,0-28.458-12.74-28.458-28.457c0-15.719,12.739-28.458,28.458-28.458c3.846,0,7.493,0.784,10.828,2.163
			c7.552-14.732,22.715-24.931,40.397-24.931s32.846,10.198,40.39,24.931c3.344-1.379,6.996-2.163,10.836-2.163
			c15.719,0,28.457,12.74,28.457,28.458C170.752,104.197,158.013,116.937,142.293,116.937z"/>
	</g>
</g>
</svg>
