<?xml version="1.0" encoding="utf-8"?>
<!-- Generator: Adobe Illustrator 16.0.0, SVG Export Plug-In . SVG Version: 6.00 Build 0)  -->
<!DOCTYPE svg PUBLIC "-//W3C//DTD SVG 1.1//EN" "http://www.w3.org/Graphics/SVG/1.1/DTD/svg11.dtd">
<svg version="1.1" id="Calque_1" xmlns="http://www.w3.org/2000/svg" xmlns:xlink="http://www.w3.org/1999/xlink" x="0px" y="0px"
	 width="199.768px" height="212.135px" viewBox="0 0 199.768 212.135" enable-background="new 0 0 199.768 212.135"
	 xml:space="preserve">
<g>
	<g>
		<g>
			<path fill="#F4A634" d="M125.775,34.149c-21.966,0-39.842,17.875-39.842,39.842s17.875,39.841,39.842,39.841
				s39.842-17.875,39.842-39.841C165.617,52.026,147.742,34.149,125.775,34.149z M125.775,102.451
				c-15.719,0-28.458-12.739-28.458-28.458s12.739-28.458,28.458-28.458s28.458,12.739,28.458,28.458
				C154.234,89.711,141.494,102.451,125.775,102.451z"/>
		</g>
		<g>
			<g>
				<path fill="#F4A634" d="M125.775,0c-3.143,0-5.692,2.549-5.692,5.692v11.383c0,3.142,2.55,5.69,5.692,5.69
					c3.142,0,5.691-2.549,5.691-5.69V5.692C131.467,2.55,128.917,0,125.775,0z"/>
			</g>
			<g>
				<path fill="#F4A634" d="M125.775,125.217c-3.143,0-5.692,2.549-5.692,5.691v11.383c0,3.143,2.55,5.691,5.692,5.691
					c3.142,0,5.691-2.549,5.691-5.691v-11.383C131.467,127.766,128.917,125.217,125.775,125.217z"/>
			</g>
		</g>
		<g>
			<g>
				<path fill="#F4A634" d="M178.09,21.67c-2.223-2.224-5.824-2.224-8.048,0l-8.048,8.048c-2.223,2.225-2.223,5.825,0,8.048
					c2.225,2.224,5.825,2.224,8.048,0l8.048-8.048C180.313,27.496,180.313,23.894,178.09,21.67z"/>
			</g>
			<g>
				<path fill="#F4A634" d="M89.559,110.217c-2.225-2.223-5.825-2.23-8.049,0l-8.048,8.049c-2.223,2.223-2.223,5.824,0,8.047
					c2.224,2.225,5.825,2.225,8.048,0l8.049-8.047C91.781,116.036,91.781,112.44,89.559,110.217z"/>
			</g>
		</g>
		<g>
			<g>
				<path fill="#F4A634" d="M51.783,73.992c0,3.144,2.549,5.692,5.692,5.692h11.383c3.142,0,5.692-2.549,5.692-5.692
					c0-3.142-2.551-5.69-5.692-5.69H57.476C54.333,68.302,51.783,70.851,51.783,73.992z"/>
			</g>
			<g>
				<path fill="#F4A634" d="M177,73.992c0,3.144,2.549,5.692,5.692,5.692h11.383c3.142,0,5.692-2.549,5.692-5.692
					c0-3.142-2.549-5.69-5.692-5.69h-11.383C179.55,68.302,177,70.851,177,73.992z"/>
			</g>
		</g>
		<g>
			<g>
				<path fill="#F4A634" d="M73.453,21.67c-2.223,2.224-2.223,5.825,0,8.048l8.048,8.048c2.224,2.224,5.825,2.224,8.048,0
					c2.225-2.224,2.225-5.825,0-8.048l-8.048-8.048C79.278,19.447,75.677,19.447,73.453,21.67z"/>
			</g>
			<g>
				<path fill="#F4A634" d="M162.001,110.209c-2.224,2.225-2.23,5.826,0,8.049l8.048,8.049c2.224,2.223,5.825,2.223,8.049,0
					c2.223-2.225,2.223-5.826,0-8.049l-8.049-8.049C167.818,107.987,164.225,107.987,162.001,110.209z"/>
			</g>
		</g>
	</g>
	<g>
		<g>
			<path fill="#FFFFFF" d="M142.294,71.572c-1.89,0-3.757,0.133-5.618,0.399c-10.627-14.48-27.398-23.166-45.607-23.166
				S56.095,57.491,45.46,71.972c-1.86-0.267-3.728-0.399-5.618-0.399C17.875,71.572,0,89.447,0,111.415
				c0,21.967,17.875,39.842,39.842,39.842c4.869,0,9.635-0.891,14.125-2.609c10.301,8.982,23.404,13.992,37.101,13.992
				c13.711,0,26.798-5.01,37.1-13.992c4.491,1.719,9.256,2.609,14.126,2.609c21.966,0,39.842-17.875,39.842-39.842
				C182.135,89.447,164.261,71.572,142.294,71.572z"/>
		</g>
		<g>
			<path fill="#C7C6C6" d="M142.294,71.572c-1.89,0-3.757,0.133-5.618,0.399c-10.627-14.48-27.398-23.166-45.607-23.166
				S56.095,57.491,45.46,71.972c-1.86-0.267-3.728-0.399-5.618-0.399C17.875,71.572,0,89.447,0,111.415
				c0,21.967,17.875,39.842,39.842,39.842c4.869,0,9.635-0.891,14.125-2.609c10.301,8.982,23.404,13.992,37.101,13.992
				c13.711,0,26.798-5.01,37.1-13.992c4.491,1.719,9.256,2.609,14.126,2.609c21.966,0,39.842-17.875,39.842-39.842
				C182.135,89.447,164.261,71.572,142.294,71.572z M142.294,139.872c-6.092,0-11.709-1.957-16.341-5.217
				c-8.352,10.064-20.788,16.602-34.884,16.602c-14.097,0-26.532-6.537-34.884-16.602c-4.624,3.262-10.249,5.217-16.342,5.217
				c-15.719,0-28.457-12.74-28.457-28.457c0-15.718,12.739-28.458,28.457-28.458c3.847,0,7.492,0.786,10.827,2.164
				c7.553-14.732,22.716-24.932,40.398-24.932s32.846,10.199,40.39,24.932c3.344-1.378,6.996-2.164,10.835-2.164
				c15.72,0,28.458,12.74,28.458,28.458C170.752,127.131,158.014,139.872,142.294,139.872z"/>
		</g>
	</g>
	<g>
		<path fill="#40A0BE" d="M27.223,194.795c-3.291,5.361-1.613,12.365,3.75,15.654c5.362,3.291,12.364,1.615,15.655-3.748
			s2.205-25.357,2.205-25.357S30.514,189.432,27.223,194.795z"/>
	</g>
	<g>
		<path fill="#40A0BE" d="M72.723,180.795c-3.291,5.361-1.613,12.365,3.75,15.654c5.362,3.291,12.364,1.615,15.655-3.748
			s2.204-25.357,2.204-25.357S76.014,175.432,72.723,180.795z"/>
	</g>
</g>
</svg>
