<?xml version="1.0" encoding="UTF-8" ?>
<svg
   xmlns:svg="http://www.w3.org/2000/svg"
   xmlns="http://www.w3.org/2000/svg"
   version="1.1"
   viewBox="0 0 50 50"
   height="50"
   width="50">
  <g
     id="cloud-back-bottom">
    <path
       d="M 5.34584,31.734 5.871244,31.502 C 5.120963,29.009 5.368638,26.261 6.573855,23.73 c 2.075708,-4.358 6.416768,-7.066 11.330902,-7.066 0.879818,0 1.791762,0.109 2.707851,0.325 1.118168,0.264 2.211464,0.684 3.250873,1.25 0.496387,0.271 0.97723,0.574 1.430093,0.899 0.922307,0.663 1.749275,1.433 2.460176,2.289 0.511932,0.618 0.954432,1.261 1.314028,1.912 l 0.245603,0.444 c 2.399034,-0.597 4.805323,-0.356 6.945282,0.6 1.144075,0.511 2.159648,1.205 3.020814,2.064 0.447681,0.444 0.860128,0.948 1.230087,1.499 0.789661,1.178 1.303666,2.489 1.535797,3.936 l 0.06218,0.392 c 2.750339,0.411 4.486142,1.709 5.465445,2.741 1.564813,1.649 2.427014,3.855 2.427014,6.212 0,4.342 -3.02185,8.737 -8.796113,8.737 -1.665333,0 -6.780509,0.006 -12.446997,0.014 l -2.672617,0.003 C 19.269564,49.991 12.313919,50 9.996753,50 5.128217,50 1.305307,47.034 0.25968,42.446 -0.768329,37.933 1.322924,33.529 5.34584,31.734 m 30.728361,2.942 c -0.164771,-0.277 -0.09534,-0.624 0.163736,-0.823 1.025936,-0.786 2.200064,-1.399 3.521346,-1.831 -0.669449,-3.701 -3.935866,-6.362 -7.862406,-6.362 -2.717178,0 -5.50897,1.407 -7.28726,3.672 -0.197934,0.251 -0.590691,0.326 -0.870492,0.165 -0.2912,-0.165 -0.408302,-0.515 -0.271511,-0.814 1.017647,-2.217 2.734795,-3.873 3.467459,-4.516 -1.856013,-3.181 -5.455082,-5.303 -9.032389,-5.303 -4.011516,0 -7.559807,2.217 -9.258302,5.785 -1.525433,3.202 -1.127494,6.704 1.037336,9.139 0.771007,0.866 1.702641,1.581 2.768993,2.122 0.2912,0.146 0.426956,0.473 0.322289,0.773 -0.09223,0.262 -0.344051,0.438 -0.631106,0.438 L 12.033082,37.112 C 8.49101,36.549 6.693029,34.507 6.101302,33.836 c -0.0021,-0.003 -0.0041,-0.005 -0.0073,-0.008 -3.378337,1.637 -4.247793,5.341 -3.608396,8.142 0.642506,2.818 2.953455,5.828 7.510065,5.828 2.384526,0 9.683185,-0.01 16.686499,-0.02 6.454075,-0.008 12.655293,-0.017 14.521669,-0.017 4.277846,0 6.515217,-3.288 6.515217,-6.536 0,-1.806 -0.648724,-3.484 -1.828033,-4.725 -1.340972,-1.412 -3.282997,-2.159 -5.615708,-2.159 -1.151329,0 -2.290223,0.207 -3.382483,0.614 -0.299491,0.113 -0.657014,-0.01 -0.818677,-0.279"
       class="contour"
       style="fill:#666666;stroke-width:1.01798809" />
    <path
       d="m 36.074202,34.676 c -0.164771,-0.277 -0.09534,-0.624 0.163736,-0.823 1.025936,-0.786 2.200064,-1.399 3.521346,-1.831 -0.669449,-3.701 -3.935866,-6.362 -7.862406,-6.362 -2.717178,0 -5.50897,1.407 -7.28726,3.672 -0.197934,0.251 -0.590691,0.326 -0.870492,0.165 -0.2912,-0.165 -0.408302,-0.515 -0.271511,-0.814 1.017647,-2.217 2.734795,-3.873 3.467459,-4.516 -1.856013,-3.181 -5.455082,-5.303 -9.032389,-5.303 -4.011516,0 -7.559807,2.217 -9.258302,5.785 -1.525433,3.202 -1.127494,6.704 1.037336,9.139 0.771007,0.866 1.702641,1.581 2.768993,2.122 0.2912,0.146 0.426956,0.473 0.322289,0.773 -0.09223,0.262 -0.344051,0.438 -0.631106,0.438 L 12.033083,37.112 C 8.491011,36.549 6.693029,34.507 6.101302,33.836 c -0.0021,-0.003 -0.0041,-0.005 -0.0073,-0.008 -3.378337,1.637 -4.247793,5.341 -3.608396,8.142 0.642506,2.818 2.953455,5.828 7.510066,5.828 2.384526,0 9.683185,-0.01 16.686499,-0.02 6.454075,-0.008 12.655293,-0.017 14.521669,-0.017 4.277846,0 6.515217,-3.288 6.515217,-6.536 0,-1.806 -0.648724,-3.484 -1.828033,-4.725 -1.340972,-1.412 -3.282998,-2.159 -5.615708,-2.159 -1.151329,0 -2.290223,0.207 -3.382483,0.614 -0.299491,0.113 -0.657014,-0.01 -0.818677,-0.279"
       class="inside"
       style="fill:#999999;fill-opacity:0.94117647;stroke-width:1.01798809" />
  </g>
  <g
     id="cloud-back-top">
    <path
       d="M 44.654159,15.734 44.128755,15.502 C 44.879036,13.009 44.631361,10.261 43.426144,7.73 41.350436,3.372 37.009376,0.664 32.095242,0.664 c -0.879818,0 -1.791762,0.109 -2.707851,0.325 -1.118168,0.264 -2.211464,0.684 -3.250873,1.25 -0.496387,0.271 -0.97723,0.574 -1.430093,0.899 -0.922307,0.663 -1.749275,1.433 -2.460176,2.289 -0.511932,0.618 -0.954432,1.261 -1.314028,1.912 l -0.245603,0.444 c -2.399034,-0.597 -4.805323,-0.356 -6.945282,0.6 -1.144075,0.511 -2.159648,1.205 -3.020814,2.064 -0.447681,0.444 -0.8601284,0.948 -1.2300874,1.499 -0.7896605,1.178 -1.3036652,2.489 -1.5357963,3.936 l -0.062178,0.392 C 5.1421206,16.685 3.4063184,17.983 2.4270151,19.015 0.86220243,20.664 1e-6,22.87 1e-6,25.227 c 0,4.342 3.0218502,8.737 8.7961127,8.737 1.6653333,0 6.7805093,0.006 12.4469973,0.014 l 2.672617,0.003 C 30.730435,33.991 37.68608,34 40.003246,34 c 4.868536,0 8.691446,-2.966 9.737073,-7.554 1.028009,-4.513 -1.063244,-8.917 -5.08616,-10.712 m -30.728361,2.942 c 0.164771,-0.277 0.09534,-0.624 -0.163736,-0.823 -1.025936,-0.786 -2.200064,-1.399 -3.521346,-1.831 0.669449,-3.701 3.935866,-6.362 7.862406,-6.362 2.717178,0 5.50897,1.407 7.28726,3.672 0.197934,0.251 0.590691,0.326 0.870492,0.165 0.2912,-0.165 0.408302,-0.515 0.271511,-0.814 -1.017647,-2.217 -2.734795,-3.873 -3.467459,-4.516 1.856013,-3.181 5.455082,-5.303 9.032389,-5.303 4.011516,0 7.559807,2.217 9.258302,5.785 1.525433,3.202 1.127494,6.704 -1.037336,9.139 -0.771007,0.866 -1.702641,1.581 -2.768993,2.122 -0.2912,0.146 -0.426956,0.473 -0.322289,0.773 0.09223,0.262 0.344051,0.438 0.631106,0.438 l 0.108812,-0.009 c 3.542072,-0.563 5.340053,-2.605 5.93178,-3.276 0.0021,-0.003 0.0041,-0.005 0.0073,-0.008 3.378337,1.637 4.247793,5.341 3.608396,8.142 -0.642506,2.818 -2.953455,5.828 -7.510065,5.828 -2.384526,0 -9.683185,-0.01 -16.686499,-0.02 -6.454075,-0.008 -12.655293,-0.017 -14.5216693,-0.017 -4.2778456,0 -6.5152168,-3.288 -6.5152168,-6.536 0,-1.806 0.6487236,-3.484 1.8280328,-4.725 1.3409719,-1.412 3.2829978,-2.159 5.6157086,-2.159 1.1513287,0 2.2902227,0.207 3.3824827,0.614 0.299491,0.113 0.657014,-0.01 0.818677,-0.279"
       class="contour"
       style="fill:#666666;stroke-width:1.01798809" />
    <path
       d="m 13.925797,18.676 c 0.164771,-0.277 0.09534,-0.624 -0.163736,-0.823 -1.025936,-0.786 -2.200064,-1.399 -3.521346,-1.831 0.669449,-3.701 3.935866,-6.362 7.862406,-6.362 2.717178,0 5.50897,1.407 7.28726,3.672 0.197934,0.251 0.590691,0.326 0.870492,0.165 0.2912,-0.165 0.408302,-0.515 0.271511,-0.814 -1.017647,-2.217 -2.734795,-3.873 -3.467459,-4.516 1.856013,-3.181 5.455082,-5.303 9.032389,-5.303 4.011516,0 7.559807,2.217 9.258302,5.785 1.525433,3.202 1.127494,6.704 -1.037336,9.139 -0.771007,0.866 -1.702641,1.581 -2.768993,2.122 -0.2912,0.146 -0.426956,0.473 -0.322289,0.773 0.09223,0.262 0.344051,0.438 0.631106,0.438 l 0.108812,-0.009 c 3.542072,-0.563 5.340054,-2.605 5.931781,-3.276 0.0021,-0.003 0.0041,-0.005 0.0073,-0.008 3.378337,1.637 4.247793,5.341 3.608396,8.142 -0.642506,2.818 -2.953455,5.828 -7.510066,5.828 -2.384526,0 -9.683185,-0.01 -16.686499,-0.02 -6.454075,-0.008 -12.655293,-0.017 -14.5216693,-0.017 -4.2778456,0 -6.5152168,-3.288 -6.5152168,-6.536 0,-1.806 0.6487236,-3.484 1.8280328,-4.725 1.3409719,-1.412 3.2829978,-2.159 5.6157086,-2.159 1.1513287,0 2.2902227,0.207 3.3824827,0.614 0.299491,0.113 0.657014,-0.01 0.818677,-0.279"
       class="inside"
       style="fill:#999999;fill-opacity:0.94117647;stroke-width:1.01798809" />
  </g>
  <g
     id="cloud-front-top">
    <path
       d="m 11.849004,10.754475 0.37829,-0.167026 c -0.540202,-1.7948166 -0.361876,-3.7732183 0.50588,-5.5953925 1.49451,-3.137509 4.620074,-5.08711306 8.15825,-5.08711306 0.633469,0 1.290069,0.07847372 1.949653,0.23398128 0.805081,0.19006479 1.592254,0.4924406 2.340628,0.89992808 0.357399,0.1951043 0.703606,0.4132469 1.029667,0.6472282 0.664062,0.4773218 1.259478,1.0316774 1.771327,1.6479481 0.368591,0.4449244 0.687191,0.9078474 0.9461,1.3765299 l 0.176835,0.3196544 c 1.727304,-0.4298056 3.459832,-0.2562995 5.000603,0.4319655 0.823734,0.3678905 1.554946,0.8675305 2.174986,1.4859611 0.32233,0.3196544 0.619292,0.6825054 0.885663,1.0791936 0.568556,0.8480922 0.938639,1.7919367 1.105774,2.8336934 l 0.04477,0.282217 c 1.980244,0.295897 3.230022,1.230382 3.935121,1.973362 1.126664,1.187185 1.74745,2.775378 1.74745,4.472283 0,3.12599 -2.175732,6.290136 -6.333202,6.290136 -1.19904,0 -4.881966,0.0043 -8.961838,0.01008 l -1.924284,0.0022 c -4.90659,0.0072 -9.914655,0.01364 -11.583014,0.01364 -3.505347,0 -6.2578419,-2.135349 -7.0106933,-5.438445 -0.7401666,-3.2491 0.7655357,-6.419726 3.6620353,-7.712023 m 22.124421,2.118071 c -0.118635,-0.199424 -0.06865,-0.449244 0.11789,-0.592513 0.738674,-0.565874 1.584046,-1.007199 2.535369,-1.318214 -0.482003,-2.664507 -2.833824,-4.5802737 -5.660933,-4.5802737 -1.956368,0 -3.966458,1.012959 -5.246827,2.6436285 C 25.576412,9.2058793 25.293627,9.259875 25.092171,9.1439643 24.882507,9.0251738 24.798193,8.773194 24.896683,8.5579312 25.629389,6.9618189 26.865735,5.7695943 27.393253,5.3066713 26.056924,3.0165345 23.465594,1.4888168 20.889933,1.4888168 c -2.888292,0 -5.443061,1.5961123 -6.665978,4.1648667 -1.098311,2.3052556 -0.811795,4.8264935 0.746882,6.5795535 0.555125,0.62347 1.225902,1.138229 1.993675,1.527718 0.209664,0.105111 0.307409,0.340533 0.232048,0.556515 -0.06641,0.188625 -0.247716,0.315335 -0.454396,0.315335 l -0.07834,-0.0065 c -2.550292,-0.405328 -3.844838,-1.87545 -4.270882,-2.358532 -0.0015,-0.0022 -0.003,-0.0036 -0.0053,-0.0058 -2.4324024,1.178546 -3.0584107,3.845212 -2.5980449,5.861771 0.4626049,2.028798 2.1264879,4.195824 5.4072469,4.195824 1.716859,0 6.971894,-0.0072 12.01428,-0.0144 4.646934,-0.0058 9.111811,-0.01224 10.455602,-0.01224 3.080049,0 4.690957,-2.36717 4.690957,-4.705543 0,-1.300216 -0.467082,-2.50828 -1.316184,-3.401728 -0.9655,-1.016559 -2.363759,-1.554356 -4.04331,-1.554356 -0.828957,0 -1.648961,0.149028 -2.435388,0.442045 -0.215634,0.08135 -0.47305,-0.0072 -0.589447,-0.200864"
       class="contour"
       style="fill:#4d4d4d;stroke-width:0.73292214" />
    <path
       d="m 33.973424,12.872546 c -0.118635,-0.199424 -0.06865,-0.449244 0.11789,-0.592513 0.738674,-0.565874 1.584046,-1.007199 2.535369,-1.318214 C 36.14468,8.297312 33.79286,6.3815453 30.965751,6.3815453 c -1.956368,0 -3.966459,1.012959 -5.246828,2.6436285 C 25.576411,9.2058793 25.293626,9.259875 25.092169,9.1439643 24.882505,9.0251738 24.798192,8.773194 24.896681,8.5579312 25.629387,6.9618189 26.865734,5.7695943 27.393252,5.3066713 26.056922,3.0165345 23.465593,1.4888168 20.889931,1.4888168 c -2.888291,0 -5.443061,1.5961123 -6.665977,4.1648667 -1.098312,2.3052556 -0.811796,4.8264935 0.746882,6.5795535 0.555125,0.62347 1.225901,1.138229 1.993675,1.527718 0.209664,0.105111 0.307408,0.340533 0.232048,0.556515 -0.06641,0.188625 -0.247717,0.315335 -0.454396,0.315335 l -0.07835,-0.0065 c -2.550292,-0.405328 -3.844839,-1.87545 -4.270883,-2.358532 -0.0015,-0.0022 -0.003,-0.0036 -0.0053,-0.0058 -2.4324025,1.178546 -3.0584109,3.845212 -2.598045,5.861771 0.462604,2.028798 2.126488,4.195824 5.407248,4.195824 1.716859,0 6.971893,-0.0072 12.01428,-0.0144 4.646934,-0.0058 9.111811,-0.01224 10.455602,-0.01224 3.080049,0 4.690956,-2.36717 4.690956,-4.705543 0,-1.300216 -0.467081,-2.50828 -1.316184,-3.401728 -0.9655,-1.016559 -2.363758,-1.554356 -4.04331,-1.554356 -0.828956,0 -1.64896,0.149028 -2.435387,0.442045 -0.215634,0.08135 -0.473051,-0.0072 -0.589448,-0.200864"
       class="inside"
       style="fill:#666666;fill-opacity:0.94117647;stroke-width:0.73292214" />
  </g>
  <g
     id="cloud-front-middle">
    <path
       style="fill:#4d4d4d;stroke-width:0.73292214"
       class="contour"
       d="M 45.923367,27.828026 45.545076,27.661 c 0.540202,-1.794817 0.361876,-3.773218 -0.50588,-5.595392 -1.49451,-3.13751 -4.620073,-5.087114 -8.15825,-5.087114 -0.633469,0 -1.290069,0.07847 -1.949653,0.233982 -0.805081,0.190065 -1.592254,0.49244 -2.340628,0.899928 -0.357399,0.195104 -0.703606,0.413247 -1.029667,0.647228 -0.664062,0.477322 -1.259478,1.031677 -1.771327,1.647948 -0.368591,0.444925 -0.687191,0.907848 -0.9461,1.37653 l -0.176835,0.319654 c -1.727304,-0.429805 -3.459832,-0.256299 -5.000603,0.431966 -0.823734,0.36789 -1.554946,0.86753 -2.174986,1.485961 -0.32233,0.319654 -0.619292,0.682505 -0.885663,1.079194 -0.568556,0.848092 -0.938639,1.791936 -1.105774,2.833693 l -0.04477,0.282217 c -1.980244,0.295897 -3.230022,1.230382 -3.935121,1.973362 -1.126664,1.187185 -1.74745,2.775378 -1.74745,4.472283 0,3.12599 2.175732,6.290136 6.333202,6.290136 1.19904,0 4.881966,0.0043 8.961838,0.01008 l 1.924284,0.0022 c 4.90659,0.0072 9.914655,0.01364 11.583015,0.01364 3.505346,0 6.257841,-2.135349 7.010693,-5.438445 0.740166,-3.2491 -0.765536,-6.419726 -3.662036,-7.712023 m -22.124421,2.118071 c 0.118635,-0.199424 0.06865,-0.449244 -0.11789,-0.592513 -0.738674,-0.565874 -1.584046,-1.007199 -2.535369,-1.318214 0.482003,-2.664507 2.833824,-4.580274 5.660933,-4.580274 1.956368,0 3.966458,1.012959 5.246827,2.643629 0.142513,0.180705 0.425298,0.234701 0.626754,0.11879 0.209664,-0.11879 0.293978,-0.37077 0.195488,-0.586033 -0.732706,-1.596112 -1.969052,-2.788337 -2.49657,-3.25126 1.336329,-2.290137 3.927659,-3.817854 6.50332,-3.817854 2.888292,0 5.443061,1.596112 6.665978,4.164867 1.098312,2.305255 0.811796,4.826493 -0.746882,6.579553 -0.555125,0.62347 -1.225902,1.138229 -1.993675,1.527718 -0.209664,0.105111 -0.307408,0.340533 -0.232048,0.556515 0.06641,0.188625 0.247716,0.315335 0.454396,0.315335 l 0.07834,-0.0065 c 2.550292,-0.405328 3.844838,-1.87545 4.270882,-2.358532 0.0015,-0.0022 0.0029,-0.0036 0.0053,-0.0058 2.432403,1.178546 3.058411,3.845212 2.598045,5.861771 -0.462604,2.028798 -2.126488,4.195824 -5.407247,4.195824 -1.716859,0 -6.971894,-0.0072 -12.01428,-0.0144 -4.646934,-0.0058 -9.111811,-0.01224 -10.455602,-0.01224 -3.080049,0 -4.690957,-2.36717 -4.690957,-4.705543 0,-1.300216 0.467082,-2.50828 1.316184,-3.401728 0.9655,-1.016559 2.363759,-1.554356 4.04331,-1.554356 0.828957,0 1.648961,0.149028 2.435388,0.442045 0.215634,0.08135 0.47305,-0.0072 0.589447,-0.200864" />
    <path
       style="fill:#666666;fill-opacity:0.94117647;stroke-width:0.73292214"
       class="inside"
       d="m 23.798946,29.946097 c 0.118635,-0.199424 0.06865,-0.449244 -0.11789,-0.592513 -0.738674,-0.565874 -1.584046,-1.007199 -2.535369,-1.318214 0.482003,-2.664507 2.833823,-4.580274 5.660932,-4.580274 1.956368,0 3.966459,1.012959 5.246828,2.643629 0.142512,0.180705 0.425297,0.234701 0.626754,0.11879 0.209664,-0.11879 0.293977,-0.37077 0.195488,-0.586033 -0.732706,-1.596112 -1.969053,-2.788337 -2.496571,-3.25126 1.33633,-2.290137 3.927659,-3.817854 6.503321,-3.817854 2.888291,0 5.443061,1.596112 6.665977,4.164867 1.098312,2.305255 0.811796,4.826493 -0.746882,6.579553 -0.555125,0.62347 -1.225901,1.138229 -1.993675,1.527718 -0.209664,0.105111 -0.307408,0.340533 -0.232048,0.556515 0.06641,0.188625 0.247717,0.315335 0.454397,0.315335 l 0.07834,-0.0065 c 2.550291,-0.405328 3.844839,-1.87545 4.270882,-2.358532 0.0015,-0.0022 0.0029,-0.0036 0.0053,-0.0058 2.432403,1.178546 3.058411,3.845212 2.598045,5.861771 -0.462604,2.028798 -2.126488,4.195824 -5.407248,4.195824 -1.716858,0 -6.971893,-0.0072 -12.01428,-0.0144 -4.646934,-0.0058 -9.111811,-0.01224 -10.455602,-0.01224 -3.080049,0 -4.690956,-2.36717 -4.690956,-4.705543 0,-1.300216 0.467081,-2.50828 1.316184,-3.401728 0.9655,-1.016559 2.363758,-1.554356 4.04331,-1.554356 0.828956,0 1.64896,0.149028 2.435387,0.442045 0.215634,0.08135 0.473051,-0.0072 0.589448,-0.200864" />
  </g>
  <g
     id="cloud-front-bottom">
    <path
       d="M 3.8490036,36.849532 4.2272945,36.682506 C 3.6870921,34.887689 3.8654181,32.909288 4.7331744,31.087113 6.2276842,27.949604 9.3532476,26 12.891424,26 c 0.633469,0 1.290069,0.07847 1.949653,0.233982 0.805081,0.190065 1.592254,0.49244 2.340628,0.899928 0.357399,0.195104 0.703606,0.413247 1.029667,0.647228 0.664062,0.477322 1.259478,1.031677 1.771327,1.647948 0.368591,0.444924 0.687191,0.907847 0.9461,1.37653 l 0.176835,0.319654 c 1.727304,-0.429805 3.459832,-0.256299 5.000603,0.431966 0.823734,0.36789 1.554946,0.86753 2.174986,1.485961 0.32233,0.319654 0.619292,0.682505 0.885663,1.079194 0.568556,0.848092 0.938639,1.791936 1.105774,2.833693 l 0.04477,0.282217 c 1.980244,0.295897 3.230022,1.230382 3.935121,1.973362 1.126664,1.187185 1.74745,2.775378 1.74745,4.472283 0,3.12599 -2.175732,6.290136 -6.333202,6.290136 -1.19904,0 -4.881966,0.0043 -8.961838,0.01008 l -1.924284,0.0022 C 13.874087,49.993521 8.8660221,50 7.1976625,50 3.6923164,50 0.93982112,47.864651 0.18696965,44.561555 -0.55319686,41.312455 0.95250536,38.141829 3.849005,36.849532 m 22.124421,2.118071 c -0.118635,-0.199424 -0.06865,-0.449244 0.11789,-0.592513 0.738674,-0.565874 1.584046,-1.007199 2.535369,-1.318214 -0.482003,-2.664507 -2.833824,-4.580274 -5.660933,-4.580274 -1.956368,0 -3.966458,1.012959 -5.246827,2.643629 -0.142513,0.180705 -0.425298,0.234701 -0.626754,0.11879 -0.209664,-0.11879 -0.293978,-0.37077 -0.195488,-0.586033 0.732706,-1.596112 1.969052,-2.788337 2.49657,-3.25126 -1.336329,-2.290137 -3.927659,-3.817854 -6.50332,-3.817854 -2.888292,0 -5.4430612,1.596112 -6.6659777,4.164866 -1.0983118,2.305256 -0.8117957,4.826494 0.746882,6.579554 0.5551251,0.62347 1.2259016,1.138229 1.993675,1.527718 0.2096641,0.105111 0.3074084,0.340533 0.2320481,0.556515 -0.066406,0.188625 -0.2477167,0.315335 -0.4543963,0.315335 l -0.078345,-0.0065 C 6.1135272,40.316034 4.8189808,38.845912 4.3929374,38.36283 c -0.00151,-0.0022 -0.00295,-0.0036 -0.00526,-0.0058 -2.4324028,1.178546 -3.0584111,3.845212 -2.5980453,5.861771 0.4626044,2.028798 2.1264877,4.195824 5.4072471,4.195824 1.7168588,0 6.9718938,-0.0072 12.0142798,-0.0144 4.646934,-0.0058 9.111811,-0.01224 10.455602,-0.01224 3.080049,0 4.690957,-2.36717 4.690957,-4.705543 0,-1.300216 -0.467082,-2.50828 -1.316184,-3.401728 -0.9655,-1.016559 -2.363759,-1.554356 -4.04331,-1.554356 -0.828957,0 -1.648961,0.149028 -2.435388,0.442045 -0.215634,0.08135 -0.47305,-0.0072 -0.589447,-0.200864"
       class="contour"
       style="fill:#4d4d4d;stroke-width:0.73292214" />
    <path
       d="m 25.973424,38.967603 c -0.118635,-0.199424 -0.06865,-0.449244 0.11789,-0.592513 0.738674,-0.565874 1.584046,-1.007199 2.535369,-1.318214 -0.482003,-2.664507 -2.833823,-4.580274 -5.660932,-4.580274 -1.956368,0 -3.966459,1.012959 -5.246828,2.643629 -0.142512,0.180705 -0.425297,0.234701 -0.626754,0.11879 -0.209664,-0.11879 -0.293977,-0.37077 -0.195488,-0.586033 0.732706,-1.596112 1.969053,-2.788337 2.496571,-3.25126 -1.33633,-2.290137 -3.927659,-3.817854 -6.503321,-3.817854 -2.888291,0 -5.4430606,1.596112 -6.6659771,4.164866 -1.0983118,2.305256 -0.8117957,4.826494 0.746882,6.579554 0.555125,0.62347 1.2259015,1.138229 1.993675,1.527718 0.209664,0.105111 0.3074083,0.340533 0.2320481,0.556515 -0.066406,0.188625 -0.2477167,0.315335 -0.4543963,0.315335 l -0.078345,-0.0065 c -2.5502919,-0.405328 -3.844839,-1.87545 -4.2708825,-2.358532 -0.00151,-0.0022 -0.00295,-0.0036 -0.00526,-0.0058 -2.4324027,1.178546 -3.0584111,3.845212 -2.5980452,5.861771 0.4626043,2.028798 2.1264877,4.195824 5.4072477,4.195824 1.7168588,0 6.9718933,-0.0072 12.0142803,-0.0144 4.646934,-0.0058 9.111811,-0.01224 10.455602,-0.01224 3.080049,0 4.690956,-2.36717 4.690956,-4.705543 0,-1.300216 -0.467081,-2.50828 -1.316184,-3.401728 -0.9655,-1.016559 -2.363758,-1.554356 -4.04331,-1.554356 -0.828956,0 -1.64896,0.149028 -2.435387,0.442045 -0.215634,0.08135 -0.473051,-0.0072 -0.589448,-0.200864"
       class="inside"
       style="fill:#666666;fill-opacity:0.94117647;stroke-width:0.73292214" />
  </g>
</svg>
