<?xml version="1.0" encoding="utf-8"?>
<!-- Generator: Adobe Illustrator 16.0.0, SVG Export Plug-In . SVG Version: 6.00 Build 0)  -->
<!DOCTYPE svg PUBLIC "-//W3C//DTD SVG 1.1//EN" "http://www.w3.org/Graphics/SVG/1.1/DTD/svg11.dtd">
<svg version="1.1" id="Calque_1" xmlns="http://www.w3.org/2000/svg" xmlns:xlink="http://www.w3.org/1999/xlink" x="0px" y="0px"
	 width="191.363px" height="188.832px" viewBox="0 0 191.363 188.832" enable-background="new 0 0 191.363 188.832"
	 xml:space="preserve">
<g>
	<g>
		<path fill="#F4A634" d="M73.992,34.149c-21.967,0-39.842,17.875-39.842,39.842c0,21.967,17.875,39.842,39.842,39.842
			c21.966,0,39.842-17.875,39.842-39.842C113.834,52.025,95.959,34.149,73.992,34.149z M73.992,102.451
			c-15.719,0-28.458-12.74-28.458-28.458s12.74-28.458,28.458-28.458c15.719,0,28.458,12.74,28.458,28.458
			C102.451,89.711,89.711,102.451,73.992,102.451z"/>
	</g>
	<g>
		<g>
			<path fill="#F4A634" d="M73.992,0C70.851,0,68.3,2.549,68.3,5.691v11.383c0,3.143,2.551,5.692,5.692,5.692
				s5.692-2.55,5.692-5.692V5.691C79.685,2.55,77.134,0,73.992,0z"/>
		</g>
		<g>
			<path fill="#F4A634" d="M73.992,125.216c-3.142,0-5.692,2.549-5.692,5.691v11.383c0,3.143,2.551,5.693,5.692,5.693
				s5.692-2.549,5.692-5.693v-11.383C79.685,127.767,77.134,125.216,73.992,125.216z"/>
		</g>
	</g>
	<g>
		<g>
			<path fill="#F4A634" d="M126.308,21.67c-2.224-2.224-5.825-2.224-8.049,0l-8.048,8.048c-2.223,2.224-2.223,5.824,0,8.048
				c2.225,2.224,5.825,2.224,8.048,0l8.049-8.048C128.53,27.494,128.53,23.894,126.308,21.67z"/>
		</g>
		<g>
			<path fill="#F4A634" d="M37.774,110.218c-2.225-2.225-5.825-2.232-8.048,0l-8.048,8.047c-2.224,2.223-2.224,5.826,0,8.049
				c2.223,2.223,5.824,2.223,8.048,0l8.048-8.049C39.998,116.035,39.998,112.441,37.774,110.218z"/>
		</g>
	</g>
	<g>
		<g>
			<path fill="#F4A634" d="M0,73.991c0,3.143,2.549,5.692,5.692,5.692h11.383c3.142,0,5.692-2.55,5.692-5.692
				c0-3.142-2.551-5.691-5.692-5.691H5.692C2.55,68.301,0,70.85,0,73.991z"/>
		</g>
		<g>
			<path fill="#F4A634" d="M125.217,73.991c0,3.143,2.55,5.692,5.692,5.692h11.383c3.143,0,5.692-2.55,5.692-5.692
				c0-3.142-2.549-5.691-5.692-5.691h-11.383C127.767,68.301,125.217,70.85,125.217,73.991z"/>
		</g>
	</g>
	<g>
		<g>
			<path fill="#F4A634" d="M21.67,21.67c-2.223,2.224-2.223,5.824,0,8.048l8.048,8.048c2.225,2.224,5.825,2.224,8.049,0
				s2.224-5.825,0-8.048l-8.049-8.048C27.495,19.446,23.895,19.446,21.67,21.67z"/>
		</g>
		<g>
			<path fill="#F4A634" d="M110.217,110.208c-2.224,2.225-2.23,5.826,0,8.049l8.048,8.049c2.224,2.223,5.825,2.223,8.049,0
				c2.223-2.225,2.223-5.826,0-8.049l-8.049-8.049C116.035,107.986,112.441,107.986,110.217,110.208z"/>
		</g>
	</g>
</g>
<g>
	<g>
		<path fill="#FFFFFF" d="M160.793,65.74c-1.141,0-2.288,0.065-3.423,0.193c-8.078-10.54-20.703-16.805-33.953-16.805
			c-13.446,0-25.771,6.112-33.953,16.805c-1.135-0.128-2.281-0.193-3.423-0.193c-16.855,0-30.569,13.714-30.569,30.57
			c0,16.855,13.714,30.57,30.569,30.57c3.423,0,6.782-0.568,9.999-1.693c7.717,6.455,17.403,10,27.377,10
			c9.975,0,19.66-3.545,27.377-10c3.217,1.125,6.576,1.693,9.999,1.693c16.856,0,30.57-13.715,30.57-30.57
			C191.363,79.454,177.65,65.74,160.793,65.74z"/>
	</g>
	<g>
		<path fill="#C7C6C6" d="M160.793,65.74c-1.141,0-2.288,0.065-3.423,0.193c-8.078-10.54-20.703-16.805-33.953-16.805
			c-13.446,0-25.771,6.112-33.953,16.805c-1.135-0.128-2.281-0.193-3.423-0.193c-16.855,0-30.569,13.714-30.569,30.57
			c0,16.855,13.714,30.57,30.569,30.57c3.423,0,6.782-0.568,9.999-1.693c7.717,6.455,17.403,10,27.377,10
			c9.975,0,19.66-3.545,27.377-10c3.217,1.125,6.576,1.693,9.999,1.693c16.856,0,30.57-13.715,30.57-30.57
			C191.363,79.454,177.65,65.74,160.793,65.74z M86.041,77.047c2.51,0,4.976,0.492,7.328,1.465l1.277,0.527l0.63-1.229
			c5.493-10.717,16.275-17.375,28.141-17.375c11.867,0,22.647,6.657,28.136,17.374l0.63,1.229l1.276-0.526
			c2.358-0.974,4.825-1.465,7.334-1.465c10.622,0,19.265,8.642,19.265,19.264c0,10.621-8.643,19.264-19.265,19.264
			c-3.952,0-7.776-1.221-11.06-3.531l-1.134-0.799l-0.885,1.066c-6.103,7.354-14.959,11.57-24.299,11.57
			c-9.339,0-18.196-4.219-24.298-11.57l-0.886-1.068l-1.134,0.801c-3.276,2.311-7.102,3.531-11.059,3.531
			c-10.623,0-19.265-8.641-19.265-19.264C66.775,85.688,75.418,77.047,86.041,77.047z"/>
	</g>
</g>
<g>
	<g>
		<path fill="#FFFFFF" d="M142.89,97.765c-1.89,0-3.757,0.133-5.617,0.398c-10.627-14.48-27.399-23.166-45.607-23.166
			s-34.973,8.686-45.608,23.166c-1.859-0.266-3.728-0.398-5.618-0.398c-21.966,0-39.842,17.875-39.842,39.842
			c0,21.965,17.875,39.842,39.842,39.842c4.869,0,9.636-0.889,14.127-2.609c10.301,8.982,23.403,13.992,37.1,13.992
			c13.71,0,26.798-5.01,37.099-13.992c4.491,1.719,9.257,2.609,14.126,2.609c21.966,0,39.842-17.875,39.842-39.842
			C182.732,115.64,164.857,97.765,142.89,97.765z"/>
	</g>
	<g>
		<path fill="#C7C6C6" d="M142.89,97.765c-1.89,0-3.757,0.133-5.617,0.398c-10.627-14.48-27.399-23.166-45.607-23.166
			s-34.973,8.686-45.608,23.166c-1.859-0.266-3.728-0.398-5.618-0.398c-21.966,0-39.842,17.875-39.842,39.842
			c0,21.965,17.875,39.842,39.842,39.842c4.869,0,9.636-0.889,14.127-2.609c10.301,8.982,23.403,13.992,37.1,13.992
			c13.71,0,26.798-5.01,37.099-13.992c4.491,1.719,9.257,2.609,14.126,2.609c21.966,0,39.842-17.875,39.842-39.842
			C182.732,115.64,164.857,97.765,142.89,97.765z M142.89,166.064c-6.092,0-11.709-1.955-16.341-5.217
			c-8.352,10.064-20.788,16.602-34.884,16.602s-26.532-6.537-34.884-16.602c-4.624,3.262-10.249,5.217-16.341,5.217
			c-15.719,0-28.458-12.74-28.458-28.457c0-15.719,12.739-28.459,28.458-28.459c3.846,0,7.493,0.787,10.828,2.164
			C58.82,96.58,73.983,86.381,91.666,86.381s32.846,10.199,40.39,24.931c3.344-1.379,6.996-2.164,10.836-2.164
			c15.719,0,28.457,12.74,28.457,28.459C171.349,153.324,158.609,166.064,142.89,166.064z"/>
	</g>
</g>
</svg>
