<?xml version="1.0" standalone="yes"?>
<svg xmlns="http://www.w3.org/2000/svg" width="367" height="612">
<path style="fill:#b1b1b1; stroke:none;" d="M202 26L203.085 26.5849L203.512 26.642L204.296 26.8395L205.898 26.9661L209 27L207.915 26.4151L207.488 26.358L206.704 26.1605L205.102 26.0339L202 26M198 27L199 28L198 27z"/>
<path style="fill:#676666; stroke:none;" d="M199 27L200 28L199 27z"/>
<path style="fill:#281511; stroke:none;" d="M200.667 27.3333L201 27.6667L201.333 27.6667L201 27.3333L200.667 27.3333z"/>
<path style="fill:#b98d2f; stroke:none;" d="M173 148L171.344 147.441L170.88 147.408L169.929 147.245L169.125 147.224L167.424 147.259C166.584 147.321 165.738 147.413 164.924 147.638C163.788 147.952 162.702 148.463 161.8 149.231L160.573 150.558L159.703 152.188L159.229 154.039L159.103 155.985L159.164 156.941L159.322 157.848L159.604 158.667L160.603 159.883L162.148 160.397L163.059 160.427L165.005 160.27L166.001 160.18L168 160.129C169.01 160.157 170 160.297 171 160.425L172 160.576L174 160.845L178 161.282L182 161.831C183.33 161.964 184.667 162.001 186 162.086L188 162.285L191 162.718L194.998 163.14C196.279 163.265 197.552 163.402 198.84 163.424L200.329 163.334L202 163L202 158L202 156L202 155L201.833 154L201.333 152L200.5 150.167L199.833 149.333L198 148.333L196 148L195 148L193 147.667L192.167 147.5L191.5 147.667L191.167 148.167L191 150L190.415 148.329L190.358 147.841L190.16 146.84C190.027 145.563 190.018 144.28 190.003 142.998L190 138L190 123L190 107L190 102C190.001 100.668 189.981 99.3312 190.039 98L190.17 96L190.285 95L190.715 92L190.83 91L190.961 89C191.034 87.3362 190.999 85.665 191 84L191 76C191.003 73.9989 190.98 71.9945 191.17 70L191.834 65L192.079 62C192.176 60.9897 192.304 59.9932 192.518 59C192.736 57.9851 193.033 56.9835 193.363 56C193.825 54.6287 194.349 53.2546 195.086 52.0038C196.515 49.5749 198.54 47.4831 201.004 46.0934C202.524 45.236 204.241 44.6589 206 44.6589L208 44.8973L209 45.1882L209.999 45.5872L210.996 46.0934L212.956 47.4189L214.772 49.108L215.566 50.0439L216.822 52.0038C217.778 53.871 217.965 55.9594 218.27 58C218.519 59.6638 218.795 61.32 218.91 63C219.002 64.3307 218.995 65.6671 218.999 67L219 71C219.001 72.3318 218.974 73.6679 219.019 74.9992L219.148 76.9846L219.318 77.9561L219.603 78.8912L220.603 80.5663L222.148 81.8202L223.059 82.2538L224.019 82.5517L225.004 82.7315L226.985 82.767L228.891 82.4236L229.772 82.1057L230.566 81.6821L231.821 80.4861L232.566 78.8665L232.891 76.9815C232.962 75.9865 232.982 74.9972 232.996 74L233 71L233 67L233 57L232.996 53C232.969 51.3278 232.961 49.6532 232.671 48C232.368 46.2712 231.811 44.6099 231.12 43C230.375 41.2663 229.494 39.5555 228.362 38.0394L226.787 36.1736L225.895 35.3009L224.957 34.4676L222.996 32.9282L221 31.5594L220 30.9553L219 30.402L217 29.4676C216.01 29.069 215.015 28.6907 214 28.3596C212.366 27.8265 210.711 27.3845 209 27.1852C207.668 27.03 206.337 27.0413 205 27.0934L204 27.1713L203 27.2894C201.995 27.4386 200.996 27.6085 200 27.8079C197.959 28.2161 195.943 28.7118 194 29.4676C191.895 30.2864 189.84 31.3209 188.001 32.6381C185.896 34.1458 183.999 35.9764 182.39 38.0038C181.639 38.9508 180.967 39.9527 180.363 41C179.626 42.2805 179.012 43.6336 178.454 45C177.657 46.9482 177.003 48.9621 176.478 51C175.97 52.9768 175.6 54.9902 175.25 57L174.754 60C174.486 61.6631 174.205 63.3174 174.09 65C174.021 65.9979 174.01 67.0001 174.004 68L173.996 72L173.961 74L173.83 76L173.715 77L173.285 80L173.17 81L173.039 83L173.001 86L173 91L173 105L173 148z"/>
<path style="fill:#676666; stroke:none;" d="M211 27L212 28L211 27z"/>
<path style="fill:#9d9c9c; stroke:none;" d="M212 27L213 28L212 27z"/>
<path style="fill:#858383; stroke:none;" d="M195 28L196 29L195 28z"/>
<path style="fill:#303030; stroke:none;" d="M196 28L197 29L196 28z"/>
<path style="fill:#676666; stroke:none;" d="M214 28L215 29L214 28z"/>
<path style="fill:#858383; stroke:none;" d="M215 28L216 29L215 28z"/>
<path style="fill:#9d9c9c; stroke:none;" d="M192 29L193 30L192 29z"/>
<path style="fill:#303030; stroke:none;" d="M193 29L194 30L193 29z"/>
<path style="fill:#676666; stroke:none;" d="M217 29L218 30L217 29z"/>
<path style="fill:#9d9c9c; stroke:none;" d="M190 30L191 31L190 30z"/>
<path style="fill:#303030; stroke:none;" d="M191 30L192 31L191 30M219 30L220 31L219 30z"/>
<path style="fill:#b1b1b1; stroke:none;" d="M220 30L221 31L220 30M188 31L189 32L188 31z"/>
<path style="fill:#303030; stroke:none;" d="M189 31L190 32L189 31z"/>
<path style="fill:#676666; stroke:none;" d="M221 31L222 32L221 31M187 32L186 34L187.083 33L187.417 32.6667L187 32z"/>
<path style="fill:#303030; stroke:none;" d="M222 32L223 33L222 32z"/>
<path style="fill:#9d9c9c; stroke:none;" d="M223 32L224 33L223 32z"/>
<path style="fill:#281511; stroke:none;" d="M223 33L224 34L223 33z"/>
<path style="fill:#676666; stroke:none;" d="M224 33L225 34L224 33z"/>
<path style="fill:#303030; stroke:none;" d="M185 34L186 35L185 34M225 34L225 35L227 36L226 34L225 34z"/>
<path style="fill:#281511; stroke:none;" d="M184 35L185 36L184 35z"/>
<path style="fill:#303030; stroke:none;" d="M183 36L184 37L183 36z"/>
<path style="fill:#676666; stroke:none;" d="M227 36L228 37L227 36M182 37L183 38L182 37z"/>
<path style="fill:#858383; stroke:none;" d="M228 37L229 38L228 37z"/>
<path style="fill:#b1b1b1; stroke:none;" d="M181 38L182 39L181 38M229 38L230 39L229 38z"/>
<path style="fill:#303030; stroke:none;" d="M229 39L230 40L229 39M180 40L181 41L180 40z"/>
<path style="fill:#676666; stroke:none;" d="M230 40L231 41L230 40z"/>
<path style="fill:#9d9c9c; stroke:none;" d="M179 41L180 42L179 41z"/>
<path style="fill:#303030; stroke:none;" d="M230 41L231 42L230 41M179 42L180 43L179 42z"/>
<path style="fill:#858383; stroke:none;" d="M231 42L232 43L231 42z"/>
<path style="fill:#b1b1b1; stroke:none;" d="M178 43L179 44L178 43z"/>
<path style="fill:#303030; stroke:none;" d="M231 43L232 44L231 43z"/>
<path style="fill:#676666; stroke:none;" d="M178 44L179 45L178 44M204 44L205.04 44.5849L205.359 44.6412L206.478 44.8974L208 45L206.96 44.4151L206.641 44.3588L205.522 44.1026L204 44M201 45L202 46L201 45z"/>
<path style="fill:#b1b1b1; stroke:none;" d="M209 45L210 46L209 45z"/>
<path style="fill:#676666; stroke:none;" d="M210 45L211 46L210 45z"/>
<path style="fill:#858383; stroke:none;" d="M232 45L233 46L232 45M177 46L178 47L177 46z"/>
<path style="fill:#676666; stroke:none;" d="M199 46L200 47L199 46M212 46L213 47L212 46z"/>
<path style="fill:#303030; stroke:none;" d="M232 46L233 47L232 46M177 47L178 48L177 47z"/>
<path style="fill:#858383; stroke:none;" d="M198 47L197 49L198.083 48L198.417 47.6667L198 47M213 47L214 48L213 47z"/>
<path style="fill:#9d9c9c; stroke:none;" d="M214 48L215 49L214 48z"/>
<path style="fill:#b1b1b1; stroke:none;" d="M233 48L233 51L233.579 50.125L233.579 49.8009L233.579 48.875L233 48z"/>
<path style="fill:#9d9c9c; stroke:none;" d="M176 49L177 50L176 49z"/>
<path style="fill:#676666; stroke:none;" d="M196 49L197 50L196 49z"/>
<path style="fill:#858383; stroke:none;" d="M215 49L216 50L215 49z"/>
<path style="fill:#303030; stroke:none;" d="M176 50L177 51L176 50z"/>
<path style="fill:#281511; stroke:none;" d="M195 50L196 51L195 50z"/>
<path style="fill:#303030; stroke:none;" d="M216 50L217 51L216 50z"/>
<path style="fill:#9d9c9c; stroke:none;" d="M195 51L196 52L195 51z"/>
<path style="fill:#b1b1b1; stroke:none;" d="M216 51L217 52L216 51z"/>
<path style="fill:#676666; stroke:none;" d="M233.333 51.6667L233.333 52L233.667 52.3333L233.667 51.6667L233.333 51.6667z"/>
<path style="fill:#b1b1b1; stroke:none;" d="M175 52L176 53L175 52z"/>
<path style="fill:#281511; stroke:none;" d="M194 52L195 53L194 52z"/>
<path style="fill:#303030; stroke:none;" d="M217 52L218 53L217 52z"/>
<path style="fill:#858383; stroke:none;" d="M175 53L176 54L175 53z"/>
<path style="fill:#9d9c9c; stroke:none;" d="M194 53L195 54L194 53z"/>
<path style="fill:#858383; stroke:none;" d="M217 53L218 54L217 53z"/>
<path style="fill:#303030; stroke:none;" d="M233 53L233 75L233.585 73.9136L233.642 73.483L233.84 72.679C233.982 71.4567 233.982 70.2238 233.997 68.9954L234 64L233.997 59.0046C233.982 57.7763 233.982 56.5433 233.84 55.321L233.642 54.517L233.585 54.0864L233 53M175.333 54.6667L175.333 55L175.667 55.3333L175.667 54.6667L175.333 54.6667z"/>
<path style="fill:#676666; stroke:none;" d="M193 55L194 56L193 55z"/>
<path style="fill:#b1b1b1; stroke:none;" d="M174.333 57.6667L174.333 58L174.667 58.3333L174.667 57.6667L174.333 57.6667z"/>
<path style="fill:#676666; stroke:none;" d="M192 58L192 61L192.579 60.125L192.579 59.8009L192.579 58.875L192 58M174 59L174 62L174.579 61.125L174.579 60.1991L174.579 59.875L174 59z"/>
<path style="fill:#303030; stroke:none;" d="M218.333 59.6667L218.333 60L218.667 60.3333L218.667 60L218.333 59.6667z"/>
<path style="fill:#b1b1b1; stroke:none;" d="M192 61L192 64L192.579 63.125L192.579 62.1991L192.579 61.875L192 61z"/>
<path style="fill:#676666; stroke:none;" d="M218 61L218 64L218.579 63.125L218.579 62.1991L218.579 61.875L218 61z"/>
<path style="fill:#b1b1b1; stroke:none;" d="M173 64L173 67L173.579 66.125L173.579 65.1991L173.579 64.875L173 64z"/>
<path style="fill:#858383; stroke:none;" d="M218 64L218 67L218.579 66.125L218.579 65.1991L218.579 64.875L218 64z"/>
<path style="fill:#9d9c9c; stroke:none;" d="M173.333 67.6667L173.333 68L173.667 68.3333L173.667 68L173.333 67.6667z"/>
<path style="fill:#303030; stroke:none;" d="M191.333 67.6667L191.333 68L191.667 68.3333L191.667 68L191.333 67.6667z"/>
<path style="fill:#b1b1b1; stroke:none;" d="M218 67L218 76L218.585 74.9136L218.642 74.483L218.839 73.6798L218.952 71.9599L218.952 71.0401L218.839 69.3202L218.642 68.517L218.585 68.0864L218 67z"/>
<path style="fill:#676666; stroke:none;" d="M173 69L173 75L173.582 73.9182L173.628 73.5016L173.806 72.7377L173.806 71.2623L173.628 70.4984L173.582 70.0818L173 69M191 69L191 72L191.579 71.125L191.579 70.1991L191.579 69.875L191 69z"/>
<path style="fill:#858383; stroke:none;" d="M191 72L191 75L191.579 74.125L191.579 73.8009L191.579 72.875L191 72z"/>
<path style="fill:#281511; stroke:none;" d="M173 75L173 79L173.549 77.9753L173.549 77.6204L173.679 77L173.549 76.0247L173 75z"/>
<path style="fill:#9d9c9c; stroke:none;" d="M191.333 75.6667L191.333 76L191.667 76.3333L191.667 76L191.333 75.6667z"/>
<path style="fill:#858383; stroke:none;" d="M233.333 75.6667L233.333 76L233.667 76.3333L233.667 75.6667L233.333 75.6667M218 76L218 80L218.549 78.9753L218.549 78.6204L218.679 78L218.549 77.0247L218 76z"/>
<path style="fill:#b1b1b1; stroke:none;" d="M191 77L191 80L191.579 79.125L191.579 78.8009L191.579 77.875L191 77z"/>
<path style="fill:#9d9c9c; stroke:none;" d="M233 77L233 80L233.579 79.125L233.579 78.8009L233.579 77.875L233 77z"/>
<path style="fill:#303030; stroke:none;" d="M219 80L219 81L221 82L221 81L219 80z"/>
<path style="fill:#676666; stroke:none;" d="M232 80L233 81L232 80z"/>
<path style="fill:#9d9c9c; stroke:none;" d="M219 81L220 82L219 81M221 82L222 83L221 82z"/>
<path style="fill:#303030; stroke:none;" d="M222 82L223 83L222 82M229 82L230 83L229 82z"/>
<path style="fill:#9d9c9c; stroke:none;" d="M230 82L231 83L230 82z"/>
<path style="fill:#b1b1b1; stroke:none;" d="M224 83L225.04 83.5849L225.359 83.6412L226.478 83.8974L228 84L226.96 83.4151L226.641 83.3588L225.522 83.1026L224 83z"/>
<path style="fill:#303030; stroke:none;" d="M190 93L190 96L190.579 95.125L190.579 94.1991L190.579 93.875L190 93z"/>
<path style="fill:#676666; stroke:none;" d="M190 96L190 112L190.585 110.914L190.642 110.483L190.84 109.679L190.966 107.941L191 104L190.966 100.059L190.84 98.321L190.642 97.517L190.585 97.0864L190 96z"/>
<path style="fill:#b1b1b1; stroke:none;" d="M172 104L172 147L172.585 145.914L172.642 145.483L172.84 144.679C172.982 143.457 172.982 142.224 172.997 140.995L173 136L173 116L172.997 110.005C172.982 108.776 172.982 107.543 172.84 106.321L172.642 105.517L172.585 105.086L172 104z"/>
<path style="fill:#858383; stroke:none;" d="M190 112L190 120L190.585 118.914L190.641 118.484L190.836 117.684L190.932 116L190.836 114.316L190.641 113.516L190.585 113.086L190 112z"/>
<path style="fill:#9d9c9c; stroke:none;" d="M190 120L190 128L190.585 126.914L190.641 126.484L190.836 125.684L190.932 124L190.836 122.316L190.641 121.516L190.585 121.086L190 120z"/>
<path style="fill:#b1b1b1; stroke:none;" d="M190 128L190 147L190.585 145.914L190.642 145.483L190.84 144.679C190.944 143.784 190.964 142.881 190.986 141.981L191 137L190.986 133.019C190.958 132.118 190.944 131.217 190.84 130.321L190.642 129.517L190.585 129.086L190 128z"/>
<path style="fill:#858383; stroke:none;" d="M163 147L164 148L163 147z"/>
<path style="fill:#303030; stroke:none;" d="M164 147L165 148L164 147z"/>
<path style="fill:#281511; stroke:none;" d="M167 147L168 148L167 147z"/>
<path style="fill:#303030; stroke:none;" d="M172 147L173 148L172 147z"/>
<path style="fill:#281511; stroke:none;" d="M186 147L187 148L186 147M190 147L190 150L190.579 149.125L190.579 148.199L190.579 147.875L190 147z"/>
<path style="fill:#303030; stroke:none;" d="M192 147L193.06 147.585L193.472 147.642L194.16 147.84L195.39 147.965L197 148L195.94 147.415L195.528 147.358L194.84 147.16L193.61 147.035L192 147z"/>
<path style="fill:#676666; stroke:none;" d="M197 147L198.04 148.21L198.359 148.441L199.478 149.272L201 150L199.96 148.79L199.641 148.559L198.522 147.728L197 147z"/>
<path style="fill:#b1b1b1; stroke:none;" d="M198 147L199 148L198 147z"/>
<path style="fill:#858383; stroke:none;" d="M161 148L162 149L161 148z"/>
<path style="fill:#281511; stroke:none;" d="M168 148L167 150L168.083 149L168.417 148.667L168 148z"/>
<path style="fill:#676666; stroke:none;" d="M160 149L161 150L160 149z"/>
<path style="fill:#303030; stroke:none;" d="M161 149L162 150L161 149z"/>
<path style="fill:#281511; stroke:none;" d="M186 149L187 150L186 149M192 149L193 150L192 149z"/>
<path style="fill:#b1b1b1; stroke:none;" d="M159 150L160 151L159 150z"/>
<path style="fill:#281511; stroke:none;" d="M165 150L166 151L165 150z"/>
<path style="fill:#858383; stroke:none;" d="M201 150L202 151L201 150z"/>
<path style="fill:#676666; stroke:none;" d="M159 151L160 152L159 151z"/>
<path style="fill:#281511; stroke:none;" d="M184 151L185 152L184 151M201.333 151.667L201.333 152.333L201.667 152.333L201.667 152L201.333 151.667z"/>
<path style="fill:#b1b1b1; stroke:none;" d="M158 152L158 164L158.585 162.914L158.642 162.483L158.84 161.679C158.981 160.46 158.994 159.225 158.994 158C158.994 156.775 158.981 155.539 158.84 154.321L158.642 153.517L158.585 153.086L158 152z"/>
<path style="fill:#676666; stroke:none;" d="M202 152L202 164L202.585 162.914L202.642 162.483L202.84 161.679C202.981 160.46 202.994 159.225 202.994 158C202.994 156.775 202.981 155.539 202.84 154.321L202.642 153.517L202.585 153.086L202 152z"/>
<path style="fill:#281511; stroke:none;" d="M159 160L159 163L159.579 162.125L159.579 161.199L159.579 160.875L159 160z"/>
<path style="fill:#61251b; stroke:none;" d="M163 160L164.06 160.585L164.472 160.642L165.16 160.84L166.39 160.965L168 161L166.94 160.415L166.528 160.358L165.84 160.16L164.61 160.035L163 160z"/>
<path style="fill:#281511; stroke:none;" d="M168 160L169.04 160.585L169.359 160.641L170.478 160.897L172 161L170.96 160.415L170.641 160.359L169.522 160.103L168 160z"/>
<path style="fill:#61251b; stroke:none;" d="M160 161L160 163L161 163L162 161L160 161z"/>
<path style="fill:#96372f; stroke:none;" d="M162.667 161.333L162.667 161.667L163.333 161.667L163 161.333L162.667 161.333z"/>
<path style="fill:#2d378b; stroke:none;" d="M134 165L134.199 166.671L134.529 168.16L135.093 170.025L135.815 172.002L137 175C138.192 177.993 139.402 180.978 140.519 184L141.621 187L143.119 191L146.05 199L147.947 204L150.053 210L152.308 216L155.003 224L156.05 227L157.485 231L158.717 235L159.659 238L160.284 239.996L160.591 240.985C160.914 241.938 161.183 242.913 161.649 243.812L162.728 245.442L163.43 246.146L165.109 247.316L167.015 248.185L168.004 248.532L170 249.097C170.996 249.332 171.99 249.544 173 249.715L177 250.271C178.661 250.509 180.316 250.821 182 250.821C183.685 250.821 185.338 250.506 187 250.271C188.668 250.035 190.344 249.853 192 249.54C193.008 249.35 194.003 249.107 195 248.869L196.995 248.355C198.536 247.905 200.231 247.458 201.397 246.272L201.972 245.57L202.686 243.891L202.867 242.956L203.166 239.999C203.533 236.936 204.155 233.885 205.268 231C206.063 228.938 207.118 226.995 208.059 225C208.682 223.679 209.264 222.339 209.846 221L210.716 219C211.277 217.678 211.823 216.353 212.305 215L214.053 210C215.028 207.335 216.135 204.718 216.961 202C217.659 199.702 218.127 197.352 218.6 195L219.561 190.005L219.829 188.045C219.924 187.259 219.96 186.462 219.985 185.671L220 184L218.329 183.444L216.84 182.676L214.991 181.427L213.103 179.811L212.214 178.906L211.394 177.96L210.009 175.996L209.005 174.004L208.634 173.015L208.34 172.04L207.826 170.185L207.529 169.329L206.686 167.8C205.532 166.271 203.747 165.368 201.96 164.8L199.996 164.329L198.999 164.185L197 164.04L196 164.014L193 163.961C191.994 163.915 190.999 163.838 190 163.715L186 163.17C184.004 162.977 181.996 163.023 180 162.83L176 162.282L171 161.719L168 161.326C166.993 161.245 166.004 161.236 165 161.368C163.616 161.55 162.308 161.996 161 162.465L159 163.284L158 163.716L156 164.535C155.009 164.892 154.026 165.228 153 165.475C151.688 165.79 150.339 165.965 149 166.115L146 166.405L144 166.405C142.999 166.364 141.995 166.236 141.002 166.116L138.045 165.728C136.691 165.521 135.346 165.251 134 165z"/>
<path style="fill:#96372f; stroke:none;" d="M169 161L169.909 161.585L170.347 161.653L172 162L171.091 161.415L170.653 161.347L169 161z"/>
<path style="fill:#61251b; stroke:none;" d="M172 161L173.04 161.585L173.359 161.641L174.478 161.897L176 162L174.96 161.415L174.641 161.359L173.522 161.103L172 161z"/>
<path style="fill:#281511; stroke:none;" d="M176 161L177.04 161.585L177.359 161.641L178.478 161.897L180 162L178.96 161.415L178.641 161.359L177.522 161.103L176 161M199 161L200 162L199 161z"/>
<path style="fill:#96372f; stroke:none;" d="M177 162L178.085 162.585L178.512 162.642L179.296 162.84L180.898 162.966L184 163L182.915 162.415L182.488 162.358L181.704 162.16L180.102 162.034L177 162z"/>
<path style="fill:#281511; stroke:none;" d="M184 162L185.082 162.585L185.492 162.642L186.276 162.84C186.962 162.926 187.657 162.963 188.348 162.985L190 163L188.918 162.415L188.508 162.358L187.724 162.16C187.038 162.074 186.343 162.037 185.652 162.015L184 162z"/>
<path style="fill:#96372f; stroke:none;" d="M188 163L189.04 163.585L189.359 163.641L190.478 163.897L192 164L190.96 163.415L190.641 163.359L189.522 163.103L188 163z"/>
<path style="fill:#281511; stroke:none;" d="M192 163L193.082 163.585L193.492 163.642L194.276 163.84C194.962 163.926 195.657 163.963 196.348 163.985L198 164L196.918 163.415L196.508 163.358L195.724 163.16C195.038 163.074 194.343 163.037 193.652 163.015L192 163M200.667 163.333L200.667 163.667L201.333 163.667L201 163.333L200.667 163.333z"/>
<path style="fill:#d7887d; stroke:none;" d="M133 164L133 168L133.856 167.125L134.653 166.199L134.856 165.875L136 165L135.091 164.415L134.653 164.347L133 164z"/>
<path style="fill:#e8a9a1; stroke:none;" d="M154.667 164.333L154.667 164.667L155.333 164.667L155 164.333L154.667 164.333z"/>
<path style="fill:#cd6e68; stroke:none;" d="M156 164L157 165L156 164z"/>
<path style="fill:#ab5e50; stroke:none;" d="M201.667 164.333L201.667 164.667L202.333 164.667L202 164.333L201.667 164.333z"/>
<path style="fill:#cd6e68; stroke:none;" d="M136 165L136.909 165.585L137.347 165.653L139 166L138.091 165.415L137.653 165.347L136 165M152.667 165.333L152.667 165.667L153.333 165.667L153 165.333L152.667 165.333M204 165L205 166L204 165z"/>
<path style="fill:#e8a9a1; stroke:none;" d="M205 165L206 166L205 165z"/>
<path style="fill:#ca5652; stroke:none;" d="M143 166L144.04 166.585L144.359 166.641L145.478 166.897L147 167L145.96 166.415L145.641 166.359L144.522 166.103L143 166z"/>
<path style="fill:#d7887d; stroke:none;" d="M206 166L207 167L206 166z"/>
<path style="fill:#ca5652; stroke:none;" d="M204 167L205 168L204 167z"/>
<path style="fill:#ab5e50; stroke:none;" d="M206 167L207 168L206 167z"/>
<path style="fill:#e8a9a1; stroke:none;" d="M207 167L208 168L207 167z"/>
<path style="fill:#cd6e68; stroke:none;" d="M134 168L135 169L134 168z"/>
<path style="fill:#e8a9a1; stroke:none;" d="M134 169L135 170L134 169z"/>
<path style="fill:#d7887d; stroke:none;" d="M208 170L208.099 171.645L208.29 173L208.568 174.355L209 176L209.399 174.918L209.353 174.502L209.38 173.738L209.092 172.262L208.796 171.498L208.68 171.082L208 170M135 171L136 172L135 171z"/>
<path style="fill:#cd6e68; stroke:none;" d="M136 173L137 174L136 173z"/>
<path style="fill:#d7887d; stroke:none;" d="M137 176L138 177L137 176z"/>
<path style="fill:#e8a9a1; stroke:none;" d="M210 176L211 177L210 176M137 177L138 178L137 177z"/>
<path style="fill:#cd6e68; stroke:none;" d="M210 177L211 178L210 177z"/>
<path style="fill:#ca5652; stroke:none;" d="M138 178L139 179L138 178z"/>
<path style="fill:#d7887d; stroke:none;" d="M211 178L212.04 179.522L213.159 180.641L213.478 180.96L215 182L213.96 180.478L212.841 179.359L212.522 179.04L211 178M138 179L139 180L138 179z"/>
<path style="fill:#cd6e68; stroke:none;" d="M139 181L140 182L139 181z"/>
<path style="fill:#e8a9a1; stroke:none;" d="M139 182L140 183L139 182z"/>
<path style="fill:#96372f; stroke:none;" d="M140 183L141 184L140 183z"/>
<path style="fill:#d7887d; stroke:none;" d="M217.667 183.333L218 183.667L218.333 183.667L218.333 183.333L217.667 183.333z"/>
<path style="fill:#e8a9a1; stroke:none;" d="M219 183L220 184L219 183M140.333 184.667L140.333 185L140.667 185.333L140.667 185L140.333 184.667z"/>
<path style="fill:#d7887d; stroke:none;" d="M141 187L142 188L141 187z"/>
<path style="fill:#ab5e50; stroke:none;" d="M142.333 188.667L142.333 189.333L142.667 189.333L142.667 188.667L142.333 188.667z"/>
<path style="fill:#e8a9a1; stroke:none;" d="M142 190L143 191L142 190z"/>
<path style="fill:#cd6e68; stroke:none;" d="M219.333 190.667L219.333 191.333L219.667 191.333L219.667 191L219.333 190.667z"/>
<path style="fill:#9d9c9c; stroke:none;" d="M143 192L144 193L143 192z"/>
<path style="fill:#e8a9a1; stroke:none;" d="M219 192L219 195L219.579 194.125L219.579 193.199L219.579 192.875L219 192z"/>
<path style="fill:#ca5652; stroke:none;" d="M144 194L145 195L144 194z"/>
<path style="fill:#d7887d; stroke:none;" d="M144 195L145 196L144 195M218.333 195.667L218.333 196.333L218.667 196.333L218.667 196L218.333 195.667z"/>
<path style="fill:#cd6e68; stroke:none;" d="M145 197L146 198L145 197z"/>
<path style="fill:#e8a9a1; stroke:none;" d="M146.333 200.667L146.333 201.333L146.667 201.333L146.667 201L146.333 200.667M217.333 200.667L217.333 201.333L217.667 201.333L217.667 201L217.333 200.667z"/>
<path style="fill:#d7887d; stroke:none;" d="M147.333 202.667L147.333 203.333L147.667 203.333L147.667 203L147.333 202.667z"/>
<path style="fill:#cd6e68; stroke:none;" d="M216 203L217 204L216 203M148 205L149 206L148 205z"/>
<path style="fill:#d7887d; stroke:none;" d="M215.333 206.667L215.333 207.333L215.667 207.333L215.667 207L215.333 206.667z"/>
<path style="fill:#cd6e68; stroke:none;" d="M149 208L150 209L149 208z"/>
<path style="fill:#96372f; stroke:none;" d="M214 208L215 209L214 208z"/>
<path style="fill:#e8a9a1; stroke:none;" d="M149 209L150 210L149 209z"/>
<path style="fill:#cd6e68; stroke:none;" d="M214 209L215 210L214 209z"/>
<path style="fill:#e8a9a1; stroke:none;" d="M214 210L215 211L214 210z"/>
<path style="fill:#cd6e68; stroke:none;" d="M150 211L151 212L150 211z"/>
<path style="fill:#d7887d; stroke:none;" d="M213.333 211.667L213.333 212L213.667 212.333L213.667 212L213.333 211.667z"/>
<path style="fill:#ab5e50; stroke:none;" d="M151 213L152 214L151 213z"/>
<path style="fill:#d7887d; stroke:none;" d="M151 214L152 215L151 214M212.333 214.667L212.333 215.333L212.667 215.333L212.667 215L212.333 214.667M152.333 216.667L152.333 217.333L152.667 217.333L152.667 216.667L152.333 216.667z"/>
<path style="fill:#cd6e68; stroke:none;" d="M211 217L212 218L211 217M153 219L154 220L153 219z"/>
<path style="fill:#ca5652; stroke:none;" d="M210 219L211 220L210 219z"/>
<path style="fill:#e8a9a1; stroke:none;" d="M153 220L154 221L153 220M210 220L211 221L210 220z"/>
<path style="fill:#ca5652; stroke:none;" d="M209 221L210 222L209 221z"/>
<path style="fill:#e8a9a1; stroke:none;" d="M154.333 222.667L154.333 223.333L154.667 223.333L154.667 223L154.333 222.667z"/>
<path style="fill:#d7887d; stroke:none;" d="M209 222L210 223L209 222z"/>
<path style="fill:#9d9c9c; stroke:none;" d="M208 224L209 225L208 224z"/>
<path style="fill:#cd6e68; stroke:none;" d="M155 225L156 226L155 225M207 226L208 227L207 226z"/>
<path style="fill:#d7887d; stroke:none;" d="M206 227L206 230L206.9 229.091L207.111 228.653L208 227L206 227z"/>
<path style="fill:#cd6e68; stroke:none;" d="M156 228L157 229L156 228z"/>
<path style="fill:#e8a9a1; stroke:none;" d="M156 229L157 230L156 229z"/>
<path style="fill:#cd6e68; stroke:none;" d="M157.333 230.667L157.333 231.333L157.667 231.333L157.667 231L157.333 230.667z"/>
<path style="fill:#e8a9a1; stroke:none;" d="M205.333 230.667L205.333 231.333L205.667 231.333L205.667 231L205.333 230.667z"/>
<path style="fill:#cd6e68; stroke:none;" d="M204.333 232.667L204.333 233.333L204.667 233.333L204.667 233L204.333 232.667M158 234L159 235L158 234M159 237L160 238L159 237M203 237L203 240L203.579 239.125L203.579 238.199L203.579 237.875L203 237z"/>
<path style="fill:#d7887d; stroke:none;" d="M160.333 240.667L160.333 241.333L160.667 241.333L160.667 241L160.333 240.667z"/>
<path style="fill:#e8a9a1; stroke:none;" d="M203.333 240.667L203.333 241.333L203.667 241.333L203.667 240.667L203.333 240.667z"/>
<path style="fill:#ab5e50; stroke:none;" d="M161.333 244.667L161.333 245.333L161.667 245.333L161.667 245L161.333 244.667z"/>
<path style="fill:#61251b; stroke:none;" d="M161 246L161 250L161.585 249.091L161.653 248.653L162 247L163 248L165 248L163.96 246.982L163.641 246.838L162.522 246.295L161 246z"/>
<path style="fill:#96372f; stroke:none;" d="M202 246L203 247L202 246z"/>
<path style="fill:#b98d2f; stroke:none;" d="M162 247L161.287 250.884L161.167 251.866L161.098 252.333L161 254L162.671 254.41L163.159 254.576L164.16 254.882L166.025 255.497L168.002 256.091L171 256.869C171.993 257.116 172.992 257.357 174 257.536L176 257.83L179 258.06C180.331 258.152 181.666 258.269 183 258.29C184.338 258.311 185.666 258.211 187 258.127C188.333 258.042 189.673 257.981 191 257.83C192.349 257.677 193.683 257.427 195 257.097C196.344 256.761 197.666 256.345 198.955 255.836C200.331 255.291 201.661 254.626 203 254L203 247L201.329 247.619L198.955 248.487L196.995 249.09L195 249.607L193 250.023L191 250.265L190 250.315L188 250.365L186 250.499C184.664 250.616 183.341 250.844 182 250.911C179.666 251.028 177.318 251.034 175 250.7C173.651 250.506 172.314 250.202 171 249.844L168.005 248.975L163.671 247.534L162 247z"/>
<path style="fill:#61251b; stroke:none;" d="M200.667 247.333L200.667 247.667L201.333 247.667L201.333 247.333L200.667 247.333M166.667 248.333L166.667 248.667L167.333 248.667L167 248.333L166.667 248.333M196.667 248.333L197 248.667L197.333 248.667L197.333 248.333L196.667 248.333z"/>
<path style="fill:#281511; stroke:none;" d="M198.667 248.333L198.667 248.667L199.333 248.667L199.333 248.333L198.667 248.333z"/>
<path style="fill:#61251b; stroke:none;" d="M169 249L169.909 249.585L170.347 249.653L172 250L171.091 249.415L170.653 249.347L169 249z"/>
<path style="fill:#96372f; stroke:none;" d="M192.667 249.333L192.667 249.667L193.333 249.667L193.333 249.333L192.667 249.333z"/>
<path style="fill:#281511; stroke:none;" d="M194.667 249.333L194.667 249.667L195.333 249.667L195.333 249.333L194.667 249.333z"/>
<path style="fill:#61251b; stroke:none;" d="M173 250L173.909 250.585L174.347 250.653L176 251L175.091 250.415L174.653 250.347L173 250z"/>
<path style="fill:#96372f; stroke:none;" d="M176 250L176.909 250.585L177.347 250.653L179 251L178.091 250.415L177.653 250.347L176 250M185 250L186 251L185 250z"/>
<path style="fill:#281511; stroke:none;" d="M189 250L189.909 250.585L190.347 250.653L192 251L191.091 250.415L190.653 250.347L189 250z"/>
<path style="fill:#61251b; stroke:none;" d="M161 254L161.909 254.585L162.347 254.653L164 255L163.091 254.415L162.653 254.347L161 254z"/>
<path style="fill:#281511; stroke:none;" d="M200 256L201 256L203 255L202.125 254.569L201.801 254.676L200.875 254.986L200 256z"/>
<path style="fill:#e8a9a1; stroke:none;" d="M160 255L160 258L160.579 257.125L160.579 256.199L160.579 255.875L160 255z"/>
<path style="fill:#2d378b; stroke:none;" d="M161 255L160.958 256.671L160.83 258.16L160.282 262.002L160.05 264L159.845 266L159.155 271L158.856 273.996L158.308 278.715L157.995 282.17L157.282 287.001L156.845 291L156.285 295L156.086 297C156.001 298.333 155.964 299.67 155.831 301C155.697 302.339 155.467 303.667 155.285 305L155.09 307C154.952 308.997 155.048 311.003 154.91 313L154.715 315L154.285 318C154.156 318.998 154.083 319.995 154.039 321C153.966 322.664 154.001 324.335 154 326L154 334L153.985 338C153.953 339.34 153.887 340.67 153.715 342L153.286 345C153.166 345.998 153.079 346.994 153.079 348C153.079 349.006 153.166 350.002 153.286 351L153.715 354C153.844 354.998 153.917 355.995 153.961 357C154.019 358.331 153.999 359.668 154 361L154 367C154.001 368.332 153.981 369.669 154.039 371C154.083 372.006 154.162 373.001 154.285 374L154.83 378C155.023 379.996 154.977 382.004 155.17 384C155.332 385.674 155.668 387.326 155.83 389C155.991 390.664 155.967 392.335 156.089 394L156.285 396C156.467 397.333 156.697 398.661 156.831 400L157.169 405L157.718 409L158.155 413L158.718 417L159.282 422L159.834 426L160.075 429L160.285 431C160.456 432.339 160.702 433.668 160.92 435C161.247 436.998 161.588 438.995 161.87 441L162.271 444L162.845 448L163.05 450L163.282 452L163.87 456L164.271 459L164.729 462L165.274 465.999L165.925 469.91L166.421 473.424L166.944 477.039L167.718 482L168.156 486L168.438 488L169.565 494L170.424 500L171.586 507L173.081 516L173.768 519.961L174.424 524.424C174.598 525.634 174.804 526.838 175.029 528.039C175.216 529.031 175.445 530.008 175.71 530.982L176.029 531.941L176.934 533.663L177.549 534.338L178.26 534.824L179.039 535.079L179.844 535.079L181.356 534.338L182.006 533.663L182.583 532.847L183.08 531.941C183.729 530.699 184.119 529.344 184.485 528L184.711 527L185.08 525L185.449 523L186.12 520L186.576 518L188.2 510C188.666 507.669 189.153 505.34 189.576 503L190.424 498L191.576 492L192.08 489L193.08 483L195.246 470L195.728 467L196.272 463L197.576 455L198.272 450L199.246 444L199.718 441L200.282 436L200.729 433L201.12 430.004L201.495 427.09L201.695 425.285L201.959 422.715L202.726 417.996L203.271 414L203.718 411L204.155 407L204.845 402L205.155 399L205.834 394L206.075 391L206.285 389L206.845 385L207.282 381L207.83 377C208.023 375.004 207.977 372.996 208.17 371L208.715 367L208.91 365L208.985 363L208.999 361L209 357L209 345L209 337L208.996 334C208.987 333 208.979 331.998 208.91 331C208.75 328.653 208.25 326.348 208.09 324C208.021 323.002 208.011 322 208.004 321C207.988 318.667 208.052 316.326 207.83 314L207.285 310L207.075 308L206.834 305L206.169 300L205.831 295C205.697 293.661 205.467 292.333 205.285 291L205.089 289C204.967 287.335 204.991 285.664 204.83 284L204.424 281C204.285 280.001 204.16 279.007 204.09 278L203.91 273L203.715 271C203.483 269.335 203.204 267.679 203.09 266C202.998 264.671 203.004 263.336 203.001 262.005L203 256L201.329 256.225L199.84 256.599L196.995 257.495C195.679 257.899 194.355 258.279 193 258.532C190.032 259.087 187.005 259 184 259L180 258.985C178.999 258.964 177.996 258.935 177 258.826L175 258.532L173 258.076L171 257.492C169.337 256.981 167.707 256.373 166.025 255.924L164.16 255.468L163.159 255.291L162.671 255.187L161 255z"/>
<path style="fill:#96372f; stroke:none;" d="M164 255L165 256L164 255z"/>
<path style="fill:#61251b; stroke:none;" d="M165 255L166 256L165 255z"/>
<path style="fill:#96372f; stroke:none;" d="M201.667 255.333L201.667 255.667L202.333 255.667L202.333 255.333L201.667 255.333z"/>
<path style="fill:#281511; stroke:none;" d="M168.667 256.333L168.667 256.667L169.333 256.667L169.333 256.333L168.667 256.333z"/>
<path style="fill:#96372f; stroke:none;" d="M195 257L196.06 257.486L196.472 257.466L197.16 257.549L198.39 257.397L200 257L198.94 256.514L198.528 256.534L197.84 256.451L196.61 256.603L195 257z"/>
<path style="fill:#61251b; stroke:none;" d="M170 257L171.04 257.585L171.359 257.641L172.478 257.897L174 258L172.96 257.415L172.641 257.359L171.522 257.103L170 257M193.667 257.333L193.667 257.667L194.333 257.667L194.333 257.333L193.667 257.333z"/>
<path style="fill:#cd6e68; stroke:none;" d="M160 258L160 261L160.579 260.125L160.579 259.199L160.579 258.875L160 258z"/>
<path style="fill:#96372f; stroke:none;" d="M174.667 258.333L174.667 258.667L175.333 258.667L175.333 258.333L174.667 258.333z"/>
<path style="fill:#61251b; stroke:none;" d="M176 258L176.909 258.585L177.347 258.653L179 259L178.091 258.415L177.653 258.347L176 258z"/>
<path style="fill:#281511; stroke:none;" d="M179 258L180.04 258.585L180.359 258.641L181.478 258.897L183 259L181.96 258.415L181.641 258.359L180.522 258.103L179 258z"/>
<path style="fill:#61251b; stroke:none;" d="M184 258L185.086 258.585L185.515 258.642L186.316 258.84L188.014 258.966L192 259L190.914 258.415L190.485 258.358L189.684 258.16L187.986 258.034L184 258z"/>
<path style="fill:#96372f; stroke:none;" d="M192.667 258.333L193 258.667L193.333 258.667L193.333 258.333L192.667 258.333z"/>
<path style="fill:#e8a9a1; stroke:none;" d="M203 259L203 264L203.57 262.933L203.608 262.542L203.746 261.183L203.608 260.458L203.57 260.067L203 259z"/>
<path style="fill:#ca5652; stroke:none;" d="M168 260L169 261L168 260z"/>
<path style="fill:#e8a9a1; stroke:none;" d="M159.333 264.667L159.333 265L159.667 265.333L159.667 265L159.333 264.667z"/>
<path style="fill:#d7887d; stroke:none;" d="M203 264L203 267L203.579 266.125L203.579 265.199L203.579 264.875L203 264z"/>
<path style="fill:#cd6e68; stroke:none;" d="M159 266L159 269L159.579 268.125L159.579 267.801L159.579 266.875L159 266z"/>
<path style="fill:#ca5652; stroke:none;" d="M203 267L203 270L203.579 269.125L203.579 268.199L203.579 267.875L203 267z"/>
<path style="fill:#e8a9a1; stroke:none;" d="M158 272L158 275L158.579 274.125L158.579 273.199L158.579 272.875L158 272z"/>
<path style="fill:#cd6e68; stroke:none;" d="M158.333 275.667L158.333 276.333L158.667 276.333L158.667 276L158.333 275.667z"/>
<path style="fill:#e8a9a1; stroke:none;" d="M204.333 275.667L204.333 276.333L204.667 276.333L204.667 276L204.333 275.667z"/>
<path style="fill:#d7887d; stroke:none;" d="M204 277L204 280L204.579 279.125L204.579 278.199L204.579 277.875L204 277z"/>
<path style="fill:#96372f; stroke:none;" d="M158 279L159 280L158 279z"/>
<path style="fill:#e8a9a1; stroke:none;" d="M157 280L157 283L157.579 282.125L157.579 281.199L157.579 280.875L157 280z"/>
<path style="fill:#ca5652; stroke:none;" d="M204.333 280.667L204.333 281.333L204.667 281.333L204.667 281L204.333 280.667z"/>
<path style="fill:#cd6e68; stroke:none;" d="M157 283L157 286L157.579 285.125L157.579 284.199L157.579 283.875L157 283z"/>
<path style="fill:#e8a9a1; stroke:none;" d="M205 283L205 288L205.57 286.933L205.608 286.542L205.746 285.183L205.608 284.458L205.57 284.067L205 283M156 288L156 291L156.579 290.125L156.579 289.199L156.579 288.875L156 288z"/>
<path style="fill:#d7887d; stroke:none;" d="M205 288L205 291L205.579 290.125L205.579 289.801L205.579 288.875L205 288z"/>
<path style="fill:#cd6e68; stroke:none;" d="M156 291L156 294L156.579 293.125L156.579 292.199L156.579 291.875L156 291z"/>
<path style="fill:#ca5652; stroke:none;" d="M205.333 291.667L205.333 292.333L205.667 292.333L205.667 292L205.333 291.667z"/>
<path style="fill:#e8a9a1; stroke:none;" d="M206 296L206 299L206.579 298.125L206.579 297.199L206.579 296.875L206 296z"/>
<path style="fill:#d7887d; stroke:none;" d="M155 299L155 304L155.57 302.933L155.608 302.542L155.746 301.183L155.608 300.458L155.57 300.067L155 299M206.333 299.667L206.333 300L206.667 300.333L206.667 300L206.333 299.667z"/>
<path style="fill:#ab5e50; stroke:none;" d="M206.333 301.667L206.333 302L206.667 302.333L206.667 301.667L206.333 301.667z"/>
<path style="fill:#e8a9a1; stroke:none;" d="M207.333 307.667L207.333 308L207.667 308.333L207.667 307.667L207.333 307.667M154 308L154 312L154.549 310.975L154.549 310.62L154.679 310L154.549 309.025L154 308z"/>
<path style="fill:#d7887d; stroke:none;" d="M207 309L207 312L207.579 311.125L207.579 310.801L207.579 309.875L207 309M154 312L154 315L154.579 314.125L154.579 313.199L154.579 312.875L154 312z"/>
<path style="fill:#cd6e68; stroke:none;" d="M154.333 315.667L154.333 316.333L154.667 316.333L154.667 316L154.333 315.667z"/>
<path style="fill:#e8a9a1; stroke:none;" d="M208 320L208 323L208.579 322.125L208.579 321.199L208.579 320.875L208 320M153 323L153 328L153.57 326.933L153.608 326.542L153.746 325.183L153.608 324.458L153.57 324.067L153 323z"/>
<path style="fill:#ca5652; stroke:none;" d="M208 323L208 328L208.57 326.933L208.608 326.542L208.746 325.183L208.608 324.458L208.57 324.067L208 323z"/>
<path style="fill:#d7887d; stroke:none;" d="M153 328L153 336L153.585 334.914L153.641 334.484L153.836 333.684L153.932 332L153.836 330.316L153.641 329.516L153.585 329.086L153 328z"/>
<path style="fill:#ca5652; stroke:none;" d="M153 336L153 344L153.585 342.914L153.641 342.484L153.836 341.684L153.932 340L153.836 338.316L153.641 337.516L153.585 337.086L153 336z"/>
<path style="fill:#d7887d; stroke:none;" d="M209 336L209 360L209.585 358.914L209.642 358.483L209.84 357.679C209.982 356.457 209.982 355.224 209.997 353.995L210 348L209.997 342.005C209.982 340.776 209.982 339.543 209.84 338.321L209.642 337.517L209.585 337.086L209 336z"/>
<path style="fill:#ca5652; stroke:none;" d="M153 352L153 363L153.585 361.914L153.642 361.483L153.84 360.679L153.907 359.862L153.965 358.942L153.983 357.014C153.972 356.117 153.943 355.213 153.84 354.321L153.642 353.517L153.585 353.086L153 352z"/>
<path style="fill:#e8a9a1; stroke:none;" d="M209 360L209 363L209.579 362.125L209.579 361.199L209.579 360.875L209 360M153 363L153 368L153.57 366.933L153.608 366.542L153.746 365.183L153.608 364.458L153.57 364.067L153 363z"/>
<path style="fill:#cd6e68; stroke:none;" d="M208 368L208 371L208.579 370.125L208.579 369.199L208.579 368.875L208 368z"/>
<path style="fill:#e8a9a1; stroke:none;" d="M208.333 371.667L208.333 372.333L208.667 372.333L208.667 372L208.333 371.667z"/>
<path style="fill:#cd6e68; stroke:none;" d="M154 375L154 378L154.579 377.125L154.579 376.199L154.579 375.875L154 375z"/>
<path style="fill:#d7887d; stroke:none;" d="M154.333 378.667L154.333 379L154.667 379.333L154.667 379L154.333 378.667M207.333 379.667L207.333 380L207.667 380.333L207.667 380L207.333 379.667z"/>
<path style="fill:#e8a9a1; stroke:none;" d="M207 381L207 384L207.579 383.125L207.579 382.801L207.579 381.875L207 381z"/>
<path style="fill:#ca5652; stroke:none;" d="M155.333 386.667L155.333 387L155.667 387.333L155.667 387L155.333 386.667z"/>
<path style="fill:#cd6e68; stroke:none;" d="M206 387L206 390L206.579 389.125L206.579 388.801L206.579 387.875L206 387z"/>
<path style="fill:#d7887d; stroke:none;" d="M155 388L155 392L155.549 390.975L155.549 390.62L155.679 390L155.549 389.025L155 388z"/>
<path style="fill:#e8a9a1; stroke:none;" d="M206.333 390.667L206.333 391L206.667 391.333L206.667 391L206.333 390.667z"/>
<path style="fill:#cd6e68; stroke:none;" d="M205.333 396.667L205.333 397L205.667 397.333L205.667 397L205.333 396.667M156 397L156 400L156.579 399.125L156.579 398.801L156.579 397.875L156 397z"/>
<path style="fill:#e8a9a1; stroke:none;" d="M205.333 398.667L205.333 399L205.667 399.333L205.667 399L205.333 398.667M156 400L156 403L156.579 402.125L156.579 401.199L156.579 400.875L156 400z"/>
<path style="fill:#cd6e68; stroke:none;" d="M204.333 404.667L204.333 405L204.667 405.333L204.667 405L204.333 404.667z"/>
<path style="fill:#d7887d; stroke:none;" d="M204.333 406.667L204.333 407L204.667 407.333L204.667 407L204.333 406.667z"/>
<path style="fill:#ca5652; stroke:none;" d="M157 407L158 408L157 407z"/>
<path style="fill:#d7887d; stroke:none;" d="M157 408L157 411L157.579 410.125L157.579 409.801L157.579 408.875L157 408z"/>
<path style="fill:#cd6e68; stroke:none;" d="M203.333 412.667L203.333 413L203.667 413.333L203.667 413L203.333 412.667z"/>
<path style="fill:#e8a9a1; stroke:none;" d="M203.333 414.667L203.333 415L203.667 415.333L203.667 415L203.333 414.667z"/>
<path style="fill:#d7887d; stroke:none;" d="M158 415L158 418L158.579 417.125L158.579 416.199L158.579 415.875L158 415z"/>
<path style="fill:#e8a9a1; stroke:none;" d="M158 418L158 421L158.579 420.125L158.579 419.199L158.579 418.875L158 418z"/>
<path style="fill:#cd6e68; stroke:none;" d="M202.333 419.667L202.333 420L202.667 420.333L202.667 420L202.333 419.667z"/>
<path style="fill:#e8a9a1; stroke:none;" d="M202 421L202 424L202.579 423.125L202.579 422.801L202.579 421.875L202 421z"/>
<path style="fill:#cd6e68; stroke:none;" d="M159 423L159 426L159.579 425.125L159.579 424.801L159.579 423.875L159 423z"/>
<path style="fill:#96372f; stroke:none;" d="M201 424L202 425L201 424z"/>
<path style="fill:#e8a9a1; stroke:none;" d="M159 426L159 429L159.579 428.125L159.579 427.801L159.579 426.875L159 426z"/>
<path style="fill:#d7887d; stroke:none;" d="M201.333 427.667L201.333 428L201.667 428.333L201.667 428L201.333 427.667z"/>
<path style="fill:#e8a9a1; stroke:none;" d="M201 429L201 432L201.579 431.125L201.579 430.199L201.579 429.875L201 429z"/>
<path style="fill:#d7887d; stroke:none;" d="M160.333 432.667L160.333 433.333L160.667 433.333L160.667 433L160.333 432.667M200 434L200 437L200.579 436.125L200.579 435.801L200.579 434.875L200 434z"/>
<path style="fill:#ca5652; stroke:none;" d="M161.333 438.667L161.333 439.333L161.667 439.333L161.667 438.667L161.333 438.667z"/>
<path style="fill:#e8a9a1; stroke:none;" d="M161 440L161 443L161.579 442.125L161.579 441.801L161.579 440.875L161 440z"/>
<path style="fill:#d7887d; stroke:none;" d="M199 442L199 445L199.579 444.125L199.579 443.801L199.579 442.875L199 442z"/>
<path style="fill:#cd6e68; stroke:none;" d="M162 445L162 448L162.579 447.125L162.579 446.801L162.579 445.875L162 445z"/>
<path style="fill:#e8a9a1; stroke:none;" d="M162.333 448.667L162.333 449L162.667 449.333L162.667 449L162.333 448.667z"/>
<path style="fill:#d7887d; stroke:none;" d="M198 448L198 451L198.579 450.125L198.579 449.199L198.579 448.875L198 448M163 453L163 456L163.579 455.125L163.579 454.801L163.579 453.875L163 453M197 455L197 458L197.579 457.125L197.579 456.801L197.579 455.875L197 455z"/>
<path style="fill:#cd6e68; stroke:none;" d="M164.333 460.667L164.333 461L164.667 461.333L164.667 461L164.333 460.667z"/>
<path style="fill:#d7887d; stroke:none;" d="M196 461L196 464L196.579 463.125L196.579 462.801L196.579 461.875L196 461z"/>
<path style="fill:#e8a9a1; stroke:none;" d="M164.333 462.667L164.333 463L164.667 463.333L164.667 463L164.333 462.667z"/>
<path style="fill:#cd6e68; stroke:none;" d="M165.333 467.667L165.333 468L165.667 468.333L165.667 468L165.333 467.667z"/>
<path style="fill:#d7887d; stroke:none;" d="M195.333 468.667L195.333 469L195.667 469.333L195.667 469L195.333 468.667z"/>
<path style="fill:#e8a9a1; stroke:none;" d="M165 469L165 472L165.579 471.125L165.579 470.801L165.579 469.875L165 469z"/>
<path style="fill:#96372f; stroke:none;" d="M166 472L167 473L166 472z"/>
<path style="fill:#d7887d; stroke:none;" d="M166 474L166 477L166.579 476.125L166.579 475.199L166.579 474.875L166 474M194.333 474.667L194.333 475L194.667 475.333L194.667 475L194.333 474.667z"/>
<path style="fill:#cd6e68; stroke:none;" d="M167 480L167 483L167.579 482.125L167.579 481.801L167.579 480.875L167 480z"/>
<path style="fill:#d7887d; stroke:none;" d="M193.333 480.667L193.333 481L193.667 481.333L193.667 481L193.333 480.667M192.333 486.667L192.333 487L192.667 487.333L192.667 486.667L192.333 486.667z"/>
<path style="fill:#e8a9a1; stroke:none;" d="M168.333 488.667L168.333 489.333L168.667 489.333L168.667 489L168.333 488.667z"/>
<path style="fill:#d7887d; stroke:none;" d="M191.333 492.667L191.333 493.333L191.667 493.333L191.667 492.667L191.333 492.667z"/>
<path style="fill:#cd6e68; stroke:none;" d="M169 493L169 496L169.579 495.125L169.579 494.801L169.579 493.875L169 493M190.333 497.667L190.333 498.333L190.667 498.333L190.667 498L190.333 497.667z"/>
<path style="fill:#e8a9a1; stroke:none;" d="M190 499L190 502L190.579 501.125L190.579 500.199L190.579 499.875L190 499z"/>
<path style="fill:#d7887d; stroke:none;" d="M170.333 500.667L170.333 501.333L170.667 501.333L170.667 501L170.333 500.667z"/>
<path style="fill:#ca5652; stroke:none;" d="M189 503L190 504L189 503z"/>
<path style="fill:#e8a9a1; stroke:none;" d="M189.333 504.667L189.333 505L189.667 505.333L189.667 505L189.333 504.667z"/>
<path style="fill:#d7887d; stroke:none;" d="M171.333 506.667L171.333 507.333L171.667 507.333L171.667 507L171.333 506.667M188.333 508.667L188.333 509L188.667 509.333L188.667 509L188.333 508.667z"/>
<path style="fill:#e8a9a1; stroke:none;" d="M188.333 510.667L188.333 511L188.667 511.333L188.667 511L188.333 510.667z"/>
<path style="fill:#d7887d; stroke:none;" d="M172 512L172 515L172.579 514.125L172.579 513.801L172.579 512.875L172 512z"/>
<path style="fill:#ca5652; stroke:none;" d="M185 512L186 513L185 512z"/>
<path style="fill:#d7887d; stroke:none;" d="M187.333 513.667L187.333 514L187.667 514.333L187.667 514L187.333 513.667z"/>
<path style="fill:#cd6e68; stroke:none;" d="M173.333 518.667L173.333 519L173.667 519.333L173.667 519L173.333 518.667M186.333 518.667L186.333 519L186.667 519.333L186.667 519L186.333 518.667z"/>
<path style="fill:#e8a9a1; stroke:none;" d="M173 520L173 523L173.579 522.125L173.579 521.801L173.579 520.875L173 520z"/>
<path style="fill:#cd6e68; stroke:none;" d="M185 522L185 525L185.579 524.125L185.579 523.801L185.579 522.875L185 522z"/>
<path style="fill:#96372f; stroke:none;" d="M174 523L175 524L174 523z"/>
<path style="fill:#e8a9a1; stroke:none;" d="M174 525L174 528L174.579 527.125L174.579 526.801L174.579 525.875L174 525M184.333 528.667L184.333 529.333L184.667 529.333L184.667 529L184.333 528.667z"/>
<path style="fill:#d7887d; stroke:none;" d="M175.333 530.667L175.333 531L175.667 531.333L175.667 530.667L175.333 530.667z"/>
<path style="fill:#ca5652; stroke:none;" d="M183 531L184 532L183 531z"/>
<path style="fill:#d7887d; stroke:none;" d="M183 532L184 533L183 532z"/>
<path style="fill:#ab5e50; stroke:none;" d="M182 533L182 536L182.579 535.125L182.579 534.199L182.579 533.875L182 533z"/>
<path style="fill:#96372f; stroke:none;" d="M176 534L177 535L176 534z"/>
<path style="fill:#61251b; stroke:none;" d="M176.667 535.333L176.667 535.667L177.333 535.667L177 535.333L176.667 535.333z"/>
<path style="fill:#96372f; stroke:none;" d="M181 535L182 536L181 535z"/>
<path style="fill:#b98d2f; stroke:none;" d="M176 536L176 551L176 556C175.999 557.332 176.019 558.669 175.961 560C175.917 561.006 175.838 562.001 175.715 563L175.17 567C174.98 568.995 175.003 570.999 175 573L175.005 577.999L175.059 579.981L175.148 580.941L175.318 581.851L176.023 583.377L176.584 583.914L177.259 584.248L178 584.364L178.741 584.248L179.416 583.914L179.977 583.377L180.682 581.851L180.852 580.941L180.941 579.981L180.995 577.999L181 573L181 565C181.003 563.334 180.976 561.663 181.09 560L181.285 558L181.715 555C181.844 554.002 181.917 553.005 181.961 552L181.999 549L182 546L182 536L176 536z"/>
<path style="fill:#676666; stroke:none;" d="M182 536L182 539L182.579 538.125L182.579 537.801L182.579 536.875L182 536z"/>
<path style="fill:#b1b1b1; stroke:none;" d="M175 539L175 544L175.57 542.933L175.608 542.542L175.746 541.817L175.608 540.458L175.57 540.067L175 539M182 539L182 547L182.585 545.914L182.641 545.484L182.836 544.684L182.932 543L182.836 541.316L182.641 540.516L182.585 540.086L182 539z"/>
<path style="fill:#858383; stroke:none;" d="M175 544L175 552L175.585 550.914L175.641 550.484L175.836 549.684L175.932 548L175.836 546.316L175.641 545.516L175.585 545.086L175 544z"/>
<path style="fill:#676666; stroke:none;" d="M175 552L175 560L175.585 558.914L175.641 558.484L175.836 557.684L175.932 556L175.836 554.316L175.641 553.516L175.585 553.086L175 552z"/>
<path style="fill:#303030; stroke:none;" d="M181 556L181 563L181.584 561.914L181.639 561.488L181.826 560.698L181.873 559.079L181.826 558.302L181.639 557.512L181.584 557.086L181 556z"/>
<path style="fill:#281511; stroke:none;" d="M175 560L175 565L175.57 563.933L175.608 563.542L175.746 562.817L175.608 561.458L175.57 561.067L175 560z"/>
<path style="fill:#858383; stroke:none;" d="M181 563L181 571L181.585 569.914L181.641 569.484L181.836 568.684L181.932 567L181.836 565.316L181.641 564.516L181.585 564.086L181 563z"/>
<path style="fill:#b1b1b1; stroke:none;" d="M174 576L174 579L174.579 578.125L174.579 577.801L174.579 576.875L174 576z"/>
<path style="fill:#858383; stroke:none;" d="M174 579L174 584L174.57 582.933L174.608 582.542L174.746 581.817L174.608 580.458L174.57 580.067L174 579z"/>
<path style="fill:#303030; stroke:none;" d="M175 584L176 585L175 584z"/>
<path style="fill:#858383; stroke:none;" d="M180 584L181 585L180 584z"/>
<path style="fill:#b1b1b1; stroke:none;" d="M177 585L177.909 585.585L178.347 585.653L180 586L179.091 585.415L178.653 585.347L177 585z"/>
</svg>
