<?xml version="1.0" encoding="utf-8"?>
<!-- Generator: Adobe Illustrator 28.0.0, SVG Export Plug-In . SVG Version: 6.00 Build 0)  -->
<svg version="1.1" id="Calque_1" xmlns="http://www.w3.org/2000/svg" xmlns:xlink="http://www.w3.org/1999/xlink" x="0px" y="0px"
	 viewBox="0 0 800 800" style="enable-background:new 0 0 800 800;" xml:space="preserve">
<path d="M251.6,527c6.4,0,11.6,4.9,11.6,11s-5.2,11-11.6,11c-6.4,0-11.6-4.9-11.6-11S245.2,527,251.6,527z M240,564.3
	c-1.5,0.7-4.6,6.6-4.6,6.6s-1.5,2.2-2.3,11l-6.9-2.2l2.3-11c0,0,4.6-15.3,13.9-15.3h18.5c9.2,0,13.9,15.3,13.9,15.3l2.3,11l-6.9,2.2
	c-0.8-8.8-2.3-11-2.3-11s-3.1-5.8-4.6-6.6l0.9,19.9c-3.5,1.3-7.3,2-11.3,2c-4.9,0-9.5-1.1-13.6-2.9L240,564.3z M210.1,561.6l-2,0.1
	v-3.8l2-0.1c6.3,0,12.3,1.6,17.4,4.4l-1.3,3.7C221.5,563.2,216,561.6,210.1,561.6z M240.5,592.3l0.1-1.9l-0.1-2.7l2.3,0.7l1.7,3.9
	H240.5z M214.2,600H200v-13.4h8.1c3.4,0,6.1,2.6,6.1,5.8V600z M209.1,576.9c8.4,0,15.2,6.5,15.2,14.4l0,1h-4.1l0-1
	c0-5.8-5-10.6-11.1-10.6l-1,0V577L209.1,576.9z M210.1,567.3c5.4,0,10.5,1.7,14.5,4.5l-0.3,4.8c-3.7-3.4-8.7-5.5-14.2-5.5l-2,0.1
	v-3.9L210.1,567.3z M234.4,590.4l-0.1,1.9h-4.1l0.1-1.9c0-2.1-0.4-4.1-1-6l4.4,0.6C234.2,586.7,234.4,588.5,234.4,590.4z"/>
</svg>
