<?xml version="1.0" encoding="utf-8"?>
<!-- Generator: Adobe Illustrator 25.3.0, SVG Export Plug-In . SVG Version: 6.00 Build 0)  -->
<svg version="1.1" id="mesures_spa" xmlns="http://www.w3.org/2000/svg" xmlns:xlink="http://www.w3.org/1999/xlink" x="0px" y="0px"
	 viewBox="0 0 337 252" style="enable-background:new 0 0 337 252;" xml:space="preserve">
<style type="text/css">
	.spa0{fill:#0000BF;}
	.spa1{fill:#00FFFF;}
	.spa2{font-family:'ArialMT';}
	.spa3{font-size:12px;}
	.spa4{letter-spacing:33;}
	.spa5{fill:#FFFF00;stroke:#000000;stroke-miterlimit:10;}
	.spa6{fill:#00FF00;}
	.spa7{fill:#3FA9F5;}
	.spa8{fill:#94FFFD;stroke:#000000;stroke-miterlimit:10;}
	.spa9{fill:#FEC9FF;}
	.spa10{fill:#355CFF;}
	.spa11{fill:#FFFFFF;}
	.spa12{font-size:9px;}
	.spa13{font-size:15px;}
	.spa14{font-size:15.0005px;}
	.spa15{font-size:12.6088px;}
	.spa16{font-size:11.6215px;}
</style>
<g>
	<path class="spa0" d="M10,247c-2.8,0-5-2.2-5-5V10c0-2.8,2.2-5,5-5h317c2.8,0,5,2.2,5,5v232c0,2.8-2.2,5-5,5H10z"/>
	<path class="spa0" d="M327,10v232H10V10H327 M327,0H10C4.5,0,0,4.5,0,10v232c0,5.5,4.5,10,10,10h317c5.5,0,10-4.5,10-10V10
		C337,4.5,332.5,0,327,0L327,0z"/>
</g>
<g>
	<rect x="43" y="36.5" class="spa1" width="256.7" height="145.9"/>
	<path d="M299,37.1V182H43.6V37.1H299 M300.3,36h-258v147h258V36L300.3,36z"/>
</g>
<text transform="matrix(1 0 0 1 56.8985 63.5982)" class="spa2 spa3">PH</text>
<text transform="matrix(1 0 0 1 152.1615 62.9263)" class="spa2 spa3">    ORP</text>
<text transform="matrix(1 0 0 1 132.2758 83.6919)" class="spa2 spa3">Températures   : </text>
<text transform="matrix(1 0 0 1 83.5654 130.1042)" class="spa2 spa3 spa4">  </text>
<text transform="matrix(1 0 0 1 158.6015 103.9734)" class="spa2 spa3">    Air</text>
<text transform="matrix(1 0 0 1 63.7774 150.1797)" class="spa2 spa3">Débit Filtration :</text>
<rect x="80" y="47" class="spa5" width="72.2" height="21"/>
<g>
	<rect x="198.7" y="47.5" class="spa6" width="66.7" height="20"/>
	<path d="M264.7,48v19h-65.4V48H264.7 M266,47h-68v21h68V47L266,47z"/>
</g>
<g>
	<rect x="80.8" y="94" class="spa7" width="71" height="20"/>
	<path d="M151.1,94.5v19H81.3v-19H151.1 M152.3,93.5H80.1v21h72.2L152.3,93.5L152.3,93.5z"/>
</g>
<rect x="198.2" y="91.5" class="spa8" width="67.8" height="21"/>
<g>
	<rect x="155.6" y="136.6" class="spa9" width="61" height="20"/>
	<path d="M216.1,137.1v19h-60v-19H216.1 M217.1,136.1h-62v21h62V136.1L217.1,136.1z"/>
</g>
<g>
	<ellipse class="spa10" cx="169" cy="207" rx="49.5" ry="23.5"/>
	<path d="M169,184c13.2,0,25.6,2.5,34.9,6.9C213,195.3,218,201,218,207s-5,11.7-14.1,16.1c-9.3,4.5-21.7,6.9-34.9,6.9
		s-25.6-2.5-34.9-6.9C125,218.7,120,213,120,207s5-11.7,14.1-16.1C143.4,186.5,155.8,184,169,184 M169,183c-27.6,0-50,10.7-50,24
		s22.4,24,50,24s50-10.7,50-24S196.6,183,169,183L169,183z"/>
</g>
<g>
	<g id="g2514_1_" transform="matrix(0,-1,1,0,28.57143,680.00001)">
		<path id="path2516_1_" d="M493,147.5c0,0.1-19.5,39-19.5,39c-0.1-0.1-19.5-39-19.5-39s4.4,1.9,9.8,4.2l9.7,4.2l9.7-4.2
			C488.5,149.3,492.9,147.4,493,147.5C493,147.4,493,147.4,493,147.5z"/>
	</g>
</g>
<g>
	<g id="g2514_2_" transform="matrix(0,-1,1,0,28.57143,680.00001)">
		<path id="path2516_2_" d="M493.4,134.2c0-0.1-19.5-39-19.5-39c-0.1,0.1-19.5,39-19.5,39s4.4-1.9,9.8-4.2l9.7-4.2l9.7,4.2
			C489,132.4,493.4,134.3,493.4,134.2C493.4,134.3,493.4,134.2,493.4,134.2z"/>
	</g>
</g>
<text transform="matrix(1 0 0 1 41.4414 27.3308)" class="spa11 spa2 spa3">MESURE PH-REDOX-TEMPERATURES-DEBIT</text>
<text transform="matrix(1 0 0 1 19.522 221.5869)" class="spa11 spa2 spa12">NodeMcu esp8266</text>
<text id="ph" transform="matrix(1 0 0 1 84 60.6138)" class="spa2 spa13">ph</text>
<text id="orp" transform="matrix(1 0 0 1 203.2178 60.6026)" class="spa2 spa13">orp</text>
<text id="temp_eau" transform="matrix(1 -8.293536e-03 8.293536e-03 1 90 106.4827)" class="spa2 spa14">temp</text>
<text id="temp_air" transform="matrix(1.1896 0 0 1 208.5146 103.9736)" class="spa2 spa15">temp</text>
<text id="debit" transform="matrix(1 0 0 1 160 150.1799)" class="spa2 spa13">m3/h</text>
<text transform="matrix(1.0326 0 0 1 58 99.6831)" class="spa2 spa16">Eau </text>
</svg>
