<?xml version="1.0" encoding="utf-8"?>
<!-- Generator: Adobe Illustrator 25.3.0, SVG Export Plug-In . SVG Version: 6.00 Build 0)  -->
<svg version="1.1" id="Layer_1" xmlns="http://www.w3.org/2000/svg" xmlns:xlink="http://www.w3.org/1999/xlink" x="0px" y="0px"
	 viewBox="0 0 522 531" style="enable-background:new 0 0 522 531;" xml:space="preserve">
<style type="text/css">
	.st0{fill:#FF6666;}
	.st1{fill:#FF7876;}
	.st2{fill:#58595B;}
</style>
<path class="st0" d="M309.3,472.1c44.1,44.1,115.7,44.1,159.8,0l0,0c44.1-44.1,44.1-115.7,0-159.8L343.5,186.5L183.6,346.4
	L309.3,472.1z"/>
<path class="st1" d="M343.5,186.5L217.8,60.8c-44.1-44.1-115.7-44.1-159.8,0l0,0c-44.1,44.1-44.1,115.7,0,159.8l125.7,125.7
	L343.5,186.5z"/>
<g>
	<path class="st2" d="M483.2,298.2C472.1,287.2,242.8,57.8,231.8,46.8C180-4.9,95.7-4.9,43.9,46.8c-51.8,51.8-51.8,136,0,187.8
		C55,245.7,284.4,475.1,295.3,486.1c51.8,51.8,136,51.8,187.8,0C534.9,434.3,534.9,350,483.2,298.2z M71.9,74.8
		c36.4-36.4,95.5-36.4,131.9,0l111.7,111.7L183.6,318.4L71.9,206.7C35.6,170.3,35.6,111.2,71.9,74.8z M455.2,458.1
		c-36.4,36.4-95.5,36.4-131.9,0L211.6,346.4l131.9-131.9l111.7,111.7C491.6,362.6,491.6,421.6,455.2,458.1z"/>
</g>
</svg>
