<?xml version="1.0" encoding="utf-8"?>
<!-- Generator: Adobe Illustrator 28.0.0, SVG Export Plug-In . SVG Version: 6.00 Build 0)  -->
<svg version="1.1"
	 id="svg2" xmlns:rdf="http://www.w3.org/1999/02/22-rdf-syntax-ns#" xmlns:dc="http://purl.org/dc/elements/1.1/" xmlns:cc="http://creativecommons.org/ns#" xmlns:svg="http://www.w3.org/2000/svg"
	 xmlns="http://www.w3.org/2000/svg" xmlns:xlink="http://www.w3.org/1999/xlink" x="0px" y="0px" viewBox="0 0 491.5 458.7"
	 style="enable-background:new 0 0 491.5 458.7;" xml:space="preserve">
<style type="text/css">
	.st0{fill-rule:evenodd;clip-rule:evenodd;fill:#EF3511;}
</style>
<g id="g10" transform="matrix(1.3333333,0,0,-1.3333333,0,458.68)">
	<g id="g12" transform="scale(0.1)">
		<path id="path14" class="st0" d="M995.3,950.3h47c545-129.6,1056.8-129.6,1601.7,0h47c43.3,0,78.8-43.2,78.8-96V370.5
			c0-52.8-35.5-96-78.8-96H995.3c-43.3,0-78.8,43.2-78.8,96v483.8C916.5,907.1,951.9,950.3,995.3,950.3z M2467.2,677.6
			c-72.8,0-131.8-59-131.8-131.8s59-131.8,131.8-131.8c72.8,0,131.8,59,131.8,131.8S2540,677.6,2467.2,677.6z M1241.9,677.6
			c-72.8,0-131.8-59-131.8-131.8s59-131.8,131.8-131.8c72.8,0,131.8,59,131.8,131.8S1314.7,677.6,1241.9,677.6z M1527.6,621.9
			c-28.5,0-51.8-28.4-51.8-63.1l0,0c0-34.7,23.3-63.1,51.8-63.1h631c28.5,0,51.8,28.4,51.8,63.1l0,0c0,34.7-23.3,63.1-51.8,63.1
			H1527.6"/>
		<path id="path16" class="st0" d="M1024.8,870.4c3.8,472.5,346.3,587.6,347.3,587.9l15.2,2.7h911.6l15.2-2.7
			c1-0.3,343.5-115.4,347.3-587.9l0.4-56.3l-45.3-10.8c-263.3-62.6-518.4-93.9-773.5-93.9s-510.2,31.3-773.5,93.9l-45.3,10.8
			L1024.8,870.4z M1395.6,1325.2c-39.2-16-232.5-109.4-257.2-399.7c239.1-53.5,471.9-80.3,704.7-80.3c232.8,0,465.6,26.8,704.7,80.3
			c-24.7,290.3-218,383.7-257.2,399.7H1395.6"/>
		<path id="path18" class="st0" d="M1464,245.8V70.2c0-38.6-31.6-70.2-70.2-70.2h-207c-38.6,0-70.2,31.6-70.2,70.2v175.5H1464"/>
		<path id="path20" class="st0" d="M2579.6,245.8V70.2c0-38.6-31.6-70.2-70.2-70.2h-207c-38.6,0-70.2,31.6-70.2,70.2v175.5H2579.6"
			/>
		<path id="path22" class="st0" d="M30.5,2452.3L1815.4,3433c18.1,9.9,39.2,9.1,56-0.3l1785-980.7c25.3-13.9,36-44,26.3-70.3
			l-78.9-223.7c-10.6-29.9-43.4-45.7-73.3-35.1c-4.1,1.4-7.9,3.3-11.3,5.4l-1676,895.5L163.7,2126.5c-28-14.9-62.7-4.3-77.6,23.6
			c-1.4,2.6-2.5,5.2-3.5,7.9l-0.1,0L3.3,2382.4C-6.3,2409.6,5.8,2439.1,30.5,2452.3"/>
		<path id="path24" class="st0" d="M606.4,2364.1V0H221.3v2279.1l34,15.4l269.9,122l81.2,36.7V2364.1"/>
		<path id="path26" class="st0" d="M3465,2242.1V0h-385.1v2453.3l81.2-36.7l269.9-122l34-15.4L3465,2242.1"/>
		<path id="path28" class="st0" d="M980,2247.7c-47.7,0-86.4,38.7-86.4,86.4c0,47.7,38.7,86.4,86.4,86.4h1726.2
			c47.7,0,86.4-38.7,86.4-86.4c0-47.7-38.7-86.4-86.4-86.4H980z M980,1645.9c-47.7,0-86.4,38.7-86.4,86.4
			c0,47.7,38.7,86.4,86.4,86.4h1726.2c47.7,0,86.4-38.7,86.4-86.4c0-47.7-38.7-86.4-86.4-86.4H980z M980,1946.8
			c-47.7,0-86.4,38.7-86.4,86.4c0,47.7,38.7,86.4,86.4,86.4h1726.2c47.7,0,86.4-38.7,86.4-86.4c0-47.7-38.7-86.4-86.4-86.4
			L980,1946.8"/>
	</g>
</g>
</svg>
