<?xml version="1.0" encoding="utf-8"?>
<!-- Generator: Adobe Illustrator 28.0.0, SVG Export Plug-In . SVG Version: 6.00 Build 0)  -->
<svg version="1.1" id="Calque_1" xmlns="http://www.w3.org/2000/svg" xmlns:xlink="http://www.w3.org/1999/xlink" x="0px" y="0px"
	 viewBox="0 0 1280 960" style="enable-background:new 0 0 1280 960;" xml:space="preserve">
<style type="text/css">
	.st0{fill:#A5290C;}
</style>
<g transform="translate(0.000000,960.000000) scale(0.100000,-0.100000)">
	<path class="st0" d="M5710,9191l-34-169l22-19c22-17,23-23,20-148l-3-130l-170-17c-93-9-232-26-308-38c-136-21-447-83-480-96
		c-15-6-17,6-17,121c0,112,2,129,19,143c18,17,18,21-16,177c-32,149-45,187-58,173c-3-3-21-79-40-169l-36-164l21-15
		c19-15,20-24,18-155l-3-139l-130-37c-233-67-579-193-777-283l-58-26v114c0,101,2,115,19,127c19,14,19,17-17,178
		c-21,91-43,166-49,168c-13,5-20-18-59-202l-27-129l22-14c20-14,21-23,21-146v-132l-177-89c-219-111-475-255-653-367l-135-85l-3,120
		c-3,119-1,128,32,140c10,3-61,327-75,341c-5,5-11,7-14,4c-5-5-75-318-75-337c0-5,9-13,20-16c19-6,20-15,20-160v-154l-127-88
		c-71-48-199-141-286-206l-159-119l8-430l7-430l-29,4l-29,3l-5,448c-4,384-7,449-20,457c-8,5-90,55-182,112l-167,103l-1,136
		c0,75-3,164-6,198l-7,61h-194h-195l6-407c4-225,20-1544,36-2933c31-2621,36-3069,46-3677l6-363h353h353l16,25c13,20,16,57,16,225
		v200h30h30V705V530h2175h2175v4107v4106l-290-7l-290-7v132c0,118,2,132,20,147c19,17,19,18-15,182c-19,90-35,166-35,167
		c0,2-6,3-13,3C5748,9360,5733,9305,5710,9191z M6230,6435V4290h-208h-209l-6,197c-4,108-7,1070-7,2139c0,1842,1,1943,18,1947
		c9,3,106,5,215,6l197,1V6435z M5720,6430V4290h-215h-215v1273c0,701-3,1652-7,2115l-6,841l25,6c32,8,330,42,381,44l37,1V6430z
		 M5180,7042c0-802,3-1750,7-2105l6-647h-221h-222v638c0,351-3,1280-7,2064l-6,1424l169,37c93,20,178,38,189,40c11,3,35,5,53,6l32,1
		V7042z M4654,7968c3-233,8-1155,11-2050l5-1628h-214h-214l-6,1238c-3,680-7,1574-8,1985l-3,749l90,29c93,31,315,98,326,99
		C4645,8390,4650,8200,4654,7968z M4125,6023l8-1733h-217h-216v518c0,284-2,627-5,762c-2,135-7,747-11,1360l-6,1115l78,34
		c44,19,140,58,214,87l135,53l6-232C4115,7859,4121,6975,4125,6023z M3594,7588c3-227,8-1023,11-1768s8-1394,11-1442l6-88h-216h-216
		l-1,133c0,72-6,857-13,1742c-10,1269-10,1613-1,1623c12,13,392,211,406,212C3584,8000,3590,7814,3594,7588z M3054,7705
		c3-8,6-223,6-478c0-254,5-928,10-1497s9-1126,10-1237v-203h-214h-214l-6,698c-4,383-11,1095-16,1582l-10,885l25,20
		c28,22,386,243,396,244C3045,7720,3050,7713,3054,7705z M2544,6425c3-500,9-1186,13-1522l6-613h-201h-200l-6,73
		c-6,72-18,1532-20,2331l-1,429l90,65c49,36,137,98,195,138l105,72l6-31C2535,7349,2540,6926,2544,6425z M1982,5095
		c4-352,14-1299,22-2105c9-806,16-1485,16-1508c0-41-1-43-27-40l-28,3l-2,145c-1,80-9,861-17,1735c-9,875-18,1776-22,2003l-6,414
		l28-4l29-3L1982,5095z M6230,3465v-665h-210h-210v48c0,36,5,52,21,65c11,10,18,25,15,35c-6,22-66,299-66,306c0,3-6,6-13,6
		c-8,0-24-52-45-157c-18-87-33-165-32-174c0-9,9-19,20-22c17-4,20-14,20-56v-51h-213h-214l-6,467c-4,256-7,553-7,660v193h215h215
		v-70c0-54-4-72-15-76c-8-4-15-18-15-32c0-51,63-322,75-322c7,0,25,60,44,153c35,172,37,193,16,201c-11,4-15,22-15,75v70l118,4
		c64,1,159,4,210,5l92,2V3465z M2564,4098c3-13,6-44,6-70c0-37-4-50-20-58c-11-6-20-19-20-30c0-25,67-310,75-318c13-13,24,21,54,161
		c37,175,37,183,11,190c-18,5-20,14-20,76v71h213h214l6-302c4-166,7-463,7-660v-358h-215h-215v50c0,39,4,52,20,60c11,6,20,18,20,28
		c0,42-73,322-85,322c-7,0-24-58-43-152c-38-180-39-195-12-203c16-5,20-15,20-56v-49h-203h-204l-6,392c-4,215-7,512-7,660v268h199
		C2557,4120,2558,4120,2564,4098z M3620,4051c0-60-3-70-22-83l-22-15l37-163c20-90,40-166,42-169c13-12,25,25,54,162
		c37,174,37,184,11,192c-17,6-20,15-20,76v69h220h220v-660v-660h-215h-215v49c0,39,4,51,22,63l22,15l-23,99c-12,54-29,129-38,167
		c-8,37-20,67-27,67c-8,0-24-57-44-153c-37-176-38-194-14-201c13-5,17-17,17-56v-50h-212h-213v193c0,107-3,404-7,660l-6,467h216h217
		V4051z M4670,4051c0-59-3-71-21-83l-22-14l38-167c23-100,43-167,50-167c11,0,76,288,75,332c0,9-9,20-20,23c-17,6-20,15-20,76v69
		h220h220v-660v-660h-215h-215v49c0,38,4,51,21,63l21,14l-36,162c-20,89-36,164-36,167s-6,5-13,5c-9,0-23-51-45-157
		c-36-178-38-193-18-193c13,0,26-41,26-86v-24h-215h-215v178c0,98-3,395-7,660l-6,482h216h217V4051z M2580,2410v-220h-199h-198
		l-7,77c-3,42-6,141-6,220v143h205h205V2410z M3090,2562c0-38,3-137,7-220l6-152h-216h-217v220v220h210h210V2562z M3630,2410v-220
		h-208h-209l-6,113c-4,61-7,160-7,220v107h215h215V2410z M4140,2502c0-71,3-170,6-220l7-92h-215h-215l-7,92c-3,50-6,149-6,220v128
		h215h215V2502z M4680,2410v-220h-215h-215v220v220h215h215V2410z M5190,2410v-220h-215h-215v220v220h215h215V2410z M5730,2410v-220
		h-215h-215v220v220h215h215V2410z M6230,2410v-220h-210h-210v220v220h210h210V2410z M2582,1905c1-63,2-132,3-152c0-36-1-38-42-45
		c-125-21-264-130-323-252c-17-36-33-66-36-66c-2,0-4,142-4,315v315h200h200L2582,1905z M3099,1653c-1-206-5-346-9-317
		c-25,172-199,348-368,373l-47,6l-3,153l-3,152h216h215L3099,1653z M3630,1865v-155h-28c-41,0-148-46-201-86c-85-65-147-164-176-283
		c-12-50-13-20-14,312l-1,367h210h210V1865z M4150,1360V700h-216h-215l3,47c3,47,3,48,45,55c136,23,275,137,334,274
		c32,74,34,85,33,189c-1,97-4,117-27,168c-39,83-94,152-157,195c-68,47-152,82-196,82h-34v155v155h215h215V1360z M4680,1865v-155
		h-30c-80,0-229-90-293-177c-42-58-86-163-89-212c-4-105-16,182-17,422l-1,277h215h215V1865z M5198,1358l2-658h-215h-215v50
		c0,47,2,50,25,50c42,0,152,47,208,89c169,128,229,373,137,565c-60,126-202,237-328,255l-47,6l-3,153l-3,152l218-2l218-3L5198,1358z
		 M5728,1868l-3-153l-40-6c-183-27-333-182-370-384c-12-63-13-31-14,313l-1,382h215h216L5728,1868z M6230,1691c0-181,3-343,7-361
		c4-24,3-31-5-26c-7,4-12,21-12,37c0,43-41,138-86,198c-61,82-199,164-289,173l-30,3l-3,153l-3,152h211h210V1691z M2777,1569
		c76-34,147-104,182-179c35-77,36-212,2-283c-32-64-99-129-169-164c-50-25-68-28-152-28s-102,3-152,28c-124,61-198,172-206,307
		c-6,103,22,175,94,247C2486,1607,2634,1634,2777,1569z M3791,1584c138-44,240-182,242-329c1-97-24-163-90-231
		c-176-184-471-137-585,93c-28,57-32,75-32,147c-1,98,27,167,93,233C3519,1596,3653,1627,3791,1584z M4854,1577c43-15,75-36,117-78
		c75-72,100-129,107-235c4-76,2-86-27-145c-35-73-50-91-108-137c-98-77-248-93-366-39c-79,36-158,119-187,196
		c-78,209,53,425,280,461C4730,1609,4783,1603,4854,1577z M5890,1582c93-32,169-104,212-199c33-74,31-190-6-265
		c-35-73-100-139-174-175c-50-25-68-28-152-28s-102,3-152,28c-74,36-139,102-174,175c-24,48-28,70-28,142c0,107,22,159,98,236
		C5617,1599,5754,1630,5890,1582z M5348,1067c29-65,81-131,138-174c57-44,168-92,212-93c32,0,32,0,32-50v-50h-215h-215l1,273
		c1,247,2,266,14,207C5322,1144,5337,1093,5348,1067z M3109,873l1-173h-215h-215v50c0,47,2,50,25,50c41,0,152,47,203,85
		c91,69,180,220,184,313C3095,1277,3108,1036,3109,873z M3257,1064c30-66,93-141,153-182c62-43,157-82,201-82c28,0,29-1,29-50v-50
		h-210h-210v73c0,39-2,158-5,262c-5,180-4,187,9,130C3232,1132,3247,1087,3257,1064z M4303,1067c32-71,85-136,146-181
		c54-40,163-86,203-86c27,0,28-2,28-50v-50h-210h-210l1,258c1,141,5,237,9,212C4273,1145,4288,1099,4303,1067z M6232,953l-3-253
		h-209h-210v50c0,50,0,50,33,50c42,1,152,48,208,90c24,19,61,55,81,81c42,53,88,158,88,199c0,21,10,49,14,38
		C6235,1206,6234,1091,6232,953z M2262,983c21-29,62-71,92-93c59-45,164-90,208-90c27,0,28-2,28-50v-50h-200h-200l1,208
		c0,200,1,206,16,167C2216,1053,2240,1011,2262,983z"/>
	<path class="st0" d="M7606,9145c-40-162-42-180-21-189c12-4,15-29,15-133v-128l-230,4c-187,2-231,1-234-10c-2-8-7-1740-10-3849
		l-6-3836l468-62c524-70,2113-283,2703-363c237-31,400-49,421-45l35,6l7,77c3,42,6,106,6,143c0,36,6,78,13,93c11,24,17,27,66,27h54
		l-6-193c-6-180-5-195,13-225l20-32h355h355v83c0,123,28,2446,35,2867c3,201,14,1119,25,2040c10,921,22,1836,25,2033l7,357h-201
		h-201l-2-197l-3-197l-182-115l-183-114l-1-346c-1-190-3-389-5-441s-4-98-4-102c0-5-21-8-47-8h-48l8,262c7,260,7,270-24,330
		c-5,10-9,75-9,146v128l-132,115c-73,63-188,159-255,213l-122,97l5,142c4,125,7,144,24,157c18,15,18,17-11,140
		c-44,187-49,200-63,200c-8,0-28-58-56-166c-44-169-44-173-7-186c4-2,6-49,5-106l-3-103l-101,75c-135,98-389,263-552,356l-131,75
		l-1,126c0,118,1,128,21,141l21,14l-38,162c-50,215-57,215-109,1l-39-161l22-17c22-16,23-22,18-109c-2-51-6-93-8-94c-2,0-22,9-45,20
		c-146,75-503,220-642,262l-71,21v130c0,120,2,132,20,147l21,17l-39,160c-26,104-44,160-53,160c-8,0-26-53-51-150
		c-44-175-44-182-18-190c18-6,20-15,20-121c0-92-3-114-14-114c-8,0-61,11-118,25c-114,28-358,70-458,80c-36,3-86,8-112,11l-48,6v128
		c0,120,1,129,20,135c11,3,20,12,20,18c0,7-16,81-36,165c-23,96-41,152-49,152S7629,9235,7606,9145z M7600,7832c0-395-3-1307-7-2026
		l-6-1307l-76,6c-42,3-104,8-138,11l-63,6v1202c0,662,3,1568,7,2014l6,812h139h138V7832z M7901,8519c48-6,91-14,95-18
		c8-5,0-4019-8-4026c-2-1-70,2-152,8l-149,11l6,1055c4,581,7,1492,7,2025v969l58-7C7789,8533,7854,8525,7901,8519z M8310,8435
		l125-31l-3-1975c-2-1086-7-1977-10-1980c-4-3-74-1-156,4l-149,10l6,1476c4,812,7,1716,7,2009v532l28-7
		C8173,8470,8241,8452,8310,8435z M8626,8340c32-10,97-34,144-53l85-33l-2-1034c-2-569-6-1433-9-1919l-6-883l-137,7
		c-75,3-144,9-155,12c-17,5-18,48-12,1411c7,1680,16,2512,26,2512C8563,8360,8593,8351,8626,8340z M9170,8110l135-67l-2-964
		c-1-530-5-1353-9-1828l-6-863l-142,6c-77,4-150,10-160,13c-18,5-19,31-12,1082c3,592,9,1442,12,1889l7,812l21-6
		C9026,8181,9096,8148,9170,8110z M9595,7877c61-36,118-72,128-79c18-13,18-71,6-1723c-6-941-13-1712-15-1714c-4-5-314,15-319,21
		c-2,2,22,3584,24,3596c1,2,16-5,34-16C9470,7952,9535,7913,9595,7877z M10030,7588c74-53,145-105,157-115l21-18l-13-1480
		c-8-814-14-1518-15-1564v-84l-132,7c-73,4-148,10-167,13l-34,6l6,966c14,1915,20,2381,31,2374C9890,7689,9956,7642,10030,7588z
		 M10474,7245c80-66,146-124,148-130c5-14-22-2808-27-2814c-5-4-305,15-309,21c-3,3,8,1327,18,2213c3,281,6,584,6,673
		c0,103,4,162,10,160C10325,7367,10395,7311,10474,7245z M10936,5478c-3-145-13-1048-21-2008c-9-960-18-1809-21-1888l-6-142h-46h-45
		l6,260c3,156,2,262-4,265c-5,4-9,15-9,25s-5,20-11,22c-7,2-5,542,6,1823c14,1538,19,1824,31,1848c8,16,14,35,14,43
		c0,10,14,14,56,14h56L10936,5478z M7583,4343c4-2,7-35,7-73c0-61-2-69-21-75c-13-4-19-13-17-23c3-10,20-81,38-160
		c44-187,51-186,102,13c37,149,37,150,18,167c-16,13-20,29-20,83v67l43-6c23-3,90-8,150-12l107-7v-628v-629h-22c-13,0-80,5-150,11
		l-128,12v54c0,38,4,55,15,59c21,8,19,29-11,147c-42,171-44,177-57,177c-10,0-88-273-87-307c0-6,9-15,20-18c16-5,20-15,20-49
		c0-23-2-45-5-47c-2-3-62,1-132,7c-70,7-131,13-135,13c-5,1-8,281-8,622v622l133-8C7515,4351,7578,4346,7583,4343z M8340,4292l85-7
		l3-72c3-64,1-72-18-78c-11-3-20-15-20-26c0-44,73-309,85-309c8,0,26,55,49,145c40,162,42,180,21,189c-11,4-15,23-15,77v72l48-6
		c26-4,96-9,156-13l109-7l-7-636c-4-349-9-637-11-639s-71,2-152,9l-148,14l-3,49c-3,42,0,53,19,67l22,16l-39,157
		c-23,95-43,156-50,156c-15,0-12,7-60-175l-36-139l21-14c16-11,21-25,21-58v-44l-42,1c-24,0-92,6-153,12l-110,12l-3,180
		c-2,99,0,383,3,632l7,452l67-6C8225,4301,8293,4295,8340,4292z M9190,4232l95-7l3-70c3-62,1-71-20-86l-22-17l39-161
		c41-168,56-193,74-123c5,20,24,93,42,162l32,124l-22,14c-18,12-21,24-21,84v70l33-5c17-3,89-9,160-13l127-6v-645
		c0-564-2-644-15-649c-8-4-81,0-163,7l-147,14l-3,49c-3,42,0,53,20,67l22,17l-39,161c-41,168-56,193-74,124c-60-227-72-286-59-294
		c7-5,16-9,21-9c4,0,7-22,7-50c0-59,14-56-187-38l-133,11v342c0,188,3,477,7,642l6,300l61-4C9068,4241,9138,4236,9190,4232z
		 M10178,4161c1-1,2-34,2-75c0-66-2-75-20-81c-11-3-20-14-20-23s16-86,37-169c38-160,54-185,72-115c5,20,23,89,40,153
		c37,137,37,146,11,154c-18,6-20,15-20,77v71l138-7c75-4,146-10,157-12c19-5,20-12,18-207c-1-111-4-406-7-655c-2-249-6-455-8-456
		c-1-2-61,3-133,10c-71,7-140,13-152,13c-21,1-23,6-23,56c0,44,4,56,20,65c11,6,20,16,20,23s-16,81-37,165c-23,99-41,152-49,152
		c-14,0-25-32-70-209l-28-114l22-15c18-12,22-24,22-64v-50l-37,6c-21,3-94,11-163,17s-127,13-129,15c-5,4-1,1286,4,1294
		C9847,4184,10155,4166,10178,4161z M7465,2947l120-12l3-207l2-208l-22,1c-13,0-75,6-138,12l-115,12l-3,208c-2,193-1,207,15,206
		C7337,2959,7399,2953,7465,2947z M7870,2907l115-12l-4-205c-2-113-5-207-7-209c-3-4-222,17-264,25l-25,4v205v205l35-1
		C7739,2919,7807,2913,7870,2907z M8265,2870c61-6,120-13,133-16c22-4,22-5,22-215v-211l-37,6c-21,3-91,11-155,17l-118,12v209v208
		h23C8145,2880,8205,2875,8265,2870z M8705,2827l120-12l3-212c2-198,1-213-15-213c-10,0-76,7-148,15c-71,8-133,15-137,15
		c-5,0-8,95-8,210v210l33-1C8570,2839,8639,2833,8705,2827z M9125,2785c77-8,143-15,148-15c4,0,7-94,7-209c0-116-3-212-7-214
		c-5-3-78,3-163,12c-135,14-155,18-154,34c0,9,1,105,2,212c2,149,5,195,15,195C8979,2800,9048,2793,9125,2785z M9540,2745
		c74-8,141-15,148-15c9,0,12-50,12-215v-215h-22c-13,0-81,7-153,15c-71,8-133,15-137,15c-5,0-8,97-8,215c0,165,3,215,13,215
		C9399,2760,9466,2753,9540,2745z M10160,2470c0-118-2-216-4-217c-2-2-76,4-165,13l-161,17v212c0,116,2,214,4,216c3,2,77-2,166-11
		l162-15L10160,2470z M10460,2657l115-12l3-217l2-218h-22c-31,0-238,20-265,26c-23,4-23,4-23,219v215l38-1
		C10328,2669,10397,2663,10460,2657z M7558,2361c22-1,22-2,22-149v-147l-50-12c-90-21-152-63-207-138l-22-30l-1,246
		c0,135,2,248,5,250c2,3,55,0,117-7S7545,2361,7558,2361z M7875,2327l100-12l3-260l2-260l-31,55c-55,97-158,184-241,204l-28,6v140
		v140l48-1C7754,2339,7820,2333,7875,2327z M8303,2279l118-12l-3-145l-3-144l-72-23c-88-27-146-69-195-138l-38-52v269v269l38-6
		C8168,2294,8238,2286,8303,2279z M8828,2221c1-1,2-121,2-268v-268l-36,60c-20,33-52,77-72,99c-46,48-132,104-172,112l-30,7v146v147
		l153-17C8756,2229,8826,2221,8828,2221z M9148,2189l122-13v-153c0-145-1-153-20-153c-34,0-145-45-185-76c-21-16-56-56-77-88l-38-59
		v275c0,151,3,278,7,282s21,5,38,2C9011,2203,9080,2195,9148,2189z M9555,2145c72-8,133-15,138-15c4,0,7-125,7-277v-278l-41,70
		c-22,39-57,87-77,108c-40,41-138,100-186,111l-29,7l7,106c3,58,6,123,6,145C9380,2167,9371,2166,9555,2145z M10015,2095
		c72-8,133-15,138-15c4,0,7-70,7-155v-155h-25c-40,0-151-45-194-79c-22-17-59-60-82-94l-42-62l7,115c3,63,6,193,6,288v172h28
		C9873,2110,9944,2103,10015,2095z M10465,2047l110-12l-1-28c0-15-1-132-2-259l-2-233l-26,45c-54,91-147,167-246,199l-38,13v149v150
		l48-6C10334,2061,10405,2053,10465,2047z M7707,1930c56-34,82-59,118-115c65-102,83-230,48-343c-19-59-77-133-124-157
		c-74-39-192-3-269,81c-153,166-136,437,35,546C7556,1968,7653,1962,7707,1930z M8528,1839c86-42,151-120,185-223
		c48-141,0-320-105-392c-35-24-51-29-102-29c-168,1-306,170-306,374c0,92,21,154,75,218C8345,1871,8427,1888,8528,1839z M9383,1742
		c92-41,162-126,198-243c46-148,0-307-112-385c-103-71-268-15-354,121c-95,149-91,338,9,452C9199,1772,9277,1789,9383,1742z
		 M10215,1660c163-43,276-198,277-381c1-106-25-171-94-241c-63-63-95-75-178-65c-90,11-177,71-236,163c-99,155-80,365,43,474
		C10091,1666,10140,1679,10215,1660z M7326,1399c37-73,151-172,220-190c32-9,34-12,34-54c0-52,14-50-155-27l-120,17l-3,143
		c-1,78,0,142,2,142C7307,1430,7317,1416,7326,1399z M7976,1063c-2-3-69,4-148,14l-143,18l-3,47l-3,46l73,22c90,27,149,68,191,134
		l32,51l3-164C7979,1141,7978,1065,7976,1063z M8144,1303c62-102,156-180,249-207c13-4,17-16,17-51c0-25-1-45-2-45c-2,0-70,9-152,20
		c-81,11-150,20-153,20c-2,0-3,72-2,160s4,160,5,160S8124,1334,8144,1303z M8816,953c-5-5-258,25-289,33c-15,5-17,14-15,51l3,45
		l76,22c87,25,152,72,196,142l28,44l3-166C8819,1032,8818,955,8816,953z M9058,1108c54-57,132-110,185-122c24-6,27-11,27-51
		c0-30-4-45-13-45c-7,0-78,9-157,20s-145,20-147,20s-3,77-3,172v172l28-54C8993,1190,9029,1140,9058,1108z M9688,835
		c-2-1-74,7-160,18l-158,21v47v47l78,24c94,29,159,75,204,143l33,51l3-174C9689,916,9689,836,9688,835z M9928,999
		c48-53,139-113,190-124c31-6,32-8,32-56c0-43-3-50-17-45c-10,2-84,13-165,22l-148,18v180v179l33-63C9870,1075,9904,1025,9928,999z
		 M10564,883c-4-87-8-159-9-161c-3-3-197,21-272,33c-32,6-33,8-33,53v47l82,23c90,25,173,79,204,132c10,16,22,30,26,30
		C10567,1040,10567,969,10564,883z"/>
</g>
</svg>
