<?xml version="1.0" encoding="utf-8"?>
<!-- Generator: Adobe Illustrator 22.0.0, SVG Export Plug-In . SVG Version: 6.00 Build 0)  -->
<svg version="1.1" xmlns="http://www.w3.org/2000/svg" xmlns:xlink="http://www.w3.org/1999/xlink" x="0px" y="0px"
	 viewBox="0 0 492 492" style="enable-background:new 0 0 492 492;" xml:space="preserve">
<style type="text/css">
	.st0{fill-rule:evenodd;clip-rule:evenodd;fill:#E0E0E0;}
</style>
<g id="Guides_For_Artboard">
</g>
<g id="Layer_1">
	<path d="M65,173.5l178.5-98.1c1.8-1,3.9-0.9,5.6,0l178.5,98.1c2.5,1.4,3.6,4.4,2.6,7l-7.9,22.4c-1.1,3-4.3,4.6-7.3,3.5
		c-0.4-0.1-0.8-0.3-1.1-0.5l-167.6-89.6L78.3,206.1c-2.8,1.5-6.3,0.4-7.8-2.4c-0.1-0.3-0.3-0.5-0.3-0.8l0,0l-7.9-22.4
		C61.3,177.8,62.5,174.8,65,173.5L65,173.5z M246.3,87L74.7,181.3l4.1,11.5l164.7-88c1.6-0.9,3.7-1,5.4,0l164.7,88l4.1-11.5
		L246.3,87z"/>
	<path d="M122.6,182.3V413v5.8h-5.8h-27h-5.8V413V194.5v-3.7l3.4-1.5l27-12.2l8.1-3.7V182.3L122.6,182.3z M111.1,407.2v-216l-15.5,7
		v209H111.1z"/>
	<path d="M174.7,388.2H208h3.1c1.7,0,3,1.3,3,3v3.1v11.9c0,1.8-0.4,3.6-1,5.2c-0.7,1.7-1.7,3.2-3,4.4c-1.3,1.3-2.8,2.3-4.4,3
		c-1.6,0.7-3.4,1-5.2,1h-18.1c-1.8,0-3.6-0.4-5.2-1c-1.7-0.7-3.2-1.7-4.4-3c-1.3-1.3-2.3-2.8-3-4.4c-0.7-1.6-1-3.4-1-5.2v-11.9v-3.1
		c0-1.7,1.3-3,3-3H174.7L174.7,388.2z M201.9,400.4h-21.1v5.8c0,0.2,0,0.4,0.1,0.6c0.1,0.2,0.2,0.3,0.3,0.5c0.1,0.1,0.3,0.3,0.5,0.3
		c0.2,0.1,0.4,0.1,0.6,0.1h18.1c0.2,0,0.4,0,0.6-0.1c0.2-0.1,0.3-0.2,0.5-0.3c0.1-0.1,0.3-0.3,0.3-0.5c0.1-0.2,0.1-0.4,0.1-0.6
		V400.4z"/>
	<path d="M285.5,388.2h33.3h3.1c1.7,0,3,1.3,3,3v3.1v11.9c0,1.8-0.4,3.6-1,5.2c-0.7,1.7-1.7,3.2-3,4.4c-1.3,1.3-2.8,2.3-4.4,3
		c-1.6,0.7-3.4,1-5.2,1h-18.1c-1.8,0-3.6-0.4-5.2-1c-1.7-0.7-3.2-1.7-4.4-3l2.1-2.1l-2.1,2.1l0,0c-1.2-1.2-2.2-2.7-2.9-4.4
		c-0.7-1.6-1-3.4-1-5.2v-11.9v-3.1c0-1.7,1.3-3,3-3H285.5L285.5,388.2z M312.7,400.4h-21.1v5.8c0,0.2,0,0.4,0.1,0.6
		c0.1,0.2,0.2,0.4,0.3,0.5l-2.1,2.1l2.1-2.1l0,0c0.1,0.1,0.3,0.3,0.5,0.3c0.2,0.1,0.4,0.1,0.6,0.1h18.1c0.2,0,0.4,0,0.6-0.1
		c0.2-0.1,0.3-0.2,0.5-0.3l0,0c0,0,0.1-0.1,0.1-0.1c0.1-0.1,0.2-0.3,0.2-0.4c0.1-0.2,0.1-0.4,0.1-0.6V400.4z"/>
	<path d="M408.4,194.5V413v5.8h-5.8h-27h-5.8V413V182.3v-8.9l8.1,3.7l27,12.2l3.4,1.5V194.5L408.4,194.5z M396.9,407.2v-209l-15.5-7
		v216H396.9z"/>
	<path d="M159.9,191.1c-3.2,0-5.8-2.6-5.8-5.8c0-3.2,2.6-5.8,5.8-5.8h172.6c3.2,0,5.8,2.6,5.8,5.8c0,3.2-2.6,5.8-5.8,5.8H159.9z"/>
	<path d="M159.9,221.2c-3.2,0-5.8-2.6-5.8-5.8c0-3.2,2.6-5.8,5.8-5.8h172.6c3.2,0,5.8,2.6,5.8,5.8c0,3.2-2.6,5.8-5.8,5.8H159.9z"/>
	<path d="M159.9,251.3c-3.2,0-5.8-2.6-5.8-5.8c0-3.2,2.6-5.8,5.8-5.8h172.6c3.2,0,5.8,2.6,5.8,5.8c0,3.2-2.6,5.8-5.8,5.8H159.9z"/>
	<path class="st0" d="M313,359.5c-1.1-1.1-2.7-1.8-4.4-1.8c-1.7,0-3.3,0.7-4.4,1.8c-1.1,1.1-1.8,2.7-1.8,4.4c0,1.7,0.7,3.3,1.8,4.4
		c1.1,1.1,2.7,1.8,4.4,1.8c1.7,0,3.3-0.7,4.4-1.8c1.1-1.1,1.8-2.7,1.8-4.4C314.8,362.2,314.1,360.6,313,359.5z"/>
	<path class="st0" d="M190.1,363.9c0-1.7-0.7-3.3-1.8-4.4c-1.1-1.1-2.7-1.8-4.4-1.8c-1.7,0-3.3,0.7-4.4,1.8
		c-1.1,1.1-1.8,2.7-1.8,4.4c0,1.7,0.7,3.3,1.8,4.4c1.1,1.1,2.7,1.8,4.4,1.8c1.7,0,3.3-0.7,4.4-1.8
		C189.4,367.2,190.1,365.7,190.1,363.9z"/>
	<path d="M344.5,337.8L344.5,337.8l-0.1-0.8c0-0.2-0.1-0.4-0.1-0.6l0,0c-1.2-3.5-4.4-5.6-8.1-6.8c0,0-0.1,0-0.1,0l-0.9,2.8l0.9-2.8
		c-2.3-0.8-4.8-1.2-6.9-1.4c-7.3-29.7-28.6-44.4-31.1-46.1c-0.3-0.2-0.6-0.4-1-0.5l0,0l-1.3-0.4c-0.3-0.1-0.7-0.2-1.1-0.2l-0.1,3
		l0.1-3l-47.6-1c-0.1,0-0.2,0-0.3,0h-0.1v0h-0.1l0,0l-47.6,1c-0.4,0-0.7,0-1.1,0.1l0.1,0.3l-0.1-0.3l-1.3,0.4
		c-0.3,0.1-0.6,0.2-0.9,0.4l0,0c-0.1,0-0.1,0.1-0.2,0.1l0,0c-2,1.3-23.8,16.1-31.2,46.1c-2,0.2-4.4,0.7-6.7,1.4
		c-0.1,0-0.1,0-0.2,0.1l0.9,2.8l-0.9-2.8c-3.6,1.2-6.8,3.2-8.1,6.5c-0.1,0.2-0.2,0.5-0.2,0.8l0.2,0l0,0l-0.2,0l-0.1,0.8
		c0,0.2-0.1,0.4-0.1,0.6v45.8c0,0.2,0,0.4,0,0.5l0,0l0.1,0.7l0,0l0,0l0,0l0,0c0,0.1,0,0.1,0,0.2l0,0l0,0l0,0l0,0.1l0,0
		c0,0.1,0,0.1,0,0.2l0,0c0.1,0.3,5.2,16.6,22.5,11.2h75h75c16,5,21.6-8.6,22.4-10.9l0,0l0,0l0,0l0,0c0,0,0-0.1,0-0.1l0,0
		c0-0.1,0.1-0.3,0.1-0.4l-0.1,0l0,0l0.1,0l0.1-0.7c0.1-0.2,0.1-0.5,0.1-0.7v-45.8C344.5,338.2,344.5,338,344.5,337.8z M335.4,383.7
		c-0.7,1.7-3.6,7.4-11.7,4.5l-1-0.2h-75.9h-75.9l-1,0.2c-4,1.4-6.8,0.7-8.6-0.6l1.7-2.4c-0.9-0.6-1.5-1.5-1.8-2.1v-42.3
		c0.3-0.1,0.7-0.1,1.1-0.2c3-0.5,7.1-0.5,7.1-0.5v0h0v0l2.3,0c1.5,0.1,2.9-0.9,3.2-2.4l-3-0.5l0.5-2.5c5.1-27.6,23.7-41.7,27.5-44.3
		l46.9-1l46.9,1c3.8,2.6,22.4,16.8,27.5,44.3l0.5,2.5l2.5,0c0,0,9.7,0,11.2,2V383.7z"/>
	<path d="M214.9,360.9c-1.7,0-3.1,1.4-3.1,3.1c0,1.7,1.4,3.1,3.1,3.1h31.6h32c1.7,0,3.1-1.4,3.1-3.1c0-1.7-1.4-3.1-3.1-3.1h-32
		H214.9z"/>
	<path d="M214.9,363.9C214.9,363.9,214.9,363.9,214.9,363.9l-2.2-2.1L214.9,363.9L214.9,363.9C214.8,363.9,214.8,363.9,214.9,363.9
		c-0.1,0.1-0.1,0.1-0.1,0.1v0l0,0c0,0,0,0,0,0h31.6h32c0,0,0,0,0.1,0c0,0,0,0,0-0.1s0,0,0-0.1l0,0l0,0c0,0,0,0,0,0h-32H214.9
		L214.9,363.9z M210.6,359.6c1.1-1.1,2.6-1.8,4.3-1.8h31.6h32c1.6,0,3,0.6,4.1,1.6c0.1,0.1,0.2,0.1,0.2,0.2l0,0
		c1.1,1.1,1.8,2.6,1.8,4.3c0,1.7-0.7,3.2-1.8,4.3c-1.1,1.1-2.6,1.8-4.3,1.8h-32h-31.6c-1.6,0-3-0.6-4.1-1.6
		c-0.1-0.1-0.2-0.1-0.2-0.2h0c-1.1-1.1-1.8-2.6-1.8-4.3C208.8,362.3,209.5,360.8,210.6,359.6L210.6,359.6L210.6,359.6L210.6,359.6
		L210.6,359.6z"/>
	<path d="M170.8,328L170.8,328L170.8,328c0.1,0,0.2,0.1,0.3,0.1c4.7,1.1,71.8,16.1,152-0.1l0,0c1.6-0.3,3.2,0.7,3.5,2.3l0,0.1l1.2,6
		h0c0.3,1.6-0.7,3.2-2.4,3.5c-0.1,0-0.2,0-0.3,0c-85,17.1-156,0.2-157.1-0.1l0,0l0,0l0,0l0,0l0,0l0,0c-1.6-0.4-2.5-2-2.2-3.6
		c0-0.1,0-0.1,0-0.2l1.4-5.9l0,0C167.5,328.6,169.1,327.6,170.8,328L170.8,328L170.8,328z M168.4,338.2l0.1-0.3l0-0.2l0,0.2
		L168.4,338.2z"/>
	<path d="M183.8,348.5c2.1,0,4.1,0.4,5.9,1.2c1.9,0.8,3.6,1.9,5,3.3c1.4,1.4,2.6,3.1,3.3,5c0.8,1.8,1.2,3.8,1.2,5.9
		c0,2.1-0.4,4.1-1.2,5.9c-0.8,1.9-1.9,3.6-3.3,5c-1.4,1.4-3.1,2.6-5,3.3c-1.8,0.8-3.8,1.2-5.9,1.2c-2.1,0-4.1-0.4-5.9-1.2
		c-1.9-0.8-3.6-1.9-5-3.3c-1.4-1.4-2.6-3.1-3.3-5c-0.8-1.8-1.2-3.8-1.2-5.9c0-2.1,0.4-4.1,1.2-5.9c0.8-1.9,1.9-3.6,3.3-5
		c1.4-1.4,3.1-2.6,5-3.3C179.7,348.9,181.7,348.5,183.8,348.5L183.8,348.5z M186.1,361.6c-0.3-0.3-0.7-0.6-1.1-0.7
		c-0.4-0.2-0.8-0.2-1.3-0.2c-0.5,0-0.9,0.1-1.3,0.2c-0.4,0.2-0.7,0.4-1.1,0.7c-0.3,0.3-0.6,0.7-0.7,1.1c-0.2,0.4-0.2,0.8-0.2,1.3
		s0.1,0.9,0.2,1.3c0.2,0.4,0.4,0.7,0.7,1.1c0.3,0.3,0.7,0.6,1.1,0.7c0.4,0.2,0.8,0.2,1.3,0.2c0.5,0,0.9-0.1,1.3-0.2
		c0.4-0.2,0.7-0.4,1.1-0.7c0.3-0.3,0.6-0.7,0.7-1.1c0.2-0.4,0.2-0.8,0.2-1.3s-0.1-0.9-0.2-1.3C186.7,362.3,186.4,361.9,186.1,361.6z
		"/>
	<path d="M308.5,348.5c2.1,0,4.1,0.4,5.9,1.2c1.9,0.8,3.6,1.9,5,3.3l0,0c0.1,0.1,0.1,0.1,0.2,0.2c1.3,1.4,2.4,3,3.2,4.8
		c0.8,1.8,1.2,3.8,1.2,5.9c0,2.1-0.4,4.1-1.2,5.9c-0.8,1.9-1.9,3.6-3.3,5l-2.1-2.1l2.1,2.1l0,0c-1.4,1.4-3.1,2.5-5,3.3
		c-1.8,0.8-3.8,1.2-5.9,1.2c-2.1,0-4.1-0.4-5.9-1.2c-1.9-0.8-3.6-1.9-5-3.3c-1.4-1.4-2.6-3.1-3.3-5c-0.8-1.8-1.2-3.8-1.2-5.9
		c0-2.1,0.4-4.1,1.2-5.9c0.8-1.9,1.9-3.6,3.3-5c1.4-1.4,3.1-2.6,5-3.3C304.5,348.9,306.5,348.5,308.5,348.5L308.5,348.5z
		 M310.9,361.6c-0.6-0.6-1.4-1-2.3-1c-0.5,0-0.9,0.1-1.3,0.2c-0.4,0.2-0.7,0.4-1.1,0.7l0,0c0,0-0.1,0.1-0.1,0.1
		c-0.3,0.3-0.5,0.6-0.6,0.9c-0.2,0.4-0.2,0.8-0.2,1.3s0.1,0.9,0.2,1.3c0.2,0.4,0.4,0.7,0.7,1.1c0.3,0.3,0.7,0.6,1.1,0.7
		c0.4,0.2,0.8,0.2,1.3,0.2c0.5,0,0.9-0.1,1.3-0.2c0.4-0.2,0.7-0.4,1.1-0.7c0.3-0.3,0.6-0.7,0.7-1.1c0.2-0.4,0.2-0.8,0.2-1.3
		s-0.1-0.9-0.2-1.3C311.4,362.3,311.2,361.9,310.9,361.6z"/>
</g>
<g id="Master_Layer_8">
</g>
</svg>
