<?xml version="1.0" encoding="utf-8"?>
<!-- Generator: Adobe Illustrator 28.0.0, SVG Export Plug-In . SVG Version: 6.00 Build 0)  -->
<svg version="1.1"
	 id="svg2" xmlns:rdf="http://www.w3.org/1999/02/22-rdf-syntax-ns#" xmlns:dc="http://purl.org/dc/elements/1.1/" xmlns:cc="http://creativecommons.org/ns#" xmlns:svg="http://www.w3.org/2000/svg"
	 xmlns="http://www.w3.org/2000/svg" xmlns:xlink="http://www.w3.org/1999/xlink" x="0px" y="0px" viewBox="0 0 491.5 458.7"
	 style="enable-background:new 0 0 491.5 458.7;" xml:space="preserve">
<style type="text/css">
	.st0{fill-rule:evenodd;clip-rule:evenodd;fill:#52DB78;}
</style>
<g id="g10" transform="matrix(1.3333333,0,0,-1.3333333,0,458.68)">
	<g id="g12" transform="scale(0.1)">
		<path id="path22" class="st0" d="M30.5,2452.3L1815.4,3433c18.1,9.9,39.2,9.1,56-0.3l1785-980.7c25.3-13.9,36-44,26.3-70.3
			l-78.9-223.7c-10.6-29.9-43.4-45.7-73.3-35.1c-4.1,1.4-7.9,3.3-11.3,5.4l-1676,895.5L163.7,2126.5c-28-14.9-62.7-4.3-77.6,23.6
			c-1.4,2.6-2.5,5.2-3.5,7.9l-0.1,0L3.3,2382.4C-6.3,2409.6,5.8,2439.1,30.5,2452.3"/>
		<path id="path24" class="st0" d="M606.4,2364.1V0H221.3v2279.1l34,15.4l269.9,122l81.2,36.7V2364.1"/>
		<path id="path26" class="st0" d="M3465,2242.1V0h-385.1v2453.3l81.2-36.7l269.9-122l34-15.4L3465,2242.1"/>
		<path id="path28" class="st0" d="M980,2247.7c-47.7,0-86.4,38.7-86.4,86.4c0,47.7,38.7,86.4,86.4,86.4h1726.2
			c47.7,0,86.4-38.7,86.4-86.4c0-47.7-38.7-86.4-86.4-86.4H980z M980,1645.9c-47.7,0-86.4,38.7-86.4,86.4
			c0,47.7,38.7,86.4,86.4,86.4h1726.2c47.7,0,86.4-38.7,86.4-86.4c0-47.7-38.7-86.4-86.4-86.4H980z M980,1946.8
			c-47.7,0-86.4,38.7-86.4,86.4c0,47.7,38.7,86.4,86.4,86.4h1726.2c47.7,0,86.4-38.7,86.4-86.4c0-47.7-38.7-86.4-86.4-86.4
			L980,1946.8"/>
	</g>
</g>
<path id="path28_00000111888379650223592720000004014076497915486143_" class="st0" d="M130.7,278.2c-6.4,0-11.5-5.2-11.5-11.5
	c0-6.4,5.2-11.5,11.5-11.5h230.2c6.4,0,11.5,5.2,11.5,11.5c0,6.4-5.2,11.5-11.5,11.5H130.7z M130.7,358.4c-6.4,0-11.5-5.2-11.5-11.5
	c0-6.4,5.2-11.5,11.5-11.5h230.2c6.4,0,11.5,5.2,11.5,11.5c0,6.4-5.2,11.5-11.5,11.5H130.7z M130.7,318.3c-6.4,0-11.5-5.2-11.5-11.5
	c0-6.4,5.2-11.5,11.5-11.5h230.2c6.4,0,11.5,5.2,11.5,11.5c0,6.4-5.2,11.5-11.5,11.5L130.7,318.3"/>
<path id="path28_00000057120310205914203520000002984592171906004647_" class="st0" d="M125.9,399.2c-6.4,0-11.5-5.2-11.5-11.5
	c0-6.4,5.2-11.5,11.5-11.5h230.2c6.4,0,11.5,5.2,11.5,11.5c0,6.4-5.2,11.5-11.5,11.5H125.9z M125.9,439.3c-6.4,0-11.5-5.2-11.5-11.5
	c0-6.4,5.2-11.5,11.5-11.5h230.2c6.4,0,11.5,5.2,11.5,11.5c0,6.4-5.2,11.5-11.5,11.5L125.9,439.3"/>
</svg>
