<?xml version="1.0" encoding="utf-8"?>
<!-- Generator: Adobe Illustrator 28.0.0, SVG Export Plug-In . SVG Version: 6.00 Build 0)  -->
<svg version="1.1" id="Calque_1" xmlns="http://www.w3.org/2000/svg" xmlns:xlink="http://www.w3.org/1999/xlink" x="0px" y="0px"
	 viewBox="0 0 1280 960" style="enable-background:new 0 0 1280 960;" xml:space="preserve">
<style type="text/css">
	.st0{fill:#074C24;}
</style>
<g transform="translate(0.000000,960.000000) scale(0.100000,-0.100000)">
	<path class="st0" d="M5710,9191l-34-169l22-19c22-17,23-23,20-148l-3-130l-170-17c-93-9-232-26-308-38c-136-21-447-83-480-96
		c-15-6-17,6-17,121c0,112,2,129,19,143c18,17,18,21-16,177c-32,149-45,187-58,173c-3-3-21-79-40-169l-36-164l21-15
		c19-15,20-24,18-155l-3-139l-130-37c-233-67-579-193-777-283l-58-26v114c0,101,2,115,19,127c19,14,19,17-17,178
		c-21,91-43,166-49,168c-13,5-20-18-59-202l-27-129l22-14c20-14,21-23,21-146v-132l-177-89c-219-111-475-255-653-367l-135-85l-3,120
		c-3,119-1,128,32,140c10,3-61,327-75,341c-5,5-11,7-14,4c-5-5-75-318-75-337c0-5,9-13,20-16c19-6,20-15,20-160v-154l-127-88
		c-71-48-199-141-286-206l-159-119l8-430l7-430l-29,4l-29,3l-5,448c-4,384-7,449-20,457c-8,5-90,55-182,112l-167,103l-1,136
		c0,75-3,164-6,198l-7,61h-194h-195l6-407c4-225,20-1544,36-2933c31-2621,36-3069,46-3677l6-363h353h353l16,25c13,20,16,57,16,225
		v200h30h30V705V530h2175h2175v4107v4106l-290-7l-290-7v132c0,118,2,132,20,147c19,17,19,18-15,182c-19,90-35,166-35,167
		c0,2-6,3-13,3C5748,9360,5733,9305,5710,9191z M6230,6435V4290h-208h-209l-6,197c-4,108-7,1070-7,2139c0,1842,1,1943,18,1947
		c9,3,106,5,215,6l197,1V6435z M5720,6430V4290h-215h-215v1273c0,701-3,1652-7,2115l-6,841l25,6c32,8,330,42,381,44l37,1V6430z
		 M5180,7042c0-802,3-1750,7-2105l6-647h-221h-222v638c0,351-3,1280-7,2064l-6,1424l169,37c93,20,178,38,189,40c11,3,35,5,53,6l32,1
		V7042z M4654,7968c3-233,8-1155,11-2050l5-1628h-214h-214l-6,1238c-3,680-7,1574-8,1985l-3,749l90,29c93,31,315,98,326,99
		C4645,8390,4650,8200,4654,7968z M4125,6023l8-1733h-217h-216v518c0,284-2,627-5,762c-2,135-7,747-11,1360l-6,1115l78,34
		c44,19,140,58,214,87l135,53l6-232C4115,7859,4121,6975,4125,6023z M3594,7588c3-227,8-1023,11-1768s8-1394,11-1442l6-88h-216h-216
		l-1,133c0,72-6,857-13,1742c-10,1269-10,1613-1,1623c12,13,392,211,406,212C3584,8000,3590,7814,3594,7588z M3054,7705
		c3-8,6-223,6-478c0-254,5-928,10-1497s9-1126,10-1237v-203h-214h-214l-6,698c-4,383-11,1095-16,1582l-10,885l25,20
		c28,22,386,243,396,244C3045,7720,3050,7713,3054,7705z M2544,6425c3-500,9-1186,13-1522l6-613h-201h-200l-6,73
		c-6,72-18,1532-20,2331l-1,429l90,65c49,36,137,98,195,138l105,72l6-31C2535,7349,2540,6926,2544,6425z M1982,5095
		c4-352,14-1299,22-2105c9-806,16-1485,16-1508c0-41-1-43-27-40l-28,3l-2,145c-1,80-9,861-17,1735c-9,875-18,1776-22,2003l-6,414
		l28-4l29-3L1982,5095z M6230,3465v-665h-210h-210v48c0,36,5,52,21,65c11,10,18,25,15,35c-6,22-66,299-66,306c0,3-6,6-13,6
		c-8,0-24-52-45-157c-18-87-33-165-32-174c0-9,9-19,20-22c17-4,20-14,20-56v-51h-213h-214l-6,467c-4,256-7,553-7,660v193h215h215
		v-70c0-54-4-72-15-76c-8-4-15-18-15-32c0-51,63-322,75-322c7,0,25,60,44,153c35,172,37,193,16,201c-11,4-15,22-15,75v70l118,4
		c64,1,159,4,210,5l92,2V3465z M2564,4098c3-13,6-44,6-70c0-37-4-50-20-58c-11-6-20-19-20-30c0-25,67-310,75-318c13-13,24,21,54,161
		c37,175,37,183,11,190c-18,5-20,14-20,76v71h213h214l6-302c4-166,7-463,7-660v-358h-215h-215v50c0,39,4,52,20,60c11,6,20,18,20,28
		c0,42-73,322-85,322c-7,0-24-58-43-152c-38-180-39-195-12-203c16-5,20-15,20-56v-49h-203h-204l-6,392c-4,215-7,512-7,660v268h199
		C2557,4120,2558,4120,2564,4098z M3620,4051c0-60-3-70-22-83l-22-15l37-163c20-90,40-166,42-169c13-12,25,25,54,162
		c37,174,37,184,11,192c-17,6-20,15-20,76v69h220h220v-660v-660h-215h-215v49c0,39,4,51,22,63l22,15l-23,99c-12,54-29,129-38,167
		c-8,37-20,67-27,67c-8,0-24-57-44-153c-37-176-38-194-14-201c13-5,17-17,17-56v-50h-212h-213v193c0,107-3,404-7,660l-6,467h216h217
		V4051z M4670,4051c0-59-3-71-21-83l-22-14l38-167c23-100,43-167,50-167c11,0,76,288,75,332c0,9-9,20-20,23c-17,6-20,15-20,76v69
		h220h220v-660v-660h-215h-215v49c0,38,4,51,21,63l21,14l-36,162c-20,89-36,164-36,167s-6,5-13,5c-9,0-23-51-45-157
		c-36-178-38-193-18-193c13,0,26-41,26-86v-24h-215h-215v178c0,98-3,395-7,660l-6,482h216h217V4051z M2580,2410v-220h-199h-198
		l-7,77c-3,42-6,141-6,220v143h205h205V2410z M3090,2562c0-38,3-137,7-220l6-152h-216h-217v220v220h210h210V2562z M3630,2410v-220
		h-208h-209l-6,113c-4,61-7,160-7,220v107h215h215V2410z M4140,2502c0-71,3-170,6-220l7-92h-215h-215l-7,92c-3,50-6,149-6,220v128
		h215h215V2502z M4680,2410v-220h-215h-215v220v220h215h215V2410z M5190,2410v-220h-215h-215v220v220h215h215V2410z M5730,2410v-220
		h-215h-215v220v220h215h215V2410z M6230,2410v-220h-210h-210v220v220h210h210V2410z M2582,1905c1-63,2-132,3-152c0-36-1-38-42-45
		c-125-21-264-130-323-252c-17-36-33-66-36-66c-2,0-4,142-4,315v315h200h200L2582,1905z M3099,1653c-1-206-5-346-9-317
		c-25,172-199,348-368,373l-47,6l-3,153l-3,152h216h215L3099,1653z M3630,1865v-155h-28c-41,0-148-46-201-86c-85-65-147-164-176-283
		c-12-50-13-20-14,312l-1,367h210h210V1865z M4150,1360V700h-216h-215l3,47c3,47,3,48,45,55c136,23,275,137,334,274
		c32,74,34,85,33,189c-1,97-4,117-27,168c-39,83-94,152-157,195c-68,47-152,82-196,82h-34v155v155h215h215V1360z M4680,1865v-155
		h-30c-80,0-229-90-293-177c-42-58-86-163-89-212c-4-105-16,182-17,422l-1,277h215h215V1865z M5198,1358l2-658h-215h-215v50
		c0,47,2,50,25,50c42,0,152,47,208,89c169,128,229,373,137,565c-60,126-202,237-328,255l-47,6l-3,153l-3,152l218-2l218-3L5198,1358z
		 M5728,1868l-3-153l-40-6c-183-27-333-182-370-384c-12-63-13-31-14,313l-1,382h215h216L5728,1868z M6230,1691c0-181,3-343,7-361
		c4-24,3-31-5-26c-7,4-12,21-12,37c0,43-41,138-86,198c-61,82-199,164-289,173l-30,3l-3,153l-3,152h211h210V1691z M2777,1569
		c76-34,147-104,182-179c35-77,36-212,2-283c-32-64-99-129-169-164c-50-25-68-28-152-28s-102,3-152,28c-124,61-198,172-206,307
		c-6,103,22,175,94,247C2486,1607,2634,1634,2777,1569z M3791,1584c138-44,240-182,242-329c1-97-24-163-90-231
		c-176-184-471-137-585,93c-28,57-32,75-32,147c-1,98,27,167,93,233C3519,1596,3653,1627,3791,1584z M4854,1577c43-15,75-36,117-78
		c75-72,100-129,107-235c4-76,2-86-27-145c-35-73-50-91-108-137c-98-77-248-93-366-39c-79,36-158,119-187,196
		c-78,209,53,425,280,461C4730,1609,4783,1603,4854,1577z M5890,1582c93-32,169-104,212-199c33-74,31-190-6-265
		c-35-73-100-139-174-175c-50-25-68-28-152-28s-102,3-152,28c-74,36-139,102-174,175c-24,48-28,70-28,142c0,107,22,159,98,236
		C5617,1599,5754,1630,5890,1582z M5348,1067c29-65,81-131,138-174c57-44,168-92,212-93c32,0,32,0,32-50v-50h-215h-215l1,273
		c1,247,2,266,14,207C5322,1144,5337,1093,5348,1067z M3109,873l1-173h-215h-215v50c0,47,2,50,25,50c41,0,152,47,203,85
		c91,69,180,220,184,313C3095,1277,3108,1036,3109,873z M3257,1064c30-66,93-141,153-182c62-43,157-82,201-82c28,0,29-1,29-50v-50
		h-210h-210v73c0,39-2,158-5,262c-5,180-4,187,9,130C3232,1132,3247,1087,3257,1064z M4303,1067c32-71,85-136,146-181
		c54-40,163-86,203-86c27,0,28-2,28-50v-50h-210h-210l1,258c1,141,5,237,9,212C4273,1145,4288,1099,4303,1067z M6232,953l-3-253
		h-209h-210v50c0,50,0,50,33,50c42,1,152,48,208,90c24,19,61,55,81,81c42,53,88,158,88,199c0,21,10,49,14,38
		C6235,1206,6234,1091,6232,953z M2262,983c21-29,62-71,92-93c59-45,164-90,208-90c27,0,28-2,28-50v-50h-200h-200l1,208
		c0,200,1,206,16,167C2216,1053,2240,1011,2262,983z"/>
</g>
<g transform="translate(0.000000,960.000000) scale(0.100000,-0.100000)">
	<path class="st0" d="M7063,9360c-7,0-13-1-13-3c0-1-16-77-35-167c-34-164-34-165-15-182c18-15,20-29,20-147v-132l-290,7l-290,7
		V4637V530h2175h2175v175v175h30h30V680c0-168,3-205,16-225l16-25h353h353l6,363c10,608,15,1056,46,3677c16,1389,32,2708,36,2933
		l6,407h-195h-194l-7-61c-3-34-6-123-6-198l-1-136l-167-103c-92-57-174-107-182-112c-13-8-16-73-20-457l-5-448l-29-3l-29-4l7,430
		l8,430l-159,119c-87,65-215,158-286,206l-127,88v154c0,145,1,154,20,160c11,3,20,11,20,16c0,19-70,332-75,337c-3,3-9,1-14-4
		c-14-14-85-338-75-341c33-12,35-21,32-140l-3-120l-135,85c-178,112-434,256-653,367l-177,89v132c0,123,1,132,21,146l22,14l-27,129
		c-39,184-46,207-59,202c-6-2-28-77-49-168c-36-161-36-164-17-178c17-12,19-26,19-127v-114l-58,26c-198,90-544,216-777,283l-130,37
		l-3,139c-2,131-1,140,18,155l21,15l-36,164c-19,90-37,166-40,169c-13,14-26-24-58-173c-34-156-34-160-16-177c17-14,19-31,19-143
		c0-115-2-127-17-121c-33,13-344,75-480,96c-76,12-215,29-308,38l-170,17l-3,130c-3,125-2,131,20,148l22,19l-34,169
		C7087,9305,7072,9360,7063,9360z M6590,8580l197-1c109-1,206-3,215-6c17-4,18-105,18-1947c0-1069-3-2031-7-2139l-6-197h-209h-208
		v2145V8580z M7100,8570l37-1c51-2,349-36,381-44l25-6l-6-841c-4-463-7-1414-7-2115V4290h-215h-215v2140V8570z M7640,8500l32-1
		c18-1,42-3,53-6c11-2,96-20,189-40l169-37l-6-1424c-4-784-7-1713-7-2064v-638h-222h-221l6,647c4,355,7,1303,7,2105V8500z
		 M8179,8390c11-1,233-68,326-99l90-29l-3-749c-1-411-5-1305-8-1985l-6-1238h-214h-214l5,1628c3,895,8,1817,11,2050
		C8170,8200,8175,8390,8179,8390z M8709,7987l6,232l135-53c74-29,170-68,214-87l78-34l-6-1115c-4-613-9-1225-11-1360
		c-3-135-5-478-5-762v-518h-216h-217l8,1733C8699,6975,8705,7859,8709,7987z M9239,8000c14-1,394-199,406-212c9-10,9-354-1-1623
		c-7-885-13-1670-13-1742l-1-133h-216h-216l6,88c3,48,8,697,11,1442s8,1541,11,1768C9230,7814,9236,8000,9239,8000z M9779,7719
		c10-1,368-222,396-244l25-20l-10-885c-5-487-12-1199-16-1582l-6-698h-214h-214v203c1,111,5,668,10,1237s10,1243,10,1497
		c0,255,3,470,6,478C9770,7713,9775,7720,9779,7719z M10289,7367l6,31l105-72c58-40,146-102,195-138l90-65l-1-429
		c-2-799-14-2259-20-2331l-6-73h-200h-201l6,613c4,336,10,1022,13,1522C10280,6926,10285,7349,10289,7367z M10845,5735l29,3l28,4
		l-6-414c-4-227-13-1128-22-2003c-8-874-16-1655-17-1735l-2-145l-28-3c-26-3-27-1-27,40c0,23,7,702,16,1508c8,806,18,1753,22,2105
		L10845,5735z M6590,4130l92-2c51-1,146-4,210-5l118-4v-70c0-53-4-71-15-75c-21-8-19-29,16-201c19-93,37-153,44-153
		c12,0,75,271,75,322c0,14-7,28-15,32c-11,4-15,22-15,76v70h215h215v-193c0-107-3-404-7-660l-6-467h-214h-213v51c0,42,3,52,20,56
		c11,3,20,13,20,22c1,9-14,87-32,174c-21,105-37,157-45,157c-7,0-13-3-13-6c0-7-60-284-66-306c-3-10,4-25,15-35c16-13,21-29,21-65
		v-48h-210h-210v665V4130z M10461,4120h199v-268c0-148-3-445-7-660l-6-392h-204h-203v49c0,41,4,51,20,56c27,8,26,23-12,203
		c-19,94-36,152-43,152c-12,0-85-280-85-322c0-10,9-22,20-28c16-8,20-21,20-60v-50h-215h-215v358c0,197,3,494,7,660l6,302h214h213
		v-71c0-62-2-71-20-76c-26-7-26-15,11-190c30-140,41-174,54-161c8,8,75,293,75,318c0,11-9,24-20,30c-16,8-20,21-20,58
		c0,26,3,57,6,70C10262,4120,10263,4120,10461,4120z M9200,4120h217h216l-6-467c-4-256-7-553-7-660v-193h-213h-212v50
		c0,39,4,51,17,56c24,7,23,25-14,201c-20,96-36,153-44,153c-7,0-19-30-27-67c-9-38-26-113-38-167l-23-99l22-15c18-12,22-24,22-63
		v-49h-215h-215v660v660h220h220v-69c0-61-3-70-20-76c-26-8-26-18,11-192c29-137,41-174,54-162c2,3,22,79,42,169l37,163l-22,15
		c-19,13-22,23-22,83V4120z M8150,4120h217h216l-6-482c-4-265-7-562-7-660v-178h-215h-215v24c0,45,13,86,26,86c20,0,18,15-18,193
		c-22,106-36,157-45,157c-7,0-13-2-13-5s-16-78-36-167l-36-162l21-14c17-12,21-25,21-63v-49h-215h-215v660v660h220h220v-69
		c0-61-3-70-20-76c-11-3-20-14-20-23c-1-44,64-332,75-332c7,0,27,67,50,167l38,167l-22,14c-18,12-21,24-21,83V4120z M10240,2630h205
		h205v-143c0-79-3-178-6-220l-7-77h-198h-199v220V2630z M9730,2630h210h210v-220v-220h-217h-216l6,152c4,83,7,182,7,220V2630z
		 M9190,2630h215h215v-107c0-60-3-159-7-220l-6-113h-209h-208v220V2630z M8680,2630h215h215v-128c0-71-3-170-6-220l-7-92h-215h-215
		l7,92c3,50,6,149,6,220V2630z M8140,2630h215h215v-220v-220h-215h-215v220V2630z M7630,2630h215h215v-220v-220h-215h-215v220V2630z
		 M7090,2630h215h215v-220v-220h-215h-215v220V2630z M6590,2630h210h210v-220v-220h-210h-210v220V2630z M10240,2020h200h200v-315
		c0-173-2-315-4-315c-3,0-19,30-36,66c-59,122-198,231-323,252c-41,7-42,9-42,45c1,20,2,89,3,152L10240,2020z M9720,2020h215h216
		l-3-152l-3-153l-47-6c-169-25-343-201-368-373c-4-29-8,111-9,317L9720,2020z M9190,2020h210h210l-1-367c-1-332-2-362-14-312
		c-29,119-91,218-176,283c-53,40-160,86-201,86h-28v155V2020z M8670,2020h215h215v-155v-155h-34c-44,0-128-35-196-82
		c-63-43-118-112-157-195c-23-51-26-71-27-168c-1-104,1-115,33-189c59-137,198-251,334-274c42-7,42-8,45-55l3-47h-215h-216v660V2020
		z M8140,2020h215h215l-1-277c-1-240-13-527-17-422c-3,49-47,154-89,212c-64,87-213,177-293,177h-30v155V2020z M7625,2015l218,3
		l218,2l-3-152l-3-153l-47-6c-126-18-268-129-328-255c-92-192-32-437,137-565c56-42,166-89,208-89c23,0,25-3,25-50v-50h-215h-215
		l2,658L7625,2015z M7089,2020h216h215l-1-382c-1-344-2-376-14-313c-37,202-187,357-370,384l-40,6l-3,153L7089,2020z M6590,2020h210
		h211l-3-152l-3-153l-30-3c-90-9-228-91-289-173c-45-60-86-155-86-198c0-16-5-33-12-37c-8-5-9,2-5,26c4,18,7,180,7,361V2020z
		 M10444,1497c72-72,100-144,94-247c-8-135-82-246-206-307c-50-25-68-28-152-28s-102,3-152,28c-70,35-137,100-169,164
		c-34,71-33,206,2,283c35,75,106,145,182,179C10186,1634,10334,1607,10444,1497z M9401,1497c66-66,94-135,93-233c0-72-4-90-32-147
		c-114-230-409-277-585-93c-66,68-91,134-90,231c2,147,104,285,242,329C9167,1627,9301,1596,9401,1497z M8150,1600
		c227-36,358-252,280-461c-29-77-108-160-187-196c-118-54-268-38-366,39c-58,46-73,64-108,137c-29,59-31,69-27,145
		c7,106,32,163,107,235c42,42,74,63,117,78C8037,1603,8090,1609,8150,1600z M7306,1496c76-77,98-129,98-236c0-72-4-94-28-142
		c-35-73-100-139-174-175c-50-25-68-28-152-28s-102,3-152,28c-74,36-139,102-174,175c-37,75-39,191-6,265c43,95,119,167,212,199
		C7066,1630,7203,1599,7306,1496z M7505,1180c12,59,13,40,14-207l1-273h-215h-215v50c0,50,0,50,32,50c44,1,155,49,212,93
		c57,43,109,109,138,174C7483,1093,7498,1144,7505,1180z M9728,1198c4-93,93-244,184-313c51-38,162-85,203-85c23,0,25-3,25-50v-50
		h-215h-215l1,173C9712,1036,9725,1277,9728,1198z M9596,1165c13,57,14,50,9-130c-3-104-5-223-5-262v-73h-210h-210v50
		c0,49,1,50,29,50c44,0,139,39,201,82c60,41,123,116,153,182C9573,1087,9588,1132,9596,1165z M8550,1170c4,25,8-71,9-212l1-258h-210
		h-210v50c0,48,1,50,28,50c40,0,149,46,203,86c61,45,114,110,146,181C8532,1099,8547,1145,8550,1170z M6586,1208c4,11,14-17,14-38
		c0-41,46-146,88-199c20-26,57-62,81-81c56-42,166-89,208-90c33,0,33,0,33-50v-50h-210h-209l-3,253C6586,1091,6585,1206,6586,1208z
		 M10613,1075c15,39,16,33,16-167l1-208h-200h-200v50c0,48,1,50,28,50c44,0,149,45,208,90c30,22,71,64,92,93
		C10580,1011,10604,1053,10613,1075z"/>
</g>
</svg>
