<?xml version="1.0" standalone="yes"?>
<svg xmlns="http://www.w3.org/2000/svg" width="107" height="215">
<path style="fill:#797977; stroke:none;" d="M47 10C52.7712 9.71335 58.3108 11.0695 64 11.8696C73.9969 13.2754 84.2173 14.469 94 17C91.6431 13.3612 87.0931 13.5102 83 13.0502C74.6604 12.1128 66.2886 10.7418 58 9.41049C54.3454 8.82347 49.6956 6.963 47 10z"/>
<path style="fill:#a4a3a2; stroke:none;" d="M52 8C53.2483 8.68475 53.5485 8.74881 55 9C53.7516 8.31517 53.4516 8.25122 52 8z"/>
<path style="fill:#4b4947; stroke:none;" d="M46 9C46 25.4672 44.7821 41.5219 45.9105 58C46.2237 62.5741 44.3764 70.6151 47.858 74.2585C50.3094 76.8238 55.7209 76.6733 59 77.1304C68.8929 78.5095 79.0059 80.9173 89 81L88 86C83.4456 84.4819 78.9573 85.1658 75 82L76 81L72 81L72 86C68.8948 84.2092 67.8963 80.9707 65 79C61.9762 83.5303 56.306 80.3555 52 79L54 78C50.9545 77.3117 50.4514 79.2417 50 82C36.9162 82.0014 25.286 88.0023 13 92C14.9964 98.0346 25.4568 98.3513 31 99.5756C40.3554 101.642 51.4547 105.654 61 103.073C67.4365 101.332 74.1036 97.795 80 94.7014C83.8983 92.6561 87.497 90.0281 92 90C93.0554 86.8038 93.655 84.4722 96 82C92.7449 76.1469 94.6842 70.3122 94.9606 64C95.3966 54.0435 95.0473 43.9662 94.9992 34C94.9795 29.9075 95.5224 20.931 92.9722 17.5887C90.6571 14.5546 83.4692 14.6183 80 14.1304C68.6508 12.5344 57.3726 10.4235 46 9z"/>
<path style="fill:#969797; stroke:none;" d="M58 9C59.2483 9.68475 59.5485 9.74881 61 10C59.7516 9.31519 59.4516 9.25122 58 9z"/>
<path style="fill:#a4a3a2; stroke:none;" d="M65 10C66.2484 10.6848 66.5484 10.7488 68 11C66.7517 10.3152 66.4515 10.2512 65 10z"/>
<path style="fill:#d4d5d5; stroke:none;" d="M68 10L69 11L68 10z"/>
<path style="fill:#a5a7a9; stroke:none;" d="M72.6667 11.3333C72.2222 11.7778 73.2778 11.7222 73.3333 11.6667C73.7777 11.2222 72.7222 11.2778 72.6667 11.3333z"/>
<path style="fill:#b3b5b5; stroke:none;" d="M45.3333 12.6667C45.2777 12.7223 45.2222 13.7777 45.6667 13.3333C45.7222 13.2778 45.7778 12.2222 45.3333 12.6667z"/>
<path style="fill:#9e9fa0; stroke:none;" d="M78 12C79.2484 12.6848 79.5484 12.7488 81 13C79.7517 12.3152 79.4515 12.2512 78 12z"/>
<path style="fill:#cecdce; stroke:none;" d="M81 12L82 13L81 12z"/>
<path style="fill:#c3c3c3; stroke:none;" d="M86 13C87.2484 13.6848 87.5484 13.7488 89 14C87.7517 13.3152 87.4515 13.2512 86 13z"/>
<path style="fill:#868788; stroke:none;" d="M45 14L45 18C45.7102 16.2405 45.7102 15.7595 45 14z"/>
<path style="fill:#c3c3c3; stroke:none;" d="M93 14L94 15L93 14z"/>
<path style="fill:#bcbdbc; stroke:none;" d="M94 15L95 16L94 15z"/>
<path style="fill:#595654; stroke:none;" d="M94 16L95 17L94 16z"/>
<path style="fill:#a5a7a9; stroke:none;" d="M95 16L96 17L95 16z"/>
<path style="fill:#7d7f85; stroke:none;" d="M94 17L94 22C94.8299 19.9695 94.8299 19.0305 94 17z"/>
<path style="fill:#4b4947; stroke:none;" d="M95 17C95.1046 29.6387 96 42.296 96 55C96 62.0941 94.504 70.1198 96 77C97.8983 73.0512 98.3845 68.3056 99.196 64C101.652 50.9701 105.374 27.274 95 17z"/>
<path style="fill:#bcbdbc; stroke:none;" d="M96 17L97 18L96 17z"/>
<path style="fill:#706f6c; stroke:none;" d="M45 18L45 25C46.0595 22.4657 46.0595 20.5343 45 18z"/>
<path style="fill:#797977; stroke:none;" d="M97 19L98 20L97 19z"/>
<path style="fill:#8d8d89; stroke:none;" d="M98 21L99 22L98 21z"/>
<path style="fill:#686866; stroke:none;" d="M94 22C94.0941 24.2049 94.3562 25.8942 95 28C95.8888 25.492 95.495 24.1851 94 22z"/>
<path style="fill:#abacae; stroke:none;" d="M99 23L100 24L99 23z"/>
<path style="fill:#c3c3c3; stroke:none;" d="M100 26L101 27L100 26z"/>
<path style="fill:#868788; stroke:none;" d="M100 27L101 28L100 27z"/>
<path style="fill:#8d8d89; stroke:none;" d="M95 28L95 67C98.2056 59.3606 96 47.2707 96 39C96 35.2976 96.4412 31.4346 95 28z"/>
<path style="fill:#a5a7a9; stroke:none;" d="M101.333 31.6667C101.278 31.7222 101.222 32.7778 101.667 32.3333C101.722 32.2777 101.778 31.2223 101.333 31.6667z"/>
<path style="fill:#868788; stroke:none;" d="M101.333 33.6667C101.278 33.7222 101.222 34.7778 101.667 34.3333C101.722 34.2777 101.778 33.2223 101.333 33.6667z"/>
<path style="fill:#636362; stroke:none;" d="M101 35L101 46C102.431 42.59 102.431 38.41 101 35z"/>
<path style="fill:#9e9fa0; stroke:none;" d="M101 46L101 49C101.696 47.4463 101.696 47.5537 101 46z"/>
<path style="fill:#cecfd3; stroke:none;" d="M101 49L102 50L101 49z"/>
<path style="fill:#706f6c; stroke:none;" d="M45 54L45 60C45.9511 57.7147 45.9511 56.2853 45 54z"/>
<path style="fill:#797977; stroke:none;" d="M100 54L100 57C100.696 55.4463 100.696 55.5537 100 54z"/>
<path style="fill:#969797; stroke:none;" d="M45 60L45 65C45.8299 62.9695 45.8299 62.0305 45 60z"/>
<path style="fill:#afb0b2; stroke:none;" d="M99.3333 62.6667C99.2778 62.7222 99.2222 63.7778 99.6667 63.3333C99.7223 63.2777 99.7777 62.2223 99.3333 62.6667z"/>
<path style="fill:#c3c3c3; stroke:none;" d="M45 65L45 71C45.9511 68.7147 45.9511 67.2853 45 65z"/>
<path style="fill:#706f6c; stroke:none;" d="M95 67C94.3562 69.1059 94.0941 70.7951 94 73C95.495 70.8149 95.8888 69.508 95 67z"/>
<path style="fill:#747576; stroke:none;" d="M98 67L99 68L98 67z"/>
<path style="fill:#cecfd3; stroke:none;" d="M98.3333 68.6667C98.2778 68.7222 98.2222 69.7778 98.6667 69.3333C98.7223 69.2777 98.7777 68.2223 98.3333 68.6667z"/>
<path style="fill:#797977; stroke:none;" d="M46 72L46 75C46.6961 73.4463 46.6961 73.5537 46 72z"/>
<path style="fill:#a5a7a9; stroke:none;" d="M97.3333 72.6667C97.2778 72.7222 97.2222 73.7778 97.6667 73.3333C97.7223 73.2777 97.7777 72.2223 97.3333 72.6667z"/>
<path style="fill:#8e8f8e; stroke:none;" d="M94 73L94 81C95.1614 78.2301 95.1614 75.7698 94 73z"/>
<path style="fill:#b3b5b5; stroke:none;" d="M46 75L47 76L46 75z"/>
<path style="fill:#706f6c; stroke:none;" d="M47.6667 75.3333C47.2223 75.7778 48.2778 75.7222 48.3333 75.6667C48.7778 75.2222 47.7222 75.2778 47.6667 75.3333z"/>
<path style="fill:#181716; stroke:none;" d="M95 75L95 81C95.9511 78.7147 95.9511 77.2853 95 75z"/>
<path style="fill:#a4a3a2; stroke:none;" d="M47.6667 76.3333C47.2222 76.7778 48.2778 76.7222 48.3333 76.6667C48.7778 76.2222 47.7222 76.2778 47.6667 76.3333z"/>
<path style="fill:#8d8d89; stroke:none;" d="M49 76L49 82C49.7789 80.2309 49.9124 78.9641 50 77L58 78C55.1113 76.2691 52.3387 76.0708 49 76z"/>
<path style="fill:#181716; stroke:none;" d="M50 77L51 78L50 77z"/>
<path style="fill:#686866; stroke:none;" d="M58 77C59.506 77.683 60.3148 77.8259 62 78C60.494 77.317 59.6852 77.1741 58 77z"/>
<path style="fill:#797977; stroke:none;" d="M96 77L97 78L96 77z"/>
<path style="fill:#0d0b08; stroke:none;" d="M52.6667 78.3333C52.2222 78.7778 53.2778 78.7222 53.3333 78.6667C53.7778 78.2222 52.7222 78.2778 52.6667 78.3333z"/>
<path style="fill:#abacae; stroke:none;" d="M54.3333 78.6667C54.2778 78.7222 54.2222 79.7778 54.6667 79.3333C54.7222 79.2778 54.7778 78.2222 54.3333 78.6667z"/>
<path style="fill:#bcbdbc; stroke:none;" d="M58 78C59.2483 78.6848 59.5485 78.7488 61 79C59.7516 78.3152 59.4516 78.2512 58 78z"/>
<path style="fill:#969797; stroke:none;" d="M61 78C62.4018 79.3508 63.1764 80.2543 64 82C64.9114 80.6234 65.4038 79.5601 66 78L61 78z"/>
<path style="fill:#797977; stroke:none;" d="M66 78C67.2227 79.1951 67.42 79.3164 69 80C68.0198 78.2167 68.0924 78.4057 66 78z"/>
<path style="fill:#a5a7a9; stroke:none;" d="M96 78L97 79L96 78z"/>
<path style="fill:#8e8f8e; stroke:none;" d="M69 79C70.506 79.683 71.3148 79.8259 73 80C71.4939 79.317 70.6852 79.1741 69 79z"/>
<path style="fill:#797977; stroke:none;" d="M73 79C74.2227 80.1951 74.42 80.3164 76 81C75.0198 79.2167 75.0924 79.4057 73 79z"/>
<path style="fill:#d4d5d5; stroke:none;" d="M96 79L97 80L96 79z"/>
<path style="fill:#93979b; stroke:none;" d="M55 80L56 81L55 80z"/>
<path style="fill:#c6c7ca; stroke:none;" d="M56 80C57.2483 80.6848 57.5485 80.7488 59 81C57.7516 80.3152 57.4516 80.2512 56 80z"/>
<path style="fill:#0d0b08; stroke:none;" d="M67 80L68 84C68.7511 81.9535 68.6556 81.4043 67 80z"/>
<path style="fill:#b3b5b5; stroke:none;" d="M69 80C69.0135 83.1942 68.5972 85.2708 72 86L69 80z"/>
<path style="fill:#c3c3c3; stroke:none;" d="M71 80L72 81L71 80z"/>
<path style="fill:#636362; stroke:none;" d="M72.6667 80.3333C72.2222 80.7778 73.2778 80.7222 73.3333 80.6667C73.7778 80.2222 72.7222 80.2778 72.6667 80.3333z"/>
<path style="fill:#969797; stroke:none;" d="M76.6667 80.3333C76.2222 80.7778 77.2778 80.7222 77.3333 80.6667C77.7778 80.2222 76.7222 80.2778 76.6667 80.3333z"/>
<path style="fill:#747576; stroke:none;" d="M78 80C81.4014 82.0408 85.0978 82.4182 89 82C85.6327 80.5475 81.6631 80.2891 78 80z"/>
<path style="fill:#afb0b2; stroke:none;" d="M41.6667 81.3333C41.2222 81.7778 42.2778 81.7222 42.3333 81.6667C42.7778 81.2222 41.7222 81.2778 41.6667 81.3333z"/>
<path style="fill:#93979b; stroke:none;" d="M43 81C44.2483 81.6848 44.5485 81.7488 46 82C44.7516 81.3152 44.4516 81.2512 43 81z"/>
<path style="fill:#cecfd3; stroke:none;" d="M46 81C47.2483 81.6848 47.5485 81.7488 49 82C47.7516 81.3152 47.4516 81.2512 46 81z"/>
<path style="fill:#8d8d93; stroke:none;" d="M60 81C61.2483 81.6848 61.5485 81.7488 63 82C61.7516 81.3152 61.4516 81.2512 60 81z"/>
<path style="fill:#c3c3c3; stroke:none;" d="M63 81L64 82L63 81z"/>
<path style="fill:#181716; stroke:none;" d="M76 81L75 83L77 83C77 81.1468 77.2997 81.6499 76 81z"/>
<path style="fill:#c3c3c3; stroke:none;" d="M77 83L81 82C78.9535 81.2489 78.4043 81.3444 77 83z"/>
<path style="fill:#abacae; stroke:none;" d="M39 82L40 83L39 82z"/>
<path style="fill:#c3c3c3; stroke:none;" d="M71 82L71 85C71.6961 83.4463 71.6961 83.5537 71 82z"/>
<path style="fill:#bcbdbc; stroke:none;" d="M84 82L87 85C87.3931 82.7162 86.1753 82.5421 84 82z"/>
<path style="fill:#abacae; stroke:none;" d="M95 82L96 83L95 82z"/>
<path style="fill:#b3b5b5; stroke:none;" d="M36 83L37 84L36 83z"/>
<path style="fill:#787a80; stroke:none;" d="M37 83L38 84L37 83z"/>
<path style="fill:#868788; stroke:none;" d="M77 83L78 84L77 83z"/>
<path style="fill:#181716; stroke:none;" d="M88 83L89 84L88 83z"/>
<path style="fill:#9e9fa0; stroke:none;" d="M93.6667 83.3333C93.2222 83.7778 94.2778 83.7222 94.3333 83.6667C94.7778 83.2222 93.7222 83.2778 93.6667 83.3333z"/>
<path style="fill:#bcbdbc; stroke:none;" d="M33 84L34 85L33 84z"/>
<path style="fill:#868788; stroke:none;" d="M34 84L35 85L34 84z"/>
<path style="fill:#969797; stroke:none;" d="M79 84C80.2484 84.6848 80.5484 84.7488 82 85C80.7517 84.3152 80.4515 84.2512 79 84z"/>
<path style="fill:#c6c7ca; stroke:none;" d="M82 84C83.506 84.683 84.3148 84.8259 86 85C84.4939 84.317 83.6852 84.1741 82 84z"/>
<path style="fill:#181716; stroke:none;" d="M91 84L91 89C91.8299 86.9695 91.8299 86.0305 91 84z"/>
<path style="fill:#c3c3c3; stroke:none;" d="M30 85L31 86L30 85z"/>
<path style="fill:#8e8f8e; stroke:none;" d="M31 85L32 86L31 85z"/>
<path style="fill:#747576; stroke:none;" d="M86.6667 85.3333C86.2222 85.7778 87.2778 85.7222 87.3333 85.6667C87.7777 85.2222 86.7222 85.2778 86.6667 85.3333z"/>
<path style="fill:#cecdce; stroke:none;" d="M27 86L28 87L27 86z"/>
<path style="fill:#93979b; stroke:none;" d="M28 86L29 87L28 86z"/>
<path style="fill:#cecfd3; stroke:none;" d="M24 87L25 88L24 87z"/>
<path style="fill:#a4a3a2; stroke:none;" d="M25 87L26 88L25 87z"/>
<path style="fill:#abacae; stroke:none;" d="M22 88L23 89L22 88z"/>
<path style="fill:#747576; stroke:none;" d="M23 88L24 89L23 88z"/>
<path style="fill:#b3b5b5; stroke:none;" d="M19 89L20 90L19 89z"/>
<path style="fill:#787a80; stroke:none;" d="M20 89L21 90L20 89z"/>
<path style="fill:#7d7f85; stroke:none;" d="M89 89C81.4711 93.7974 72.5261 96.4109 65.2091 101.349C60.8133 104.315 57.7508 108.808 52 109.436C47.2001 109.96 41.6461 107.47 37 106.424C25.6179 103.859 14.2926 100.929 3 98L3 105C11.695 108.055 9.70835 118.441 10.0394 126C10.1863 129.356 10.9016 132.636 10.9853 136C11.3556 150.88 11.9704 166.219 13.7145 181C14.2432 185.481 12.4405 192.927 15.6034 196.566C17.7337 199.018 21.0694 198.815 24 199.17C28.3243 199.693 32.8758 200.841 37 202.241C42.2733 204.03 47.1761 207.713 53 206.466C58.3462 205.322 63.3443 201.732 67.9954 199C69.8586 197.905 72.48 196.78 73.3071 194.61C74.1854 192.307 73.0388 189.401 73.1327 187C73.3761 180.777 77.7247 174.23 84 173C84.005 165.443 86.0829 158.211 86.4552 150.83C87.1212 137.631 87.4575 124.269 88.0394 111C88.3314 104.341 92.4688 95.0734 89 89z"/>
<path style="fill:#a5a7a9; stroke:none;" d="M92 89L93 90L92 89z"/>
<path style="fill:#c3c3c3; stroke:none;" d="M16 90L17 91L16 90z"/>
<path style="fill:#7d7f85; stroke:none;" d="M17 90L18 91L17 90z"/>
<path style="fill:#9e9fa0; stroke:none;" d="M90.6667 90.3333C90.2222 90.7778 91.2778 90.7222 91.3333 90.6667C91.7778 90.2222 90.7222 90.2778 90.6667 90.3333z"/>
<path style="fill:#c6c7ca; stroke:none;" d="M13 91L14 92L13 91z"/>
<path style="fill:#868788; stroke:none;" d="M14 91L15 92L14 91z"/>
<path style="fill:#93979b; stroke:none;" d="M3 96L3 98C13.6393 101.631 25.0306 103.952 36 106.424C40.8167 107.509 46.0368 109.677 51 109.721C55.8143 109.764 60.5132 106.939 63 103C50.289 104.003 39.4266 101.15 27 98.4244C21.5093 97.2201 15.8553 97.4409 13 92L3 96z"/>
<path style="fill:#a4a3a2; stroke:none;" d="M90 92L90 95C90.6961 93.4463 90.6961 93.5537 90 92z"/>
<path style="fill:#747576; stroke:none;" d="M16 96C17.2484 96.6848 17.5484 96.7488 19 97C17.7517 96.3152 17.4516 96.2512 16 96z"/>
<path style="fill:#d4d5d5; stroke:none;" d="M90 96L90 99C90.6961 97.4463 90.6961 97.5537 90 96z"/>
<path style="fill:#787a80; stroke:none;" d="M49.6667 103.333C49.2222 103.778 50.2778 103.722 50.3333 103.667C50.7778 103.222 49.7222 103.278 49.6667 103.333z"/>
<path style="fill:#969797; stroke:none;" d="M4.66667 105.333C4.22221 105.778 5.27778 105.722 5.33333 105.667C5.77777 105.222 4.72222 105.278 4.66667 105.333z"/>
<path style="fill:#cecfd3; stroke:none;" d="M7 106L8 107L7 106z"/>
<path style="fill:#afb0b2; stroke:none;" d="M88 106L88 112C88.9511 109.715 88.9511 108.285 88 106z"/>
<path style="fill:#d4d5d5; stroke:none;" d="M8.33333 107.667C8.2778 107.722 8.22221 108.778 8.66667 108.333C8.72223 108.278 8.77777 107.222 8.33333 107.667z"/>
<path style="fill:#a5a7a9; stroke:none;" d="M9 113L9 121C10.1614 118.23 10.1614 115.77 9 113z"/>
<path style="fill:#bcbdbc; stroke:none;" d="M87 123L87 126C87.6961 124.446 87.6961 124.554 87 123z"/>
<path style="fill:#d8d9dc; stroke:none;" d="M87.3333 126.667C87.2778 126.722 87.2222 127.778 87.6667 127.333C87.7222 127.278 87.7778 126.222 87.3333 126.667z"/>
<path style="fill:#a5a7a9; stroke:none;" d="M10 130L10 137C11.0595 134.466 11.0595 132.534 10 130z"/>
<path style="fill:#d8d9dc; stroke:none;" d="M10 137L10 142C10.8299 139.97 10.8299 139.03 10 137z"/>
<path style="fill:#c3c3c3; stroke:none;" d="M86.3333 138.667C86.2778 138.722 86.2222 139.778 86.6667 139.333C86.7222 139.278 86.7778 138.222 86.3333 138.667z"/>
<path style="fill:#d8d9dc; stroke:none;" d="M86.3333 140.667C86.2778 140.722 86.2222 141.778 86.6667 141.333C86.7222 141.278 86.7778 140.222 86.3333 140.667z"/>
<path style="fill:#9e9fa0; stroke:none;" d="M11 145L11 153C12.1614 150.23 12.1614 147.77 11 145z"/>
<path style="fill:#d8d9dc; stroke:none;" d="M11 153L11 158C11.8299 155.97 11.8299 155.03 11 153z"/>
<path style="fill:#c6c7ca; stroke:none;" d="M85 153L85 157C85.7102 155.241 85.7102 154.759 85 153z"/>
<path style="fill:#abacae; stroke:none;" d="M12 163L12 172C13.2561 169.006 13.2561 165.994 12 163z"/>
<path style="fill:#9e9fa0; stroke:none;" d="M84 163L84 166C84.6961 164.446 84.6961 164.554 84 163z"/>
<path style="fill:#d4d5d5; stroke:none;" d="M84 166L84 171C84.8299 168.97 84.8299 168.03 84 166M12 172L12 175C12.6961 173.446 12.6961 173.554 12 172z"/>
<path style="fill:#4b4947; stroke:none;" d="M82 172C75.7831 177.109 66.7829 190.919 78 196C77.8107 191.523 76.9354 187.342 78.564 183C80.0029 179.164 84.1493 175.961 82 172z"/>
<path style="fill:#d4d5d5; stroke:none;" d="M84 173L85 174L84 173z"/>
<path style="fill:#7d7f85; stroke:none;" d="M84.0394 175.256C78.605 177.116 76.6314 186.05 77.483 190.995C78.1583 194.916 80.5376 198.067 84.8742 196.253C90.1646 194.04 91.6933 186.037 90.7716 181.004C90.2072 177.922 87.74 173.989 84.0394 175.256z"/>
<path style="fill:#c6c7ca; stroke:none;" d="M86 174L87 175L86 174z"/>
<path style="fill:#c3c3c3; stroke:none;" d="M90 178L91 179L90 178z"/>
<path style="fill:#abacae; stroke:none;" d="M13 179L13 185C13.9511 182.715 13.9511 181.285 13 179z"/>
<path style="fill:#4d5155; stroke:none;" d="M82 194C88.1243 191.321 89.577 184.881 87 179C80.2254 181.435 79.0987 187.936 82 194z"/>
<path style="fill:#d4d5d5; stroke:none;" d="M91 182L91 185C91.6961 183.446 91.6961 183.554 91 182z"/>
<path style="fill:#cecdce; stroke:none;" d="M13 185L13 191C13.9511 188.715 13.9511 187.285 13 185z"/>
<path style="fill:#d4d5d5; stroke:none;" d="M90 189L91 190L90 189z"/>
<path style="fill:#bcbdbc; stroke:none;" d="M89 191L90 192L89 191z"/>
<path style="fill:#595654; stroke:none;" d="M88 192L89 193L88 192z"/>
<path style="fill:#cecdce; stroke:none;" d="M88 193L89 194L88 193z"/>
<path style="fill:#bcbdbc; stroke:none;" d="M74 195L75 196L74 195z"/>
<path style="fill:#a5a7a9; stroke:none;" d="M76 195L77 196L76 195z"/>
<path style="fill:#0d0b08; stroke:none;" d="M78 195L79 196L78 195z"/>
<path style="fill:#cecfd3; stroke:none;" d="M14 196L15 197L14 196z"/>
<path style="fill:#c6c7ca; stroke:none;" d="M78 196L79 197L78 196z"/>
<path style="fill:#abacae; stroke:none;" d="M85 196L86 197L85 196z"/>
<path style="fill:#9e9fa0; stroke:none;" d="M81 197C82.2484 197.685 82.5484 197.749 84 198C82.7517 197.315 82.4516 197.251 81 197z"/>
<path style="fill:#d4d5d5; stroke:none;" d="M17 198L18 199L17 198z"/>
<path style="fill:#bcbdbc; stroke:none;" d="M68 198L69 199L68 198z"/>
<path style="fill:#afb0b2; stroke:none;" d="M20 199C21.2484 199.685 21.5484 199.749 23 200C21.7516 199.315 21.4516 199.251 20 199z"/>
<path style="fill:#a4a3a2; stroke:none;" d="M25.6667 199.333C25.2222 199.778 26.2778 199.722 26.3333 199.667C26.7778 199.222 25.7222 199.278 25.6667 199.333z"/>
<path style="fill:#c3c3c3; stroke:none;" d="M28 200C29.2484 200.685 29.5484 200.749 31 201C29.7516 200.315 29.4516 200.251 28 200z"/>
<path style="fill:#c6c7ca; stroke:none;" d="M65 200L66 201L65 200z"/>
<path style="fill:#abacae; stroke:none;" d="M33.6667 201.333C33.2222 201.778 34.2778 201.722 34.3333 201.667C34.7778 201.222 33.7222 201.278 33.6667 201.333z"/>
<path style="fill:#b3b5b5; stroke:none;" d="M63 201L64 202L63 201z"/>
<path style="fill:#afb0b2; stroke:none;" d="M37.6667 202.333C37.2222 202.778 38.2778 202.722 38.3333 202.667C38.7778 202.222 37.7222 202.278 37.6667 202.333z"/>
<path style="fill:#b3b5b5; stroke:none;" d="M61 202L62 203L61 202z"/>
<path style="fill:#abacae; stroke:none;" d="M58 204L59 205L58 204z"/>
<path style="fill:#a4a3a2; stroke:none;" d="M44.6667 205.333C44.2222 205.778 45.2778 205.722 45.3333 205.667C45.7778 205.222 44.7222 205.278 44.6667 205.333z"/>
<path style="fill:#c3c3c3; stroke:none;" d="M46 206L47 207L46 206z"/>
<path style="fill:#d4d5d5; stroke:none;" d="M53 206L54 207L53 206z"/>
</svg>
