<?xml version="1.0" encoding="utf-8"?>
<!-- Generator: Adobe Illustrator 22.0.0, SVG Export Plug-In . SVG Version: 6.00 Build 0)  -->
<svg version="1.1" id="Calque_1" xmlns="http://www.w3.org/2000/svg" xmlns:xlink="http://www.w3.org/1999/xlink" x="0px" y="0px"
	 viewBox="0 0 215 416" style="enable-background:new 0 0 215 416;" xml:space="preserve">
<style type="text/css">
	.st0{fill:#454C48;}
	.st1{fill:#203724;}
	.st2{fill:#7D7F85;}
	.st3{fill:#A0A0A0;}
	.st4{fill:#051106;}
	.st5{fill:#162C19;}
	.st6{fill:#5F6260;}
	.st7{fill:#3E3E3D;}
	.st8{fill:#152217;}
	.st9{fill:#858585;}
	.st10{fill:#19371C;}
	.st11{fill:#313231;}
	.st12{fill:#8F8F8F;}
	.st13{fill:#010202;}
	.st14{fill:#AAAAAA;}
	.st15{fill:#343835;}
	.st16{fill:#202320;}
	.st17{fill:#6C6F6C;}
	.st18{fill:#797C7A;}
	.st19{fill:#696869;}
	.st20{fill:#575957;}
	.st21{fill:#4E4E4E;}
	.st22{fill:#989897;}
	.st23{fill:#747774;}
	.st24{fill:#2D4F32;}
	.st25{fill:#67A675;}
	.st26{fill:#131513;}
	.st27{fill:#8A6145;}
	.st28{fill:#774D32;}
	.st29{fill:#D18955;}
	.st30{fill:#9E6E4D;}
	.st31{fill:#466566;}
	.st32{fill:#613F2B;}
	.st33{fill:#6B4931;}
	.st34{fill:#71ADB1;}
	.st35{fill:#4D7373;}
	.st36{fill:#AF754A;}
	.st37{fill:#5C3821;}
	.st38{fill:#253538;}
	.st39{fill:#231710;}
	.st40{fill:#537677;}
	.st41{fill:#855838;}
	.st42{fill:#335355;}
	.st43{fill:#487D52;}
	.st44{fill:#395561;}
	.st45{fill:#5D8787;}
	.st46{fill:#294345;}
	.st47{fill:#536357;}
	.st48{fill:#3F2517;}
	.st49{fill:#4E2E1E;}
	.st50{fill:#295631;}
	.st51{fill:#372117;}
	.st52{fill:#35603B;}
	.st53{fill:#3A6E44;}
	.st54{fill:#244428;}
	.st55{fill:#214C28;}
	.st56{fill:#09210D;}
	.st57{fill:#3D483F;}
	.st58{fill:#4D5155;}
	.st59{fill:#4D5950;}
	.st60{fill:#7F8F82;}
	.st61{fill:#364238;}
	.st62{fill:#576F5D;}
	.st63{fill:#6C7A70;}
</style>
<path class="st0" d="M46,5l1,1L46,5z"/>
<path class="st1" d="M47.3,5.7c-0.1,0.1-0.1,1.1,0.3,0.7C47.7,6.3,47.8,5.2,47.3,5.7z"/>
<path class="st2" d="M48,5c-2.5,3.6-5.2,6.9-7,11c22.1,14.9,45.4,28.3,68,42.4c13.4,8.4,26.2,17.9,40,25.6l1-1
	c-6.8-8.4-16.8-15.2-25-22.3c-10.5-9-20.7-18.2-32-26.3C78.4,24,62.7,15.3,48,5z"/>
<path class="st3" d="M49,5l1,1L49,5z"/>
<path class="st4" d="M45,6v2c1.6-0.5,1.5-0.4,2-2H45z"/>
<path class="st5" d="M49.7,6.3c-0.4,0.4,0.6,0.4,0.7,0.3C50.8,6.2,49.7,6.3,49.7,6.3z"/>
<path class="st6" d="M51,6l1,1L51,6z"/>
<path class="st7" d="M44,7l1,1L44,7z"/>
<path class="st8" d="M51.7,7.3c-0.4,0.4,0.6,0.4,0.7,0.3C52.8,7.2,51.7,7.3,51.7,7.3z"/>
<path class="st9" d="M53,7l1,1L53,7z"/>
<path class="st6" d="M43,8l1,1L43,8z"/>
<path class="st10" d="M44,8v2c1.6-0.5,1.5-0.4,2-2H44z"/>
<path class="st11" d="M53,8c1.7,1.7,2.7,2.3,5,3C56.3,9.3,55.3,8.7,53,8z"/>
<path class="st9" d="M55,8l1,1L55,8z"/>
<path class="st12" d="M42,9l1,1L42,9z"/>
<path class="st13" d="M43,9c-2.8,3.9-5.5,7.4-7,12c30.2,21.6,62.4,40.9,94,60.4c7,4.3,14.1,8.6,21,13c4.4,2.8,7.9,5,7,10.6h11v14H8
	v-14c-6.9,16.5,11.1,23.4,17,36c2.4-5.7,1-13.8,1-20h35c0,6.1,0.5,11.9,1,18h4v-18h44c0,5.9-2.6,16.7,5,18v-18h44
	c0,18.1-1.5,36-2,54c-1,41-1,82-1,123c1.7-4.1,0.8-8.7,1.2-13c1.1-11.7,0.7-23.3,0.8-35c0.1-9.7,1.5-19.4,2-29
	c0.6-14.7,0.4-29.4,1-44c0.5-11.4-0.5-23.7,1.4-35c0.9-5.6,3-14.3,6.4-18.9c2-2.7,5.2-4.1,6.7-7.2c2.2-4.3,2-10.2,2.7-14.9
	c0.6-4,1.8-8.9,0.1-12.8c-1.3-3.1-4.6-5.1-7.3-7c-6.5-4.7-13.2-9.1-20-13.3c-9.6-6-19.2-12.1-29-17.8c-3.9-2.2-8.3-3.5-12-6.1
	c-12.6-8.9-26.1-21.3-41-26c8.8,9.6,22.7,15.8,33,24c16.5,13.1,31.2,29.8,49,41c-2.2-4.8-6.2-7.5-10-11.1
	c-6.4-5.9-12.8-11.8-19-17.9c16.8,7.9,31.1,21,48,29c-4.3,4.4-8,9.4-13,13c0.7-3.9,0.7-6.4-1-10c-1.2,0.6-1,0.5-2,2
	c-9-9.9-23.9-16.3-35-23.7c-15.4-10.2-31.3-19.6-47-29.4C61.9,28.6,51.8,21.1,41,16C42.4,13.6,43.5,11.8,43,9z"/>
<path class="st14" d="M57,9l1,1L57,9z"/>
<path class="st6" d="M58,10l1,1L58,10z"/>
<path class="st15" d="M41,11l1,1L41,11z"/>
<path class="st16" d="M58,11c3.1,3.3,6.8,5.4,11,7C65.9,14.6,62.3,12.4,58,11z"/>
<path class="st3" d="M60,11l1,1L60,11z"/>
<path class="st17" d="M40,12l1,1L40,12z"/>
<path class="st14" d="M39,13l1,1L39,13z"/>
<path class="st18" d="M63,13l1,1L63,13z"/>
<path class="st14" d="M65,14l1,1L65,14z"/>
<path class="st19" d="M38,15l1,1L38,15z"/>
<path class="st20" d="M66,15l1,1L66,15z"/>
<path class="st14" d="M37,16l1,1L37,16z"/>
<path class="st18" d="M68,16l1,1L68,16z"/>
<path class="st21" d="M69,17l1,1L69,17z"/>
<path class="st6" d="M36,18l1,1L36,18z"/>
<path class="st17" d="M71,18l1,1L71,18z"/>
<path class="st14" d="M35,19l1,1L35,19z"/>
<path class="st3" d="M73,19l1,1L73,19z"/>
<path class="st18" d="M35,20l1,1L35,20z"/>
<path class="st7" d="M74,20l1,1L74,20z"/>
<path class="st12" d="M36,21l1,1L36,21 M76,21l1,1L76,21z"/>
<path class="st7" d="M38,22l1,1L38,22z"/>
<path class="st3" d="M78,22l1,1L78,22z"/>
<path class="st20" d="M39,23l1,1L39,23 M79,23l1,1L79,23z"/>
<path class="st12" d="M40,24l1,1L40,24z"/>
<path class="st9" d="M81,24l1,1L81,24z"/>
<path class="st21" d="M42,25l1,1L42,25 M82,25l1,1L82,25z"/>
<path class="st12" d="M43,26l1,1L43,26z"/>
<path class="st6" d="M84,26l1,1L84,26z"/>
<path class="st0" d="M45,27l1,1L45,27z"/>
<path class="st12" d="M46,28l1,1L46,28z"/>
<path class="st21" d="M87,28l1,1L87,28 M48,29l1,1L48,29z"/>
<path class="st18" d="M89,29l1,1L89,29z"/>
<path class="st12" d="M49,30l1,1L49,30z"/>
<path class="st22" d="M91,30l1,1L91,30z"/>
<path class="st0" d="M51,31l1,1L51,31z"/>
<path class="st20" d="M92,31l1,1L92,31z"/>
<path class="st22" d="M52,32l1,1L52,32z"/>
<path class="st18" d="M94,32l1,1L94,32z"/>
<path class="st20" d="M54,33l1,1L54,33z"/>
<path class="st7" d="M95,33l1,1L95,33z"/>
<path class="st14" d="M96,33l1,1L96,33z"/>
<path class="st3" d="M55,34l1,1L55,34z"/>
<path class="st19" d="M97,34l1,1L97,34 M57,35l1,1L57,35z"/>
<path class="st0" d="M98,35l1,1L98,35z"/>
<path class="st23" d="M100,36l1,1L100,36z"/>
<path class="st6" d="M60,37l1,1L60,37z"/>
<path class="st21" d="M101,37l1,1L101,37z"/>
<path class="st14" d="M61,38l1,1L61,38z"/>
<path class="st15" d="M62,38l1,1L62,38z"/>
<path class="st14" d="M103,38l1,1L103,38z"/>
<path class="st23" d="M63,39l1,1L63,39z"/>
<path class="st9" d="M104,39l1,1L104,39z"/>
<path class="st7" d="M65,40l1,1L65,40z"/>
<path class="st20" d="M105,40l1,1L105,40z"/>
<path class="st18" d="M66,41l1,1L66,41z"/>
<path class="st7" d="M106,41l1,1L106,41z"/>
<path class="st0" d="M68,42l1,1L68,42z"/>
<path class="st3" d="M108,42l1,1L108,42z"/>
<path class="st12" d="M69,43l1,1L69,43z"/>
<path class="st9" d="M109,43l1,1L109,43z"/>
<path class="st19" d="M71,44l1,1L71,44z"/>
<path class="st20" d="M110,44l1,1L110,44z"/>
<path class="st22" d="M72,45l1,1L72,45z"/>
<path class="st15" d="M73,45l1,1L73,45z"/>
<path class="st11" d="M111,45l1,1L111,45z"/>
<path class="st9" d="M112,45l1,1L112,45z"/>
<path class="st6" d="M74,46l1,1L74,46 M114,46l1,1L114,46z"/>
<path class="st12" d="M115,46l1,1L115,46z"/>
<path class="st3" d="M75,47l1,1L75,47z"/>
<path class="st7" d="M76,47l1,1L76,47z"/>
<path class="st23" d="M117,47l1,1L117,47z"/>
<path class="st18" d="M77,48l1,1L77,48z"/>
<path class="st23" d="M119,48l1,1L119,48z"/>
<path class="st21" d="M79,49l1,1L79,49z"/>
<path class="st22" d="M121,49l1,1L121,49z"/>
<path class="st3" d="M80,50l1,1L80,50z"/>
<path class="st15" d="M122,50l1,1L122,50z"/>
<path class="st14" d="M123,50l1,1L123,50z"/>
<path class="st6" d="M82,51l1,1L82,51 M124,51l1,1L124,51z"/>
<path class="st18" d="M126,52l1,1L126,52z"/>
<path class="st23" d="M85,53l1,1L85,53z"/>
<path class="st15" d="M127,53l1,1L127,53z"/>
<path class="st3" d="M128,53l1,1L128,53z"/>
<path class="st0" d="M87,54l1,1L87,54z"/>
<path class="st24" d="M122,54c1.7,1.6,1.7,1.7,4,2C124.5,54.9,123.8,54.6,122,54z"/>
<path class="st21" d="M129,54l1,1L129,54z"/>
<path class="st9" d="M88,55l1,1L88,55 M131,55l1,1L131,55z"/>
<path class="st21" d="M90,56l1,1L90,56z"/>
<path class="st25" d="M125,56l1,1L125,56z"/>
<path class="st2" d="M125,57c6.9,8.6,16.1,15.3,24,23c5,4.9,9.1,8.7,9,16c4.8-3.4,8.6-8.2,12-13c-9.7-6.6-20.1-12.2-30-18.4
	C135.3,61.6,130.7,57.1,125,57z"/>
<path class="st3" d="M133,56l1,1L133,56z"/>
<path class="st22" d="M91,57l1,1L91,57z"/>
<path class="st11" d="M92,57l1,1L92,57z"/>
<path class="st6" d="M134,57l1,1L134,57z"/>
<path class="st19" d="M93,58l1,1L93,58z"/>
<path class="st9" d="M136,58l1,1L136,58z"/>
<path class="st14" d="M94,59l1,1L94,59z"/>
<path class="st7" d="M95,59l1,1L95,59 M137,59l1,1L137,59z"/>
<path class="st9" d="M96,60l1,1L96,60z"/>
<path class="st19" d="M139,60l1,1L139,60z"/>
<path class="st3" d="M61,61l1,1L61,61z"/>
<path class="st11" d="M62,61c1.5,0.7,2.3,0.8,4,1C64.5,61.3,63.7,61.2,62,61z"/>
<path class="st12" d="M66,61l1,1L66,61z"/>
<path class="st21" d="M98,61l1,1L98,61z"/>
<path class="st22" d="M141,61l1,1L141,61z"/>
<path class="st6" d="M60,62l1,1L60,62z"/>
<path class="st13" d="M48,77c0.8-2.5-0.3-5.5,1.1-7.8c2-3.4,14.7-5.2,17.1-2C69.5,71.6,68,79.8,68,85c6.9,0,16.3,1.1,21.7,6
	c3.3,2.9,1,10.8-2.8,12.4c-4.1,1.8-10.5,0.6-14.9,0.6H40c3.7,1.6,8,1,12,1h23h79c-2.2-0.9-4.7-1-6.8-2.2s-3.2-3.6-5.4-4.6
	c-2.4-1.1-5.2,0-7.7-1.2c-3-1.5-4.3-5-8.1-4.8c-5,0.4-7.6,5.4-13,5.8c0-9.2-7-22-16.7-12.8c-1.2,1.1-1.6,2.4-2.3,3.8h-2
	c-1.6-3.5-4.2-5.8-6-9.1c-2.6-4.7-3-10.7-3-15.9c-3-0.6-5.9-0.9-9-1l-1,16h-2c-0.1-4.4-0.1-13.3-4.3-16c-2.9-1.8-5.8,0.2-8.7,1
	c-2.3,0.6-4.7-0.1-6.9,0.7C45.8,66.5,47,72.9,48,77z"/>
<path class="st19" d="M67,62l1,1L67,62z"/>
<path class="st22" d="M99,62l1,1L99,62z"/>
<path class="st21" d="M142,62l1,1L142,62z"/>
<path class="st14" d="M51,63c1.5,0.7,2.3,0.8,4,1C53.5,63.3,52.7,63.2,51,63z"/>
<path class="st17" d="M59,63l1,1L59,63z"/>
<path class="st12" d="M68,63l1,1L68,63z"/>
<path class="st3" d="M73.3,63.7c-0.1,0.1-0.1,1.1,0.3,0.7C73.7,64.3,73.8,63.2,73.3,63.7z"/>
<path class="st11" d="M80,63c1.2,0.7,1.5,0.7,3,1C81.8,63.3,81.5,63.3,80,63z"/>
<path class="st22" d="M83,63l1,1L83,63z"/>
<path class="st20" d="M101,63l1,1L101,63z"/>
<path class="st9" d="M144,63l1,1L144,63z"/>
<path class="st21" d="M49,64l1,1L49,64z"/>
<path class="st26" d="M54,64c1.8,0.8,3,0.9,5,1C57.2,64.2,56,64.1,54,64z"/>
<path class="st27" d="M62,64c1.2,0.7,1.5,0.7,3,1C63.8,64.3,63.5,64.3,62,64z"/>
<path class="st17" d="M83,64v3C83.7,65.4,83.7,65.6,83,64z"/>
<path class="st14" d="M102,64l1,1L102,64z"/>
<path class="st15" d="M103,64l1,1L103,64 M145,64l1,1L145,64 M48,65l1,1L48,65z"/>
<path class="st28" d="M60,65l1,1L60,65z"/>
<path class="st29" d="M37,104c12.3,0,24.6-1,37-1c3.8,0,11.1,1.4,14.3-1c2.5-2,3.1-7,3.7-10c-7.8-4.5-16-6.6-25-7
	c0-4.4,2.3-17.5-3.1-19.3c-2.2-0.7-4.7,0.5-6.9,0.9s-5.4,0-7,2c-3.9,5,3.2,12,2,17.3c-0.6,2.9-4,4.5-6.1,6.3
	C42.2,95.6,39.2,99.4,37,104z"/>
<path class="st30" d="M65,65l1,1L65,65z"/>
<path class="st22" d="M69,65l1,1L69,65z"/>
<path class="st9" d="M73.3,65.7c-0.1,0.1-0.1,1.1,0.3,0.7C73.7,66.3,73.8,65.2,73.3,65.7z"/>
<path class="st31" d="M77,65c1.2,0.7,1.5,0.7,3,1C78.8,65.3,78.5,65.3,77,65z"/>
<path class="st23" d="M104,65l1,1L104,65z"/>
<path class="st12" d="M147,65l1,1L147,65z"/>
<path class="st11" d="M47,66l1,1L47,66z"/>
<path class="st32" d="M50,66c1.2,0.7,1.5,0.7,3,1C51.8,66.3,51.5,66.3,50,66z"/>
<path class="st33" d="M58,66l1,1L58,66z"/>
<path class="st32" d="M66,66l1,1L66,66z"/>
<path class="st16" d="M69.3,66.7c-0.1,0.1-0.1,1.1,0.3,0.7C69.7,67.3,69.8,66.2,69.3,66.7z"/>
<path class="st34" d="M77,66l-2,16l11,3c-5-6.4-4.6-11.3-6-19H77z"/>
<path class="st35" d="M80,66v3C80.7,67.4,80.7,67.6,80,66z"/>
<path class="st15" d="M148,66l1,1L148,66z"/>
<path class="st14" d="M149,66l1,1L149,66z"/>
<path class="st12" d="M46,67l1,1L46,67z"/>
<path class="st30" d="M49,67l1,1L49,67z"/>
<path class="st19" d="M73,67v3C73.7,68.4,73.7,68.6,73,67z"/>
<path class="st31" d="M76.3,67.7c-0.1,0.1-0.1,1.1,0.3,0.7C76.7,68.3,76.8,67.2,76.3,67.7z"/>
<path class="st9" d="M83.3,67.7c-0.1,0.1-0.1,1.1,0.3,0.7C83.7,68.3,83.8,67.2,83.3,67.7 M107,67l1,1L107,67z"/>
<path class="st17" d="M150,67l1,1L150,67z"/>
<path class="st7" d="M46,68v5C46.8,71,46.8,70,46,68z"/>
<path class="st33" d="M48,68l1,1L48,68z"/>
<path class="st21" d="M109,68l1,1L109,68z"/>
<path class="st3" d="M152,68l1,1L152,68z"/>
<path class="st36" d="M48,69v4C48.7,71.2,48.7,70.8,48,69z"/>
<path class="st37" d="M67.3,69.7c-0.1,0.1-0.1,1.1,0.3,0.7C67.7,70.3,67.8,69.2,67.3,69.7z"/>
<path class="st12" d="M70.3,69.7c-0.1,0.1-0.1,1.1,0.3,0.7C70.7,70.3,70.8,69.2,70.3,69.7z"/>
<path class="st21" d="M83.3,69.7c-0.1,0.1-0.1,1.1,0.3,0.7C83.7,70.3,83.8,69.2,83.3,69.7z"/>
<path class="st12" d="M110,69l1,1L110,69z"/>
<path class="st6" d="M153,69l1,1L153,69z"/>
<path class="st21" d="M73,70v3C73.7,71.4,73.7,71.6,73,70z"/>
<path class="st17" d="M112,70l1,1L112,70z"/>
<path class="st3" d="M155,70l1,1L155,70z"/>
<path class="st30" d="M67,71v14C68.7,81,68.7,75,67,71z"/>
<path class="st0" d="M70.3,71.7c-0.1,0.1-0.1,1.1,0.3,0.7C70.7,72.3,70.8,71.2,70.3,71.7z"/>
<path class="st16" d="M83.3,71.7c-0.1,0.1-0.1,1.1,0.3,0.7C83.7,72.3,83.8,71.2,83.3,71.7z"/>
<path class="st14" d="M113,71l1,1L113,71z"/>
<path class="st7" d="M114,71l1,1L114,71z"/>
<path class="st6" d="M156,71l1,1L156,71z"/>
<path class="st38" d="M81,72v4C81.7,74.2,81.7,73.8,81,72z"/>
<path class="st18" d="M115,72l1,1L115,72z"/>
<path class="st12" d="M158,72l1,1L158,72 M46,73l1,1L46,73z"/>
<path class="st37" d="M48,73l1,1L48,73z"/>
<path class="st0" d="M117,73l1,1L117,73z"/>
<path class="st6" d="M159,73l1,1L159,73z"/>
<path class="st38" d="M75,74v3C75.7,75.4,75.7,75.6,75,74z"/>
<path class="st14" d="M84,74l1,1L84,74z"/>
<path class="st22" d="M118,74l1,1L118,74z"/>
<path class="st3" d="M161,74l1,1L161,74z"/>
<path class="st7" d="M47,75l1,1L47,75z"/>
<path class="st27" d="M49,75l1,1L49,75z"/>
<path class="st18" d="M84,75l1,1L84,75z"/>
<path class="st6" d="M120,75l1,1L120,75z"/>
<path class="st20" d="M162,75l1,1L162,75z"/>
<path class="st3" d="M47,76l1,1L47,76z"/>
<path class="st39" d="M49,76c-0.1,5.2,3.1,8.6-1,13C55.7,89.4,51.4,79.6,49,76z"/>
<path class="st22" d="M71,76v2h2C72.5,76.4,72.6,76.5,71,76z"/>
<path class="st31" d="M81,76v5C81.8,79,81.8,78,81,76z"/>
<path class="st22" d="M164,76l1,1L164,76z"/>
<path class="st40" d="M75.3,77.7c-0.1,0.1-0.1,1.1,0.3,0.7C75.7,78.3,75.8,77.2,75.3,77.7z"/>
<path class="st18" d="M123,77l1,1L123,77z"/>
<path class="st20" d="M165,77l1,1L165,77z"/>
<path class="st17" d="M48,78l1,1L48,78z"/>
<path class="st41" d="M50,78l1,1L50,78z"/>
<path class="st39" d="M71.7,78.3c-0.4,0.4,0.6,0.4,0.7,0.3C72.8,78.2,71.7,78.3,71.7,78.3z"/>
<path class="st21" d="M125,78l1,1L125,78z"/>
<path class="st3" d="M167,78l1,1L167,78z"/>
<path class="st14" d="M85,79l1,1L85,79z"/>
<path class="st12" d="M126,79l1,1L126,79z"/>
<path class="st19" d="M168,79l1,1L168,79z"/>
<path class="st20" d="M49,80l1,1L49,80z"/>
<path class="st7" d="M85,80c1.1,1.5,1.5,1.9,3,3C86.9,81.5,86.5,81.1,85,80z"/>
<path class="st12" d="M103,80l1,1L103,80z"/>
<path class="st6" d="M104,80l1,1L104,80z"/>
<path class="st14" d="M105,80l1,1L105,80z"/>
<path class="st19" d="M128,80l1,1L128,80z"/>
<path class="st42" d="M74,81l1,1L74,81z"/>
<path class="st40" d="M82,81l1,1L82,81z"/>
<path class="st22" d="M100,81l1,1L100,81z"/>
<path class="st0" d="M101,81l1,1L101,81z"/>
<path class="st22" d="M106,81l1,1L106,81z"/>
<path class="st21" d="M130,81l1,1L130,81z"/>
<path class="st9" d="M171,81l1,1L171,81z"/>
<path class="st21" d="M50,82l1,1L50,82z"/>
<path class="st40" d="M75.7,82.3c-0.4,0.4,0.6,0.4,0.7,0.3C76.8,82.2,75.7,82.3,75.7,82.3z"/>
<path class="st15" d="M99,82l1,1L99,82z"/>
<path class="st12" d="M131,82l1,1L131,82z"/>
<path class="st5" d="M151,82l3,6C154.6,85,153.3,83.9,151,82z"/>
<path class="st21" d="M172,82l1,1L172,82z"/>
<path class="st22" d="M50,83l1,1L50,83z"/>
<path class="st31" d="M79.7,83.3c-0.4,0.4,0.6,0.4,0.7,0.3C80.8,83.2,79.7,83.3,79.7,83.3 M85,83l1,1L85,83z"/>
<path class="st12" d="M89,83l1,1L89,83z"/>
<path class="st18" d="M97,83l1,1L97,83z"/>
<path class="st3" d="M107,83l1,1L107,83z"/>
<path class="st6" d="M133,83l1,1L133,83z"/>
<path class="st43" d="M149,83c1.4,1.6,2.1,2.1,4,3C151.6,84.4,150.9,83.9,149,83z"/>
<path class="st3" d="M174,83l1,1L174,83z"/>
<path class="st44" d="M83,84l1,1L83,84z"/>
<path class="st45" d="M86,84v2h2C87.5,84.4,87.6,84.5,86,84z"/>
<path class="st15" d="M96,84l1,1L96,84z"/>
<path class="st21" d="M107,84l1,1L107,84z"/>
<path class="st19" d="M175,84l1,1L175,84z"/>
<path class="st41" d="M72.7,85.3c-0.4,0.4,0.6,0.4,0.7,0.3C73.8,85.2,72.7,85.3,72.7,85.3z"/>
<path class="st37" d="M74,85c1.2,0.7,1.5,0.7,3,1C75.8,85.3,75.5,85.3,74,85z"/>
<path class="st46" d="M85,85l1,1L85,85z"/>
<path class="st0" d="M88.3,85.7c-0.1,0.1-0.1,1.1,0.3,0.7C88.7,86.3,88.8,85.2,88.3,85.7z"/>
<path class="st12" d="M90,85l1,1L90,85z"/>
<path class="st7" d="M95,85l1,1L95,85z"/>
<path class="st12" d="M108,85l1,1L108,85z"/>
<path class="st19" d="M136,85l1,1L136,85z"/>
<path class="st21" d="M176,85l1,1L176,85z"/>
<path class="st28" d="M79,86l1,1L79,86z"/>
<path class="st19" d="M94,86l1,1L94,86z"/>
<path class="st22" d="M109,86l1,1L109,86z"/>
<path class="st7" d="M138,86l1,1L138,86z"/>
<path class="st47" d="M153,86l1,1L153,86z"/>
<path class="st14" d="M49,87l1,1L49,87z"/>
<path class="st15" d="M50,87l1,1L50,87z"/>
<path class="st48" d="M82.7,87.3c-0.4,0.4,0.6,0.4,0.7,0.3C83.8,87.2,82.7,87.3,82.7,87.3z"/>
<path class="st7" d="M91,87l1,1L91,87z"/>
<path class="st12" d="M110,87l1,1L110,87z"/>
<path class="st9" d="M139,87l1,1L139,87z"/>
<path class="st15" d="M178,87l1,1L178,87z"/>
<path class="st9" d="M48,88l1,1L48,88z"/>
<path class="st37" d="M85,88l1,1L85,88z"/>
<path class="st19" d="M92,88l1,1L92,88z"/>
<path class="st15" d="M93,88l1,1L93,88z"/>
<path class="st17" d="M111,88l1,1L111,88z"/>
<path class="st6" d="M141,88l1,1L141,88z"/>
<path class="st23" d="M27,89l1,1L27,89z"/>
<path class="st19" d="M47,89l1,1L47,89z"/>
<path class="st28" d="M49,89l1,1L49,89 M87,89l1,1L87,89z"/>
<path class="st20" d="M112,89l1,5C113.8,91.7,113.5,90.9,112,89z"/>
<path class="st14" d="M142,89l1,1L142,89z"/>
<path class="st7" d="M143,89l1,1L143,89z"/>
<path class="st15" d="M26,90l1,1L26,90z"/>
<path class="st13" d="M26,104h-6c5.8,2.4,15.3,2.4,18-4c-3.8-1.9-6.2-7.5-10.2-8.5C18.8,89.2,24.1,101.1,26,104z"/>
<path class="st0" d="M28,90l1,1L28,90z"/>
<path class="st49" d="M39,98c3.9-1.8,6.5-4.5,9-8C44.1,91.8,41.5,94.5,39,98z"/>
<path class="st41" d="M89,90l1,1L89,90z"/>
<path class="st9" d="M144,90l1,1L144,90z"/>
<path class="st50" d="M158.3,90.7c-0.1,0.1-0.1,1.1,0.3,0.7C158.7,91.3,158.8,90.2,158.3,90.7z"/>
<path class="st22" d="M24,91l1,1L24,91z"/>
<path class="st12" d="M29,91l1,1L29,91z"/>
<path class="st49" d="M91,91l1,1L91,91z"/>
<path class="st18" d="M124,91l1,1L124,91z"/>
<path class="st39" d="M125,91c1.5,0.7,2.3,0.8,4,1C127.5,91.3,126.7,91.2,125,91z"/>
<path class="st14" d="M129,91l1,1L129,91z"/>
<path class="st20" d="M146,91l1,1L146,91z"/>
<path class="st18" d="M23,92l1,1L23,92z"/>
<path class="st14" d="M30,92l1,1L30,92z"/>
<path class="st12" d="M122,92l1,1L122,92z"/>
<path class="st3" d="M147,92l1,1L147,92z"/>
<path class="st17" d="M22,93l1,1L22,93z"/>
<path class="st15" d="M30,93l1,1L30,93z"/>
<path class="st3" d="M121,93l1,1L121,93z"/>
<path class="st19" d="M130,93l1,1L130,93z"/>
<path class="st17" d="M149,93l1,1L149,93z"/>
<path class="st50" d="M157,93v3C157.7,94.4,157.7,94.6,157,93z"/>
<path class="st0" d="M21,94l1,1L21,94z"/>
<path class="st20" d="M31,94l1,1L31,94z"/>
<path class="st48" d="M91.3,94.7c-0.1,0.1-0.1,1.1,0.3,0.7C91.7,95.3,91.8,94.2,91.3,94.7z"/>
<path class="st12" d="M113,94l1,1L113,94z"/>
<path class="st15" d="M151,94l1,1L151,94z"/>
<path class="st14" d="M20.3,95.7c-0.1,0.1-0.1,1.1,0.3,0.7C20.7,96.3,20.8,95.2,20.3,95.7z"/>
<path class="st12" d="M32,95l1,1L32,95z"/>
<path class="st17" d="M120,95l1,1L120,95z"/>
<path class="st23" d="M131,95l1,1L131,95z"/>
<path class="st12" d="M152,95l1,1L152,95 M119,96l1,1L119,96z"/>
<path class="st14" d="M132,96l1,1L132,96z"/>
<path class="st21" d="M154,96l1,1L154,96z"/>
<path class="st20" d="M21,97l1,1L21,97z"/>
<path class="st33" d="M90,97l1,1L90,97z"/>
<path class="st19" d="M113,97l1,1L113,97z"/>
<path class="st3" d="M114,97c1.5,0.7,2.3,0.8,4,1C116.5,97.3,115.7,97.2,114,97z"/>
<path class="st6" d="M118,97l1,1L118,97z"/>
<path class="st22" d="M133,97l1,1L133,97z"/>
<path class="st12" d="M137.7,97.3c-0.4,0.4,0.6,0.4,0.7,0.3C138.8,97.2,137.7,97.3,137.7,97.3z"/>
<path class="st6" d="M139,97l1,1L139,97z"/>
<path class="st20" d="M142,97l1,1L142,97z"/>
<path class="st12" d="M155,97l1,1L155,97z"/>
<path class="st7" d="M22,98l1,1L22,98z"/>
<path class="st21" d="M34,98l1,1L34,98z"/>
<path class="st39" d="M37,100c1.6-0.7,1.8-0.8,3-2C38.4,98.7,38.2,98.8,37,100z"/>
<path class="st9" d="M143,98l1,1L143,98z"/>
<path class="st21" d="M178,98v3C178.7,99.4,178.7,99.6,178,98z"/>
<path class="st17" d="M35,99l1,1L35,99z"/>
<path class="st27" d="M39,99l1,1L39,99z"/>
<path class="st11" d="M158,99l1,1L158,99z"/>
<path class="st14" d="M23,100l1,1L23,100z"/>
<path class="st32" d="M38,100l1,1L38,100z"/>
<path class="st12" d="M144,100l1,1L144,100z"/>
<path class="st14" d="M158,100l1,1L158,100z"/>
<path class="st23" d="M24,101l1,1L24,101z"/>
<path class="st37" d="M89.3,101.7c-0.1,0.1-0.1,1.1,0.3,0.7C89.7,102.3,89.8,101.2,89.3,101.7z"/>
<path class="st12" d="M178,101v4C178.7,103.2,178.7,102.8,178,101z"/>
<path class="st41" d="M37,102l1,1L37,102z"/>
<path class="st11" d="M145,102l1,1L145,102z"/>
<path class="st17" d="M25,103l1,1L25,103z"/>
<path class="st37" d="M36,103c1.3,1.6,1.9,1.7,4,2C38.6,104.1,37.6,103.6,36,103z"/>
<path class="st36" d="M49,103c2.3,1,4.5,1,7,1C53.7,103,51.5,103,49,103z"/>
<path class="st28" d="M56,103c1.8,0.8,3,0.9,5,1C59.2,103.2,58,103.1,56,103z"/>
<path class="st32" d="M61,103c2.6,1.1,5.2,1,8,1C66.4,102.9,63.8,103,61,103z"/>
<path class="st51" d="M69,103c5.7,2.4,13.8,1,20,1C83.3,101.6,75.2,103,69,103z"/>
<path class="st19" d="M147,103l1,1L147,103z"/>
<path class="st22" d="M148,103l1,1L148,103 M158,103l1,1L158,103z"/>
<path class="st12" d="M6,104v16C7.8,115.7,7.8,108.3,6,104z"/>
<path class="st39" d="M7,104c3.6,2.1,8.8,1,13,1C16,103.3,11.3,104,7,104z"/>
<path class="st8" d="M61,105c3.7,1.6,8,1,12,1h21h75c-9.3-3.9-23-1-33-1H61z"/>
<path class="st1" d="M8,119c1.7-4,1-8.7,1-13h52c-4-1.7-8.7-1-13-1H22c-3.3,0-9.6-1.2-12.4,1C6.6,108.4,8,115.7,8,119z"/>
<path class="st26" d="M177,105v4C177.7,107.2,177.7,106.8,177,105z"/>
<path class="st2" d="M9,106v13h160c-0.8-4.6-0.6-8.4,0-13H9z"/>
<path class="st43" d="M168,109v8C169.2,114.2,169.2,111.8,168,109z"/>
<path class="st6" d="M177,109l1,1L177,109z"/>
<path class="st3" d="M177,110l1,1L177,110z"/>
<path class="st20" d="M176,113l1,1L176,113z"/>
<path class="st9" d="M176,114l1,1L176,114z"/>
<path class="st11" d="M175,116l1,1L175,116z"/>
<path class="st12" d="M174,118l1,1L174,118z"/>
<path class="st22" d="M173,119l1,1L173,119z"/>
<path class="st7" d="M170,120l1,1L170,120z"/>
<path class="st12" d="M171,120l1,1L171,120z"/>
<path class="st22" d="M7,121l1,1L7,121z"/>
<path class="st0" d="M8,121l1,1L8,121z"/>
<path class="st50" d="M26,121c3.7,1.6,8,1,12,1h22c-3.7-1.6-8-1-12-1H26z"/>
<path class="st5" d="M60,121v6C61,124.7,61,123.3,60,121z"/>
<path class="st50" d="M66,121c4.5,1.9,10.2,1,15,1h29c-4.5-1.9-10.2-1-15-1H66 M115,121c4.5,1.9,10.2,1,15,1h29
	c-4.5-1.9-10.2-1-15-1H115z"/>
<path class="st17" d="M9,122l1,1L9,122z"/>
<path class="st2" d="M26,122c0,32.7,3.5,65.4,5,98c1.1,24.7,2.3,49.3,3.9,74c0.8,11,0.1,22.1,1.4,33c1.7,14.5,1.6,29.4,2.6,44
	c0.3,4.8-1.4,11.9,2.4,15.7c3.4,3.4,9.4,2.3,13.7,2.3c1.6-5,6.3-6,11-7.4c8.7-2.6,17.4-4.9,26-7.6c3,5.7,5.7,9.4,7,16l48-1
	c-5.4-7.6-12.1-14-12.8-24c-0.6-9,4.5-18,10.8-23.9c2.4-2.2,6.2-3.9,8-6.6c1.4-2.1,1-5.1,1-7.5c0-5.1,0.6-10,0.9-15
	c1.1-15.5,0.1-31.4,0.1-47c0-20.9,0.8-42,1-63c0.3-26.6,2.8-53.4,3-80h-44c0,6,0.4,12.1-1,18c-5.4-4.5-3.8-11.6-5-18H66
	c0.1,6.5,1,11.6-1,18h-2c-2.2-5.9-3-11.7-3-18H26z"/>
<path class="st43" d="M109,122v3C109.7,123.4,109.7,123.6,109,122z"/>
<path class="st9" d="M168,122l1,1L168,122z"/>
<path class="st12" d="M10,123l1,1L10,123z"/>
<path class="st18" d="M11,124l1,1L11,124z"/>
<path class="st6" d="M167,124l1,1L167,124z"/>
<path class="st19" d="M12,125l1,1L12,125z"/>
<path class="st7" d="M13,126l1,1L13,126z"/>
<path class="st11" d="M14,127l1,1L14,127z"/>
<path class="st52" d="M60,127v4C60.7,129.2,60.7,128.8,60,127z"/>
<path class="st20" d="M166,127l1,1L166,127z"/>
<path class="st14" d="M14,128l1,1L14,128z"/>
<path class="st53" d="M66,128v8C67.2,133.2,67.2,130.8,66,128z"/>
<path class="st9" d="M166,128l1,1L166,128z"/>
<path class="st12" d="M15,129l1,1L15,129z"/>
<path class="st52" d="M158,129v9C159.3,135,159.3,132,158,129z"/>
<path class="st17" d="M16,130l1,1L16,130z"/>
<path class="st21" d="M17,131l1,1L17,131z"/>
<path class="st20" d="M165,131l1,1L165,131z"/>
<path class="st7" d="M18,132l1,1L18,132z"/>
<path class="st52" d="M26,132v6C27,135.7,27,134.3,26,132z"/>
<path class="st15" d="M19,133c1.1,1.5,1.5,1.9,3,3C20.9,134.5,20.5,134.1,19,133z"/>
<path class="st24" d="M61,134v3C61.7,135.4,61.7,135.6,61,134z"/>
<path class="st12" d="M164.3,134.7c-0.1,0.1-0.1,1.1,0.3,0.7C164.7,135.3,164.8,134.2,164.3,134.7z"/>
<path class="st21" d="M22,136l1,1L22,136z"/>
<path class="st12" d="M23,137l1,1L23,137z"/>
<path class="st6" d="M163,137l1,1L163,137z"/>
<path class="st14" d="M24,138v3C24.7,139.4,24.7,139.6,24,138z"/>
<path class="st54" d="M26,138v8C27.2,143.2,27.2,140.8,26,138z"/>
<path class="st10" d="M158,138v8C159.2,143.2,159.2,140.8,158,138z"/>
<path class="st54" d="M63.7,139.3c-0.4,0.4,0.6,0.4,0.7,0.3C64.8,139.2,63.7,139.3,63.7,139.3z"/>
<path class="st5" d="M112.7,139.3c-0.4,0.4,0.6,0.4,0.7,0.3C113.8,139.2,112.7,139.3,112.7,139.3z"/>
<path class="st19" d="M162,140v5C162.8,143,162.8,142,162,140z"/>
<path class="st16" d="M25,141v10C26.3,147.8,26.3,144.2,25,141z"/>
<path class="st3" d="M162,145v3C162.7,146.4,162.7,146.6,162,145z"/>
<path class="st4" d="M26,146v16C27.8,157.7,27.8,150.3,26,146z"/>
<path class="st23" d="M25,151v3C25.7,152.4,25.7,152.6,25,151z"/>
<path class="st3" d="M25,154v3C25.7,155.4,25.7,155.6,25,154z"/>
<path class="st43" d="M27.3,157.7c-0.1,0.1-0.1,1.1,0.3,0.7C27.7,158.3,27.8,157.2,27.3,157.7z"/>
<path class="st24" d="M27.3,159.7c-0.1,0.1-0.1,1.1,0.3,0.7C27.7,160.3,27.8,159.2,27.3,159.7z"/>
<path class="st20" d="M161,159v3C161.7,160.4,161.7,160.6,161,159z"/>
<path class="st53" d="M157,160v5C157.8,163,157.8,162,157,160z"/>
<path class="st16" d="M27,161l-1,4C27.1,163.4,27.4,162.9,27,161z"/>
<path class="st9" d="M161,162v3C161.7,163.4,161.7,163.6,161,162z"/>
<path class="st4" d="M27,163v15C28.7,173.9,28.7,167.1,27,163z"/>
<path class="st17" d="M26,165v5C26.8,168,26.8,167,26,165z"/>
<path class="st55" d="M157,165v5C157.8,168,157.8,167,157,165z"/>
<path class="st12" d="M26,170v7C27.1,174.5,27.1,172.5,26,170z"/>
<path class="st24" d="M28,175v14C29.7,185,29.7,179,28,175z"/>
<path class="st14" d="M26,177v3C26.7,178.4,26.7,178.6,26,177z"/>
<path class="st26" d="M27,178v11C28.4,185.6,28.4,181.4,27,178z"/>
<path class="st11" d="M160,181v3C160.7,182.4,160.7,182.6,160,181z"/>
<path class="st20" d="M160,184v5C160.8,187,160.8,186,160,184z"/>
<path class="st11" d="M27.3,189.7c-0.1,0.1-0.1,1.1,0.3,0.7C27.7,190.3,27.8,189.2,27.3,189.7z"/>
<path class="st13" d="M28,189c0,51.7,4.7,103.4,6,155c0.3,10.6,1.1,21.4,2.1,32c0.4,3.9,0.3,9.7,3.2,12.6c3.8,3.7,10.8,2.4,15.7,2.4
	c0.1,4.8,0.9,9.4,2,14c10.3-1.3,20.7-0.8,31-1.8c6.7-0.7,12.3-2.1,12-10.2c16.3,0,32.6-2,49-2c9.4,0,18.2,2.6,27-2.2
	c20.6-11.2,19.9-43.5-2-52.9c-15.9-6.8-36.3,3.6-38.8,21.1c-1.9,13.3,2.6,22.7,11.8,32l-48,1c-0.6-4.3-1.4-10.4-5.1-13.1
	c-3.2-2.3-6.4-1-9.9-0.2c-6.4,1.5-12.9,2.7-19,5.3c7,2.7,14-3.6,20.9-2.5S92,395.9,92,401c-11.4,0-22.6,0.5-34,1c0-4.6-1-8.6-2-13
	c-6.4,0.8-12.3,1.2-16.3-5c-2.6-4-1.7-9.5-1.7-14c0-9.3-0.3-18.7-1.2-28c-3.6-37.9-3.1-76.1-6.7-114c-0.8-8.9-0.5-18.1-1.1-27
	C28.8,197,29.6,192.8,28,189z"/>
<path class="st19" d="M160,189v13C161.6,198.2,161.6,192.8,160,189z"/>
<path class="st6" d="M27.3,191.7c-0.1,0.1-0.1,1.1,0.3,0.7C27.7,192.3,27.8,191.2,27.3,191.7z"/>
<path class="st14" d="M27,193v6C28,196.7,28,195.3,27,193z"/>
<path class="st53" d="M156,195v12C157.5,203.4,157.5,198.6,156,195 M29.3,200.7c-0.1,0.1-0.1,1.1,0.3,0.7
	C29.7,201.3,29.8,200.2,29.3,200.7z"/>
<path class="st55" d="M29,202v3C29.7,203.4,29.7,203.6,29,202z"/>
<path class="st9" d="M160,202v3C160.7,203.4,160.7,203.6,160,202z"/>
<path class="st14" d="M160,205v3C160.7,206.4,160.7,206.6,160,205z"/>
<path class="st0" d="M28,207v3C28.7,208.4,28.7,208.6,28,207z"/>
<path class="st50" d="M156,207v11C157.4,214.6,157.4,210.4,156,207z"/>
<path class="st23" d="M28,210v11C29.4,217.6,29.4,213.4,28,210z"/>
<path class="st53" d="M30,215v5C30.8,218,30.8,217,30,215z"/>
<path class="st10" d="M156,218v11C157.4,225.6,157.4,221.4,156,218z"/>
<path class="st24" d="M30,220v6C31,223.7,31,222.3,30,220z"/>
<path class="st3" d="M28,221v3C28.7,222.4,28.7,222.6,28,221z"/>
<path class="st7" d="M159.3,225.7c-0.1,0.1-0.1,1.1,0.3,0.7C159.7,226.3,159.8,225.2,159.3,225.7z"/>
<path class="st5" d="M30,226v5C30.8,229,30.8,228,30,226z"/>
<path class="st19" d="M159,227v3C159.7,228.4,159.7,228.6,159,227z"/>
<path class="st56" d="M156,229v16C157.8,240.7,157.8,233.3,156,229z"/>
<path class="st8" d="M29,232v4C29.7,234.2,29.7,233.8,29,232z"/>
<path class="st15" d="M29,236v3C29.7,237.4,29.7,237.6,29,236z"/>
<path class="st9" d="M29.3,239.7c-0.1,0.1-0.1,1.1,0.3,0.7C29.7,240.3,29.8,239.2,29.3,239.7z"/>
<path class="st22" d="M29,241v4C29.7,243.2,29.7,242.8,29,241z"/>
<path class="st11" d="M158,243v8C159.2,248.2,159.2,245.8,158,243z"/>
<path class="st0" d="M158,251v3C158.7,252.4,158.7,252.6,158,251z"/>
<path class="st16" d="M30.3,253.7c-0.1,0.1-0.1,1.1,0.3,0.7C30.7,254.3,30.8,253.2,30.3,253.7z"/>
<path class="st52" d="M32,254v8C33.2,259.2,33.2,256.8,32,254z"/>
<path class="st17" d="M158,254v8C159.2,259.2,159.2,256.8,158,254z"/>
<path class="st57" d="M30,255v3C30.7,256.4,30.7,256.6,30,255z"/>
<path class="st53" d="M155,255v6C156,258.7,156,257.3,155,255z"/>
<path class="st23" d="M30,258v13C31.6,267.2,31.6,261.8,30,258z"/>
<path class="st50" d="M155,261v8C156.2,266.2,156.2,263.8,155,261z"/>
<path class="st1" d="M32,262v4C32.7,264.2,32.7,263.8,32,262z"/>
<path class="st3" d="M158,262v7C159.1,266.5,159.1,264.5,158,262z"/>
<path class="st5" d="M155,269v18C157,282.3,157,273.7,155,269z"/>
<path class="st3" d="M30,271v3C30.7,272.4,30.7,272.6,30,271z"/>
<path class="st50" d="M33,276v3C33.7,277.4,33.7,277.6,33,276z"/>
<path class="st6" d="M157,282v5C157.8,285,157.8,284,157,282z"/>
<path class="st11" d="M31,286v3C31.7,287.4,31.7,287.6,31,286z"/>
<path class="st4" d="M155,287v36c0,4-1.7,11,3,12C150.3,321.2,161,301.3,155,287z"/>
<path class="st3" d="M157,287v7C158.1,291.5,158.1,289.5,157,287z"/>
<path class="st23" d="M31.3,289.7c-0.1,0.1-0.1,1.1,0.3,0.7C31.7,290.3,31.8,289.2,31.3,289.7z"/>
<path class="st52" d="M34,290v5C34.8,293,34.8,292,34,290z"/>
<path class="st22" d="M31,291v4C31.7,293.2,31.7,292.8,31,291z"/>
<path class="st55" d="M34,295v6C35,298.7,35,297.3,34,295z"/>
<path class="st15" d="M156,298v8C157.2,303.2,157.2,300.8,156,298z"/>
<path class="st25" d="M35,303l1,1L35,303z"/>
<path class="st11" d="M32.3,304.7c-0.1,0.1-0.1,1.1,0.3,0.7C32.7,305.3,32.8,304.2,32.3,304.7z"/>
<path class="st21" d="M32,306v8C33.2,311.2,33.2,308.8,32,306z"/>
<path class="st20" d="M156,306v8C157.2,311.2,157.2,308.8,156,306z"/>
<path class="st43" d="M35.3,312.7c-0.1,0.1-0.1,1.1,0.3,0.7C35.7,313.3,35.8,312.2,35.3,312.7z"/>
<path class="st12" d="M32,314v5C32.8,317,32.8,316,32,314z"/>
<path class="st24" d="M35,314v3C35.7,315.4,35.7,315.6,35,314z"/>
<path class="st9" d="M156,314v3C156.7,315.4,156.7,315.6,156,314z"/>
<path class="st53" d="M154,315v20C156.1,330,156.1,320,154,315z"/>
<path class="st3" d="M156.3,317.7c-0.1,0.1-0.1,1.1,0.3,0.7C156.7,318.3,156.8,317.2,156.3,317.7z"/>
<path class="st14" d="M32,319v3C32.7,320.4,32.7,320.6,32,319z"/>
<path class="st24" d="M36,328v12C37.5,336.4,37.5,331.6,36,328z"/>
<path class="st22" d="M158,333c1.2,0.7,1.5,0.7,3,1C159.8,333.3,159.5,333.3,158,333z"/>
<path class="st6" d="M161,333c1.8,0.8,3,0.9,5,1C164.2,333.2,163,333.1,161,333z"/>
<path class="st21" d="M170,334l1,1L170,334z"/>
<path class="st9" d="M171,334l1,1L171,334z"/>
<path class="st23" d="M33.3,335.7c-0.1,0.1-0.1,1.1,0.3,0.7C33.7,336.3,33.8,335.2,33.3,335.7z"/>
<path class="st21" d="M173,335l1,1L173,335z"/>
<path class="st20" d="M175,336l1,1L175,336z"/>
<path class="st14" d="M176,336l1,1L176,336z"/>
<path class="st3" d="M33,337v3C33.7,338.4,33.7,338.6,33,337z"/>
<path class="st17" d="M156.7,337.3c-0.4,0.4,0.6,0.4,0.7,0.3C157.8,337.2,156.7,337.3,156.7,337.3z"/>
<path class="st58" d="M158,337.4c-19.8,3.2-27.4,28.9-13.8,43.5c5.8,6.2,14.6,8,22.8,6.8c3.8-0.6,7.7-1.7,11-3.8
	C201.6,368.8,183.7,333.3,158,337.4z"/>
<path class="st47" d="M166,337l1,1L166,337z"/>
<path class="st6" d="M177,337l1,1L177,337z"/>
<path class="st57" d="M152,338l1,1L152,338z"/>
<path class="st47" d="M170,338l1,1L170,338z"/>
<path class="st22" d="M179,338l1,1L179,338z"/>
<path class="st59" d="M150,339l1,1L150,339z"/>
<path class="st60" d="M172,339l1,1L172,339z"/>
<path class="st61" d="M173,339l1,1L173,339z"/>
<path class="st19" d="M180,339l1,1L180,339z"/>
<path class="st47" d="M148,340l1,1L148,340z"/>
<path class="st57" d="M175,340l1,1L175,340z"/>
<path class="st21" d="M181,340l1,1L181,340z"/>
<path class="st0" d="M182,341l1,1L182,341z"/>
<path class="st11" d="M145,342l1,1L145,342z"/>
<path class="st47" d="M178,342l1,1L178,342z"/>
<path class="st7" d="M183,342l1,1L183,342z"/>
<path class="st58" d="M179,343l1,1L179,343z"/>
<path class="st20" d="M184,343l1,1L184,343z"/>
<path class="st18" d="M161,344c1.8,0.8,3,0.9,5,1C164.2,344.2,163,344.1,161,344z"/>
<path class="st17" d="M185,344l1,1L185,344z"/>
<path class="st57" d="M158,345l1,1L158,345z"/>
<path class="st13" d="M155,347c3,0.9,5.9-0.2,9,0.4c4.8,0.9,8.9,4.1,13,6.6C172.8,345,163.6,343.4,155,347z"/>
<path class="st18" d="M168,345l1,1L168,345z"/>
<path class="st62" d="M142,346l1,1L142,346z"/>
<path class="st63" d="M155,346l1,1L155,346z"/>
<path class="st59" d="M170,346l1,1L170,346z"/>
<path class="st0" d="M186,346l1,1L186,346 M141,347l1,1L141,347z"/>
<path class="st15" d="M154,347l1,1L154,347z"/>
<path class="st26" d="M158,347c2.6,1.1,5.2,1,8,1C163.4,346.9,160.8,347,158,347z"/>
<path class="st18" d="M172,347l1,1L172,347z"/>
<path class="st9" d="M187,347l1,1L187,347z"/>
<path class="st17" d="M152,348l1,1L152,348z"/>
<path class="st26" d="M151,351l5-2C153.5,348.4,152.8,349.2,151,351z"/>
<path class="st57" d="M156,348l1,1L156,348z"/>
<path class="st0" d="M166.7,348.3c-0.4,0.4,0.6,0.4,0.7,0.3C167.8,348.2,166.7,348.3,166.7,348.3 M173,348l1,1L173,348z"/>
<path class="st18" d="M184,348l1,1L184,348z"/>
<path class="st15" d="M34.3,349.7c-0.1,0.1-0.1,1.1,0.3,0.7C34.7,350.3,34.8,349.2,34.3,349.7z"/>
<path class="st47" d="M140,349l1,1L140,349z"/>
<path class="st6" d="M151,349l1,1L151,349z"/>
<path class="st59" d="M154,349l1,1L154,349z"/>
<path class="st60" d="M169,349l1,1L169,349z"/>
<path class="st0" d="M174,349l1,1L174,349z"/>
<path class="st62" d="M185,349l1,1L185,349z"/>
<path class="st9" d="M188,349l1,1L188,349z"/>
<path class="st59" d="M150,350l1,1L150,350z"/>
<path class="st63" d="M171,350l1,1L171,350z"/>
<path class="st57" d="M175,350l1,1L175,350z"/>
<path class="st20" d="M34,351v3C34.7,352.4,34.7,352.6,34,351z"/>
<path class="st53" d="M37,351v3C37.7,352.4,37.7,352.6,37,351z"/>
<path class="st63" d="M139,351l1,1L139,351z"/>
<path class="st20" d="M149,351l1,1L149,351z"/>
<path class="st4" d="M150,351l1,1L150,351z"/>
<path class="st47" d="M151,351l1,1L151,351z"/>
<path class="st61" d="M173,351l1,1L173,351z"/>
<path class="st19" d="M176,351l1,1L176,351z"/>
<path class="st9" d="M186,351l1,1L186,351z"/>
<path class="st17" d="M189,351l1,1L189,351 M148,352l1,1L148,352z"/>
<path class="st16" d="M149,352c-1.2,1.2-1.5,1.6-2,3C149,354.2,149.7,354,149,352z"/>
<path class="st59" d="M150,352l1,1L150,352z"/>
<path class="st20" d="M174,352l1,1L174,352z"/>
<path class="st15" d="M138,353l1,1L138,353z"/>
<path class="st59" d="M175,353l1,1L175,353z"/>
<path class="st0" d="M177,353l-1,2C177.3,354,177.4,354.3,177,353z"/>
<path class="st63" d="M187,353l1,1L187,353z"/>
<path class="st22" d="M190.3,353.7c-0.1,0.1-0.1,1.1,0.3,0.7C190.7,354.3,190.8,353.2,190.3,353.7z"/>
<path class="st9" d="M34,354v6C35,357.7,35,356.3,34,354z"/>
<path class="st17" d="M138,354l1,1L138,354z"/>
<path class="st8" d="M177.3,354.7c-0.1,0.1-0.1,1.1,0.3,0.7C177.7,355.3,177.8,354.2,177.3,354.7z"/>
<path class="st63" d="M146,355l1,1L146,355z"/>
<path class="st13" d="M147,355c-3.8,7.8-2,18,5.3,23.2c7.5,5.3,20.1,3.6,23.7-5.2c-3.8,2.1-7.6,4.8-12,5.4c-7,0.9-13.8-5.2-16-11.4
	C146.5,363,147.9,358.9,147,355z"/>
<path class="st6" d="M148,355l1,1L148,355z"/>
<path class="st47" d="M178,355l1,1L178,355z"/>
<path class="st59" d="M188,355v3C188.7,356.4,188.7,356.6,188,355z"/>
<path class="st20" d="M190,355l1,1L190,355z"/>
<path class="st1" d="M178.3,356.7c-0.1,0.1-0.1,1.1,0.3,0.7C178.7,357.3,178.8,356.2,178.3,356.7z"/>
<path class="st17" d="M137.3,357.7c-0.1,0.1-0.1,1.1,0.3,0.7C137.7,358.3,137.8,357.2,137.3,357.7z"/>
<path class="st57" d="M147,357l1,1L147,357z"/>
<path class="st60" d="M178,358l1,3c0.7-1.2,0.7-1.5,1-3H178z"/>
<path class="st12" d="M191,359l1,1L191,359z"/>
<path class="st3" d="M34.3,360.7c-0.1,0.1-0.1,1.1,0.3,0.7C34.7,361.3,34.8,360.2,34.3,360.7z"/>
<path class="st52" d="M134,360v8C135.2,365.2,135.2,362.8,134,360z"/>
<path class="st21" d="M191,360v6C192,363.7,192,362.3,191,360 M144,362v4C144.7,364.2,144.7,363.8,144,362z"/>
<path class="st63" d="M137,365v3C137.7,366.4,137.7,366.6,137,365z"/>
<path class="st20" d="M147.3,365.7c-0.1,0.1-0.1,1.1,0.3,0.7C147.7,366.3,147.8,365.2,147.3,365.7z"/>
<path class="st62" d="M179,366l-1,2C179.3,367,179.4,367.3,179,366z"/>
<path class="st3" d="M191,366l1,1L191,366z"/>
<path class="st53" d="M38,367v7C39.1,371.5,39.1,369.5,38,367z"/>
<path class="st38" d="M179,367l1,1L179,367z"/>
<path class="st47" d="M188.3,367.7c-0.1,0.1-0.1,1.1,0.3,0.7C188.7,368.3,188.8,367.2,188.3,367.7z"/>
<path class="st15" d="M145,368l1,1L145,368z"/>
<path class="st63" d="M148,368l1,1L148,368z"/>
<path class="st26" d="M178,368l-1,4C178.1,370.4,178.4,369.9,178,368z"/>
<path class="st60" d="M179,368l1,1L179,368z"/>
<path class="st63" d="M145,369l1,1L145,369z"/>
<path class="st16" d="M188.3,369.7c-0.1,0.1-0.1,1.1,0.3,0.7C188.7,370.3,188.8,369.2,188.3,369.7z"/>
<path class="st11" d="M190,369l1,1L190,369z"/>
<path class="st7" d="M35.3,370.7c-0.1,0.1-0.1,1.1,0.3,0.7C35.7,371.3,35.8,370.2,35.3,370.7z"/>
<path class="st60" d="M138,370l1,1L138,370z"/>
<path class="st17" d="M149,370l1,1L149,370z"/>
<path class="st59" d="M178,370l1,1L178,370z"/>
<path class="st23" d="M190,370l1,1L190,370z"/>
<path class="st16" d="M138.3,371.7c-0.1,0.1-0.1,1.1,0.3,0.7C138.7,372.3,138.8,371.2,138.3,371.7z"/>
<path class="st17" d="M146,371l1,1L146,371z"/>
<path class="st59" d="M176,371c0.5,1.6,0.4,1.5,2,2C177.5,371.4,177.6,371.5,176,371z"/>
<path class="st14" d="M190,371l1,1L190,371z"/>
<path class="st9" d="M35,372v3C35.7,373.4,35.7,373.6,35,372z"/>
<path class="st11" d="M150,372l1,1L150,372z"/>
<path class="st6" d="M175,372l1,1L175,372z"/>
<path class="st16" d="M176.3,372.7c-0.1,0.1-0.1,1.1,0.3,0.7C176.7,373.3,176.8,372.2,176.3,372.7z"/>
<path class="st61" d="M187,372l1,1L187,372z"/>
<path class="st18" d="M139,373l1,1L139,373 M147,373l1,1L147,373z"/>
<path class="st15" d="M151,373l1,1L151,373z"/>
<path class="st17" d="M174,373l1,1L174,373z"/>
<path class="st20" d="M189,373l1,1L189,373z"/>
<path class="st50" d="M38,374v5C38.8,377,38.8,376,38,374z"/>
<path class="st55" d="M89,374c1.2,0.7,1.5,0.7,3,1C90.8,374.3,90.5,374.3,89,374z"/>
<path class="st15" d="M139,374l1,1L139,374z"/>
<path class="st59" d="M148,374l1,1L148,374z"/>
<path class="st15" d="M152,374l1,1L152,374z"/>
<path class="st0" d="M173,374l1,1L173,374z"/>
<path class="st63" d="M176,374l1,1L176,374z"/>
<path class="st20" d="M186,374l1,1L186,374z"/>
<path class="st18" d="M140,375l1,1L140,375 M154,375l1,1L154,375z"/>
<path class="st60" d="M171,375l1,1L171,375z"/>
<path class="st0" d="M175,375l1,1L175,375z"/>
<path class="st21" d="M188,375l1,1L188,375z"/>
<path class="st50" d="M83,376c1.2,0.7,1.5,0.7,3,1C84.8,376.3,84.5,376.3,83,376z"/>
<path class="st15" d="M150,376l1,1L150,376 M155,376l1,1L155,376z"/>
<path class="st9" d="M156,376l1,1L156,376z"/>
<path class="st18" d="M169,376l1,1L169,376z"/>
<path class="st61" d="M170,376l1,1L170,376z"/>
<path class="st15" d="M174,376l1,1L174,376z"/>
<path class="st47" d="M185,376l1,1L185,376z"/>
<path class="st14" d="M188,376l1,1L188,376z"/>
<path class="st63" d="M141,377l1,1L141,377z"/>
<path class="st47" d="M158,377l1,1L158,377z"/>
<path class="st0" d="M167,377l1,1L167,377z"/>
<path class="st7" d="M187,377l1,1L187,377z"/>
<path class="st6" d="M152,378l1,1L152,378z"/>
<path class="st16" d="M160,378c1.8,0.8,3,0.9,5,1C163.2,378.2,162,378.1,160,378z"/>
<path class="st59" d="M172,378l1,1L172,378z"/>
<path class="st7" d="M36.3,379.7c-0.1,0.1-0.1,1.1,0.3,0.7C36.7,380.3,36.8,379.2,36.3,379.7z"/>
<path class="st54" d="M38,379v4C38.7,381.2,38.7,380.8,38,379z"/>
<path class="st2" d="M58,402c11.3-1.4,22.6-2,34-2c-0.6-4.7-1.1-9.3-1.7-14c-0.3-1.9-0.2-4.7-1.9-6c-2.1-1.6-5.2-0.3-7.4,0.3
	c-5.9,1.6-12.1,2.4-18,4c-1.9,0.5-4.7,0.8-5.9,2.5C54.8,389.9,57.9,398.2,58,402z"/>
<path class="st63" d="M171,379l1,1L171,379z"/>
<path class="st0" d="M183,379l1,1L183,379z"/>
<path class="st18" d="M186,379l1,1L186,379z"/>
<path class="st54" d="M79,380c1.2,0.7,1.5,0.7,3,1C80.8,380.3,80.5,380.3,79,380z"/>
<path class="st61" d="M143,380l1,1L143,380z"/>
<path class="st18" d="M155,380l1,1L155,380z"/>
<path class="st61" d="M156,380l1,1L156,380z"/>
<path class="st15" d="M168,380l1,1L168,380z"/>
<path class="st6" d="M169,380l1,1L169,380z"/>
<path class="st0" d="M182,380l1,1L182,380z"/>
<path class="st7" d="M185,380l1,1L185,380z"/>
<path class="st17" d="M36,381v4C36.7,383.2,36.7,382.8,36,381z"/>
<path class="st57" d="M144,381l1,1L144,381z"/>
<path class="st63" d="M158,381l1,1L158,381z"/>
<path class="st8" d="M159,381c2.3,1,4.5,1,7,1C163.7,381,161.5,381,159,381z"/>
<path class="st60" d="M166.7,381.3c-0.4,0.4,0.6,0.4,0.7,0.3C167.8,381.2,166.7,381.3,166.7,381.3z"/>
<path class="st0" d="M181,381l1,1L181,381z"/>
<path class="st56" d="M55,389c3.2-3.4,6.4-4.6,11-5C61.6,381,55.9,383.9,55,389z"/>
<path class="st24" d="M70,382c1.2,0.7,1.5,0.7,3,1C71.8,382.3,71.5,382.3,70,382z"/>
<path class="st5" d="M97.3,382.7c-0.1,0.1-0.1,1.1,0.3,0.7C97.7,383.3,97.8,382.2,97.3,382.7z"/>
<path class="st15" d="M180,382l1,1L180,382z"/>
<path class="st14" d="M184,382l-1,2C184.3,383,184.4,383.3,184,382z"/>
<path class="st63" d="M178,383l1,1L178,383z"/>
<path class="st24" d="M61.7,384.3c-0.4,0.4,0.6,0.4,0.7,0.3C62.8,384.2,61.7,384.3,61.7,384.3z"/>
<path class="st59" d="M148,384l1,1L148,384z"/>
<path class="st61" d="M177,384l1,1L177,384z"/>
<path class="st54" d="M90,385v3C90.7,386.4,90.7,386.6,90,385z"/>
<path class="st17" d="M150,385l1,1L150,385z"/>
<path class="st47" d="M175,385l1,1L175,385z"/>
<path class="st59" d="M152,386l1,1L152,386z"/>
<path class="st18" d="M172,386l1,1L172,386z"/>
<path class="st6" d="M179,386l1,1L179,386z"/>
<path class="st14" d="M37,387l1,1L37,387z"/>
<path class="st19" d="M155,387l1,1L155,387z"/>
<path class="st12" d="M168.7,387.3c-0.4,0.4,0.6,0.4,0.7,0.3C169.8,387.2,168.7,387.3,168.7,387.3z"/>
<path class="st59" d="M170,387l1,1L170,387z"/>
<path class="st18" d="M178,387l1,1L178,387z"/>
<path class="st19" d="M38,388l1,1L38,388z"/>
<path class="st0" d="M157,388c2.6,1.1,5.2,1,8,1C162.4,387.9,159.8,388,157,388z"/>
<path class="st15" d="M165,388c1.2,0.7,1.5,0.7,3,1C166.8,388.3,166.5,388.3,165,388z"/>
<path class="st7" d="M176,388l1,1L176,388z"/>
<path class="st6" d="M39,389l1,1L39,389z"/>
<path class="st53" d="M46,389c2.3,1,4.5,1,7,1C50.7,389,48.5,389,46,389 M118,389c2.9,1.2,5.9,1,9,1C124.1,388.8,121.1,389,118,389z
	"/>
<path class="st9" d="M175,389l1,1L175,389z"/>
<path class="st21" d="M41,390l1,1L41,390z"/>
<path class="st1" d="M56.3,390.7c-0.1,0.1-0.1,1.1,0.3,0.7C56.7,391.3,56.8,390.2,56.3,390.7z"/>
<path class="st5" d="M91,390v7C92.1,394.5,92.1,392.5,91,390z"/>
<path class="st7" d="M172,390l1,1L172,390z"/>
<path class="st12" d="M173,390l1,1L173,390z"/>
<path class="st14" d="M43,391l1,1L43,391z"/>
<path class="st11" d="M44,391c3.4,1.4,7.3,1,11,1C51.6,390.6,47.7,391,44,391z"/>
<path class="st15" d="M119,391c2.6,1.1,5.2,1,8,1C124.4,390.9,121.8,391,119,391z"/>
<path class="st21" d="M127,391c2.1,0.9,3.7,1,6,1C130.9,391.1,129.3,391,127,391z"/>
<path class="st6" d="M133,391c1.8,0.8,3,0.9,5,1C136.2,391.2,135,391.1,133,391z"/>
<path class="st12" d="M138,391c1.8,0.8,3,0.9,5,1C141.2,391.2,140,391.1,138,391z"/>
<path class="st14" d="M143,391c3.7,1.6,8,1,12,1C151.3,390.4,147,391,143,391z"/>
<path class="st11" d="M155,391c1.2,0.7,1.5,0.7,3,1C156.8,391.3,156.5,391.3,155,391 M168.7,391.3c-0.4,0.4,0.6,0.4,0.7,0.3
	C169.8,391.2,168.7,391.3,168.7,391.3z"/>
<path class="st19" d="M170,391l1,1L170,391z"/>
<path class="st7" d="M109.7,392.3c-0.4,0.4,0.6,0.4,0.7,0.3C110.8,392.2,109.7,392.3,109.7,392.3z"/>
<path class="st17" d="M111,392c1.2,0.7,1.5,0.7,3,1C112.8,392.3,112.5,392.3,111,392z"/>
<path class="st22" d="M114,392c1.2,0.7,1.5,0.7,3,1C115.8,392.3,115.5,392.3,114,392z"/>
<path class="st14" d="M158,392c1.2,0.7,1.5,0.7,3,1C159.8,392.3,159.5,392.3,158,392z"/>
<path class="st12" d="M161,392c1.5,0.7,2.3,0.8,4,1C163.5,392.3,162.7,392.2,161,392z"/>
<path class="st14" d="M165.7,392.3c-0.4,0.4,0.6,0.4,0.7,0.3C166.8,392.2,165.7,392.3,165.7,392.3z"/>
<path class="st39" d="M100.3,393.7c-0.1,0.1-0.1,1.1,0.3,0.7C100.7,394.3,100.8,393.2,100.3,393.7z"/>
<path class="st12" d="M101,393c1.2,0.7,1.5,0.7,3,1C102.8,393.3,102.5,393.3,101,393z"/>
<path class="st11" d="M100,396l1,1L100,396z"/>
<path class="st18" d="M55.3,397.7c-0.1,0.1-0.1,1.1,0.3,0.7C55.7,398.3,55.8,397.2,55.3,397.7z"/>
<path class="st14" d="M100,397l1,1L100,397z"/>
<path class="st19" d="M99,398l1,1L99,398z"/>
<path class="st7" d="M98,399l1,1L98,399z"/>
<path class="st5" d="M74,400c5.2,2.2,12.4,1,18,1C86.8,398.8,79.6,400,74,400z"/>
<path class="st15" d="M97,400l1,1L97,400z"/>
<path class="st24" d="M61,401c1.2,0.7,1.5,0.7,3,1C62.8,401.3,62.5,401.3,61,401z"/>
<path class="st11" d="M56.3,403.7c-0.1,0.1-0.1,1.1,0.3,0.7C56.7,404.3,56.8,403.2,56.3,403.7 M85,403c1.8,0.8,3,0.9,5,1
	C88.2,403.2,87,403.1,85,403z"/>
<path class="st7" d="M90,403c1.8,0.8,3,0.9,5,1C93.2,403.2,92,403.1,90,403z"/>
<path class="st3" d="M95,403l1,1L95,403z"/>
<path class="st16" d="M60.7,404.3c-0.4,0.4,0.6,0.4,0.7,0.3C61.8,404.2,60.7,404.3,60.7,404.3z"/>
<path class="st57" d="M62,404c1.2,0.7,1.5,0.7,3,1C63.8,404.3,63.5,404.3,62,404z"/>
<path class="st9" d="M65,404c2.3,1,4.5,1,7,1C69.7,404,67.5,404,65,404z"/>
<path class="st3" d="M72,404c2.3,1,4.5,1,7,1C76.7,404,74.5,404,72,404z"/>
</svg>
