<!-- icon666.com - MILLIONS OF FREE VECTOR ICONS --><svg id="Layer_1" viewBox="0 0 512 512" xmlns="http://www.w3.org/2000/svg" data-name="Layer 1"><g fill-rule="evenodd"><path d="m347.545 4h-183.164a47.048 47.048 0 0 0 -47 47v410a47.048 47.048 0 0 0 47 47h183.164a47.048 47.048 0 0 0 47-47v-410a47.048 47.048 0 0 0 -47-47zm-94.322 34.04v-6.04h5.48v6.04a2.74 2.74 0 1 1 -5.48 0z" fill="#5eb2fc"></path><path d="m256.009 416.827a16 16 0 0 1 -.092-32h.092a16 16 0 1 1 0 32zm-6.315 39.4a16.009 16.009 0 0 0 -8.424-21.012 37.8 37.8 0 0 1 -19.7-19.7 16 16 0 1 0 -29.421 12.588 69.155 69.155 0 0 0 36.53 36.53 15.981 15.981 0 0 0 21.012-8.409zm70.08-82.669a69.153 69.153 0 0 0 -36.53-36.544 16 16 0 1 0 -12.588 29.421 37.8 37.8 0 0 1 19.7 19.7 16 16 0 1 0 29.421-12.574zm0 54.548a16 16 0 1 0 -29.421-12.588 37.8 37.8 0 0 1 -19.7 19.7 16 16 0 1 0 12.588 29.421 69.155 69.155 0 0 0 36.53-36.53zm-127.622-54.546a16 16 0 0 0 29.421 12.574 37.8 37.8 0 0 1 19.7-19.7 16 16 0 1 0 -12.588-29.421 69.153 69.153 0 0 0 -36.53 36.544zm151.685-74.732a16.025 16.025 0 1 1 -16.09-16h.086a16.009 16.009 0 0 1 16 16zm-79.933 0a15.97 15.97 0 0 1 15.947-16h.107a16 16 0 1 1 -16.054 16zm-47.883 0a15.962 15.962 0 0 1 15.954-16h.1a16 16 0 1 1 -16.054 16zm-31.835 16a16 16 0 0 1 -.093-32.007h.093a16 16 0 0 1 0 32.007zm159.651-83.8a16.025 16.025 0 1 1 -16.09-16h.086a16.009 16.009 0 0 1 16 16zm-79.933 0a15.97 15.97 0 0 1 15.947-16h.107a16 16 0 1 1 -16.054 16zm-47.883 0a15.962 15.962 0 0 1 15.954-16h.1a16 16 0 1 1 -16.054 16zm-47.875 0a15.961 15.961 0 0 1 15.947-16h.093a16 16 0 1 1 -16.04 16zm175.691-67.8a16.025 16.025 0 1 1 -16.09-16h.086a16.008 16.008 0 0 1 16 16zm-79.933 0a15.968 15.968 0 0 1 15.947-16h.107a16 16 0 1 1 -16.054 16zm-47.883 0a15.961 15.961 0 0 1 15.954-16h.1a16 16 0 1 1 -16.054 16zm-47.875 0a15.959 15.959 0 0 1 15.947-16h.093a16 16 0 1 1 -16.04 16zm175.691-67.797a16.025 16.025 0 1 1 -16.09-16h.086a16.009 16.009 0 0 1 16 16zm-79.933 0a15.97 15.97 0 0 1 15.947-16h.107a16 16 0 1 1 -16.054 16zm-47.883 0a15.962 15.962 0 0 1 15.954-16h.1a16 16 0 1 1 -16.054 16zm-47.875 0a15.961 15.961 0 0 1 15.947-16h.093a16 16 0 1 1 -16.04 16zm198.396 365.569v-410a19.017 19.017 0 0 0 -19-19h-56.842v6.04a34.74 34.74 0 1 1 -69.48 0v-6.04h-56.839a19.016 19.016 0 0 0 -19 19v410a19.02 19.02 0 0 0 19 19h183.164a19.021 19.021 0 0 0 19-19zm-113.319-429h5.48v6.04a2.74 2.74 0 1 1 -5.48 0zm94.322-32h-183.164a51.05 51.05 0 0 0 -51 51v410a51.05 51.05 0 0 0 51 51h183.164a51.049 51.049 0 0 0 51-51v-410a51.05 51.05 0 0 0 -51-51z" fill="#4b6274"></path></g></svg>