<?xml version="1.0" encoding="utf-8"?>
<!-- Generator: Adobe Illustrator 28.0.0, SVG Export Plug-In . SVG Version: 6.00 Build 0)  -->
<svg version="1.1" id="Calque_1" xmlns="http://www.w3.org/2000/svg" xmlns:xlink="http://www.w3.org/1999/xlink" x="0px" y="0px"
	 viewBox="0 0 701.4 457" style="enable-background:new 0 0 701.4 457;" xml:space="preserve">
<style type="text/css">
	.st0{fill:#DD9494;}
</style>
<g>
	<ellipse class="st0" cx="627.5" cy="351.7" rx="31.5" ry="43.8"/>
	<ellipse class="st0" cx="452.6" cy="255.7" rx="212.6" ry="166.5"/>
	<rect x="50.6" y="50.4" class="st0" width="360.4" height="358.8"/>
	<path d="M169.8,0c-30.1,0.4-56,3.8-77.5,13.2c-21.5,9.4-40.9,29.9-40.9,55.4v101.9c-31.2,30-50.9,72.1-50.9,118.8
		c0,90.4,73.2,164.2,162.9,164.2c31.2,0,59.7-9.5,83.9-25.2h248.8c13.7,15.2,33.3,25.2,55.2,25.2c21.9,0,41.4-9.9,55.2-25.2h16.9
		c42.3,0,77.9-34.1,77.9-76.6v-51.9c0-66.2-44.5-121.5-104.1-164.9s-136.7-77-213.8-100S230-0.8,169.8,0z M170.5,50.4
		c52.4-0.7,125.8,10.8,198.8,32.7s145.9,54.1,198.7,92.6c43.5,31.7,71.6,66.2,80.3,101.4H324c-6.5-84.5-75.1-152.1-160.5-152.1
		c-22,0-42.9,4.5-62.1,12.5v-69c0-3.5-0.6-4.2,10.7-9.1S144.3,50.8,170.5,50.4z M163.5,175.5c62.7,0,112.9,50.7,112.9,113.8
		s-50.3,113.8-112.9,113.8S50.6,352.5,50.6,289.3S100.8,175.5,163.5,175.5z M163.5,264.1c-13.8,0-25,11.3-25,25.2s11.2,25.2,25,25.2
		c13.8,0,25-11.3,25-25.2S177.3,264.1,163.5,264.1z M318.7,327.5h332.7v24.2c0,14.2-11.7,26.2-27.9,26.2H297.4
		C307,362.6,314.3,345.6,318.7,327.5z"/>
</g>
</svg>
