<?xml version="1.0" encoding="utf-8"?>
<!-- Generator: Adobe Illustrator 22.0.0, SVG Export Plug-In . SVG Version: 6.00 Build 0)  -->
<svg version="1.1" id="Layer_2" xmlns="http://www.w3.org/2000/svg" xmlns:xlink="http://www.w3.org/1999/xlink" x="0px" y="0px"
	 viewBox="0 0 955 836" style="enable-background:new 0 0 955 836;" xml:space="preserve">
<style type="text/css">
	.st0{fill:url(#XMLID_5_);}
	.st1{fill:url(#XMLID_19_);}
	.st2{fill:url(#XMLID_24_);}
	.st3{fill:url(#XMLID_25_);}
	.st4{fill:url(#XMLID_26_);}
	.st5{fill:url(#XMLID_27_);}
	.st6{fill:url(#XMLID_28_);}
	.st7{fill:url(#XMLID_29_);}
	.st8{fill:url(#XMLID_30_);}
	.st9{fill:url(#XMLID_31_);}
	.st10{fill:url(#XMLID_32_);}
	.st11{fill:url(#XMLID_33_);}
	.st12{fill:url(#XMLID_35_);}
	.st13{fill:url(#XMLID_36_);}
	.st14{fill:url(#XMLID_48_);}
	.st15{fill:url(#XMLID_49_);}
	.st16{fill:url(#XMLID_50_);}
	.st17{fill:url(#XMLID_51_);}
	.st18{fill:url(#XMLID_53_);}
	.st19{fill:url(#XMLID_54_);}
	.st20{fill:url(#XMLID_55_);}
	.st21{fill:url(#XMLID_56_);}
	.st22{fill:url(#XMLID_57_);}
	.st23{fill:url(#XMLID_58_);}
	.st24{fill:url(#XMLID_59_);}
	.st25{fill:url(#XMLID_60_);}
	.st26{fill:url(#XMLID_61_);}
	.st27{fill:url(#XMLID_62_);}
	.st28{fill:url(#XMLID_63_);}
	.st29{fill:url(#XMLID_64_);}
	.st30{fill:url(#XMLID_65_);}
	.st31{fill:url(#XMLID_66_);}
	.st32{fill:url(#XMLID_67_);}
	.st33{fill:url(#XMLID_68_);}
	.st34{fill:url(#XMLID_69_);}
	.st35{fill:url(#XMLID_70_);}
	.st36{fill:url(#XMLID_71_);}
	.st37{fill:url(#XMLID_72_);}
	.st38{fill:url(#XMLID_73_);}
	.st39{fill:url(#XMLID_74_);}
	.st40{fill:url(#XMLID_75_);}
	.st41{fill:url(#XMLID_76_);}
	.st42{fill:url(#XMLID_77_);}
	.st43{fill:url(#XMLID_78_);}
	.st44{fill:url(#XMLID_79_);}
	.st45{fill:url(#XMLID_80_);}
	.st46{fill:url(#XMLID_95_);}
	.st47{fill:url(#XMLID_99_);}
	.st48{fill:url(#XMLID_109_);}
	.st49{fill:url(#XMLID_111_);}
	.st50{fill:url(#XMLID_112_);}
	.st51{fill:url(#XMLID_114_);}
	.st52{fill:url(#XMLID_115_);}
	.st53{fill:url(#XMLID_116_);}
	.st54{fill:url(#XMLID_117_);}
	.st55{fill:url(#XMLID_118_);}
	.st56{fill:url(#XMLID_119_);}
	.st57{fill:url(#XMLID_120_);}
	.st58{opacity:0.7;}
	.st59{fill:url(#XMLID_121_);}
	.st60{fill:url(#XMLID_122_);}
	.st61{fill:url(#XMLID_123_);}
	.st62{fill:url(#XMLID_124_);}
	.st63{fill:url(#XMLID_125_);}
</style>
<linearGradient id="XMLID_5_" gradientUnits="userSpaceOnUse" x1="796.2216" y1="-123.5349" x2="849.4216" y2="-123.5349" gradientTransform="matrix(-1 0 0 -1 1234.6216 274)">
	<stop  offset="0" style="stop-color:#DD9C69"/>
	<stop  offset="1" style="stop-color:#935523"/>
</linearGradient>
<path id="XMLID_100_" class="st0" d="M438.4,193.8l-26.6,325.4l-10.6,86c0,0-8.9,2-16-3.3l23.3-412.4L438.4,193.8z"/>
<linearGradient id="XMLID_19_" gradientUnits="userSpaceOnUse" x1="416.3333" y1="-289.85" x2="447.3333" y2="-289.85" gradientTransform="matrix(1 0 0 -1 0 274)">
	<stop  offset="0" style="stop-color:#996D48"/>
	<stop  offset="1" style="stop-color:#784418"/>
</linearGradient>
<polygon id="XMLID_1_" class="st1" points="416.3,539.4 431.3,588.3 447.3,588.3 431.8,539.4 "/>
<linearGradient id="XMLID_24_" gradientUnits="userSpaceOnUse" x1="477.7" y1="-61.1" x2="518.7" y2="-61.1" gradientTransform="matrix(1 0 0 -1 0 274)">
	<stop  offset="0" style="stop-color:#DD9C69"/>
	<stop  offset="1" style="stop-color:#935523"/>
</linearGradient>
<polygon id="XMLID_6_" class="st2" points="504.4,223.2 477.7,447 491,440.2 518.7,224 "/>
<linearGradient id="XMLID_25_" gradientUnits="userSpaceOnUse" x1="467" y1="-60.7" x2="504.4" y2="-60.7" gradientTransform="matrix(1 0 0 -1 0 274)">
	<stop  offset="0" style="stop-color:#DD9C69"/>
	<stop  offset="1" style="stop-color:#935523"/>
</linearGradient>
<polygon id="XMLID_102_" class="st3" points="488,222.4 467,447 477.7,447 504.4,223.2 "/>
<linearGradient id="XMLID_26_" gradientUnits="userSpaceOnUse" x1="548.6" y1="-30.25" x2="583.1389" y2="-30.25" gradientTransform="matrix(1 0 0 -1 0 274)">
	<stop  offset="0" style="stop-color:#DD9C69"/>
	<stop  offset="1" style="stop-color:#935523"/>
</linearGradient>
<polygon id="XMLID_103_" class="st4" points="567,227.8 583.2,378.3 575.1,382.4 548.6,226.1 "/>
<linearGradient id="XMLID_27_" gradientUnits="userSpaceOnUse" x1="538.5" y1="-29.85" x2="575.1" y2="-29.85" gradientTransform="matrix(1 0 0 -1 0 274)">
	<stop  offset="0" style="stop-color:#DD9C69"/>
	<stop  offset="1" style="stop-color:#935523"/>
</linearGradient>
<polygon id="XMLID_105_" class="st5" points="538.5,225.3 567,382.4 575.1,382.4 548.6,226.1 "/>
<linearGradient id="XMLID_28_" gradientUnits="userSpaceOnUse" x1="512.5135" y1="-33.4874" x2="709.2632" y2="-33.4874" gradientTransform="matrix(0.9983 5.837006e-02 5.837006e-02 -0.9983 -12.5452 229.5119)">
	<stop  offset="0" style="stop-color:#996D48"/>
	<stop  offset="1" style="stop-color:#784418"/>
</linearGradient>
<polygon id="XMLID_106_" class="st6" points="692.8,317.3 496.4,305.9 497.9,279.9 694.3,291.3 "/>
<linearGradient id="XMLID_29_" gradientUnits="userSpaceOnUse" x1="586.3286" y1="-39.1302" x2="596.3286" y2="62.8698" gradientTransform="matrix(1 0 0 -1 0 274)">
	<stop  offset="0" style="stop-color:#454147"/>
	<stop  offset="0.4583" style="stop-color:#4B4C4E"/>
	<stop  offset="1" style="stop-color:#61656A"/>
</linearGradient>
<path id="XMLID_82_" class="st7" d="M684.9,253.2c0,0-117.4-5.9-145.4,2.3S494.7,273.6,497,283s176.3,11.3,176.3,11.3L684.9,253.2z"
	/>
<linearGradient id="XMLID_30_" gradientUnits="userSpaceOnUse" x1="693.7" y1="127.95" x2="818.6" y2="127.95" gradientTransform="matrix(1 0 0 -1 0 274)">
	<stop  offset="0" style="stop-color:#555057"/>
	<stop  offset="0.4239" style="stop-color:#5E5F60"/>
	<stop  offset="1" style="stop-color:#7F848A"/>
</linearGradient>
<path id="XMLID_81_" class="st8" d="M818.6,144.9c0,0-2.1-11.4-10.1-28.2l-114.8,58.7H800L818.6,144.9z"/>
<linearGradient id="XMLID_31_" gradientUnits="userSpaceOnUse" x1="609.5" y1="-224.75" x2="688.3" y2="-224.75" gradientTransform="matrix(1 0 0 -1 0 274)">
	<stop  offset="0" style="stop-color:#784418"/>
	<stop  offset="1" style="stop-color:#996D48"/>
</linearGradient>
<polygon id="XMLID_96_" class="st9" points="688.3,412 627.5,585.5 609.5,585.5 668.3,412 "/>
<linearGradient id="XMLID_32_" gradientUnits="userSpaceOnUse" x1="787.8" y1="-169.85" x2="897" y2="-169.85" gradientTransform="matrix(1 0 0 -1 0 274)">
	<stop  offset="0" style="stop-color:#784418"/>
	<stop  offset="1" style="stop-color:#996D48"/>
</linearGradient>
<polygon id="XMLID_38_" class="st10" points="812.8,302.2 897,585.5 877.5,585.5 787.8,304.2 "/>
<linearGradient id="XMLID_33_" gradientUnits="userSpaceOnUse" x1="187.1892" y1="-89.7859" x2="107.1892" y2="-138.4526" gradientTransform="matrix(1 0 0 -1 0 274)">
	<stop  offset="0" style="stop-color:#555057"/>
	<stop  offset="0.4239" style="stop-color:#5E5F60"/>
	<stop  offset="1" style="stop-color:#7F848A"/>
</linearGradient>
<path id="XMLID_44_" class="st11" d="M156.9,363.4c0,0-62.9,25.4-66.6,29.9s14.9,7,49.3,7s34.4,1.2,34.4,1.2l0.2-14.8L156.9,363.4z"
	/>
<linearGradient id="XMLID_35_" gradientUnits="userSpaceOnUse" x1="613" y1="231.1615" x2="783.8" y2="231.1615" gradientTransform="matrix(1 0 0 -1 0 274)">
	<stop  offset="0" style="stop-color:#555057"/>
	<stop  offset="0.4239" style="stop-color:#5E5F60"/>
	<stop  offset="1" style="stop-color:#7F848A"/>
</linearGradient>
<path id="XMLID_108_" class="st12" d="M700.4,24.3c-32.1-1.2-54.9,6.6-69.2,14.1C619.9,47.5,613,56.7,613,56.7
	c35.5,1.9,148.2,4.4,170.8,4.8C768.4,29.9,757,26.4,700.4,24.3z"/>
<linearGradient id="XMLID_36_" gradientUnits="userSpaceOnUse" x1="631.2" y1="233.8112" x2="787.8" y2="233.8112" gradientTransform="matrix(1 0 0 -1 0 274)">
	<stop  offset="0" style="stop-color:#A7A9AC"/>
	<stop  offset="1" style="stop-color:#7F848A"/>
</linearGradient>
<path id="XMLID_110_" class="st13" d="M760,26.5c-18.5-8-67.5-10.5-96.5-4.5c-12.6,2.6-23.7,9.5-32.3,16.4
	c14.3-7.5,37.1-15.3,69.2-14.1c56.6,2.1,68,5.6,83.4,37.3c2.6,0.1,4,0.1,4,0.1S778.5,34.5,760,26.5z"/>
<linearGradient id="XMLID_48_" gradientUnits="userSpaceOnUse" x1="81.3323" y1="28.4005" x2="131.999" y2="121.7339" gradientTransform="matrix(1 0 0 -1 0 274)">
	<stop  offset="0" style="stop-color:#555057"/>
	<stop  offset="0.4239" style="stop-color:#5E5F60"/>
	<stop  offset="1" style="stop-color:#7F848A"/>
</linearGradient>
<path id="XMLID_18_" class="st14" d="M151.8,148c0,0-43.8-52.7-67.5-58.3c-23.7-5.7-55.3,3.7-65,22c-0.5,1-1,2.4-1.3,4
	c7.2,46.4,39.3,100.6,71,116.6c26.6,13.4,85.5,13.7,116.2,12.8l37.4-48.4L151.8,148z"/>
<linearGradient id="XMLID_49_" gradientUnits="userSpaceOnUse" x1="867.4165" y1="129.8871" x2="765.3507" y2="122.184" gradientTransform="matrix(1 0 0 -1 0 274)">
	<stop  offset="0" style="stop-color:#DD9C69"/>
	<stop  offset="1" style="stop-color:#935523"/>
</linearGradient>
<polygon id="XMLID_2_" class="st15" points="818.6,144.9 799.7,153.6 780.4,153.6 799,144.9 "/>
<linearGradient id="XMLID_50_" gradientUnits="userSpaceOnUse" x1="873.0953" y1="-40.3542" x2="745.2615" y2="-50.002" gradientTransform="matrix(1 0 0 -1 0 274)">
	<stop  offset="0" style="stop-color:#DD9C69"/>
	<stop  offset="1" style="stop-color:#935523"/>
</linearGradient>
<polygon id="XMLID_3_" class="st16" points="780.4,153.6 776.3,488.3 791,488.3 799.7,153.6 "/>
<linearGradient id="XMLID_51_" gradientUnits="userSpaceOnUse" x1="825.0128" y1="-36.3373" x2="923.0128" y2="-56.3373" gradientTransform="matrix(1 0 0 -1 0 274)">
	<stop  offset="0" style="stop-color:#DD9C69"/>
	<stop  offset="1" style="stop-color:#935523"/>
</linearGradient>
<polygon id="XMLID_85_" class="st17" points="826.6,175.4 869.3,447 860.3,452.8 812.8,189.5 "/>
<linearGradient id="XMLID_53_" gradientUnits="userSpaceOnUse" x1="895.1284" y1="-42.729" x2="801.1098" y2="-49.8247" gradientTransform="matrix(1 0 0 -1 0 274)">
	<stop  offset="0" style="stop-color:#996D48"/>
	<stop  offset="1" style="stop-color:#784418"/>
</linearGradient>
<polygon id="XMLID_91_" class="st18" points="805.1,195.2 847.3,452.8 860.3,452.8 812.8,189.5 "/>
<linearGradient id="XMLID_54_" gradientUnits="userSpaceOnUse" x1="789.2866" y1="-81.9729" x2="881.9533" y2="-77.9729" gradientTransform="matrix(1 0 0 -1 0 274)">
	<stop  offset="0" style="stop-color:#DD9C69"/>
	<stop  offset="1" style="stop-color:#935523"/>
</linearGradient>
<polygon id="XMLID_92_" class="st19" points="791,488.3 798,482.7 802,223.2 797.9,223.2 "/>
<linearGradient id="XMLID_55_" gradientUnits="userSpaceOnUse" x1="77.044" y1="22.7386" x2="117.7106" y2="106.0718" gradientTransform="matrix(1 0 0 -1 0 274)">
	<stop  offset="0" style="stop-color:#555057"/>
	<stop  offset="0.4239" style="stop-color:#5E5F60"/>
	<stop  offset="1" style="stop-color:#7F848A"/>
</linearGradient>
<path id="XMLID_90_" class="st20" d="M89,232.3c-31.7-16-63.8-70.2-71-116.6c-6.4,29,10.4,153.3,16.5,162.8c6.5,10,2.5,24.5,55.5,26
	s69.4,0,69.4,0l45.8-59.3C174.5,246.1,115.6,245.8,89,232.3z"/>
<linearGradient id="XMLID_56_" gradientUnits="userSpaceOnUse" x1="787.8" y1="98.6" x2="899.3" y2="98.6" gradientTransform="matrix(1 0 0 -1 0 274)">
	<stop  offset="1.315413e-07" style="stop-color:#61656A"/>
	<stop  offset="0.5417" style="stop-color:#4B4C4E"/>
	<stop  offset="1" style="stop-color:#302C32"/>
</linearGradient>
<path id="XMLID_7_" class="st21" d="M787.8,183l9,44.3c0,0,95.5-16.7,102.5-103.8c0,0-23.4,38-56.3,47.5
	C810.3,180.5,787.8,183,787.8,183z"/>
<linearGradient id="XMLID_57_" gradientUnits="userSpaceOnUse" x1="201.3" y1="-228.45" x2="538.5" y2="-228.45" gradientTransform="matrix(1 0 0 -1 0 274)">
	<stop  offset="0" style="stop-color:#593C22"/>
	<stop  offset="1" style="stop-color:#452200"/>
</linearGradient>
<polygon id="XMLID_46_" class="st22" points="534.9,531.9 201.3,531.9 202,473 538.5,473 "/>
<linearGradient id="XMLID_58_" gradientUnits="userSpaceOnUse" x1="194.3" y1="-243.75" x2="531.5" y2="-243.75" gradientTransform="matrix(1 0 0 -1 0 274)">
	<stop  offset="0" style="stop-color:#996D48"/>
	<stop  offset="1" style="stop-color:#784418"/>
</linearGradient>
<polygon id="XMLID_12_" class="st23" points="527.9,547.2 194.3,547.2 195,488.3 531.5,488.3 "/>
<linearGradient id="XMLID_59_" gradientUnits="userSpaceOnUse" x1="835.3453" y1="-58.4576" x2="755.8494" y2="-64.4573" gradientTransform="matrix(1 0 0 -1 0 274)">
	<stop  offset="0" style="stop-color:#DD9C69"/>
	<stop  offset="1" style="stop-color:#935523"/>
</linearGradient>
<path id="XMLID_47_" class="st24" d="M751.9,132.3l26.6,325.4l10.6,86c0,0,8.9,2,16-3.3L781.8,128L751.9,132.3z"/>
<linearGradient id="XMLID_60_" gradientUnits="userSpaceOnUse" x1="750.5" y1="71.8005" x2="944.1" y2="71.8005" gradientTransform="matrix(1 0 0 -1 0 274)">
	<stop  offset="0" style="stop-color:#555057"/>
	<stop  offset="0.4239" style="stop-color:#5E5F60"/>
	<stop  offset="1" style="stop-color:#7F848A"/>
</linearGradient>
<path id="XMLID_97_" class="st25" d="M925,104c-15.5,12.5-20.3,69.5-65.4,101.5c-39.1,27.7-83.3,33.7-109.1,38.7l17.1,61.2
	c0,0,46-1.7,101.7-10s58-34,59.3-47.3c1.2-12.5,13.8-131.3,15.5-147C939.9,98.5,933.4,97.2,925,104z"/>
<linearGradient id="XMLID_61_" gradientUnits="userSpaceOnUse" x1="749" y1="108.3752" x2="944.4" y2="108.3752" gradientTransform="matrix(1 0 0 -1 0 274)">
	<stop  offset="0" style="stop-color:#A7A9AC"/>
	<stop  offset="1" style="stop-color:#7F848A"/>
</linearGradient>
<path id="XMLID_107_" class="st26" d="M928.3,87.3c-13,2.3-24.3,25.3-31.3,41.3s-20.3,54.3-54.3,75.7S791,231,749,238.7l1.5,5.5
	c25.8-5,70-11,109.1-38.7c45.1-32,49.9-89,65.4-101.5c8.4-6.8,14.9-5.5,19.2-3c0.1-1.1,0.2-1.7,0.2-1.7S941.3,85,928.3,87.3z"/>
<linearGradient id="XMLID_62_" gradientUnits="userSpaceOnUse" x1="404.9217" y1="-119.2967" x2="352.9217" y2="-321.2967" gradientTransform="matrix(1 0 0 -1 0 274)">
	<stop  offset="0" style="stop-color:#555057"/>
	<stop  offset="0.4239" style="stop-color:#5E5F60"/>
	<stop  offset="1" style="stop-color:#7F848A"/>
</linearGradient>
<path id="XMLID_98_" class="st27" d="M318.5,518.5c145.5,4,174.8-23,200.2-41c20.4-14.5,71.7-54.1,84.6-73.8c-0.5-1-1.1-2-1.8-2.9
	c-4.1-5.2-11.1-10.2-22.8-11.8c-28.7-4-76.7-1.7-76.7-1.7L255,407l-69.5,59c0,0-0.6,1.2-1.2,3.3
	C189.4,485.7,213.2,515.6,318.5,518.5z"/>
<linearGradient id="XMLID_63_" gradientUnits="userSpaceOnUse" x1="406.7029" y1="-119.7552" x2="354.7029" y2="-321.7552" gradientTransform="matrix(1 0 0 -1 0 274)">
	<stop  offset="0" style="stop-color:#454147"/>
	<stop  offset="0.4583" style="stop-color:#4B4C4E"/>
	<stop  offset="1" style="stop-color:#61656A"/>
</linearGradient>
<path id="XMLID_101_" class="st28" d="M518.7,477.5c-25.3,18-54.7,45-200.2,41c-105.3-2.9-129.1-32.8-134.2-49.2
	c-2.1,7.3-4.1,25.2,19.2,39.2c30,18,85,22,142.5,22.5s146-18,168.5-39.5c17.5-16.7,64.2-52.8,83.9-67.9c6.2-4.8,8.1-13.2,4.8-19.9
	C590.3,423.4,539,463,518.7,477.5z"/>
<linearGradient id="XMLID_64_" gradientUnits="userSpaceOnUse" x1="168.3333" y1="-331.5" x2="194.7702" y2="-331.5" gradientTransform="matrix(1 0 0 -1 0 274)">
	<stop  offset="0" style="stop-color:#DD9C69"/>
	<stop  offset="1" style="stop-color:#935523"/>
</linearGradient>
<polygon id="XMLID_8_" class="st29" points="174.1,386.7 168.3,824.3 186.3,824.3 194.8,397.6 "/>
<linearGradient id="XMLID_65_" gradientUnits="userSpaceOnUse" x1="652.3" y1="76.95" x2="719" y2="76.95" gradientTransform="matrix(1 0 0 -1 0 274)">
	<stop  offset="0" style="stop-color:#894F1F"/>
	<stop  offset="1" style="stop-color:#B58056"/>
</linearGradient>
<path id="XMLID_34_" class="st30" d="M654.5,227.3c0,0,13.7-29.1,64.5-60.5l-66.7,22.7L654.5,227.3z"/>
<linearGradient id="XMLID_66_" gradientUnits="userSpaceOnUse" x1="365.7" y1="58.95" x2="616.3" y2="58.95" gradientTransform="matrix(1 0 0 -1 0 274)">
	<stop  offset="0" style="stop-color:#B58056"/>
	<stop  offset="1" style="stop-color:#894F1F"/>
</linearGradient>
<path id="XMLID_37_" class="st31" d="M616.3,235c0,0-53.9-14.7-250.6-15.4v-20.3l247.3-4.2L616.3,235z"/>
<linearGradient id="XMLID_67_" gradientUnits="userSpaceOnUse" x1="186.3333" y1="-336.95" x2="210.0853" y2="-336.95" gradientTransform="matrix(1 0 0 -1 0 274)">
	<stop  offset="0" style="stop-color:#996D48"/>
	<stop  offset="1" style="stop-color:#784418"/>
</linearGradient>
<polygon id="XMLID_9_" class="st32" points="191.7,818.3 186.3,824.3 194.8,397.6 210.1,401.9 "/>
<linearGradient id="XMLID_68_" gradientUnits="userSpaceOnUse" x1="511" y1="-288" x2="567" y2="-288" gradientTransform="matrix(1 0 0 -1 0 274)">
	<stop  offset="0" style="stop-color:#996D48"/>
	<stop  offset="1" style="stop-color:#784418"/>
</linearGradient>
<polygon id="XMLID_11_" class="st33" points="538.4,375.7 511,824.3 526.3,824.3 567,299.7 "/>
<linearGradient id="XMLID_69_" gradientUnits="userSpaceOnUse" x1="51" y1="-214.05" x2="157.9" y2="-214.05" gradientTransform="matrix(1 0 0 -1 0 274)">
	<stop  offset="0" style="stop-color:#996D48"/>
	<stop  offset="1" style="stop-color:#784418"/>
</linearGradient>
<polygon id="XMLID_15_" class="st34" points="57.3,667.5 51,669 152,307.1 157.9,307.1 "/>
<linearGradient id="XMLID_70_" gradientUnits="userSpaceOnUse" x1="129.4818" y1="127.2306" x2="837" y2="127.2306" gradientTransform="matrix(1 0 0 -1 0 274)">
	<stop  offset="0" style="stop-color:#DD9C69"/>
	<stop  offset="1" style="stop-color:#935523"/>
</linearGradient>
<path id="XMLID_17_" class="st35" d="M129.7,167c0,0-7,16.8,58.3,25.9s389,8.6,449.7,0C698.3,184.3,809,126.3,837,94L129.7,167z"/>
<linearGradient id="XMLID_71_" gradientUnits="userSpaceOnUse" x1="17.4718" y1="106.1665" x2="165.6022" y2="106.1665" gradientTransform="matrix(1 0 0 -1 0 274)">
	<stop  offset="0" style="stop-color:#A7A9AC"/>
	<stop  offset="1" style="stop-color:#7F848A"/>
</linearGradient>
<path id="XMLID_16_" class="st36" d="M133.5,238.7c0,0-38-0.2-60.5-25.2s-61-87.5-32-109s55-2,61,3s44,49.5,54,51.5s9.6-3.6,9.6-3.6
	l-13.7-7.4c0,0-34.1-40.7-57.5-54S37.9,91.4,25,104.2c0,0-6.8,5.9-7.5,15.1c-0.7,9.1,11.6,70.4,37.9,98.1
	c26.3,27.7,45,31,105.7,30.3L133.5,238.7z"/>
<radialGradient id="XMLID_72_" cx="487.9862" cy="151.1339" r="257.7546" gradientTransform="matrix(1 0 0 -1 0 274)" gradientUnits="userSpaceOnUse">
	<stop  offset="0" style="stop-color:#DD9C69"/>
	<stop  offset="1" style="stop-color:#A87952"/>
</radialGradient>
<path id="XMLID_13_" class="st37" d="M639,56.3c0,0,132,3.7,173.5,6.7S851,84,837,94s-52.7,41-132.7,68.3S509,185,459.6,188.3
	c-49.3,3.3-306.7-0.5-324-12.9s2.9-23.1,59.1-46.4s206.9-62,230.2-70L639,56.3z"/>
<linearGradient id="XMLID_73_" gradientUnits="userSpaceOnUse" x1="32.3" y1="-179.85" x2="196.5" y2="-179.85" gradientTransform="matrix(1 0 0 -1 0 274)">
	<stop  offset="0" style="stop-color:#DD9C69"/>
	<stop  offset="1" style="stop-color:#935523"/>
</linearGradient>
<polygon id="XMLID_14_" class="st38" points="133.5,238.7 196.5,238.7 157.9,307.1 152,307.1 51,669 32.3,669 "/>
<linearGradient id="XMLID_74_" gradientUnits="userSpaceOnUse" x1="722.1667" y1="-157.496" x2="720.1667" y2="-136.996" gradientTransform="matrix(1 0 0 -1 0 274)">
	<stop  offset="0" style="stop-color:#DD9C69"/>
	<stop  offset="1" style="stop-color:#935523"/>
</linearGradient>
<rect id="XMLID_20_" x="662" y="383" class="st39" width="113.7" height="29"/>
<linearGradient id="XMLID_75_" gradientUnits="userSpaceOnUse" x1="605.5242" y1="-77.403" x2="865.0806" y2="-77.403" gradientTransform="matrix(1 0 0 -1 0 274)">
	<stop  offset="0" style="stop-color:#555057"/>
	<stop  offset="0.4239" style="stop-color:#5E5F60"/>
	<stop  offset="1" style="stop-color:#7F848A"/>
</linearGradient>
<path id="XMLID_104_" class="st40" d="M629.7,388c33.3-7,64.7-6.3,108.3-1.3s95.1,10.8,109.3,2.6c12.2-6.9,17.1-21,14.8-37.7
	c-6.4-15.1-22.2-26-35.2-30.6c-20-7-57.2-8.9-57.2-8.9s-43.8-3.3-66.2-2.6c-44.3,1.4-61.9,26.4-81,48.1
	c-8.6,9.7-13.4,17.5-15.5,23.7C607.3,386.7,611.8,391.8,629.7,388z"/>
<linearGradient id="XMLID_76_" gradientUnits="userSpaceOnUse" x1="605.6715" y1="-103.3666" x2="865.0784" y2="-103.3666" gradientTransform="matrix(1 0 0 -1 0 274)">
	<stop  offset="0" style="stop-color:#454147"/>
	<stop  offset="0.4583" style="stop-color:#4B4C4E"/>
	<stop  offset="1" style="stop-color:#61656A"/>
</linearGradient>
<path id="XMLID_113_" class="st41" d="M862.2,351.6c2.3,16.7-2.7,30.8-14.8,37.7c-14.3,8.1-65.7,2.4-109.3-2.6s-75-5.7-108.3,1.3
	c-17.9,3.8-22.4-1.3-22.7-6.7c-3.1,8.7-0.8,14.1,3.5,16.7c7.5,4.5,26.5-2,53-4.5s157,8.5,164.5,9s23.5,5.5,34.5-23.5
	C866.3,368.9,865.6,359.6,862.2,351.6z"/>
<linearGradient id="XMLID_77_" gradientUnits="userSpaceOnUse" x1="760.2004" y1="71.7876" x2="744.2004" y2="-107.5458" gradientTransform="matrix(1 0 0 -1 0 274)">
	<stop  offset="0" style="stop-color:#DD9C69"/>
	<stop  offset="1" style="stop-color:#935523"/>
</linearGradient>
<path id="XMLID_10_" class="st42" d="M749,238.7h-30h-30L568.7,664H583c0,0,121.6-361,125-366.5c2.3-3.8,11-3.2,11-3.2
	s7.5-0.2,11,3.2c4.7,4.4,125,366.5,125,366.5h14.3L749,238.7z"/>
<linearGradient id="XMLID_78_" gradientUnits="userSpaceOnUse" x1="717.924" y1="-176.9855" x2="635.924" y2="-192.9854" gradientTransform="matrix(1 0 0 -1 0 274)">
	<stop  offset="0" style="stop-color:#DD9C69"/>
	<stop  offset="1" style="stop-color:#935523"/>
</linearGradient>
<path id="XMLID_21_" class="st43" d="M613,195.2L648,623l14,113c0,0,11.7,2.7,21-4.3l-30.7-542.2L613,195.2z"/>
<linearGradient id="XMLID_79_" gradientUnits="userSpaceOnUse" x1="526.3" y1="-282.9" x2="620" y2="-282.9" gradientTransform="matrix(1 0 0 -1 0 274)">
	<stop  offset="0" style="stop-color:#DD9C69"/>
	<stop  offset="1" style="stop-color:#935523"/>
</linearGradient>
<polygon id="XMLID_93_" class="st44" points="590.3,289.5 578.7,294.3 567,299.7 526.3,824.3 535.7,820 569,351 578.7,346.3 
	613,717.5 620,713 "/>
<linearGradient id="XMLID_80_" gradientUnits="userSpaceOnUse" x1="569" y1="-257.9" x2="613" y2="-257.9" gradientTransform="matrix(1 0 0 -1 0 274)">
	<stop  offset="0" style="stop-color:#996D48"/>
	<stop  offset="1" style="stop-color:#784418"/>
</linearGradient>
<polygon id="XMLID_22_" class="st45" points="569,351 599.3,717.5 613,717.5 578.7,346.3 "/>
<linearGradient id="XMLID_95_" gradientUnits="userSpaceOnUse" x1="556.8" y1="-191.35" x2="584.752" y2="-191.35" gradientTransform="matrix(1 0 0 -1 0 274)">
	<stop  offset="0" style="stop-color:#DD9C69"/>
	<stop  offset="1" style="stop-color:#935523"/>
</linearGradient>
<polygon id="XMLID_39_" class="st46" points="556.8,487 584.8,464.5 583.2,443.7 558.3,463 "/>
<linearGradient id="XMLID_99_" gradientUnits="userSpaceOnUse" x1="558.3" y1="-177.85" x2="583.1526" y2="-177.85" gradientTransform="matrix(1 0 0 -1 0 274)">
	<stop  offset="0" style="stop-color:#996D48"/>
	<stop  offset="1" style="stop-color:#784418"/>
</linearGradient>
<polygon id="XMLID_40_" class="st47" points="558.8,454.2 576.4,440.7 583.2,443.7 558.3,463 "/>
<linearGradient id="XMLID_109_" gradientUnits="userSpaceOnUse" x1="224" y1="-354.45" x2="277" y2="-354.45" gradientTransform="matrix(1 0 0 -1 0 274)">
	<stop  offset="0" style="stop-color:#996D48"/>
	<stop  offset="1" style="stop-color:#784418"/>
</linearGradient>
<polygon id="XMLID_41_" class="st48" points="249,539.4 277,717.5 257,717.5 224,539.4 "/>
<linearGradient id="XMLID_111_" gradientUnits="userSpaceOnUse" x1="119.7" y1="-137.65" x2="173.9" y2="-137.65" gradientTransform="matrix(1 0 0 -1 0 274)">
	<stop  offset="0" style="stop-color:#DD9C69"/>
	<stop  offset="1" style="stop-color:#935523"/>
</linearGradient>
<polygon id="XMLID_42_" class="st49" points="126,400.3 173.9,400.3 173.6,423 119.7,423 "/>
<linearGradient id="XMLID_112_" gradientUnits="userSpaceOnUse" x1="752.5806" y1="99.0018" x2="753.5806" y2="55.0018" gradientTransform="matrix(1 0 0 -1 0 274)">
	<stop  offset="0" style="stop-color:#996D48"/>
	<stop  offset="1" style="stop-color:#784418"/>
</linearGradient>
<path id="XMLID_45_" class="st50" d="M787.8,183h-59L711,238.7h38c0,0,28.1-3.2,47.8-11.3L787.8,183z"/>
<linearGradient id="XMLID_114_" gradientUnits="userSpaceOnUse" x1="259" y1="-340.7" x2="328" y2="-340.7" gradientTransform="matrix(1 0 0 -1 0 274)">
	<stop  offset="0" style="stop-color:#996D48"/>
	<stop  offset="1" style="stop-color:#784418"/>
</linearGradient>
<polygon id="XMLID_43_" class="st51" points="259,539.4 312,690 328,690 285,539.4 "/>
<linearGradient id="XMLID_115_" gradientUnits="userSpaceOnUse" x1="807.0249" y1="132.3715" x2="813.6916" y2="90.038" gradientTransform="matrix(1 0 0 -1 0 274)">
	<stop  offset="0" style="stop-color:#DD9C69"/>
	<stop  offset="1" style="stop-color:#935523"/>
</linearGradient>
<path id="XMLID_52_" class="st52" d="M826.6,175.4l-8-30.5l-18.9,8.6l-0.7,27.7C799,181.3,816.3,178.1,826.6,175.4z"/>
<linearGradient id="XMLID_116_" gradientUnits="userSpaceOnUse" x1="364" y1="173.8" x2="497.1" y2="173.8" gradientTransform="matrix(1 0 0 -1 0 274)">
	<stop  offset="8.632396e-08" style="stop-color:#D1D3D4"/>
	<stop  offset="0.4899" style="stop-color:#F1F2F2"/>
	<stop  offset="1" style="stop-color:#FFFFFF"/>
</linearGradient>
<path id="XMLID_87_" class="st53" d="M364,90.2c0,0,16.6,10.3,70.2,10.6c49.8,0.3,62.9-10.6,62.9-10.6s0,20-62.6,20
	S366.9,99.6,364,90.2z"/>
<linearGradient id="XMLID_117_" gradientUnits="userSpaceOnUse" x1="120.75" y1="-157.6" x2="156" y2="-157.6" gradientTransform="matrix(1 0 0 -1 0 274)">
	<stop  offset="0" style="stop-color:#996D48"/>
	<stop  offset="1" style="stop-color:#784418"/>
</linearGradient>
<polygon id="XMLID_23_" class="st54" points="120.8,440.2 156,423 125.5,423 "/>
<linearGradient id="XMLID_118_" gradientUnits="userSpaceOnUse" x1="151.5" y1="-282.35" x2="172.3" y2="-282.35" gradientTransform="matrix(1 0 0 -1 0 274)">
	<stop  offset="0" style="stop-color:#996D48"/>
	<stop  offset="1" style="stop-color:#784418"/>
</linearGradient>
<polygon id="XMLID_94_" class="st55" points="172.3,522.7 151.5,590 171.4,590 "/>
<linearGradient id="XMLID_119_" gradientUnits="userSpaceOnUse" x1="214.4" y1="22.9986" x2="567.1" y2="22.9986" gradientTransform="matrix(1 0 0 -1 0 274)">
	<stop  offset="0" style="stop-color:#A7A9AC"/>
	<stop  offset="1" style="stop-color:#7F848A"/>
</linearGradient>
<path id="XMLID_136_" class="st56" d="M404.7,220c20,17,33.3,50.5,78.6,72.5c36.8,17.9,65.2,17.5,81.8,15.8l2-8.6
	c0,0-64,9.3-104-29.3s-54-65.3-80-70S255,185,225,203c-3.7,2.2-7.2,5.3-10.6,8.9c10.9-4.8,30.6-10.2,64.9-10.5
	C342.7,200.7,384.7,203,404.7,220z"/>
<linearGradient id="XMLID_120_" gradientUnits="userSpaceOnUse" x1="156" y1="-31.1504" x2="565" y2="-31.1504" gradientTransform="matrix(1 0 0 -1 0 274)">
	<stop  offset="0" style="stop-color:#555057"/>
	<stop  offset="0.4239" style="stop-color:#5E5F60"/>
	<stop  offset="1" style="stop-color:#7F848A"/>
</linearGradient>
<path id="XMLID_145_" class="st57" d="M483.2,292.5c-45.3-22-58.6-55.5-78.6-72.5s-62-19.3-125.3-18.7c-34.3,0.4-54,5.7-64.9,10.5
	c-20.4,22.1-33.6,66-50.8,85.8c-4.8,5.5-7.6,12.5-7.6,19.9v41.9c0,0,3.5,38,70.5,45S438.3,417,550.3,371l14.7-62.7
	C548.4,310,520,310.4,483.2,292.5z"/>
<g id="XMLID_159_" class="st58">
	
		<image style="overflow:visible;enable-background:new    ;" width="1217" height="450" id="XMLID_296_" xlink:href="5EE93ACE.png"  transform="matrix(0.2373 0 0 0.2373 286.2755 56.8066)">
	</image>
</g>
<g id="XMLID_164_">
	
		<linearGradient id="XMLID_121_" gradientUnits="userSpaceOnUse" x1="346.7" y1="167.65" x2="511" y2="167.65" gradientTransform="matrix(1 0 0 -1 0 274)">
		<stop  offset="8.632396e-08" style="stop-color:#D1D3D4"/>
		<stop  offset="0.4899" style="stop-color:#F1F2F2"/>
		<stop  offset="1" style="stop-color:#FFFFFF"/>
	</linearGradient>
	<path id="XMLID_83_" class="st59" d="M346.7,94c0,0,20.5,12.8,86.7,13.1C494.8,107.5,511,94,511,94s0,24.7-77.3,24.7
		S350.2,105.7,346.7,94z"/>
	
		<linearGradient id="XMLID_122_" gradientUnits="userSpaceOnUse" x1="346.6" y1="181.1" x2="511" y2="181.1" gradientTransform="matrix(1 0 0 -1 0 274)">
		<stop  offset="8.632396e-08" style="stop-color:#BCBEC0"/>
		<stop  offset="0.4899" style="stop-color:#DCDDDE"/>
		<stop  offset="1" style="stop-color:#C4C6C8"/>
	</linearGradient>
	<ellipse id="XMLID_84_" class="st60" cx="428.8" cy="92.9" rx="82.2" ry="14.2"/>
	
		<linearGradient id="XMLID_123_" gradientUnits="userSpaceOnUse" x1="364" y1="184.7" x2="497.2" y2="184.7" gradientTransform="matrix(1 0 0 -1 0 274)">
		<stop  offset="8.632396e-08" style="stop-color:#BCBEC0"/>
		<stop  offset="0.4899" style="stop-color:#DCDDDE"/>
		<stop  offset="1" style="stop-color:#C4C6C8"/>
	</linearGradient>
	<ellipse id="XMLID_86_" class="st61" cx="430.6" cy="89.3" rx="66.6" ry="11.5"/>
	
		<linearGradient id="XMLID_124_" gradientUnits="userSpaceOnUse" x1="364" y1="190.2" x2="497.1" y2="190.2" gradientTransform="matrix(1 0 0 -1 0 274)">
		<stop  offset="8.632396e-08" style="stop-color:#D1D3D4"/>
		<stop  offset="0.4899" style="stop-color:#F1F2F2"/>
		<stop  offset="1" style="stop-color:#FFFFFF"/>
	</linearGradient>
	<path id="XMLID_89_" class="st62" d="M364,60.5c0,0,16.6,10.3,70.2,10.6c49.8,0.3,62.9-10.6,62.9-10.6s-1.2,46.6-63.8,46.6
		S366.9,69.9,364,60.5z"/>
	
		<linearGradient id="XMLID_125_" gradientUnits="userSpaceOnUse" x1="364" y1="214" x2="497.2" y2="214" gradientTransform="matrix(1 0 0 -1 0 274)">
		<stop  offset="8.632396e-08" style="stop-color:#BCBEC0"/>
		<stop  offset="0.4899" style="stop-color:#DCDDDE"/>
		<stop  offset="1" style="stop-color:#C4C6C8"/>
	</linearGradient>
	<ellipse id="XMLID_88_" class="st63" cx="430.6" cy="60" rx="66.6" ry="11.8"/>
</g>
</svg>
