<?xml version="1.0" encoding="utf-8"?>
<!-- Generator: Adobe Illustrator 22.0.0, SVG Export Plug-In . SVG Version: 6.00 Build 0)  -->
<svg version="1.1" id="_x31__x2C_5" xmlns="http://www.w3.org/2000/svg" xmlns:xlink="http://www.w3.org/1999/xlink" x="0px"
	 y="0px" viewBox="0 0 239 355.1" style="enable-background:new 0 0 239 355.1;" xml:space="preserve">
<style type="text/css">
	.st0{fill:#2FDF84;}
	.st1{fill:#F3F3F1;}
	.st2{fill:#D5DBE1;}
	.st3{fill:#00B871;}
</style>
<path class="st0" d="M208.9,215.6c0,13.7-39.8,24.9-88.9,24.9s-88.9-11.2-88.9-24.9v-56.9h177.8V215.6z"/>
<path class="st1" d="M208.9,158.7c0,13.7-39.8,24.9-88.9,24.9s-88.9-11.2-88.9-24.9v-56.9h177.8V158.7z"/>
<path class="st0" d="M208.9,101.8c0,13.7-39.8,24.9-88.9,24.9s-88.9-11.2-88.9-24.9V44.9h177.8V101.8z"/>
<ellipse class="st1" cx="120" cy="44.9" rx="88.9" ry="24.9"/>
<path class="st2" d="M63.1,158.7v-35.6l-32-21.3v56.9c0,13.7,39.8,24.9,88.9,24.9c5.5,0,10.8-0.2,16-0.4
	C94.6,181,63.1,170.9,63.1,158.7z"/>
<path class="st2" d="M63.1,44.9c0-12.2,31.4-22.4,72.9-24.5c-5.2-0.3-10.5-0.4-16-0.4c-49.1,0-88.9,11.2-88.9,24.9
	S70.9,69.8,120,69.8c5.5,0,10.8-0.2,16-0.4C94.6,67.2,63.1,57.1,63.1,44.9z"/>
<path class="st3" d="M63.1,215.6V180l-32-21.3v56.9c0,13.7,39.8,24.9,88.9,24.9c5.5,0,10.8-0.2,16-0.4
	C94.6,237.9,63.1,227.8,63.1,215.6z"/>
<path class="st3" d="M63.1,101.8V62.7l-32-17.8v56.9c0,13.7,39.8,24.9,88.9,24.9c5.5,0,10.8-0.2,16-0.4
	C94.6,124.1,63.1,114,63.1,101.8z"/>
<path d="M120,80.4c-10.2,0-99.6-1-99.6-35.6S109.8,9.3,120,9.3s99.6,1,99.6,35.6S130.2,80.4,120,80.4z M42.7,44.9
	c6.7,5.7,34.8,14.2,77.3,14.2s70.6-8.5,77.3-14.2c-6.7-5.7-34.8-14.2-77.3-14.2S49.4,39.2,42.7,44.9z"/>
<path d="M120,137.3c-10.2,0-99.6-1-99.6-35.6h21.3C44.9,106,74,116,120,116s75.1-10,78.5-15.6l21,1.3
	C219.6,136.3,130.2,137.3,120,137.3z"/>
<path d="M120,194.2c-10.2,0-99.6-1-99.6-35.6h21.3c3.1,4.3,32.3,14.2,78.2,14.2s75.1-10,78.5-15.6l21,1.3
	C219.6,193.2,130.2,194.2,120,194.2z"/>
<path d="M192.2,240.7l-0.1-10.9l-3.8-9.8c8.5-3.3,10.1-5.9,10.2-5.9l-0.3-169.3h21.3v170.7c0,10.1-7.9,18.4-23.4,24.4
	C194.9,240.5,193.6,240.7,192.2,240.7L192.2,240.7z"/>
<path d="M43.3,239.7c-18.9-7.4-22.8-17.2-22.8-24.1V44.9h21.3v170.7c0.2-0.7,2.7,1.7,9.3,4.3L43.3,239.7z"/>
<path d="M123.6,350.7h-7.1c-13.7,0-24.9-11.2-24.9-24.9v-35.6c0-13.7,11.2-24.9,24.9-24.9h7.1c13.7,0,24.9,11.2,24.9,24.9v35.6
	C148.4,339.5,137.3,350.7,123.6,350.7z M116.4,286.7c-2,0-3.6,1.6-3.6,3.6v35.6c0,2,1.6,3.6,3.6,3.6h7.1c2,0,3.6-1.6,3.6-3.6v-35.6
	c0-2-1.6-3.6-3.6-3.6H116.4z"/>
<path d="M108.4,325.8l15.1-15.1l29.3,29.3l-15.1,15.1L108.4,325.8z"/>
<path d="M37.6,350.7H6.2v-21.3h31.4c2.2,0,4.2-2.4,4.2-5.3c0-2.9-1.9-5.3-4.2-5.3h-5.9c-14.1,0-25.5-12-25.5-26.7
	s11.4-26.7,25.5-26.7h31.4v21.3H31.7c-2.2,0-4.2,2.4-4.2,5.3c0,2.9,1.9,5.3,4.2,5.3h5.9c14.1,0,25.5,12,25.5,26.7
	S51.7,350.7,37.6,350.7z"/>
<path d="M233.8,350.7h-46.2c-5.9,0-10.7-4.8-10.7-10.7v-74.7h21.3v64h35.6V350.7z"/>
</svg>
