<!DOCTYPE svg PUBLIC "-//W3C//DTD SVG 1.1//EN" "http://www.w3.org/Graphics/SVG/1.1/DTD/svg11.dtd">

<!-- Uploaded to: SVG Repo, www.svgrepo.com, Transformed by: SVG Repo Mixer Tools -->
<svg  width="800px" height="800px" viewBox="-100 -100 1200.00 1200.00" version="1.1" xmlns="http://www.w3.org/2000/svg" xmlns:xlink="http://www.w3.org/1999/xlink" enable-background="new 0 0 1000 1000" xml:space="preserve" stroke="#ea2806" stroke-width="0.01" transform="matrix(1, 0, 0, 1, 0, 0)rotate(0)">

<g id="SVGRepo_bgCarrier" stroke-width="0">

<rect x="-100" y="-100" width="1200.00" height="1200.00" rx="600" fill="yellow" strokewidth="0"/>

</g>


<g transform="translate(0.000000,511.000000) scale(0.100000,-0.100000)"> <path d="M3240.1,4301.6C1269.8,4078.1-174.4,2141.4,144.1,147.3c229.5-1424.3,1311.6-2593.5,2690.4-2906.1c108.8-25.7,213.6-59.3,235.4-77.2c19.8-17.8,211.7-249.3,425.3-516.3c213.7-267.1,439.2-536.1,500.5-597.4c124.6-124.6,239.4-176.1,318.5-140.4c23.7,11.9,302.7,346.2,617.2,743.8l573.7,724.1h425.3c524.2,2,914,29.7,1169.1,81.1c1044.5,213.6,1958.5,908,2431.3,1849.7c633,1266.1,441.2,2751.8-494.6,3822c-571.7,656.8-1406.5,1082.1-2292.8,1173.1C6498.3,4327.4,3461.7,4327.4,3240.1,4301.6z M7032.4,3951.5c850.6-187.9,1560.8-662.7,2027.7-1359.1C9554.7,1854.5,9711,948.5,9491.4,80C9236.2-936.8,8423.1-1805.3,7424.1-2131.7c-429.3-140.4-690.4-172.1-1444.1-172.1c-364,0-579.6-7.9-605.4-21.7c-31.6-15.8-692.4-826.9-1101.9-1351.2l-43.5-57.4l-53.4,47.5c-27.7,25.7-207.7,243.3-397.6,482.7c-377.8,470.8-520.3,633-597.4,672.6c-27.7,13.8-122.7,39.6-211.7,59.3C1871.1-2250.4,945.3-1415.5,581.3-323.5C448.8,72.1,423.1,248.2,423.1,713.1c0,356.1,5.9,445.1,45.5,623.1c96.9,457,267.1,858.6,520.3,1240.4c203.8,304.7,599.4,698.3,906,902.1c419.4,277,874.4,449.1,1355.1,514.3c33.6,5.9,852.6,7.9,1820,5.9C6816.8,3997,6832.6,3995,7032.4,3951.5z"/> <path d="M2078.9,2070.2c-211.7-77.1-366-221.6-468.8-437.2c-57.4-118.7-61.3-144.4-61.3-338.3c0-199.8,2-213.6,75.2-358.1c85.1-174.1,211.7-300.7,385.8-385.8c112.8-55.4,114.7-55.4,601.4-65.3l488.6-9.9l59.3-57.4c95-91,130.6-209.7,130.6-427.3c0-102.9-11.9-225.5-25.7-273c-33.6-110.8-128.6-215.6-217.6-241.3c-41.5-11.9-316.5-19.8-639-19.8c-563.8,0-565.8,0-607.3-45.5c-55.4-57.4-55.4-132.5-2-199.8l41.5-53.4l656.8,5.9c751.7,5.9,737.9,4,908,193.9c136.5,150.4,176.1,275,187.9,577.7c7.9,215.6,2,269-33.6,387.7c-61.3,205.7-144.4,316.5-294.8,393.7l-126.6,65.3h-419.4c-468.8,0-551.9,13.9-682.5,116.7c-108.8,87-189.9,255.2-189.9,397.6c0,142.4,81.1,310.6,189.9,397.6c132.5,104.8,207.7,116.7,751.7,116.7c269,0,504.5,5.9,522.3,11.9c89,35.6,95,219.6,9.9,265.1c-21.8,11.9-265.1,19.8-587.5,19.8C2247,2105.8,2169.9,2101.8,2078.9,2070.2z"/> <path d="M4773.2,2082c-233.4-79.1-409.5-231.5-510.4-445.1l-63.3-132.5V633.9v-870.4l63.3-132.5c81.1-174.1,223.5-316.5,397.6-397.6c122.7-59.3,148.4-63.3,340.3-63.3s217.6,4,340.3,63.3c174.1,81.1,316.5,223.5,397.6,397.6l63.3,132.5v870.4v870.4l-63.3,132.5c-81.1,174.1-223.5,316.5-397.6,397.6c-112.8,53.4-158.3,63.3-310.6,67.3C4921.6,2105.8,4822.7,2097.9,4773.2,2082z M5246,1735.8c96.9-53.4,156.3-116.7,221.6-241.4c35.6-63.3,37.6-126.6,37.6-860.5s-2-797.2-37.6-860.5c-67.2-126.6-124.6-187.9-231.5-247.3c-150.3-81.1-320.5-81.1-470.8,0c-106.8,59.3-164.2,120.7-231.5,247.3c-33.6,63.3-37.6,130.6-43.5,771.5c-4,385.8-2,747.8,5.9,803.2c17.8,152.3,114.7,300.7,245.3,377.8c57.4,33.6,128.6,67.3,158.3,71.2C4998.8,1815,5149.1,1787.3,5246,1735.8z"/> <path d="M6965.1,2078.1c-373.9-114.7-629.1-526.2-561.8-904.1c47.5-269,231.4-512.4,470.8-625.1c110.8-51.4,130.6-53.4,550-63.3c352.1-7.9,447.1-17.8,494.6-43.5c182-98.9,269-332.3,227.5-621.2c-9.9-83.1-39.6-186-63.3-227.5c-73.2-132.5-95-136.5-767.5-136.5c-350.2,0-611.3-7.9-633-19.8c-93-49.5-75.2-243.3,23.7-267.1c25.7-5.9,334.3-9.9,688.4-5.9l644.9,5.9l96.9,51.4c116.7,59.3,207.7,172.1,267.1,328.4c53.4,140.4,75.2,478.7,41.5,637C8395.4,416.3,8249,618.1,8057.1,719c-96.9,51.4-110.8,53.4-544,63.3c-494.6,11.9-534.1,21.8-664.7,162.2c-106.8,112.8-136.5,187.9-136.5,352.1c0,106.8,11.9,168.2,37.6,217.6c49.5,96.9,146.4,193.9,239.4,243.3c75.2,41.5,108.8,43.5,627.1,49.5l550,5.9l39.6,51.4c51.4,65.3,49.5,124.6-2,191.9l-39.6,51.4l-557.9-2C7202.5,2105.8,7024.5,2097.9,6965.1,2078.1z"/> </g> 

</svg>