<!-- icon666.com - MILLIONS OF FREE VECTOR ICONS --><svg version="1.1" id="Capa_1" xmlns="http://www.w3.org/2000/svg" xmlns:xlink="http://www.w3.org/1999/xlink" x="0px" y="0px" viewBox="0 0 481.045 481.045" style="enable-background:new 0 0 481.045 481.045;" xml:space="preserve"><g><path style="fill:#4DCFE0;" d="M151.706,67.788c-4.18,0-7.837-1.567-10.971-4.702c-6.269-6.269-6.269-16.196,0-21.943 c54.857-54.857,144.718-54.857,199.576,0c6.269,6.269,6.269,16.196,0,21.943c-6.269,6.269-16.196,6.269-21.943,0 c-42.841-42.841-112.849-42.841-155.69,0C159.543,66.22,155.886,67.788,151.706,67.788z"></path><path style="fill:#4DCFE0;" d="M282.841,105.927c-4.18,0-7.837-1.567-10.971-4.702c-17.241-17.241-45.453-17.241-63.216,0 c-6.269,6.269-16.196,6.269-21.943,0c-6.269-6.269-6.269-16.196,0-21.943c29.78-29.78,77.845-29.78,107.102,0 c6.269,6.269,6.269,16.196,0,21.943C290.678,104.359,287.02,105.927,282.841,105.927z"></path></g><g><path style="fill:#1185E0;" d="M299.037,481.045H182.008c-19.331,0-35.004-15.673-35.004-35.004V178.024 c0-19.331,15.673-35.004,35.004-35.004h117.551c19.331,0,35.004,15.673,35.004,35.004v268.016v0.522 C333.518,465.894,317.845,481.045,299.037,481.045z M182.008,174.367c-2.09,0-3.657,2.09-3.657,3.657v268.016 c0,2.09,2.09,3.657,3.657,3.657h117.029c2.612,0,4.18-2.09,4.18-4.18V178.024c0-2.09-2.09-3.657-3.657-3.657L182.008,174.367 L182.008,174.367z"></path><path style="fill:#1185E0;" d="M211.788,244.376c-8.882,0-15.673-6.792-15.673-15.673v-19.853c0-8.882,6.792-15.673,15.673-15.673 c8.882,0,15.673,6.792,15.673,15.673v19.853C227.461,237.584,220.669,244.376,211.788,244.376z"></path><path style="fill:#1185E0;" d="M269.257,244.376c-8.882,0-15.673-6.792-15.673-15.673v-19.853c0-8.882,6.792-15.673,15.673-15.673 c8.882,0,15.673,6.792,15.673,15.673v19.853C284.931,237.584,278.139,244.376,269.257,244.376z"></path><path style="fill:#1185E0;" d="M211.788,316.473c-8.882,0-15.673-6.792-15.673-15.673v-19.331c0-8.882,6.792-15.673,15.673-15.673 c8.882,0,15.673,6.792,15.673,15.673V300.8C227.461,309.682,220.669,316.473,211.788,316.473z"></path><path style="fill:#1185E0;" d="M269.257,316.473c-8.882,0-15.673-6.792-15.673-15.673v-19.331c0-8.882,6.792-15.673,15.673-15.673 c8.882,0,15.673,6.792,15.673,15.673V300.8C284.931,309.682,278.139,316.473,269.257,316.473z"></path><path style="fill:#1185E0;" d="M211.788,389.094c-8.882,0-15.673-6.792-15.673-15.673v-19.853c0-8.882,6.792-15.673,15.673-15.673 c8.882,0,15.673,6.792,15.673,15.673v19.853C227.461,382.302,220.669,389.094,211.788,389.094z"></path><path style="fill:#1185E0;" d="M269.257,389.094c-8.882,0-15.673-6.792-15.673-15.673v-19.853c0-8.882,6.792-15.673,15.673-15.673 c8.882,0,15.673,6.792,15.673,15.673v19.853C284.931,382.302,278.139,389.094,269.257,389.094z"></path></g></svg>