<?xml version="1.0" encoding="utf-8"?>
<!-- Generator: Adobe Illustrator 25.3.0, SVG Export Plug-In . SVG Version: 6.00 Build 0)  -->
<svg version="1.1" id="Calque_1" xmlns="http://www.w3.org/2000/svg" xmlns:xlink="http://www.w3.org/1999/xlink" x="0px" y="0px"
	 viewBox="0 0 20 20" style="enable-background:new 0 0 20 20;" xml:space="preserve">
<style type="text/css">
	.st0{fill:#FFFFFF;}
	.st1{font-family:'MyriadPro-Regular';}
	.st2{font-size:4.4643px;}
</style>
<path d="M9,11.2V7h2v4.2c1.6,0.6,2.4,2.3,1.8,3.8c-0.6,1.6-2.3,2.4-3.8,1.8S6.6,14.6,7.2,13C7.5,12.1,8.1,11.5,9,11.2z M8,10.5
	c-1.9,1.1-2.6,3.6-1.5,5.5s3.6,2.6,5.5,1.5c1.9-1.1,2.6-3.6,1.5-5.5c-0.4-0.6-0.9-1.1-1.5-1.5V4c0-1.1-0.9-2-2-2S8,2.9,8,4V10.5
	L8,10.5z M6,9.5V4c0-2.2,1.8-4,4-4s4,1.8,4,4v5.5c2.5,2.2,2.7,6,0.5,8.5c-1.1,1.3-2.8,2-4.5,2c-3.3,0-6-2.7-6-6
	C4,12.3,4.7,10.7,6,9.5z"/>
<text transform="matrix(0.6725 0 0 1 7.4663 15.254)" class="st0 st1 st2">tmp</text>
</svg>
