<?xml version="1.0" encoding="utf-8"?>
<!-- Generator: Adobe Illustrator 28.0.0, SVG Export Plug-In . SVG Version: 6.00 Build 0)  -->
<svg version="1.1" id="Calque_1" xmlns="http://www.w3.org/2000/svg" xmlns:xlink="http://www.w3.org/1999/xlink" x="0px" y="0px"
	 viewBox="0 0 136.5 155.9" style="enable-background:new 0 0 136.5 155.9;" xml:space="preserve">
<style type="text/css">
	.st0{fill:#009FE3;}
	.st1{fill:#F0F6F4;}
	.st2{fill:#B7B5B7;}
	.st3{fill:#E7F1EF;}
	.st4{fill:#E6007E;}
	.st5{fill:#FFED00;}
	.st6{fill:#090907;stroke:#0C0C07;stroke-miterlimit:10;}
	.st7{fill:#F0F6F4;stroke:url(#SVGID_1_);stroke-miterlimit:10;}
	.st8{fill:#B7B5B7;stroke:url(#SVGID_00000163753064777704075650000007026428199576627603_);stroke-miterlimit:10;}
	.st9{fill:#E7F1EF;stroke:url(#SVGID_00000092440161874215656290000012532294341080225966_);stroke-miterlimit:10;}
</style>
<g>
	<g>
		<path class="st0" d="M0,10v139.9c0,3.3,7.6,6,17.1,6c9.4,0,17.1-2.7,17.1-6V10H0z"/>
		<path class="st1" d="M34.1,10c0,3.3-7.6,6-17.1,6C7.6,16,0,13.3,0,10c0-3.3,7.6-6,17.1-6C26.5,4,34.1,6.7,34.1,10z"/>
		<g>
			<path class="st2" d="M9.1,3.7v5.2c0,2,3.6,3.7,8,3.7c4.4,0,8-1.7,8-3.7V3.7H9.1z"/>
			<path class="st3" d="M25,3.7c0,2-3.6,3.7-8,3.7c-4.4,0-8-1.7-8-3.7c0-2,3.6-3.7,8-3.7C21.5,0,25,1.7,25,3.7z"/>
		</g>
	</g>
	<g>
		<path class="st4" d="M34.1,10v139.9c0,3.3,7.6,6,17.1,6c9.4,0,17.1-2.7,17.1-6V10H34.1z"/>
		<path class="st1" d="M68.2,10c0,3.3-7.6,6-17.1,6c-9.4,0-17.1-2.7-17.1-6c0-3.3,7.6-6,17.1-6C60.6,4,68.2,6.7,68.2,10z"/>
		<g>
			<path class="st2" d="M43.2,3.7v5.2c0,2,3.6,3.7,8,3.7c4.4,0,8-1.7,8-3.7V3.7H43.2z"/>
			<path class="st3" d="M59.2,3.7c0,2-3.6,3.7-8,3.7c-4.4,0-8-1.7-8-3.7c0-2,3.6-3.7,8-3.7C55.6,0,59.2,1.7,59.2,3.7z"/>
		</g>
	</g>
	<g>
		<path class="st5" d="M68.2,10v139.9c0,3.3,7.6,6,17.1,6c9.4,0,17.1-2.7,17.1-6V10H68.2z"/>
		<path class="st1" d="M102.4,10c0,3.3-7.6,6-17.1,6c-9.4,0-17.1-2.7-17.1-6c0-3.3,7.6-6,17.1-6C94.7,4,102.4,6.7,102.4,10z"/>
		<g>
			<path class="st2" d="M77.3,3.7v5.2c0,2,3.6,3.7,8,3.7c4.4,0,8-1.7,8-3.7V3.7H77.3z"/>
			<path class="st3" d="M93.3,3.7c0,2-3.6,3.7-8,3.7c-4.4,0-8-1.7-8-3.7c0-2,3.6-3.7,8-3.7C89.7,0,93.3,1.7,93.3,3.7z"/>
		</g>
	</g>
</g>
<path class="st6" d="M102.4,149.9c0,3.3,7.6,6,17.1,6c9.4,0,17.1-2.7,17.1-6V10h-34.1"/>
<linearGradient id="SVGID_1_" gradientUnits="userSpaceOnUse" x1="101.8593" y1="10.3283" x2="136.9784" y2="10.3283">
	<stop  offset="0" style="stop-color:#FFFFFF"/>
	<stop  offset="1" style="stop-color:#000000"/>
</linearGradient>
<path class="st7" d="M102.4,10.3c0-3.3,7.6-6,17.1-6c9.4,0,17.1,2.7,17.1,6c0,3.3-7.6,6-17.1,6C110,16.3,102.4,13.6,102.4,10.3"/>
<g>
	
		<linearGradient id="SVGID_00000107551165155935422450000015718733827152263572_" gradientUnits="userSpaceOnUse" x1="110.9355" y1="8.4801" x2="127.9023" y2="8.4801">
		<stop  offset="0" style="stop-color:#FFFFFF"/>
		<stop  offset="1" style="stop-color:#000000"/>
	</linearGradient>
	<path style="fill:#B7B5B7;stroke:url(#SVGID_00000107551165155935422450000015718733827152263572_);stroke-miterlimit:10;" d="
		M111.4,4v5.2c0,2,3.6,3.7,8,3.7c4.4,0,8-1.7,8-3.7V4H111.4z"/>
	
		<linearGradient id="SVGID_00000082363868829452061050000001479890075518165638_" gradientUnits="userSpaceOnUse" x1="110.9355" y1="4.0275" x2="127.9023" y2="4.0275">
		<stop  offset="0" style="stop-color:#FFFFFF"/>
		<stop  offset="1" style="stop-color:#000000"/>
	</linearGradient>
	<path style="fill:#E7F1EF;stroke:url(#SVGID_00000082363868829452061050000001479890075518165638_);stroke-miterlimit:10;" d="
		M127.4,4c0,2-3.6,3.7-8,3.7c-4.4,0-8-1.7-8-3.7c0-2,3.6-3.7,8-3.7C123.8,0.3,127.4,2,127.4,4z"/>
</g>
</svg>
