<svg id="Capa_1" data-name="Capa 1" xmlns="http://www.w3.org/2000/svg" viewBox="0 0 800 789.8"><defs><style>.cls-1{fill:#ef0c2d;}.cls-2{fill:#3c9de5;}.cls-3{fill:#1be26b;}.cls-4{fill:#ed2f4b;}.cls-5{fill:#050001;}.cls-6{fill:none;}</style></defs><rect class="cls-1" x="183.5" y="34.7" width="429.8" height="165.2"/><path d="M800,506.6H760V479.9a13.29,13.29,0,0,0-13.3-13.3h-80a13.29,13.29,0,0,0-13.3,13.3v26.7h-40V439.9a13.29,13.29,0,0,0-13.3-13.3H573.4V399.9a13.29,13.29,0,0,0-13.3-13.3h-80V293.3A13.29,13.29,0,0,0,466.8,280H440V186.7h13.3v26.6a13.29,13.29,0,0,0,13.3,13.3h96.7A76.73,76.73,0,0,0,639.9,150V89.9a76.73,76.73,0,0,0-76.6-76.6H493.2a78.26,78.26,0,0,0-53.3,21.3V13.3A13.29,13.29,0,0,0,426.6,0H373.3A13.29,13.29,0,0,0,360,13.3V34.6a78.26,78.26,0,0,0-53.3-21.3H236.6A76.73,76.73,0,0,0,160,89.9V150a76.73,76.73,0,0,0,76.6,76.6h96.7a13.29,13.29,0,0,0,13.3-13.3V186.6H360v93.3H333.3A13.29,13.29,0,0,0,320,293.2v93.3H240a13.29,13.29,0,0,0-13.3,13.3v26.7H200a13.29,13.29,0,0,0-13.3,13.3v66.7h-40V479.8a13.29,13.29,0,0,0-13.3-13.3h-80a13.29,13.29,0,0,0-13.3,13.3v26.7H0v240H40v26.8a13.29,13.29,0,0,0,13.3,13.3h80a13.29,13.29,0,0,0,13.3-13.3V746.6H653.3v26.7a13.29,13.29,0,0,0,13.3,13.3h80a13.29,13.29,0,0,0,13.3-13.3V746.6h40v-240ZM413.3,26.6V51.3c-.5.1-.9.3-1.3.4-1.2.3-2.4.6-3.6.8a44.47,44.47,0,0,1-8.1.8h-.4a55.55,55.55,0,0,1-8.1-.8c-1.2-.2-2.4-.5-3.6-.8-.5-.1-.9-.3-1.4-.4V26.6ZM333.3,160A13.29,13.29,0,0,0,320,173.3V200H236.6a50,50,0,0,1-49.9-49.9V89.9A50,50,0,0,1,236.6,40h70.1a51.43,51.43,0,0,1,36.1,14.9l2.3,2.3a78.07,78.07,0,0,0,46.1,22.2c.3,0,.6.1.8.1a71.43,71.43,0,0,0,8,.4c2.7,0,5.4-.2,8.1-.4.3,0,.6-.1.8-.1A78.07,78.07,0,0,0,455,57.2l2.3-2.3A51.43,51.43,0,0,1,493.4,40h70.1a50,50,0,0,1,49.9,49.9V150a50,50,0,0,1-49.9,49.9H480V173.3A13.29,13.29,0,0,0,466.7,160H333.3Zm53.4,26.6h26.7v93.3H386.7Zm-40,120H453.4v80H346.7ZM253.3,413.3H546.6v13.3H253.3Zm-40,40H586.7v53.3H213.3ZM26.7,720V533.3H40V720ZM120,760H66.7V493.3H120Zm26.7-40V533.3H653.3V720Zm586.6,40H680V493.3h53.3V760Zm40-40H760V533.3h13.3Z"/><rect class="cls-2" x="146.7" y="533.3" width="506.7" height="191.9"/><rect class="cls-2" x="66.7" y="493.3" width="53.3" height="266.7"/><rect class="cls-2" x="680" y="493.3" width="53.3" height="266.7"/><rect class="cls-3" x="26.7" y="533.3" width="13.3" height="186.7"/><rect class="cls-4" x="760" y="533.3" width="13.3" height="186.7"/><rect class="cls-2" x="213.3" y="453.3" width="373.3" height="53.3"/><rect class="cls-2" x="253.3" y="413.3" width="293.3" height="13.3"/><rect class="cls-2" x="346.7" y="306.6" width="106.7" height="80"/><rect class="cls-2" x="386.7" y="186.6" width="26.7" height="93.3"/><rect class="cls-2" x="386.7" y="26.6" width="26.7" height="24.6"/><rect x="196" y="39" width="1" height="7.2"/><rect class="cls-5" x="346.7" y="186.6" width="15.9" height="15.9"/><rect x="440" y="186.6" width="15.9" height="15.9"/><rect class="cls-6" width="800" height="789.8"/></svg>