<svg xmlns="http://www.w3.org/2000/svg" width="600" height="600">

<path style="fill:#d7d7d7; stroke:none;" d="M254 101C255.624 103.044 256.643 103.896 259 105C257.598 102.726 256.485 102.013 254 101z"/>
<path style="fill:#cfcfcf; stroke:none;" d="M282 105L287 105L287 101C284.288 101.823 283.462 102.567 282 105z"/>
<path style="fill:#dddddd; stroke:none;" d="M276 121C276.197 124.569 276.462 126.757 280 128C279.891 125.558 279.572 123.377 279 121L276 121z"/>
<path style="fill:#e1c3bb; stroke:none;" d="M194 174C196.332 174.985 198.457 174.981 201 175C198.668 174.015 196.543 174.019 194 174z"/>
<path style="fill:#d98167; stroke:none;" d="M194.019 176.029C188.251 179.013 188.238 186.512 189.789 192C194.045 207.063 200.844 222.486 206.728 237C219.144 267.627 229.764 299.089 241.46 330C250.257 353.25 259.899 376.449 267.741 400.001C270.227 407.469 273.518 414.548 276.069 422C277.948 427.49 279.211 433.967 282.225 438.956C284.992 443.538 290.907 446.01 295.946 443.562C300.888 441.162 302.194 434.643 304.154 430C309.202 418.038 313.871 405.97 318.86 394C330.985 364.915 341.816 335.28 353.742 306.09C362.211 285.363 371.431 264.764 379.356 243.83C384.856 229.3 391.124 214.76 396.074 200C398.126 193.883 399.217 186.934 392.571 183.028C383.87 177.913 372.313 190.203 366 194.87C348.32 207.939 330.028 220.523 313 234.41C308.846 237.798 304.438 240.853 300.09 243.985C297.895 245.566 295.847 247.511 292.961 246.704C284.072 244.222 274.747 233.073 267.83 227.205C252.726 214.391 236.784 202.178 221.17 189.986C214.779 184.996 203.283 171.234 194.019 176.029z"/>
<path style="fill:#dfb4a6; stroke:none;" d="M201 175C202.248 175.685 202.548 175.749 204 176C202.752 175.315 202.452 175.251 201 175z"/>
<path style="fill:#e1bcb2; stroke:none;" d="M206.667 178.333C206.222 178.778 207.278 178.722 207.333 178.667C207.778 178.222 206.722 178.278 206.667 178.333z"/>
<path style="fill:#dfb4a6; stroke:none;" d="M208 179L209 180L208 179z"/>
<path style="fill:#e1c5bd; stroke:none;" d="M188.333 180.667C188.278 180.722 188.222 181.778 188.667 181.333C188.722 181.278 188.778 180.222 188.333 180.667z"/>
<path style="fill:#dfb6a9; stroke:none;" d="M209 180L210 181L209 180z"/>
<path style="fill:#dfb9ad; stroke:none;" d="M210 181L211 182L210 181z"/>
<path style="fill:#dfb6a9; stroke:none;" d="M384.667 181.333C384.222 181.778 385.278 181.722 385.333 181.667C385.778 181.222 384.722 181.278 384.667 181.333z"/>
<path style="fill:#db9b89; stroke:none;" d="M386 181C387.506 181.683 388.315 181.826 390 182C388.494 181.317 387.685 181.174 386 181z"/>
<path style="fill:#dda492; stroke:none;" d="M188 182L188 189C189.059 186.466 189.059 184.534 188 182z"/>
<path style="fill:#dda696; stroke:none;" d="M382.667 182.333C382.222 182.778 383.278 182.722 383.333 182.667C383.778 182.222 382.722 182.278 382.667 182.333z"/>
<path style="fill:#dfb0a2; stroke:none;" d="M212.667 183.333C212.222 183.778 213.278 183.722 213.333 183.667C213.778 183.222 212.722 183.278 212.667 183.333z"/>
<path style="fill:#dda492; stroke:none;" d="M375 187C376.248 187.685 376.548 187.749 378 188C376.752 187.315 376.452 187.251 375 187z"/>
<path style="fill:#e1bfb5; stroke:none;" d="M188 189C188.599 192.478 189.872 195.661 191 199C191.999 195.399 190.189 191.896 188 189z"/>
<path style="fill:#dda08e; stroke:none;" d="M219.667 189.333C219.222 189.778 220.278 189.722 220.333 189.667C220.778 189.222 219.722 189.278 219.667 189.333z"/>
<path style="fill:#c9c9c9; stroke:none;" d="M168 191L168 193L170 193L170 191L168 191z"/>
<path style="fill:#deac9e; stroke:none;" d="M369 191C370.248 191.685 370.548 191.749 372 192C370.752 191.315 370.452 191.251 369 191z"/>
<path style="fill:#db9b87; stroke:none;" d="M398 191L398 194C398.696 192.446 398.696 192.554 398 191z"/>
<path style="fill:#dda696; stroke:none;" d="M363.667 196.333C363.222 196.778 364.278 196.722 364.333 196.667C364.778 196.222 363.722 196.278 363.667 196.333z"/>
<path style="fill:#e1bfb5; stroke:none;" d="M397.333 196.667C397.278 196.722 397.222 197.778 397.667 197.333C397.722 197.278 397.778 196.222 397.333 196.667z"/>
<path style="fill:#db9b89; stroke:none;" d="M192 198L192 201C192.696 199.446 192.696 199.554 192 198z"/>
<path style="fill:#ddaa9a; stroke:none;" d="M396.333 198.667C396.278 198.722 396.222 199.778 396.667 199.333C396.722 199.278 396.778 198.222 396.333 198.667z"/>
<path style="fill:#dfb9ad; stroke:none;" d="M232.667 199.333C232.222 199.778 233.278 199.722 233.333 199.667C233.778 199.222 232.722 199.278 232.667 199.333z"/>
<path style="fill:#dfb6a9; stroke:none;" d="M234 200L235 201L234 200M357 200C358.248 200.685 358.548 200.749 360 201C358.752 200.315 358.452 200.251 357 200z"/>
<path style="fill:#e0bbaf; stroke:none;" d="M193.333 201.667C193.278 201.722 193.222 202.778 193.667 202.333C193.722 202.278 193.778 201.222 193.333 201.667z"/>
<path style="fill:#ddaa9a; stroke:none;" d="M395.333 201.667C395.278 201.722 395.222 202.778 395.667 202.333C395.722 202.278 395.778 201.222 395.333 201.667z"/>
<path style="fill:#dda696; stroke:none;" d="M194 203L194 206C194.696 204.446 194.696 204.554 194 203z"/>
<path style="fill:#afafaf; stroke:none;" d="M66.3333 204.667C66.2777 204.722 66.2223 205.778 66.6667 205.333C66.7222 205.278 66.7778 204.222 66.3333 204.667z"/>
<path style="fill:#dfb4a6; stroke:none;" d="M238.667 204.333C238.222 204.778 239.278 204.722 239.333 204.667C239.778 204.222 238.722 204.278 238.667 204.333z"/>
<path style="fill:#ddaa9a; stroke:none;" d="M351.667 205.333C351.222 205.778 352.278 205.722 352.333 205.667C352.778 205.222 351.722 205.278 351.667 205.333z"/>
<path style="fill:#e0bbaf; stroke:none;" d="M394.333 205.667C394.278 205.722 394.222 206.778 394.667 206.333C394.722 206.278 394.778 205.222 394.333 205.667z"/>
<path style="fill:#2f2f2f; stroke:none;" d="M65 206L66 207L65 206z"/>
<path style="fill:#dfb0a2; stroke:none;" d="M196 208L196 211C196.696 209.446 196.696 209.554 196 208z"/>
<path style="fill:#ddaa9a; stroke:none;" d="M392.333 208.667C392.278 208.722 392.222 209.778 392.667 209.333C392.722 209.278 392.778 208.222 392.333 208.667M244.667 209.333C244.222 209.778 245.278 209.722 245.333 209.667C245.778 209.222 244.722 209.278 244.667 209.333z"/>
<path style="fill:#dda696; stroke:none;" d="M197 211L197 214C197.696 212.446 197.696 212.554 197 211z"/>
<path style="fill:#dfb4a6; stroke:none;" d="M343 211L344 212L343 211z"/>
<path style="fill:#dfb0a2; stroke:none;" d="M342 212L343 213L342 212z"/>
<path style="fill:#dfb9ad; stroke:none;" d="M391.333 212.667C391.278 212.722 391.222 213.778 391.667 213.333C391.722 213.278 391.778 212.222 391.333 212.667z"/>
<path style="fill:#dda696; stroke:none;" d="M250 214C251.248 214.685 251.548 214.749 253 215C251.752 214.315 251.452 214.251 250 214z"/>
<path style="fill:#dda492; stroke:none;" d="M390.333 214.667C390.278 214.722 390.222 215.778 390.667 215.333C390.722 215.278 390.778 214.222 390.333 214.667z"/>
<path style="fill:#dfb9ad; stroke:none;" d="M198.333 215.667C198.278 215.722 198.222 216.778 198.667 216.333C198.722 216.278 198.778 215.222 198.333 215.667z"/>
<path style="fill:#e1c1b7; stroke:none;" d="M199 217L199 220C199.696 218.446 199.696 218.554 199 217z"/>
<path style="fill:#e1bcb2; stroke:none;" d="M257.667 219.333C257.222 219.778 258.278 219.722 258.333 219.667C258.778 219.222 257.722 219.278 257.667 219.333z"/>
<path style="fill:#e1c1b7; stroke:none;" d="M332.667 219.333C332.222 219.778 333.278 219.722 333.333 219.667C333.778 219.222 332.722 219.278 332.667 219.333z"/>
<path style="fill:#dfb9ad; stroke:none;" d="M388.333 219.667C388.278 219.722 388.222 220.778 388.667 220.333C388.722 220.278 388.778 219.222 388.333 219.667z"/>
<path style="fill:#e0bbaf; stroke:none;" d="M200.333 220.667C200.278 220.722 200.222 221.778 200.667 221.333C200.722 221.278 200.778 220.222 200.333 220.667z"/>
<path style="fill:#dc9d8a; stroke:none;" d="M387.333 221.667C387.278 221.722 387.222 222.778 387.667 222.333C387.722 222.278 387.778 221.222 387.333 221.667z"/>
<path style="fill:#dfb9ad; stroke:none;" d="M263.667 224.333C263.222 224.778 264.278 224.722 264.333 224.667C264.778 224.222 263.722 224.278 263.667 224.333z"/>
<path style="fill:#e1bfb5; stroke:none;" d="M325 224C326.248 224.685 326.548 224.749 328 225C326.752 224.315 326.452 224.251 325 224z"/>
<path style="fill:#dfb9ad; stroke:none;" d="M202.333 225.667C202.278 225.722 202.222 226.778 202.667 226.333C202.722 226.278 202.778 225.222 202.333 225.667M385.333 226.667C385.278 226.722 385.222 227.778 385.667 227.333C385.722 227.278 385.778 226.222 385.333 226.667z"/>
<path style="fill:#dda696; stroke:none;" d="M203.333 227.667C203.278 227.722 203.222 228.778 203.667 228.333C203.722 228.278 203.778 227.222 203.333 227.667z"/>
<path style="fill:#e0bbaf; stroke:none;" d="M320.667 228.333C320.222 228.778 321.278 228.722 321.333 228.667C321.778 228.222 320.722 228.278 320.667 228.333z"/>
<path style="fill:#dda08e; stroke:none;" d="M384.333 228.667C384.278 228.722 384.222 229.778 384.667 229.333C384.722 229.278 384.778 228.222 384.333 228.667z"/>
<path style="fill:#dda492; stroke:none;" d="M204 230L204 233C204.696 231.446 204.696 231.554 204 230M270.667 230.333C270.222 230.778 271.278 230.722 271.333 230.667C271.778 230.222 270.722 230.278 270.667 230.333z"/>
<path style="fill:#e3c9c3; stroke:none;" d="M384.333 230.667C384.278 230.722 384.222 231.778 384.667 231.333C384.722 231.278 384.778 230.222 384.333 230.667z"/>
<path style="fill:#dfb4a6; stroke:none;" d="M383.333 232.667C383.278 232.722 383.222 233.778 383.667 233.333C383.722 233.278 383.778 232.222 383.333 232.667z"/>
<path style="fill:#e1c7c0; stroke:none;" d="M313.667 233.333C313.222 233.778 314.278 233.722 314.333 233.667C314.778 233.222 313.722 233.278 313.667 233.333z"/>
<path style="fill:#dda08e; stroke:none;" d="M381.333 235.667C381.278 235.722 381.222 236.778 381.667 236.333C381.722 236.278 381.778 235.222 381.333 235.667z"/>
<path style="fill:#dfb9ad; stroke:none;" d="M206.333 236.667C206.278 236.722 206.222 237.778 206.667 237.333C206.722 237.278 206.778 236.222 206.333 236.667z"/>
<path style="fill:#dfb6a9; stroke:none;" d="M310 236L311 237L310 236z"/>
<path style="fill:#dfb4a6; stroke:none;" d="M309 237L310 238L309 237z"/>
<path style="fill:#e1c7c0; stroke:none;" d="M381.333 237.667C381.278 237.722 381.222 238.778 381.667 238.333C381.722 238.278 381.778 237.222 381.333 237.667z"/>
<path style="fill:#dda696; stroke:none;" d="M207 238L207 241C207.696 239.446 207.696 239.554 207 238z"/>
<path style="fill:#dfb1a5; stroke:none;" d="M307.667 238.333C307.222 238.778 308.278 238.722 308.333 238.667C308.778 238.222 307.722 238.278 307.667 238.333z"/>
<path style="fill:#deac9e; stroke:none;" d="M380.333 239.667C380.278 239.722 380.222 240.778 380.667 240.333C380.722 240.278 380.778 239.222 380.333 239.667z"/>
<path style="fill:#dda08e; stroke:none;" d="M282 240C283.248 240.685 283.548 240.749 285 241C283.752 240.315 283.452 240.251 282 240z"/>
<path style="fill:#e1c3bb; stroke:none;" d="M208.333 241.667C208.278 241.722 208.222 242.778 208.667 242.333C208.722 242.278 208.778 241.222 208.333 241.667z"/>
<path style="fill:#e0bbaf; stroke:none;" d="M300.667 243.333C300.222 243.778 301.278 243.722 301.333 243.667C301.778 243.222 300.722 243.278 300.667 243.333z"/>
<path style="fill:#e1bfb5; stroke:none;" d="M209.333 244.667C209.278 244.722 209.222 245.778 209.667 245.333C209.722 245.278 209.778 244.222 209.333 244.667z"/>
<path style="fill:#dfb4a6; stroke:none;" d="M289.667 245.333C289.222 245.778 290.278 245.722 290.333 245.667C290.778 245.222 289.722 245.278 289.667 245.333z"/>
<path style="fill:#deac9e; stroke:none;" d="M377.333 246.667C377.278 246.722 377.222 247.778 377.667 247.333C377.722 247.278 377.778 246.222 377.333 246.667z"/>
<path style="fill:#e1c7c0; stroke:none;" d="M210 247L210 250C210.696 248.446 210.696 248.554 210 247M294 247C295.248 247.685 295.548 247.749 297 248C295.752 247.315 295.452 247.251 294 247M212 252L212 255C212.696 253.446 212.696 253.554 212 252z"/>
<path style="fill:#e1c1b7; stroke:none;" d="M214 257L214 260C214.696 258.446 214.696 258.554 214 257z"/>
<path style="fill:#e3d3cf; stroke:none;" d="M371 262L370 266C371.303 264.332 371.553 264.008 371 262z"/>
<path style="fill:#db9b87; stroke:none;" d="M218 268L219 273C219.651 270.766 219.318 269.926 218 268z"/>
<path style="fill:#e1bfb5; stroke:none;" d="M368.333 269.667C368.278 269.722 368.222 270.778 368.667 270.333C368.722 270.278 368.778 269.222 368.333 269.667z"/>
<path style="fill:#ddaa9a; stroke:none;" d="M367.333 271.667C367.278 271.722 367.222 272.778 367.667 272.333C367.722 272.278 367.778 271.222 367.333 271.667z"/>
<path style="fill:#dfb6a9; stroke:none;" d="M220 273L220 276C220.696 274.446 220.696 274.554 220 273z"/>
<path style="fill:#e1c7c0; stroke:none;" d="M366.333 274.667C366.278 274.722 366.222 275.778 366.667 275.333C366.722 275.278 366.778 274.222 366.333 274.667z"/>
<path style="fill:#dfb4a6; stroke:none;" d="M221.333 276.667C221.278 276.722 221.222 277.778 221.667 277.333C221.722 277.278 221.778 276.222 221.333 276.667z"/>
<path style="fill:#dfb6a9; stroke:none;" d="M365.333 276.667C365.278 276.722 365.222 277.778 365.667 277.333C365.722 277.278 365.778 276.222 365.333 276.667z"/>
<path style="fill:#dda08e; stroke:none;" d="M364.333 278.667C364.278 278.722 364.222 279.778 364.667 279.333C364.722 279.278 364.778 278.222 364.333 278.667z"/>
<path style="fill:#dfb9ad; stroke:none;" d="M223.333 281.667C223.278 281.722 223.222 282.778 223.667 282.333C223.722 282.278 223.778 281.222 223.333 281.667z"/>
<path style="fill:#e0bbaf; stroke:none;" d="M363.333 282.667C363.278 282.722 363.222 283.778 363.667 283.333C363.722 283.278 363.778 282.222 363.333 282.667z"/>
<path style="fill:#ddaa9a; stroke:none;" d="M225.333 287.667C225.278 287.722 225.222 288.778 225.667 288.333C225.722 288.278 225.778 287.222 225.333 287.667z"/>
<path style="fill:#e3cbc3; stroke:none;" d="M361.333 287.667C361.278 287.722 361.222 288.778 361.667 288.333C361.722 288.278 361.778 287.222 361.333 287.667z"/>
<path style="fill:#e1bcb2; stroke:none;" d="M360 289L360 292C360.696 290.446 360.696 290.554 360 289z"/>
<path style="fill:#dda492; stroke:none;" d="M227 291L227 294C227.696 292.446 227.696 292.554 227 291M359 291L359 294C359.696 292.446 359.696 292.554 359 291z"/>
<path style="fill:#dc9d8a; stroke:none;" d="M228 294L228 297C228.696 295.446 228.696 295.554 228 294z"/>
<path style="fill:#e1c3bb; stroke:none;" d="M358.333 294.667C358.278 294.722 358.222 295.778 358.667 295.333C358.722 295.278 358.778 294.222 358.333 294.667z"/>
<path style="fill:#dfb4a6; stroke:none;" d="M357 296L356 301C357.318 299.074 357.651 298.234 357 296z"/>
<path style="fill:#dfb6a9; stroke:none;" d="M229.333 297.667C229.278 297.722 229.222 298.778 229.667 298.333C229.722 298.278 229.778 297.222 229.333 297.667z"/>
<path style="fill:#dda696; stroke:none;" d="M230 299L230 302C230.696 300.446 230.696 300.554 230 299z"/>
<path style="fill:#dfb1a5; stroke:none;" d="M231 303L231 306C231.696 304.446 231.696 304.554 231 303z"/>
<path style="fill:#ddaa9a; stroke:none;" d="M354 303L354 306C354.696 304.446 354.696 304.554 354 303z"/>
<path style="fill:#dfb0a2; stroke:none;" d="M353.333 306.667C353.278 306.722 353.222 307.778 353.667 307.333C353.722 307.278 353.778 306.222 353.333 306.667z"/>
<path style="fill:#dda492; stroke:none;" d="M233 308L234 313C234.651 310.766 234.318 309.926 233 308z"/>
<path style="fill:#dfb6a9; stroke:none;" d="M352 309L352 312C352.696 310.446 352.696 310.554 352 309z"/>
<path style="fill:#e1c5bd; stroke:none;" d="M235 313L235 316C235.696 314.446 235.696 314.554 235 313z"/>
<path style="fill:#dda08e; stroke:none;" d="M236 315L236 318C236.696 316.446 236.696 316.554 236 315z"/>
<path style="fill:#e1c3bb; stroke:none;" d="M349.333 317.667C349.278 317.722 349.222 318.778 349.667 318.333C349.722 318.278 349.778 317.222 349.333 317.667z"/>

<path style="fill:#dfb0a2; stroke:none;" d="M348.333 319.667C348.278 319.722 348.222 320.778 348.667 320.333C348.722 320.278 348.778 319.222 348.333 319.667z"/>

<path style="fill:#dc9d8a; stroke:none;" d="M238 320L238 323C238.696 321.446 238.696 321.554 238 320z"/>
<path style="fill:#dda492; stroke:none;" d="M239 323L239 326C239.696 324.446 239.696 324.554 239 323z"/>
<path style="fill:#e1bfb5; stroke:none;" d="M346.333 324.667C346.278 324.722 346.222 325.778 346.667 325.333C346.722 325.278 346.778 324.222 346.333 324.667z"/>
<path style="fill:#deac9e; stroke:none;" d="M345.333 326.667C345.278 326.722 345.222 327.778 345.667 327.333C345.722 327.278 345.778 326.222 345.333 326.667z"/>
<path style="fill:#dda696; stroke:none;" d="M240.333 327.667C240.278 327.722 240.222 328.778 240.667 328.333C240.722 328.278 240.778 327.222 240.333 327.667z"/>
<path style="fill:#e3cbc3; stroke:none;" d="M241.333 330.667C241.278 330.722 241.222 331.778 241.667 331.333C241.722 331.278 241.778 330.222 241.333 330.667z"/>
<path style="fill:#e1c3bb; stroke:none;" d="M344.333 330.667C344.278 330.722 344.222 331.778 344.667 331.333C344.722 331.278 344.778 330.222 344.333 330.667z"/>
<path style="fill:#dfb1a5; stroke:none;" d="M242.333 332.667C242.278 332.722 242.222 333.778 242.667 333.333C242.722 333.278 242.778 332.222 242.333 332.667z"/>
<path style="fill:#ddaa9a; stroke:none;" d="M342.333 333.667C342.278 333.722 342.222 334.778 342.667 334.333C342.722 334.278 342.778 333.222 342.333 333.667z"/>
<path style="fill:#dda08e; stroke:none;" d="M243.333 334.667C243.278 334.722 243.222 335.778 243.667 335.333C243.722 335.278 243.778 334.222 243.333 334.667z"/>
<path style="fill:#e1bfb5; stroke:none;" d="M243.333 336.667C243.278 336.722 243.222 337.778 243.667 337.333C243.722 337.278 243.778 336.222 243.333 336.667z"/>
<path style="fill:#e1bcb2; stroke:none;" d="M341.333 337.667C341.278 337.722 341.222 338.778 341.667 338.333C341.722 338.278 341.778 337.222 341.333 337.667z"/>
<path style="fill:#dda08e; stroke:none;" d="M245.333 339.667C245.278 339.722 245.222 340.778 245.667 340.333C245.722 340.278 245.778 339.222 245.333 339.667z"/>
<path style="fill:#ddaa9a; stroke:none;" d="M340.333 339.667C340.278 339.722 340.222 340.778 340.667 340.333C340.722 340.278 340.778 339.222 340.333 339.667z"/>
<path style="fill:#e3c9c3; stroke:none;" d="M245.333 341.667C245.278 341.722 245.222 342.778 245.667 342.333C245.722 342.278 245.778 341.222 245.333 341.667z"/>
<path style="fill:#dfb6a9; stroke:none;" d="M246 343L246 346C246.696 344.446 246.696 344.554 246 343z"/>
<path style="fill:#dda696; stroke:none;" d="M338 344L337 348C338.303 346.332 338.553 346.008 338 344z"/>
<path style="fill:#dfb6a9; stroke:none;" d="M248.333 348.667C248.278 348.722 248.222 349.778 248.667 349.333C248.722 349.278 248.778 348.222 248.333 348.667z"/>
<path style="fill:#dda492; stroke:none;" d="M249 350L249 353C249.696 351.446 249.696 351.554 249 350M335 351L334 355C335.303 353.332 335.553 353.008 335 351z"/>
<path style="fill:#dfb9ad; stroke:none;" d="M250.333 353.667C250.278 353.722 250.222 354.778 250.667 354.333C250.722 354.278 250.778 353.222 250.333 353.667z"/>
<path style="fill:#deac9e; stroke:none;" d="M251 355L251 358C251.696 356.446 251.696 356.554 251 355M333 357L332 362C333.318 360.074 333.651 359.234 333 357z"/>
<path style="fill:#dfb9ad; stroke:none;" d="M252 359L252 362C252.696 360.446 252.696 360.554 252 359z"/>
<path style="fill:#e1c1b7; stroke:none;" d="M254 364L254 367C254.696 365.446 254.696 365.554 254 364z"/>
<path style="fill:#dc9d8a; stroke:none;" d="M330 364L329 369C330.318 367.074 330.651 366.234 330 364z"/>
<path style="fill:#dfb6a9; stroke:none;" d="M255.333 367.667C255.278 367.722 255.222 368.778 255.667 368.333C255.722 368.278 255.778 367.222 255.333 367.667z"/>
<path style="fill:#dda492; stroke:none;" d="M328.333 369.667C328.278 369.722 328.222 370.778 328.667 370.333C328.722 370.278 328.778 369.222 328.333 369.667z"/>
<path style="fill:#e0bbaf; stroke:none;" d="M327 371L327 374C327.696 372.446 327.696 372.554 327 371z"/>
<path style="fill:#dfb6a9; stroke:none;" d="M257.333 372.667C257.278 372.722 257.222 373.778 257.667 373.333C257.722 373.278 257.778 372.222 257.333 372.667z"/>
<path style="fill:#dfb1a5; stroke:none;" d="M323.333 381.667C323.278 381.722 323.222 382.778 323.667 382.333C323.722 382.278 323.778 381.222 323.333 381.667z"/>
<path style="fill:#dda08e; stroke:none;" d="M261.333 383.667C261.278 383.722 261.222 384.778 261.667 384.333C261.722 384.278 261.778 383.222 261.333 383.667z"/>
<path style="fill:#e1c5bd; stroke:none;" d="M321.333 387.667C321.278 387.722 321.222 388.778 321.667 388.333C321.722 388.278 321.778 387.222 321.333 387.667z"/>
<path style="fill:#ddaa9a; stroke:none;" d="M263.333 388.667C263.278 388.722 263.222 389.778 263.667 389.333C263.722 389.278 263.778 388.222 263.333 388.667z"/>
<path style="fill:#e3cbc3; stroke:none;" d="M319.333 392.667C319.278 392.722 319.222 393.778 319.667 393.333C319.722 393.278 319.778 392.222 319.333 392.667z"/>
<path style="fill:#dfb1a5; stroke:none;" d="M265.333 393.667C265.278 393.722 265.222 394.778 265.667 394.333C265.722 394.278 265.778 393.222 265.333 393.667z"/>
<path style="fill:#e0bbaf; stroke:none;" d="M318.333 394.667C318.278 394.722 318.222 395.778 318.667 395.333C318.722 395.278 318.778 394.222 318.333 394.667z"/>
<path style="fill:#dc9d8a; stroke:none;" d="M266.333 395.667C266.278 395.722 266.222 396.778 266.667 396.333C266.722 396.278 266.778 395.222 266.333 395.667z"/>
<path style="fill:#e1c1b7; stroke:none;" d="M266.333 397.667C266.278 397.722 266.222 398.778 266.667 398.333C266.722 398.278 266.778 397.222 266.333 397.667M317.333 397.667C317.278 397.722 317.222 398.778 317.667 398.333C317.722 398.278 317.778 397.222 317.333 397.667z"/>
<path style="fill:#dfb9ad; stroke:none;" d="M267 399L267 402C267.696 400.446 267.696 400.554 267 399z"/>
<path style="fill:#dfb0a2; stroke:none;" d="M315.333 401.667C315.278 401.722 315.222 402.778 315.667 402.333C315.722 402.278 315.778 401.222 315.333 401.667z"/>
<path style="fill:#e3c9c3; stroke:none;" d="M268.333 402.667C268.278 402.722 268.222 403.778 268.667 403.333C268.722 403.278 268.778 402.222 268.333 402.667z"/>
<path style="fill:#dda08e; stroke:none;" d="M314 403L314 406C314.696 404.446 314.696 404.554 314 403z"/>
<path style="fill:#dfb6a9; stroke:none;" d="M269.333 404.667C269.278 404.722 269.222 405.778 269.667 405.333C269.722 405.278 269.778 404.222 269.333 404.667z"/>
<path style="fill:#e1c3bb; stroke:none;" d="M313 407L313 410C313.696 408.446 313.696 408.554 313 407z"/>
<path style="fill:#dfb4a6; stroke:none;" d="M271.333 409.667C271.278 409.722 271.222 410.778 271.667 410.333C271.722 410.278 271.778 409.222 271.333 409.667z"/>
<path style="fill:#dc9d8a; stroke:none;" d="M272.333 411.667C272.278 411.722 272.222 412.778 272.667 412.333C272.722 412.278 272.778 411.222 272.333 411.667M273.333 414.667C273.278 414.722 273.222 415.778 273.667 415.333C273.722 415.278 273.778 414.222 273.333 414.667z"/>
<path style="fill:#e3c9c3; stroke:none;" d="M310.333 415.667C310.278 415.722 310.222 416.778 310.667 416.333C310.722 416.278 310.778 415.222 310.333 415.667z"/>
<path style="fill:#e0bbaf; stroke:none;" d="M273.333 416.667C273.278 416.722 273.222 417.778 273.667 417.333C273.722 417.278 273.778 416.222 273.333 416.667M309.333 417.667C309.278 417.722 309.222 418.778 309.667 418.333C309.722 418.278 309.778 417.222 309.333 417.667z"/>
<path style="fill:#dda08e; stroke:none;" d="M275.333 419.667C275.278 419.722 275.222 420.778 275.667 420.333C275.722 420.278 275.778 419.222 275.333 419.667z"/>
<path style="fill:#e1c3bb; stroke:none;" d="M308 419L307 424C308.318 422.074 308.651 421.234 308 419z"/>
<path style="fill:#e1bcb2; stroke:none;" d="M275.333 421.667C275.278 421.722 275.222 422.778 275.667 422.333C275.722 422.278 275.778 421.222 275.333 421.667z"/>
<path style="fill:#deac9e; stroke:none;" d="M276.333 423.667C276.278 423.722 276.222 424.778 276.667 424.333C276.722 424.278 276.778 423.222 276.333 423.667z"/>
<path style="fill:#dfb4a6; stroke:none;" d="M306.333 424.667C306.278 424.722 306.222 425.778 306.667 425.333C306.722 425.278 306.778 424.222 306.333 424.667z"/>
<path style="fill:#e1bfb5; stroke:none;" d="M277.333 426.667C277.278 426.722 277.222 427.778 277.667 427.333C277.722 427.278 277.778 426.222 277.333 426.667z"/>
<path style="fill:#dda08e; stroke:none;" d="M305.333 426.667C305.278 426.722 305.222 427.778 305.667 427.333C305.722 427.278 305.778 426.222 305.333 426.667z"/>
<path style="fill:#deac9e; stroke:none;" d="M278.333 428.667C278.278 428.722 278.222 429.778 278.667 429.333C278.722 429.278 278.778 428.222 278.333 428.667z"/>
<path style="fill:#e0bbaf; stroke:none;" d="M304.333 429.667C304.278 429.722 304.222 430.778 304.667 430.333C304.722 430.278 304.778 429.222 304.333 429.667z"/>
<path style="fill:#ddaa9a; stroke:none;" d="M303.333 431.667C303.278 431.722 303.222 432.778 303.667 432.333C303.722 432.278 303.778 431.222 303.333 431.667z"/>
<path style="fill:#e1c5bd; stroke:none;" d="M279.333 432.667C279.278 432.722 279.222 433.778 279.667 433.333C279.722 433.278 279.778 432.222 279.333 432.667z"/>
<path style="fill:#db9b87; stroke:none;" d="M302.333 433.667C302.278 433.722 302.222 434.778 302.667 434.333C302.722 434.278 302.778 433.222 302.333 433.667z"/>
<path style="fill:#e1c7c0; stroke:none;" d="M302.333 435.667C302.278 435.722 302.222 436.778 302.667 436.333C302.722 436.278 302.778 435.222 302.333 435.667M281.333 437.667C281.278 437.722 281.222 438.778 281.667 438.333C281.722 438.278 281.778 437.222 281.333 437.667z"/>
<path style="fill:#dc9d8a; stroke:none;" d="M300.333 438.667C300.278 438.722 300.222 439.778 300.667 439.333C300.722 439.278 300.778 438.222 300.333 438.667z"/>
</svg>